<?xml version="1.0" encoding="UTF-8"?>
<svg xmlns="http://www.w3.org/2000/svg" xmlns:xlink="http://www.w3.org/1999/xlink" width="299pt" height="207pt" viewBox="0 0 299 207" version="1.2">

<g fill="rgb(4.017639%,3.95813%,4.968262%)">
	<path d="M 105.390625 94.046875 C 101.71875 94.046875 98.730469 91.058594 98.730469 87.386719 C 98.730469 83.714844 101.71875 80.730469 105.390625 80.730469 C 109.0625 80.730469 112.050781 83.714844 112.050781 87.386719 C 112.050781 91.058594 109.0625 94.046875 105.390625 94.046875 M 105.390625 82.160156 C 102.507812 82.160156 100.164062 84.503906 100.164062 87.386719 C 100.164062 90.269531 102.507812 92.613281 105.390625 92.613281 C 108.273438 92.613281 110.617188 90.269531 110.617188 87.386719 C 110.617188 84.503906 108.273438 82.160156 105.390625 82.160156"/>
	<path d="M 207.183594 94.046875 C 203.511719 94.046875 200.523438 91.058594 200.523438 87.386719 C 200.523438 83.714844 203.511719 80.730469 207.183594 80.730469 C 210.855469 80.730469 213.84375 83.714844 213.84375 87.386719 C 213.84375 91.058594 210.855469 94.046875 207.183594 94.046875 M 207.183594 82.160156 C 204.300781 82.160156 201.957031 84.503906 201.957031 87.386719 C 201.957031 90.269531 204.300781 92.613281 207.183594 92.613281 C 210.066406 92.613281 212.410156 90.269531 212.410156 87.386719 C 212.410156 84.503906 210.066406 82.160156 207.183594 82.160156"/>
</g>

<path style="fill:none;stroke-width:2.4;stroke:rgb(4.017639%,3.95813%,4.968262%);stroke-miterlimit:10;" d="M 1.179687 197.660156 C 3.425782 197.660156 9.789062 202.875 9.789062 205.1875 L 288.34375 205.1875 C 288.34375 202.875 294.707032 197.660156 296.953126 197.660156 L 296.953126 9.109376 C 294.707032 9.109376 288.34375 3.898438 288.34375 1.582032 L 9.789062 1.582032 C 9.789062 3.898438 3.425782 9.109376 1.175781 9.109376 Z"/>

<g fill="none" stroke-width="1.5" stroke="rgb(4.017639%,3.95813%,4.968262%)" stroke-miterlimit="10">
	<path d="M 296.953125 184.417969 C 293.691406 194.871094 282.757812 204.890626 275.675782 205.1875"/>
	<path d="M 1.179687 184.417969 C 4.441406 194.871094 15.375 204.890626 22.457032 205.1875"/>
	<path d="M 296.953125 22.351562 C 293.691406 11.898438 282.757812 1.882812 275.675782 1.585938"/>
	<path d="M 1.175781 22.351562 C 4.441406 11.898438 15.371094 1.882812 22.453126 1.585938"/>

	<path d="M 7.175781 11.628906 L 7.175781 195.140626"/>
	<path d="M 290.953125 11.628906 L 290.953125 195.140626"/>
</g>

</svg>
