<?xml version="1.0" encoding="UTF-8"?>
<svg xmlns="http://www.w3.org/2000/svg" xmlns:xlink="http://www.w3.org/1999/xlink" width="1190.548pt" height="260pt" viewBox="0 0 1190.548 260" version="1.2">

<g id="banner_ends_bg" fill="white" stroke="none">
	<path d="M 109.007812 186.609375 C 74.625 187.699219 32.050781 174.683594 32.050781 174.683594 L 65.910156 144.238281 L 45.808594 103.230469 C 45.808594 103.230469 83.710938 113.765625 118.09375 112.675781 Z"/>
	<path style="stroke-width:2;stroke:rgb(13.729858%,12.159729%,12.548828%);" d="M 998.058594 191.648438 C 1049.234374 206.59375 1108.835938 200.25 1159.324218 184.757812 L 1133.621094 158.621094 L 1157.183594 111.265626 C 1106.6875 126.753906 1060.289062 129.054688 1009.105468 114.113282"/>
</g>

<g id="banner_ends_fg" fill="none" stroke-width="1.0" stroke="#0A0A0D" stroke-miterlimit="10">
	<path d="M 49.167969 110.105469 C 59.171876 112.609374 89.820312 119.574218 118.09375 118.675782"/>
	<path style="stroke-width:2;" d="M 109.007812 186.609375 C 74.625 187.699218 32.050782 174.683594 32.050782 174.683594 L 65.910156 144.238282 L 45.808594 103.230468 C 45.808594 103.230468 83.710938 113.765626 118.09375 112.675782 Z"/>
	<path d="M 109.007812 180.609375 C 81.777344 181.472656 49.40625 173.488282 37.121094 170.128906"/>
	<path style="stroke:rgb(13.729858%,12.159729%,12.548828%);" d="M 1153.84375 117.976562 C 1104.328126 132.773438 1058.625 134.75 1008.300782 120.058594"/>
	<path style="stroke:rgb(13.729858%,12.159729%,12.548828%);" d="M 998.863281 185.703125 C 1048.3125 200.144532 1105.628906 194.707032 1154.988282 180.347656"/>
</g>

<g id="banner_backflap">
	<path style="fill:rgb(69.805908%,69.256592%,69.392395%);stroke-width:2.75;stroke:#0A0A0D;" d="M 117.71875 189.265625 L 69.28125 196.433594 L 69.28125 121.433594 C 69.28125 121.433594 108.253906 121.023438 117.71875 114.265626 Z"/>
</g>


<g id="dragon_behindbanner">
	<path style="fill-rule:evenodd;fill:rgb(13.729858%,12.159729%,12.548828%);" d="M 141.1875 112.074219 C 142.75 112.066406 144.800781 112.484375 146.289062 113.910156 C 147.773438 115.335938 149.195312 114.296875 149.554688 115.589844 C 149.910156 116.878906 149.085938 119.214844 150.1875 122.832031 C 151.289062 126.449219 151.667969 126.410156 149.144531 125.980469 C 146.625 125.550781 144.144531 124.609375 142.046875 125.78125 C 139.953125 126.953125 138.550781 129.882812 137.300781 129.542969 C 136.050781 129.199219 137.746094 124.023438 136.292969 124.902344 C 134.835938 125.785156 132.894531 128.394531 131.140625 134.75 C 129.390625 141.105469 128.449219 146.871094 128.449219 146.871094 C 128.449219 146.871094 128.109375 136.304688 126.976562 133.609375 C 125.839844 130.914062 123.421875 127.71875 120.902344 132.003906 C 118.386719 136.289062 112.90625 148.230469 112.789062 152.734375 C 112.671875 157.242188 111.179688 139.933594 118.835938 127.539062 C 126.488281 115.148438 131.617188 113.5 132.460938 114.136719 C 133.308594 114.777344 132.132812 118.378906 133.597656 116.835938 C 135.347656 114.984375 139.042969 112.085938 141.1875 112.074219"/>
</g>

<g id="banner_front_bg" fill="white" stroke="#0A0A0D" stroke-width="2.75">
	<path d="M 479.003906 121.433594 C 355.496094 98.933594 192.789062 143.933594 69.28125 121.433594 L 69.28125 196.433594 C 192.789062 218.933594 355.496094 173.933594 479.003906 196.433594 Z"/>
</g>

<g id="banner_front_fg" fill="none" stroke="#0A0A0D">
	<path style="stroke-width:1.5;" d="M 479.003906 127.433594 C 355.496094 104.933594 192.789062 149.933594 69.28125 127.433594 L 69.28125 190.429688 C 192.789062 212.929688 355.496094 167.929688 479.003906 190.429688 Z"/>
	<path style="stroke-width:2.75;" d="M 69.28125 196.433594 C 192.789062 218.933594 355.5 173.933594 479.003906 196.433594"/>
</g>

<g id="dragon" fill-rule="evenodd" fill="rgb(13.729858%,12.159729%,12.548828%)">
	<path d="M 166.675781 115.484375 C 166.675781 115.484375 165.898438 117.515625 165.980469 119.472656 C 166.066406 121.429688 168.390625 127.644531 168.390625 127.644531 C 168.390625 127.644531 166.628906 127.425781 163.957031 128.585938 C 161.285156 129.746094 158.375 129.765625 156.472656 128.757812 C 154.574219 127.746094 152.253906 125.171875 152.253906 125.171875 C 152.253906 125.171875 151.535156 118.96875 152.140625 116.59375 C 152.75 114.214844 155.679688 107.28125 155.679688 107.28125 C 155.679688 107.28125 155.644531 110.414062 158.023438 111.964844 C 160.40625 113.519531 166.675781 115.484375 166.675781 115.484375"/>
	<path d="M 178.984375 75.164062 C 178.984375 75.164062 181.109375 76.128906 179.429688 77.855469 C 177.753906 79.585938 175.605469 79.757812 174.914062 82.429688 C 174.21875 85.101562 173.847656 87.515625 173.847656 87.515625 C 173.847656 87.515625 172.871094 87.890625 171.457031 88.585938 C 171.457031 88.585938 169.769531 88.414062 169.832031 87.429688 C 169.894531 86.445312 169.433594 84.804688 169.433594 84.804688 L 167.050781 88.214844 L 166.175781 86.605469 C 166.175781 86.605469 165.464844 87.644531 165.171875 89.203125 C 164.882812 90.757812 164.640625 92.359375 164.636719 92.386719 C 163.171875 92.605469 163.175781 90.820312 163.644531 89.253906 C 164.269531 87.15625 162.980469 83.851562 160.496094 82.6875 C 158.015625 81.523438 155.488281 79.796875 156.035156 79.523438 C 156.582031 79.253906 158.433594 79.671875 159.246094 78.46875 C 160.058594 77.265625 157.921875 76.1875 154.425781 75.109375 C 150.929688 74.027344 142.324219 71.65625 142.324219 71.65625 C 142.324219 71.65625 150.273438 72.945312 153.152344 72.027344 C 156.035156 71.113281 159.53125 69.351562 157.144531 67.953125 C 154.757812 66.558594 145.492188 64.464844 144.910156 64.285156 C 144.328125 64.105469 156.847656 61.5 165.730469 65.894531 C 174.609375 70.289062 177.210938 72.921875 177.210938 72.921875 C 177.210938 72.921875 173.308594 72.441406 173.984375 73.75 C 174.65625 75.0625 178.984375 75.164062 178.984375 75.164062"/>
	<path d="M 160.546875 84.730469 C 161.457031 86.132812 162.308594 88.222656 162.03125 90.40625 C 161.753906 92.589844 163.402344 93.253906 162.578125 94.339844 C 161.757812 95.429688 159.421875 96.074219 157.175781 99.210938 C 154.929688 102.351562 155.183594 102.671875 154.070312 100.144531 C 152.953125 97.621094 152.273438 94.835938 150.128906 93.644531 C 147.988281 92.453125 144.84375 92.9375 144.394531 91.609375 C 143.949219 90.28125 149.050781 88.730469 147.511719 87.945312 C 145.96875 87.164062 142.769531 86.964844 136.695312 89.164062 C 130.621094 91.359375 125.488281 93.9375 125.488281 93.9375 C 125.488281 93.9375 133.707031 87.359375 135.199219 84.738281 C 136.691406 82.117188 137.839844 78.042969 132.972656 78.324219 C 128.109375 78.605469 115.441406 80.769531 111.78125 83.339844 C 108.125 85.90625 121.050781 74.289062 135.339844 73.8125 C 149.621094 73.339844 153.894531 76.96875 153.875 78.109375 C 153.851562 79.25 150.304688 80.332031 152.378906 80.730469 C 154.867188 81.207031 159.304688 82.808594 160.546875 84.730469"/>
	<path d="M 147.644531 95.761719 C 149.109375 96.558594 150.855469 97.992188 151.652344 100.042969 C 152.449219 102.09375 154.210938 101.890625 154.007812 103.242188 C 153.804688 104.59375 152.058594 106.269531 151.578125 110.101562 C 151.097656 113.929688 151.472656 114.089844 149.292969 112.398438 C 147.109375 110.710938 145.183594 108.585938 142.734375 108.5625 C 140.28125 108.535156 137.746094 110.457031 136.722656 109.503906 C 135.691406 108.550781 139.441406 104.753906 137.710938 104.800781 C 135.984375 104.84375 133.078125 106.199219 128.785156 111.023438 C 124.492188 115.851562 121.203125 120.558594 121.203125 120.558594 C 121.203125 120.558594 125.296875 110.863281 125.359375 107.847656 C 125.421875 104.828125 124.492188 100.703125 120.347656 103.269531 C 116.203125 105.832031 106.097656 113.773438 104.105469 117.773438 C 102.117188 121.777344 107.945312 105.398438 120.277344 98.171875 C 132.609375 90.949219 138.097656 92.109375 138.621094 93.117188 C 139.144531 94.128906 136.539062 96.773438 138.558594 96.132812 C 140.96875 95.371094 145.636719 94.664062 147.644531 95.761719"/>
	<path d="M 170.765625 109.695312 C 169.71875 112.085938 169.246094 114.84375 169.246094 114.84375 C 169.246094 114.84375 165.546875 112.304688 163.210938 112.203125 C 160.875 112.101562 158.128906 108.757812 157.566406 107.203125 C 157.003906 105.648438 157.085938 103.96875 157.085938 103.96875 C 157.085938 103.96875 158.3125 101.832031 160.195312 99.441406 C 160.449219 100.003906 162.679688 103.507812 163.269531 103.78125 C 163.949219 104.101562 161.304688 103.707031 160.707031 103.199219 C 160.105469 102.6875 162.015625 106.121094 163.910156 106.484375 C 165.804688 106.839844 165.566406 106.8125 165.566406 106.8125 C 165.566406 106.8125 166.226562 107.457031 165.167969 107.640625 C 164.109375 107.816406 166.402344 109.078125 167.636719 109.351562 C 168.875 109.621094 170.765625 109.695312 170.765625 109.695312 M 160.222656 99.40625 C 160.648438 98.871094 161.105469 98.320312 161.589844 97.78125 L 162.886719 100.175781 C 162.886719 100.175781 160.691406 99.921875 160.222656 99.40625 M 162.199219 97.121094 C 162.492188 96.816406 162.792969 96.515625 163.101562 96.226562 C 163.347656 96.910156 163.648438 97.503906 163.648438 97.503906 Z"/>
	<path d="M 250.464844 121.777344 C 250.460938 121.488281 250.460938 121.191406 250.460938 120.871094 C 250.480469 116.691406 249.003906 121.914062 247.363281 120.300781 C 246.027344 118.984375 247.457031 117.328125 247.554688 115.644531 C 248.769531 115.433594 250.402344 115.609375 252.382812 114.1875 C 255.625 111.859375 248.738281 109.246094 252.402344 109.601562 C 256.066406 109.957031 257.003906 112.207031 257.789062 114.035156 C 258.574219 115.867188 256.328125 117.757812 257.785156 119.191406 C 259.242188 120.625 260.550781 115.988281 260.535156 119.699219 C 260.519531 123.40625 259.601562 124.640625 257.585938 129.886719 C 255.570312 135.136719 246.335938 139.742188 251.574219 135.933594 C 256.8125 132.125 253.378906 127.859375 254.0 129.0625 C 254.625 130.269531 251.671875 124.382812 252.726562 120.945312 Z"/>
	<path d="M 234.871094 127.273438 C 234.871094 127.273438 232.070312 123.332031 233.28125 120.554688 C 234.492188 117.773438 234.820312 120.761719 238.472656 118.132812 C 242.128906 115.507812 234.371094 112.566406 238.5 112.964844 C 242.628906 113.363281 243.683594 115.902344 244.566406 117.960938 C 245.453125 120.027344 242.917969 122.15625 244.5625 123.773438 C 246.203125 125.386719 247.679688 120.160156 247.660156 124.34375 C 247.640625 128.523438 248.09375 129.824219 245.367188 136.117188 C 243.816406 139.703125 241.953125 142.890625 239.703125 143.910156 C 236.453125 144.621094 237.832031 144.253906 238.503906 141.851562 C 240.535156 136.050781 236.746094 135.011719 237.449219 136.371094 C 238.152344 137.730469 234.738281 130.628906 235.929688 126.753906 Z"/>
	<path d="M 265.78125 120.53125 C 266.957031 117.335938 264.582031 115.441406 267.332031 116.945312 C 270.085938 118.449219 270.066406 120.527344 270.070312 122.222656 C 270.070312 123.917969 267.675781 124.648438 268.339844 126.261719 C 269.003906 127.871094 271.582031 124.679688 270.324219 127.578125 C 269.070312 130.480469 267.941406 131.136719 264.605469 134.578125 C 261.269531 138.015625 252.492188 138.535156 257.871094 137.304688 C 263.25 136.070312 261.988281 131.578125 262.074219 132.730469 C 262.15625 133.886719 261.8125 128.285156 263.792969 125.941406 Z"/>
	<path d="M 310.265625 192.585938 C 310.265625 192.585938 321.378906 195.421875 339.8125 186.390625 C 342.085938 185.277344 344.738281 184.0625 347.6875 182.8125 C 350.253906 181.441406 353.683594 179.660156 356.941406 178.136719 C 359.1875 177.085938 360.183594 177.25 360.535156 177.898438 C 362.292969 177.292969 364.097656 176.699219 365.945312 176.121094 C 368.425781 174.804688 371.570312 173.183594 374.5625 171.789062 C 377.890625 170.234375 378.476562 171.335938 378.28125 172.730469 C 379.171875 172.515625 380.066406 172.3125 380.964844 172.113281 C 383.417969 170.769531 388.171875 168.21875 392.597656 166.148438 C 398.335938 163.472656 395.921875 168.6875 395.421875 169.683594 C 396.609375 169.550781 397.796875 169.433594 398.984375 169.339844 C 400.839844 168.667969 405.496094 167.019531 409.753906 165.804688 C 414.933594 164.324219 411.855469 168.628906 411.511719 169.089844 C 412.804688 169.152344 414.085938 169.246094 415.359375 169.371094 L 414.902344 169.285156 C 414.902344 169.285156 420.167969 168.609375 424.777344 168.378906 C 428.871094 168.171875 426.292969 170.652344 425.664062 171.214844 C 426.398438 171.410156 427.128906 171.625 427.851562 171.851562 C 428.328125 171.894531 431.910156 172.234375 435.023438 172.753906 C 437.773438 173.214844 436.054688 174.425781 435.355469 174.84375 C 436.265625 175.28125 437.144531 175.738281 437.988281 176.203125 L 437.066406 175.636719 C 437.066406 175.636719 439.882812 176.304688 442.273438 177.074219 C 444.667969 177.839844 442.09375 178.722656 442.09375 178.722656 L 442.085938 178.71875 C 442.851562 179.234375 443.585938 179.765625 444.292969 180.304688 C 445.261719 180.5625 446.472656 180.898438 447.589844 181.257812 C 449.984375 182.023438 447.410156 182.902344 447.410156 182.902344 C 448.117188 183.546875 448.789062 184.195312 449.425781 184.851562 C 449.574219 184.824219 449.664062 184.808594 449.664062 184.808594 C 449.664062 184.808594 455.457031 183.140625 456.722656 181.796875 C 457.960938 180.488281 455.054688 185.46875 450.855469 186.386719 L 451.101562 186.664062 C 453.792969 186.441406 459.378906 185.601562 461.65625 184.046875 C 465.261719 181.585938 458.898438 188.164062 453.261719 188.667969 L 452.789062 188.710938 L 453.046875 189.046875 C 453.257812 188.671875 456.195312 190.503906 456.445312 190.703125 C 456.921875 191.085938 455.515625 191.105469 454.800781 191.507812 C 455.269531 192.21875 455.710938 192.925781 456.121094 193.621094 C 457.144531 194.078125 458.347656 194.464844 459.007812 195.167969 C 459.765625 195.976562 458.234375 195.652344 457.328125 195.820312 C 457.875 196.875 458.347656 197.902344 458.765625 198.882812 L 458.765625 198.886719 C 459.414062 199.320312 460.59375 200.011719 461.148438 200.839844 C 461.542969 201.433594 460.378906 201.21875 459.734375 201.363281 C 460.015625 202.152344 460.253906 202.902344 460.460938 203.597656 C 460.976562 204.261719 461.53125 204.9375 461.808594 205.429688 C 462.375 206.4375 463.132812 206.933594 462.851562 208.855469 C 462.566406 210.78125 462.09375 212.585938 462.511719 214.101562 C 462.925781 215.621094 460.757812 212.261719 460.1875 209.804688 C 459.621094 207.34375 459.816406 207.0 458.835938 205.125 C 458.625 204.714844 458.453125 204.285156 458.308594 203.859375 C 456.675781 201.601562 454.457031 198.804688 451.683594 195.945312 C 451.71875 203.226562 447.40625 211.183594 448.878906 206.039062 C 449.796875 202.8125 448.921875 196.550781 448.082031 192.5 C 447.808594 192.257812 447.53125 192.015625 447.25 191.773438 C 447.121094 197.363281 442.539062 202.503906 443.660156 200.417969 C 444.894531 198.128906 444.550781 189.660156 444.550781 189.609375 C 438.167969 184.808594 430.125 180.941406 420.632812 180.703125 C 412.289062 180.492188 405.269531 181.398438 398.988281 183.027344 C 398.398438 181.65625 397.785156 180.789062 397.785156 180.789062 C 397.785156 180.789062 398.027344 181.824219 398.28125 183.214844 C 394.128906 184.339844 390.289062 185.777344 386.589844 187.421875 C 385.9375 185.613281 385.089844 184.421875 385.089844 184.421875 C 385.089844 184.421875 385.445312 185.953125 385.753906 187.796875 C 380.9375 189.988281 376.339844 192.507812 371.566406 195.101562 C 371.25 191.71875 369.363281 189.054688 369.363281 189.054688 C 369.363281 189.054688 370.257812 192.875 370.425781 195.71875 C 368.230469 196.910156 365.988281 198.109375 363.664062 199.300781 C 360.542969 200.898438 356.894531 201.738281 353.0 202.035156 C 357.457031 195.363281 351.015625 188.988281 351.015625 188.988281 C 351.015625 188.988281 353.144531 193.984375 353.460938 196.738281 C 353.777344 199.476562 350.414062 202.125 350.371094 202.160156 C 346.300781 202.226562 342.035156 201.78125 337.871094 201.054688 C 340.9375 194.816406 335.21875 189.15625 335.21875 189.15625 C 335.21875 189.15625 337.347656 194.152344 337.667969 196.90625 C 337.832031 198.324219 337.007812 199.71875 336.167969 200.738281 C 322.457031 198.070312 310.265625 192.585938 310.265625 192.585938"/>
	<path d="M 172.398438 55.730469 C 170.015625 53.199219 166.609375 49.839844 163.132812 47.296875 C 156.75 42.628906 151.929688 34.746094 150.09375 27.800781 C 148.257812 20.859375 151.519531 13.957031 151.519531 13.957031 C 151.519531 13.957031 148.542969 24.382812 153.453125 31.078125 C 158.355469 37.773438 161.265625 42.261719 170.25 47.628906 C 174.996094 50.464844 180.308594 55.257812 184.261719 59.152344 C 184.222656 59.132812 179.941406 57.21875 177.929688 56.496094 C 175.914062 55.773438 176.707031 58.089844 176.707031 58.089844 Z"/>
	<path d="M 207.871094 110.804688 C 207.46875 110.414062 207.1875 110.203125 207.1875 110.203125 C 207.1875 110.203125 206.046875 107.859375 204.558594 109.609375 C 203.074219 111.359375 203.140625 112.921875 203.140625 112.921875 C 203.140625 112.921875 202.007812 109.699219 202.140625 107.769531 C 202.277344 105.835938 202.058594 104.574219 200.660156 105.96875 C 199.257812 107.363281 198.820312 109.84375 198.820312 109.84375 C 198.820312 109.84375 197.363281 107.691406 197.460938 105.996094 C 197.554688 104.300781 198.242188 101.976562 196.660156 103.269531 C 195.078125 104.558594 195.109375 107.117188 195.109375 107.117188 C 195.109375 107.117188 193.714844 104.265625 194.316406 101.652344 C 194.921875 99.042969 192.730469 99.335938 190.578125 100.734375 C 188.421875 102.132812 186.128906 104.703125 184.71875 109.585938 C 183.308594 114.472656 184.117188 123.71875 185.808594 125.210938 C 187.503906 126.703125 188.433594 127.441406 189.394531 125.671875 C 190.359375 123.910156 190.289062 121.585938 190.289062 121.585938 C 190.289062 121.585938 191.6875 123.046875 191.425781 124.871094 C 191.167969 126.695312 191.71875 128.511719 192.546875 127.921875 C 193.371094 127.332031 194.804688 123.492188 194.804688 123.492188 C 194.804688 123.492188 195.898438 127.648438 194.847656 129.015625 C 193.792969 130.378906 195.492188 130.535156 194.765625 132.335938 C 194.515625 132.96875 194.109375 133.382812 193.6875 133.65625 L 193.691406 133.65625 C 193.691406 133.65625 193.054688 134.253906 192.105469 135.125 C 192.078125 135.933594 191.882812 137.082031 191.085938 137.875 C 189.738281 139.203125 187.082031 140.175781 187.082031 140.175781 C 187.082031 140.175781 187.894531 139.265625 188.605469 138.230469 C 186.96875 139.617188 185.339844 140.890625 184.410156 141.324219 C 182.042969 142.425781 178.703125 143.878906 178.703125 143.878906 C 178.703125 143.878906 184.257812 139.609375 186.113281 137.554688 C 186.113281 137.554688 181.125 138.953125 178.804688 138.414062 C 177.199219 138.039062 179.523438 138.050781 182.027344 136.796875 C 180.988281 136.84375 181.144531 136.621094 181.769531 136.253906 C 181.769531 136.253906 179.488281 136.71875 177.59375 135.78125 C 176.375 135.179688 178.542969 135.128906 180.894531 134.175781 C 180.550781 134.226562 180.1875 134.269531 179.796875 134.308594 C 175.640625 134.703125 174.695312 133.09375 174.695312 133.09375 C 174.695312 133.09375 178.820312 132.757812 181.074219 132.117188 C 181.011719 132.109375 178.078125 131.8125 176.605469 130.3125 C 175.117188 128.796875 177.980469 130.644531 182.105469 130.398438 C 181.4375 129.992188 180.210938 129.640625 179.03125 129.132812 C 176.980469 128.25 176.742188 126.757812 176.742188 126.757812 C 176.742188 126.757812 179.078125 127.3125 180.335938 126.933594 C 180.335938 126.933594 179.078125 126.246094 178.917969 125.167969 C 178.785156 124.273438 179.128906 125.550781 181.039062 126.40625 C 180.988281 126.351562 179.699219 124.933594 179.792969 123.425781 C 179.859375 122.371094 179.773438 123.660156 180.992188 124.773438 C 180.945312 122.488281 181.574219 118.683594 180.890625 113.332031 C 180.585938 110.9375 179.101562 108.03125 176.3125 108.003906 C 172.507812 107.96875 169.421875 108.792969 167.488281 107.6875 C 165.550781 106.582031 168.132812 107.636719 168.867188 105.972656 C 169.605469 104.308594 169.023438 106.21875 167.09375 106.113281 C 165.160156 106.003906 163.839844 105.058594 163.839844 105.058594 C 163.839844 105.058594 165.203125 105.214844 165.785156 104.488281 C 166.367188 103.765625 164.902344 105.011719 163.5625 102.980469 C 162.222656 100.949219 162.910156 102.394531 164.679688 102.289062 C 166.453125 102.183594 164.738281 102.546875 163.890625 99.984375 C 163.039062 97.429688 163.539062 99.640625 165.632812 99.957031 C 167.722656 100.277344 165.625 100.296875 164.648438 97.484375 C 163.671875 94.671875 164.058594 94.191406 164.058594 94.191406 C 164.058594 94.191406 164.839844 95.027344 165.839844 95.472656 C 166.835938 95.917969 165.449219 94.914062 165.527344 92.683594 C 165.601562 90.453125 166.078125 89.992188 166.078125 89.992188 C 166.078125 89.992188 165.957031 91.65625 166.632812 91.902344 C 167.304688 92.148438 166.734375 90.0 167.640625 88.875 C 168.546875 87.75 167.324219 89.535156 169.332031 90.03125 C 171.335938 90.53125 172.890625 88.242188 174.03125 88.269531 C 175.171875 88.296875 178.058594 89.101562 178.925781 90.304688 C 179.035156 90.457031 179.15625 90.601562 179.285156 90.730469 C 180.625 90.605469 181.789062 90.714844 182.960938 92.21875 C 184.457031 94.132812 184.042969 101.265625 184.683594 101.96875 C 185.324219 102.671875 186.269531 98.582031 185.53125 95.210938 C 184.792969 91.835938 185.074219 90.242188 182.0625 89.03125 C 179.054688 87.820312 175.550781 87.636719 176.246094 85.429688 C 176.9375 83.222656 178.675781 80.230469 180.792969 79.066406 C 182.910156 77.910156 182.792969 77.21875 182.351562 75.332031 C 181.910156 73.453125 177.761719 69.4375 167.664062 64.003906 C 157.5625 58.570312 145.40625 55.808594 129.121094 44.171875 C 112.835938 32.535156 111.132812 12.898438 111.132812 12.898438 C 111.132812 12.898438 114.71875 30.953125 136.75 43.960938 C 136.824219 43.90625 137.070312 43.695312 136.9375 43.394531 C 136.78125 43.042969 137.480469 43.101562 138.554688 43.945312 C 139.402344 44.609375 140.621094 45.84375 141.101562 46.335938 L 141.375 46.476562 C 141.488281 46.359375 141.664062 46.109375 141.496094 45.808594 C 141.265625 45.390625 142.128906 45.382812 143.542969 46.304688 C 144.953125 47.222656 147.207031 49.203125 147.207031 49.203125 C 147.207031 49.203125 147.730469 48.800781 147.445312 48.285156 C 147.160156 47.769531 148.230469 47.761719 149.988281 48.902344 C 151.714844 50.027344 154.449219 52.421875 154.539062 52.496094 L 154.539062 52.5 L 154.460938 52.277344 C 154.460938 52.277344 155.148438 51.757812 154.773438 51.082031 C 154.402344 50.410156 155.800781 50.398438 158.089844 51.886719 C 159.960938 53.105469 162.738281 55.464844 163.691406 56.289062 L 164.03125 56.421875 C 164.15625 56.308594 164.886719 55.566406 164.351562 54.722656 C 163.761719 53.804688 165.742188 53.660156 169.109375 55.566406 C 172.464844 57.464844 177.882812 61.648438 177.917969 61.675781 C 178.183594 61.472656 179.082031 60.679688 178.574219 59.582031 C 177.976562 58.304688 180.539062 58.464844 184.53125 61.484375 C 188.511719 64.496094 194.738281 70.792969 194.78125 70.835938 L 194.78125 70.839844 C 194.78125 70.839844 195.96875 70.566406 195.878906 69.480469 C 195.789062 68.394531 197.605469 69.195312 199.691406 72.453125 C 201.777344 75.710938 204.621094 81.972656 204.621094 81.972656 C 204.640625 81.816406 204.722656 81.667969 204.882812 81.539062 C 206.15625 80.496094 205.347656 79.929688 205.347656 79.929688 L 208.769531 84.257812 C 208.820312 84.214844 208.878906 84.171875 208.949219 84.140625 C 210.4375 83.429688 209.785156 82.6875 209.785156 82.6875 L 211.921875 87.359375 C 211.976562 87.320312 212.046875 87.289062 212.125 87.261719 C 213.691406 86.75 213.140625 85.929688 213.140625 85.929688 L 214.832031 91.410156 C 216.035156 91.050781 215.664062 90.300781 215.664062 90.300781 L 216.664062 96.058594 C 218.011719 99.414062 218.71875 102.253906 218.71875 102.253906 C 218.71875 102.253906 220.203125 105.285156 221.746094 106.199219 C 222.621094 106.214844 223.855469 105.917969 224.871094 105.683594 C 226.304688 105.347656 224.617188 107.015625 225.96875 106.617188 C 227.324219 106.214844 228.390625 104.082031 228.390625 104.082031 C 228.390625 104.082031 228.617188 105.960938 228.351562 108.101562 C 228.164062 109.613281 227.0 112.46875 226.335938 114.003906 C 226.203125 114.351562 226.050781 114.695312 225.878906 115.03125 L 225.875 115.042969 L 225.871094 115.046875 C 225.300781 116.160156 224.515625 117.199219 223.632812 117.996094 C 221.832031 119.621094 217.628906 122.460938 217.628906 122.460938 C 217.628906 122.460938 220.199219 117.707031 218.605469 116.242188 C 218.605469 116.242188 214.308594 119.339844 210.214844 120.035156 C 206.117188 120.730469 210.839844 118.265625 209.015625 114.234375 C 208.335938 112.734375 208.011719 111.617188 207.871094 110.804688 M 147.15625 49.203125 L 147.214844 49.230469 L 147.207031 49.203125 Z M 207.382812 98.402344 C 207.382812 98.402344 204.710938 99.070312 203.105469 97.496094 C 202.441406 96.847656 202.160156 96.335938 201.976562 95.792969 C 201.976562 95.792969 202.445312 93.792969 201.589844 92.257812 C 200.761719 90.765625 197.636719 88.316406 197.472656 88.1875 L 197.464844 88.183594 C 197.464844 88.183594 201.339844 88.320312 203.019531 90.800781 C 204.695312 93.277344 204.195312 94.113281 205.339844 95.613281 C 206.484375 97.109375 207.382812 98.402344 207.382812 98.402344 M 221.925781 109.875 C 221.925781 109.875 221.050781 112.042969 219.925781 112.542969 C 218.796875 113.042969 219.96875 110.964844 218.304688 112.035156 C 216.644531 113.101562 217.25 114.101562 217.25 114.101562 C 217.25 114.101562 216.433594 111.25 219.179688 110.5625 Z M 208.410156 84.527344 L 208.558594 84.640625 C 208.5625 84.601562 208.574219 84.5625 208.585938 84.523438 Z M 214.402344 91.34375 L 214.488281 91.492188 L 214.691406 91.449219 Z"/>
</g>

<g id="panel" stroke="#0A0A0D" fill="none">
	<path style="fill:white;stroke-width:2.4;" d="M 486.34375 94.40625 C 486.34375 96.65625 481.128906 103.019532 478.816406 103.019532 L 478.816406 210.886718 C 481.128906 210.886718 486.34375 217.253906 486.34375 219.5 L 1099.078124 219.5 C 1099.078124 217.253906 1104.292968 210.886718 1106.605468 210.886718 L 1106.605468 103.015624 C 1104.292968 103.015624 1099.078124 96.652344 1099.078124 94.40625 Z"/>
	<path style="stroke-width:1.5;" d="M 499.585938 219.5 C 489.128906 216.238282 479.113282 205.304688 478.816406 198.222656"/>
	<path style="stroke-width:1.5;" d="M 499.585938 94.40625 C 489.128906 97.671874 479.113282 108.601562 478.816406 115.683594"/>
	<path style="stroke-width:1.5;" d="M 1085.835938 219.5 C 1096.289062 216.234376 1106.304688 205.304688 1106.605468 198.21875"/>
	<path style="stroke-width:1.5;" d="M 1085.835938 94.40625 C 1096.289062 97.667968 1106.304688 108.601562 1106.605468 115.683594"/>
	<path style="stroke-width:1.0;" d="M 1096.558594 100.40625 L 488.863282 100.40625"/>
	<path style="stroke-width:1.0;stroke:rgb(69.805908%,69.256592%,69.392395%);" d="M 487.710938 140.277344 L 1097.921874 140.277344"/>
	<path style="stroke-width:1.0;stroke:rgb(69.805908%,69.256592%,69.392395%);" d="M 487.710938 192.4375 L 1097.921874 192.4375"/>
	<path style="stroke-width:1.0;" d="M 1096.558594 213.5 L 488.863282 213.5"/>
	<path style="fill:white;stroke-width:1.25;" d="M 474.621094 83.777344 L 474.617188 229.960938 C 476.714844 224.929688 478.8125 222.832031 478.8125 222.832031 L 478.816406 90.90625 C 478.816406 90.90625 476.714844 88.816406 474.621094 83.777344 Z"/>
	<path style="fill:white;stroke-width:1.25;" d="M 1110.796875 83.777344 L 1110.800781 229.960938 C 1108.703125 224.929688 1106.605469 222.832031 1106.605469 222.832031 L 1106.601562 90.90625 C 1106.601562 90.90625 1108.703125 88.816406 1110.796875 83.777344 Z"/>
</g>
</svg>
