<?xml version="1.0" encoding="UTF-8"?>
<svg xmlns="http://www.w3.org/2000/svg" xmlns:xlink="http://www.w3.org/1999/xlink" width="121.4pt" height="905.5pt" viewBox="0 0 121.4 905.5" version="1.2">

<g id="grey_background" fill="#DEDDDE">
	<path d="M 0.255469 8.757031 C 2.884375 7.882031 6.942969 2.9875 7.669531 0.280469 L 16.388281 0.280469 C 9.548438 3.577344 3.079688 9.811719 0.255469 15.596875 Z"/>
	<path d="M 121.009375 8.757031 L 121.009375 15.592969 C 118.18125 9.811719 111.7125 3.577344 104.872656 0.280469 L 113.595312 0.280469 C 114.317969 2.983594 118.376562 7.878125 121.009375 8.757031"/>
	<path d="M 0.255469 896.675 C 2.884375 897.55 6.942969 902.444531 7.669531 905.151562 L 16.388281 905.151562 C 9.548438 901.854688 3.079688 895.616406 0.255469 889.835156 Z"/>
	<path d="M 121.009375 896.675 L 121.009375 889.839062 C 118.18125 895.616406 111.7125 901.854688 104.872656 905.151562 L 113.595312 905.151562 C 114.317969 902.444531 118.376562 897.553906 121.009375 896.675"/>
	<path d="M 0.255469 884.589062 C 0.349219 886.815625 1.532812 889.530469 3.439062 892.280469 C 6.86875 888.479688 9.153906 884.788281 9.189062 884.733594 L 9.333594 884.495312 L 111.927344 884.495312 L 112.071875 884.733594 C 112.107031 884.788281 114.392188 888.483594 117.825781 892.284375 C 119.732031 889.534375 120.915625 886.815625 121.009375 884.589062 L 121.009375 20.839062 C 120.915625 18.616406 119.732031 15.897656 117.825781 13.147656 C 114.392188 16.948438 112.107031 20.64375 112.071875 20.698438 L 111.927344 20.936719 L 9.333594 20.936719 L 9.189062 20.698438 C 9.153906 20.64375 6.86875 16.948438 3.439062 13.147656 C 1.532812 15.897656 0.349219 18.616406 0.255469 20.839062 Z"/>
</g>

<g id="background_details" fill="#DEDDDE">
	<path d="M 20.4 0.280469 L 100.860938 0.280469 C 103.923438 1.249219 106.872656 2.846875 109.536719 4.780469 L 11.728125 4.780469 C 14.392188 2.846875 17.341406 1.249219 20.4 0.280469"/>
	<path d="M 7.165625 16.08125 L 17.919531 16.08125 C 30.321875 11.971875 44.489844 9.745312 58.985938 9.589062 C 59.196875 8.866406 59.833594 8.327344 60.626562 8.327344 C 61.415625 8.327344 62.052344 8.866406 62.263281 9.589062 C 76.759375 9.745312 90.923438 11.971875 103.325781 16.08125 L 114.044531 16.08125 L 114.044531 16.147656 C 114.939062 14.975781 116.017188 13.651562 117.232031 12.319531 C 115.669531 10.229688 113.724219 8.147656 111.478125 6.280469 L 9.786719 6.280469 C 7.540625 8.147656 5.591406 10.229688 4.032812 12.319531 C 5.224219 13.632031 6.282812 14.925 7.165625 16.08125"/>
	<path d="M 100.005469 16.08125 C 88.442969 12.604688 75.485938 10.729688 62.247656 10.585156 C 62.025 11.280469 61.392188 11.792188 60.626562 11.792188 C 59.857031 11.792188 59.224219 11.280469 58.997656 10.585156 C 45.763281 10.729688 32.80625 12.604688 21.239844 16.08125 Z"/>
	<path d="M 9.888281 19.936719 L 111.36875 19.936719 C 111.657812 19.4875 112.349219 18.436719 113.341406 17.08125 L 7.915625 17.08125 C 8.911719 18.436719 9.603125 19.4875 9.888281 19.936719"/>
	<path d="M 9.888281 885.495312 L 111.36875 885.495312 C 111.657812 885.940625 112.349219 886.995312 113.341406 888.346875 L 7.915625 888.346875 C 8.911719 886.995312 9.603125 885.940625 9.888281 885.495312"/>
	<path d="M 100.005469 889.346875 C 88.442969 892.823438 75.485938 894.702344 62.247656 894.842969 C 62.025 894.151562 61.392188 893.639844 60.626562 893.639844 C 59.857031 893.639844 59.224219 894.151562 58.997656 894.842969 C 45.763281 894.702344 32.80625 892.823438 21.239844 889.346875 Z"/>
	<path d="M 7.165625 889.346875 L 17.919531 889.346875 C 30.321875 893.460156 44.489844 895.686719 58.985938 895.839062 C 59.196875 896.565625 59.833594 897.104688 60.626562 897.104688 C 61.415625 897.104688 62.052344 896.565625 62.263281 895.839062 C 76.759375 895.686719 90.923438 893.460156 103.325781 889.346875 L 114.044531 889.346875 L 114.044531 889.284375 C 114.939062 890.45625 116.017188 891.780469 117.232031 893.1125 C 115.669531 895.202344 113.724219 897.284375 111.478125 899.151562 L 9.786719 899.151562 C 7.540625 897.284375 5.591406 895.202344 4.032812 893.1125 C 5.224219 891.8 6.282812 890.503125 7.165625 889.346875"/>
	<path d="M 20.4 905.151562 L 100.860938 905.151562 C 103.923438 904.182812 106.872656 902.58125 109.536719 900.651562 L 11.728125 900.651562 C 14.392188 902.58125 17.341406 904.182812 20.4 905.151562"/>
</g>

<g id="white_frames" fill="white" stroke-width="2.4" stroke="#0A0A0D" stroke-miterlimit="10">
	<path d="M 9.610938 41.057812 C 11.860938 41.057812 18.224219 35.842969 18.224219 33.530469 L 103.028906 33.530469 C 103.028906 35.842969 109.396094 41.057812 111.642188 41.057812 L 111.642188 147.499219 C 109.396094 147.499219 83.028906 152.714062 83.028906 155.026562 L 38.224219 155.026562 C 38.224219 152.714062 11.860938 147.499219 9.610938 147.499219 Z"/>
	<path d="M 9.610938 184.975781 C 11.860938 184.975781 18.224219 179.760938 18.224219 177.448438 L 103.028906 177.448438 C 103.028906 179.760938 109.396094 184.975781 111.642188 184.975781 L 111.642188 291.417188 C 109.396094 291.417188 83.028906 296.632031 83.028906 298.944531 L 38.224219 298.944531 C 38.224219 296.632031 11.860938 291.417188 9.610938 291.417188 Z"/>
	<path d="M 9.610938 328.897656 C 11.860938 328.897656 18.224219 323.682812 18.224219 321.370312 L 103.028906 321.370312 C 103.028906 323.682812 109.396094 328.897656 111.642188 328.897656 L 111.642188 435.342969 C 109.396094 435.342969 83.028906 440.553906 83.028906 442.866406 L 38.224219 442.866406 C 38.224219 440.553906 11.860938 435.342969 9.610938 435.342969 Z"/>
	<path d="M 9.610938 472.815625 C 11.860938 472.815625 18.224219 467.600781 18.224219 465.288281 L 103.028906 465.288281 C 103.028906 467.600781 109.396094 472.815625 111.642188 472.815625 L 111.642188 579.257031 C 109.396094 579.257031 83.028906 584.471875 83.028906 586.784375 L 38.224219 586.784375 C 38.224219 584.471875 11.860938 579.257031 9.610938 579.257031 Z"/>
	<path d="M 9.610938 616.733594 C 11.860938 616.733594 18.224219 611.51875 18.224219 609.20625 L 103.028906 609.20625 C 103.028906 611.51875 109.396094 616.733594 111.642188 616.733594 L 111.642188 723.178906 C 109.396094 723.178906 83.028906 728.389844 83.028906 730.702344 L 38.224219 730.702344 C 38.224219 728.389844 11.860938 723.178906 9.610938 723.178906 Z"/>
	<path d="M 9.610938 756.967969 C 11.860938 756.967969 18.224219 751.753125 18.224219 749.440625 L 103.028906 749.440625 C 103.028906 751.753125 109.396094 756.967969 111.642188 756.967969 L 111.642188 863.413281 C 109.396094 863.413281 83.028906 868.624219 83.028906 870.936719 L 38.224219 870.936719 C 38.224219 868.624219 11.860938 863.413281 9.610938 863.413281 Z"/>
</g>

<g id="grey_shadow_arcs" fill="#DEDDDE">
	<path d="M 109.614844 140.4875 C 109.415625 140.307812 89.614844 122.45625 60.626562 122.45625 C 31.638281 122.45625 11.8375 140.307812 11.642188 140.4875 L 9.9 142.202344 L 9.661719 134.311719 C 15.739844 129.471875 34.505469 116.45625 60.626562 116.45625 C 86.833594 116.45625 105.638281 129.557812 111.65 134.358594 L 111.591406 142.202344 Z"/>
	<path d="M 109.614844 284.405469 C 109.415625 284.225781 89.614844 266.378125 60.626562 266.378125 C 31.638281 266.378125 11.8375 284.225781 11.642188 284.405469 L 9.9 286.120312 L 9.661719 278.229688 C 15.739844 273.389844 34.505469 260.378125 60.626562 260.378125 C 86.833594 260.378125 105.638281 273.475781 111.65 278.276562 L 111.591406 286.120312 Z"/>
	<path d="M 109.614844 428.327344 C 109.415625 428.147656 89.614844 410.3 60.626562 410.3 C 31.638281 410.3 11.8375 428.147656 11.642188 428.327344 L 9.9 430.046094 L 9.661719 422.151562 C 15.739844 417.311719 34.505469 404.3 60.626562 404.3 C 86.833594 404.3 105.638281 417.397656 111.65 422.198438 L 111.591406 430.046094 Z"/>
	<path d="M 109.614844 572.245312 C 109.415625 572.065625 89.614844 554.217969 60.626562 554.217969 C 31.638281 554.217969 11.8375 572.065625 11.642188 572.245312 L 9.9 573.964062 L 9.661719 566.069531 C 15.739844 561.229688 34.505469 548.217969 60.626562 548.217969 C 86.833594 548.217969 105.638281 561.315625 111.65 566.116406 L 111.591406 573.964062 Z"/>
	<path d="M 109.614844 716.163281 C 109.415625 715.983594 89.614844 698.135938 60.626562 698.135938 C 31.638281 698.135938 11.8375 715.983594 11.642188 716.163281 L 9.9 717.882031 L 9.661719 709.9875 C 15.739844 705.147656 34.505469 692.135938 60.626562 692.135938 C 86.833594 692.135938 105.638281 705.233594 111.65 710.034375 L 111.591406 717.882031 Z"/>
	<path d="M 109.614844 856.397656 C 109.415625 856.217969 89.614844 838.366406 60.626562 838.366406 C 31.638281 838.366406 11.8375 856.217969 11.642188 856.397656 L 9.9 858.1125 L 9.661719 850.221875 C 15.739844 845.382031 34.505469 832.366406 60.626562 832.366406 C 86.833594 832.366406 105.638281 845.467969 111.65 850.26875 L 111.591406 858.1125 Z"/>
</g>

<g id="black_arcs" fill="none" stroke-width="2.4" stroke="#0A0A0D" stroke-miterlimit="10">
	<path d="M 111.642188 135.479688 C 111.642188 135.479688 91.220312 116.663282 60.626562 116.663282 C 30.032812 116.663282 9.610938 135.479688 9.610938 135.479688"/>
	<path d="M 111.642188 279.397656 C 111.642188 279.397656 91.220312 260.58125 60.626562 260.58125 C 30.032812 260.58125 9.610938 279.397656 9.610938 279.397656"/>
	<path d="M 111.642188 423.319531 C 111.642188 423.319531 91.220312 404.503124 60.626562 404.503124 C 30.032812 404.503124 9.610938 423.319531 9.610938 423.319531"/>
	<path d="M 111.642188 567.2375 C 111.642188 567.2375 91.220312 548.421094 60.626562 548.421094 C 30.032812 548.421094 9.610938 567.2375 9.610938 567.2375"/>
	<path d="M 111.642188 711.155469 C 111.642188 711.155469 91.220312 692.339062 60.626562 692.339062 C 30.032812 692.339062 9.610938 711.155469 9.610938 711.155469"/>
	<path d="M 111.642188 851.389844 C 111.642188 851.389844 91.220312 832.569532 60.626562 832.569532 C 30.032812 832.569532 9.610938 851.389844 9.610938 851.389844"/>
</g>

<g id="black_inside_arcs" fill="none" stroke-width="1.0" stroke="#0A0A0D" stroke-miterlimit="10">
	<path d="M 111.642188 54.3 C 108.380468 43.846876 97.446876 33.83125 90.364844 33.530468"/>
	<path d="M 9.610938 54.3 C 12.876562 43.846876 23.80625 33.83125 30.888282 33.530468"/>

	<path d="M 111.642188 198.217969 C 108.380468 187.764844 97.446876 177.749218 90.364844 177.448438"/>
	<path d="M 9.610938 198.217969 C 12.876562 187.764844 23.80625 177.749218 30.888282 177.448438"/>

	<path d="M 111.642188 342.139844 C 108.380468 331.686718 97.446876 321.671094 90.364844 321.370312"/>
	<path d="M 9.610938 342.139844 C 12.876562 331.686718 23.80625 321.671094 30.888282 321.370312"/>

	<path d="M 111.642188 486.057812 C 108.380468 475.604688 97.446876 465.589062 90.364844 465.288282"/>
	<path d="M 9.610938 486.057812 C 12.876562 475.604688 23.80625 465.589062 30.888282 465.288282"/>

	<path d="M 111.642188 629.975781 C 108.380468 619.522656 97.446876 609.507032 90.364844 609.20625"/>
	<path d="M 9.610938 629.975781 C 12.876562 619.522656 23.80625 609.507032 30.888282 609.20625"/>

	<path d="M 111.642188 770.210156 C 108.380468 759.757032 97.446876 749.741406 90.364844 749.440624"/>
	<path d="M 9.610938 770.210156 C 12.876562 759.757032 23.80625 749.741406 30.888282 749.440624"/>
</g>

<g id="black_inside_lines" fill="none" stroke-width="0.5" stroke="#0A0A0D" stroke-miterlimit="10">
	<path d="M 13.610938 46.065625 L 13.610938 77.635938 C 13.610938 136.561718 10.138282 127.842968 9.661718 147.491406"/>
	<path d="M 107.642188 46.065625 L 107.642188 77.635938 C 107.642188 136.577344 111.114844 127.839062 111.591406 147.507032"/>

	<path d="M 13.610938 189.983594 L 13.610938 221.553906 C 13.610938 280.479688 10.138282 271.760938 9.661718 291.409374"/>
	<path d="M 107.642188 189.983594 L 107.642188 221.553906 C 107.642188 280.495312 111.114844 271.757032 111.591406 291.425"/>

	<path d="M 13.610938 333.905469 L 13.610938 365.475782 C 13.610938 424.401562 10.138282 415.682812 9.661718 435.33125"/>
	<path d="M 107.642188 333.905469 L 107.642188 365.475782 C 107.642188 424.417188 111.114844 415.678906 111.591406 435.346874"/>

	<path d="M 13.610938 477.823438 L 13.610938 509.39375 C 13.610938 568.319532 10.138282 559.600782 9.661718 579.249218"/>
	<path d="M 107.642188 477.823438 L 107.642188 509.39375 C 107.642188 568.335156 111.114844 559.596876 111.591406 579.26875"/>

	<path d="M 13.610938 621.741406 L 13.610938 653.311718 C 13.610938 712.2375 10.138282 703.51875 9.661718 723.167188"/>
	<path d="M 107.642188 621.741406 L 107.642188 653.311718 C 107.642188 712.253126 111.114844 703.514844 111.591406 723.186718"/>

	<path d="M 13.610938 761.975781 L 13.610938 793.546094 C 13.610938 852.471874 10.138282 843.753124 9.661718 863.401562"/>
	<path d="M 107.642188 761.975781 L 107.642188 793.546094 C 107.642188 852.4875 111.114844 843.749218 111.591406 863.417188"/>
</g>
</svg>
