<?xml version="1.0" encoding="UTF-8"?>
<svg xmlns="http://www.w3.org/2000/svg" xmlns:xlink="http://www.w3.org/1999/xlink" width="300pt" height="53pt" viewBox="0 0 300 53" version="1.2">

<g id="grey_stripe" fill="none" stroke-width="4" stroke="rgb(87.059021%,86.824036%,86.882019%)" stroke-miterlimit="10">
	<path d="M 59.628906 5.949219 L 59.628906 47.105468"/>
</g>

<g id="corner_curvelets" fill="none" stroke-width="1.5" stroke="rgb(4.017639%,3.95813%,4.968262%)" stroke-miterlimit="10">
	<path d="M 2.308594 17.183594 C 2.308594 11.03125 11.394532 2.234374 17.78125 2.234374"/>
	<path d="M 2.308594 35.871094 C 2.308594 42.023438 11.394532 50.820312 17.78125 50.820312"/>
	<path d="M 298.0 17.183594 C 298.0 11.03125 288.914062 2.234374 282.527344 2.234374"/>
	<path d="M 298.0 35.871094 C 298.0 42.023438 288.914062 50.820312 282.527344 50.820312"/>
</g>

<g id="main_contour" fill="none" stroke-width="2.4" stroke="rgb(4.017639%,3.95813%,4.968262%)" stroke-miterlimit="10" >
	<path d="M 33.71875 50.820312 L 293.53125 50.820312 C 293.53125 50.007812 296.496094 46.351562 298.0 46.351562 L 298.0 6.703126 C 296.496094 6.703126 293.53125 3.046876 293.53125 2.234376 L 6.777344 2.234376 C 6.777344 3.046876 3.8125 6.703126 2.308594 6.703126 L 2.308594 46.351562 C 3.8125 46.351562 6.777344 50.007812 6.777344 50.820312 Z"/>
</g>

<g id="detail_lines" fill="none" stroke="rgb(4.017639%,3.95813%,4.968262%)" stroke-miterlimit="10" >
	<path d="M 35.042969 2.234375 C 56.628906 2.234375 42.589844 5.949218 66.050782 6.234374 L 291.363282 6.234374"/>
	<path d="M 35.042969 50.820312 C 56.628906 50.820312 42.589844 47.105468 66.050782 46.820312 L 291.363282 46.820312"/>
	<path style="stroke-width:1.5" d="M 61.628906 5.949219 L 61.628906 47.105468"/>
	<path d="M 65.628906 5.949219 L 65.628906 47.105468"/>
</g>

</svg>
