<?xml version="1.0" encoding="UTF-8"?>
<svg xmlns="http://www.w3.org/2000/svg" xmlns:xlink="http://www.w3.org/1999/xlink" width="1190.548pt" height="1584.008pt" viewBox="0 0 1190.548 1584.008" version="1.2">

<path style="fill:white" d="M 0 0 L 1190.548 0 L 1190.548 1584.008 L 0 1584.008 Z" />

<path style=" stroke:none;fill-rule:nonzero;fill:rgb(87.059021%,86.824036%,86.882019%);fill-opacity:1;" d="M 902.558594 601.417969 L 898.375 601.726562 L 903.242188 581.035156 L 898.375 560.347656 L 902.488281 560.605469 L 907.351562 581.035156 Z M 902.558594 601.417969 "/>
<path style=" stroke:none;fill-rule:nonzero;fill:rgb(87.059021%,86.824036%,86.882019%);fill-opacity:1;" d="M 136.402344 1247.042969 L 137.042969 1245.84375 C 142.996094 1234.453125 142.996094 1217.925781 137.042969 1206.539062 L 136.464844 1205.351562 L 141.050781 1205.609375 C 146.953125 1217.730469 146.945312 1234.707031 141.027344 1246.816406 Z M 136.402344 1247.042969 "/>
<path style="fill:none;stroke-width:1.2;stroke-linecap:butt;stroke-linejoin:miter;stroke:rgb(4.017639%,3.95813%,4.968262%);stroke-opacity:1;stroke-miterlimit:10;" d="M 0.000409375 0.0001 C 1.123456 0.0001 4.305097 -2.607322 4.305097 -3.763572 L 112.939863 -3.763572 C 112.939863 -2.607322 116.121503 0.0001 117.24455 0.0001 L 117.24455 255.601662 C 116.121503 255.601662 112.939863 258.207131 112.939863 259.363381 L 4.305097 259.363381 C 4.305097 258.207131 1.123456 255.601662 -0.00154375 255.601662 Z M 0.000409375 0.0001 " transform="matrix(2,0,0,-2,185.5734,1158.3752)"/>
<path style="fill:none;stroke-width:0.75;stroke-linecap:butt;stroke-linejoin:miter;stroke:rgb(4.017639%,3.95813%,4.968262%);stroke-opacity:1;stroke-miterlimit:10;" d="M -0.00085 0.00009375 C -1.631709 -5.226469 -7.098506 -10.234281 -10.639522 -10.384672 " transform="matrix(2,0,0,-2,420.0642,1145.133)"/>
<path style="fill:none;stroke-width:0.75;stroke-linecap:butt;stroke-linejoin:miter;stroke:rgb(4.017639%,3.95813%,4.968262%);stroke-opacity:1;stroke-miterlimit:10;" d="M 0.000409375 0.00009375 C 1.631269 -5.226469 7.098066 -10.234281 10.639081 -10.384672 " transform="matrix(2,0,0,-2,185.5734,1145.133)"/>
<path style="fill:none;stroke-width:0.75;stroke-linecap:butt;stroke-linejoin:miter;stroke:rgb(4.017639%,3.95813%,4.968262%);stroke-opacity:1;stroke-miterlimit:10;" d="M -0.00025 0.00056875 C -1.631109 5.227131 -7.097906 10.234944 -10.638922 10.383381 " transform="matrix(2,0,0,-2,420.063,660.4152)"/>
<path style="fill:none;stroke-width:0.75;stroke-linecap:butt;stroke-linejoin:miter;stroke:rgb(4.017639%,3.95813%,4.968262%);stroke-opacity:1;stroke-miterlimit:10;" d="M -0.00084375 0.00056875 C 1.631969 5.227131 7.098766 10.234944 10.639781 10.383381 " transform="matrix(2,0,0,-2,185.572,660.4152)"/>
<path style="fill:none;stroke-width:1.2;stroke-linecap:butt;stroke-linejoin:miter;stroke:rgb(4.017639%,3.95813%,4.968262%);stroke-opacity:1;stroke-miterlimit:10;" d="M 0.000459375 0.000725 C 1.123506 0.000725 4.305147 -2.606697 4.305147 -3.762947 L 178.033662 -3.762947 C 178.033662 -2.606697 181.215303 0.000725 182.33835 0.000725 L 182.33835 79.815178 C 181.215303 79.815178 178.031709 82.420647 178.031709 83.57885 L 4.305147 83.57885 C 4.305147 82.420647 1.123506 79.815178 -0.00149375 79.815178 Z M 0.000459375 0.000725 " transform="matrix(2,0,0,-2,55.3858,1352.8452)"/>
<path style="fill:none;stroke-width:0.75;stroke-linecap:butt;stroke-linejoin:miter;stroke:rgb(4.017639%,3.95813%,4.968262%);stroke-opacity:1;stroke-miterlimit:10;" d="M -0.00085 0.00071875 C -1.631709 -5.227797 -7.098506 -10.235609 -10.639522 -10.384047 " transform="matrix(2,0,0,-2,420.0642,1339.603)"/>
<path style="fill:none;stroke-width:0.75;stroke-linecap:butt;stroke-linejoin:miter;stroke:rgb(4.017639%,3.95813%,4.968262%);stroke-opacity:1;stroke-miterlimit:10;" d="M 0.000459375 0.00071875 C 1.631319 -5.227797 7.098116 -10.235609 10.639131 -10.384047 " transform="matrix(2,0,0,-2,55.3858,1339.603)"/>
<path style="fill:none;stroke-width:0.75;stroke-linecap:butt;stroke-linejoin:miter;stroke:rgb(4.017639%,3.95813%,4.968262%);stroke-opacity:1;stroke-miterlimit:10;" d="M -0.00025 0.000684375 C -1.631109 5.227247 -7.097906 10.235059 -10.638922 10.383497 " transform="matrix(2,0,0,-2,420.063,1206.4584)"/>
<path style="fill:none;stroke-width:0.75;stroke-linecap:butt;stroke-linejoin:miter;stroke:rgb(4.017639%,3.95813%,4.968262%);stroke-opacity:1;stroke-miterlimit:10;" d="M -0.00089375 0.000684375 C 1.631919 5.227247 7.098716 10.235059 10.639731 10.383497 " transform="matrix(2,0,0,-2,55.3846,1206.4584)"/>
<path style="fill:none;stroke-width:0.75;stroke-linecap:butt;stroke-linejoin:miter;stroke:rgb(4.017639%,3.95813%,4.968262%);stroke-opacity:1;stroke-miterlimit:10;" d="M -0.00025 -0.00035 C -0.00025 -3.076522 -3.832281 -7.025741 -7.025641 -7.025741 " transform="matrix(2,0,0,-2,394.063,1236.5618)"/>
<path style="fill:none;stroke-width:0.75;stroke-linecap:butt;stroke-linejoin:miter;stroke:rgb(4.017639%,3.95813%,4.968262%);stroke-opacity:1;stroke-miterlimit:10;" d="M -0.00035 -0.000640625 C 3.110978 -5.949859 3.110978 -14.629547 -0.00035 -20.578766 " transform="matrix(2,0,0,-2,140.8132,1205.612)"/>
<path style="fill:none;stroke-width:0.75;stroke-linecap:butt;stroke-linejoin:miter;stroke:rgb(4.017639%,3.95813%,4.968262%);stroke-opacity:1;stroke-miterlimit:10;" d="M -0.000959375 -0.000934375 C -0.000959375 3.077191 4.543962 7.475628 7.737322 7.475628 " transform="matrix(2,0,0,-2,81.4902,1216.8536)"/>
<path style="fill:none;stroke-width:0.75;stroke-linecap:butt;stroke-linejoin:miter;stroke:rgb(4.017639%,3.95813%,4.968262%);stroke-opacity:1;stroke-miterlimit:10;" d="M -0.000959375 0.00086875 C -0.000959375 -3.077256 4.543962 -7.475694 7.737322 -7.475694 " transform="matrix(2,0,0,-2,81.4902,1235.5408)"/>
<path style="fill:none;stroke-width:0.75;stroke-linecap:butt;stroke-linejoin:miter;stroke:rgb(4.017639%,3.95813%,4.968262%);stroke-opacity:1;stroke-miterlimit:10;" d="M -0.00015 -0.000934375 C -0.00015 3.077191 -4.543119 7.475628 -7.736478 7.475628 " transform="matrix(2,0,0,-2,394.0628,1216.8536)"/>
<path style="fill:none;stroke-width:1.2;stroke-linecap:butt;stroke-linejoin:miter;stroke:rgb(4.017639%,3.95813%,4.968262%);stroke-opacity:1;stroke-miterlimit:10;" d="M 0.000571875 -0.00029375 L 138.344322 -0.00029375 C 138.344322 0.407909 139.828697 2.234081 140.58065 2.234081 L 140.58065 22.0583 C 139.828697 22.0583 138.344322 23.886425 138.344322 24.294628 L -13.470131 24.294628 C -13.470131 23.886425 -14.952553 22.0583 -15.704506 22.0583 L -15.704506 2.234081 C -14.952553 2.234081 -13.470131 0.407909 -13.470131 -0.00029375 Z M 0.000571875 -0.00029375 " transform="matrix(2,0,0,-2,112.9012,1250.4916)"/>
<path style="fill:none;stroke-width:0.75;stroke-linecap:butt;stroke-linejoin:miter;stroke:rgb(4.017639%,3.95813%,4.968262%);stroke-opacity:1;stroke-miterlimit:10;" d="M -0.00015 0.00086875 C -0.00015 -3.077256 -4.543119 -7.475694 -7.736478 -7.475694 " transform="matrix(2,0,0,-2,394.0628,1235.5408)"/>
<path style="fill:none;stroke-width:1.2;stroke-linecap:butt;stroke-linejoin:miter;stroke:rgb(4.017639%,3.95813%,4.968262%);stroke-opacity:1;stroke-miterlimit:10;" d="M 0.000496875 -0.00074375 C 1.123544 -0.00074375 4.305184 -2.606212 4.305184 -3.762462 L 185.68995 -3.762462 C 185.68995 -2.606212 188.871591 -0.00074375 189.996591 -0.00074375 L 189.994638 120.426991 C 188.871591 120.426991 185.68995 123.034413 185.68995 124.190663 L 4.305184 124.190663 C 4.305184 123.034413 1.123544 120.426991 -0.00145625 120.426991 Z M 0.000496875 -0.00074375 " transform="matrix(2,0,0,-2,441.8076,933.0532)"/>
<path style="fill:none;stroke-width:0.75;stroke-linecap:butt;stroke-linejoin:miter;stroke:rgb(4.017639%,3.95813%,4.968262%);stroke-opacity:1;stroke-miterlimit:10;" d="M -0.0008625 -0.00075 C -1.631722 -5.227312 -7.098519 -10.235125 -10.639534 -10.383562 " transform="matrix(2,0,0,-2,821.7986,919.811)"/>
<path style="fill:none;stroke-width:0.75;stroke-linecap:butt;stroke-linejoin:miter;stroke:rgb(4.017639%,3.95813%,4.968262%);stroke-opacity:1;stroke-miterlimit:10;" d="M 0.000496875 -0.00075 C 1.631356 -5.227312 7.098153 -10.235125 10.639169 -10.383562 " transform="matrix(2,0,0,-2,441.8076,919.811)"/>
<path style="fill:none;stroke-width:0.75;stroke-linecap:butt;stroke-linejoin:miter;stroke:rgb(4.017639%,3.95813%,4.968262%);stroke-opacity:1;stroke-miterlimit:10;" d="M -0.0002625 0.000296875 C -1.631122 5.226859 -7.097919 10.234672 -10.638934 10.383109 " transform="matrix(2,0,0,-2,821.7974,705.442)"/>
<path style="fill:none;stroke-width:0.75;stroke-linecap:butt;stroke-linejoin:miter;stroke:rgb(4.017639%,3.95813%,4.968262%);stroke-opacity:1;stroke-miterlimit:10;" d="M -0.00075625 0.000296875 C 1.632056 5.226859 7.098853 10.234672 10.639869 10.383109 " transform="matrix(2,0,0,-2,441.8062,705.442)"/>
<path style="fill:none;stroke-width:1.2;stroke-linecap:butt;stroke-linejoin:miter;stroke:rgb(4.017639%,3.95813%,4.968262%);stroke-opacity:1;stroke-miterlimit:10;" d="M 0.000496875 -0.00084375 C 1.123544 -0.00084375 4.305184 -2.606312 4.305184 -3.762562 L 344.268075 -3.762562 C 344.268075 -2.606312 347.449716 -0.00084375 348.574716 -0.00084375 L 348.572763 168.356578 C 347.449716 168.356578 344.266122 170.962047 344.266122 172.118297 L 4.305184 172.118297 C 4.305184 170.962047 1.123544 168.356578 -0.00145625 168.356578 Z M 0.000496875 -0.00084375 " transform="matrix(2,0,0,-2,441.8076,1529.928)"/>
<path style="fill:none;stroke-width:0.75;stroke-linecap:butt;stroke-linejoin:miter;stroke:rgb(4.017639%,3.95813%,4.968262%);stroke-opacity:1;stroke-miterlimit:10;" d="M -0.0008375 -0.00085 C -1.631697 -5.227413 -7.098494 -10.235225 -10.639509 -10.383663 " transform="matrix(2,0,0,-2,1138.9548,1516.6858)"/>
<path style="fill:none;stroke-width:0.75;stroke-linecap:butt;stroke-linejoin:miter;stroke:rgb(4.017639%,3.95813%,4.968262%);stroke-opacity:1;stroke-miterlimit:10;" d="M 0.000496875 -0.00085 C 1.631356 -5.227413 7.098153 -10.235225 10.639169 -10.383663 " transform="matrix(2,0,0,-2,441.8076,1516.6858)"/>
<path style="fill:none;stroke-width:0.75;stroke-linecap:butt;stroke-linejoin:miter;stroke:rgb(4.017639%,3.95813%,4.968262%);stroke-opacity:1;stroke-miterlimit:10;" d="M -0.0002375 0.000684375 C -1.631097 5.227247 -7.097894 10.235059 -10.638909 10.383497 " transform="matrix(2,0,0,-2,1138.9536,1206.4584)"/>
<path style="fill:none;stroke-width:0.75;stroke-linecap:butt;stroke-linejoin:miter;stroke:rgb(4.017639%,3.95813%,4.968262%);stroke-opacity:1;stroke-miterlimit:10;" d="M -0.00075625 0.000684375 C 1.632056 5.227247 7.098853 10.235059 10.639869 10.383497 " transform="matrix(2,0,0,-2,441.8062,1206.4584)"/>
<path style="fill:none;stroke-width:1.2;stroke-linecap:butt;stroke-linejoin:miter;stroke:rgb(4.017639%,3.95813%,4.968262%);stroke-opacity:1;stroke-miterlimit:10;" d="M 0.00085 -0.00084375 C 1.123897 -0.00084375 4.305537 -2.606312 4.305537 -3.762562 L 81.508662 -3.762562 C 81.508662 -2.606312 84.690303 -0.00084375 85.81335 -0.00084375 L 85.81335 69.954234 C 84.690303 69.954234 81.506709 72.561656 81.506709 73.717906 L 4.305537 73.717906 C 4.305537 72.561656 1.123897 69.954234 -0.00110313 69.954234 Z M 0.00085 -0.00084375 " transform="matrix(2,0,0,-2,248.4358,1529.928)"/>
<path style="fill:none;stroke-width:0.75;stroke-linecap:butt;stroke-linejoin:miter;stroke:rgb(4.017639%,3.95813%,4.968262%);stroke-opacity:1;stroke-miterlimit:10;" d="M -0.00085 -0.00085 C -1.631709 -5.227413 -7.098506 -10.235225 -10.639522 -10.383663 " transform="matrix(2,0,0,-2,420.0642,1516.6858)"/>
<path style="fill:none;stroke-width:0.75;stroke-linecap:butt;stroke-linejoin:miter;stroke:rgb(4.017639%,3.95813%,4.968262%);stroke-opacity:1;stroke-miterlimit:10;" d="M 0.00085 -0.00085 C 1.631709 -5.227413 7.098506 -10.235225 10.639522 -10.383663 " transform="matrix(2,0,0,-2,248.4358,1516.6858)"/>
<path style="fill:none;stroke-width:0.75;stroke-linecap:butt;stroke-linejoin:miter;stroke:rgb(4.017639%,3.95813%,4.968262%);stroke-opacity:1;stroke-miterlimit:10;" d="M -0.00025 0.000040625 C -1.631109 5.226603 -7.097906 10.234416 -10.638922 10.384806 " transform="matrix(2,0,0,-2,420.063,1403.2618)"/>
<path style="fill:none;stroke-width:0.75;stroke-linecap:butt;stroke-linejoin:miter;stroke:rgb(4.017639%,3.95813%,4.968262%);stroke-opacity:1;stroke-miterlimit:10;" d="M -0.000503125 0.000040625 C 1.632309 5.226603 7.097153 10.234416 10.638169 10.384806 " transform="matrix(2,0,0,-2,248.4346,1403.2618)"/>
<path style="fill:none;stroke-width:1.2;stroke-linecap:butt;stroke-linejoin:miter;stroke:rgb(4.017639%,3.95813%,4.968262%);stroke-opacity:1;stroke-miterlimit:10;" d="M 0.000459375 -0.00084375 C 1.123506 -0.00084375 4.305147 -2.606312 4.305147 -3.762562 L 81.639131 -3.762562 C 81.639131 -2.606312 84.822725 -0.00084375 85.945772 -0.00084375 L 85.945772 69.954234 C 84.820772 69.954234 81.639131 72.561656 81.639131 73.717906 L 4.305147 73.717906 C 4.305147 72.561656 1.123506 69.954234 -0.00149375 69.954234 Z M 0.000459375 -0.00084375 " transform="matrix(2,0,0,-2,55.3858,1529.928)"/>
<path style="fill:none;stroke-width:0.75;stroke-linecap:butt;stroke-linejoin:miter;stroke:rgb(4.017639%,3.95813%,4.968262%);stroke-opacity:1;stroke-miterlimit:10;" d="M 0.000271875 -0.00085 C -1.632541 -5.227413 -7.097384 -10.235225 -10.6384 -10.383663 " transform="matrix(2,0,0,-2,227.2768,1516.6858)"/>
<path style="fill:none;stroke-width:0.75;stroke-linecap:butt;stroke-linejoin:miter;stroke:rgb(4.017639%,3.95813%,4.968262%);stroke-opacity:1;stroke-miterlimit:10;" d="M 0.000459375 -0.00085 C 1.631319 -5.227413 7.098116 -10.235225 10.639131 -10.383663 " transform="matrix(2,0,0,-2,55.3858,1516.6858)"/>
<path style="fill:none;stroke-width:0.75;stroke-linecap:butt;stroke-linejoin:miter;stroke:rgb(4.017639%,3.95813%,4.968262%);stroke-opacity:1;stroke-miterlimit:10;" d="M 0.000971875 0.000040625 C -1.631841 5.226603 -7.098637 10.234416 -10.639653 10.384806 " transform="matrix(2,0,0,-2,227.2754,1403.2618)"/>
<path style="fill:none;stroke-width:0.75;stroke-linecap:butt;stroke-linejoin:miter;stroke:rgb(4.017639%,3.95813%,4.968262%);stroke-opacity:1;stroke-miterlimit:10;" d="M -0.00089375 0.000040625 C 1.631919 5.226603 7.098716 10.234416 10.639731 10.384806 " transform="matrix(2,0,0,-2,55.3846,1403.2618)"/>
<path style=" stroke:none;fill-rule:nonzero;fill:rgb(4.017639%,3.95813%,4.968262%);fill-opacity:1;" d="M 868.335938 706.3125 C 864.664062 706.3125 861.679688 703.328125 861.679688 699.65625 C 861.679688 695.980469 864.664062 692.996094 868.335938 692.996094 C 872.011719 692.996094 874.996094 695.980469 874.996094 699.65625 C 874.996094 703.328125 872.011719 706.3125 868.335938 706.3125 M 868.335938 694.429688 C 865.453125 694.429688 863.109375 696.769531 863.109375 699.65625 C 863.109375 702.535156 865.453125 704.878906 868.335938 704.878906 C 871.21875 704.878906 873.5625 702.535156 873.5625 699.65625 C 873.5625 696.769531 871.21875 694.429688 868.335938 694.429688 "/>
<path style=" stroke:none;fill-rule:nonzero;fill:rgb(4.017639%,3.95813%,4.968262%);fill-opacity:1;" d="M 937.976562 706.3125 C 934.304688 706.3125 931.316406 703.328125 931.316406 699.65625 C 931.316406 695.980469 934.304688 692.996094 937.976562 692.996094 C 941.648438 692.996094 944.636719 695.980469 944.636719 699.65625 C 944.636719 703.328125 941.648438 706.3125 937.976562 706.3125 M 937.976562 694.429688 C 935.09375 694.429688 932.75 696.769531 932.75 699.65625 C 932.75 702.535156 935.09375 704.878906 937.976562 704.878906 C 940.859375 704.878906 943.203125 702.535156 943.203125 699.65625 C 943.203125 696.769531 940.859375 694.429688 937.976562 694.429688 "/>
<path style=" stroke:none;fill-rule:nonzero;fill:rgb(4.017639%,3.95813%,4.968262%);fill-opacity:1;" d="M 868.335938 665 C 864.664062 665 861.679688 662.015625 861.679688 658.34375 C 861.679688 654.671875 864.664062 651.683594 868.335938 651.683594 C 872.011719 651.683594 874.996094 654.671875 874.996094 658.34375 C 874.996094 662.015625 872.011719 665 868.335938 665 M 868.335938 653.117188 C 865.453125 653.117188 863.109375 655.457031 863.109375 658.34375 C 863.109375 661.222656 865.453125 663.570312 868.335938 663.570312 C 871.21875 663.570312 873.5625 661.222656 873.5625 658.34375 C 873.5625 655.457031 871.21875 653.117188 868.335938 653.117188 "/>
<path style=" stroke:none;fill-rule:nonzero;fill:rgb(4.017639%,3.95813%,4.968262%);fill-opacity:1;" d="M 926.648438 665 C 922.976562 665 919.992188 662.015625 919.992188 658.34375 C 919.992188 654.671875 922.976562 651.683594 926.648438 651.683594 C 930.324219 651.683594 933.308594 654.671875 933.308594 658.34375 C 933.308594 662.015625 930.324219 665 926.648438 665 M 926.648438 653.117188 C 923.769531 653.117188 921.425781 655.457031 921.425781 658.34375 C 921.425781 661.222656 923.769531 663.570312 926.648438 663.570312 C 929.53125 663.570312 931.878906 661.222656 931.878906 658.34375 C 931.878906 655.457031 929.53125 653.117188 926.648438 653.117188 "/>
<path style=" stroke:none;fill-rule:nonzero;fill:rgb(4.017639%,3.95813%,4.968262%);fill-opacity:1;" d="M 1005.277344 665 C 1001.605469 665 998.621094 662.015625 998.621094 658.34375 C 998.621094 654.671875 1001.605469 651.683594 1005.277344 651.683594 C 1008.953125 651.683594 1011.9375 654.671875 1011.9375 658.34375 C 1011.9375 662.015625 1008.953125 665 1005.277344 665 M 1005.277344 653.117188 C 1002.394531 653.117188 1000.050781 655.457031 1000.050781 658.34375 C 1000.050781 661.222656 1002.394531 663.570312 1005.277344 663.570312 C 1008.160156 663.570312 1010.507812 661.222656 1010.507812 658.34375 C 1010.507812 655.457031 1008.160156 653.117188 1005.277344 653.117188 "/>
<path style=" stroke:none;fill-rule:nonzero;fill:rgb(4.017639%,3.95813%,4.968262%);fill-opacity:1;" d="M 1070.226562 665 C 1066.554688 665 1063.570312 662.015625 1063.570312 658.34375 C 1063.570312 654.671875 1066.554688 651.683594 1070.226562 651.683594 C 1073.902344 651.683594 1076.886719 654.671875 1076.886719 658.34375 C 1076.886719 662.015625 1073.902344 665 1070.226562 665 M 1070.226562 653.117188 C 1067.347656 653.117188 1065.003906 655.457031 1065.003906 658.34375 C 1065.003906 661.222656 1067.347656 663.570312 1070.226562 663.570312 C 1073.109375 663.570312 1075.457031 661.222656 1075.457031 658.34375 C 1075.457031 655.457031 1073.109375 653.117188 1070.226562 653.117188 "/>
<path style=" stroke:none;fill-rule:nonzero;fill:rgb(4.017639%,3.95813%,4.968262%);fill-opacity:1;" d="M 1009.113281 706.3125 C 1005.441406 706.3125 1002.457031 703.324219 1002.457031 699.652344 C 1002.457031 695.980469 1005.441406 692.996094 1009.113281 692.996094 C 1012.789062 692.996094 1015.773438 695.980469 1015.773438 699.652344 C 1015.773438 703.324219 1012.789062 706.3125 1009.113281 706.3125 M 1009.113281 694.425781 C 1006.230469 694.425781 1003.886719 696.769531 1003.886719 699.652344 C 1003.886719 702.535156 1006.230469 704.878906 1009.113281 704.878906 C 1011.996094 704.878906 1014.339844 702.535156 1014.339844 699.652344 C 1014.339844 696.769531 1011.996094 694.425781 1009.113281 694.425781 "/>
<path style="fill:none;stroke-width:1.2;stroke-linecap:butt;stroke-linejoin:miter;stroke:rgb(4.017639%,3.95813%,4.968262%);stroke-opacity:1;stroke-miterlimit:10;" d="M 0.00074375 -0.00074375 C 1.123791 -0.00074375 4.305431 -2.606212 4.305431 -3.762462 L 143.582775 -3.762462 C 143.582775 -2.606212 146.764416 -0.00074375 147.887463 -0.00074375 L 147.887463 149.096913 C 146.764416 149.096913 143.582775 151.702381 143.582775 152.860584 L 4.305431 152.860584 C 4.305431 151.702381 1.123791 149.096913 -0.00120937 149.096913 Z M 0.00074375 -0.00074375 " transform="matrix(2,0,0,-2,843.1782,933.0532)"/>
<path style="fill:none;stroke-width:0.75;stroke-linecap:butt;stroke-linejoin:miter;stroke:rgb(4.017639%,3.95813%,4.968262%);stroke-opacity:1;stroke-miterlimit:10;" d="M -0.0008375 -0.00075 C -1.631697 -5.227312 -7.098494 -10.235125 -10.639509 -10.383562 " transform="matrix(2,0,0,-2,1138.9548,919.811)"/>
<path style="fill:none;stroke-width:0.75;stroke-linecap:butt;stroke-linejoin:miter;stroke:rgb(4.017639%,3.95813%,4.968262%);stroke-opacity:1;stroke-miterlimit:10;" d="M 0.00074375 -0.00075 C 1.631603 -5.227312 7.0984 -10.235125 10.639416 -10.383562 " transform="matrix(2,0,0,-2,843.1782,919.811)"/>
<path style="fill:none;stroke-width:0.75;stroke-linecap:butt;stroke-linejoin:miter;stroke:rgb(4.017639%,3.95813%,4.968262%);stroke-opacity:1;stroke-miterlimit:10;" d="M -0.0002375 0.00041875 C -1.631097 5.226981 -7.097894 10.234794 -10.638909 10.383231 " transform="matrix(2,0,0,-2,1138.9536,648.1024)"/>
<path style="fill:none;stroke-width:0.75;stroke-linecap:butt;stroke-linejoin:miter;stroke:rgb(4.017639%,3.95813%,4.968262%);stroke-opacity:1;stroke-miterlimit:10;" d="M -0.000509375 0.00041875 C 1.632303 5.226981 7.097147 10.234794 10.638163 10.383231 " transform="matrix(2,0,0,-2,843.1768,648.1024)"/>
<path style="fill:none;stroke-width:0.75;stroke-linecap:butt;stroke-linejoin:miter;stroke:rgb(4.017639%,3.95813%,4.968262%);stroke-opacity:1;stroke-miterlimit:10;" d="M 0.00059375 -0.000734375 L 2.402938 -10.215578 L 0.0337969 -20.406984 " transform="matrix(2,0,0,-2,902.491,560.604)"/>
<path style="fill:none;stroke-width:0.75;stroke-linecap:butt;stroke-linejoin:miter;stroke:rgb(4.017639%,3.95813%,4.968262%);stroke-opacity:1;stroke-miterlimit:10;" d="M 0.000496875 0.000415625 C 0.000496875 3.076587 4.543466 7.475025 7.736825 7.475025 " transform="matrix(2,0,0,-2,843.3076,571.6688)"/>
<path style="fill:none;stroke-width:0.75;stroke-linecap:butt;stroke-linejoin:miter;stroke:rgb(4.017639%,3.95813%,4.968262%);stroke-opacity:1;stroke-miterlimit:10;" d="M 0.000496875 0.000265625 C 0.000496875 -3.077859 4.543466 -7.474344 7.736825 -7.474344 " transform="matrix(2,0,0,-2,843.3076,590.356)"/>
<path style="fill:none;stroke-width:0.75;stroke-linecap:butt;stroke-linejoin:miter;stroke:rgb(4.017639%,3.95813%,4.968262%);stroke-opacity:1;stroke-miterlimit:10;" d="M -0.000840625 0.000415625 C -0.000840625 3.076587 -4.543809 7.475025 -7.737169 7.475025 " transform="matrix(2,0,0,-2,1139.0134,571.6688)"/>
<path style="fill:none;stroke-width:1.2;stroke-linecap:butt;stroke-linejoin:miter;stroke:rgb(4.017639%,3.95813%,4.968262%);stroke-opacity:1;stroke-miterlimit:10;" d="M 0.000175 -0.000896875 L 129.912284 -0.000896875 C 129.912284 0.407306 131.394706 2.235431 132.146659 2.235431 L 132.146659 22.05965 C 131.394706 22.05965 129.912284 23.887775 129.912284 24.294025 L -13.470528 24.294025 C -13.470528 23.887775 -14.95295 22.05965 -15.704903 22.05965 L -15.704903 2.235431 C -14.95295 2.235431 -13.470528 0.407306 -13.470528 -0.000896875 Z M 0.000175 -0.000896875 " transform="matrix(2,0,0,-2,874.7184,605.3068)"/>
<path style="fill:none;stroke-width:0.75;stroke-linecap:butt;stroke-linejoin:miter;stroke:rgb(4.017639%,3.95813%,4.968262%);stroke-opacity:1;stroke-miterlimit:10;" d="M -0.000840625 0.000265625 C -0.000840625 -3.077859 -4.543809 -7.474344 -7.737169 -7.474344 " transform="matrix(2,0,0,-2,1139.0134,590.356)"/>
<path style="fill:none;stroke-width:1.05;stroke-linecap:butt;stroke-linejoin:miter;stroke:rgb(4.017639%,3.95813%,4.968262%);stroke-opacity:1;stroke-miterlimit:10;" d="M 0.000659375 0.000825 C 0.0377688 -0.669097 -0.544262 -3.809722 2.922534 -3.809722 L -346.825512 -3.809722 C -343.358716 -3.809722 -343.940747 -0.669097 -343.903637 0.000825 L -343.903637 93.348481 C -343.940747 94.01645 -343.358716 97.157075 -346.825512 97.157075 L 2.922534 97.157075 C -0.544262 97.157075 0.0377688 94.01645 0.000659375 93.348481 Z M 0.000659375 0.000825 " transform="matrix(2,0,0,-2,1134.2604,1158.0954)"/>
<path style="fill:none;stroke-width:0.5;stroke-linecap:butt;stroke-linejoin:miter;stroke:rgb(4.017639%,3.95813%,4.968262%);stroke-opacity:1;stroke-miterlimit:10;" d="M -0.000215625 -0.000375 C 10.792753 -0.000375 3.773222 -1.857797 15.503691 -2.000375 L 128.1658 -2.000375 " transform="matrix(2,0,0,-2,876.0434,556.718)"/>
<path style="fill:none;stroke-width:0.5;stroke-linecap:butt;stroke-linejoin:miter;stroke:rgb(4.017639%,3.95813%,4.968262%);stroke-opacity:1;stroke-miterlimit:10;" d="M -0.000215625 -0.000896875 C 10.792753 -0.000896875 3.773222 1.858478 15.503691 1.999103 L 128.1658 1.999103 " transform="matrix(2,0,0,-2,876.0434,605.3068)"/>
<path style=" stroke:none;fill-rule:nonzero;fill:rgb(4.017639%,3.95813%,4.968262%);fill-opacity:1;" d="M 217.476562 688.699219 C 214.59375 688.699219 212.25 686.355469 212.25 683.472656 C 212.25 680.589844 214.59375 678.246094 217.476562 678.246094 C 220.363281 678.246094 222.707031 680.589844 222.707031 683.472656 C 222.707031 686.355469 220.363281 688.699219 217.476562 688.699219 M 217.476562 679.371094 C 215.214844 679.371094 213.375 681.207031 213.375 683.472656 C 213.375 685.734375 215.214844 687.574219 217.476562 687.574219 C 219.738281 687.574219 221.582031 685.734375 221.582031 683.472656 C 221.582031 681.207031 219.738281 679.371094 217.476562 679.371094 "/>
<path style=" stroke:none;fill-rule:nonzero;fill:rgb(4.017639%,3.95813%,4.968262%);fill-opacity:1;" d="M 217.476562 714.699219 C 214.59375 714.699219 212.25 712.355469 212.25 709.472656 C 212.25 706.589844 214.59375 704.246094 217.476562 704.246094 C 220.363281 704.246094 222.707031 706.589844 222.707031 709.472656 C 222.707031 712.355469 220.363281 714.699219 217.476562 714.699219 M 217.476562 705.371094 C 215.214844 705.371094 213.375 707.207031 213.375 709.472656 C 213.375 711.734375 215.214844 713.574219 217.476562 713.574219 C 219.738281 713.574219 221.582031 711.734375 221.582031 709.472656 C 221.582031 707.207031 219.738281 705.371094 217.476562 705.371094 "/>
<path style=" stroke:none;fill-rule:nonzero;fill:rgb(4.017639%,3.95813%,4.968262%);fill-opacity:1;" d="M 217.476562 740.699219 C 214.59375 740.699219 212.25 738.355469 212.25 735.472656 C 212.25 732.589844 214.59375 730.246094 217.476562 730.246094 C 220.363281 730.246094 222.707031 732.589844 222.707031 735.472656 C 222.707031 738.355469 220.363281 740.699219 217.476562 740.699219 M 217.476562 731.371094 C 215.214844 731.371094 213.375 733.207031 213.375 735.472656 C 213.375 737.734375 215.214844 739.574219 217.476562 739.574219 C 219.738281 739.574219 221.582031 737.734375 221.582031 735.472656 C 221.582031 733.207031 219.738281 731.371094 217.476562 731.371094 "/>
<path style=" stroke:none;fill-rule:nonzero;fill:rgb(4.017639%,3.95813%,4.968262%);fill-opacity:1;" d="M 217.476562 766.699219 C 214.59375 766.699219 212.25 764.355469 212.25 761.472656 C 212.25 758.589844 214.59375 756.246094 217.476562 756.246094 C 220.363281 756.246094 222.707031 758.589844 222.707031 761.472656 C 222.707031 764.355469 220.363281 766.699219 217.476562 766.699219 M 217.476562 757.371094 C 215.214844 757.371094 213.375 759.207031 213.375 761.472656 C 213.375 763.734375 215.214844 765.574219 217.476562 765.574219 C 219.738281 765.574219 221.582031 763.734375 221.582031 761.472656 C 221.582031 759.207031 219.738281 757.371094 217.476562 757.371094 "/>
<path style=" stroke:none;fill-rule:nonzero;fill:rgb(4.017639%,3.95813%,4.968262%);fill-opacity:1;" d="M 217.476562 792.699219 C 214.59375 792.699219 212.25 790.355469 212.25 787.472656 C 212.25 784.589844 214.59375 782.246094 217.476562 782.246094 C 220.363281 782.246094 222.707031 784.589844 222.707031 787.472656 C 222.707031 790.355469 220.363281 792.699219 217.476562 792.699219 M 217.476562 783.371094 C 215.214844 783.371094 213.375 785.207031 213.375 787.472656 C 213.375 789.734375 215.214844 791.574219 217.476562 791.574219 C 219.738281 791.574219 221.582031 789.734375 221.582031 787.472656 C 221.582031 785.207031 219.738281 783.371094 217.476562 783.371094 "/>
<path style=" stroke:none;fill-rule:nonzero;fill:rgb(4.017639%,3.95813%,4.968262%);fill-opacity:1;" d="M 217.476562 818.699219 C 214.59375 818.699219 212.25 816.355469 212.25 813.472656 C 212.25 810.589844 214.59375 808.246094 217.476562 808.246094 C 220.363281 808.246094 222.707031 810.589844 222.707031 813.472656 C 222.707031 816.355469 220.363281 818.699219 217.476562 818.699219 M 217.476562 809.371094 C 215.214844 809.371094 213.375 811.207031 213.375 813.472656 C 213.375 815.734375 215.214844 817.574219 217.476562 817.574219 C 219.738281 817.574219 221.582031 815.734375 221.582031 813.472656 C 221.582031 811.207031 219.738281 809.371094 217.476562 809.371094 "/>
<path style=" stroke:none;fill-rule:nonzero;fill:rgb(4.017639%,3.95813%,4.968262%);fill-opacity:1;" d="M 217.476562 844.699219 C 214.59375 844.699219 212.25 842.355469 212.25 839.472656 C 212.25 836.589844 214.59375 834.246094 217.476562 834.246094 C 220.363281 834.246094 222.707031 836.589844 222.707031 839.472656 C 222.707031 842.355469 220.363281 844.699219 217.476562 844.699219 M 217.476562 835.371094 C 215.214844 835.371094 213.375 837.207031 213.375 839.472656 C 213.375 841.734375 215.214844 843.574219 217.476562 843.574219 C 219.738281 843.574219 221.582031 841.734375 221.582031 839.472656 C 221.582031 837.207031 219.738281 835.371094 217.476562 835.371094 "/>
<path style=" stroke:none;fill-rule:nonzero;fill:rgb(4.017639%,3.95813%,4.968262%);fill-opacity:1;" d="M 217.476562 870.699219 C 214.59375 870.699219 212.25 868.355469 212.25 865.472656 C 212.25 862.589844 214.59375 860.246094 217.476562 860.246094 C 220.363281 860.246094 222.707031 862.589844 222.707031 865.472656 C 222.707031 868.355469 220.363281 870.699219 217.476562 870.699219 M 217.476562 861.371094 C 215.214844 861.371094 213.375 863.207031 213.375 865.472656 C 213.375 867.734375 215.214844 869.574219 217.476562 869.574219 C 219.738281 869.574219 221.582031 867.734375 221.582031 865.472656 C 221.582031 863.207031 219.738281 861.371094 217.476562 861.371094 "/>
<path style=" stroke:none;fill-rule:nonzero;fill:rgb(4.017639%,3.95813%,4.968262%);fill-opacity:1;" d="M 217.476562 896.699219 C 214.59375 896.699219 212.25 894.355469 212.25 891.472656 C 212.25 888.589844 214.59375 886.246094 217.476562 886.246094 C 220.363281 886.246094 222.707031 888.589844 222.707031 891.472656 C 222.707031 894.355469 220.363281 896.699219 217.476562 896.699219 M 217.476562 887.371094 C 215.214844 887.371094 213.375 889.207031 213.375 891.472656 C 213.375 893.734375 215.214844 895.574219 217.476562 895.574219 C 219.738281 895.574219 221.582031 893.734375 221.582031 891.472656 C 221.582031 889.207031 219.738281 887.371094 217.476562 887.371094 "/>
<path style=" stroke:none;fill-rule:nonzero;fill:rgb(4.017639%,3.95813%,4.968262%);fill-opacity:1;" d="M 217.476562 922.699219 C 214.59375 922.699219 212.25 920.355469 212.25 917.472656 C 212.25 914.589844 214.59375 912.246094 217.476562 912.246094 C 220.363281 912.246094 222.707031 914.589844 222.707031 917.472656 C 222.707031 920.355469 220.363281 922.699219 217.476562 922.699219 M 217.476562 913.371094 C 215.214844 913.371094 213.375 915.207031 213.375 917.472656 C 213.375 919.734375 215.214844 921.574219 217.476562 921.574219 C 219.738281 921.574219 221.582031 919.734375 221.582031 917.472656 C 221.582031 915.207031 219.738281 913.371094 217.476562 913.371094 "/>
<path style=" stroke:none;fill-rule:nonzero;fill:rgb(4.017639%,3.95813%,4.968262%);fill-opacity:1;" d="M 217.476562 948.699219 C 214.59375 948.699219 212.25 946.355469 212.25 943.472656 C 212.25 940.589844 214.59375 938.246094 217.476562 938.246094 C 220.363281 938.246094 222.707031 940.589844 222.707031 943.472656 C 222.707031 946.355469 220.363281 948.699219 217.476562 948.699219 M 217.476562 939.371094 C 215.214844 939.371094 213.375 941.207031 213.375 943.472656 C 213.375 945.734375 215.214844 947.574219 217.476562 947.574219 C 219.738281 947.574219 221.582031 945.734375 221.582031 943.472656 C 221.582031 941.207031 219.738281 939.371094 217.476562 939.371094 "/>
<path style="fill:none;stroke-width:0.75;stroke-linecap:butt;stroke-linejoin:miter;stroke:rgb(4.017639%,3.95813%,4.968262%);stroke-opacity:1;stroke-miterlimit:10;" d="M 0.000371875 0.00090625 L 0.000371875 1.293875 " transform="matrix(2,0,0,-2,443.4016,964.369)"/>
<path style="fill:none;stroke-width:0.75;stroke-linecap:butt;stroke-linejoin:miter;stroke:rgb(4.017639%,3.95813%,4.968262%);stroke-opacity:1;stroke-miterlimit:10;" d="M 0.00005 0.00090625 L 0.00005 1.293875 " transform="matrix(2,0,0,-2,1137.3124,964.369)"/>
<path style=" stroke:none;fill-rule:nonzero;fill:rgb(4.017639%,3.95813%,4.968262%);fill-opacity:1;" d="M 217.476562 974.699219 C 214.59375 974.699219 212.25 972.355469 212.25 969.472656 C 212.25 966.589844 214.59375 964.246094 217.476562 964.246094 C 220.363281 964.246094 222.707031 966.589844 222.707031 969.472656 C 222.707031 972.355469 220.363281 974.699219 217.476562 974.699219 M 217.476562 965.371094 C 215.214844 965.371094 213.375 967.207031 213.375 969.472656 C 213.375 971.734375 215.214844 973.574219 217.476562 973.574219 C 219.738281 973.574219 221.582031 971.734375 221.582031 969.472656 C 221.582031 967.207031 219.738281 965.371094 217.476562 965.371094 "/>
<path style=" stroke:none;fill-rule:nonzero;fill:rgb(4.017639%,3.95813%,4.968262%);fill-opacity:1;" d="M 217.476562 1000.699219 C 214.59375 1000.699219 212.25 998.355469 212.25 995.472656 C 212.25 992.589844 214.59375 990.246094 217.476562 990.246094 C 220.363281 990.246094 222.707031 992.589844 222.707031 995.472656 C 222.707031 998.355469 220.363281 1000.699219 217.476562 1000.699219 M 217.476562 991.371094 C 215.214844 991.371094 213.375 993.207031 213.375 995.472656 C 213.375 997.734375 215.214844 999.574219 217.476562 999.574219 C 219.738281 999.574219 221.582031 997.734375 221.582031 995.472656 C 221.582031 993.207031 219.738281 991.371094 217.476562 991.371094 "/>
<path style=" stroke:none;fill-rule:nonzero;fill:rgb(4.017639%,3.95813%,4.968262%);fill-opacity:1;" d="M 217.476562 1026.699219 C 214.59375 1026.699219 212.25 1024.355469 212.25 1021.472656 C 212.25 1018.589844 214.59375 1016.246094 217.476562 1016.246094 C 220.363281 1016.246094 222.707031 1018.589844 222.707031 1021.472656 C 222.707031 1024.355469 220.363281 1026.699219 217.476562 1026.699219 M 217.476562 1017.371094 C 215.214844 1017.371094 213.375 1019.207031 213.375 1021.472656 C 213.375 1023.734375 215.214844 1025.574219 217.476562 1025.574219 C 219.738281 1025.574219 221.582031 1023.734375 221.582031 1021.472656 C 221.582031 1019.207031 219.738281 1017.371094 217.476562 1017.371094 "/>
<path style=" stroke:none;fill-rule:nonzero;fill:rgb(4.017639%,3.95813%,4.968262%);fill-opacity:1;" d="M 217.476562 1052.699219 C 214.59375 1052.699219 212.25 1050.355469 212.25 1047.472656 C 212.25 1044.589844 214.59375 1042.246094 217.476562 1042.246094 C 220.363281 1042.246094 222.707031 1044.589844 222.707031 1047.472656 C 222.707031 1050.355469 220.363281 1052.699219 217.476562 1052.699219 M 217.476562 1043.371094 C 215.214844 1043.371094 213.375 1045.207031 213.375 1047.472656 C 213.375 1049.734375 215.214844 1051.574219 217.476562 1051.574219 C 219.738281 1051.574219 221.582031 1049.734375 221.582031 1047.472656 C 221.582031 1045.207031 219.738281 1043.371094 217.476562 1043.371094 "/>
<path style=" stroke:none;fill-rule:nonzero;fill:rgb(4.017639%,3.95813%,4.968262%);fill-opacity:1;" d="M 217.476562 1078.699219 C 214.59375 1078.699219 212.25 1076.355469 212.25 1073.472656 C 212.25 1070.589844 214.59375 1068.246094 217.476562 1068.246094 C 220.363281 1068.246094 222.707031 1070.589844 222.707031 1073.472656 C 222.707031 1076.355469 220.363281 1078.699219 217.476562 1078.699219 M 217.476562 1069.371094 C 215.214844 1069.371094 213.375 1071.207031 213.375 1073.472656 C 213.375 1075.734375 215.214844 1077.574219 217.476562 1077.574219 C 219.738281 1077.574219 221.582031 1075.734375 221.582031 1073.472656 C 221.582031 1071.207031 219.738281 1069.371094 217.476562 1069.371094 "/>
<path style=" stroke:none;fill-rule:nonzero;fill:rgb(4.017639%,3.95813%,4.968262%);fill-opacity:1;" d="M 217.476562 1104.699219 C 214.59375 1104.699219 212.25 1102.355469 212.25 1099.472656 C 212.25 1096.589844 214.59375 1094.246094 217.476562 1094.246094 C 220.363281 1094.246094 222.707031 1096.589844 222.707031 1099.472656 C 222.707031 1102.355469 220.363281 1104.699219 217.476562 1104.699219 M 217.476562 1095.371094 C 215.214844 1095.371094 213.375 1097.207031 213.375 1099.472656 C 213.375 1101.734375 215.214844 1103.574219 217.476562 1103.574219 C 219.738281 1103.574219 221.582031 1101.734375 221.582031 1099.472656 C 221.582031 1097.207031 219.738281 1095.371094 217.476562 1095.371094 "/>
<path style=" stroke:none;fill-rule:nonzero;fill:rgb(4.017639%,3.95813%,4.968262%);fill-opacity:1;" d="M 217.476562 1130.699219 C 214.59375 1130.699219 212.25 1128.355469 212.25 1125.472656 C 212.25 1122.589844 214.59375 1120.246094 217.476562 1120.246094 C 220.363281 1120.246094 222.707031 1122.589844 222.707031 1125.472656 C 222.707031 1128.355469 220.363281 1130.699219 217.476562 1130.699219 M 217.476562 1121.371094 C 215.214844 1121.371094 213.375 1123.207031 213.375 1125.472656 C 213.375 1127.734375 215.214844 1129.574219 217.476562 1129.574219 C 219.738281 1129.574219 221.582031 1127.734375 221.582031 1125.472656 C 221.582031 1123.207031 219.738281 1121.371094 217.476562 1121.371094 "/>
<path style="fill:none;stroke-width:0.75;stroke-linecap:butt;stroke-linejoin:miter;stroke:rgb(4.017639%,3.95813%,4.968262%);stroke-opacity:1;stroke-miterlimit:10;" d="M 0.000371875 0.0005 L 0.000371875 -1.294422 " transform="matrix(2,0,0,-2,443.4016,1165.126)"/>
<path style="fill:none;stroke-width:0.75;stroke-linecap:butt;stroke-linejoin:miter;stroke:rgb(4.017639%,3.95813%,4.968262%);stroke-opacity:1;stroke-miterlimit:10;" d="M 0.00005 0.0005 L 0.00005 -1.294422 " transform="matrix(2,0,0,-2,1137.3124,1165.126)"/>
<path style="fill:none;stroke-width:0.5;stroke-linecap:butt;stroke-linejoin:miter;stroke:rgb(4.017639%,3.95813%,4.968262%);stroke-opacity:1;stroke-miterlimit:10;" d="M 0.00028125 0.000228125 C 10.791297 0.000228125 3.773719 -1.857194 15.502234 -1.999772 L 136.599891 -1.999772 " transform="matrix(2,0,0,-2,114.226,1201.9028)"/>
<path style="fill:none;stroke-width:0.5;stroke-linecap:butt;stroke-linejoin:miter;stroke:rgb(4.017639%,3.95813%,4.968262%);stroke-opacity:1;stroke-miterlimit:10;" d="M 0.00028125 -0.00029375 C 10.791297 -0.00029375 3.773719 1.857128 15.502234 1.999706 L 136.599891 1.999706 " transform="matrix(2,0,0,-2,114.226,1250.4916)"/>
<path style="fill:none;stroke-width:0.5;stroke-linecap:butt;stroke-linejoin:miter;stroke:rgb(69.805908%,69.256592%,69.392395%);stroke-opacity:1;stroke-miterlimit:10;" d="M 0.0008125 0.000115625 L 171.834797 0.000115625 " transform="matrix(2,0,0,-2,65.889,1279.2932)"/>
<path style="fill:none;stroke-width:0.5;stroke-linecap:butt;stroke-linejoin:miter;stroke:rgb(69.805908%,69.256592%,69.392395%);stroke-opacity:1;stroke-miterlimit:10;" d="M 0.0008125 -0.000384375 L 171.834797 -0.000384375 " transform="matrix(2,0,0,-2,65.889,1301.2922)"/>
<path style="fill:none;stroke-width:0.5;stroke-linecap:butt;stroke-linejoin:miter;stroke:rgb(69.805908%,69.256592%,69.392395%);stroke-opacity:1;stroke-miterlimit:10;" d="M 0.0008125 0.00076875 L 171.834797 0.00076875 " transform="matrix(2,0,0,-2,65.889,1323.2906)"/>
<path style="fill:none;stroke-width:0.5;stroke-linecap:butt;stroke-linejoin:miter;stroke:rgb(4.017639%,3.95813%,4.968262%);stroke-opacity:1;stroke-miterlimit:10;" d="M 0.000959375 0.0000125 L 0.000959375 -77.296862 " transform="matrix(2,0,0,-2,61.3848,1195.7344)"/>
<path style="fill:none;stroke-width:0.5;stroke-linecap:butt;stroke-linejoin:miter;stroke:rgb(4.017639%,3.95813%,4.968262%);stroke-opacity:1;stroke-miterlimit:10;" d="M 0.000959375 -0.00053125 L 0.000959375 -67.434125 " transform="matrix(2,0,0,-2,61.3848,1392.538)"/>
<path style="fill:none;stroke-width:0.5;stroke-linecap:butt;stroke-linejoin:miter;stroke:rgb(4.017639%,3.95813%,4.968262%);stroke-opacity:1;stroke-miterlimit:10;" d="M -0.00035 -0.000640625 C 3.110978 -5.949859 3.110978 -14.629547 -0.00035 -20.578766 " transform="matrix(2,0,0,-2,144.8132,1205.612)"/>
<path style="fill:none;stroke-width:0.5;stroke-linecap:butt;stroke-linejoin:miter;stroke:rgb(4.017639%,3.95813%,4.968262%);stroke-opacity:1;stroke-miterlimit:10;" d="M 0.000909375 -0.000103125 L 0.000909375 -253.082134 " transform="matrix(2,0,0,-2,191.5724,649.6912)"/>
<path style="fill:none;stroke-width:0.5;stroke-linecap:butt;stroke-linejoin:miter;stroke:rgb(4.017639%,3.95813%,4.968262%);stroke-opacity:1;stroke-miterlimit:10;" d="M 0.000971875 -0.00053125 L 0.000971875 -67.434125 " transform="matrix(2,0,0,-2,221.2754,1392.538)"/>
<path style="fill:none;stroke-width:0.5;stroke-linecap:butt;stroke-linejoin:miter;stroke:rgb(4.017639%,3.95813%,4.968262%);stroke-opacity:1;stroke-miterlimit:10;" d="M -0.000603125 -0.00053125 L -0.000603125 -67.434125 " transform="matrix(2,0,0,-2,254.4348,1392.538)"/>
<path style="fill:none;stroke-width:0.5;stroke-linecap:butt;stroke-linejoin:miter;stroke:rgb(4.017639%,3.95813%,4.968262%);stroke-opacity:1;stroke-miterlimit:10;" d="M -0.00025 -0.000103125 L -0.00025 -253.082134 " transform="matrix(2,0,0,-2,414.063,649.6912)"/>
<path style="fill:none;stroke-width:0.5;stroke-linecap:butt;stroke-linejoin:miter;stroke:rgb(4.017639%,3.95813%,4.968262%);stroke-opacity:1;stroke-miterlimit:10;" d="M -0.00025 0.0000125 L -0.00025 -77.296862 " transform="matrix(2,0,0,-2,414.063,1195.7344)"/>
<path style="fill:none;stroke-width:0.5;stroke-linecap:butt;stroke-linejoin:miter;stroke:rgb(4.017639%,3.95813%,4.968262%);stroke-opacity:1;stroke-miterlimit:10;" d="M -0.00025 -0.00053125 L -0.00025 -67.434125 " transform="matrix(2,0,0,-2,414.063,1392.538)"/>
<path style="fill:none;stroke-width:0.5;stroke-linecap:butt;stroke-linejoin:miter;stroke:rgb(4.017639%,3.95813%,4.968262%);stroke-opacity:1;stroke-miterlimit:10;" d="M 0.000371875 -0.000221875 L 0.000371875 102.966575 " transform="matrix(2,0,0,-2,442.4016,1167.7144)"/>
<path style="fill:none;stroke-width:0.5;stroke-linecap:butt;stroke-linejoin:miter;stroke:rgb(4.017639%,3.95813%,4.968262%);stroke-opacity:1;stroke-miterlimit:10;" d="M -0.00095625 -0.000375 L -0.00095625 -117.908578 " transform="matrix(2,0,0,-2,447.8066,694.718)"/>
<path style="fill:none;stroke-width:0.5;stroke-linecap:butt;stroke-linejoin:miter;stroke:rgb(4.017639%,3.95813%,4.968262%);stroke-opacity:1;stroke-miterlimit:10;" d="M -0.00095625 0.0000125 L -0.00095625 -165.837878 " transform="matrix(2,0,0,-2,447.8066,1195.7344)"/>
<path style="fill:none;stroke-width:0.5;stroke-linecap:butt;stroke-linejoin:miter;stroke:rgb(4.017639%,3.95813%,4.968262%);stroke-opacity:1;stroke-miterlimit:10;" d="M -0.0002625 -0.000375 L -0.0002625 -117.908578 " transform="matrix(2,0,0,-2,815.7974,694.718)"/>
<path style="fill:none;stroke-width:0.5;stroke-linecap:butt;stroke-linejoin:miter;stroke:rgb(4.017639%,3.95813%,4.968262%);stroke-opacity:1;stroke-miterlimit:10;" d="M -0.000709375 -0.000253125 L -0.000709375 -146.578378 " transform="matrix(2,0,0,-2,849.1772,637.3784)"/>
<path style="fill:none;stroke-width:0.5;stroke-linecap:butt;stroke-linejoin:miter;stroke:rgb(4.017639%,3.95813%,4.968262%);stroke-opacity:1;stroke-miterlimit:10;" d="M -0.0002875 -0.00006875 L 2.390338 -10.162178 L 0.007525 -20.298897 " transform="matrix(2,0,0,-2,906.5162,560.7108)"/>
<path style="fill:none;stroke-width:0.5;stroke-linecap:butt;stroke-linejoin:miter;stroke:rgb(4.017639%,3.95813%,4.968262%);stroke-opacity:1;stroke-miterlimit:10;" d="M -0.0002375 -0.000253125 L -0.0002375 -146.578378 " transform="matrix(2,0,0,-2,1132.9536,637.3784)"/>
<path style="fill:none;stroke-width:0.5;stroke-linecap:butt;stroke-linejoin:miter;stroke:rgb(4.017639%,3.95813%,4.968262%);stroke-opacity:1;stroke-miterlimit:10;" d="M -0.0002375 0.0000125 L -0.0002375 -165.837878 " transform="matrix(2,0,0,-2,1132.9536,1195.7344)"/>
<path style="fill:none;stroke-width:0.5;stroke-linecap:butt;stroke-linejoin:miter;stroke:rgb(4.017639%,3.95813%,4.968262%);stroke-opacity:1;stroke-miterlimit:10;" d="M 0.00005 -0.000221875 L 0.00005 102.966575 " transform="matrix(2,0,0,-2,1138.3124,1167.7144)"/>

<path style=" stroke:none;fill-rule:nonzero;fill:rgb(4.017639%,3.95813%,4.968262%);fill-opacity:1;" d="M 217.476562 662.699219 C 214.59375 662.699219 212.25 660.355469 212.25 657.472656 C 212.25 654.589844 214.59375 652.246094 217.476562 652.246094 C 220.363281 652.246094 222.707031 654.589844 222.707031 657.472656 C 222.707031 660.355469 220.363281 662.699219 217.476562 662.699219 M 217.476562 653.371094 C 215.214844 653.371094 213.375 655.210938 213.375 657.472656 C 213.375 659.734375 215.214844 661.574219 217.476562 661.574219 C 219.738281 661.574219 221.582031 659.734375 221.582031 657.472656 C 221.582031 655.210938 219.738281 653.371094 217.476562 653.371094 "/>
<path style=" stroke:none;fill-rule:nonzero;fill:rgb(100%,100%,100%);fill-opacity:1;" d="M 209.535156 693.414062 C 212.816406 693.414062 215.476562 690.753906 215.476562 687.472656 C 215.476562 684.191406 212.816406 681.53125 209.535156 681.53125 C 206.253906 681.53125 203.59375 684.191406 203.59375 687.472656 C 203.59375 690.753906 206.253906 693.414062 209.535156 693.414062 "/>
<path style=" stroke:none;fill-rule:nonzero;fill:rgb(4.017639%,3.95813%,4.968262%);fill-opacity:1;" d="M 209.535156 694.128906 C 205.863281 694.128906 202.875 691.144531 202.875 687.472656 C 202.875 683.800781 205.863281 680.816406 209.535156 680.816406 C 213.207031 680.816406 216.195312 683.800781 216.195312 687.472656 C 216.195312 691.144531 213.207031 694.128906 209.535156 694.128906 M 209.535156 682.246094 C 206.652344 682.246094 204.308594 684.589844 204.308594 687.472656 C 204.308594 690.355469 206.652344 692.699219 209.535156 692.699219 C 212.414062 692.699219 214.761719 690.355469 214.761719 687.472656 C 214.761719 684.589844 212.414062 682.246094 209.535156 682.246094 "/>
<path style=" stroke:none;fill-rule:nonzero;fill:rgb(100%,100%,100%);fill-opacity:1;" d="M 209.535156 719.414062 C 212.816406 719.414062 215.476562 716.753906 215.476562 713.472656 C 215.476562 710.191406 212.816406 707.53125 209.535156 707.53125 C 206.253906 707.53125 203.59375 710.191406 203.59375 713.472656 C 203.59375 716.753906 206.253906 719.414062 209.535156 719.414062 "/>
<path style=" stroke:none;fill-rule:nonzero;fill:rgb(4.017639%,3.95813%,4.968262%);fill-opacity:1;" d="M 209.535156 720.128906 C 205.863281 720.128906 202.875 717.144531 202.875 713.472656 C 202.875 709.800781 205.863281 706.816406 209.535156 706.816406 C 213.207031 706.816406 216.195312 709.800781 216.195312 713.472656 C 216.195312 717.144531 213.207031 720.128906 209.535156 720.128906 M 209.535156 708.246094 C 206.652344 708.246094 204.308594 710.589844 204.308594 713.472656 C 204.308594 716.355469 206.652344 718.699219 209.535156 718.699219 C 212.414062 718.699219 214.761719 716.355469 214.761719 713.472656 C 214.761719 710.589844 212.414062 708.246094 209.535156 708.246094 "/>
<path style=" stroke:none;fill-rule:nonzero;fill:rgb(100%,100%,100%);fill-opacity:1;" d="M 209.535156 745.414062 C 212.816406 745.414062 215.476562 742.753906 215.476562 739.472656 C 215.476562 736.191406 212.816406 733.53125 209.535156 733.53125 C 206.253906 733.53125 203.59375 736.191406 203.59375 739.472656 C 203.59375 742.753906 206.253906 745.414062 209.535156 745.414062 "/>
<path style=" stroke:none;fill-rule:nonzero;fill:rgb(4.017639%,3.95813%,4.968262%);fill-opacity:1;" d="M 209.535156 746.128906 C 205.863281 746.128906 202.875 743.144531 202.875 739.472656 C 202.875 735.800781 205.863281 732.816406 209.535156 732.816406 C 213.207031 732.816406 216.195312 735.800781 216.195312 739.472656 C 216.195312 743.144531 213.207031 746.128906 209.535156 746.128906 M 209.535156 734.246094 C 206.652344 734.246094 204.308594 736.589844 204.308594 739.472656 C 204.308594 742.355469 206.652344 744.699219 209.535156 744.699219 C 212.414062 744.699219 214.761719 742.355469 214.761719 739.472656 C 214.761719 736.589844 212.414062 734.246094 209.535156 734.246094 "/>
<path style=" stroke:none;fill-rule:nonzero;fill:rgb(100%,100%,100%);fill-opacity:1;" d="M 209.535156 771.414062 C 212.816406 771.414062 215.476562 768.753906 215.476562 765.472656 C 215.476562 762.191406 212.816406 759.53125 209.535156 759.53125 C 206.253906 759.53125 203.59375 762.191406 203.59375 765.472656 C 203.59375 768.753906 206.253906 771.414062 209.535156 771.414062 "/>
<path style=" stroke:none;fill-rule:nonzero;fill:rgb(4.017639%,3.95813%,4.968262%);fill-opacity:1;" d="M 209.535156 772.128906 C 205.863281 772.128906 202.875 769.144531 202.875 765.472656 C 202.875 761.800781 205.863281 758.816406 209.535156 758.816406 C 213.207031 758.816406 216.195312 761.800781 216.195312 765.472656 C 216.195312 769.144531 213.207031 772.128906 209.535156 772.128906 M 209.535156 760.246094 C 206.652344 760.246094 204.308594 762.589844 204.308594 765.472656 C 204.308594 768.355469 206.652344 770.699219 209.535156 770.699219 C 212.414062 770.699219 214.761719 768.355469 214.761719 765.472656 C 214.761719 762.589844 212.414062 760.246094 209.535156 760.246094 "/>
<path style=" stroke:none;fill-rule:nonzero;fill:rgb(100%,100%,100%);fill-opacity:1;" d="M 209.535156 797.414062 C 212.816406 797.414062 215.476562 794.753906 215.476562 791.472656 C 215.476562 788.191406 212.816406 785.53125 209.535156 785.53125 C 206.253906 785.53125 203.59375 788.191406 203.59375 791.472656 C 203.59375 794.753906 206.253906 797.414062 209.535156 797.414062 "/>
<path style=" stroke:none;fill-rule:nonzero;fill:rgb(4.017639%,3.95813%,4.968262%);fill-opacity:1;" d="M 209.535156 798.128906 C 205.863281 798.128906 202.875 795.144531 202.875 791.472656 C 202.875 787.800781 205.863281 784.816406 209.535156 784.816406 C 213.207031 784.816406 216.195312 787.800781 216.195312 791.472656 C 216.195312 795.144531 213.207031 798.128906 209.535156 798.128906 M 209.535156 786.246094 C 206.652344 786.246094 204.308594 788.589844 204.308594 791.472656 C 204.308594 794.355469 206.652344 796.699219 209.535156 796.699219 C 212.414062 796.699219 214.761719 794.355469 214.761719 791.472656 C 214.761719 788.589844 212.414062 786.246094 209.535156 786.246094 "/>
<path style=" stroke:none;fill-rule:nonzero;fill:rgb(100%,100%,100%);fill-opacity:1;" d="M 209.535156 823.414062 C 212.816406 823.414062 215.476562 820.753906 215.476562 817.472656 C 215.476562 814.191406 212.816406 811.53125 209.535156 811.53125 C 206.253906 811.53125 203.59375 814.191406 203.59375 817.472656 C 203.59375 820.753906 206.253906 823.414062 209.535156 823.414062 "/>
<path style=" stroke:none;fill-rule:nonzero;fill:rgb(4.017639%,3.95813%,4.968262%);fill-opacity:1;" d="M 209.535156 824.128906 C 205.863281 824.128906 202.875 821.144531 202.875 817.472656 C 202.875 813.800781 205.863281 810.816406 209.535156 810.816406 C 213.207031 810.816406 216.195312 813.800781 216.195312 817.472656 C 216.195312 821.144531 213.207031 824.128906 209.535156 824.128906 M 209.535156 812.246094 C 206.652344 812.246094 204.308594 814.589844 204.308594 817.472656 C 204.308594 820.355469 206.652344 822.699219 209.535156 822.699219 C 212.414062 822.699219 214.761719 820.355469 214.761719 817.472656 C 214.761719 814.589844 212.414062 812.246094 209.535156 812.246094 "/>
<path style=" stroke:none;fill-rule:nonzero;fill:rgb(100%,100%,100%);fill-opacity:1;" d="M 209.535156 849.414062 C 212.816406 849.414062 215.476562 846.753906 215.476562 843.472656 C 215.476562 840.191406 212.816406 837.53125 209.535156 837.53125 C 206.253906 837.53125 203.59375 840.191406 203.59375 843.472656 C 203.59375 846.753906 206.253906 849.414062 209.535156 849.414062 "/>
<path style=" stroke:none;fill-rule:nonzero;fill:rgb(4.017639%,3.95813%,4.968262%);fill-opacity:1;" d="M 209.535156 850.128906 C 205.863281 850.128906 202.875 847.144531 202.875 843.472656 C 202.875 839.800781 205.863281 836.816406 209.535156 836.816406 C 213.207031 836.816406 216.195312 839.800781 216.195312 843.472656 C 216.195312 847.144531 213.207031 850.128906 209.535156 850.128906 M 209.535156 838.246094 C 206.652344 838.246094 204.308594 840.589844 204.308594 843.472656 C 204.308594 846.355469 206.652344 848.699219 209.535156 848.699219 C 212.414062 848.699219 214.761719 846.355469 214.761719 843.472656 C 214.761719 840.589844 212.414062 838.246094 209.535156 838.246094 "/>
<path style=" stroke:none;fill-rule:nonzero;fill:rgb(100%,100%,100%);fill-opacity:1;" d="M 209.535156 875.414062 C 212.816406 875.414062 215.476562 872.753906 215.476562 869.472656 C 215.476562 866.191406 212.816406 863.53125 209.535156 863.53125 C 206.253906 863.53125 203.59375 866.191406 203.59375 869.472656 C 203.59375 872.753906 206.253906 875.414062 209.535156 875.414062 "/>
<path style=" stroke:none;fill-rule:nonzero;fill:rgb(4.017639%,3.95813%,4.968262%);fill-opacity:1;" d="M 209.535156 876.128906 C 205.863281 876.128906 202.875 873.144531 202.875 869.472656 C 202.875 865.800781 205.863281 862.816406 209.535156 862.816406 C 213.207031 862.816406 216.195312 865.800781 216.195312 869.472656 C 216.195312 873.144531 213.207031 876.128906 209.535156 876.128906 M 209.535156 864.246094 C 206.652344 864.246094 204.308594 866.589844 204.308594 869.472656 C 204.308594 872.355469 206.652344 874.699219 209.535156 874.699219 C 212.414062 874.699219 214.761719 872.355469 214.761719 869.472656 C 214.761719 866.589844 212.414062 864.246094 209.535156 864.246094 "/>
<path style=" stroke:none;fill-rule:nonzero;fill:rgb(100%,100%,100%);fill-opacity:1;" d="M 209.535156 901.414062 C 212.816406 901.414062 215.476562 898.753906 215.476562 895.472656 C 215.476562 892.191406 212.816406 889.53125 209.535156 889.53125 C 206.253906 889.53125 203.59375 892.191406 203.59375 895.472656 C 203.59375 898.753906 206.253906 901.414062 209.535156 901.414062 "/>
<path style=" stroke:none;fill-rule:nonzero;fill:rgb(4.017639%,3.95813%,4.968262%);fill-opacity:1;" d="M 209.535156 902.128906 C 205.863281 902.128906 202.875 899.144531 202.875 895.472656 C 202.875 891.800781 205.863281 888.816406 209.535156 888.816406 C 213.207031 888.816406 216.195312 891.800781 216.195312 895.472656 C 216.195312 899.144531 213.207031 902.128906 209.535156 902.128906 M 209.535156 890.246094 C 206.652344 890.246094 204.308594 892.589844 204.308594 895.472656 C 204.308594 898.355469 206.652344 900.699219 209.535156 900.699219 C 212.414062 900.699219 214.761719 898.355469 214.761719 895.472656 C 214.761719 892.589844 212.414062 890.246094 209.535156 890.246094 "/>
<path style=" stroke:none;fill-rule:nonzero;fill:rgb(100%,100%,100%);fill-opacity:1;" d="M 209.535156 927.414062 C 212.816406 927.414062 215.476562 924.753906 215.476562 921.472656 C 215.476562 918.191406 212.816406 915.53125 209.535156 915.53125 C 206.253906 915.53125 203.59375 918.191406 203.59375 921.472656 C 203.59375 924.753906 206.253906 927.414062 209.535156 927.414062 "/>
<path style=" stroke:none;fill-rule:nonzero;fill:rgb(4.017639%,3.95813%,4.968262%);fill-opacity:1;" d="M 209.535156 928.128906 C 205.863281 928.128906 202.875 925.144531 202.875 921.472656 C 202.875 917.800781 205.863281 914.816406 209.535156 914.816406 C 213.207031 914.816406 216.195312 917.800781 216.195312 921.472656 C 216.195312 925.144531 213.207031 928.128906 209.535156 928.128906 M 209.535156 916.246094 C 206.652344 916.246094 204.308594 918.589844 204.308594 921.472656 C 204.308594 924.355469 206.652344 926.699219 209.535156 926.699219 C 212.414062 926.699219 214.761719 924.355469 214.761719 921.472656 C 214.761719 918.589844 212.414062 916.246094 209.535156 916.246094 "/>
<path style=" stroke:none;fill-rule:nonzero;fill:rgb(100%,100%,100%);fill-opacity:1;" d="M 209.535156 953.414062 C 212.816406 953.414062 215.476562 950.753906 215.476562 947.472656 C 215.476562 944.191406 212.816406 941.53125 209.535156 941.53125 C 206.253906 941.53125 203.59375 944.191406 203.59375 947.472656 C 203.59375 950.753906 206.253906 953.414062 209.535156 953.414062 "/>
<path style=" stroke:none;fill-rule:nonzero;fill:rgb(4.017639%,3.95813%,4.968262%);fill-opacity:1;" d="M 209.535156 954.128906 C 205.863281 954.128906 202.875 951.144531 202.875 947.472656 C 202.875 943.800781 205.863281 940.816406 209.535156 940.816406 C 213.207031 940.816406 216.195312 943.800781 216.195312 947.472656 C 216.195312 951.144531 213.207031 954.128906 209.535156 954.128906 M 209.535156 942.246094 C 206.652344 942.246094 204.308594 944.589844 204.308594 947.472656 C 204.308594 950.355469 206.652344 952.699219 209.535156 952.699219 C 212.414062 952.699219 214.761719 950.355469 214.761719 947.472656 C 214.761719 944.589844 212.414062 942.246094 209.535156 942.246094 "/>
<path style=" stroke:none;fill-rule:nonzero;fill:rgb(100%,100%,100%);fill-opacity:1;" d="M 209.535156 979.414062 C 212.816406 979.414062 215.476562 976.753906 215.476562 973.472656 C 215.476562 970.191406 212.816406 967.53125 209.535156 967.53125 C 206.253906 967.53125 203.59375 970.191406 203.59375 973.472656 C 203.59375 976.753906 206.253906 979.414062 209.535156 979.414062 "/>
<path style=" stroke:none;fill-rule:nonzero;fill:rgb(4.017639%,3.95813%,4.968262%);fill-opacity:1;" d="M 209.535156 980.128906 C 205.863281 980.128906 202.875 977.144531 202.875 973.472656 C 202.875 969.800781 205.863281 966.816406 209.535156 966.816406 C 213.207031 966.816406 216.195312 969.800781 216.195312 973.472656 C 216.195312 977.144531 213.207031 980.128906 209.535156 980.128906 M 209.535156 968.246094 C 206.652344 968.246094 204.308594 970.589844 204.308594 973.472656 C 204.308594 976.355469 206.652344 978.699219 209.535156 978.699219 C 212.414062 978.699219 214.761719 976.355469 214.761719 973.472656 C 214.761719 970.589844 212.414062 968.246094 209.535156 968.246094 "/>
<path style=" stroke:none;fill-rule:nonzero;fill:rgb(100%,100%,100%);fill-opacity:1;" d="M 209.535156 1005.414062 C 212.816406 1005.414062 215.476562 1002.753906 215.476562 999.472656 C 215.476562 996.191406 212.816406 993.53125 209.535156 993.53125 C 206.253906 993.53125 203.59375 996.191406 203.59375 999.472656 C 203.59375 1002.753906 206.253906 1005.414062 209.535156 1005.414062 "/>
<path style=" stroke:none;fill-rule:nonzero;fill:rgb(4.017639%,3.95813%,4.968262%);fill-opacity:1;" d="M 209.535156 1006.128906 C 205.863281 1006.128906 202.875 1003.144531 202.875 999.472656 C 202.875 995.800781 205.863281 992.816406 209.535156 992.816406 C 213.207031 992.816406 216.195312 995.800781 216.195312 999.472656 C 216.195312 1003.144531 213.207031 1006.128906 209.535156 1006.128906 M 209.535156 994.246094 C 206.652344 994.246094 204.308594 996.589844 204.308594 999.472656 C 204.308594 1002.355469 206.652344 1004.699219 209.535156 1004.699219 C 212.414062 1004.699219 214.761719 1002.355469 214.761719 999.472656 C 214.761719 996.589844 212.414062 994.246094 209.535156 994.246094 "/>
<path style=" stroke:none;fill-rule:nonzero;fill:rgb(100%,100%,100%);fill-opacity:1;" d="M 209.535156 1031.414062 C 212.816406 1031.414062 215.476562 1028.753906 215.476562 1025.472656 C 215.476562 1022.191406 212.816406 1019.53125 209.535156 1019.53125 C 206.253906 1019.53125 203.59375 1022.191406 203.59375 1025.472656 C 203.59375 1028.753906 206.253906 1031.414062 209.535156 1031.414062 "/>
<path style=" stroke:none;fill-rule:nonzero;fill:rgb(4.017639%,3.95813%,4.968262%);fill-opacity:1;" d="M 209.535156 1032.128906 C 205.863281 1032.128906 202.875 1029.144531 202.875 1025.472656 C 202.875 1021.800781 205.863281 1018.816406 209.535156 1018.816406 C 213.207031 1018.816406 216.195312 1021.800781 216.195312 1025.472656 C 216.195312 1029.144531 213.207031 1032.128906 209.535156 1032.128906 M 209.535156 1020.246094 C 206.652344 1020.246094 204.308594 1022.589844 204.308594 1025.472656 C 204.308594 1028.355469 206.652344 1030.699219 209.535156 1030.699219 C 212.414062 1030.699219 214.761719 1028.355469 214.761719 1025.472656 C 214.761719 1022.589844 212.414062 1020.246094 209.535156 1020.246094 "/>
<path style=" stroke:none;fill-rule:nonzero;fill:rgb(100%,100%,100%);fill-opacity:1;" d="M 209.535156 1057.414062 C 212.816406 1057.414062 215.476562 1054.753906 215.476562 1051.472656 C 215.476562 1048.191406 212.816406 1045.53125 209.535156 1045.53125 C 206.253906 1045.53125 203.59375 1048.191406 203.59375 1051.472656 C 203.59375 1054.753906 206.253906 1057.414062 209.535156 1057.414062 "/>
<path style=" stroke:none;fill-rule:nonzero;fill:rgb(4.017639%,3.95813%,4.968262%);fill-opacity:1;" d="M 209.535156 1058.128906 C 205.863281 1058.128906 202.875 1055.144531 202.875 1051.472656 C 202.875 1047.800781 205.863281 1044.816406 209.535156 1044.816406 C 213.207031 1044.816406 216.195312 1047.800781 216.195312 1051.472656 C 216.195312 1055.144531 213.207031 1058.128906 209.535156 1058.128906 M 209.535156 1046.246094 C 206.652344 1046.246094 204.308594 1048.589844 204.308594 1051.472656 C 204.308594 1054.355469 206.652344 1056.699219 209.535156 1056.699219 C 212.414062 1056.699219 214.761719 1054.355469 214.761719 1051.472656 C 214.761719 1048.589844 212.414062 1046.246094 209.535156 1046.246094 "/>
<path style=" stroke:none;fill-rule:nonzero;fill:rgb(100%,100%,100%);fill-opacity:1;" d="M 209.535156 1083.414062 C 212.816406 1083.414062 215.476562 1080.753906 215.476562 1077.472656 C 215.476562 1074.191406 212.816406 1071.53125 209.535156 1071.53125 C 206.253906 1071.53125 203.59375 1074.191406 203.59375 1077.472656 C 203.59375 1080.753906 206.253906 1083.414062 209.535156 1083.414062 "/>
<path style=" stroke:none;fill-rule:nonzero;fill:rgb(4.017639%,3.95813%,4.968262%);fill-opacity:1;" d="M 209.535156 1084.128906 C 205.863281 1084.128906 202.875 1081.144531 202.875 1077.472656 C 202.875 1073.800781 205.863281 1070.816406 209.535156 1070.816406 C 213.207031 1070.816406 216.195312 1073.800781 216.195312 1077.472656 C 216.195312 1081.144531 213.207031 1084.128906 209.535156 1084.128906 M 209.535156 1072.246094 C 206.652344 1072.246094 204.308594 1074.589844 204.308594 1077.472656 C 204.308594 1080.355469 206.652344 1082.699219 209.535156 1082.699219 C 212.414062 1082.699219 214.761719 1080.355469 214.761719 1077.472656 C 214.761719 1074.589844 212.414062 1072.246094 209.535156 1072.246094 "/>
<path style=" stroke:none;fill-rule:nonzero;fill:rgb(100%,100%,100%);fill-opacity:1;" d="M 209.535156 1109.414062 C 212.816406 1109.414062 215.476562 1106.753906 215.476562 1103.472656 C 215.476562 1100.191406 212.816406 1097.53125 209.535156 1097.53125 C 206.253906 1097.53125 203.59375 1100.191406 203.59375 1103.472656 C 203.59375 1106.753906 206.253906 1109.414062 209.535156 1109.414062 "/>
<path style=" stroke:none;fill-rule:nonzero;fill:rgb(4.017639%,3.95813%,4.968262%);fill-opacity:1;" d="M 209.535156 1110.128906 C 205.863281 1110.128906 202.875 1107.144531 202.875 1103.472656 C 202.875 1099.800781 205.863281 1096.816406 209.535156 1096.816406 C 213.207031 1096.816406 216.195312 1099.800781 216.195312 1103.472656 C 216.195312 1107.144531 213.207031 1110.128906 209.535156 1110.128906 M 209.535156 1098.246094 C 206.652344 1098.246094 204.308594 1100.589844 204.308594 1103.472656 C 204.308594 1106.355469 206.652344 1108.699219 209.535156 1108.699219 C 212.414062 1108.699219 214.761719 1106.355469 214.761719 1103.472656 C 214.761719 1100.589844 212.414062 1098.246094 209.535156 1098.246094 "/>
<path style=" stroke:none;fill-rule:nonzero;fill:rgb(100%,100%,100%);fill-opacity:1;" d="M 209.535156 1135.414062 C 212.816406 1135.414062 215.476562 1132.753906 215.476562 1129.472656 C 215.476562 1126.191406 212.816406 1123.53125 209.535156 1123.53125 C 206.253906 1123.53125 203.59375 1126.191406 203.59375 1129.472656 C 203.59375 1132.753906 206.253906 1135.414062 209.535156 1135.414062 "/>
<path style=" stroke:none;fill-rule:nonzero;fill:rgb(4.017639%,3.95813%,4.968262%);fill-opacity:1;" d="M 209.535156 1136.128906 C 205.863281 1136.128906 202.875 1133.144531 202.875 1129.472656 C 202.875 1125.800781 205.863281 1122.816406 209.535156 1122.816406 C 213.207031 1122.816406 216.195312 1125.800781 216.195312 1129.472656 C 216.195312 1133.144531 213.207031 1136.128906 209.535156 1136.128906 M 209.535156 1124.246094 C 206.652344 1124.246094 204.308594 1126.589844 204.308594 1129.472656 C 204.308594 1132.355469 206.652344 1134.699219 209.535156 1134.699219 C 212.414062 1134.699219 214.761719 1132.355469 214.761719 1129.472656 C 214.761719 1126.589844 212.414062 1124.246094 209.535156 1124.246094 "/>
<path style=" stroke:none;fill-rule:nonzero;fill:rgb(100%,100%,100%);fill-opacity:1;" d="M 209.535156 667.414062 C 212.816406 667.414062 215.476562 664.753906 215.476562 661.472656 C 215.476562 658.191406 212.816406 655.53125 209.535156 655.53125 C 206.253906 655.53125 203.59375 658.191406 203.59375 661.472656 C 203.59375 664.753906 206.253906 667.414062 209.535156 667.414062 "/>
<path style=" stroke:none;fill-rule:nonzero;fill:rgb(4.017639%,3.95813%,4.968262%);fill-opacity:1;" d="M 209.535156 668.132812 C 205.863281 668.132812 202.875 665.144531 202.875 661.472656 C 202.875 657.800781 205.863281 654.816406 209.535156 654.816406 C 213.207031 654.816406 216.195312 657.800781 216.195312 661.472656 C 216.195312 665.144531 213.207031 668.132812 209.535156 668.132812 M 209.535156 656.246094 C 206.652344 656.246094 204.308594 658.589844 204.308594 661.472656 C 204.308594 664.355469 206.652344 666.699219 209.535156 666.699219 C 212.414062 666.699219 214.761719 664.355469 214.761719 661.472656 C 214.761719 658.589844 212.414062 656.246094 209.535156 656.246094 "/>

</svg>
