<?xml version="1.0" encoding="UTF-8"?>
<svg xmlns="http://www.w3.org/2000/svg" width="15px" height="30px" viewBox="0 0 15 30">


<path
	stroke="#231f20"
	stroke-width="2"
	d="M 2.5 1 L 2.5 28"
/>
<path
	fill="#231f20"
	d="M 1 2 L 5.5 2 C 8.5 2 12.5 1.3 14.5 1 C 14.5 3 14 10 13.5 12 C 12.5 11.5 12 11.5 9.5 11 C 9.5 4 4.5 3 4 7 L 4 8 L 1 8 Z"
/>
<path
	fill="#231f20"
	d="M 1.5 28 C 1.5 28.5 2.5 29.5 3.1 29.5 C 3.6 29.5 4.7 28 4.7 27.5 C 5 27 3.5 27 3.5 26 Z"
/>

<g id="red_cross" fill="none" stroke="#8c3d41" stroke-width="1.5">
	<path d="M 0.6 12.5 L 5.6 17.5"/>
	<path d="M 0.6 17.5 L 5.6 12.5"/>
</g>

</svg>
