<?xml version="1.0" encoding="UTF-8"?>
<svg xmlns="http://www.w3.org/2000/svg" width="15px" height="30px" viewBox="0 0 10 30">

<path
	fill="#231f20"
	d="
		M 5 0 L 5.75 0.75 L 5.75 1.25 A 0.375 0.375 0 1 1 5.75 2 L 5.75 2.5 L 10 2.5 A 0.375 0.25 0 1 1 10.75 2.5 L 11.5 2.5 A 0.5 0.5 0 0 1 12 3 L 12 10.5 A 0.5 0.5 0 0 1 11.5 11 L 10.75 11 A 0.375 0.25 0 1 1 10 11 L 5.75 11 L 5.75 20.25 L 6 20.25 A 0.5 0.375 0 1 1 6 21 L 6 27.25 A 0.5 0.375 0 1 1 6 28 L 5.75 28 A 0.75 0.5 0 1 1 4.25 28
		L 4 28 A 0.5 0.375 0 1 1 4 27.25 L 4 21 A 0.5 0.375 0 1 1 4 20.25 L 4.25 20.25 L 4.25 11 L 0 11 A 0.375 0.25 0 1 1 -0.75 11 L -1.5 11 A 0.5 0.5 0 0 1 -2 10.5 L -2 3 A 0.5 0.5 0 0 1 -1.5 2.5 L -0.75 2.5 A 0.375 0.25 0 1 1 0 2.5 L 4.25 2.5 L 4.25 2 A 0.375 0.375 0 1 1 4.25 1.25 L 4.25 0.75 Z
	"
/>

<g id="red_cross" fill="none" stroke="#8c3d41" stroke-width="1.5">
	<path d="M 2.5 12.5 L 7.5 17.5"/>
	<path d="M 2.5 17.5 L 7.5 12.5"/>
</g>

</svg>
