<?xml version="1.0" encoding="UTF-8"?>
<svg version="1.1" width="155.84" height="155.84" viewBox="0 0 155.84 155.84" xmlns="http://www.w3.org/2000/svg">
	<path
		fill="#a23b2a"
		d="
			M 131.87 107.04 C 130.08 109.12 125.76 113.12 121.76 115.04 C 120.8 115.52 120 115.68 119.2 115.68 C 118.72 115.68 118.4 115.68 118.08 115.52 L 117.92 115.52 L 117.76 115.68 C 117.6 116.16 111.04 128.64 111.04 128.64 L 112.16 88.64 C 112.16 88.64 116.64 88.8 119.84 90.4 L 121.6 91.2 C 121.6 91.2 120.96 94.88 120.96 95.68 C 121.44 95.36 123.68 93.28 122.88 89.44 A 52 30 0 0 0 32.8 89.44 C 31.52 92.32 34.24 95.36 34.72 95.68 34.88 94.88 34.08 91.2 34.08 91.2 L 35.84 90.4 C 39.04 88.8 43.52 88.64 43.52 88.64 L 44.16 128.48 C 37.92 115.84 38.56 117.28 37.92 115.68 L 37.76 115.52 L 37.6 115.52 C 37.28 115.68 36.96 115.68 36.48 115.68 35.68 115.68 34.88 115.52 34.08 115.04 30.08 113.12 25.6 109.12 23.84 107.04 22.4 105.12 19.2 99.2 18.88 95.68 18.56 91.84 19.04 88.16 20.64 84.96 L 20.96 84.32 C 22.08 81.92 23.68 78.4 24 75.52 24.16 72.96 23.68 71.84 23.68 71.84 L 23.68 71.68 L 23.68 71.68 L 21.76 66.24 21.44 65.44 21.76 64.48 C 22.56 62.72 26.88 53.28 29.92 50.72 L 32.96 48.32 33.76 52.16 C 34.56 55.36 35.68 58.4 36.32 59.68 36.96 60.8 37.44 60.8 37.6 60.8 37.92 60.8 38.4 60.64 38.72 60.48 39.2 60.16 40.32 58.08 39.84 56 39.68 55.36 39.52 54.72 39.36 53.76 39.04 51.52 38.56 48.48 36.96 45.6 L 36.16 44.16 37.28 42.88 C 38.08 42.08 45.12 34.08 49.6 31.68 L 52.8 29.76 53.12 33.44 C 53.6 40 54.4 47.04 55.2 50.4 55.52 51.36 56.48 53.92 57.92 53.92 58.08 53.92 58.24 53.92 58.4 53.76 60.32 53.44 61.76 49.76 61.28 47.2 61.28 46.4 61.12 45.44 60.96 44.16 60.64 40.16 59.84 31.52 57.6 29.12 L 54.88 26.24 58.56 25.28 C 60.96 24.64 71.36 17.92 76.48 14.4 L 77.76 13.6 79.2 14.4 C 83.36 17.28 94.56 24.48 97.12 25.28 L 101.28 26.4 98.08 29.28 C 97.6 29.76 95.36 32.48 94.4 47.04 94.24 49.92 95.36 53.44 97.28 53.76 97.44 53.92 97.6 53.92 97.76 53.92 99.2 53.92 100.16 51.36 100.48 50.4 101.44 47.04 102.08 40 102.56 33.44 L 102.88 29.76 106.24 31.68 C 110.56 34.08 117.6 42.08 118.4 42.88 L 119.52 44.16 118.72 45.6 C 117.12 48.48 116.64 51.52 116.32 53.76 116.16 54.72 116 55.36 115.84 56 115.36 58.08 116.48 60.16 116.96 60.48 117.28 60.64 117.76 60.8 118.08 60.8 118.24 60.8 118.72 60.8 119.36 59.68 120.16 58.4 121.28 55.36 121.92 52.16 L 122.72 48.32 125.76 50.72 C 128.8 53.28 133.12 62.72 133.92 64.48 L 134.4 65.44 133.92 66.24 132 71.68 L 132 71.68 L 132 71.68 C 132 71.68 131.52 72.96 131.68 75.52 132 78.4 133.6 81.92 134.72 84.32 L 135.04 84.96 C 136.64 88.16 137.12 91.84 136.8 95.68 136.48 99.2 133.28 105.12 131.84 107.04 Z
			M 77.92 3.52 A 74.24 74.24 0 0 0 77.92 152 A 74.24 74.24 0 0 0 77.92 3.52 Z
		"
	/>
	<path fill="#d0b034" d="M 134.4 95.52 C 134.08 98.4 131.36 103.84 129.92 105.6 C 128.48 107.2 124.48 111.2 120.64 112.96 C 120.16 113.28 119.68 113.28 119.2 113.28 C 119.04 113.28 118.88 113.28 118.72 113.28 C 118.4 113.12 118.08 113.12 117.76 113.12 C 116.96 113.12 116.16 113.6 115.52 114.72 C 115.36 115.36 112.96 121.28 112.96 121.28 L 114.4 91.04 C 114.4 91.04 116 91.2 118.72 92.48 C 118.4 94.08 118.4 97.76 119.68 98.24 C 119.84 98.24 120.16 98.24 120.48 98.24 C 121.44 98.24 123.2 97.76 124.48 94.56 C 125.44 92.16 125.44 90.72 125.28 88.48 A 55 33.5 0 0 0 30.4 88.48 C 30.24 90.72 30.24 92.16 31.2 94.56 32.48 97.76 34.24 98.24 35.2 98.24 35.52 98.24 35.84 98.24 36 98.24 37.28 97.76 37.28 94.08 36.96 92.48 39.84 91.2 41.28 91.04 41.28 91.04 L 42.72 121.28 C 42.72 121.28 40.32 115.36 40.16 114.72 39.68 113.6 38.72 113.12 37.92 113.12 37.6 113.12 37.28 113.12 36.96 113.28 36.8 113.28 36.64 113.28 36.48 113.28 36.16 113.28 35.52 113.28 35.04 112.96 31.36 111.2 27.2 107.2 25.76 105.6 24.32 103.84 21.6 98.4 21.28 95.52 20.96 91.52 21.6 88.32 22.88 85.92 23.84 83.68 26.08 79.36 26.4 75.68 26.56 72.48 25.92 70.88 25.92 70.88 L 24 65.44 C 24 65.44 28.64 54.88 31.52 52.64 32.16 56 33.28 59.36 34.24 60.96 35.2 62.72 36.48 63.2 37.6 63.2 38.56 63.2 39.36 62.88 40 62.56 41.28 61.92 42.88 58.56 42.08 55.52 41.6 53.28 41.44 48.8 39.04 44.48 39.04 44.48 46.56 36.16 50.72 33.76 51.36 41.44 52 47.68 52.96 51.04 53.6 53.28 55.04 56.32 57.92 56.32 58.24 56.32 58.56 56.32 58.88 56.16 62.4 55.36 64.16 50.4 63.68 46.88 63.2 43.36 62.72 31.2 59.2 27.52 62.88 26.56 77.28 16.8 77.76 16.48 78.24 16.8 92.96 26.56 96.48 27.52 93.28 30.56 92.32 42.56 92 46.88 91.68 50.4 93.28 55.36 96.8 56.16 97.12 56.32 97.44 56.32 97.76 56.32 100.64 56.32 102.08 53.28 102.72 51.04 103.68 47.68 104.32 41.44 104.96 33.76 109.12 36.16 116.64 44.48 116.64 44.48 114.24 48.8 114.08 53.28 113.6 55.52 112.8 58.56 114.56 61.92 115.68 62.56 116.32 62.88 117.12 63.2 118.08 63.2 119.2 63.2 120.48 62.72 121.44 60.96 122.4 59.36 123.52 56 124.16 52.64 127.04 54.88 131.68 65.44 131.68 65.44 L 129.76 70.88 C 129.76 70.88 129.12 72.48 129.44 75.68 129.76 79.36 131.84 83.68 132.96 85.92 134.08 88.32 134.88 91.52 134.4 95.52 Z" />
	<g fill="none" stroke="#d0b034">
		<path stroke-width="3.6" d="M 77.92 1.76 A 76.04 76.04 0 0 0 77.92 153.84 A 76.04 76.04 0 0 0 77.92 1.76 Z" />
		<path stroke-width="1.2" d="M 77.92 6.8 A 71 71 0 0 0 77.92 148.8 A 71 71 0 0 0 77.92 6.8 Z" />
	</g>
</svg>