<?xml version="1.0" encoding="UTF-8"?>
<svg version="1.1" id="svg6792" width="126.24" height="155.68" viewBox="0 0 126.24 155.68" xmlns="http://www.w3.org/2000/svg">
	<path
		fill="#7b868c"
		d="
			M 83.36 77.6 C 83.36 74.88 81.92 75.04 80.96 74.4 83.52 73.76 82.08 69.28 81.12 68.48 79.84 67.52 78.24 67.52 77.12 67.2 76.16 66.88 76.16 66.88 74.72 66.72 75.84 63.2 73.28 62.24 73.28 62.24 L 70.88 61.92 C 70.88 52.0 70.88 44.64 70.88 44.64 70.88 44.64 70.72 40.48 74.08 38.56 71.2 37.92 69.92 37.6 69.92 36.16 69.92 35.84 70.24 35.2 71.04 35.2 71.36 35.2 71.84 35.2 72.32 35.52 74.08 36.32 79.68 36.32 83.68 36.64 83.04 35.68 85.28 33.12 85.12 31.2 83.68 32.0 81.28 32.48 79.04 32.48 76.0 32.48 72.96 31.68 71.52 29.6 70.72 30.24 70.08 30.4 69.92 30.4 69.76 30.4 69.6 30.4 69.6 30.4 68.8 29.28 68.96 27.36 69.28 25.28 70.08 21.28 69.12 14.08 67.68 10.4 67.2 9.12 68.48 9.12 68.64 9.12 L 68.64 9.12 C 68.64 9.12 69.12 8.48 68.8 7.52 68.64 6.88 65.44 0.0 65.44 0.0 64.96 0.48 62.4 6.88 62.08 7.52 61.76 8.48 63.2 9.12 63.2 9.12 L 63.2 9.12 C 63.36 9.12 63.84 9.12 63.2 10.4 61.76 14.08 60.8 21.28 61.6 25.28 62.08 27.36 62.08 29.28 61.28 30.4 61.28 30.4 61.28 30.4 61.12 30.4 60.8 30.4 60.16 30.24 59.36 29.6 57.92 31.68 54.88 32.48 52.0 32.48 49.6 32.48 47.2 32.0 45.76 31.2 45.6 33.12 47.84 35.68 47.36 36.64 51.36 36.32 56.8 36.32 58.72 35.52 59.2 35.2 59.52 35.2 59.84 35.2 60.8 35.2 60.96 35.84 60.96 36.16 60.96 37.6 59.68 37.92 56.8 38.56 60.32 40.48 60.0 44.64 60.0 44.64 60.0 44.64 60.0 52.8 60.0 63.68 58.72 64.64 56.8 65.76 55.36 66.56 55.36 66.08 55.52 65.6 55.52 65.44 54.88 65.6 53.28 65.76 51.84 65.76 49.76 65.76 47.68 65.6 47.68 65.6 L 47.84 67.52 C 46.08 67.2 42.4 65.92 40.32 62.72 40.32 62.72 36.8 74.4 25.92 79.2 33.44 82.24 36.96 86.72 38.24 91.84 41.12 89.6 46.4 88.16 48.64 88.16 L 48.96 88.16 L 48.96 89.92 C 48.96 89.92 51.2 89.44 53.44 89.44 54.4 89.44 55.52 89.6 56.48 89.92 56.32 89.28 56.16 88.64 56.16 87.68 L 60.16 89.44 C 60.16 103.36 60.32 115.52 60.32 116.8 60.48 120.16 60.96 125.6 59.36 127.68 59.2 131.36 65.44 155.68 65.44 155.68 66.08 153.28 71.84 131.36 71.52 127.68 69.92 125.6 70.56 120.16 70.56 116.8 70.56 115.52 70.72 105.12 70.72 92.48 L 71.04 92.48 71.36 92.48 C 73.6 92.32 72.64 92.48 74.08 92.16 76.32 91.52 75.36 88.64 75.68 88.0 76.48 88.16 76.96 88.16 77.12 88.16 L 77.28 88.16 C 77.28 88.16 77.44 88.16 77.76 88.16 78.08 88.16 78.4 88.16 78.88 88.0 79.84 87.36 80.64 86.72 81.12 85.12 81.92 82.72 80.16 81.76 80.16 81.76 80.16 81.76 81.92 81.6 82.88 80.64 83.52 79.84 83.36 79.04 83.36 77.6 Z
		"
	/>
	<path
		fill="#b7c7d3"
		d="
			M 59.2 138.4 A 60.75 60.75 0 0 1 59.68 17.12 C 59.68 16.32 59.84 15.52 60.0 14.88 A 63.05 63.05 0 0 0 59.68 140.8 C 59.52 140.0 59.36 139.2 59.2 138.4 Z
			M 71.04 15.2 C 71.2 16.0 71.2 16.8 71.36 17.6 A 60.75 60.75 0 0 1 71.84 137.92 C 71.68 138.72 71.52 139.52 71.36 140.32 A 63.05 63.05 0 0 0 71.04 15.2 Z
			M 72.16 136.96 A 59.83 59.83 0 0 0 71.52 18.56 C 71.68 21.12 71.68 23.68 71.36 25.6 71.2 26.24 71.04 26.88 71.04 27.2 L 72.0 26.4 73.28 28.48 C 74.08 29.6 76.16 30.4 79.04 30.4 80.96 30.4 83.04 30.08 84.32 29.44 L 87.04 28.0 87.2 31.2 C 87.2 32.64 86.56 34.08 86.08 35.2 85.92 35.52 85.76 35.84 85.6 36.16 L 87.2 38.88 83.52 38.72 C 82.56 38.56001 81.6 38.56001 80.64 38.56001 79.84 38.56001 79.2 38.4 78.72 38.4 L 75.04 40.32 C 72.8 41.6 72.96 44.48 72.96 44.64 L 72.96 44.64 C 72.96 44.64 72.96 51.2 72.96 60.16 L 73.6 60.16 L 73.76 60.32 L 74.08 60.32 C 75.36 60.96 77.12 62.56001 77.12 65.12 L 77.28 65.12 L 77.76 65.28 C 77.92 65.44 78.24 65.44 78.56 65.44 79.68 65.6 81.12 65.92 82.4 66.88 83.68 68.0 84.8 71.04 84.32 73.28 84.32 73.6 84.16 73.76 84.16 73.92 84.8 74.56 85.44 75.68 85.44 77.6 85.44 77.76 85.44 77.92 85.44 78.24 85.44 79.52 85.44 80.8 84.32 82.08 84.0 82.4 83.68 82.56 83.36 82.88 83.52 83.68 83.52 84.64 83.2 85.6 82.56 87.52 81.44 88.8 79.84 89.76 79.2 90.08 78.4 90.24 77.76 90.24 L 77.6 90.24 C 77.44 91.68 76.96 93.6 74.56 94.08 74.24 94.24 74.08 94.24 73.92 94.24 73.44 94.4 73.28 94.4 72.8 94.4 72.8 104.32 72.64 115.52 72.64 116.96 72.64 117.44 72.64 118.08 72.64 118.72 72.48 120.96 72.32 125.28 73.12 126.4 L 73.6 126.88 L 73.6 127.52 C 73.6 128.96 72.96 132.64 72.16 136.96 Z
			M 59.52 18.08 C 59.2 20.8 59.2 23.68 59.68 25.6 C 59.68 26.24 59.84 26.88 59.84 27.2 L 58.88 26.4 57.6 28.48 C 56.8 29.6 54.72 30.4 52.0 30.4 50.08 30.4 48.0 30.08 46.72 29.44 L 43.84 28.0 43.68 31.2 C 43.68 32.64 44.32 34.08 44.8 35.2 44.96 35.52 45.12 35.84 45.28 36.16 L 43.84 38.88 47.52 38.72 C 48.32 38.56001 49.28 38.56001 50.4 38.56001 51.04 38.56001 51.68 38.4 52.32 38.4 L 55.84 40.32 C 58.08 41.6 57.92 44.48 57.92 44.64 L 57.92 44.64 C 57.92 44.64 57.92 52.16 58.08 62.08 L 54.72 63.52 C 54.72 63.52 54.08 63.68 51.84 63.68 49.76 63.68 47.84 63.52 47.84 63.52 L 45.6 63.36 L 45.6 64.64 C 44.32 64.0 42.88 63.04 42.08 61.6 L 39.68 58.08 38.4 62.24 C 38.4 62.24 34.88 72.96 25.12 77.28 L 20.64 79.2 25.12 80.96 C 31.36 83.68 34.88 87.2 36.32 92.32 L 36.96 95.2 39.52 93.44 C 41.44 92.0 44.64 90.88 47.04 90.4 L 47.04 92.32 L 49.44 91.84 C 49.44 91.84 51.36 91.52 53.44 91.52 54.72 91.52 55.36 91.68 55.68 91.84 L 58.08 92.8 C 58.24 107.84 58.24 115.84 58.24 116.96 58.24 117.44 58.4 118.08 58.4 118.72 58.4 120.96 58.72 125.28 57.76 126.4 L 57.44 126.88 57.28 127.52 C 57.28 128.96 57.92 132.96 59.04 137.44 A 59.83 59.83 0 0 1 59.52 18.08 Z
		"
	/>
</svg>