<?xml version="1.0" encoding="UTF-8"?>
<svg xmlns="http://www.w3.org/2000/svg" xmlns:xlink="http://www.w3.org/1999/xlink" width="1112.84377pt" height="335.14062pt" viewBox="0 0 1112.84377 335.14062" version="1.2">
<g id="grey_background" fill="rgb(87.059021%,86.824036%,86.882019%)">
	<path d="M 21.0625 334.64062 C 16.92579 334.46875 11.07422 330.60547 6.50391 325.10937 L 6.50391 10.03125 C 11.07422 4.53515 16.92579 0.67578 21.0625 0.5 L 1091.78126 0.5 C 1095.91797 0.67578 1101.76954 4.53515 1106.33985 10.03515 L 1106.33985 325.10937 C 1101.76954 330.60937 1095.91797 334.46875 1091.78126 334.64062 Z"/>
	<path d="M 1103.86329 0.5 C 1104.74219 3.13281 1109.63282 7.1914 1112.33985 7.91406 L 1112.33985 16.63672 C 1109.04297 9.79687 1102.8086 3.32812 1097.02735 0.5 Z"/>
	<path d="M 8.97657 0.5 L 15.81641 0.5 C 10.03516 3.32812 3.80079 9.79687 0.50001 16.63672 L 0.50001 7.91406 C 3.20704 7.1875 8.10157 3.13281 8.97657 0.5"/>
	<path d="M 8.98047 334.64062 C 8.10157 332.01172 3.21094 327.95312 0.50391 327.22656 L 0.50391 318.50781 C 3.80079 325.34765 10.03516 331.8125 15.81641 334.64062 Z"/>
	<path d="M 1103.86719 334.64062 L 1097.02735 334.64062 C 1102.8086 331.8125 1109.04297 325.34765 1112.34376 318.50781 L 1112.34376 327.22656 C 1109.63672 327.95312 1104.74219 332.01172 1103.86719 334.64062"/>
	<path d="M 0.50391 314.49609 L 0.50001 20.64453 C 1.47266 17.58594 3.07032 14.63672 5.00391 11.97265 L 5.00391 323.16797 C 3.07032 320.5039 1.47266 317.55468 0.50391 314.49609"/>
	<path d="M 1112.33985 20.64844 L 1112.33985 314.49609 C 1111.37501 317.55468 1109.77344 320.5039 1107.83985 323.16797 L 1107.83985 11.97656 C 1109.77344 14.64062 1111.37501 17.58984 1112.33985 20.64844"/>
</g>

<g id="white_spaces" fill="white">
	<path d="M 269.00391 23.78906 L 269.00391 6.5 L 63.45704 6.5 L 58.73829 11.21484 L 58.73829 28.5039 L 264.28907 28.5039 Z"/>
	<path d="M 625.58985 23.78906 L 625.58985 6.5 L 598.30079 6.5 L 593.58594 11.21484 L 593.58594 28.5039 L 620.8711 28.5039 Z"/>
	<path d="M 702.38282 23.78906 L 702.38282 6.5 L 663.09376 6.5 L 658.37891 11.21484 L 658.37891 28.5039 L 697.66407 28.5039 Z"/>
	<path d="M 563.96094 23.78906 L 563.96094 6.5 L 486.00391 6.5 L 481.28907 11.21484 L 481.28907 28.5039 L 559.2461 28.5039 Z"/>
	<path d="M 442.2461 23.78906 L 442.2461 6.5 L 315.53126 6.5 L 310.81641 11.21484 L 310.81641 28.5039 L 437.52735 28.5039 Z"/>
</g>

<g id="ability_insets">
	<g id="outer_panes" fill="white">
		<path d="M 7.8086 50.92969 C 10.05469 50.92969 16.41797 45.71875 16.41797 43.40625 L 79.97657 43.40625 C 79.97657 45.71875 86.33985 50.92969 88.58594 50.92969 L 88.58594 125.55859 C 86.33985 125.55859 65.97657 130.77344 65.97657 133.08594 L 30.41797 133.08594 C 30.41797 130.77344 10.05469 125.55859 7.8086 125.55859 Z"/>
		<path d="M 7.8086 148.45703 C 10.05469 148.45703 16.41797 143.24218 16.41797 140.92968 L 79.97657 140.92968 C 79.97657 143.24218 86.33985 148.45703 88.58594 148.45703 L 88.58594 223.08203 C 86.33985 223.08203 65.97657 228.29687 65.97657 230.60937 L 30.41797 230.60937 C 30.41797 228.29687 10.05469 223.08203 7.8086 223.08203 Z"/>
		<path d="M 7.8086 246.14062 C 10.05469 246.14062 16.41797 240.92578 16.41797 238.61328 L 79.97657 238.61328 C 79.97657 240.92578 86.33985 246.14062 88.58594 246.14062 L 88.58594 320.76953 C 86.33985 320.76953 65.97657 325.98437 65.97657 328.29687 L 30.41797 328.29687 C 30.41797 325.98437 10.05469 320.76953 7.8086 320.76953 Z"/>
		<path d="M 95.63282 50.92969 C 97.88282 50.92969 104.2461 45.71875 104.2461 43.40625 L 167.80079 43.40625 C 167.80079 45.71875 174.16407 50.92969 176.41407 50.92969 L 176.41407 125.55859 C 174.16407 125.55859 153.80079 130.77344 153.80079 133.08594 L 118.2461 133.08594 C 118.2461 130.77344 97.88282 125.55859 95.63282 125.55859 Z"/>
		<path d="M 95.63282 148.45312 C 97.88282 148.45312 104.2461 143.24218 104.2461 140.92968 L 167.80079 140.92968 C 167.80079 143.24218 174.16407 148.45312 176.41407 148.45312 L 176.41407 223.08203 C 174.16407 223.08203 153.80079 228.29687 153.80079 230.60937 L 118.2461 230.60937 C 118.2461 228.29687 97.88282 223.08203 95.63282 223.08203 Z"/>
		<path d="M 95.63282 246.14062 C 97.88282 246.14062 104.2461 240.92578 104.2461 238.61328 L 167.80079 238.61328 C 167.80079 240.92578 174.16407 246.14062 176.41407 246.14062 L 176.41407 320.76953 C 174.16407 320.76953 153.80079 325.98437 153.80079 328.29687 L 118.2461 328.29687 C 118.2461 325.98437 97.88282 320.76953 95.63282 320.76953 Z"/>
	</g>

	<g id="gray_arcs" fill="rgb(87.059021%,86.824036%,86.882019%)">
		<path d="M 88.30079 124.74609 C 83.39844 124.74609 79.31641 120.93359 75.0 116.90234 C 68.80079 111.11328 61.10157 103.91797 48.19922 103.91797 C 20.24219 103.91797 10.78907 122.72265 10.69532 122.91406 L 9.14844 126.17187 L 7.08204 121.19922 C 7.1836 120.98437 17.45704 99.91797 48.19922 99.91797 C 62.67579 99.91797 71.01563 107.70703 77.71485 113.96875 C 81.61719 117.60937 84.97657 120.74609 88.30079 120.74609 Z"/>
		<path d="M 88.30079 222.26953 C 83.39844 222.26953 79.31641 218.46094 75.0 214.42578 C 68.80079 208.63672 61.10157 201.44531 48.19922 201.44531 C 20.24219 201.44531 10.78907 220.24609 10.69532 220.4375 L 9.14844 223.69531 L 7.08204 218.72265 C 7.1836 218.50781 17.45704 197.44531 48.19922 197.44531 C 62.67579 197.44531 71.01563 205.23047 77.71485 211.49218 C 81.61719 215.13281 84.97657 218.26953 88.30079 218.26953 Z"/>
		<path d="M 88.30079 319.95703 C 83.39844 319.95703 79.31641 316.14453 75.0 312.10937 C 68.80079 306.32031 61.10157 299.1289 48.19922 299.1289 C 20.24219 299.1289 10.78907 317.93359 10.69532 318.125 L 9.14844 321.38281 L 7.08204 316.41015 C 7.1836 316.19531 17.45704 295.1289 48.19922 295.1289 C 62.67579 295.1289 71.01563 302.91797 77.71485 309.17578 C 81.61719 312.82031 84.97657 315.95703 88.30079 315.95703 Z"/>
		<path d="M 176.125 124.74609 C 171.22657 124.74609 167.14454 120.93359 162.82422 116.90234 C 156.625 111.11328 148.92579 103.91797 136.02344 103.91797 C 108.06641 103.91797 98.61329 122.72265 98.52344 122.91406 L 96.97657 126.17187 L 94.90626 121.19922 C 95.00782 120.98437 105.28516 99.91797 136.02344 99.91797 C 150.50391 99.91797 158.84375 107.70703 165.54297 113.96875 C 169.44532 117.60937 172.80079 120.74609 176.125 120.74609 Z"/>
		<path d="M 176.125 222.26953 C 171.22657 222.26953 167.14454 218.46094 162.82422 214.42578 C 156.625 208.63672 148.92579 201.4414 136.02344 201.4414 C 108.06641 201.4414 98.61329 220.24609 98.52344 220.4375 L 96.97657 223.69531 L 94.90626 218.72265 C 95.00782 218.50781 105.28516 197.4414 136.02344 197.4414 C 150.50391 197.4414 158.84375 205.23047 165.54297 211.49218 C 169.44532 215.13281 172.80079 218.26953 176.125 218.26953 Z"/>
		<path d="M 176.125 319.95703 C 171.22657 319.95703 167.14454 316.14453 162.82422 312.10937 C 156.625 306.32031 148.92579 299.1289 136.02344 299.1289 C 108.06641 299.1289 98.61329 317.93359 98.52344 318.125 L 96.97657 321.38281 L 94.90626 316.41015 C 95.00782 316.19531 105.28516 295.1289 136.02344 295.1289 C 150.50391 295.1289 158.84375 302.91797 165.54297 309.17578 C 169.44532 312.82031 172.80079 315.95703 176.125 315.95703 Z"/>
	</g>

	<g id="thick_contours" fill="none" stroke-width="2.4" stroke-miterlimit="10" stroke="rgb(4.017639%,3.95813%,4.968262%)">
		<path d="M 88.58985 119.53906 C 79.08594 119.97656 71.60938 98.71875 48.19532 98.71875 C 17.60157 98.71875 7.8086 119.53906 7.8086 119.53906"/>
		<path d="M 7.8086 50.92968 C 10.05469 50.92968 16.41797 45.71875 16.41797 43.40625 L 79.97657 43.40625 C 79.97657 45.71875 86.33985 50.92968 88.58594 50.92968 L 88.58594 125.55859 C 86.33985 125.55859 65.97657 130.77343 65.97657 133.08593 L 30.41797 133.08593 C 30.41797 130.77343 10.05469 125.55859 7.8086 125.55859 Z"/>

		<path d="M 88.58985 217.0625 C 79.08594 217.5 71.60938 196.24609 48.19532 196.24609 C 17.60157 196.24609 7.8086 217.0625 7.8086 217.0625"/>
		<path d="M 7.8086 148.45703 C 10.05469 148.45703 16.41797 143.24218 16.41797 140.92968 L 79.97657 140.92968 C 79.97657 143.24218 86.33985 148.45703 88.58594 148.45703 L 88.58594 223.08203 C 86.33985 223.08203 65.97657 228.29687 65.97657 230.60937 L 30.41797 230.60937 C 30.41797 228.29687 10.05469 223.08203 7.8086 223.08203 Z"/>

		<path d="M 88.58985 314.74609 C 79.08594 315.1875 71.60938 293.92968 48.19532 293.92968 C 17.60157 293.92968 7.8086 314.74609 7.8086 314.74609"/>
		<path d="M 7.8086 246.14062 C 10.05469 246.14062 16.41797 240.92578 16.41797 238.61328 L 79.97657 238.61328 C 79.97657 240.92578 86.33985 246.14062 88.58594 246.14062 L 88.58594 320.76953 C 86.33985 320.76953 65.97657 325.98437 65.97657 328.29687 L 30.41797 328.29687 C 30.41797 325.98437 10.05469 320.76953 7.8086 320.76953 Z"/>

		<path d="M 176.41407 119.53906 C 166.91407 119.97656 159.4336 98.71875 136.02344 98.71875 C 105.42969 98.71875 95.63282 119.53906 95.63282 119.53906"/>
		<path d="M 95.63282 50.92968 C 97.88282 50.92968 104.2461 45.71875 104.2461 43.40625 L 167.80079 43.40625 C 167.80079 45.71875 174.16407 50.92968 176.41407 50.92968 L 176.41407 125.55859 C 174.16407 125.55859 153.80079 130.77343 153.80079 133.08593 L 118.2461 133.08593 C 118.2461 130.77343 97.88282 125.55859 95.63282 125.55859 Z"/>

		<path d="M 176.41407 217.0625 C 166.91407 217.5 159.4336 196.24219 136.02344 196.24219 C 105.42969 196.24219 95.63282 217.0625 95.63282 217.0625"/>
		<path d="M 95.63282 148.45312 C 97.88282 148.45312 104.2461 143.24219 104.2461 140.92969 L 167.80079 140.92969 C 167.80079 143.24219 174.16407 148.45312 176.41407 148.45312 L 176.41407 223.08203 C 174.16407 223.08203 153.80079 228.29687 153.80079 230.60937 L 118.2461 230.60937 C 118.2461 228.29687 97.88282 223.08203 95.63282 223.08203 Z"/>

		<path d="M 176.41407 314.74609 C 166.91407 315.1875 159.4336 293.92968 136.02344 293.92968 C 105.42969 293.92968 95.63282 314.74609 95.63282 314.74609"/>
		<path d="M 95.63282 246.14062 C 97.88282 246.14062 104.2461 240.92578 104.2461 238.61328 L 167.80079 238.61328 C 167.80079 240.92578 174.16407 246.14062 176.41407 246.14062 L 176.41407 320.76953 C 174.16407 320.76953 153.80079 325.98437 153.80079 328.29687 L 118.2461 328.29687 C 118.2461 325.98437 97.88282 320.76953 95.63282 320.76953 Z"/>
	</g>

	<g id="corner_arcs" fill="none" stroke-width="1.5" stroke="rgb(4.017639%,3.95813%,4.968262%)" stroke-miterlimit="10">
		<path d="M 88.58594 64.17187 C 85.32422 53.71875 74.39063 43.70312 67.3086 43.40625"/>
		<path d="M 7.8086 64.17187 C 11.07032 53.71875 22.00391 43.70312 29.08594 43.40625"/>

		<path d="M 88.58594 161.69922 C 85.32422 151.24218 74.39063 141.22656 67.3086 140.92968"/>
		<path d="M 7.8086 161.69922 C 11.07032 151.24218 22.00391 141.22656 29.08594 140.92968"/>

		<path d="M 88.58594 259.38281 C 85.32422 248.92968 74.39063 238.91406 67.3086 238.61328"/>
		<path d="M 7.8086 259.38281 C 11.07032 248.92968 22.00391 238.91406 29.08594 238.61328"/>

		<path d="M 176.41407 64.17187 C 173.14844 53.71875 162.21876 43.70312 155.13672 43.40625"/>
		<path d="M 95.63282 64.17187 C 98.89844 53.71875 109.82813 43.70312 116.91016 43.40625"/>

		<path d="M 176.41407 161.69531 C 173.14844 151.24218 162.21876 141.22656 155.13672 140.92968"/>
		<path d="M 95.63282 161.69531 C 98.89844 151.24218 109.82813 141.22656 116.91016 140.92968"/>

		<path d="M 176.41407 259.38281 C 173.14844 248.92968 162.21876 238.91406 155.13672 238.61328"/>
		<path d="M 95.63282 259.38281 C 98.89844 248.92968 109.82813 238.91406 116.91016 238.61328"/>
	</g>

	<g id="side_lines" fill="none" stroke="rgb(4.017639%,3.95813%,4.968262%)" stroke-miterlimit="10">
		<path d="M 11.8086 55.9375 L 11.8086 55.69531 C 11.8086 114.62109 8.33594 105.90234 7.85938 125.55078"/>
		<path d="M 84.58594 55.9375 L 84.58594 55.69531 C 84.58594 114.63672 88.06251 105.89843 88.53516 125.5664"/>

		<path d="M 11.8086 153.46093 L 11.8086 153.21875 C 11.8086 212.14453 8.33594 203.42578 7.85938 223.07812"/>
		<path d="M 84.58594 153.46093 L 84.58594 153.21875 C 84.58594 212.16406 88.06251 203.42187 88.53516 223.09375"/>

		<path d="M 11.8086 251.14844 L 11.8086 250.90625 C 11.8086 309.83203 8.33594 301.11328 7.85938 320.76172"/>
		<path d="M 84.58594 251.14844 L 84.58594 250.90625 C 84.58594 309.84765 88.06251 301.10937 88.53516 320.77734"/>

		<path d="M 99.63282 55.9375 L 99.63282 55.69531 C 99.63282 114.62109 96.16016 105.90234 95.6836 125.55078"/>
		<path d="M 172.41407 55.9375 L 172.41407 55.69531 C 172.41407 114.63672 175.88672 105.89843 176.36329 125.5664"/>

		<path d="M 99.63282 153.46094 L 99.63282 153.21875 C 99.63282 212.14453 96.16016 203.42578 95.6836 223.07422"/>
		<path d="M 172.41407 153.46094 L 172.41407 153.21875 C 172.41407 212.16015 175.88672 203.42187 176.36329 223.08984"/>

		<path d="M 99.63282 251.14844 L 99.63282 250.90625 C 99.63282 309.83203 96.16016 301.11328 95.6836 320.76172"/>
		<path d="M 172.41407 251.14844 L 172.41407 250.90625 C 172.41407 309.84765 175.88672 301.10937 176.36329 320.77734"/>
	</g>
</g>

<g id="proficiency_inset">
	<path fill="white" d="M 183.35157 73.60937 C 199.04688 59.27344 199.78516 35.05078 199.84766 34.76953 L 200.16016 33.07812 L 201.5625 34.40234 C 203.38282 36.11719 207.55079 37.42187 210.64844 38.40234 C 211.19141 36.17578 211.46094 33.33594 211.47266 33.27344 L 211.78516 31.58594 L 213.19922 32.91015 C 218.75782 38.15625 229.51954 40.85937 238.55079 41.1875 L 238.42579 41.1875 C 247.45313 40.85937 258.6875 37.95703 264.26172 32.71484 L 265.67969 31.38672 L 265.99219 33.07812 C 265.99219 33.13672 266.25391 35.98047 266.81641 38.20703 C 269.91016 37.22265 274.08204 35.92187 275.88672 34.20703 L 277.30469 32.88281 L 277.61719 34.57031 C 277.67969 34.85547 279.4375 59.27344 295.11329 73.60937 L 295.62891 74.07812 L 295.11329 74.54687 C 279.4375 88.88281 277.67969 113.30078 277.61719 113.58594 L 277.30469 115.27344 L 275.88672 113.94531 C 274.08204 112.23437 269.91016 110.93359 266.81641 109.94531 C 266.25391 112.17578 265.99219 115.01953 265.99219 115.07812 L 265.67969 116.76562 L 264.26172 115.4414 C 258.6875 110.19922 247.45313 107.29687 238.42579 106.96484 L 238.55079 106.96484 C 229.51954 107.29687 218.75782 110.39453 213.19922 115.63672 L 211.78516 116.96094 L 211.47266 115.27344 C 211.46094 115.21484 211.19141 112.37109 210.64844 110.14453 C 207.55079 111.1289 203.38282 112.42968 201.5625 114.14453 L 200.16016 115.46875 L 199.84766 113.78125 C 199.78516 113.5 199.04688 88.88281 183.35157 74.54687 L 182.83985 74.07812 Z"/>
	<path fill="rgb(4.017639%,3.95813%,4.968262%)" d="M 277.0586 110.89062 C 277.85157 107.49609 277.71094 102.41015 280.53126 95.46484 C 283.35938 88.52344 286.67188 83.9414 291.64844 77.3125 C 293.71485 74.04687 293.71485 74.04687 291.64844 71.13281 C 280.66407 58.69531 278.64063 43.97265 277.0586 37.1914 C 273.13672 48.27734 279.05079 58.82031 281.375 62.09765 L 282.16797 60.68359 L 282.16797 68.375 C 283.89063 70.66406 285.78516 71.66797 287.84766 73.57812 L 288.35938 74.04687 L 287.84766 74.51953 C 285.78516 76.42969 283.89063 77.4375 282.16797 79.72265 L 282.16797 87.41406 L 281.375 85.98828 C 279.05079 89.26562 273.13672 99.82031 277.0586 110.89062 M 265.15235 37.61328 C 264.92188 36.62109 264.71876 34.27344 264.57813 33.625 C 261.70704 35.71094 257.66016 38.63672 253.23829 39.61719 C 257.25782 39.24219 261.42969 38.625 265.15235 37.61328 M 272.96876 37.52734 C 271.82032 38.04687 269.07813 38.50781 267.77344 38.91797 C 269.5586 45.66406 273.45313 55.52734 280.35547 65.64453 L 280.35547 62.91797 C 279.76563 62.15234 277.00782 58.41406 274.94141 53.28515 C 274.92579 53.22265 273.01563 46.875 272.96876 37.52734 M 267.77344 109.17968 C 269.07813 109.58984 271.82032 110.05078 272.96876 110.57031 C 273.01563 101.20703 274.92579 94.85937 274.94141 94.8125 C 277.00782 89.67187 279.76563 85.94531 280.35547 85.16797 L 280.35547 82.45312 C 273.45313 92.57031 269.5586 102.43359 267.77344 109.17968 M 265.15235 110.48437 C 261.42969 109.46875 257.25782 108.85547 253.23829 108.48047 C 257.66016 109.45703 261.70704 112.38672 264.57813 114.47265 C 264.71876 113.82422 264.92188 111.47265 265.15235 110.48437 M 212.53516 110.48437 C 212.78516 111.47265 212.98438 113.82422 213.125 114.47265 C 215.9961 112.38672 220.04297 109.45703 224.46485 108.48047 C 220.44922 108.85547 216.26172 109.46875 212.53516 110.48437 M 224.44922 39.61719 C 220.03126 38.63672 215.9961 35.71094 213.125 33.625 C 212.98438 34.27344 212.78516 36.62109 212.53516 37.61328 C 216.26172 38.625 220.44922 39.24219 224.44922 39.61719 M 181.75 73.55859 C 198.0 58.58984 198.86329 33.08594 198.92969 32.78906 L 199.25 31.02734 L 200.69922 32.41406 C 202.58594 34.19922 206.90235 35.5625 210.11329 36.58984 C 210.67579 34.26172 210.94922 31.29297 210.96485 31.23047 L 211.28907 29.46484 L 212.75391 30.85156 C 218.51172 36.32812 229.55469 39.35937 238.90626 39.69922 L 238.77735 39.69922 C 248.125 39.35937 259.16016 36.32812 264.92969 30.85156 L 266.39844 29.46484 L 266.71876 31.23047 C 266.71876 31.29297 266.99219 34.26172 267.57422 36.58984 C 270.78126 35.5625 275.09766 34.19922 276.96485 32.41406 L 278.4336 31.02734 L 278.75782 32.78906 C 278.82422 33.08594 281.2461 58.58984 297.47657 73.55859 L 298.00782 74.04687 L 297.47657 74.53515 C 281.2461 89.51172 278.82422 115.01172 278.75782 115.30468 L 278.4336 117.07031 L 276.96485 115.68359 C 275.09766 113.89453 270.78126 112.53515 267.57422 111.50781 C 266.99219 113.83594 266.71876 116.80468 266.71876 116.86328 L 266.39844 118.6289 L 264.92969 117.24609 C 259.16016 111.76953 248.125 108.73828 238.77735 108.39453 L 238.90626 108.39453 C 229.55469 108.73828 218.51172 111.76953 212.75391 117.24609 L 211.28907 118.6289 L 210.96485 116.86328 C 210.94922 116.80468 210.67579 113.83594 210.11329 111.50781 C 206.90235 112.53515 202.58594 113.89453 200.69922 115.68359 L 199.25 117.07031 L 198.92969 115.30468 C 198.86329 115.01172 198.0 89.51172 181.75 74.53515 L 181.21876 74.04687 Z M 192.80079 74.04687 C 204.33204 85.01562 210.14063 99.17187 212.46876 108.03906 C 224.0 104.96484 236.09766 105.03125 238.63672 105.13672 L 238.60938 105.13672 C 241.14844 105.03125 253.2461 104.96484 264.77735 108.03906 C 267.10157 99.17187 272.91407 85.01562 284.42969 74.04687 C 272.91407 63.08203 267.10157 48.92578 264.77735 40.05469 C 253.2461 43.13281 241.14844 43.0625 238.60938 42.94531 L 238.63672 42.94531 C 236.09766 43.0625 224.0 43.13281 212.46876 40.05469 C 210.14063 48.92578 204.33204 63.08203 192.80079 74.04687 M 196.33204 62.09765 C 198.67579 58.82031 204.58985 48.27734 200.66407 37.1914 C 199.08204 43.97265 198.5586 58.69531 187.57813 71.13281 C 185.4961 74.04687 185.4961 74.04687 187.5586 76.94922 C 198.54297 89.375 199.08204 104.11328 200.66407 110.89062 C 204.58985 99.82031 198.67579 89.26562 196.33204 85.98828 L 195.55469 87.41406 L 195.55469 79.72265 C 193.83594 77.4375 191.94141 76.42969 189.87891 74.51953 L 189.36719 74.04687 L 189.87891 73.57812 C 191.94141 71.66797 193.83594 70.66406 195.55469 68.375 L 195.55469 60.68359 Z M 197.35157 85.16797 C 197.94141 85.94531 200.69922 89.67187 202.7461 94.80078 C 202.7461 94.80078 204.69141 101.17187 204.72266 110.57031 C 205.88282 110.05078 208.625 109.58984 209.92969 109.17968 C 208.14454 102.43359 204.25391 92.57031 197.35157 82.45312 Z M 197.35157 65.64453 C 204.25391 55.52734 208.14454 45.66406 209.92969 38.91797 C 208.625 38.50781 205.88282 38.04687 204.72266 37.52734 C 204.70313 42.21875 204.81641 46.45703 203.94532 49.50781 C 203.07813 52.5625 197.94141 62.15234 197.35157 62.91797 Z"/>
</g>

<g id="ac_inset">
	<path fill="white" d="M 339.86329 33.46875 C 339.86329 33.46875 354.71485 33.46875 366.19532 41.33203 C 366.19532 41.33203 365.19532 52.6875 376.55079 57.17969 C 376.55079 57.17969 380.10938 105.46875 339.86329 117.32422 C 299.6211 105.46875 303.17579 57.17969 303.17579 57.17969 C 314.53126 52.6875 313.53516 41.33203 313.53516 41.33203 C 325.01172 33.46875 339.86329 33.46875 339.86329 33.46875"/>
	<g fill="none" stroke="rgb(4.017639%,3.95813%,4.968262%)" stroke-miterlimit="10">
		<path stroke-width="3.0" d="M 339.86329 33.46875 C 339.86329 33.46875 354.71485 33.46875 366.19532 41.33203 C 366.19532 41.33203 365.19532 52.6875 376.55079 57.17968 C 376.55079 57.17968 380.10938 105.46875 339.86329 117.32422 C 299.6211 105.46875 303.17579 57.17968 303.17579 57.17968 C 314.53125 52.6875 313.53516 41.33203 313.53516 41.33203 C 325.01172 33.46875 339.86329 33.46875 339.86329 33.46875 Z"/>
		<path stroke-width="1.5" d="M 339.8086 38.95703 C 339.8086 38.95703 352.71875 38.95703 362.70313 45.79687 C 362.70313 45.79687 361.83594 55.66797 371.70704 59.57422 C 371.70704 59.57422 374.80079 101.5664 339.8086 111.87109 C 304.81641 101.5664 307.91016 59.57422 307.91016 59.57422 C 317.78125 55.66797 316.91407 45.79687 316.91407 45.79687 C 326.89454 38.95703 339.8086 38.95703 339.8086 38.95703 Z"/>
	</g>
</g>

<g id="initiative_inset" fill="none" stroke="rgb(4.017639%,3.95813%,4.968262%)" stroke-miterlimit="10">
	<path fill="white" stroke-width="2.4" d="M 384.85547 109.79687 C 387.10157 109.79687 393.46485 115.01172 393.46485 117.32422 L 456.56641 117.32422 C 456.56641 115.01172 462.9336 109.79687 465.17969 109.79687 L 465.17969 42.19531 C 462.92969 42.19531 456.56641 36.98047 456.56641 34.66797 L 393.46485 34.66797 C 393.46485 36.98047 387.10157 42.19531 384.85157 42.19531 Z"/>
	<g stroke-width="1.5">
		<path d="M 465.17969 96.55468 C 461.91407 107.01172 450.98438 117.02734 443.90235 117.32422"/>
		<path d="M 384.85547 96.55468 C 388.11719 107.01172 399.05079 117.02734 406.13282 117.32422"/>
		<path d="M 465.17969 55.4375 C 461.91407 44.98437 450.98047 34.96875 443.89844 34.66797"/>
		<path d="M 384.85157 55.4375 C 388.11719 44.98437 399.05079 34.96875 406.13282 34.66797"/>
	</g>
	<path d="M 390.85547 44.71484 L 390.85547 107.27734"/>
	<path d="M 459.17969 44.71484 L 459.17969 107.27734"/>
</g>

<g id="speed_inset" fill="none" stroke="rgb(4.017639%,3.95813%,4.968262%)" stroke-miterlimit="10">
	<path fill="white" stroke-width="2.4" d="M 473.73438 109.79687 C 475.98438 109.79687 482.34766 115.01172 482.34766 117.32422 L 543.44532 117.32422 C 543.44532 115.01172 549.81251 109.79687 552.0586 109.79687 L 552.0586 42.19531 C 549.81251 42.19531 543.44532 36.98047 543.44532 34.66797 L 482.34766 34.66797 C 482.34766 36.98047 475.98047 42.19531 473.73438 42.19531 Z"/>
	<g stroke-width="1.5">
		<path d="M 552.0586 96.55468 C 548.79688 107.01172 537.86329 117.02734 530.78125 117.32422"/>
		<path d="M 473.73438 96.55468 C 477.00001 107.01172 487.92969 117.02734 495.01172 117.32422"/>
		<path d="M 552.0586 55.4375 C 548.79297 44.98437 537.86329 34.96875 530.78126 34.66797"/>
		<path d="M 473.73438 55.4375 C 476.9961 44.98437 487.92969 34.96875 495.01172 34.66797"/>
	</g>
	<path d="M 479.73438 44.71484 L 479.73438 107.27734"/>
	<path d="M 546.0586 44.71484 L 546.0586 107.27734"/>
</g>

<g id="hp_inset" fill="none" stroke="rgb(4.017639%,3.95813%,4.968262%)" stroke-miterlimit="10">
	<path fill="white" stroke-width="2.4" d="M 560.46094 109.79687 C 562.70704 109.79687 569.07422 115.01172 569.07422 117.32422 L 689.51954 117.32422 C 689.51954 115.01172 695.88282 109.79687 698.13282 109.79687 L 698.12891 42.19531 C 695.88282 42.19531 689.51954 36.98047 689.51954 34.66797 L 569.07422 34.66797 C 569.07422 36.98047 562.70704 42.19531 560.45704 42.19531 Z"/>
	<g stroke-width="1.5">
		<path d="M 698.13282 96.55468 C 694.86719 107.01172 683.93751 117.02734 676.85547 117.32422"/>
		<path d="M 560.46094 96.55468 C 563.72657 107.01172 574.65625 117.02734 581.73829 117.32422"/>
		<path d="M 698.13282 55.4375 C 694.86719 44.98437 683.9336 34.96875 676.85157 34.66797"/>
		<path d="M 560.46094 55.4375 C 563.72266 44.98437 574.65625 34.96875 581.73829 34.66797"/>
	</g>
	<path d="M 566.46094 44.71484 L 566.46094 107.27734"/>
	<path d="M 692.13282 44.71484 L 692.13282 107.27734"/>
</g>

<g id="traits" fill="none" stroke-miterlimit="10">
	<g stroke="rgb(4.017639%,3.95813%,4.968262%)">
		<path fill="white" stroke-width="2.4" d="M 187.21876 321.92578 C 189.46876 321.92578 195.83204 327.14062 195.83204 329.45312 L 543.29688 329.45312 C 543.29688 327.14062 549.66016 321.92578 551.91016 321.92578 L 551.90626 133.36328 C 549.66016 133.36328 543.29688 128.14843 543.29688 125.83593 L 195.83204 125.83593 C 195.83204 128.14843 189.46485 133.36328 187.21876 133.36328 Z"/>
		<g stroke-width="1.5">
			<path d="M 551.91016 308.68359 C 548.64454 319.14062 537.71485 329.15625 530.63282 329.45312"/>
			<path d="M 187.21876 308.68359 C 190.48438 319.14062 201.41407 329.15625 208.4961 329.45312"/>
			<path d="M 551.90626 146.60547 C 548.64454 136.14843 537.71094 126.13281 530.62891 125.83593"/>
			<path d="M 187.21876 146.60547 C 190.48047 136.14843 201.41407 126.13281 208.4961 125.83593"/>
		</g>
		<path d="M 191.21876 138.55078 L 191.21876 317.00781"/>
		<path d="M 547.90626 138.67578 L 547.90626 316.73828"/>
	</g>
	<g stroke="rgb(69.805908%,69.256592%,69.392395%)">
		<path d="M 192.45704 148.63672 L 546.63672 148.63672"/>
		<path d="M 192.45704 170.64062 L 546.63672 170.64062"/>
		<path d="M 192.45704 192.64062 L 546.63672 192.64062"/>
		<path d="M 192.45704 214.64453 L 546.63672 214.64453"/>
		<path d="M 192.45704 236.64453 L 546.63672 236.64453"/>
		<path d="M 192.45704 258.64844 L 546.63672 258.64844"/>
		<path d="M 192.45704 280.64844 L 546.63672 280.64844"/>
		<path d="M 192.45704 302.65234 L 546.63672 302.65234"/>
	</g>
</g>

<g id="passive_perception_inset" fill="none" stroke="rgb(4.017639%,3.95813%,4.968262%)" stroke-miterlimit="10">
	<path fill="white" stroke-width="2.4" d="M 589.08985 169.36718 L 693.66016 169.36718 C 693.66016 168.55468 696.62891 164.89843 698.13282 164.89843 L 698.13282 130.30859 C 696.62891 130.30859 693.66016 126.64843 693.66016 125.83593 L 564.89844 125.83593 C 564.89844 126.64843 561.9336 130.30859 560.42969 130.30859 L 560.42969 164.89843 C 561.9336 164.89843 564.89844 168.55468 564.89844 169.36718 Z"/>
	<g stroke-width="1.5">
		<path d="M 560.42969 140.78515 C 560.42969 134.63281 569.51563 125.83593 575.90235 125.83593"/>
		<path d="M 560.42969 154.41797 C 560.42969 160.57031 569.51563 169.36718 575.90235 169.36718"/>
		<path d="M 698.13282 140.78515 C 698.13282 134.63281 689.04688 125.83593 682.66016 125.83593"/>
		<path d="M 698.13282 154.41797 C 698.13282 160.57031 689.04688 169.36718 682.66016 169.36718"/>
	</g>
	<path fill="rgb(87.059021%,86.824036%,86.882019%)" stroke="none" d="M 612.59376 165.91797 L 613.23047 164.71875 C 619.1836 153.32812 619.1836 141.85937 613.23047 130.47265 L 612.65235 129.28125 L 617.23829 129.53906 C 623.14063 141.66406 623.13282 153.58203 617.21876 165.69531 Z"/>
	<path stroke-width="1.5" d="M 617.00391 129.54297 C 623.22266 141.4414 623.22266 153.74609 617.00391 165.64453"/>
	<path d="M 590.41407 125.83594 C 612.00001 125.83594 597.96094 129.55078 621.42188 129.83593 L 691.4961 129.83593"/>
	<path d="M 590.41407 169.36718 C 612.00001 169.36718 597.96094 165.65234 621.42188 165.36718 L 691.4961 165.36718"/>
	<path d="M 621.00391 129.54297 C 627.22266 141.4414 627.22266 153.74609 621.00391 165.64453"/>
</g>

<g id="skills_inset" stroke-miterlimit="10">
	<path fill="white" stroke="rgb(4.017639%,3.95813%,4.968262%)" stroke-width="2.4" d="M 710.90626 161.83984 C 713.15625 161.83984 719.51954 167.05468 719.51954 169.36718 L 1092.09375 169.36718 C 1092.09375 167.05468 1098.46094 161.83984 1100.70704 161.83984 L 1100.70704 13.22656 C 1098.45704 13.22656 1092.09375 8.01172 1092.09375 5.69922 L 719.51954 5.69922 C 719.51954 8.01172 713.15235 13.22656 710.90626 13.22656 Z M 710.90626 161.83984"/>
	<g fill="none" stroke="rgb(4.017639%,3.95813%,4.968262%)">
		<g stroke-width="1.5">
			<path d="M 1100.70704 148.59765 C 1097.44141 159.05078 1086.51172 169.07031 1079.42579 169.36718"/>
			<path d="M 710.90626 148.59765 C 714.17188 159.05078 725.10547 169.07031 732.1875 169.36718"/>
			<path d="M 1100.70704 26.46875 C 1097.44141 16.01562 1086.50782 6.0 1079.42579 5.70312"/>
			<path d="M 710.90626 26.46875 C 714.17188 16.01562 725.10157 6.0 732.1836 5.70312"/>
		</g>
		<path d="M 716.90626 15.74609 L 716.90626 159.32031"/>
		<path d="M 1094.70704 15.74609 L 1094.70704 159.32031"/>
	</g>
</g>

<g id="attacks_inset" fill="none" stroke="rgb(4.017639%,3.95813%,4.968262%)" stroke-miterlimit="10">
	<path fill="white" stroke-width="2.4" d="M 560.42969 321.92578 C 562.67969 321.92578 569.04297 327.14062 569.04297 329.45312 L 1092.09375 329.45312 C 1092.09375 327.14062 1098.45704 321.92578 1100.70704 321.92578 L 1100.70313 185.29297 C 1098.45704 185.29297 1092.09375 180.07812 1092.09375 177.76562 L 569.04297 177.76562 C 569.04297 180.07812 562.67579 185.29297 560.42969 185.29297 Z"/>
	<g stroke-width="1.5">
		<path d="M 1100.70704 308.68359 C 1097.44141 319.14062 1086.51172 329.15625 1079.42579 329.45312"/>
		<path d="M 560.42969 308.68359 C 563.69532 319.14062 574.625 329.15625 581.70704 329.45312"/>
		<path d="M 1100.70704 198.53515 C 1097.44141 188.08203 1086.50782 178.0664 1079.42579 177.76953"/>
		<path d="M 560.42969 198.53515 C 563.69532 188.08203 574.625 178.0664 581.70704 177.76953"/>
	</g>
	<path d="M 566.42969 187.8125 L 566.42969 319.40625"/>
	<path d="M 1094.70704 187.8125 L 1094.70704 319.40625"/>
</g>
</svg>
