<?xml version="1.0" encoding="UTF-8"?>
<svg xmlns="http://www.w3.org/2000/svg" xmlns:xlink="http://www.w3.org/1999/xlink" width="123pt" height="906pt" viewBox="0 0 123 906" version="1.2" stroke-miterlimit="10">

<g fill="rgb(87.059021%,86.824036%,86.882019%)">
	<path d="M 1.09766 8.71875 C 3.72656 7.84375 7.78906 2.94922 8.51172 0.24219 L 17.23438 0.24219 C 10.39453 3.53906 3.92578 9.77734 1.09766 15.55859 Z"/>
	<path d="M 121.85156 8.71875 L 121.85156 15.55469 C 119.02344 9.77734 112.55859 3.53906 105.71875 0.24219 L 114.4375 0.24219 C 115.16406 2.94922 119.22266 7.84375 121.85156 8.71875"/>
	<path d="M 1.09766 896.63672 C 3.72656 897.51172 7.78906 902.40625 8.51172 905.11328 L 17.23438 905.11328 C 10.39453 901.81641 3.92578 895.58203 1.09766 889.79688 Z"/>
	<path d="M 121.85156 896.64062 L 121.85156 889.80078 C 119.02344 895.58203 112.55859 901.81641 105.71875 905.11328 L 114.4375 905.11328 C 115.16406 902.41016 119.22266 897.51562 121.85156 896.64062"/>
	<path d="M 1.09766 884.55469 C 1.19141 886.77734 2.375 889.49609 4.28125 892.24609 C 7.71094 888.44141 9.99609 884.75 10.03125 884.69531 L 10.17578 884.45703 L 112.76953 884.45703 L 112.91406 884.69531 C 112.94922 884.75 115.23828 888.44531 118.66797 892.25 C 120.57422 889.49609 121.75781 886.77734 121.85156 884.55469 L 121.85156 20.80469 C 121.75781 18.57812 120.57422 15.85938 118.66797 13.10938 C 115.23828 16.91406 112.94922 20.60547 112.91406 20.66016 L 112.76953 20.89844 L 10.17578 20.89844 L 10.03125 20.66016 C 9.99609 20.60547 7.71094 16.91406 4.28125 13.10938 C 2.375 15.85938 1.19141 18.58203 1.09766 20.80469 Z"/>

	<path d="M 21.24219 0.24219 L 101.70703 0.24219 C 104.76562 1.21094 107.71484 2.8125 110.37891 4.74219 L 12.57031 4.74219 C 15.23438 2.8125 18.1875 1.21094 21.24219 0.24219"/>
	<path d="M 8.00781 16.04688 L 18.76562 16.04688 C 31.16797 11.93359 45.33594 9.71094 59.83203 9.55469 C 60.03906 8.82812 60.67969 8.28906 61.46875 8.28906 C 62.25781 8.28906 62.89844 8.82812 63.10547 9.55469 C 77.60156 9.71094 91.76953 11.93359 104.17188 16.04688 L 114.89062 16.04688 L 114.89062 16.10938 C 115.78516 14.9375 116.85938 13.61328 118.07422 12.28125 C 116.51562 10.19141 114.56641 8.10938 112.32031 6.24219 L 10.62891 6.24219 C 8.38672 8.10938 6.43359 10.19141 4.875 12.28125 C 6.06641 13.59375 7.125 14.89062 8.00781 16.04688"/>
	<path d="M 100.85156 16.04688 C 89.28516 12.57031 76.32812 10.69141 63.09375 10.55078 C 62.87109 11.24219 62.23828 11.75391 61.46875 11.75391 C 60.69922 11.75391 60.07031 11.24219 59.84375 10.55078 C 46.60547 10.69141 33.65234 12.57031 22.08594 16.04688 Z"/>
	<path d="M 10.73047 19.89844 L 112.21484 19.89844 C 112.50391 19.45312 113.19141 18.39844 114.1875 17.04688 L 8.76172 17.04688 C 9.75391 18.39844 10.44531 19.45312 10.73047 19.89844"/>

	<path d="M 10.73047 885.45703 L 112.21484 885.45703 C 112.50391 885.90625 113.19141 886.95703 114.1875 888.3125 L 8.76172 888.3125 C 9.75391 886.95703 10.44531 885.90625 10.73047 885.45703"/>
	<path d="M 100.85156 889.3125 C 89.28516 892.78906 76.32812 894.66406 63.09375 894.80859 C 62.87109 894.11328 62.23828 893.60156 61.46875 893.60156 C 60.69922 893.60156 60.07031 894.11328 59.84375 894.80859 C 46.60547 894.66406 33.65234 892.78906 22.08594 889.3125 Z"/>
	<path d="M 8.00781 889.3125 L 18.76562 889.3125 C 31.16797 893.42188 45.33594 895.64844 59.83203 895.80469 C 60.03906 896.52734 60.67969 897.06641 61.46875 897.06641 C 62.25781 897.06641 62.89844 896.52734 63.10547 895.80469 C 77.60156 895.64844 91.76953 893.42188 104.17188 889.3125 L 114.89062 889.3125 L 114.89062 889.24609 C 115.78516 890.41797 116.85938 891.74219 118.07422 893.07422 C 116.51562 895.16406 114.56641 897.24609 112.32031 899.11328 L 10.62891 899.11328 C 8.38672 897.24609 6.43359 895.16406 4.875 893.07422 C 6.06641 891.76172 7.125 890.46875 8.00781 889.3125"/>
	<path d="M 21.24219 905.11328 L 101.70703 905.11328 C 104.76562 904.14453 107.71484 902.54688 110.37891 900.61328 L 12.57031 900.61328 C 15.23438 902.54688 18.1875 904.14453 21.24219 905.11328"/>
</g>

<g fill="white">
	<path d="M 10.45703 41.01953 C 12.70312 41.01953 19.06641 35.80469 19.06641 33.49609 L 103.875 33.49609 C 103.875 35.80469 110.23828 41.01953 112.48828 41.01953 L 112.48828 147.46094 C 110.23828 147.46094 83.875 152.67578 83.875 154.99219 L 39.06641 154.99219 C 39.06641 152.67578 12.70312 147.46094 10.45703 147.46094 Z"/>
	<path d="M 10.45703 184.9375 C 12.70312 184.9375 19.06641 179.72266 19.06641 177.41406 L 103.875 177.41406 C 103.875 179.72266 110.23828 184.9375 112.48828 184.9375 L 112.48828 291.38281 C 110.23828 291.38281 83.875 296.59375 83.875 298.91016 L 39.06641 298.91016 C 39.06641 296.59375 12.70312 291.38281 10.45703 291.38281 Z"/>
	<path d="M 10.45703 328.85938 C 12.70312 328.85938 19.06641 323.64844 19.06641 321.33594 L 103.875 321.33594 C 103.875 323.64844 110.23828 328.85938 112.48828 328.85938 L 112.48828 435.30078 C 110.23828 435.30078 83.875 440.51562 83.875 442.83203 L 39.06641 442.83203 C 39.06641 440.51562 12.70312 435.30078 10.45703 435.30078 Z"/>
	<path d="M 10.45703 472.77734 C 12.70312 472.77734 19.06641 467.56641 19.06641 465.25391 L 103.875 465.25391 C 103.875 467.56641 110.23828 472.77734 112.48828 472.77734 L 112.48828 579.22266 C 110.23828 579.22266 83.875 584.43359 83.875 586.75 L 39.06641 586.75 C 39.06641 584.43359 12.70312 579.22266 10.45703 579.22266 Z"/>
	<path d="M 10.45703 616.69531 C 12.70312 616.69531 19.06641 611.48438 19.06641 609.17188 L 103.875 609.17188 C 103.875 611.48438 110.23828 616.69531 112.48828 616.69531 L 112.48828 723.13672 C 110.23828 723.13672 83.875 728.35156 83.875 730.66797 L 39.06641 730.66797 C 39.06641 728.35156 12.70312 723.13672 10.45703 723.13672 Z"/>
	<path d="M 10.45703 760.61969 C 12.70312 760.61969 19.06641 755.40484 19.06641 753.09625 L 103.875 753.09625 C 103.875 755.40484 110.23828 760.61969 112.48828 760.61969 L 112.48828 867.065 C 110.23828 867.065 83.875 872.27594 83.875 874.59234 L 39.06641 874.59234 C 39.06641 872.27594 12.70312 867.065 10.45703 867.065 Z"/>
</g>

<g fill="rgb(87.059021%,86.824036%,86.882019%)">
	<path d="M 110.45703 140.44922 C 110.26172 140.26953 90.45703 122.42188 61.47266 122.42188 C 32.48438 122.42188 12.67969 140.26953 12.48438 140.44922 L 10.74219 142.16797 L 10.50781 134.27344 C 16.58594 129.43359 35.35156 116.42188 61.47266 116.42188 C 87.67578 116.42188 106.48438 129.51953 112.49609 134.32422 L 112.43359 142.16797 Z"/>
	<path d="M 110.45703 284.36719 C 110.26172 284.1875 90.45703 266.33984 61.47266 266.33984 C 32.48438 266.33984 12.67969 284.1875 12.48438 284.36719 L 10.74219 286.08594 L 10.50781 278.19141 C 16.58594 273.35156 35.35156 260.33984 61.47266 260.33984 C 87.67578 260.33984 106.48438 273.4375 112.49609 278.24219 L 112.43359 286.08594 Z"/>
	<path d="M 110.45703 428.28906 C 110.26172 428.10938 90.45703 410.26172 61.47266 410.26172 C 32.48438 410.26172 12.67969 428.10938 12.48438 428.28906 L 10.74219 430.00781 L 10.50781 422.11328 C 16.58594 417.27344 35.35156 404.26172 61.47266 404.26172 C 87.67578 404.26172 106.48438 417.35938 112.49609 422.16406 L 112.43359 430.00781 Z"/>
	<path d="M 110.45703 572.21094 C 110.26172 572.02734 90.45703 554.17969 61.47266 554.17969 C 32.48438 554.17969 12.67969 572.02734 12.48438 572.21094 L 10.74219 573.92578 L 10.50781 566.03125 C 16.58594 561.19141 35.35156 548.17969 61.47266 548.17969 C 87.67578 548.17969 106.48438 561.27734 112.49609 566.08203 L 112.43359 573.92578 Z"/>
	<path d="M 110.45703 716.12891 C 110.26172 715.94531 90.45703 698.09766 61.47266 698.09766 C 32.48438 698.09766 12.67969 715.94531 12.48438 716.12891 L 10.74219 717.84375 L 10.50781 709.94922 C 16.58594 705.10938 35.35156 692.09766 61.47266 692.09766 C 87.67578 692.09766 106.48438 705.19531 112.49609 710.0 L 112.43359 717.84375 Z"/>
	<path d="M 110.45703 860.04938 C 110.26172 859.86969 90.45703 842.02203 61.47266 842.02203 C 32.48438 842.02203 12.67969 859.86969 12.48438 860.04938 L 10.74219 861.76812 L 10.50781 853.87359 C 16.58594 849.01375 35.35156 836.02203 61.47266 836.02203 C 87.67578 836.02203 106.48438 849.11969 112.49609 853.92438 L 112.43359 861.76812 Z"/>
</g>

<g fill="none" stroke="rgb(4.017639%,3.95813%,4.968262%)">
	<g stroke-width="2.4">
		<path d="M 112.48828 135.44141 C 112.48828 135.44141 92.06641 116.625 61.47266 116.625 C 30.875 116.625 10.45313 135.44141 10.45313 135.44141"/>
		<path d="M 10.45703 41.01953 C 12.70313 41.01953 19.06641 35.80469 19.06641 33.49609 L 103.875 33.49609 C 103.875 35.80469 110.23828 41.01953 112.48828 41.01953 L 112.48828 147.46094 C 110.23828 147.46094 83.875 152.67578 83.875 154.99219 L 39.06641 154.99219 C 39.06641 152.67578 12.70313 147.46094 10.45703 147.46094 Z"/>
		<path d="M 112.48828 279.35937 C 112.48828 279.35937 92.06641 260.54297 61.47266 260.54297 C 30.875 260.54297 10.45313 279.35937 10.45313 279.35937"/>
		<path d="M 10.45703 184.9375 C 12.70313 184.9375 19.06641 179.72266 19.06641 177.41406 L 103.875 177.41406 C 103.875 179.72266 110.23828 184.9375 112.48828 184.9375 L 112.48828 291.38281 C 110.23828 291.38281 83.875 296.59375 83.875 298.91016 L 39.06641 298.91016 C 39.06641 296.59375 12.70313 291.38281 10.45703 291.38281 Z"/>
		<path d="M 112.48828 423.28125 C 112.48828 423.28125 92.06641 404.46484 61.47266 404.46484 C 30.875 404.46484 10.45313 423.28125 10.45313 423.28125"/>
		<path d="M 10.45703 328.85938 C 12.70313 328.85938 19.06641 323.64844 19.06641 321.33594 L 103.875 321.33594 C 103.875 323.64844 110.23828 328.85938 112.48828 328.85938 L 112.48828 435.30078 C 110.23828 435.30078 83.875 440.51562 83.875 442.83203 L 39.06641 442.83203 C 39.06641 440.51562 12.70313 435.30078 10.45703 435.30078 Z"/>
		<path d="M 112.48828 567.19922 C 112.48828 567.19922 92.06641 548.38281 61.47266 548.38281 C 30.875 548.38281 10.45313 567.19922 10.45313 567.19922"/>
		<path d="M 10.45703 472.77734 C 12.70313 472.77734 19.06641 467.56641 19.06641 465.25391 L 103.875 465.25391 C 103.875 467.56641 110.23828 472.77734 112.48828 472.77734 L 112.48828 579.22266 C 110.23828 579.22266 83.875 584.43359 83.875 586.75 L 39.06641 586.75 C 39.06641 584.43359 12.70313 579.22266 10.45703 579.22266 Z"/>
		<path d="M 112.48828 711.11719 C 112.48828 711.11719 92.06641 692.30078 61.47266 692.30078 C 30.875 692.30078 10.45313 711.11719 10.45313 711.11719"/>
		<path d="M 10.45703 616.69531 C 12.70313 616.69531 19.06641 611.48437 19.06641 609.17187 L 103.875 609.17187 C 103.875 611.48437 110.23828 616.69531 112.48828 616.69531 L 112.48828 723.13672 C 110.23828 723.13672 83.875 728.35156 83.875 730.66797 L 39.06641 730.66797 C 39.06641 728.35156 12.70313 723.13672 10.45703 723.13672 Z"/>
		<path d="M 112.48828 855.03156 C 112.48828 855.03156 92.06641 836.21516 61.47266 836.21516 C 30.875 836.21516 10.45313 855.03156 10.45313 855.03156"/>
		<path d="M 10.45703 760.61969 C 12.70313 760.61969 19.06641 755.40484 19.06641 753.09625 L 103.875 753.09625 C 103.875 755.40484 110.23828 760.61969 112.48828 760.61969 L 112.48828 867.065 C 110.23828 867.065 83.875 872.27594 83.875 874.59234 L 39.06641 874.59234 C 39.06641 872.27594 12.70313 867.065 10.45703 867.065 Z"/>
	</g>

	<g stroke-width="1.5">
		<path d="M 112.48828 54.26172 C 109.22266 43.80859 98.28906 33.79297 91.20703 33.49609"/>
		<path d="M 10.45703 54.26172 C 13.71875 43.80859 24.65234 33.79297 31.73438 33.49609"/>
		<path d="M 112.48828 198.17969 C 109.22266 187.72656 98.28906 177.71094 91.20703 177.41406"/>
		<path d="M 10.45703 198.17969 C 13.71875 187.72656 24.65234 177.71094 31.73438 177.41406"/>
		<path d="M 112.48828 342.10156 C 109.22266 331.64844 98.28906 321.63281 91.20703 321.33594"/>
		<path d="M 10.45703 342.10156 C 13.71875 331.64844 24.65234 321.63281 31.73438 321.33594"/>
		<path d="M 112.48828 486.01953 C 109.22266 475.56641 98.28906 465.55078 91.20703 465.25391"/>
		<path d="M 10.45703 486.01953 C 13.71875 475.56641 24.65234 465.55078 31.73438 465.25391"/>
		<path d="M 112.48828 629.9375 C 109.22266 619.48437 98.28906 609.46875 91.20703 609.17187"/>
		<path d="M 10.45703 629.9375 C 13.71875 619.48437 24.65234 609.46875 31.73438 609.17187"/>
		<path d="M 112.48828 773.85644 C 109.22266 763.40375 98.28906 753.38812 91.20703 753.09125"/>
		<path d="M  10.45703 773.85644 C  13.71875 763.40375 24.65234 753.38812 31.73438 753.09125"/>
	</g>

	<path d="M 14.45703 46.02734 L 14.45703 77.59766 C 14.45703 136.52734 10.98438 127.80469 10.50781 147.45703"/>
	<path d="M 108.48828 46.02734 L 108.48828 77.59766 C 108.48828 136.54297 111.96094 127.80078 112.43359 147.47266"/>

	<path d="M 14.45703 189.94531 L 14.45703 221.51562 C 14.45703 280.44531 10.98438 271.72266 10.50781 291.375"/>
	<path d="M 108.48828 189.94531 L 108.48828 221.51562 C 108.48828 280.46094 111.96094 271.71875 112.43359 291.39062"/>

	<path d="M 14.45703 333.86719 L 14.45703 365.4375 C 14.45703 424.36719 10.98438 415.64453 10.50781 435.29687"/>
	<path d="M 108.48828 333.86719 L 108.48828 365.4375 C 108.48828 424.38281 111.96094 415.64062 112.43359 435.3125"/>

	<path d="M 14.45703 477.78516 L 14.45703 509.35547 C 14.45703 568.28516 10.98438 559.5625 10.50781 579.21484"/>
	<path d="M 108.48828 477.78516 L 108.48828 509.35547 C 108.48828 568.30078 111.96094 559.55859 112.43359 579.23047"/>

	<path d="M 14.45703 621.70312 L 14.45703 653.27734 C 14.45703 712.20312 10.98438 703.48047 10.50781 723.13281"/>
	<path d="M 108.48828 621.70312 L 108.48828 653.27734 C 108.48828 712.21875 111.96094 703.47656 112.43359 723.14844"/>

	<path d="M  14.45703 765.6225 L  14.45703 797.19281 C  14.45703 856.12359  10.98438 847.40084  10.50781 867.05719"/>
	<path d="M 108.48828 765.6225 L 108.48828 797.19281 C 108.48828 856.14312 111.96094 847.40084 112.43359 867.06281"/>
</g>
</svg>
