<?xml version="1.0" encoding="UTF-8"?>
<svg xmlns="http://www.w3.org/2000/svg" xmlns:xlink="http://www.w3.org/1999/xlink" width="367.07968pt" height="186.13048pt" viewBox="0 0 367.07968 186.13048" version="1.2" fill="none" stroke-miterlimit="10">

<g stroke="rgb(4.017639%,3.95813%,4.968262%)">
	<path stroke-width="2.4" d="M 1.2 177.40313 C 3.45 177.40313 9.81328 182.61797 9.81328 184.93047 L 357.2664 184.93047 C 357.2664 182.61797 363.63359 177.40313 365.87968 177.40313 L 365.87968 8.72735 C 363.62968 8.72735 357.2664 3.5125 357.2664 1.2 L 9.81328 1.2 C 9.81328 3.5125 3.44609 8.72735 1.2 8.72735 Z"/>
	<g stroke-width="1.5">
		<path d="M 365.87968 164.16094 C 362.61406 174.61797 351.68437 184.6336 344.60234 184.93047"/>
		<path d="M 1.2 164.16094 C 4.46562 174.61797 15.39531 184.6336 22.47734 184.93047"/>
		<path d="M 365.87968 21.96954 C 362.61406 11.5125 351.68046 1.49688 344.59843 1.2"/>
		<path d="M 1.2 21.96954 C 4.46172 11.5125 15.39531 1.49688 22.47734 1.2"/>
	</g>
	<path d="M 7.2 11.24297 L 7.2 174.8836"/>
	<path d="M 359.87968 11.24297 L 359.87968 174.8836"/>
</g>

<g stroke="rgb(69.805908%,69.256592%,69.392395%)">
	<path d="M 11.7039 26.11797 L 355.37187 26.11797"/>
	<path d="M 11.7039 48.11797 L 355.37187 48.11797"/>
	<path d="M 11.7039 70.12188 L 355.37187 70.12188"/>
	<path d="M 11.7039 92.11797 L 355.37187 92.11797"/>
	<path d="M 11.7039 114.12969 L 355.37187 114.12969"/>
	<path d="M 11.7039 136.12579 L 355.37187 136.12579"/>
	<path d="M 11.7039 158.12579 L 355.37187 158.12579"/>
</g>

</svg>
