<?xml version="1.0" encoding="UTF-8"?>
<svg xmlns="http://www.w3.org/2000/svg" xmlns:xlink="http://www.w3.org/1999/xlink" width="367.07968pt" height="186.13048pt" viewBox="0 0 367.07968 186.13048" version="1.2" stroke-miterlimit="10">
<!--367.07968pt" height="186.13048pt" viewBox="0 0 367.07968 186.13048-->
<g id="inset">
	<g fill="white" stroke-width="2.4" stroke="rgb(4.017639%,3.95813%,4.968262%)">
		<path id="1b" d="M 17.14922 184.97735 C 10.17266 175.45001 1.2 171.09845 1.2 171.09845 L 1.2 15.12187 C 1.2 15.12187 10.17266 10.77031 17.14922 1.24687"/>
		<path id="2b" d="M 349.93047 184.97735 C 356.91093 175.45001 365.87968 171.09845 365.87968 171.09845 L 365.87968 15.12187 C 365.87968 15.12187 356.91093 10.77031 349.93047 1.24687"/>
		<path id="3t" d="M 350.37969 1.2 C 350.37969 3.45 357.90312 9.81328 357.90312 9.81328 L 357.90312 176.3172 C 357.90312 176.3172 350.37969 182.68438 350.37969 184.93048 L 16.70391 184.93048 C 16.70391 182.68438 9.17656 176.3172 9.17656 176.3172 L 9.17656 9.81328 C 9.17656 9.81328 16.70391 3.44609 16.70391 1.2 Z"/>
	</g>

	<g fill="none" stroke-width="1.2" stroke="rgb(4.017639%,3.95813%,4.968262%)">
		<path id="4t" d="M 4.91485 12.89922 L 4.91485 173.41485 M 4.91875 156.26836 C 11.05547 137.79961 14.58281 116.19414 14.58281 93.1043 C 14.58281 70.01446 11.05547 48.40508 4.91875 29.94024"/>
		<path id="5b" d="M 362.16875 173.41485 L 362.16875 12.89922 L 362.16093 29.94024 C 356.02422 48.40508 352.49687 70.01446 352.49687 93.1043 C 352.49687 116.19414 356.02422 137.79961 362.16093 156.26836"/>
	</g>

	<g fill="rgb(4.017639%,3.95813%,4.968262%)">
		<path id="6m" d="M 14.58282 95.67071 C 16.00078 95.67071 17.15313 94.52227 17.15313 93.1043 C 17.15313 91.68633 16.00078 90.53399 14.58282 90.53399 C 13.16485 90.53399 12.01641 91.68633 12.01641 93.1043 C 12.01641 94.52227 13.16485 95.67071 14.58282 95.67071"/>
		<path id="7m" d="M 352.49687 95.67071 C 351.0789 95.67071 349.93047 94.52227 349.93047 93.1043 C 349.93047 91.68633 351.0789 90.53399 352.49687 90.53399 C 353.91484 90.53399 355.06718 91.68633 355.06718 93.1043 C 355.06718 94.52227 353.91484 95.67071 352.49687 95.67071"/>
	</g>
</g>

</svg>
