<?xml version="1.0" encoding="UTF-8"?>
<svg xmlns="http://www.w3.org/2000/svg" xmlns:xlink="http://www.w3.org/1999/xlink" width="709.36486pt" height="226.09142pt" viewBox="0 0 709.36486 226.09142" version="1.2" stroke-miterlimit="10">

<g fill="none" stroke="rgb(4.017639%,3.95813%,4.968262%)">
	<path stroke-width="2.4" d="M 1.2 217.36797 C 3.45 217.36797 9.81328 222.57891 9.81328 224.89141 L 698.77813 224.89141 C 698.77813 222.57891 705.14141 217.36797 707.3875 217.36797 L 708.16485 8.72344 C 705.91875 8.72344 699.55156 3.5086 699.55156 1.2 L 10.59063 1.2 C 10.59063 3.5086 4.22344 8.72344 1.97735 8.72344 Z"/>
	<g stroke-width="1.5">
		<path d="M 707.3875 204.12579 C 704.12578 214.57891 693.19219 224.59454 686.11016 224.89141"/>
		<path d="M 1.2 204.12579 C 4.46563 214.57891 15.39531 224.59454 22.47735 224.89141"/>
		<path d="M 708.16484 21.96563 C 704.89922 11.5125 693.96953 1.49688 686.8836 1.2"/>
		<path d="M 1.97735 21.96563 C 5.23906 11.5125 16.17266 1.49688 23.25469 1.2"/>
	</g>
	<path d="M 7.97734 11.24297 L 7.2 214.84844"/>
	<path d="M 702.16484 11.24297 L 701.3875 214.84844"/>
</g>
</svg>
