<?xml version="1.0" encoding="UTF-8"?>
<svg xmlns="http://www.w3.org/2000/svg" xmlns:xlink="http://www.w3.org/1999/xlink" width="709pt" height="450pt" viewBox="0 0 709 450" version="1.2" fill="none" stroke-miterlimit="10">

<g id="equipment" stroke="rgb(4.017639%,3.95813%,4.968262%)">
	<path stroke-width="2.4" d="M 1.2 441.2422 C 3.45 441.2422 9.8133 446.457 9.8133 448.7695 L 288.3867 448.7695 C 288.3867 446.457 294.7539 441.2422 297 441.2422 L 297 9.6289 C 294.75 9.6289 288.3867 4.414 288.3867 2.1016 L 9.8133 2.1016 C 9.8133 4.414 3.4463 9.6289 1.2 9.6289 Z"/>

	<g stroke-width="1.5">
		<path d="M 297 22.8711 C 293.7344  12.418 282.8028   2.4023 275.7208   2.1055"/>
		<path d="M 1.2 22.8711 C   4.4656  12.418  15.3972   2.4023  22.4783   2.1055"/>
		<path d="M 297 428     C 293.7344 438.457 282.8028 448.4927 275.7208 448.7695"/>
		<path d="M 1.2 428     C   4.4656 438.457  15.3972 448.4927  22.4783 448.7695"/>
	</g>

	<path d="M 7.2 12.1484 L 7.2 438.7227"/>
	<path d="M 291 12.1484 L 291 438.7227"/>
</g>

<g stroke="rgb(69.805908%,69.256592%,69.392395%)">
	<path d="M 19.6285  27.6059 L 285.1723  27.6059"/>
	<path d="M 19.6285  49.6072 L 285.1723  49.6072"/>
	<path d="M 19.6285  71.6085 L 285.1723  71.6085"/>
	<path d="M 19.6285  93.6099 L 285.1723  93.6099"/>
	<path d="M 19.6285 115.6112 L 285.1723 115.6112"/>
	<path d="M 19.6285 137.6125 L 285.1723 137.6125"/>
	<path d="M 19.6285 159.6138 L 285.1723 159.6138"/>
	<path d="M 19.6285 181.6151 L 285.1723 181.6151"/>
	<path d="M 19.6285 203.6164 L 285.1723 203.6164"/>
	<path d="M 19.6285 225.6178 L 285.1723 225.6178"/>
	<path d="M 19.6285 247.6191 L 285.1723 247.6191"/>
	<path d="M 19.6285 269.6204 L 285.1723 269.6204"/>
	<path d="M 19.6285 291.6217 L 285.1723 291.6217"/>
	<path d="M 19.6285 313.623  L 285.1723 313.623"/>
	<path d="M 19.6285 335.6243 L 285.1723 335.6243"/>
	<path d="M 19.6285 357.6257 L 285.1723 357.6257"/>
	<path d="M 19.6285 379.627  L 285.1723 379.627"/>
	<path d="M 19.6285 401.6283 L 285.1723 401.6283"/>

	<path d="M 227.1684 401.6283 L 227.1684 7.602"/>
	<path d="M 252.1684 423.6293 L 252.1684 7.602"/>
</g>

<g id="notes" stroke="rgb(4.017639%,3.95813%,4.968262%)">
	<path stroke-width="2.4" d="M 318.8273 441.2422 C 321.0773 441.2422 327.4406 446.457 327.4406 448.7695 L 699.1867 448.7695 C 699.1867 446.457 705.5539 441.2422 707.8 441.2422 L 707.8 9.6289 C 705.55 9.6289 699.1867 4.414 699.1867 2.1016 L 327.4406 2.1016 C 327.4406 4.414 321.0736 9.6289 318.8273 9.6289 Z"/>

	<g stroke-width="1.5">
		<path d="M 707.8    22.8711 C 704.5344  12.418 693.6028   2.4023 686.5208   2.1055"/>
		<path d="M 318.8273 22.8711 C 321.0929  12.418 333.0245   2.4023 340.1056   2.1055"/>
		<path d="M 707.8    428     C 704.5344 438.457 693.6028 448.4927 686.5208 448.7695"/>
		<path d="M 318.8273 428     C 321.0929 438.457 333.0245 448.4927 340.1056 448.7695"/>
	</g>

	<path d="M 324.8273 12.1484 L 324.8273 438.7227"/>
	<path d="M 701.8 12.1484 L 701.8 438.7227"/>
</g>
</svg>
