<?xml version="1.0" encoding="UTF-8"?>
<svg xmlns="http://www.w3.org/2000/svg" xmlns:xlink="http://www.w3.org/1999/xlink" width="298.22812pt" height="408.15782pt" viewBox="0 0 298.22812 408.15782" version="1.2" stroke-miterlimit="10" fill="none">

<g stroke="rgb(4.017639%,3.95813%,4.968262%)">
	<path stroke-width="2.4" d="M 1.2039 399.43047 C 3.45 399.43047 9.81719 404.64531 9.81719 406.95781 L 288.41875 406.95781 C 288.41875 404.64531 294.78203 399.43047 297.02812 399.43047 L 297.02812 8.72344 C 294.78203 8.72344 288.41875 3.5086 288.41875 1.2 L 9.81719 1.2 C 9.81719 3.5086 3.45 8.72344 1.2 8.72344 Z"/>
	<g stroke-width="1.5">
		<path d="M 297.03203 386.18828 C 293.76641 396.64141 282.83281 406.65703 275.75078 406.95782"/>
		<path d="M 1.2039 386.18828 C 4.46953 396.64141 15.39922 406.65703 22.48125 406.95782"/>
		<path d="M 297.02812 21.96563 C 293.76641 11.5125 282.83281 1.49688 275.75078 1.2"/>
		<path d="M 1.2039 21.96563 C 4.46562 11.5125 15.39922 1.49688 22.48125 1.2"/>
	</g>
	<path d="M 7.2039 11.24297 L 7.2039 396.91094"/>
	<path d="M 291.02812 11.24297 L 291.02812 396.91094"/>
</g>

<g stroke="rgb(69.805908%,69.256592%,69.392395%)">
	<path d="M 15.7625 26.00078 L 282.53203 26.00078"/>
	<path d="M 15.7625 48.00469 L 282.53203 48.00469"/>
	<path d="M 15.7625 70.00469 L 282.53203 70.00469"/>
	<path d="M 15.7625 92.0086 L 282.53203 92.0086"/>
	<path d="M 15.7625 114.0086 L 282.53203 114.0086"/>
	<path d="M 15.7625 136.0125 L 282.53203 136.0125"/>
	<path d="M 15.7625 158.0125 L 282.53203 158.0125"/>
	<path d="M 15.7625 180.01641 L 282.53203 180.01641"/>
	<path d="M 15.7625 202.02032 L 282.53203 202.02032"/>
	<path d="M 15.7625 224.02032 L 282.53203 224.02032"/>
	<path d="M 15.7625 246.02422 L 282.53203 246.02422"/>
	<path d="M 15.7625 268.02422 L 282.53203 268.02422"/>
	<path d="M 15.7625 290.02813 L 282.53203 290.02813"/>
	<path d="M 15.7625 312.02813 L 282.53203 312.02813"/>
	<path d="M 15.7625 334.03203 L 282.53203 334.03203"/>
	<path d="M 15.7625 356.03203 L 282.53203 356.03203"/>
	<path d="M 15.7625 378.03594 L 282.53203 378.03594"/>
</g>

</svg>
