<?xml version="1.0" encoding="UTF-8"?>
<svg xmlns="http://www.w3.org/2000/svg" xmlns:xlink="http://www.w3.org/1999/xlink" width="708.5914pt" height="450.04063pt" viewBox="0 0 708.5914 450.04063" version="1.2" fill= "none" stroke-miterlimit="10">

<g stroke="rgb(4.017639%,3.95813%,4.968262%)">
	<path stroke-width="2.4" d="M 1.2039 441.31328 C 3.45 441.31328 9.81719 446.52812 9.81719 448.84062 L 698.77812 448.84062 C 698.77812 446.52812 705.14531 441.31328 707.3914 441.31328 L 707.3914 8.72344 C 705.14531 8.72344 698.77812 3.5125 698.77812 1.2 L 9.81719 1.2 C 9.81719 3.5125 3.45 8.72344 1.2 8.72344 Z"/>
	<g stroke-width="1.5">
		<path d="M 707.3914 428.07109 C 704.12969 438.52812 693.19609 448.54375 686.11406 448.84062"/>
		<path d="M 1.2039 428.07109 C 4.46953 438.52812 15.39922 448.54375 22.48125 448.84062"/>
		<path d="M 707.3914 21.96562 C 704.12578 11.5125 693.19609 1.49687 686.11016 1.2"/>
		<path d="M 1.2039 21.96562 C 4.46562 11.5125 15.39922 1.49687 22.48125 1.2"/>
	</g>
	<path d="M 7.2039 11.24297 L 7.2039 438.79375"/>
	<path d="M 701.3914 11.24297 L 701.3914 438.79375"/>
</g>
<g stroke="rgb(69.805908%,69.256592%,69.392395%)">
	<path d="M 15.7625 26.00078 L 692.86016 26.00078"/>
	<path d="M 15.7625 48.00469 L 692.86016 48.00469"/>
	<path d="M 15.7625 70.00469 L 692.86016 70.00469"/>
	<path d="M 15.7625 92.00859 L 692.86016 92.00859"/>
	<path d="M 15.7625 114.00859 L 692.86016 114.00859"/>
	<path d="M 15.7625 136.0125 L 692.86016 136.0125"/>
	<path d="M 15.7625 158.01641 L 692.86016 158.01641"/>
	<path d="M 15.7625 180.01641 L 692.86015 180.01641"/>
	<path d="M 15.7625 202.01641 L 692.86015 202.01641"/>
	<path d="M 15.7625 224.02031 L 692.86015 224.02031"/>
	<path d="M 15.7625 246.02031 L 692.86015 246.02031"/>
	<path d="M 15.7625 268.02422 L 692.86015 268.02422"/>
	<path d="M 15.7625 290.02812 L 692.86015 290.02812"/>
	<path d="M 15.7625 312.02812 L 692.86015 312.02812"/>
	<path d="M 15.7625 334.03203 L 692.86015 334.03203"/>
	<path d="M 15.7625 356.03203 L 692.86015 356.03203"/>
	<path d="M 15.7625 378.03594 L 692.86015 378.03594"/>
	<path d="M 15.7625 400.03594 L 692.86015 400.03594"/>
	<path d="M 15.7625 422.03984 L 692.86015 422.03984"/>
</g>
</svg>
