<?xml version="1.0" encoding="UTF-8"?>
<svg xmlns="http://www.w3.org/2000/svg" xmlns:xlink="http://www.w3.org/1999/xlink" width="236.89062pt" height="226.88281pt" viewBox="0 0 236.89062 226.88281" version="1.2" stroke-miterlimit="10">

<g fill="rgb(87.059021%,86.824036%,86.882019%)">
	<path d="M 236.89062 206.32031 C 236.71875 210.45703 232.85547 216.3125 227.35937 220.88281 L 9.53125 220.88281 C 4.03125 216.3125 0.17578 210.45703 0.0 206.32031 L 0.0 20.5625 C 0.17578 16.42969 4.03515 10.57422 9.53515 6.00391 L 227.35937 6.00391 C 232.85937 10.57422 236.71875 16.42578 236.89062 20.5625 Z"/>
	<path d="M 0.0 8.48047 C 2.6289 7.60156 6.6914 2.71094 7.41406 0.00391 L 16.13672 0.00391 C 9.29687 3.30078 2.82812 9.53516 0.0 15.31641 Z"/>
	<path d="M 0.0 218.40625 L 0.0 211.57031 C 2.82812 217.35156 9.29297 223.58594 16.13672 226.88281 L 7.41406 226.88281 C 6.6875 224.17969 2.6289 219.28516 0.0 218.40625"/>
	<path d="M 236.89062 218.40625 C 234.26172 219.28125 230.20312 224.17578 229.47656 226.88281 L 220.75781 226.88281 C 227.59765 223.58594 234.0625 217.35156 236.89062 211.57031 Z"/>
	<path d="M 236.89062 8.47656 L 236.89062 15.31641 C 234.0625 9.53516 227.59765 3.30078 220.75781 0.0 L 229.47656 0.0 C 230.20312 2.70703 234.26172 7.60156 236.89062 8.47656"/>
	<path d="M 20.14843 0.00391 L 216.74609 0.00391 C 219.80469 0.96875 222.7539 2.57031 225.41797 4.50391 L 11.47656 4.50391 C 14.14062 2.57031 17.08984 0.96875 20.14843 0.00391"/>
	<path d="M 216.74609 226.88281 L 20.14453 226.88281 C 17.08593 225.91406 14.13672 224.3125 11.47265 222.38281 L 225.41797 222.38281 C 222.7539 224.3125 219.80469 225.91406 216.74609 226.88281"/>
</g>

<g stroke="rgb(4.017639%,3.95813%,4.968262%)">
	<g fill="white" stroke-width="2.4">
		<path d="M 11.78125 101.71484 C 14.02734 101.71484 20.39062 106.92969 20.39062 109.24219 L 105.49219 109.24219 C 105.49219 106.92969 111.85937 101.71484 114.10547 101.71484 L 114.10547 26.72656 C 111.85937 26.72656 105.49219 21.51562 105.49219 19.20312 L 20.39062 19.20312 C 20.39062 21.51562 14.02734 26.72656 11.77734 26.72656 Z"/>
		<path d="M 124.52343 101.71484 C 126.76953 101.71484 133.13281 106.92969 133.13281 109.24219 L 218.23437 109.24219 C 218.23437 106.92969 224.60156 101.71484 226.84765 101.71484 L 226.84765 26.73047 C 224.60156 26.73047 218.23437 21.51562 218.23437 19.20312 L 133.13281 19.20312 C 133.13281 21.51562 126.76953 26.73047 124.51953 26.73047 Z"/>
		<path d="M 11.78125 202.12891 C 14.02734 202.12891 20.39062 207.34375 20.39062 209.65625 L 105.49219 209.65625 C 105.49219 207.34375 111.85937 202.12891 114.10547 202.12891 L 114.10547 127.14453 C 111.85937 127.14453 105.49219 121.92969 105.49219 119.61719 L 20.39062 119.61719 C 20.39062 121.92969 14.02734 127.14453 11.77734 127.14453 Z"/>
		<path d="M 124.52343 202.12891 C 126.76953 202.12891 133.13281 207.34375 133.13281 209.65625 L 218.23437 209.65625 C 218.23437 207.34375 224.60156 202.12891 226.84765 202.12891 L 226.84765 127.14453 C 224.60156 127.14453 218.23437 121.92969 218.23437 119.61719 L 133.13281 119.61719 C 133.13281 121.92969 126.76953 127.14453 124.51953 127.14453 Z"/>
	</g>

	<g fill="none">
		<g stroke-width="1.5">
			<path d="M 114.10547 88.47266 C 110.84375 98.92578 99.91015 108.94141 92.82812 109.24219"/>
			<path d="M 11.78125 88.47266 C 15.04297 98.92578 25.97656 108.94141 33.05859 109.24219"/>
			<path d="M 114.10547 39.97266 C 110.83984 29.51562 99.91015 19.5 92.82812 19.20312"/>
			<path d="M 11.77734 39.97266 C 15.04297 29.51562 25.97265 19.5 33.05469 19.20312"/>

			<path d="M 226.84765 88.47266 C 223.58594 98.92578 212.65234 108.94141 205.57031 109.24219"/>
			<path d="M 124.52343 88.47266 C 127.78515 98.92578 138.71875 108.94141 145.80078 109.24219"/>
			<path d="M 226.84765 39.97266 C 223.58203 29.51953 212.65234 19.50391 205.57031 19.20312"/>
			<path d="M 124.51953 39.97266 C 127.78515 29.51953 138.71484 19.50391 145.79687 19.20312"/>

			<path d="M 114.10547 188.88672 C 110.84375 199.34375 99.91015 209.35937 92.82812 209.65625"/>
			<path d="M 11.78125 188.88672 C 15.04297 199.34375 25.97656 209.35937 33.05859 209.65625"/>
			<path d="M 114.10547 140.38672 C 110.83984 129.93359 99.91015 119.91797 92.82812 119.62109"/>
			<path d="M 11.77734 140.38672 C 15.04297 129.93359 25.97265 119.91797 33.05469 119.62109"/>

			<path d="M 226.84765 188.88672 C 223.58594 199.34375 212.65234 209.35937 205.57031 209.65625"/>
			<path d="M 124.52343 188.88672 C 127.78515 199.34375 138.71875 209.35937 145.80078 209.65625"/>
			<path d="M 226.84765 140.38672 C 223.58203 129.93359 212.65234 119.91797 205.57031 119.62109"/>
			<path d="M 124.51953 140.38672 C 127.78515 129.93359 138.71484 119.91797 145.79687 119.62109"/>
		</g>

		<path d="M 17.77734 29.24609 L 17.77734 99.19531"/>
		<path d="M 108.10547 29.24609 L 108.10547 99.19531"/>

		<path d="M 130.51953 29.25 L 130.51953 99.19531"/>
		<path d="M 220.84765 29.25 L 220.84765 99.19531"/>

		<path d="M 17.77734 129.66406 L 17.77734 199.60937"/>
		<path d="M 108.10547 129.66406 L 108.10547 199.60937"/>

		<path d="M 130.51953 129.66406 L 130.51953 199.60937"/>
		<path d="M 220.84765 129.66406 L 220.84765 199.60937"/>
	</g>
</g>

</svg>
