<?xml version="1.0" encoding="UTF-8"?>
<svg xmlns="http://www.w3.org/2000/svg" xmlns:xlink="http://www.w3.org/1999/xlink" width="239pt" height="124pt" viewBox="0 0 239 124" version="1.2" stroke-miterlimit="10" fill="none" stroke="rgb(4.017639%,3.95813%,4.968262%)">

<path stroke-width="2.4" d="M 2.31641 115.08984 C 4.56641 115.08984 10.92969 120.30469 10.92969 122.61719 L 228.19531 122.61719 C 228.19531 120.30469 234.5625 115.08984 236.80859 115.08984 L 236.80859 9.89453 C 234.55859 9.89453 228.19531 4.67969 228.19531 2.36719 L 10.92969 2.36719 C 10.92969 4.67969 4.5625 9.89453 2.31641 9.89453 Z"/>
<g stroke-width="1.5">
	<path d="M 236.80859 101.84766 C 233.54297 112.30078 222.61328 122.31641 215.53125 122.61719"/>
	<path d="M 2.31641 101.84766 C 5.58203 112.30078 16.51172 122.31641 23.59375 122.61719"/>
	<path d="M 236.80859 23.13672 C 233.54297 12.67969 222.60937 2.66406 215.52734 2.36719"/>
	<path d="M 2.31641 23.13672 C 5.57812 12.67969 16.51172 2.66406 23.59375 2.36719"/>
</g>
<path d="M 8.31641 12.41016 L 8.31641 112.57031"/>
<path d="M 230.80859 12.41016 L 230.80859 112.57031"/>

</svg>
