<?xml version="1.0" encoding="UTF-8"?>
<svg xmlns="http://www.w3.org/2000/svg" xmlns:xlink="http://www.w3.org/1999/xlink" width="367.07968pt" height="148.14611pt" viewBox="0 0 367.07968 148.14611" version="1.2">

<path fill="rgb(87.059021%,86.824036%,86.882019%)" d="M 82.21953 62.55547 L 82.85625 61.35235 C 88.80937 49.96563 88.80937 33.43438 82.85625 22.04766 L 82.28203 20.86016 L 86.86796 21.11797 C 92.7664 33.23907 92.75859 50.21954 86.84453 62.32891 Z"/>

<g fill="none" stroke-miterlimit="10">
	<g stroke="rgb(4.017639%,3.95813%,4.968262%)">
		<g stroke-width="2.4">
			<path d="M 1.2 139.41876 C 3.45 139.41876 9.81328 144.6336 9.81328 146.9461 L 357.2664 146.9461 C 357.2664 144.6336 363.63359 139.41876 365.87968 139.41876 L 365.87968 8.72344 C 363.62968 8.72344 357.2664 3.5125 357.2664 1.2 L 9.81328 1.2 C 9.81328 3.5125 3.44609 8.72344 1.2 8.72344 Z"/>
			<path d="M 58.71562 66.00079 L 335.40703 66.00079 C 335.40703 65.18829 338.37578 61.53204 339.87968 61.53204 L 339.87968 21.8836 C 338.37578 21.8836 335.40703 18.22735 335.40703 17.41485 L 31.77422 17.41485 C 31.77422 18.22735 28.80937 21.8836 27.30547 21.8836 L 27.30547 61.53204 C 28.80937 61.53204 31.77422 65.18829 31.77422 66.00079 Z"/>
		</g>
		<g stroke-width="1.5">
			<path d="M 365.87968 126.17657 C 362.61406 136.62969 351.68437 146.64532 344.60234 146.9461"/>
			<path d="M 1.2 126.17657 C 4.46562 136.62969 15.39531 146.64532 22.47734 146.9461"/>
			<path d="M 365.87968 21.96954 C 362.61406 11.5125 351.68046 1.49688 344.59843 1.2"/>
			<path d="M 1.2 21.96954 C 4.46172 11.5125 15.39531 1.49688 22.47734 1.2"/>
			<path d="M 86.62968 21.12188 C 92.84843 33.02032 92.84843 50.37969 86.62968 62.27813"/>
			<path d="M 27.30547 32.36407 C 27.30547 26.20782 36.3914 17.41485 42.77812 17.41485"/>
			<path d="M 27.30547 51.05157 C 27.30547 57.20391 36.3914 66.00079 42.77812 66.00079"/>
			<path d="M 339.87968 32.36407 C 339.87968 26.20782 330.79375 17.41485 324.40312 17.41485"/>
			<path d="M 339.87968 51.05157 C 339.87968 57.20391 330.79375 66.00079 324.40312 66.00079"/>
		</g>
		<path d="M 7.2 11.24297 L 7.2 136.89922"/>
		<path d="M 359.87968 11.24297 L 359.87968 136.89922"/>
		<path d="M 60.03984 17.41094 C 81.62578 17.41094 67.59062 21.12969 91.04765 21.41094 L 333.23906 21.41094"/>
		<path d="M 60.03984 66.00079 C 81.62578 66.00079 67.59062 62.28594 91.04765 62.00079 L 333.23906 62.00079"/>
		<path d="M 90.62968 21.12188 C 96.84843 33.02032 96.84843 50.37969 90.62968 62.27813"/>
	</g>
	<g stroke="rgb(69.805908%,69.256592%,69.392395%)">
		<path d="M 11.7039 94.14141 L 355.37187 94.14141"/>
		<path d="M 11.7039 116.13751 L 355.37187 116.13751"/>
	</g>
</g>

</svg>
