<?xml version="1.0" encoding="UTF-8"?>
<svg xmlns="http://www.w3.org/2000/svg" xmlns:xlink="http://www.w3.org/1999/xlink" width="236.89218pt" height="506.68516pt" viewBox="0 0 236.89218 506.68516" version="1.2" stroke-miterlimit="10">

<g fill="none" stroke="rgb(4.017639%,3.95813%,4.968262%)">
	<path stroke-width="2.4" d="M 1.2 497.95781 C 3.45 497.95781 9.81328 503.17265 9.81328 505.48515 L 227.0789 505.48515 C 227.0789 503.17265 233.44609 497.95781 235.69218 497.95781 L 235.69218 8.72343 C 233.44218 8.72343 227.0789 3.5125 227.0789 1.2 L 9.81328 1.2 C 9.81328 3.5125 3.44609 8.72343 1.2 8.72343 Z"/>
	<g stroke-width="1.5">
		<path d="M 235.69218 484.71562 C 232.42656 495.17265 221.49687 505.18828 214.41484 505.48515"/>
		<path d="M 1.2 484.71562 C 4.46562 495.17265 15.39531 505.18828 22.47734 505.48515"/>
		<path d="M 235.69218 21.96953 C 232.42656 11.5125 221.49296 1.49687 214.41093 1.2"/>
		<path d="M 1.2 21.96953 C 4.46171 11.5125 15.39531 1.49687 22.47734 1.2"/>
	</g>
	<path d="M 7.2 11.24297 L 7.2 495.43828"/>
	<path d="M 229.69218 11.24297 L 229.69218 495.43828"/>
</g>
</svg>
