<?xml version="1.0" encoding="UTF-8"?>
<svg xmlns="http://www.w3.org/2000/svg" xmlns:xlink="http://www.w3.org/1999/xlink" width="710pt" height="143pt" viewBox="0 0 710 143" version="1.2" stroke-miterlimit="10">
<g fill="rgb(87.059021%,86.824036%,86.882019%)">
	<path d="M 709.27734 121.125 C 709.10547 125.25781 705.24219 131.11328 699.74609 135.68359 L 10.23047 135.68359 C 4.73047 131.11328 0.87109 125.25781 0.69531 121.125 L 0.69531 21.8125 C 0.87109 17.67578 4.73438 11.82031 10.23047 7.25 L 699.74609 7.25 C 705.24609 11.82031 709.10547 17.67578 709.27734 21.8125 Z"/>
	<path d="M 0.69922 9.72656 C 3.32812 8.85156 7.38672 3.95703 8.11328 1.25 L 16.83203 1.25 C 9.99219 4.54688 3.52734 10.78516 0.69922 16.56641 Z"/>
	<path d="M 0.69922 133.21094 L 0.69922 126.37109 C 3.52734 132.15234 9.99219 138.38672 16.83203 141.68359 L 8.10938 141.68359 C 7.38672 138.98047 3.32812 134.08594 0.69922 133.21094"/>
	<path d="M 709.27734 133.20703 C 706.64844 134.08203 702.58984 138.97656 701.86328 141.68359 L 693.14453 141.68359 C 699.98438 138.38672 706.44922 132.15234 709.27734 126.37109 Z"/>
	<path d="M 709.27734 9.72656 L 709.27734 16.5625 C 706.44922 10.78516 699.98438 4.54688 693.14453 1.25 L 701.86328 1.25 C 702.58984 3.95703 706.64844 8.85156 709.27734 9.72656"/>
	<path d="M 20.84375 1.25 L 689.13281 1.25 C 692.19141 2.21875 695.14062 3.82031 697.80469 5.75 L 12.17188 5.75 C 14.83594 3.82031 17.78516 2.21875 20.84375 1.25"/>
	<path d="M 689.13281 141.68359 L 20.83984 141.68359 C 17.78125 140.71484 14.83203 139.11328 12.16797 137.18359 L 697.80469 137.18359 C 695.14062 139.11328 692.19141 140.71484 689.13281 141.68359"/>
</g>

<g fill="white">
	<path d="M 60.80859 16.96875 C 60.80859 16.96875 79.71875 16.96875 94.33594 26.98047 C 94.33594 26.98047 93.06641 41.44141 107.52734 47.16016 C 107.52734 47.16016 112.05469 108.65234 60.80859 123.74609 C 9.56641 108.65234 14.09375 47.16016 14.09375 47.16016 C 28.55469 41.44141 27.28516 26.98047 27.28516 26.98047 C 41.90234 16.96875 60.80859 16.96875 60.80859 16.96875"/>
	<path d="M 118.17969 69.85547 C 138.55859 51.23828 139.51953 19.78125 139.60156 19.41016 L 140.00781 17.21875 L 141.82422 18.94141 C 144.1875 21.16406 149.60547 22.85547 153.62891 24.13672 C 154.33594 21.23828 154.67969 17.55078 154.69922 17.47266 L 155.10156 15.27734 L 156.94141 17.0 C 164.16016 23.8125 178.13672 27.32031 189.86328 27.75 L 189.70312 27.75 C 201.42578 27.32031 216.01953 23.55469 223.25781 16.74609 L 225.09766 15.02344 L 225.50391 17.21875 C 225.50391 17.29297 225.84375 20.98438 226.57422 23.87891 C 230.59375 22.60156 236.00781 20.90625 238.35156 18.6875 L 240.19531 16.96484 L 240.59766 19.15625 C 240.67969 19.52344 242.96484 51.23828 263.32422 69.85547 L 263.98828 70.46484 L 263.32422 71.07031 C 242.96484 89.69141 240.67969 121.40234 240.59766 121.76953 L 240.19531 123.96094 L 238.35156 122.24219 C 236.00781 120.01953 230.59375 118.32422 226.57422 117.04688 C 225.84375 119.94141 225.50391 123.63281 225.50391 123.71094 L 225.09766 125.90234 L 223.25781 124.18359 C 216.01953 117.375 201.42578 113.60547 189.70312 113.17578 L 189.86328 113.17578 C 178.13672 113.60547 164.16016 117.62891 156.94141 124.4375 L 155.10156 126.15625 L 154.69922 123.96484 C 154.67969 123.89062 154.33594 120.19922 153.62891 117.30469 C 149.60547 118.58203 144.1875 120.27344 141.82422 122.49609 L 140.00781 124.21875 L 139.60156 122.02734 C 139.51953 121.66016 138.55859 89.69141 118.17969 71.07031 L 117.51172 70.46484 Z"/>
	<path d="M 360.13672 123.85938 L 360.13672 122.52734 C 360.13672 118.13281 361.58984 113.98047 363.61719 110.28516 L 366.89062 110.28516 L 376.61719 100.55859 L 376.61719 40.33203 L 366.89062 30.60938 L 363.71094 30.60938 C 361.63281 26.86719 360.13672 22.64844 360.13672 18.19141 L 360.13672 16.85938 L 291.50781 16.85938 L 291.50781 18.19141 C 291.50781 22.64844 290.01172 26.86719 287.93359 30.60938 L 284.75391 30.60938 L 275.02734 40.33203 L 275.02734 100.55859 L 284.75391 110.28516 L 288.02734 110.28516 C 290.05469 113.98047 291.50781 118.13281 291.50781 122.52734 L 291.50781 123.85938 Z"/>
	<g stroke-width="2.4" stroke="rgb(4.017639%,3.95813%,4.968262%)">
		<path d="M 387.37891 118.94922 C 389.62891 118.94922 395.99219 124.16016 395.99219 126.47266 L 578.83594 126.47266 C 578.83594 124.16016 585.19922 118.94922 587.44531 118.94922 L 587.44531 23.92969 C 585.19922 23.92969 578.83594 18.71484 578.83594 16.40234 L 395.99219 16.40234 C 395.99219 18.71484 389.625 23.92969 387.37891 23.92969 Z"/>
		<path d="M 597.84766 118.94922 C 600.09766 118.94922 606.46094 124.16016 606.46094 126.47266 L 691.5625 126.47266 C 691.5625 124.16016 697.92969 118.94922 700.17578 118.94922 L 700.17578 23.92969 C 697.92578 23.92969 691.5625 18.71484 691.5625 16.40234 L 606.46094 16.40234 C 606.46094 18.71484 600.09375 23.92969 597.84766 23.92969 Z"/>
	</g>
</g>

<g fill="none" stroke="rgb(4.017639%,3.95813%,4.968262%)">
	<path stroke-width="3.0" d="M 60.80859 16.96875 C 60.80859 16.96875 79.71875 16.96875 94.33594 26.98047 C 94.33594 26.98047 93.06641 41.44141 107.52734 47.16016 C 107.52734 47.16016 112.05469 108.65234 60.80859 123.74609 C 9.56641 108.65234 14.09375 47.16016 14.09375 47.16016 C 28.55469 41.44141 27.28516 26.98047 27.28516 26.98047 C 41.90234 16.96875 60.80859 16.96875 60.80859 16.96875 Z"/>
	<path stroke-width="1.5" d="M 60.73828 23.96094 C 60.73828 23.96094 77.17969 23.96094 89.89063 32.66406 C 89.89063 32.66406 88.78516 45.23828 101.35938 50.21094 C 101.35938 50.21094 105.29688 103.67969 60.73828 116.80469 C 16.18359 103.67969 20.12109 50.21094 20.12109 50.21094 C 32.69531 45.23828 31.58594 32.66406 31.58594 32.66406 C 44.30078 23.96094 60.73828 23.96094 60.73828 23.96094 Z"/>

	<g stroke="none" fill="rgb(4.017639%,3.95813%,4.968262%)">
		<path d="M 239.51562 119.53906 C 240.57031 115.01562 240.38281 108.24219 244.14062 98.99219 C 247.90234 89.74219 252.31641 83.64062 258.94922 74.80859 C 261.69922 70.46484 261.69922 70.46484 258.94922 66.58594 C 244.31641 50.01562 241.625 30.40234 239.51562 21.37109 C 234.28906 36.13281 242.16406 50.17969 245.26562 54.54688 L 246.31641 52.66016 L 246.31641 62.90234 C 248.61328 65.95312 251.13672 67.28906 253.88281 69.83594 L 254.56641 70.46484 L 253.88281 71.08984 C 251.13672 73.63672 248.61328 74.97656 246.31641 78.02344 L 246.31641 88.26562 L 245.26562 86.36719 C 242.16406 90.73047 234.28906 104.79297 239.51562 119.53906 M 224.49609 23.17578 C 224.1875 21.85547 223.91797 18.72656 223.73047 17.86328 C 219.90625 20.64453 214.51562 24.54297 208.625 25.84766 C 213.97656 25.34766 219.53906 24.52734 224.49609 23.17578 M 234.41016 22.56641 C 232.88281 23.25781 229.23047 23.87109 227.49219 24.41797 C 229.87109 33.40234 235.05859 46.53906 244.25 60.01562 L 244.25 56.38281 C 243.46875 55.36328 239.78906 50.38281 237.03906 43.55078 C 237.01953 43.47266 234.47266 35.01953 234.41016 22.56641 M 227.49219 116.50781 C 229.23047 117.05859 232.88281 117.67188 234.41016 118.36328 C 234.47266 105.89062 237.01953 97.4375 237.03906 97.375 C 239.78906 90.52734 243.46875 85.5625 244.25 84.52734 L 244.25 80.91016 C 235.05859 94.38672 229.87109 107.52734 227.49219 116.50781 M 224.49609 117.75 C 219.53906 116.39844 213.97656 115.58203 208.625 115.07812 C 214.51562 116.38281 219.90625 120.28516 223.73047 123.0625 C 223.91797 122.19922 224.1875 119.06641 224.49609 117.75 M 155.76562 117.75 C 156.09766 119.06641 156.36719 122.19922 156.55078 123.0625 C 160.375 120.28516 165.76953 116.38281 171.65625 115.07812 C 166.30469 115.58203 160.72656 116.39844 155.76562 117.75 M 171.63672 25.84766 C 165.74609 24.54297 160.375 20.64453 156.55078 17.86328 C 156.36719 18.72656 156.09766 21.85547 155.76562 23.17578 C 160.72656 24.52734 166.30469 25.34766 171.63672 25.84766 M 116.94922 69.83594 C 137.78125 50.64062 138.88672 17.94922 138.96875 17.57031 L 139.38281 15.30859 L 141.24219 17.08594 C 143.66016 19.375 149.19531 21.12109 153.30859 22.44141 C 154.03125 19.45703 154.38281 15.64844 154.40234 15.57031 L 154.81641 13.30859 L 156.69531 15.08594 C 164.07422 22.10547 178.23828 25.98828 190.22266 26.42969 L 190.05859 26.42969 C 202.04688 25.98828 216.19141 22.10547 223.58594 15.08594 L 225.46875 13.30859 L 225.88281 15.57031 C 225.88281 15.64844 226.23047 19.45703 226.97656 22.44141 C 231.08594 21.12109 236.625 19.375 239.01953 17.08594 L 240.90234 15.30859 L 241.31641 17.57031 C 241.39844 17.94922 244.50391 50.64062 265.31641 69.83594 L 265.99609 70.46484 L 265.31641 71.08984 C 244.50391 90.28516 241.39844 122.98047 241.31641 123.35938 L 240.90234 125.61719 L 239.01953 123.84375 C 236.625 121.55078 231.08594 119.80469 226.97656 118.48828 C 226.23047 121.47266 225.88281 125.27734 225.88281 125.35938 L 225.46875 127.61719 L 223.58594 125.84375 C 216.19141 118.82422 202.04688 114.9375 190.05859 114.49609 L 190.22266 114.49609 C 178.23828 114.9375 164.07422 118.82422 156.69531 125.84375 L 154.81641 127.61719 L 154.40234 125.35938 C 154.38281 125.27734 154.03125 121.47266 153.30859 118.48828 C 149.19531 119.80469 143.66016 121.55078 141.24219 123.84375 L 139.38281 125.61719 L 138.96875 123.35938 C 138.88672 122.98047 137.78125 90.28516 116.94922 71.08984 L 116.26562 70.46484 Z M 129.04688 70.46484 C 144.41797 85.08594 152.16797 103.96094 155.26953 115.78516 C 170.64453 111.6875 186.77344 111.77734 190.16016 111.91797 L 190.125 111.91797 C 193.51172 111.77734 209.64062 111.6875 225.01562 115.78516 C 228.11328 103.96094 235.86328 85.08594 251.21875 70.46484 C 235.86328 55.84375 228.11328 36.96875 225.01562 25.14062 C 209.64062 29.24219 193.51172 29.14844 190.125 28.99219 L 190.16016 28.99219 C 186.77344 29.14844 170.64453 29.24219 155.26953 25.14062 C 152.16797 36.96875 144.41797 55.84375 129.04688 70.46484 M 134.99609 54.54688 C 138.11719 50.17969 145.99609 36.13281 140.76953 21.37109 C 138.66016 30.40234 137.96484 50.01562 123.33203 66.58594 C 120.5625 70.46484 120.5625 70.46484 123.3125 74.32812 C 137.94531 90.87891 138.66016 110.51172 140.76953 119.53906 C 145.99609 104.79297 138.11719 90.73047 134.99609 86.36719 L 133.96484 88.26562 L 133.96484 78.02344 C 131.66797 74.97656 129.14844 73.63672 126.40234 71.08984 L 125.71875 70.46484 L 126.40234 69.83594 C 129.14844 67.28906 131.66797 65.95312 133.96484 62.90234 L 133.96484 52.66016 Z M 136.03125 84.52734 C 136.81641 85.5625 140.49219 90.52734 143.22266 97.35938 C 143.22266 97.35938 145.80859 105.84375 145.85156 118.36328 C 147.40234 117.67188 151.05469 117.05859 152.78906 116.50781 C 150.41406 107.52734 145.22656 94.38672 136.03125 80.91016 Z M 136.03125 60.01562 C 145.22656 46.53906 150.41406 33.40234 152.78906 24.41797 C 151.05469 23.87109 147.40234 23.25781 145.85156 22.56641 C 145.82812 28.81641 145.97656 34.46094 144.82031 38.52734 C 143.66406 42.59375 136.81641 55.36328 136.03125 56.38281 Z"/>

		<path d="M 361.19141 125.51172 L 361.19141 124.13672 C 361.19141 119.61328 362.6875 115.32812 364.77734 111.51953 L 368.15625 111.51953 L 378.17969 101.49609 L 378.17969 39.40625 L 368.15625 29.375 L 364.87109 29.375 C 362.73047 25.51953 361.19141 21.17188 361.19141 16.57812 L 361.19141 15.20312 L 290.4375 15.20312 L 290.4375 16.57812 C 290.4375 21.17188 288.89453 25.51953 286.75391 29.375 L 283.47266 29.375 L 273.44922 39.40625 L 273.44922 101.49609 L 283.47266 111.51953 L 286.85156 111.51953 C 288.94141 115.32812 290.4375 119.61328 290.4375 124.13672 L 290.4375 125.51172 Z M 315.50781 23.60156 C 316.68359 23.60156 317.63281 22.65234 317.63281 21.47656 C 317.63281 21.37891 317.59375 21.29688 317.58203 21.20703 C 320.41016 20.01562 323.29297 18.92969 326.22266 17.95312 L 325.41016 17.95312 C 328.33203 18.92578 331.21094 20.01172 334.03516 21.19922 C 334.02344 21.29297 333.98047 21.37891 333.98047 21.47656 C 333.98047 22.65234 334.92969 23.60156 336.10547 23.60156 C 336.76562 23.60156 337.33203 23.28516 337.72266 22.81641 C 339.90625 23.82031 342.04297 24.90234 344.15625 26.03516 L 307.47266 26.03516 C 309.58203 24.90625 311.71875 23.82812 313.89453 22.82422 C 314.28516 23.28906 314.85156 23.60156 315.50781 23.60156 M 299.38672 29.375 L 292.97656 29.375 C 294.67969 26.76953 299.21484 22.07812 309.8125 22.07812 L 312.67578 22.07812 C 308.08594 24.22656 303.65234 26.66797 299.38672 29.375 M 305.28516 27.23438 L 346.34375 27.23438 C 347.57422 27.92578 348.78906 28.64062 349.99219 29.375 L 301.63672 29.375 C 302.83984 28.64062 304.05469 27.92578 305.28516 27.23438 M 352.24219 29.375 C 347.97656 26.66797 343.53906 24.22656 338.94922 22.07812 L 342.00781 22.07812 C 352.60938 22.07812 357.14062 26.76953 358.84766 29.375 Z M 361.71484 29.375 L 360.25391 29.375 C 359.16797 27.46484 356.44531 23.92578 350.55078 22.07812 L 359.09766 22.07812 C 359.66797 24.64062 360.57031 27.09375 361.71484 29.375 M 358.47656 17.95312 C 358.53516 18.94141 358.65234 19.91797 358.82031 20.875 L 338.11328 20.875 C 337.84766 20.00391 337.07031 19.34766 336.10547 19.34766 C 335.46094 19.34766 334.90625 19.65234 334.51562 20.10156 C 332.71094 19.33984 330.88281 18.625 329.03516 17.95312 Z M 322.58594 17.95312 C 320.73828 18.625 318.91016 19.34375 317.10156 20.10547 C 316.71094 19.65234 316.15625 19.34766 315.50781 19.34766 C 314.54297 19.34766 313.76562 20.00391 313.50391 20.875 L 292.80469 20.875 C 292.97266 19.91797 293.09375 18.94141 293.14844 17.95312 Z M 292.53125 22.07812 L 301.26953 22.07812 C 295.37891 23.92578 292.65625 27.46484 291.57031 29.375 L 289.91406 29.375 C 291.05469 27.09375 291.96094 24.64062 292.53125 22.07812 M 276.19922 40.54297 L 284.61719 32.125 L 290.03125 32.125 C 285.45312 34.05078 282.19922 37.18359 279.88672 40.64062 L 279.79688 40.64062 L 279.79688 40.78125 C 278.17188 43.24609 277.01562 45.84766 276.19922 48.29297 Z M 276.19922 52.83594 C 276.80469 50.00391 277.88281 46.47266 279.79688 43.08984 L 279.79688 97.83594 C 279.46094 97.24219 279.10938 96.67969 278.80469 96.03906 C 277.49219 93.26953 276.69141 90.48828 276.19922 88.16016 Z M 284.61719 108.76953 L 276.19922 100.35547 L 276.19922 92.60156 C 277.01562 95.04688 278.17188 97.65234 279.79688 100.11328 L 279.79688 100.25781 L 279.88672 100.25781 C 282.19922 103.71094 285.45312 106.84375 290.03125 108.76953 Z M 336.11719 117.11328 C 334.94141 117.11328 333.99219 118.06641 333.99219 119.23828 C 333.99219 119.33594 334.03125 119.41797 334.04688 119.50781 C 331.21484 120.69922 328.33203 121.78516 325.40625 122.76172 L 326.21875 122.76172 C 323.29297 121.78906 320.41797 120.70312 317.58984 119.51562 C 317.60156 119.42188 317.64453 119.33594 317.64453 119.23828 C 317.64453 118.06641 316.69531 117.11328 315.51953 117.11328 C 314.85938 117.11328 314.29297 117.42969 313.90625 117.89844 C 311.72266 116.89453 309.58594 115.8125 307.47266 114.67969 L 344.15625 114.67969 C 342.04297 115.8125 339.91016 116.89062 337.73047 117.89453 C 337.33984 117.42578 336.77344 117.11328 336.11719 117.11328 M 351.95312 111.51953 L 358.52734 111.51953 C 356.73828 114.15625 352.17969 118.64062 341.8125 118.64062 L 338.94922 118.64062 C 343.4375 116.53516 347.77734 114.15625 351.95312 111.51953 M 346.33984 113.48047 L 305.28125 113.48047 C 304.15234 112.84375 303.02734 112.19531 301.92188 111.51953 L 349.70312 111.51953 C 348.59375 112.19531 347.47266 112.84375 346.33984 113.48047 M 299.67188 111.51953 C 303.84766 114.15625 308.1875 116.53516 312.67578 118.64062 L 309.62109 118.64062 C 299.25391 118.64062 294.69531 114.15625 292.90625 111.51953 Z M 290.00781 111.51953 L 291.48047 111.51953 C 292.63281 113.46484 295.36328 116.84375 301.07422 118.64062 L 292.53125 118.64062 C 291.97266 116.14062 291.11328 113.75 290.00781 111.51953 M 293.14844 122.76172 C 293.09375 121.77344 292.97266 120.79688 292.80469 119.83984 L 313.51172 119.83984 C 313.77734 120.71484 314.55469 121.36719 315.51953 121.36719 C 316.16406 121.36719 316.71875 121.06641 317.10938 120.61328 C 318.91797 121.375 320.74219 122.08984 322.58984 122.76172 Z M 329.03906 122.76172 C 330.88672 122.08984 332.71484 121.37109 334.52344 120.60938 C 334.91406 121.0625 335.47266 121.36719 336.11719 121.36719 C 337.08203 121.36719 337.85938 120.71484 338.125 119.83984 L 358.82031 119.83984 C 358.65234 120.79688 358.53516 121.77344 358.47656 122.76172 Z M 359.09766 118.64062 L 350.35938 118.64062 C 356.07031 116.84375 358.79688 113.46484 359.94922 111.51953 L 361.61719 111.51953 C 360.51562 113.75 359.65234 116.14062 359.09766 118.64062 M 293.85156 108.76953 C 288.625 107.50391 284.44141 104.625 281.29688 100.21094 L 281.29688 40.73047 C 284.03125 36.90234 288.03516 33.57422 293.90234 32.125 L 357.77734 32.125 C 363.00391 33.39062 367.1875 36.26953 370.33203 40.68359 L 370.33203 100.16406 C 367.59766 103.99609 363.59375 107.32422 357.72266 108.76953 Z M 375.42969 100.35547 L 367.01172 108.76953 L 361.59766 108.76953 C 366.17578 106.84375 369.42969 103.71094 371.74219 100.25781 L 371.83203 100.25781 L 371.83203 100.11328 C 373.45312 97.65234 374.61328 95.04688 375.42969 92.60156 Z M 375.42969 88.0625 C 374.82422 90.89453 373.74609 94.42188 371.83203 97.80469 L 371.83203 43.05859 C 372.16797 43.65625 372.51953 44.21484 372.82422 44.85547 C 374.13281 47.625 374.9375 50.41016 375.42969 52.73828 Z M 375.42969 48.29297 C 374.61328 45.84766 373.45312 43.24609 371.83203 40.78125 L 371.83203 40.64062 L 371.74219 40.64062 C 369.42969 37.18359 366.17578 34.05078 361.59766 32.125 L 367.01172 32.125 L 375.42969 40.54297 Z"/>
	</g>

	<g stroke-width="1.5">
		<path d="M 587.44922 105.70703 C 584.18359 116.16016 573.25 126.17578 566.16797 126.47266"/>
		<path d="M 387.37891 105.70703 C 390.64453 116.16016 401.57812 126.17578 408.66016 126.47266"/>
		<path d="M 587.44531 37.17187 C 584.18359 26.71875 573.25 16.70312 566.16797 16.40625"/>
		<path d="M 387.37891 37.17187 C 390.64453 26.71875 401.57422 16.70312 408.65625 16.40625"/>
	</g>
	<path d="M 393.37891 26.44922 L 393.37891 116.42969"/>
	<path d="M 581.44531 26.44922 L 581.44531 116.42969"/>

	<g stroke-width="1.5">
		<path d="M 700.17578 105.70703 C 696.91016 116.16016 685.98047 126.17578 678.89844 126.47266"/>
		<path d="M 597.84766 105.70703 C 601.11328 116.16016 612.04297 126.17578 619.125 126.47266"/>
		<path d="M 700.17578 37.17187 C 696.91016 26.71875 685.97656 16.70312 678.89453 16.40625"/>
		<path d="M 597.84766 37.17187 C 601.11328 26.71875 612.04297 16.70312 619.125 16.40625"/>
	</g>
	<g stroke="none" fill="rgb(4.017639%,3.95813%,4.968262%)">
		<path d="M 674.73438 39.79688 C 669.87891 39.79688 665.92578 43.52344 665.46484 48.25781 L 658.28125 48.25781 C 657.82031 43.52344 653.86719 39.79688 649.01172 39.79688 C 644.15625 39.79688 640.20312 43.52344 639.74219 48.25781 L 632.55859 48.25781 C 632.09766 43.52344 628.14453 39.79688 623.28906 39.79688 C 618.12891 39.79688 613.92969 43.99609 613.92969 49.15625 C 613.92969 54.31641 618.12891 58.51562 623.28906 58.51562 C 627.33984 58.51562 630.76172 55.91406 632.0625 52.30469 L 640.23828 52.30469 C 641.53906 55.91406 644.96484 58.51562 649.01172 58.51562 C 653.0625 58.51562 656.48438 55.91406 657.78516 52.30469 L 665.96094 52.30469 C 667.26172 55.91406 670.68359 58.51562 674.73438 58.51562 C 679.89453 58.51562 684.08984 54.31641 684.08984 49.15625 C 684.08984 43.99609 679.89453 39.79688 674.73438 39.79688 M 623.28906 56.71875 C 619.12109 56.71875 615.72656 53.32422 615.72656 49.15625 C 615.72656 44.98438 619.12109 41.58984 623.28906 41.58984 C 627.46094 41.58984 630.85547 44.98438 630.85547 49.15625 C 630.85547 53.32422 627.46094 56.71875 623.28906 56.71875 M 632.33984 51.41016 C 632.45312 50.96875 632.51172 50.51562 632.55859 50.05078 L 639.74219 50.05078 C 639.78906 50.51562 639.84766 50.96875 639.96094 51.41016 Z M 649.01172 56.71875 C 644.83984 56.71875 641.44922 53.32422 641.44922 49.15625 C 641.44922 44.98438 644.83984 41.58984 649.01172 41.58984 C 653.17969 41.58984 656.57422 44.98438 656.57422 49.15625 C 656.57422 53.32422 653.17969 56.71875 649.01172 56.71875 M 658.0625 51.41016 C 658.17188 50.96875 658.23438 50.51562 658.28125 50.05078 L 665.46484 50.05078 C 665.50781 50.51562 665.57031 50.96875 665.67969 51.41016 Z M 674.73438 56.71875 C 670.5625 56.71875 667.16797 53.32422 667.16797 49.15625 C 667.16797 44.98438 670.5625 41.58984 674.73438 41.58984 C 678.90234 41.58984 682.29688 44.98438 682.29688 49.15625 C 682.29688 53.32422 678.90234 56.71875 674.73438 56.71875"/>
		<path d="M 623.28906 86.70312 C 628.14453 86.70312 632.09766 82.97656 632.55469 78.23828 L 639.74219 78.23828 C 640.20312 82.97656 644.15625 86.70312 649.01172 86.70312 C 653.86328 86.70312 657.82031 82.97656 658.27734 78.23828 L 665.46484 78.23828 C 665.92578 82.97656 669.87891 86.70312 674.73438 86.70312 C 679.89453 86.70312 684.08984 82.50391 684.08984 77.34375 C 684.08984 72.18359 679.89453 67.98438 674.73438 67.98438 C 670.68359 67.98438 667.25781 70.58594 665.95703 74.19141 L 657.78125 74.19141 C 656.48438 70.58594 653.05859 67.98438 649.01172 67.98438 C 644.96094 67.98438 641.53906 70.58594 640.23828 74.19141 L 632.0625 74.19141 C 630.76172 70.58594 627.33984 67.98438 623.28906 67.98438 C 618.12891 67.98438 613.92969 72.18359 613.92969 77.34375 C 613.92969 82.50391 618.12891 86.70312 623.28906 86.70312 M 674.73438 69.78125 C 678.90234 69.78125 682.29297 73.17578 682.29297 77.34375 C 682.29297 81.51562 678.90234 84.90625 674.73438 84.90625 C 670.5625 84.90625 667.16797 81.51562 667.16797 77.34375 C 667.16797 73.17578 670.5625 69.78125 674.73438 69.78125 M 665.67969 75.08984 C 665.57031 75.53125 665.50781 75.98438 665.46484 76.44531 L 658.27734 76.44531 C 658.23438 75.98438 658.17188 75.53125 658.0625 75.08984 Z M 649.01172 69.78125 C 653.17969 69.78125 656.57422 73.17578 656.57422 77.34375 C 656.57422 81.51562 653.17969 84.90625 649.01172 84.90625 C 644.83984 84.90625 641.44531 81.51562 641.44531 77.34375 C 641.44531 73.17578 644.83984 69.78125 649.01172 69.78125 M 639.95703 75.08984 C 639.84766 75.53125 639.78516 75.98438 639.74219 76.44531 L 632.55469 76.44531 C 632.51172 75.98438 632.44922 75.53125 632.33984 75.08984 Z M 623.28906 69.78125 C 627.45703 69.78125 630.85156 73.17578 630.85156 77.34375 C 630.85156 81.51562 627.45703 84.90625 623.28906 84.90625 C 619.11719 84.90625 615.72266 81.51562 615.72266 77.34375 C 615.72266 73.17578 619.11719 69.78125 623.28906 69.78125"/>
	</g>
	<path d="M 603.84766 26.44922 L 603.84766 116.42969"/>
	<path d="M 694.17578 26.44922 L 694.17578 116.42969"/>
</g>
</svg>
