<?xml version="1.0" encoding="UTF-8"?>
<svg xmlns="http://www.w3.org/2000/svg" xmlns:xlink="http://www.w3.org/1999/xlink" width="391.37267pt" height="408.15782pt" viewBox="0 0 391.37267 408.15782" version="1.2" fill="none" stroke-miterlimit="10">

<g stroke="rgb(4.017639%,3.95813%,4.968262%)">
	<path stroke-width="2.4" d="M 1.20391 399.43047 C 3.45 399.43047 9.81328 404.64531 9.81328 406.95781 L 381.56328 406.95781 C 381.56328 404.64531 387.92656 399.43047 390.17266 399.43047 L 390.17266 8.72344 C 387.92266 8.72344 381.55937 3.5086 381.55937 1.2 L 9.81328 1.2 C 9.81328 3.5086 3.45 8.72344 1.2 8.72344 Z"/>
	<g stroke-width="1.5">
		<path d="M 390.17266 386.18828 C 386.91094 396.64141 375.97734 406.65703 368.89531 406.95782"/>
		<path d="M 1.20391 386.18828 C 4.46562 396.64141 15.39922 406.65703 22.48125 406.95782"/>
		<path d="M 390.17266 21.96563 C 386.90703 11.5125 375.97734 1.49688 368.89141 1.2"/>
		<path d="M 1.2 21.96563 C 4.46562 11.5125 15.39531 1.49688 22.47734 1.2"/>
	</g>
	<path d="M 7.2 11.24297 L 7.2 396.91094"/>
	<path d="M 384.17266 11.24297 L 384.17266 396.91094"/>
</g>

<g stroke="rgb(69.805908%,69.256592%,69.392395%)">
	<path d="M 15.69609 26.00078 L 375.64531 26.00078"/>
	<path d="M 15.69609 48.00469 L 375.64531 48.00469"/>
	<path d="M 15.69609 70.00469 L 375.64531 70.00469"/>
	<path d="M 15.69609 92.0086 L 375.64531 92.0086"/>
	<path d="M 15.69609 114.0086 L 375.64531 114.0086"/>
	<path d="M 15.69609 136.0125 L 375.64531 136.0125"/>
	<path d="M 15.69609 158.0125 L 375.64531 158.0125"/>
	<path d="M 15.69609 180.01641 L 375.64531 180.01641"/>
	<path d="M 15.69609 202.02032 L 375.64531 202.02032"/>
	<path d="M 15.69609 224.02032 L 375.64531 224.02032"/>
	<path d="M 15.69609 246.02422 L 375.64531 246.02422"/>
	<path d="M 15.69609 268.02422 L 375.64531 268.02422"/>
	<path d="M 15.69609 290.02813 L 375.64531 290.02813"/>
	<path d="M 15.69609 312.02813 L 375.64531 312.02813"/>
	<path d="M 15.69609 334.03203 L 375.64531 334.03203"/>
	<path d="M 15.69609 356.03203 L 375.64531 356.03203"/>
	<path d="M 15.69609 378.03594 L 375.64531 378.03594"/>
</g>

</svg>
