<?xml version="1.0" encoding="UTF-8"?>
<svg xmlns="http://www.w3.org/2000/svg" xmlns:xlink="http://www.w3.org/1999/xlink" width="623pt" height="479pt" viewBox="0 0 623 479" version="1.2" fill="none" stroke-miterlimit="10">

<g stroke="rgb(4.017639%,3.95813%,4.968262%)">
	<path stroke-width="2.4" d="M 1.67969 469.41406 C 3.92969 469.41406 10.29297 474.62891 10.29297 476.94141 L 612.35937 476.94141 C 612.35937 474.62891 618.72656 469.41406 620.97266 469.41406 L 620.97266 9.62891 C 618.72266 9.62891 612.35937 4.41406 612.35937 2.10156 L 10.29297 2.10156 C 10.29297 4.41406 3.92578 9.62891 1.67969 9.62891 Z"/>

	<g stroke-width="1.5">
		<path d="M 620.97266 456.17188 C 617.70703 466.62891 606.77734 476.64453 599.69531 476.94141"/>
		<path d="M 1.67969 456.17188 C 4.94531 466.62891 15.87891 476.64453 22.96094 476.94141"/>
		<path d="M 620.97266 22.87109 C 617.70703 12.41797 606.77344 2.40234 599.69141 2.10547"/>
		<path d="M 1.67969 22.87109 C 4.94531 12.41797 15.875 2.40234 22.95703 2.10547"/>
	</g>

	<path d="M 7.67969 12.14844 L 7.67969 466.89453"/>
	<path d="M 614.97266 12.14844 L 614.97266 466.89453"/>
</g>

<g stroke="rgb(69.805908%,69.256592%,69.392395%)">
	<path d="M 16.32812 30.90625 L 308.32813 30.90625"/>
	<path d="M 314.32812 30.90625 L 606.32812 30.90625"/>
	<path d="M 16.32812 52.90625 L 308.32813 52.90625"/>
	<path d="M 314.32812 52.90625 L 606.32812 52.90625"/>
	<path d="M 16.32812 74.90625 L 308.32813 74.90625"/>
	<path d="M 314.32812 74.90625 L 606.32812 74.90625"/>
	<path d="M 16.32812 96.91016 L 308.32813 96.91016"/>
	<path d="M 314.32812 96.91016 L 606.32812 96.91016"/>
	<path d="M 16.32812 118.91016 L 308.32813 118.91016"/>
	<path d="M 314.32812 118.91016 L 606.32812 118.91016"/>
	<path d="M 16.32812 140.91016 L 308.32813 140.91016"/>
	<path d="M 314.32812 140.91016 L 606.32812 140.91016"/>
	<path d="M 16.32812 162.91406 L 308.32813 162.91406"/>
	<path d="M 314.32812 162.91406 L 606.32812 162.91406"/>
	<path d="M 16.32812 184.91406 L 308.32813 184.91406"/>
	<path d="M 314.32812 184.91406 L 606.32812 184.91406"/>
	<path d="M 16.32812 206.91406 L 308.32813 206.91406"/>
	<path d="M 314.32812 206.91406 L 606.32812 206.91406"/>
	<path d="M 16.32812 228.91797 L 308.32813 228.91797"/>
	<path d="M 314.32812 228.91797 L 606.32812 228.91797"/>
	<path d="M 16.32812 250.91797 L 308.32813 250.91797"/>
	<path d="M 314.32812 250.91797 L 606.32812 250.91797"/>
	<path d="M 16.32812 272.91797 L 308.32813 272.91797"/>
	<path d="M 314.32812 272.91797 L 606.32812 272.91797"/>
	<path d="M 16.32812 294.92188 L 308.32813 294.92188"/>
	<path d="M 314.32812 294.92188 L 606.32812 294.92188"/>
	<path d="M 16.32812 316.92187 L 308.32813 316.92187"/>
	<path d="M 314.32812 316.92187 L 606.32812 316.92187"/>
	<path d="M 16.32812 338.92188 L 308.32813 338.92188"/>
	<path d="M 314.32812 338.92188 L 606.32812 338.92188"/>
	<path d="M 16.32812 360.92578 L 308.32813 360.92578"/>
	<path d="M 314.32812 360.92578 L 606.32812 360.92578"/>
	<path d="M 16.32812 382.92578 L 308.32813 382.92578"/>
	<path d="M 314.32812 382.92578 L 606.32812 382.92578"/>
	<path d="M 16.32812 404.92969 L 308.32813 404.92969"/>
	<path d="M 314.32812 404.92969 L 606.32812 404.92969"/>
	<path d="M 16.32812 426.92969 L 308.32813 426.92969"/>
	<path d="M 314.32812 426.92969 L 606.32812 426.92969"/>

	<path d="M 250.32422 426.92969 L 250.32422 10.90234"/>
	<path d="M 275.32422 446.92969 L 275.32422 10.90234"/>
	<path d="M 548.32422 426.92969 L 548.32422 10.90234"/>
	<path d="M 573.32422 446.92969 L 573.32422 10.90234"/>
</g>

</svg>
