<?xml version="1.0" encoding="UTF-8"?>
<svg xmlns="http://www.w3.org/2000/svg" xmlns:xlink="http://www.w3.org/1999/xlink" width="460pt" height="660pt" viewBox="0 0 460 660" version="1.2" stroke-miterlimit="10">
<g fill="rgb(87.059021%,86.824036%,86.882019%)">
	<path d="M 450.84375 1.10547 C 451.71875 3.73828 456.61328 7.79688 459.32031 8.51953 L 459.32031 17.24219 C 456.02344 10.40234 449.78516 3.93359 444.00391 1.10547 Z"/>
	<path d="M 9.0 1.10547 L 15.83984 1.10547 C 10.05859 3.93359 3.82422 10.40234 0.52734 17.24219 L 0.52734 8.51953 C 3.23047 7.79688 8.125 3.73828 9.0 1.10547"/>
	<path d="M 9.00391 659.07422 C 8.12891 656.44531 3.23438 652.38672 0.52734 651.66016 L 0.52734 642.94141 C 3.82422 649.78125 10.05859 656.24609 15.83984 659.07422 Z"/>
	<path d="M 21.08594 659.07422 C 16.95312 658.90234 11.09766 655.03906 6.52734 649.54297 L 6.52734 10.63672 C 11.09766 5.14062 16.95312 1.28125 21.08594 1.10938 L 438.75781 1.10938 C 442.89453 1.28125 448.74609 5.14062 453.32031 10.64062 L 453.32031 649.54297 C 448.74609 655.04297 442.89453 658.90234 438.76172 659.07422 Z"/>
	<path d="M 450.84375 659.07422 L 444.00781 659.07422 C 449.78516 656.24609 456.02344 649.78125 459.32031 642.94141 L 459.32031 651.66016 C 456.61328 652.38672 451.71875 656.44531 450.84375 659.07422"/>
	<path d="M 0.52734 638.92969 L 0.52734 21.25391 C 1.49609 18.19141 3.09766 15.24219 5.02734 12.57812 L 5.02734 647.60156 C 3.09766 644.9375 1.49609 641.98828 0.52734 638.92969"/>
	<path d="M 459.32031 21.25391 L 459.32031 638.92969 C 458.35156 641.98828 456.75 644.94141 454.82031 647.60547 L 454.82031 12.58203 C 456.75 15.24609 458.35156 18.19531 459.32031 21.25391"/>
</g>

<g fill="white" stroke-width="2" stroke="rgb(4.017639%,3.95813%,4.968262%)">
	<path d="M 18.91016 178.11328 L 22.14063 178.11328 C 22.14063 184.35547 41.63281 184.35547 41.63281 178.11328 L 418.21484 178.11328 C 418.21484 184.35547 437.70313 184.35547 437.70313 178.11328 L 440.9375 178.11328 L 440.9375 320.10547 L 437.70313 320.10547 C 437.70313 313.86719 418.21484 313.86719 418.21484 320.10547 L 41.63281 320.10547 C 41.63281 313.86719 22.14063 313.86719 22.14063 320.10547 L 18.91016 320.10547 Z"/>
	<path d="M 18.91016 334.12891 L 22.14063 334.12891 C 22.14063 340.37109 41.63281 340.37109 41.63281 334.12891 L 418.21484 334.12891 C 418.21484 340.37109 437.70313 340.37109 437.70313 334.12891 L 440.9375 334.12891 L 440.9375 476.12109 L 437.70313 476.12109 C 437.70313 469.88281 418.21484 469.88281 418.21484 476.12109 L 41.63281 476.12109 C 41.63281 469.88281 22.14063 469.88281 22.14063 476.12109 L 18.91016 476.12109 Z"/>
	<path d="M 41.63281 164.11328 C 41.63281 157.87109 22.14063 157.87109 22.14063 164.11328 L 18.91016 164.11328 L 18.91016 29.63281 C 21.16016 29.63281 27.52344 24.42187 27.52344 22.10937 L 432.32422 22.10937 C 432.32422 24.42187 438.6875 29.63281 440.93359 29.63281 L 440.9375 164.11328 L 437.70703 164.11328 C 437.70703 157.87109 418.21484 157.87109 418.21484 164.11328 Z"/>
	<path d="M 418.21484 490.09375 C 418.21484 496.33594 437.70703 496.33594 437.70703 490.09375 L 440.9375 490.09375 L 440.93359 624.57422 C 438.6875 624.57422 432.32422 629.78516 432.32422 632.09766 L 27.52344 632.09766 C 27.52344 629.78516 21.16016 624.57422 18.91016 624.57422 L 18.91016 490.09375 L 22.14062 490.09375 C 22.14062 496.33594 41.63281 496.33594 41.63281 490.09375 Z"/>
</g>

<g fill="none" stroke="rgb(4.017639%,3.95813%,4.968262%)">
	<g stroke-width="1.5">
		<path d="M 440.93359 42.875 C 437.67187 32.42187 426.73828 22.40625 419.65625 22.10937"/>
		<path d="M 18.91016 42.875 C 22.17578 32.42187 33.10547 22.40625 40.1875 22.10937"/>
		<path d="M 18.91016 611.33203 C 22.17578 621.78516 33.10547 631.80078 40.1875 632.09766"/>
		<path d="M 440.93359 611.33203 C 437.67187 621.78516 426.73828 631.80078 419.65625 632.09766"/>
	</g>

	<path d="M 22.91016 34.64062 L 22.91016 89.43359 C 22.91016 152.68359 18.91016 137.99609 18.91016 164.11328"/>
	<path d="M 22.91016 619.56641 L 22.91016 564.77344 C 22.91016 501.52344 18.91016 516.21094 18.91016 490.09375"/>
	<path d="M 18.91016 178.11328 C 18.91016 204.23047 22.91016 185.85937 22.91016 249.10937 C 22.91016 312.35937 18.91016 293.98828 18.91016 320.10547"/>
	<path d="M 18.91016 334.12891 C 18.91016 360.24609 22.91016 341.875 22.91016 405.125 C 22.91016 468.375 18.91016 450.00391 18.91016 476.12109"/>

	<path d="M 439.9375 178.11328 C 439.9375 204.23047 436.9375 185.85937 436.9375 249.10937 C 436.9375 312.35937 439.9375 293.98828 439.9375 320.10547"/>
	<path d="M 439.9375 334.12891 C 439.9375 360.24609 436.9375 341.875 436.9375 405.125 C 436.9375 468.375 439.9375 450.00391 439.9375 476.12109"/>
	<path d="M 436.93359 34.64062 L 436.93359 89.43359 C 436.93359 152.68359 440.9375 137.99609 440.9375 164.11328"/>
	<path d="M 436.93359 619.56641 L 436.93359 564.77344 C 436.93359 501.52344 440.9375 516.21094 440.9375 490.09375"/>
</g>

<g fill="none" stroke="rgb(69.805908%,69.256592%,69.392395%)">
	<path d="M 30.85 76.22 L 429 76.22"/>
	<path d="M 30.85 98.22 L 429 98.22"/>
	<path d="M 30.85 120.22 L 429 120.22"/>
	<path d="M 30.85 142.22 L 429 142.22"/>

	<path d="M 30.85 232.21 L 429 232.21"/>
	<path d="M 30.85 254.21 L 429 254.21"/>
	<path d="M 30.85 276.21 L 429 276.21"/>
	<path d="M 30.85 298.21 L 429 298.21"/>

	<path d="M 30.85 388.23 L 429 388.23"/>
	<path d="M 30.85 410.23 L 429 410.23"/>
	<path d="M 30.85 432.23 L 429 432.23"/>
	<path d="M 30.85 454.23 L 429 454.23"/>

	<path d="M 30.85 544.18 L 429 544.18"/>
	<path d="M 30.85 566.18 L 429 566.18"/>
	<path d="M 30.85 588.18 L 429 588.18"/>
	<path d="M 30.85 610.18 L 429 610.18"/>
</g>
</svg>
