<?xml version="1.0" encoding="UTF-8"?>
<svg xmlns="http://www.w3.org/2000/svg" xmlns:xlink="http://www.w3.org/1999/xlink" width="460pt" height="816pt" viewBox="0 0 460 816" version="1.2" stroke-miterlimit="10">
<g fill="rgb(87.059021%,86.824036%,86.882019%)">
	<path d="M 450.84375 0.80078 C 451.71875 3.42969 456.61328 7.48828 459.32031 8.21484 L 459.32031 16.93359 C 456.02344 10.09375 449.78516 3.62891 444.00391 0.80078 Z"/>
	<path d="M 9.0 0.80078 L 15.83984 0.80078 C 10.05859 3.62891 3.82422 10.09375 0.52734 16.93359 L 0.52734 8.21094 C 3.23047 7.48828 8.125 3.42969 9.0 0.80078"/>
	<path d="M 9.00391 814.91016 C 8.12891 812.27734 3.23438 808.21875 0.52734 807.49609 L 0.52734 798.77344 C 3.82422 805.61328 10.05859 812.08203 15.83984 814.91016 Z"/>
	<path d="M 21.08594 814.91016 C 16.95312 814.73828 11.09766 810.875 6.52734 805.375 L 6.52734 10.33203 C 11.09766 4.83203 16.95312 0.97266 21.08594 0.79688 L 438.75781 0.79688 C 442.89453 0.97266 448.74609 4.83594 453.32031 10.33203 L 453.32031 805.375 C 448.74609 810.875 442.89453 814.73828 438.76172 814.91016 Z"/>
	<path d="M 450.84375 814.91016 L 444.00781 814.91016 C 449.78516 812.08203 456.02344 805.61328 459.32031 798.77344 L 459.32031 807.49609 C 456.61328 808.21875 451.71875 812.27734 450.84375 814.91016"/>
	<path d="M 0.52734 794.76172 L 0.52734 20.94141 C 1.49609 17.88281 3.09766 14.93359 5.02734 12.26953 L 5.02734 803.43359 C 3.09766 800.76953 1.49609 797.82422 0.52734 794.76172"/>
	<path d="M 459.32031 20.94531 L 459.32031 794.76172 C 458.35156 797.82422 456.75 800.77344 454.82031 803.4375 L 454.82031 12.27344 C 456.75 14.9375 458.35156 17.88672 459.32031 20.94531"/>
</g>

<g fill="white" stroke-width="2" stroke="rgb(4.017639%,3.95813%,4.968262%)">
	<path d="M 18.91016 177.43359 L 22.14063 177.43359 C 22.14063 183.67187 41.63281 183.67187 41.63281 177.43359 L 418.21484 177.43359 C 418.21484 183.67187 437.70313 183.67187 437.70313 177.43359 L 440.9375 177.43359 L 440.9375 319.42578 L 437.70313 319.42578 C 437.70313 313.18359 418.21484 313.18359 418.21484 319.42578 L 41.63281 319.42578 C 41.63281 313.18359 22.14063 313.18359 22.14063 319.42578 L 18.91016 319.42578 Z"/>
	<path d="M 41.63281 163.42969 C 41.63281 157.19141 22.14063 157.19141 22.14063 163.42969 L 18.91016 163.42969 L 18.91016 28.95312 C 21.16016 28.95312 27.52344 23.73828 27.52344 21.42578 L 432.32422 21.42578 C 432.32422 23.73828 438.6875 28.95312 440.93359 28.95312 L 440.9375 163.42969 L 437.70703 163.42969 C 437.70703 157.19141 418.21484 157.19141 418.21484 163.42969 Z"/>
	<path d="M 18.91016 333.44922 L 22.14063 333.44922 C 22.14063 339.6875 41.63281 339.6875 41.63281 333.44922 L 418.21484 333.44922 C 418.21484 339.6875 437.70313 339.6875 437.70313 333.44922 L 440.9375 333.44922 L 440.9375 475.44141 L 437.70313 475.44141 C 437.70313 469.19922 418.21484 469.19922 418.21484 475.44141 L 41.63281 475.44141 C 41.63281 469.19922 22.14063 469.19922 22.14063 475.44141 L 18.91016 475.44141 Z"/>
	<path d="M 18.91016 489.46094 L 22.14063 489.46094 C 22.14063 495.70312 41.63281 495.70312 41.63281 489.46094 L 418.21484 489.46094 C 418.21484 495.70312 437.70313 495.70312 437.70313 489.46094 L 440.9375 489.46094 L 440.9375 631.45312 L 437.70313 631.45312 C 437.70313 625.21484 418.21484 625.21484 418.21484 631.45312 L 41.63281 631.45312 C 41.63281 625.21484 22.14063 625.21484 22.14063 631.45312 L 18.91016 631.45312 Z"/>
	<path d="M 418.21484 645.42969 C 418.21484 651.66797 437.70703 651.66797 437.70703 645.42969 L 440.9375 645.42969 L 440.93359 779.90625 C 438.6875 779.90625 432.32422 785.12109 432.32422 787.43359 L 27.52344 787.43359 C 27.52344 785.12109 21.16016 779.90625 18.91016 779.90625 L 18.91016 645.42969 L 22.14062 645.42969 C 22.14062 651.66797 41.63281 651.66797 41.63281 645.42969 Z"/>
</g>

<g fill="none" stroke-width="1.5" stroke="rgb(4.017639%,3.95813%,4.968262%)">
	<path d="M 440.93359 42.19531 C 437.67187 31.73828 426.73828 21.72266 419.65625 21.42578"/>
	<path d="M 18.91016 42.19531 C 22.17578 31.73828 33.10547 21.72266 40.1875 21.42578"/>
	<path d="M 18.91016 766.66406 C 22.17578 777.11719 33.10547 787.13281 40.1875 787.43359"/>
	<path d="M 440.93359 766.66406 C 437.67187 777.11719 426.73828 787.13281 419.65625 787.43359"/>
</g>

<g fill="none" stroke="rgb(69.805908%,69.256592%,69.392395%)">
	<path d="M 30.84766 75.54297 L 429.0 75.54297"/>
	<path d="M 30.84766 97.54297 L 429.0 97.54297"/>
	<path d="M 30.84766 119.54297 L 429.0 119.54297"/>
	<path d="M 30.84766 141.54297 L 429.0 141.54297"/>

	<path d="M 30.84766 231.53516 L 429.0 231.53516"/>
	<path d="M 30.84766 253.53125 L 429.0 253.53125"/>
	<path d="M 30.84766 275.53516 L 429.0 275.53516"/>
	<path d="M 30.84766 297.53516 L 429.0 297.53516"/>

	<path d="M 30.84766 387.54688 L 429.0 387.54688"/>
	<path d="M 30.84766 409.54688 L 429.0 409.54688"/>
	<path d="M 30.84766 431.55078 L 429.0 431.55078"/>
	<path d="M 30.84766 453.55078 L 429.0 453.55078"/>

	<path d="M 30.84766 543.5625 L 429.0 543.5625"/>
	<path d="M 30.84766 565.5625 L 429.0 565.5625"/>
	<path d="M 30.84766 587.5625 L 429.0 587.5625"/>
	<path d="M 30.84766 609.56641 L 429.0 609.56641"/>

	<path d="M 30.84766 699.51562 L 429.0 699.51562"/>
	<path d="M 30.84766 721.51562 L 429.0 721.51562"/>
	<path d="M 30.84766 743.51562 L 429.0 743.51562"/>
	<path d="M 30.84766 765.51562 L 429.0 765.51562"/>
</g>

<g fill="none" stroke="rgb(4.017639%,3.95813%,4.968262%)">
	<path d="M 22.91016 33.95703 L 22.91016 88.75 C 22.91016 152.0 18.91016 137.31641 18.91016 163.42969"/>
	<path d="M 22.91016 774.89844 L 22.91016 720.10547 C 22.91016 656.85547 18.91016 671.54297 18.91016 645.42578"/>

	<path d="M 18.91016 177.43359 C 18.91016 203.54687 22.91016 185.17969 22.91016 248.42969 C 22.91016 311.67969 18.91016 293.30859 18.91016 319.42578"/>
	<path d="M 18.91016 333.44922 C 18.91016 359.5625 22.91016 341.19531 22.91016 404.44531 C 22.91016 467.69531 18.91016 449.32422 18.91016 475.44141"/>

	<path d="M 18.91016 489.46094 C 18.91016 515.57812 22.91016 497.20703 22.91016 560.45703 C 22.91016 623.70703 18.91016 605.33984 18.91016 631.45312"/>
	<path d="M 439.9375 177.43359 C 439.9375 203.54687 436.9375 185.17969 436.9375 248.42969 C 436.9375 311.67969 439.9375 293.30859 439.9375 319.42578"/>

	<path d="M 439.9375 333.44922 C 439.9375 359.5625 436.9375 341.19531 436.9375 404.44531 C 436.9375 467.69531 439.9375 449.32422 439.9375 475.44141"/>
	<path d="M 439.9375 489.46094 C 439.9375 515.57812 436.9375 497.20703 436.9375 560.45703 C 436.9375 623.70703 439.9375 605.33984 439.9375 631.45312"/>

	<path d="M 436.93359 33.95703 L 436.93359 88.75 C 436.93359 152.0 440.9375 137.31641 440.9375 163.42969"/>
	<path d="M 436.93359 774.89844 L 436.93359 720.10547 C 436.93359 656.85547 440.9375 671.54297 440.9375 645.42578"/>
</g>
</svg>
