<?xml version="1.0" encoding="UTF-8"?>
<svg xmlns="http://www.w3.org/2000/svg" xmlns:xlink="http://www.w3.org/1999/xlink" width="623pt" height="787pt" viewBox="0 0 623 787" version="1.2" stroke-miterlimit="10">
<g fill="none" stroke="rgb(4.017639%,3.95813%,4.968262%)">
	<path stroke-width="2.4" d="M 1.67969 777.17578 C 3.92969 777.17578 10.29297 782.39062 10.29297 784.69922 L 612.35937 784.69922 C 612.35937 782.39062 618.72656 777.17578 620.97266 777.17578 L 620.97266 9.83203 C 618.72266 9.83203 612.35937 4.62109 612.35937 2.30859 L 10.29297 2.30859 C 10.29297 4.62109 3.92578 9.83203 1.67969 9.83203 Z"/>
	<g stroke-width="1.5">
		<path d="M 620.97266 763.93359 C 617.70703 774.38672 606.77734 784.40234 599.69531 784.69922"/>
		<path d="M 1.67969 763.93359 C 4.94531 774.38672 15.87891 784.40234 22.96094 784.69922"/>
		<path d="M 620.97266 23.07422 C 617.70703 12.62109 606.77344 2.60547 599.69141 2.30859"/>
		<path d="M 1.67969 23.07422 C 4.94531 12.62109 15.875 2.60547 22.95703 2.30859"/>
	</g>
	<path d="M 7.67969 12.35156 L 7.67969 774.65625"/>
	<path d="M 614.97266 12.35156 L 614.97266 774.65625"/>
</g>
<g fill="none" stroke="rgb(69.805908%,69.256592%,69.392395%)">
	<path d="M 16  28 L 606  28"/>
	<path d="M 16  50 L 606  50"/>
	<path d="M 16  72 L 606  72"/>
	<path d="M 16  94 L 606  94"/>
	<path d="M 16 116 L 606 116"/>
	<path d="M 16 138 L 606 138"/>
	<path d="M 16 160 L 606 160"/>
	<path d="M 16 182 L 606 182"/>
	<path d="M 16 204 L 606 204"/>
	<path d="M 16 226 L 606 226"/>
	<path d="M 16 248 L 606 248"/>
	<path d="M 16 270 L 606 270"/>
	<path d="M 16 292 L 606 292"/>
	<path d="M 16 314 L 606 314"/>
	<path d="M 16 336 L 606 336"/>
	<path d="M 16 358 L 606 358"/>
	<path d="M 16 380 L 606 380"/>
	<path d="M 16 402 L 606 402"/>
	<path d="M 16 424 L 606 424"/>
	<path d="M 16 446 L 606 446"/>
	<path d="M 16 468 L 606 468"/>
	<path d="M 16 490 L 606 490"/>
	<path d="M 16 512 L 606 512"/>
	<path d="M 16 534 L 606 534"/>
	<path d="M 16 556 L 606 556"/>
	<path d="M 16 578 L 606 578"/>
	<path d="M 16 600 L 606 600"/>
	<path d="M 16 622 L 606 622"/>
	<path d="M 16 644 L 606 644"/>
	<path d="M 16 666 L 606 666"/>
	<path d="M 16 688 L 606 688"/>
	<path d="M 16 710 L 606 710"/>
	<path d="M 16 732 L 606 732"/>
	<path d="M 16 754 L 606 754"/>
</g>
</svg>
