<?xml version="1.0" encoding="UTF-8"?>
<svg xmlns="http://www.w3.org/2000/svg" xmlns:xlink="http://www.w3.org/1999/xlink" width="623pt" height="193pt" viewBox="0 0 623 193" version="1.2" fill="none" stroke-miterlimit="10">
<g stroke="rgb(4.017639%,3.95813%,4.968262%)">
	<path style="stroke-width:2.4" d="M 1.67969 183.67969 C 3.92969 183.67969 10.29297 188.89453 10.29297 191.20703 L 612.35937 191.20703 C 612.35937 188.89453 618.72656 183.67969 620.97266 183.67969 L 620.97266 9.87109 C 618.72266 9.87109 612.35937 4.65625 612.35937 2.34375 L 10.29297 2.34375 C 10.29297 4.65625 3.92578 9.87109 1.67969 9.87109 Z"/>
	<g stroke-width="1.5">
		<path d="M 620.97266 170.4375 C 617.70703 180.89453 606.77734 190.91016 599.69531 191.20703"/>
		<path d="M 1.67969 170.4375 C 4.94531 180.89453 15.87891 190.91016 22.96094 191.20703"/>
		<path d="M 620.97266 23.11328 C 617.70703 12.65625 606.77344 2.64062 599.69141 2.34375"/>
		<path d="M 1.67969 23.11328 C 4.94531 12.65625 15.875 2.64062 22.95703 2.34375"/>
	</g>
	<path d="M 7.67969 12.38672 L 7.67969 181.16406"/>
	<path d="M 614.97266 12.38672 L 614.97266 181.16406"/>
</g>
<g stroke="rgb(69.805908%,69.256592%,69.392395%)">
	<path d="M 16.32812 29.89063 L 606.32812 29.89063"/>
	<path d="M 16.32812 51.89062 L 606.32812 51.89062"/>
	<path d="M 16.32812 73.89062 L 606.32812 73.89062"/>
	<path d="M 16.32812 95.89453 L 606.32812 95.89453"/>
	<path d="M 16.32812 117.89453 L 606.32812 117.89453"/>
	<path d="M 16.32812 139.89453 L 606.32812 139.89453"/>
	<path d="M 16.32812 161.89844 L 606.32812 161.89844"/>
</g>
</svg>
