<?xml version="1.0" encoding="UTF-8"?>
<svg xmlns="http://www.w3.org/2000/svg" width="458.79064px" height="300.21251px" viewBox="0 0 458.79064 300.21251" version="1.2">
<g fill="none" stroke="rgb(4.017639%,3.95813%,4.968262%)">
	<path stroke-width="2.4" d="M 1.20391 291.48516 C 3.45 291.48516 9.81329 296.7 9.81329 299.0125 L 448.98125 299.0125 C 448.98125 296.7 455.34454 291.48516 457.59063 291.48516 L 457.59063 8.72734 C 455.34063 8.72734 448.97735 3.5125 448.97735 1.2 L 9.81329 1.2 C 9.81329 3.5125 3.45 8.72734 1.20001 8.72734 Z"/>
	<g stroke-width="1.5">
		<path d="M 457.59063 278.24297 C 454.32891 288.69609 443.39532 298.71172 436.31329 299.0125"/>
		<path d="M 1.20391 278.24297 C 4.46563 288.69609 15.39922 298.71172 22.48125 299.0125"/>
		<path d="M 457.59063 21.96953 C 454.325 11.5164 443.39532 1.50078 436.30938 1.2"/>
		<path d="M 1.2 21.96953 C 4.46563 11.5164 15.39922 1.50078 22.47735 1.2"/>
	</g>
	<path d="M 7.20001 11.24687 L 7.20001 288.96562"/>
	<path d="M 451.59063 11.24687 L 451.59063 288.96562"/>
</g>
</svg>
