<?xml version="1.0" encoding="UTF-8"?>
<svg xmlns="http://www.w3.org/2000/svg" width="459.79689px" height="707.07812px" viewBox="0 0 459.79689 707.07812" version="1.2">
<g id="grey_backround" fill="rgb(87.059021%,86.824036%,86.882019%)">
	<path d="M 450.81641 0.5 C 451.69531 3.13281 456.58594 7.19141 459.29297 7.91406 L 459.29297 16.63672 C 455.99609 9.79687 449.76172 3.32812 443.98047 0.5 Z"/>
	<path d="M 8.97656 0.5 L 15.81641 0.5 C 10.03516 3.32812 3.79688 9.79687 0.5 16.63672 L 0.5 7.91406 C 3.20703 7.19141 8.10156 3.13281 8.97656 0.5"/>
	<path d="M 8.98047 706.57812 C 8.10156 703.94922 3.20703 699.89062 0.50391 699.16797 L 0.50391 690.44531 C 3.80078 697.28516 10.03516 703.75 15.81641 706.57812 Z"/>
	<path d="M 21.0625 706.57812 C 16.92578 706.40625 11.07422 702.54687 6.50391 697.04687 L 6.50391 10.03516 C 11.07422 4.53516 16.92578 0.67578 21.0625 0.5 L 438.73047 0.5 C 442.86719 0.67578 448.72266 4.53906 453.29297 10.03516 L 453.29297 697.04687 C 448.72266 702.54687 442.87109 706.40625 438.73438 706.57812 Z"/>
	<path d="M 450.82031 706.57812 L 443.98047 706.57812 C 449.76172 703.75 455.99609 697.28516 459.29688 690.44531 L 459.29688 699.16797 C 456.58984 699.89062 451.69531 703.94922 450.82031 706.57812"/>
	<path d="M 0.50391 686.43359 L 0.5 20.64453 C 1.46875 17.58594 3.07031 14.63672 5.00391 11.97266 L 5.00391 695.10547 C 3.07031 692.4414 1.46875 689.49609 0.50391 686.43359"/>
	<path d="M 459.29297 20.64844 L 459.29297 686.43359 C 458.32812 689.49609 456.72656 692.44531 454.79297 695.10937 L 454.79297 11.97656 C 456.72656 14.64062 458.32812 17.58984 459.29297 20.64844"/>
</g>

<g id="white_panes" fill="white" stroke-width="2" stroke="rgb(4.017639%,3.95813%,4.968262%)">
	<path d="M 18.88672 189.50781 L 22.11719 189.50781 C 22.11719 195.75 41.60938 195.75 41.60938 189.50781 L 418.1875 189.50781 C 418.1875 195.75 437.67969 195.75 437.67969 189.50781 L 440.91016 189.50781 L 440.91016 343.5 L 437.67969 343.5 C 437.67969 337.26172 418.1875 337.26172 418.1875 343.5 L 41.60938 343.5 C 41.60938 337.26172 22.11719 337.26172 22.11719 343.5 L 18.88672 343.5 Z"/>
	<path d="M 18.88672 357.5 L 22.11719 357.5 C 22.11719 363.74219 41.60938 363.74219 41.60938 357.5 L 418.1875 357.5 C 418.1875 363.74219 437.67969 363.74219 437.67969 357.5 L 440.91016 357.5 L 440.91016 511.49219 L 437.67969 511.49219 C 437.67969 505.2539 418.1875 505.2539 418.1875 511.49219 L 41.60938 511.49219 C 41.60938 505.2539 22.11719 505.2539 22.11719 511.49219 L 18.88672 511.49219 Z"/>
	<path d="M 41.60937 175.50781 C 41.60937 169.26562 22.11719 169.26562 22.11719 175.50781 L 18.88281 175.50781 L 18.88672 29.02734 C 21.13281 29.02734 27.49609 23.8164 27.49609 21.5039 L 432.29688 21.5039 C 432.29688 23.8164 438.66016 29.02734 440.91016 29.02734 L 440.91016 175.50781 L 437.67969 175.50781 C 437.67969 169.26562 418.1875 169.26562 418.1875 175.50781 Z"/>
	<path d="M 418.1875 525.4375 C 418.1875 531.67969 437.67969 531.67969 437.67969 525.4375 L 440.91016 525.4375 L 440.91016 671.91797 C 438.66016 671.91797 432.29687 677.1289 432.29687 679.4414 L 27.49609 679.4414 C 27.49609 677.1289 21.13281 671.91797 18.88672 671.91797 L 18.88281 525.4375 L 22.11719 525.4375 C 22.11719 531.67969 41.60937 531.67969 41.60937 525.4375 Z"/>
</g>

<g id="detail_lines" fill="none" stroke="rgb(4.017639%,3.95813%,4.968262%)">
	<g stroke-width="1.5">
		<path d="M 440.91016 42.26953 C 437.64453 31.8164 426.71484 21.80078 419.63281 21.5039"/>
		<path d="M 18.88672 42.26953 C 22.14844 31.8164 33.08203 21.80078 40.16406 21.5039"/>
		<path d="M 18.88672 658.67578 C 22.14844 669.1289 33.08203 679.14453 40.16406 679.4414"/>
		<path d="M 440.91016 658.67578 C 437.64453 669.1289 426.71484 679.14453 419.63281 679.4414"/>
	</g>
	<path d="M 22.88672 34.03515 L 22.88672 100.82812 C 22.88672 164.07812 18.88281 149.39062 18.88281 175.50781"/>
	<path d="M 22.88672 666.91016 L 22.88672 600.11719 C 22.88672 536.86719 18.88281 551.55469 18.88281 525.4375"/>
	<path d="M 18.88672 189.50781 C 18.88672 215.625 22.88672 203.2539 22.88672 266.5039 C 22.88672 329.7539 18.88672 317.38672 18.88672 343.5"/>
	<path d="M 18.88672 357.5 C 18.88672 383.61719 22.88672 371.24609 22.88672 434.49609 C 22.88672 497.74609 18.88672 485.3789 18.88672 511.49219"/>
	<path d="M 439.91016 189.50781 C 439.91016 215.625 436.91016 203.2539 436.91016 266.5039 C 436.91016 329.7539 439.91016 317.38672 439.91016 343.5"/>
	<path d="M 439.91016 357.5 C 439.91016 383.61719 436.91016 371.24609 436.91016 434.49609 C 436.91016 497.74609 439.91016 485.3789 439.91016 511.49219"/>
	<path d="M 436.91016 34.03515 L 436.91016 100.82812 C 436.91016 164.07812 440.91016 149.39062 440.91016 175.50781"/>
	<path d="M 436.91016 666.91016 L 436.91016 600.11719 C 436.91016 536.86719 440.91016 551.55469 440.91016 525.4375"/>
</g>

<g id="grey_lines" fill="none" stroke="rgb(69.805908%,69.256592%,69.392395%)">
	<path d="M 30.82031 75.61719 L 428.97266 75.61719"/>
	<path d="M 30.82031 97.61719 L 428.97266 97.61719"/>
	<path d="M 30.82031 119.61719 L 428.97266 119.61719"/>
	<path d="M 30.82031 141.61719 L 428.97266 141.61719"/>
	<path d="M 30.82031 163.61719 L 428.97266 163.61719"/>
	<path d="M 30.82031 243.60937 L 428.97266 243.60937"/>
	<path d="M 30.82031 265.60937 L 428.97266 265.60937"/>
	<path d="M 30.82031 287.60937 L 428.97266 287.60937"/>
	<path d="M 30.82031 309.61328 L 428.97266 309.61328"/>
	<path d="M 30.82031 331.61328 L 428.97266 331.61328"/>
	<path d="M 30.82031 411.60156 L 428.97266 411.60156"/>
	<path d="M 30.82031 433.60156 L 428.97266 433.60156"/>
	<path d="M 30.82031 455.60156 L 428.97266 455.60156"/>
	<path d="M 30.82031 477.60547 L 428.97266 477.60547"/>
	<path d="M 30.82031 499.60547 L 428.97266 499.60547"/>
	<path d="M 30.82031 579.55078 L 428.97266 579.55078"/>
	<path d="M 30.82031 601.55078 L 428.97266 601.55078"/>
	<path d="M 30.82031 623.55078 L 428.97266 623.55078"/>
	<path d="M 30.82031 645.55469 L 428.97266 645.55469"/>
	<path d="M 30.82031 667.55469 L 428.97266 667.55469"/>
</g>
</svg>
