<?xml version="1.0" encoding="UTF-8"?>
<svg xmlns="http://www.w3.org/2000/svg" width="458.79064px" height="258.16173px" viewBox="0 0 458.79064 258.16173" version="1.2">
<g fill="none" stroke="rgb(4.017639%,3.95813%,4.968262%)">
	<path stroke-width="2.4" d="M 1.20391 249.43438 C 3.45 249.43438 9.81329 254.64922 9.81329 256.96172 L 448.98125 256.96172 C 448.98125 254.64922 455.34454 249.43438 457.59063 249.43438 L 457.59063 8.72735 C 455.34063 8.72735 448.97735 3.51641 448.97735 1.2 L 9.81329 1.2 C 9.81329 3.51641 3.45 8.72735 1.20001 8.72735 Z"/>
	<g stroke-width="1.5">
		<path d="M 457.59063 236.19219 C 454.32891 246.64531 443.39532 256.66094 436.31329 256.96172"/>
		<path d="M 1.20391 236.19219 C 4.46563 246.64531 15.39922 256.66094 22.48125 256.96172"/>
		<path d="M 457.59063 21.96953 C 454.325 11.51641 443.39532 1.50078 436.30938 1.20391"/>
		<path d="M 1.2 21.96953 C 4.46563 11.51641 15.39922 1.50078 22.47735 1.20391"/>
	</g>
	<path d="M 7.20001 11.24688 L 7.20001 246.91485"/>
	<path d="M 451.59063 11.24688 L 451.59063 246.91485"/>
</g>
</svg>
