<?xml version="1.0" encoding="UTF-8"?>
<svg xmlns="http://www.w3.org/2000/svg" width="618.05079px" height="1493.92969px" viewBox="0 0 618.05079 1493.92969" version="1.2">
	<g id="grey_frame" fill="rgb(87.059021%,86.824036%,86.882019%)">
		<path d="M 609.07422 0.5 C 609.94922 3.13281 614.84376 7.19141 617.55079 7.91406 L 617.55079 16.63672 C 614.25391 9.79687 608.01954 3.32812 602.23438 0.5 Z"/>
		<path d="M 8.97657 0.5 L 15.81641 0.5 C 10.03516 3.32812 3.80079 9.79687 0.50001 16.63672 L 0.50001 7.91406 C 3.20704 7.19141 8.10157 3.13281 8.97657 0.5"/>
		<path d="M 8.98047 1493.42969 C 8.10157 1490.79687 3.21094 1486.73828 0.50391 1486.01562 L 0.50391 1477.29297 C 3.80079 1484.13281 10.03516 1490.60156 15.81641 1493.42969 Z"/>
		<path d="M 21.0625 1493.42969 C 16.92579 1493.25781 11.07422 1489.39453 6.50391 1483.89453 L 6.50391 10.03125 C 11.07422 4.53516 16.92579 0.67578 21.0625 0.50391 L 596.98829 0.50391 C 601.125 0.67578 606.98047 4.53516 611.55079 10.03516 L 611.55079 1483.89453 C 606.98047 1489.39453 601.125 1493.25781 596.99219 1493.42969 Z"/>
		<path d="M 609.07422 1493.42969 L 602.23829 1493.42969 C 608.01954 1490.60156 614.25391 1484.13281 617.55079 1477.29297 L 617.55079 1486.01562 C 614.84766 1486.73828 609.95313 1490.79687 609.07422 1493.42969"/>
		<path d="M 0.50391 1473.28125 L 0.50001 20.64844 C 1.47266 17.58594 3.07032 14.63672 5.00391 11.97266 L 5.00391 1481.95312 C 3.07032 1479.28906 1.47266 1476.34375 0.50391 1473.28125"/>
		<path d="M 617.55079 20.64844 L 617.55079 1473.28516 C 616.58204 1476.34375 614.98438 1479.29297 613.05079 1481.95703 L 613.05079 11.97656 C 614.98438 14.64062 616.58204 17.58984 617.55079 20.64844"/>
	</g>

	<g id="white_panes" fill="white" stroke-width="2" stroke="rgb(4.017639%,3.95813%,4.968262%)">
		<path d="M 41.60938 215.50781 C 41.60938 209.26562 22.11719 209.26562 22.11719 215.50781 L 18.88672 215.50781 L 18.88672 29.02734 C 21.13672 29.02734 27.5 23.8164 27.5 21.5039 L 590.55469 21.5039 C 590.55469 23.8164 596.91797 29.02734 599.16797 29.02734 L 599.16797 215.50781 L 595.9375 215.50781 C 595.9375 209.26562 576.44532 209.26562 576.44532 215.50781 Z"/>
		<path d="M 18.88672 229.50781 L 22.11719 229.50781 C 22.11719 235.75 41.60938 235.75 41.60938 229.50781 L 576.44532 229.50781 C 576.44532 235.75 595.93751 235.75 595.93751 229.50781 L 599.16797 229.50781 L 599.16797 423.5 L 595.93751 423.5 C 595.93751 417.26172 576.44532 417.26172 576.44532 423.5 L 41.60938 423.5 C 41.60938 417.26172 22.11719 417.26172 22.11719 423.5 L 18.88672 423.5 Z"/>
		<path d="M 18.88672 437.52344 L 22.11719 437.52344 C 22.11719 443.76562 41.60938 443.76562 41.60938 437.52344 L 576.44532 437.52344 C 576.44532 443.76562 595.93751 443.76562 595.93751 437.52344 L 599.16797 437.52344 L 599.16797 631.51562 L 595.93751 631.51562 C 595.93751 625.27734 576.44532 625.27734 576.44532 631.51562 L 41.60938 631.51562 C 41.60938 625.27734 22.11719 625.27734 22.11719 631.51562 L 18.88672 631.51562 Z"/>
		<path d="M 18.88672 645.51562 L 22.11719 645.51562 C 22.11719 651.75781 41.60938 651.75781 41.60938 645.51562 L 576.44532 645.51562 C 576.44532 651.75781 595.93751 651.75781 595.93751 645.51562 L 599.16797 645.51562 L 599.16797 839.50781 L 595.93751 839.50781 C 595.93751 833.26953 576.44532 833.26953 576.44532 839.50781 L 41.60938 839.50781 C 41.60938 833.26953 22.11719 833.26953 22.11719 839.50781 L 18.88672 839.50781 Z"/>
		<path d="M 18.88672 853.50781 L 22.11719 853.50781 C 22.11719 859.75 41.60938 859.75 41.60938 853.50781 L 576.44532 853.50781 C 576.44532 859.75 595.93751 859.75 595.93751 853.50781 L 599.16797 853.50781 L 599.16797 1047.5 L 595.93751 1047.5 C 595.93751 1041.26172 576.44532 1041.26172 576.44532 1047.5 L 41.60938 1047.5 C 41.60938 1041.26172 22.11719 1041.26172 22.11719 1047.5 L 18.88672 1047.5 Z"/>
		<path d="M 18.88672 1061.5 L 22.11719 1061.5 C 22.11719 1067.74219 41.60938 1067.74219 41.60938 1061.5 L 576.44532 1061.5 C 576.44532 1067.74219 595.93751 1067.74219 595.93751 1061.5 L 599.16797 1061.5 L 599.16797 1255.49219 L 595.93751 1255.49219 C 595.93751 1249.2539 576.44532 1249.2539 576.44532 1255.49219 L 41.60938 1255.49219 C 41.60938 1249.2539 22.11719 1249.2539 22.11719 1255.49219 L 18.88672 1255.49219 Z"/>
		<path d="M 576.44532 1269.49219 C 576.44532 1275.73437 595.9375 1275.73437 595.9375 1269.49219 L 599.16797 1269.49219 L 599.16797 1457.96484 C 596.91797 1457.96484 590.55469 1463.17578 590.55469 1465.48828 L 27.5 1465.48828 C 27.5 1463.17578 21.13282 1457.96484 18.88672 1457.96484 L 18.88282 1269.49219 L 22.11719 1269.49219 C 22.11719 1275.73437 41.60938 1275.73437 41.60938 1269.49219 Z"/>
	</g>

	<g id="inner_black_details" fill="none" stroke="rgb(4.017639%,3.95813%,4.968262%)">
		<g id="corners" stroke-width="1.5">
			<path d="M 18.88672 42.26953 C 22.15235 31.8164 33.08204 21.80078 40.16407 21.5039"/>
			<path d="M 18.88672 1444.72266 C 22.15235 1455.17578 33.08204 1465.1914 40.16407 1465.48828"/>
			<path d="M 599.16797 42.26953 C 595.90235 31.8164 584.97266 21.80078 577.89063 21.5039"/>
			<path d="M 599.16797 1444.72266 C 595.90235 1455.17578 584.97266 1465.1914 577.89063 1465.48828"/>
		</g>
		<path d="M 22.88672 34.03515 L 22.88672 140.82812 C 22.88672 204.07812 18.88672 189.39062 18.88672 215.50781"/>
		<path d="M 22.88672 1452.95703 L 22.88672 1344.17187 C 22.88672 1280.92187 18.88672 1295.60937 18.88672 1269.49219"/>
		<path d="M 18.88672 229.50781 C 18.88672 255.625 22.88672 263.2539 22.88672 326.5039 C 22.88672 389.7539 18.88672 397.38281 18.88672 423.5"/>
		<path d="M 18.88672 437.52344 C 18.88672 463.64062 22.88672 471.26953 22.88672 534.51953 C 22.88672 597.76953 18.88672 605.39844 18.88672 631.51562"/>
		<path d="M 18.88672 645.51562 C 18.88672 671.63281 22.88672 679.26172 22.88672 742.51172 C 22.88672 805.76172 18.88672 813.39453 18.88672 839.50781"/>
		<path d="M 18.88672 853.50781 C 18.88672 879.625 22.88672 887.2539 22.88672 950.5039 C 22.88672 1013.7539 18.88672 1021.38281 18.88672 1047.5"/>
		<path d="M 18.88672 1061.5 C 18.88672 1087.61719 22.88672 1095.24609 22.88672 1158.49609 C 22.88672 1221.74609 18.88672 1229.3789 18.88672 1255.49219"/>
		<path d="M 598.16797 229.50781 C 598.16797 255.625 595.16797 263.2539 595.16797 326.5039 C 595.16797 389.7539 598.16797 397.38281 598.16797 423.5"/>
		<path d="M 598.16797 437.52344 C 598.16797 463.64062 595.16797 471.26953 595.16797 534.51953 C 595.16797 597.76953 598.16797 605.39844 598.16797 631.51562"/>
		<path d="M 598.16797 645.51562 C 598.16797 671.63281 595.16797 679.26172 595.16797 742.51172 C 595.16797 805.76172 598.16797 813.39453 598.16797 839.50781"/>
		<path d="M 598.16797 853.50781 C 598.16797 879.625 595.16797 887.2539 595.16797 950.5039 C 595.16797 1013.7539 598.16797 1021.38281 598.16797 1047.5"/>
		<path d="M 598.16797 1061.5 C 598.16797 1087.61719 595.16797 1095.24609 595.16797 1158.49609 C 595.16797 1221.74609 598.16797 1229.3789 598.16797 1255.49219"/>
		<path d="M 595.16797 34.03515 L 595.16797 140.82812 C 595.16797 204.07812 599.16797 189.39062 599.16797 215.50781"/>
		<path d="M 595.16797 1452.95703 L 595.16797 1344.17187 C 595.16797 1280.92187 599.16797 1295.60937 599.16797 1269.49219"/>
	</g>

	<g id="grey_lines" fill="none" stroke="rgb(69.805908%,69.256592%,69.392395%)">
		<path d="M 30.82032 75.61719 L 587.23047 75.61719"/>
		<path d="M 30.82032 97.61719 L 587.23047 97.61719"/>
		<path d="M 30.82032 119.61719 L 587.23047 119.61719"/>
		<path d="M 30.82032 141.61719 L 587.23047 141.61719"/>
		<path d="M 30.82032 163.61719 L 587.23047 163.61719"/>
		<path d="M 30.82032 185.61719 L 587.23047 185.61719"/>
		<path d="M 30.82032 207.61719 L 587.23047 207.61719"/>
		<path d="M 30.82032 283.60937 L 587.23047 283.60937"/>
		<path d="M 30.82032 305.60937 L 587.23047 305.60937"/>
		<path d="M 30.82032 327.60937 L 587.23047 327.60937"/>
		<path d="M 30.82032 349.61328 L 587.23047 349.61328"/>
		<path d="M 30.82032 371.60937 L 587.23047 371.60937"/>
		<path d="M 30.82032 393.61328 L 587.23047 393.61328"/>
		<path d="M 30.82032 415.61328 L 587.23047 415.61328"/>
		<path d="M 30.82032 491.625 L 587.23047 491.625"/>
		<path d="M 30.82032 513.625 L 587.23047 513.625"/>
		<path d="M 30.82032 535.625 L 587.23047 535.625"/>
		<path d="M 30.82032 557.6289 L 587.23047 557.6289"/>
		<path d="M 30.82032 579.625 L 587.23047 579.625"/>
		<path d="M 30.82032 601.6289 L 587.23047 601.6289"/>
		<path d="M 30.82032 623.6289 L 587.23047 623.6289"/>
		<path d="M 30.82032 699.61719 L 587.23047 699.61719"/>
		<path d="M 30.82032 721.61719 L 587.23047 721.61719"/>
		<path d="M 30.82032 743.61719 L 587.23047 743.61719"/>
		<path d="M 30.82032 765.62109 L 587.23047 765.62109"/>
		<path d="M 30.82032 787.61719 L 587.23047 787.61719"/>
		<path d="M 30.82032 809.62109 L 587.23047 809.62109"/>
		<path d="M 30.82032 831.62109 L 587.23047 831.62109"/>
		<path d="M 30.82032 907.60937 L 587.23047 907.60937"/>
		<path d="M 30.82032 929.60937 L 587.23047 929.60937"/>
		<path d="M 30.82032 951.60937 L 587.23047 951.60937"/>
		<path d="M 30.82032 973.61328 L 587.23047 973.61328"/>
		<path d="M 30.82032 995.60937 L 587.23047 995.60937"/>
		<path d="M 30.82032 1017.61328 L 587.23047 1017.61328"/>
		<path d="M 30.82032 1039.61328 L 587.23047 1039.61328"/>
		<path d="M 30.82032 1115.60156 L 587.23047 1115.60156"/>
		<path d="M 30.82032 1137.60156 L 587.23047 1137.60156"/>
		<path d="M 30.82032 1159.60156 L 587.23047 1159.60156"/>
		<path d="M 30.82032 1181.60547 L 587.23047 1181.60547"/>
		<path d="M 30.82032 1203.60156 L 587.23047 1203.60156"/>
		<path d="M 30.82032 1225.60547 L 587.23047 1225.60547"/>
		<path d="M 30.82032 1247.60547 L 587.23047 1247.60547"/>
		<path d="M 30.82032 1323.55078 L 587.23047 1323.55078"/>
		<path d="M 30.82032 1345.55078 L 587.23047 1345.55078"/>
		<path d="M 30.82032 1367.55078 L 587.23047 1367.55078"/>
		<path d="M 30.82032 1389.55469 L 587.23047 1389.55469"/>
		<path d="M 30.82032 1411.55078 L 587.23047 1411.55078"/>
		<path d="M 30.82032 1433.55469 L 587.23047 1433.55469"/>
		<path d="M 30.82032 1455.55469 L 587.23047 1455.55469"/>
	</g>
</svg>
