<?xml version="1.0" encoding="UTF-8"?>
<svg xmlns="http://www.w3.org/2000/svg" width="458.79064px" height="162.85704px" viewBox="0 0 458.79064 162.85704" version="1.2">
<g fill="none">
	<g stroke="rgb(4.017639%,3.95813%,4.968262%)">
		<path stroke-width="2.4" d="M 1.20391 154.12969 C 3.45 154.12969 9.81329 159.34453 9.81329 161.65703 L 448.98125 161.65703 C 448.98125 159.34453 455.34454 154.12969 457.59063 154.12969 L 457.59063 8.72734 C 455.34063 8.72734 448.97735 3.5125 448.97735 1.2 L 9.81329 1.2 C 9.81329 3.5125 3.45 8.72734 1.20001 8.72734 Z"/>
		<g stroke-width="1.5">
			<path d="M 457.59063 140.8875 C 454.32891 151.34062 443.39532 161.35625 436.31329 161.65312"/>
			<path d="M 1.20391 140.8875 C 4.46563 151.34062 15.39922 161.35625 22.48125 161.65312"/>
			<path d="M 457.59063 21.96953 C 454.325 11.5164 443.39532 1.50078 436.30938 1.2039"/>
			<path d="M 1.2 21.96953 C 4.46563 11.5164 15.39922 1.50078 22.47735 1.2039"/>
		</g>
		<path d="M 7.20001 11.24687 L 7.20001 151.61015"/>
		<path d="M 451.59063 11.24687 L 451.59063 151.61015"/>
	</g>
	<g stroke="rgb(69.805908%,69.256592%,69.392395%)">
		<path d="M 15.84844 26.75078 L 442.94219 26.75078"/>
		<path d="M 15.84844 48.75078 L 442.94219 48.75078"/>
		<path d="M 15.84844 70.75078 L 442.94219 70.75078"/>
		<path d="M 15.84844 92.75469 L 442.94219 92.75469"/>
		<path d="M 15.84844 114.75078 L 442.94219 114.75078"/>
		<path d="M 15.84844 136.75469 L 442.94219 136.75469"/>
	</g>
</g>
</svg>
