<?xml version="1.0" encoding="UTF-8"?>
<svg width="240px" height="340px" viewBox="0 0 240 340" version="1.1" xmlns="http://www.w3.org/2000/svg" xmlns:xlink="http://www.w3.org/1999/xlink">
	<defs>
		<symbol overflow="visible" id="A">
			<path fill-rule="evenodd" d="M -31.49779 -20.62873 L -23.44927 -41.66465 L -20.52253 -41.66465 L -12.474 -20.62873 L -15.40075 -20.62873 L -17.68726 -26.57367 L -26.28454 -26.57367 L -28.57105 -20.62873 Z M -25.18701 -29.31748 L -21.9859 -37.73184 L -18.78479 -29.31748 Z"/>
		</symbol>
		<symbol overflow="visible" id="C">
			<path d="M -15.30928 -40.8415 A 11.15817 11.3411 0.0 1 0 -15.30928 -21.45188 L -16.77265 -23.82986 A 8.41436 8.59729 0.0 1 1 -16.77265 -38.46352 Z"/>
		</symbol>
		<symbol overflow="visible" id="E">
			<path d="M -28.84544 -41.66465 L -28.84544 -20.62873 L -16.49827 -20.62873 L -16.49827 -23.37255 L -26.10162 -23.37255 L -26.10162 -29.77478 L -17.87018 -29.77478 L -17.87018 -32.5186 L -26.10162 -32.5186 L -26.10162 -38.92083 L -16.49827 -38.92083 L -16.49827 -41.66465 Z"/>
		</symbol>
		<symbol overflow="visible" id="G">
			<path d="M -14.66907 -40.56712 A 11.70694 11.15817 0.0 1 0 -14.66907 -21.81772 L -14.66907 -30.23208 L -17.41288 -30.23208 L -17.41288 -23.46401 A 8.96312 8.41436 0.0 1 1 -16.04096 -38.18914 Z"/>
		</symbol>
		<symbol overflow="visible" id="H">
			<path d="M -30.67464 -41.66465 L -27.93083 -41.66465 L -27.93083 -32.5186 L -16.04096 -32.5186 L -16.04096 -41.66465 L -13.29716 -41.66465 L -13.29716 -20.62873 L -16.04096 -20.62873 L -16.04096 -29.77478 L -27.93083 -29.77478 L -27.93083 -20.62873 L -30.67464 -20.62873 Z"/>
		</symbol>
		<symbol overflow="visible" id="I">
			<path d="M -23.35781 -41.66465 L -23.35781 -20.62873 L -20.61399 -20.62873 L -20.61399 -41.66465 Z"/>
		</symbol>
		<symbol overflow="visible" id="K">
			<path d="M -28.38814 -41.66465 L -28.38814 -20.62873 L -25.64431 -20.62873 L -25.64431 -41.66465 Z M -25.64431 -31.14669 L -17.41288 -41.66465 L -13.93738 -41.66465 L -22.16882 -31.14669 L -13.93738 -20.62873 L -17.41288 -20.62873 Z"/>
		</symbol>
		<symbol overflow="visible" id="L">
			<path d="M -28.84544 -41.66465 L -28.84544 -20.62873 L -16.49827 -20.62873 L -16.49827 -23.37255 L -26.10162 -23.37255 L -26.10162 -41.66465 Z"/>
		</symbol>
		<symbol overflow="visible" id="N">
			<path d="M -30.67464 -20.62873 L -30.67464 -41.66465 L -27.65645 -41.66465 L -16.04096 -25.01885 L -16.04096 -41.66465 L -13.29716 -41.66465 L -13.29716 -20.62873 L -16.31534 -20.62873 L -27.93083 -37.27453 L -27.93083 -20.62873 Z"/>
		</symbol>
		<symbol overflow="visible" id="O">
			<path fill-rule="evenodd" d="M -21.9859 -41.66465 A 10.51796 10.51796 0.0 0 1 -21.9859 -20.62873 A 10.51796 10.51796 0.0 0 1 -21.9859 -41.66465 M -21.9859 -38.92083 A 7.77414 7.77414 0.0 0 1 -21.9859 -23.37255 A 7.77414 7.77414 0.0 0 1 -21.9859 -38.92083"/>
		</symbol>
		<symbol overflow="visible" id="R">
			<path fill-rule="evenodd" d="M -28.84544 -20.62873 L -28.84544 -41.66465 L -20.15668 -41.66465 A 4.57302 5.94493 0.0 0 1 -20.15668 -29.77478 L -20.33961 -29.77478 L -14.39467 -20.62873 L -17.5958 -20.62873 L -23.63219 -29.77478 L -26.10162 -29.77478 L -26.10162 -20.62873 Z M -26.10162 -38.92083 L -20.15668 -38.92083 A 1.82921 3.20111 0.0 0 1 -20.15668 -32.5186 L -26.10162 -32.5186 Z"/>
		</symbol>
		<symbol overflow="visible" id="S">
			<path d="M -15.76659 -40.01836 C -20.24815 -43.21947 -28.66252 -42.12195 -28.66252 -36.63432 C -28.66252 -32.79298 -25.09556 -31.42107 -21.9859 -29.59187 C -20.06523 -28.03703 -19.05917 -28.49434 -19.05917 -25.65906 C -19.05917 -23.64693 -21.80297 -23.09818 -22.99196 -23.09818 C -24.5468 -23.09818 -26.19307 -23.37255 -27.93083 -25.1103 L -29.8515 -23.18963 C -27.83936 -20.90311 -24.5468 -20.35435 -22.99196 -20.35435 C -21.07129 -20.35435 -16.31534 -21.45188 -16.31534 -25.65906 C -16.31534 -29.59187 -17.68726 -30.23208 -21.9859 -32.70151 C -25.09556 -34.53073 -25.91869 -35.17095 -25.91869 -36.63432 C -25.91869 -40.01836 -17.87018 -39.37813 -17.41288 -37.82331 Z"/>
		</symbol>
		<symbol overflow="visible" id="T">
			<path d="M -30.67464 -41.66465 L -13.29716 -41.66465 L -13.29716 -38.92083 L -20.61399 -38.92083 L -20.61399 -20.62873 L -23.35781 -20.62873 L -23.35781 -38.92083 L -30.67464 -38.92083 Z"/>
		</symbol>
	</defs>

	<g>
		<use xlink:href="#C" x="69.47456" y="162.45891"/>
		<use xlink:href="#L" x="87.30935" y="162.45891"/>
		<use xlink:href="#I" x="97.37001" y="162.45891"/>
		<use xlink:href="#C" x="114.29019" y="162.45891"/>
		<use xlink:href="#K" x="131.66769" y="162.45891"/>

		<use xlink:href="#H" x="160.47772" y="162.45891"/>
		<use xlink:href="#E" x="182.88553" y="162.45891"/>
		<use xlink:href="#R" x="200.72034" y="162.45891"/>
		<use xlink:href="#E" x="219.46973" y="162.45891"/>


		<use xlink:href="#T" x="61.70043" y="201.14669"/>
		<use xlink:href="#O" x="82.73633" y="201.14669"/>

		<use xlink:href="#C" x="114.74749" y="201.14669"/>
		<use xlink:href="#H" x="134.8688" y="201.14669"/>
		<use xlink:href="#A" x="156.63638" y="201.14669"/>
		<use xlink:href="#N" x="178.49544" y="201.14669"/>
		<use xlink:href="#G" x="203.00684" y="201.14669"/>
		<use xlink:href="#E" x="223.58545" y="201.14669"/>


		<use xlink:href="#T" x="73.13298" y="239.83447"/>
		<use xlink:href="#H" x="94.07743" y="239.83447"/>
		<use xlink:href="#I" x="111.45492" y="239.83447"/>
		<use xlink:href="#S" x="125.26545" y="239.83447"/>

		<use xlink:href="#I" x="146.30135" y="239.83447"/>
		<use xlink:href="#C" x="162.76424" y="239.83447"/>
		<use xlink:href="#O" x="182.70262" y="239.83447"/>
		<use xlink:href="#N" x="207.12256" y="239.83447"/>
	</g>
</svg>