<?xml version="1.0" encoding="UTF-8"?>
<svg xmlns="http://www.w3.org/2000/svg" xmlns:xlink="http://www.w3.org/1999/xlink" width="538.00157pt" height="1494.50157pt" viewBox="0 0 538.00157 1494.50157" version="1.2" fill="none" stroke-miterlimit="10">

<g stroke="rgb(4.017639%,3.95813%,4.968262%)">
	<path stroke-width="2.4" d="M 1.20391 1485.77422 C 3.45 1485.77422 9.81328 1490.98906 9.81328 1493.30156 L 528.19219 1493.30156 C 528.19219 1490.98906 534.55547 1485.77422 536.80157 1485.77422 L 536.80157 8.72734 C 534.55157 8.72734 528.18828 3.5125 528.18828 1.2 L 9.81328 1.2 C 9.81328 3.5125 3.45 8.72734 1.2 8.72734 Z"/>
	<g stroke-width="1.5">
		<path d="M 536.80157 1472.53203 C 533.53985 1482.98516 522.60625 1493.00078 515.52422 1493.30156"/>
		<path d="M 1.20391 1472.53203 C 4.46563 1482.98516 15.39922 1493.00078 22.48125 1493.30156"/>
		<path d="M 536.80157 21.96953 C 533.53594 11.51641 522.60625 1.50078 515.52422 1.2"/>
		<path d="M 1.2 21.96953 C 4.46563 11.51641 15.39922 1.50078 22.48125 1.2"/>
	</g>
	<path d="M 7.2 11.24688 L 7.2 1483.25469"/>
	<path d="M 530.80157 11.24688 L 530.80157 1483.25469"/>
</g>

<g stroke="rgb(69.805908%,69.256592%,69.392395%)">
	<path d="M 15.84844 26.74688 L 522.15703 26.74688"/>
	<path d="M 15.84844 48.74688 L 522.15703 48.74688"/>
	<path d="M 15.84844 70.75078 L 522.15703 70.75078"/>
	<path d="M 15.84844 92.75078 L 522.15703 92.75078"/>
	<path d="M 15.84844 114.75078 L 522.15703 114.75078"/>
	<path d="M 15.84844 136.75469 L 522.15703 136.75469"/>
	<path d="M 15.84844 158.75469 L 522.15703 158.75469"/>
	<path d="M 15.84844 180.75469 L 522.15703 180.75469"/>
	<path d="M 15.84844 202.7586 L 522.15703 202.7586"/>
	<path d="M 15.84844 224.7586 L 522.15703 224.7586"/>
	<path d="M 15.84844 246.7625 L 522.15703 246.7625"/>
	<path d="M 15.84844 268.7625 L 522.15703 268.7625"/>
	<path d="M 15.84844 290.7625 L 522.15703 290.7625"/>
	<path d="M 15.84844 312.76641 L 522.15703 312.76641"/>
	<path d="M 15.84844 334.76641 L 522.15703 334.76641"/>
	<path d="M 15.84844 356.76641 L 522.15703 356.76641"/>
	<path d="M 15.84844 378.77031 L 522.15703 378.77031"/>
	<path d="M 15.84844 400.77031 L 522.15703 400.77031"/>
	<path d="M 15.84844 422.77031 L 522.15703 422.77031"/>
	<path d="M 15.84844 444.77422 L 522.15703 444.77422"/>
	<path d="M 15.84844 466.77422 L 522.15703 466.77422"/>
	<path d="M 15.84844 488.77422 L 522.15703 488.77422"/>
	<path d="M 15.84844 510.77813 L 522.15703 510.77813"/>
	<path d="M 15.84844 532.77813 L 522.15703 532.77813"/>
	<path d="M 15.84844 554.78203 L 522.15703 554.78203"/>
	<path d="M 15.84844 576.78203 L 522.15703 576.78203"/>
	<path d="M 15.84844 598.78203 L 522.15703 598.78203"/>
	<path d="M 15.84844 620.78594 L 522.15703 620.78594"/>
	<path d="M 15.84844 642.78594 L 522.15703 642.78594"/>
	<path d="M 15.84844 664.78594 L 522.15703 664.78594"/>
	<path d="M 15.84844 686.78984 L 522.15703 686.78984"/>
	<path d="M 15.84844 708.78984 L 522.15703 708.78984"/>
	<path d="M 15.84844 730.78984 L 522.15703 730.78984"/>
	<path d="M 15.84844 752.79375 L 522.15703 752.79375"/>
	<path d="M 15.84844 774.79375 L 522.15703 774.79375"/>
	<path d="M 15.84844 796.79766 L 522.15703 796.79766"/>
	<path d="M 15.84844 818.79766 L 522.15703 818.79766"/>
	<path d="M 15.84844 840.79766 L 522.15703 840.79766"/>
	<path d="M 15.84844 862.80156 L 522.15703 862.80156"/>
	<path d="M 15.84844 884.80156 L 522.15703 884.80156"/>
	<path d="M 15.84844 906.80156 L 522.15703 906.80156"/>
	<path d="M 15.84844 928.80547 L 522.15703 928.80547"/>
	<path d="M 15.84844 950.80547 L 522.15703 950.80547"/>
	<path d="M 15.84844 972.80547 L 522.15703 972.80547"/>
	<path d="M 15.84844 994.80938 L 522.15703 994.80938"/>
	<path d="M 15.84844 1016.80938 L 522.15703 1016.80938"/>
	<path d="M 15.84844 1038.81328 L 522.15703 1038.81328"/>
	<path d="M 15.84844 1060.81328 L 522.15703 1060.81328"/>
	<path d="M 15.84844 1082.81328 L 522.15703 1082.81328"/>
	<path d="M 15.84844 1104.81719 L 522.15703 1104.81719"/>
	<path d="M 15.84844 1126.81719 L 522.15703 1126.81719"/>
	<path d="M 15.84844 1148.81719 L 522.15703 1148.81719"/>
	<path d="M 15.84844 1170.8211 L 522.15703 1170.8211"/>
	<path d="M 15.84844 1192.8211 L 522.15703 1192.8211"/>
	<path d="M 15.84844 1214.8211 L 522.15703 1214.8211"/>
	<path d="M 15.84844 1236.825 L 522.15703 1236.825"/>
	<path d="M 15.84844 1258.825 L 522.15703 1258.825"/>
	<path d="M 15.84844 1280.825 L 522.15703 1280.825"/>
	<path d="M 15.84844 1302.82891 L 522.15703 1302.82891"/>
	<path d="M 15.84844 1324.82891 L 522.15703 1324.82891"/>
	<path d="M 15.84844 1346.82891 L 522.15703 1346.82891"/>
	<path d="M 15.84844 1368.83281 L 522.15703 1368.83281"/>
	<path d="M 15.84844 1390.83281 L 522.15703 1390.83281"/>
	<path d="M 15.84844 1412.83672 L 522.15703 1412.83672"/>
	<path d="M 15.84844 1434.83672 L 522.15703 1434.83672"/>
	<path d="M 15.84844 1456.83672 L 522.15703 1456.83672"/>
</g>
</svg>
