<?xml version="1.0" encoding="UTF-8"?>
<svg width="358.56323px" height="411.90338px" viewBox="0 0 358.56323 411.90338" version="1.1" xmlns="http://www.w3.org/2000/svg" xmlns:xlink="http://www.w3.org/1999/xlink">
	<defs>
		<symbol overflow="visible" id="A">
			<path fill-rule="evenodd" d="M -10.4 11.5 L -1.6 -11.5 L 1.6 -11.5 L 10.4 11.5 L 7.2 11.5 L 4.7 5 L -4.7 5 L -7.2 11.5 Z M -3.5 2 L 0 -7.2 L 3.5 2 Z"/>
		</symbol>
		<symbol overflow="visible" id="C">
			<path d="M 7.3 -10.6 A 12.2 12.4 0 1 0 7.3 10.6 L 5.7 8 A 9.2 9.4 0 1 1 5.7 -8 Z"/>
		</symbol>
		<symbol overflow="visible" id="E">
			<path d="M -7.5 -11.5 L -7.5 11.5 L 6 11.5 L 6 8.5 L -4.5 8.5 L -4.5 1.5 L 4.5 1.5 L 4.5 -1.5 L -4.5 -1.5 L -4.5 -8.5 L 6 -8.5 L 6 -11.5 Z"/>
		</symbol>
		<symbol overflow="visible" id="G">
			<path d="M 8 -10.3 A 12.8 12.2 0 1 0 8 10.2 L 8 1 L 5 1 L 5 8.4 A 9.8 9.2 0 1 1 6.5 -7.7 Z"/>
		</symbol>
		<symbol overflow="visible" id="H">
			<path d="M -9.5 -11.5 L -6.5 -11.5 L -6.5 -1.5 L 6.5 -1.5 L 6.5 -11.5 L 9.5 -11.5 L 9.5 11.5 L 6.5 11.5 L 6.5 1.5 L -6.5 1.5 L -6.5 11.5 L -9.5 11.5 Z"/>
		</symbol>
		<symbol overflow="visible" id="I">
			<path d="M -1.5 -11.5 L -1.5 11.5 L 1.5 11.5 L 1.5 -11.5 Z"/>
		</symbol>
		<symbol overflow="visible" id="K">
			<path d="M -7 -11.5 L -7 11.5 L -4 11.5 L -4 -11.5 Z M -4 0 L 5 -11.5 L 8.8 -11.5 L -0.2 0 L 8.8 11.5 L 5 11.5 Z"/>
		</symbol>
		<symbol overflow="visible" id="L">
			<path d="M -7.5 -11.5 L -7.5 11.5 L 6 11.5 L 6 8.5 L -4.5 8.5 L -4.5 -11.5 Z"/>
		</symbol>
		<symbol overflow="visible" id="N">
			<path d="M -9.5 11.5 L -9.5 -11.5 L -6.2 -11.5 L 6.5 6.7 L 6.5 -11.5 L 9.5 -11.5 L 9.5 11.5 L 6.2 11.5 L -6.5 -6.7 L -6.5 11.5 Z"/>
		</symbol>
		<symbol overflow="visible" id="O">
			<path fill-rule="evenodd" d="M 0 -11.5 A 11.5 11.5 0 0 1 0 11.5 A 11.5 11.5 0 0 1 0 -11.5 M 0 -8.5 A 8.5 8.5 0 0 1 0 8.5 A 8.5 8.5 0 0 1 0 -8.5"/>
		</symbol>
		<symbol overflow="visible" id="R">
			<path fill-rule="evenodd" d="M -7.5 11.5 L -7.5 -11.5 L 2 -11.5 A 5 6.5 0 0 1 2 1.5 L 1.8 1.5 L 8.3 11.5 L 4.8 11.5 L -1.8 1.5 L -4.5 1.5 L -4.5 11.5 Z M -4.5 -8.5 L 2 -8.5 A 2 3.5 0 0 1 2 -1.5 L -4.5 -1.5 Z"/>
		</symbol>
		<symbol overflow="visible" id="S">
			<path d="M 6.8 -9.7 C 1.9 -13.2 -7.3 -12 -7.3 -6 C -7.3 -1.8 -3.4 -0.3 0 1.7 C 2.1 3.4 3.2 2.9 3.2 6 C 3.2 8.2 0.2 8.8 -1.1 8.8 C -2.8 8.8 -4.6 8.5 -6.5 6.6 L -8.6 8.7 C -6.4 11.2 -2.8 11.8 -1.1 11.8 C 1 11.8 6.2 10.6 6.2 6 C 6.2 1.7 4.7 1 0 -1.7 C -3.4 -3.7 -4.3 -4.4 -4.3 -6 C -4.3 -9.7 4.5 -9 5 -7.3 Z"/>
		</symbol>
		<symbol overflow="visible" id="T">
			<path d="M -9.5 -11.5 L 9.5 -11.5 L 9.5 -8.5 L 1.5 -8.5 L 1.5 11.5 L -1.5 11.5 L -1.5 -8.5 L -9.5 -8.5 Z"/>
		</symbol>
	</defs>

	<g>
		<use xlink:href="#C" x="100" y="162.5"/>
		<use xlink:href="#L" x="119.5" y="162.5"/>
		<use xlink:href="#I" x="130.5" y="162.5"/>
		<use xlink:href="#C" x="149" y="162.5"/>
		<use xlink:href="#K" x="168" y="162.5"/>

		<use xlink:href="#H" x="199.5" y="162.5"/>
		<use xlink:href="#E" x="224" y="162.5"/>
		<use xlink:href="#R" x="243.5" y="162.5"/>
		<use xlink:href="#E" x="264" y="162.5"/>


		<use xlink:href="#T" x="91.5" y="204.8"/>
		<use xlink:href="#O" x="114.5" y="204.8"/>

		<use xlink:href="#C" x="149.5" y="204.8"/>
		<use xlink:href="#H" x="171.5" y="204.8"/>
		<use xlink:href="#A" x="195.3" y="204.8"/>
		<use xlink:href="#N" x="219.2" y="204.8"/>
		<use xlink:href="#G" x="246" y="204.8"/>
		<use xlink:href="#E" x="268.5" y="204.8"/>


		<use xlink:href="#T" x="104" y="247.1"/>
		<use xlink:href="#H" x="126.9" y="247.1"/>
		<use xlink:href="#I" x="145.9" y="247.1"/>
		<use xlink:href="#S" x="161" y="247.1"/>

		<use xlink:href="#I" x="184" y="247.1"/>
		<use xlink:href="#C" x="202" y="247.1"/>
		<use xlink:href="#O" x="223.8" y="247.1"/>
		<use xlink:href="#N" x="250.5" y="247.1"/>
	</g>
</svg>