<?xml version="1.0" encoding="UTF-8"?>
<svg version="1.1" width="155.68001cm" height="155.68001cm" viewBox="0 0 155.68001 155.68001" xmlns="http://www.w3.org/2000/svg">
	<g fill="#00205c">
		<path id="blue_inner_crescent" d="M 100.48 120.64 L 106.24 120.64 A 45.35 45.35 0 0 1 65.44 40.64 L 63.84 55.68 64.96 56.64 C 65.12 56.8 65.6 57.28 66.72 57.92 66.72 58.56 66.72 59.2 66.4 59.68 L 66.08 60.32 65.92 60.96 C 65.76 62.24 61.44 92.48 82.4 115.2 L 82.24 115.36 82.4 115.2 82.56 115.36 81.12 120.64 L 90.24 120.64 L 90.72 118.56 L 100 118.56 Z" />
		<path
			id="blue_outer_circle"
			d="
				M 129.6 64.32 C 116.16 88.64 109.92 109.28 108.16 115.04 L 110.08 119.2 C 113.12 117.76 115.84 116.16 118.56 114.08 C 119.2 113.6 120 113.44 120.8 113.44 C 121.76 113.44 122.72 113.92 123.52 114.72 C 124.64 116.16 124.64 118.24 123.36 119.52 A 59 59 0 1 1 122.88 35.52 C 124.16 36.8 124.32 39.04 123.04 40.48 122.4 41.28 121.44 41.76 120.32 41.76 119.52 41.76 118.88 41.44 118.24 40.96 110.4 35.36 101.28 32.32 91.52 32.32 83.68 32.32 76 34.4 69.28 38.08 L 70.56 40.64 C 74.4 48.0 79.68 51.2 88.48 51.36 L 91.2 51.36 C 95.2 51.04 99.84 50.24 105.12 48.8 108.8 47.84 112.16 47.36 115.04 47.36 120 47.36 124 48.8 126.56 51.84 130.72 56.48 129.92 63.04 129.92 63.36 Z
				M 77.8 1.8 A 76 76 0 0 0 77.8 153.8 A 76 76 0 0 0 77.8 1.8 Z
			"
		/>
	</g>
	<g fill="#898a8d">
		<path id="grey_crescent" d="M 121.28 116.48 C 121.6 116.8 121.6 117.28 121.28 117.6 A 56.23 56.23 0 1 1 120.96 37.44 C 121.12 37.76 121.28 38.24 120.96 38.56 C 120.8 38.72 120.64 38.88 120.32 38.88 C 120.16 38.88 120.0 38.88 119.84 38.72 A 48.16 48.16 0 1 0 120.32 116.32 C 120.8 116 121.12 116.32 121.28 116.48 Z" />
		<path
			id="grey_harp"
			d="
				M 121.6 63.52 C 101.8 83 92.4 104.4 89.92 111.04 C 89.92 111.04 70.5 94.7 79.22 60.45 C 83 61.4 89.5 62.3 96.8 59.2 C 104.1 56.1 125.7 50.1 121.6 63.52 Z
				M 115.04 50.08 C 112.48 50.08 109.44 50.56 105.76 51.52 99.2 53.28 93.6 54.08 89.12 54.08 L 88.96 54.08 L 88.96 54.08 L 88.8 54.08 C 77.28 54.08 71.68 48.8 68.16 41.92 L 66.72 54.56 C 66.72 54.56 67.68 55.2 69.12 56.16 69.6 57.6 69.92 59.68 68.64 61.28 68.64 61.28 64.0 92.48 85.6 114.56 85.6 114.56 85.12 117.28 83.36 117.76 L 88.0 117.76 L 88.64 115.68 L 102.08 115.68 L 102.72 117.76 L 107.36 117.76 C 106.08 117.44 105.6 116.0 105.28 115.2 106.4 111.36 112.64 89.28 127.04 63.04 127.04 63.04 128.8 50.08 115.04 50.08 Z
			"
		/>
	</g>
	<g fill="none" stroke="#898a8d">
		<path
			id="grey_harp_strings"
			stroke-width="1.1"
			d="
				M 118.12 67.6 L 114.4 54.9
				M 114.85 71.2 L 110.2 55
				M 111.65 75 L 106.1 56
				M 108.5 79 L 102.15 57
				M 105.4 83.5 L 98.23 58.3
				M 102.45 88 L 94.3 59.7
				M 99.5 92.8 L 90.2 60.6
				M 96.62 97.8 L 86.08 61
				M 94 103.5 L 81.63 60.5
				M 91.23 109 L 78 63
			"
		/>
		<path id="grey_outer_circle" stroke-width="3.6" d="M 77.8 1.8 A 76 76 0 0 0 77.8 153.8 A 76 76 0 0 0 77.8 1.8 Z" />
		<path id="grey_inner_circle" stroke-width="1.2" d="M 77.8 6.8 A 71 71 0 0 1 77.8 148.8 A 71 71 0 0 1 77.8 6.8 Z" />
	</g>
</svg>