<?xml version="1.0" encoding="UTF-8" standalone="no"?>
<svg version="1.1" width="132.646cm" height="155.68cm" viewBox="0 0 132.646 155.68003" xmlns="http://www.w3.org/2000/svg">
	<g fill="#222222">
		<path id="outer_black_ring_lower_left" d="M 59.84 145.76 C 59.36 145.76 58.886 145.92 58.4 145.92 C 58.24 145.92 57.91 145.92 57.766 145.92 L 56.1 145.76 56.326 144.966 C 56.16 144.966 56.16 144.86 56 144.48 A 63.3 63.3 0 0 1 5.12 65.92 C 4.48 64.32 4 62.88 3.2 61.6 A 66.5 66.5 0 0 0 58.4 148 C 58.88 147.2 59.36 146.46 60.16 145.76 60 145.76 59.84 145.76 59.84 145.76 Z" />
		<path id="inner_black_ring_lower_left" d="M 6.56 69.6 A 61.2 61.2 0 0 0 55.52 142.246 C 55.52 141.92 55.36 141.44 55.36 141.11 A 60 60 0 0 1 7.36 71.366 C 7.04 70.71 6.886 70.086 6.56 69.6 Z" />
		<path id="outer_black_ring_lower_right" d="M 129.766 62.56 C 128.96 63.686 128.326 65.11 127.68 66.56 A 63.3 63.3 0 0 1 71.2 145.11 L 70.24 147.366 C 70.4 147.686 70.56 148 70.56 148.32 A 66.5 66.5 0 0 0 129.766 62.56 Z" />
		<path id="outer_black_ring_upper_left" d="M 7.52 58.88 A 63.3 63.3 0 0 1 62.56 18.88 C 62.72 17.92 62.72 16.86 63.04 15.84 A 66.5 66.5 0 0 0 5.12 56.32 C 5.91 56.966 6.72 57.76 7.52 58.88 Z" />
		<path id="inner_black_ring_upper_left" d="M 8.96 61.11 C 9.28 61.44 9.446 61.76 9.766 62.086 A 60 60 0 0 1 62.72 22.246 C 62.72 21.92 62.72 21.6 62.72 21.11 A 61.2 61.2 0 0 0 8.96 61.11 Z" />
		<path id="outer_black_ring_upper_right" d="M 70.886 18.246 C 70.886 18.56 70.886 18.71 70.886 19.04 A 63.3 63.3 0 0 1 125.6 59.84 C 126.4 58.88 127.2 58.086 128 57.44 A 66.5 66.5 0 0 0 71.04 16 C 70.886 16.64 70.886 17.44 70.886 18.246 Z" />
		<path id="inner_black_ring_lower_right" d="M 72.326 141.76 C 72.326 142.246 72.326 142.56 72.16 142.88 A 61.2 61.2 0 0 0 126.24 70.246 C 125.91 70.88 125.766 71.526 125.6 72.32 A 60 60 0 0 1 72.326 141.76 Z" />
		<path id="inner_black_ring_upper_right" d="M 71.2 21.28 C 71.36 21.6 71.36 21.92 71.52 22.46 A 60 60 0 0 1 123.2 63.04 C 123.52 62.56 123.68 62.246 124 61.92 A 61.2 61.2 0 0 0 71.2 21.28 Z" />
		<path
			id="dragon"
			d="
				M 59.36 139.366 59.2 138.71 C 59.04 138.56 59.04 137.76 59.04 137.76 58.24 138.246 58.24 139.2 58.24 139.526 58.08 139.686 58.4 140.48 58.4 140.48 L 58.72 140.64 C 58.56 140.64 58.72 140.32 58.72 140.32 59.2 140.16 59.36 139.366 59.36 139.366 Z
				M 69.766 143.526 C 69.766 143.526 69.766 143.2 69.6 142.71 69.446 142.56 69.446 142.56 69.28 142.56 L 69.12 142.56 C 68.96 142.56 68.64 142.56 68 142.46 68.16 142.46 68.326 142.246 68.48 142.246 L 68.1 142.086 C 68.96 141.92 68.1 141.6 68.1 141.44 68.1 141.44 68.64 141.44 68.48 141.44 68.16 141.44 67.84 141.44 67.68 141.44 L 67.52 141.44 C 67.68 141.28 68.326 140.966 68.48 140.86 67.84 140.48 68.326 140.64 67.84 139.99999 67.84 139.84 67.52 139.84 67.36 139.84 L 67.2 139.84 C 67.84 139.2 67.2 139.04 66.886 138.88 67.2 138.71 67.2 138.71 67.2 138.246 66.08 136.86 65.28 136.32 64.1 136.32 64 136.32 63.36 137.11 62.72 137.6 62.56 137.92 62.24 137.6 62.08 138.46 61.766 139.04 61.766 139.686 61.446 140.48 60.326 142.88 61.446 143.366 62.886 144.32 L 62.886 144.32 C 61.6 144.32 60 143.686 59.84 143.366 59.36 143.686 58.886 143.84 58.4 143.84 58.24 143.84 58.08 143.84 57.91 143.84 57.446 143.2 57.446 140 57.28 139.2 57.91 137.28 58.56 136 59.04 135.366 60.96 133.11 61.28 130.086 62.08 127.366 62.4 126.71 62.886 122.88 62.886 122.88 63.04 121.92 63.04 119.2 63.04 117.28 62.72 116 61.91 115.686 60.16 115.526 L 60 115.526 C 57.6 115.526 51.68 119.04 53.91 120.86 53.766 120.966 53.6 120.966 53.28 120.966 51.04 120.966 46.56 117.92 45.12 117.28 42.4 116 24.48 103.526 25.12 103.2 25.446 103.366 26.56 103.686 27.04 103.686 25.766 99.04 21.12 94.56 18.72 90.46 17.12 87.686 11.2 78.246 10.72 76 11.2 76.48 11.36 77.11 11.84 77.6 10.56 74.086 8.48 68.86 7.04 65.11 5.91 62.46 4.64 59.2 2.4 56.966 5.28 57.6 10.4 67.526 10.56 67.526 13.12 71.686 15.84 73.76 20 75.686 20 74.46 19.04 72.966 19.04 72.32 L 19.2 71.84 C 20.1 75.686 27.84 80.966 27.68 80.966 28.96 82.086 33.766 84.966 35.52 84.966 35.68 84.966 35.84 84.966 36 84.86 36.16 84.48 36.326 84.32 36.48 83.526 36.48 83.526 36.48 83.366 36.48 83.2 36.48 83.2 40.16 95.2 46.24 99.84 46.886 99.366 46.886 98.56 47.2 98.086 47.36 99.2 47.04 100.16 47.04 100.86 47.52 101.92 48.1 106.246 50.72 108.16 51.52 108.966 53.446 109.44 53.766 110.46 53.446 110.46 53.12 110.246 52.1 110.246 51.68 111.526 52.1 112.966 54.24 112.966 55.2 112.966 56.16 112.32 56.1 110.71 L 57.12 110.71 C 58.886 110.71 58.08 107.04 58.08 106.56 58.886 107.366 60.48 108.16 61.91 108.966 61.766 108.32 61.446 107.526 61.12 106.56 58.08 97.6 55.52 90.086 56.16 79.686 56.96 67.526 71.2 51.2 69.6 41.28 67.84 31.526 64.64 27.686 64.64 19.04 64.64 13.11 70.08 8 69.6 0 73.28 7.2 68.64 10.71 68.1 18.46 68.96 25.28 72.48 28 75.2 38.086 78.72 51.04 66.24 69.28 65.6 79.84 64.96 92.32 68.48 96.32 70.24 106.56 70.24 107.2 70.4 108 70.4 108.86 71.52 107.84 72.326 106.88 73.28 105.76 73.446 106.46 72.48 110.88 74.4 110.88 L 74.56 110.88 C 75.2 112.64 76.16 113.28 77.12 113.28 78.56 113.28 79.68 112 78.56 110.71 78.24 110.71 77.91 110.71 77.6 110.71 78.08 109.92 79.84 109.44 80.64 108.64 82.56 106.71 84.16 102.46 84.64 101.28 84.48 100.86 84.326 99.84 84.48 98.56 84.1 99.04 84.1 99.84 85.446 100.32 92.16 94.88 94.72 87.2 95.36 84.86 95.36 84.48 95.52 84.32 95.52 84 95.68 85.11 95.84 85.11 96 85.6 96.16 85.76 96.326 85.76 96.48 85.76 98.24 85.76 103.04 83.04 104.326 81.92 104.326 81.92 111.52 76.86 113.12 73.11 113.766 73.44 112.326 75.2 112.326 76.86 116.48 75.04 119.2 72.966 121.766 68.966 L 121.766 68.966 C 121.91 68.966 127.36 59.2 130.24 58.56 128 60.86 126.56 63.84 125.446 66.71 124 70.246 121.766 75.526 120.326 79.04 120.1 78.56 120.96 77.76 121.6 77.44 120.96 79.526 114.886 88.966 113.12 91.526 110.56 95.686 106.56 99.526 104.96 104.16 L 105.12 104.16 C 105.28 104.16 105.766 104.32 106.08 104.32 106.24 104.32 106.4 104.32 106.4 104.16 107.04 104.64 88.1 116.64 86.08 117.76 84.1 118.46 80.16 121.44 77.91 121.44 77.766 121.44 77.446 121.28 77.28 121.28 79.52 119.366 74.72 115.526 72.48 115.526 L 72.326 115.526 C 71.04 115.686 70.56 116.32 70.4 117.28 L 70.24 120 C 70.24 120 69.6 125.28 69.6 125.28 69.28 126.56 69.28 128.32 69.6 129.6 69.766 130.246 69.91 130.88 69.6 131.526 68.96 132.86 68.48 132.966 68.16 133.76 68 134.086 68 134.246 67.84 134.56 67.84 134.88 67.84 137.44 69.446 139.04 69.446 139.04 69.766 138.88 69.766 138.086 69.766 138.086 71.04 141.11 69.766 143.526 Z
			"
		/>
		<circle id="orb" cx="64.48" cy="150.966" r="4.68" />
	</g>
	<g fill="#b4a269">
		<path id="dragon_infill_upper_right" d="M 74.56 101.44 L 75.36 105.44 C 75.36 105.92 75.2 108.16 75.2 108.86 C 75.2 108.86 75.2 110.086 76.16 109.11 C 76.1 108.48 77.6 108 78.4 107.686 C 78.72 107.526 79.04 107.366 79.2 107.2 C 80.64 105.76 82.08 102.086 82.56 98.246 L 83.52 93.11 85.91 97.11 C 90.886 92.32 92.1 86.246 93.446 84.32 93.446 84 93.6 83.686 93.6 83.366 L 96.96 73.76 97.6 83.366 C 99.2 82.71 102.08 81.28 103.04 80.32 L 103.04 80.32 C 103.2 80.16 103.52 80 103.68 79.84 C 104.326 79.366 104.96 78.88 105.6 78.46 C 105.91 78.246 106.08 78.086 106.24 77.92 C 108 76.48 112.326 72.64 113.6 68 C 113.6 68 114.886 71.2 114.886 73.28 C 117.91 72 120.48 67.2 120.48 67.2 C 121.446 65.6 122.4 64.16 123.2 63.04 A 60 60 0 0 0 71.52 22.46 C 72 24 72.64 25.44 73.446 27.2 74.56 29.76 76 32.966 77.28 37.44 79.52 46.086 75.52 56.48 72 65.6 69.91 71.04 67.84 76.16 67.68 79.84 67.2 87.686 68.48 92 69.91 96.966 70.56 99.366 71.36 101.6 71.84 104.48 Z" />
		<path id="dragon_infill_upper_left" d="M 67.52 41.6 C 66.886 37.6 65.91 34.71 64.96 31.84 C 64 28.86 63.04 25.92 62.72 22.246 A 60 60 0 0 0 9.766 62.086 C 10.566 63.206 11.04 64.32 12 65.76 L 12 65.92 L 12.326 66.46 C 13.766 68.64 16.96 72.64 17.91 72.32 17.446 69.11 18.886 66.88 18.886 66.88 19.04 68.32 20.16 70.46 20.64 71.366 L 20.64 71.366 C 21.446 72.966 24.326 75.526 28.48 78.88 28.64 79.04 28.1 79.2 29.12 79.366 L 29.12 79.366 C 30.08 80.32 32.1 81.92 34.56 82.56 L 35.84 73.92 38.4 82.71 C 38.4 82.71 41.28 91.686 45.766 96.64 L 48.326 92.64 49.28 97.76 C 49.28 98.086 49.28 98.46 49.28 98.88 L 49.28 98.88 C 49.28 98.88 49.28 100.966 49.91 102.71 50.56 104.16 51.36 105.92 52.326 106.88 52.326 106.88 52.1 107.2 53.12 107.366 53.91 107.686 54.72 108.16 55.2 108.86 55.2 108.86 56.326 110.086 56.16 108.48 56.16 108.16 56.326 103.366 56.326 102.71 L 58.72 104.86 C 58.72 104.86 56.326 98.46 56.326 97.76 54.72 92.32 53.766 86.56 54.24 79.686 54.56 73.44 58.08 66.46 61.446 59.84 64.1 53.11 68.326 46.246 67.52 41.6 Z" />
		<path id="dragon_infill_lower_left" d="M 60 117.6 C 59.04 117.6 56.64 118.88 55.68 119.686 L 57.446 121.11 55.04 122.71 C 54.4 122.88 53.91 123.04 53.28 123.04 C 51.2 123.04 48.64 121.6 45.6 119.84 C 45.12 119.526 44.48 119.2 44.16 119.04 C 42.72 118.46 37.446 114.71 32.96 111.686 C 20.1 103.526 23.04 102.086 23.04 102.086 L 24 101.44 C 22.886 99.686 21.6 97.92 20.16 96 C 19.04 94.56 17.91 92.966 16.96 91.366 C 16.1 91.04 16.48 90.71 16.16 90.086 C 11.84 83.04 9.12 78.46 8.64 76.48 L 7.84 72.64 7.36 71.366 A 60 60 0 0 0 55.36 141.11 L 55.36 141.11 C 55.36 140.64 55.36 139.99999 55.36 139.2 L 55.36 138.88 L 55.36 138.71 C 55.84 136.64 56.64 135.04 57.446 134.086 58.56 132.86 59.04 131.04 59.52 129.11 59.68 128.32 59.84 127.526 60.16 126.71 60.326 126.46 60.64 124.32 60.96 122.56 60.96 121.92 60.96 119.2 60.96 117.76 60.1 117.6 60.48 117.6 60 117.6 Z" />
		<path id="mid_ring_lower_left" d="M 6.56 69.6 C 6.234 68.74 5.75 67.834 5.12 65.92 L 5.12 65.92 A 63.3 63.3 0 0 0 56 144.48 C 55.84 144.16 55.68 143.526 55.52 142.246 A 61.2 61.2 0 0 1 6.56 69.6 Z" />
		<path id="mid_ring_lower_right" d="M 127.68 66.56 C 127.034 68.01 126.57 69.612 126.24 70.246 A 61.2 61.2 0 0 1 72.16 142.88 C 72.1 143.2 72.2 143.5 71.2 145.11 A 63.3 63.3 0 0 0 127.68 66.56 Z" />
		<path id="dragon_infill_lower_right" d="M 70.4 134.086 L 71.68 137.28 C 71.84 137.6 72.6 139.526 72.326 141.76 A 60 60 0 0 0 125.6 72.32 L 125.6 72.32 C 123.46 76.534 123.52 77.92 123.52 77.92 123.04 79.84 120.16 84.48 115.84 91.366 115.36 91.84 115.2 92.32 114.886 92.64 113.91 94.086 112.96 95.526 111.84 96.966 110.4 98.88 108.96 100.86 107.84 102.71 107.84 102.71 111.84 104 98.4 112.64 93.91 115.526 88.48 119.04 87.04 119.686 86.72 119.84 86.08 120.16 85.6 120.48 82.56 122.086 80 123.526 77.91 123.526 77.28 123.526 76.64 123.366 76.16 123.04 L 73.766 121.44 75.68 119.84 C 75.2 119.04 73.28 117.6 72.48 117.6 L 72.48 117.6 L 72.326 120.16 L 72.326 120.16 L 72.326 120.32 C 72 122.246 71.52 125.6 71.52 125.6 71.36 127.04 71.36 128.32 71.52 128.966 L 71.68 129.11 L 71.68 129.28 L 71.68 129.6 C 71.84 130.246 72 131.366 71.36 132.48 71.04 133.28 70.56 133.76 70.4 134.086 Z" />
		<path id="mid_ring_upper_right" d="M 70.886 19.04 C 70.886 19.37 71.04 20.96 71.2 21.28 A 61.2 61.2 0 0 1 124 61.92 C 124.64 60.966 124.97 60.474 125.6 59.84 A 63.3 63.3 0 0 0 70.886 19.04 Z" />
		<path id="mid_ring_upper_left" d="M 8.96 61.11 A 61.2 61.2 0 0 1 62.72 21.11 C 62.72 20.48 62.56 19.84 62.56 19.04 L 62.56 18.88 A 63.3 63.3 0 0 0 7.52 58.88 C 8.16 59.686 8.154 59.83 8.96 61.11 Z" />
	</g>
</svg>