<?xml version="1.0" encoding="UTF-8" standalone="no"?>
<svg width="35.856323" height="41.190338" viewBox="0 0 35.856323 41.190338" version="1.1" xmlns="http://www.w3.org/2000/svg">
	<g fill="#0d4934">
		<path id="green_outer_arc_right" d="M 27.051 5.16467 A 17.92 17.92 0 0 1 19.98132 38.39633 C 20.10833 38.1 20.23533 37.76133 20.40467 37.50734 A 17.1 17.1 0 0 0 27.89767 6.68867 C 27.77066 6.35 27.432 5.75734 27.051 5.16467 Z" />
		<path id="green_outer_arc_left" d="M 17.145 38.481 A 17.92 17.92 0 0 1 12.74233 3.42901 C 12.99633 3.64067 13.208 3.89467 13.462 4.06401 A 17.1 17.1 0 0 0 16.72167 37.63434 C 16.89099 37.93067 17.018 38.18467 17.145 38.481 Z" />
		<path id="green_inner_arc_left" d="M 14.39333 4.74134 A 16.22 16.22 0 0 0 16.12899 36.703 C 16.17133 36.78767 16.256 36.91467 16.34067 36.99933 A 16.48 16.48 0 0 1 14.05467 4.572 C 14.18166 4.61433 14.30867 4.699 14.39333 4.74134 Z" />
		<path id="green_inner_arc_right" d="M 21.42066 36.40667 A 16.22 16.22 0 0 0 28.15166 8.00101 C 28.10933 7.78933 28.02466 7.66234 27.98234 7.493 A 16.48 16.48 0 0 1 20.99733 36.78767 C 21.12432 36.70301 21.336 36.53367 21.42066 36.40667 Z" />
		<path
			id="stag"
			d="
				M 14.13933 16.67934 C 13.80066 16.76401 13.208 17.14501 13.208 17.14501 13.208 17.14501 13.25034 16.34067 13.75833 16.04434 13.92767 15.91733 14.26633 15.875 14.52034 15.875 14.85899 15.875 15.113 15.95967 15.113 16.21367 15.113 16.59467 14.39333 16.59467 14.13933 16.67934 Z
				M 20.74333 36.27967 C 23.02933 34.417 24.46866 31.91934 24.84966 28.87133 24.72267 28.956 24.55333 28.99834 24.42634 28.99834 24.13 28.99834 23.876 28.78667 23.70666 28.575 22.14033 26.33134 22.225 23.66433 22.05566 21.16667 21.92867 19.13467 22.01334 17.56834 22.26733 16.80634 L 23.79133 16.29834 C 23.79133 16.29834 24.638 16.04434 24.638 15.79034 24.638 15.57867 23.28333 15.28234 23.28333 15.28234 23.28333 15.28234 21.67466 15.02834 20.40467 14.81667 20.91266 14.35101 21.88633 13.12334 22.26733 12.57301 22.30967 12.48834 22.35199 12.40367 22.43666 12.27667 22.85999 12.10734 23.28333 11.938 23.79133 11.938 24.08766 11.938 24.42634 12.02267 24.80734 12.10734 25.48467 12.36133 25.14599 12.65767 25.4 12.65767 L 25.4 12.65767 C 25.61166 12.65767 25.86567 12.53067 25.99266 12.10734 26.11966 11.72634 26.20433 11.38767 26.24667 11.09134 26.75467 11.303 26.50066 11.59933 26.71232 11.59933 L 26.71232 11.59933 C 26.96633 11.59933 27.22034 11.43 27.34733 11.049 28.067 8.33967 27.47433 7.95867 27.305 7.32367 27.17799 6.858 27.47433 7.112 27.305 6.731 27.17799 6.35 25.69633 4.02167 25.35766 3.72534 25.4 4.06401 25.61166 4.23333 25.14599 4.572 25.10367 4.572 25.019 4.572 24.97666 4.572 24.55333 4.572 24.38399 4.40267 23.876 4.14867 23.24099 3.85233 22.90233 2.87867 22.85999 2.58234 22.81766 2.286 22.69067 1.73567 22.606 1.56634 22.39434 1.82034 21.97099 2.11667 21.37833 2.45533 20.99733 2.66701 20.27767 2.75167 19.558 2.75167 18.92299 2.75167 18.288 2.70934 17.82233 2.58234 16.637 2.286 13.80066 0.762 13.25034 0.0 13.462 1.10067 15.19767 2.794 16.08666 3.21733 16.46766 3.42901 17.06033 3.64067 17.69534 3.85233 17.22967 3.81001 16.80632 3.76767 16.46766 3.683 15.28234 3.38667 12.48834 1.82034 11.938 1.10067 12.14966 2.20134 13.843 3.89467 14.732 4.318 16.08666 4.99534 19.13467 5.63033 20.27767 6.05367 21.03966 6.35 23.53732 8.08567 23.70666 9.05934 23.749 9.271 23.749 9.48267 23.66433 9.60967 23.53732 9.652 23.368 9.69434 23.19866 9.69434 22.77534 9.69434 22.30967 9.56733 22.26733 9.35567 22.14033 9.05934 22.18266 9.18633 22.39434 8.763 21.54767 9.01701 21.42066 9.73667 21.082 10.49867 21.03966 10.49867 20.955 10.45634 20.91266 10.41401 20.65867 10.287 20.65867 10.287 20.91266 9.86367 19.89667 10.32934 20.06599 11.47234 19.26166 12.57301 18.92299 12.74233 18.669 12.827 18.45734 12.827 18.24566 12.827 18.07634 12.74233 17.94933 12.61534 17.65299 12.36133 17.61067 11.55701 17.65299 10.83734 17.35666 11.049 17.06033 11.13367 16.80632 11.13367 16.29833 11.13367 15.875 10.83734 15.53633 10.541 14.85899 9.99067 15.113 9.05934 15.19767 8.42433 14.39333 9.01701 14.52034 10.45634 14.64733 10.922 14.85899 11.43 15.28234 11.811 15.66334 12.19201 15.62099 12.23434 15.53633 12.23434 15.45166 12.23434 14.98601 12.23434 14.56266 11.938 14.18166 11.59933 13.54667 11.049 13.75833 10.16001 13.843 9.48267 13.03866 10.11767 13.16567 11.51467 13.33499 12.02267 13.71599 13.081 15.32466 13.716 15.28234 14.90134 L 15.28234 14.90134 C 15.15533 14.90134 15.113 14.90134 15.113 14.90134 15.113 14.90134 14.09699 15.113 13.67366 15.113 L 13.63132 15.113 C 13.41966 15.113 13.29266 15.113 13.208 15.113 12.82699 15.113 12.78467 15.19767 12.44599 15.66334 11.98033 16.256 11.38766 16.17133 10.92199 16.76401 10.32933 17.48367 8.763 17.399 8.72066 17.86467 8.67833 18.54201 8.12799 19.431 8.17034 19.60034 8.21266 19.76967 8.255 19.76967 8.382 19.85434 8.80533 20.193 8.55134 19.93901 11.049 21.25134 11.049 21.25134 11.34534 20.40467 12.61533 19.76967 12.91166 19.60034 13.12333 19.558 13.33499 19.51567 13.92767 19.60034 14.01232 19.76967 14.01232 19.76967 14.01232 19.76967 16.29833 19.98134 15.494 21.54767 16.42534 21.844 14.47799 26.50067 13.50433 28.067 12.86934 29.083 12.53066 28.99834 12.19201 29.083 12.06499 29.63333 14.26633 34.45934 15.74799 35.64467 17.22967 36.78767 18.33033 38.735 18.62666 41.19034 19.00766 38.989 19.26166 37.50734 20.74333 36.27967 Z
			"
		/>
	</g>
	<g fill="#8d7c21">
		<path id="yellow_arc_right" d="M 27.89767 6.68867 C 27.93999 6.858 27.93999 7.02733 27.85533 7.19667 C 27.85533 7.28134 27.94002 7.40833 27.98234 7.493 A 16.48 16.48 0 0 1 20.99733 36.78767 C 20.78567 36.957 20.574 37.211 20.40467 37.50734 A 17.1 17.1 0 0 0 27.89767 6.68867 Z" />
		<path id="yellow_arc_left" d="M 16.34067 36.99933 A 16.48 16.48 0 0 1 14.05467 4.572 C 13.88533 4.40267 13.67366 4.27567 13.462 4.06401 A 17.1 17.1 0 0 0 16.72167 37.63434 C 16.59466 37.42267 16.46766 37.211 16.34067 36.99933 Z" />
		<path id="yellow_half_right" d="M 21.42066 36.40667 A 16.22 16.22 0 0 0 28.15166 8.00101 C 28.27867 8.55134 28.32099 9.44034 27.85533 11.17601 C 27.686 11.89567 27.13567 12.14967 26.71232 12.14967 C 26.67 12.14967 26.62767 12.14967 26.58533 12.10734 C 26.543 12.14967 26.543 12.23434 26.543 12.27667 C 26.33132 12.95401 25.82333 13.208 25.4 13.208 C 25.27299 13.208 24.84966 13.208 24.76499 12.7 C 24.72267 12.7 24.68033 12.65767 24.59566 12.65767 C 24.34167 12.57301 24.04534 12.48834 23.79133 12.48834 C 23.45267 12.48834 23.114 12.57301 22.81766 12.74233 C 22.77534 12.78467 22.733 12.827 22.733 12.86934 C 22.47899 13.25034 21.97099 13.88534 21.50533 14.43567 C 22.47899 14.605 23.368 14.73201 23.41033 14.73201 L 23.41033 14.77433 C 24.76499 15.07067 25.18834 15.32467 25.18834 15.79034 C 25.18834 16.256 24.76499 16.59467 23.96067 16.80634 L 22.733 17.22967 C 22.56366 17.99167 22.52133 19.431 22.606 21.12433 C 22.64833 21.42067 22.64833 21.71701 22.69067 22.05567 C 22.77534 24.21467 22.90233 26.416 24.17233 28.23633 C 24.257 28.321 24.34167 28.448 24.42634 28.448 C 24.46866 28.448 24.511 28.40567 24.59566 28.40567 L 25.56934 27.813 L 25.4 28.91367 C 25.06133 31.91934 23.66433 34.50167 21.42066 36.40667 Z" />
		<path id="yellow_right_left" d="M 14.39333 4.74134 C 14.43567 4.78367 14.47799 4.78367 14.47799 4.82601 C 15.36701 5.24933 16.89099 5.67267 18.24566 6.05367 C 18.96533 6.22301 19.68499 6.43467 20.10833 6.56167 C 20.61633 6.77334 21.67466 7.53534 22.39434 8.21267 L 22.26733 8.255 C 21.67466 8.38201 21.29366 8.763 21.082 9.18633 L 20.65867 9.35567 C 19.85433 9.73667 19.60034 10.41401 19.38866 11.09134 C 19.26166 11.43 19.13467 11.811 18.88066 12.14967 C 18.669 12.27667 18.49966 12.27667 18.45734 12.27667 C 18.41499 12.27667 18.37267 12.27667 18.33033 12.23434 C 18.288 12.14967 18.16101 11.64167 18.20333 10.87967 L 18.288 9.73667 L 17.35666 10.37167 C 17.145 10.49867 16.97566 10.58333 16.80632 10.58333 C 16.50999 10.58333 16.21366 10.37167 15.875 10.11767 C 15.57867 9.82133 15.62099 9.39801 15.70566 8.72067 C 15.70566 8.636 15.70566 8.55134 15.74799 8.46667 L 15.875 7.19667 14.85899 7.95867 C 14.732 8.08567 14.605 8.17034 14.47799 8.29734 L 13.50433 9.05934 C 12.44599 9.86367 12.61533 11.51467 12.82699 12.19201 13.03866 12.78467 13.50433 13.25034 13.92767 13.63134 14.26633 13.97001 14.47799 14.224 14.605 14.43567 14.26633 14.52034 13.88533 14.56267 13.67366 14.56267 L 13.589 14.56267 C 13.41966 14.56267 13.29266 14.56267 13.208 14.56267 12.57299 14.56267 12.40367 14.81667 12.10734 15.19767 12.06499 15.24 12.02267 15.28234 11.98033 15.32467 11.85333 15.53633 11.68399 15.621 11.43 15.70567 11.13367 15.875 10.795 16.04434 10.49866 16.42534 10.287 16.637 9.77899 16.80634 9.39799 16.891 8.84767 17.06034 8.21266 17.22967 8.17034 17.82234 8.17034 18.161 7.95867 18.58434 7.83166 18.92301 7.66232 19.30401 7.57767 19.51567 7.62 19.76967 7.70467 20.02367 7.83166 20.15067 8.001 20.27767 L 8.04333 20.27767 C 8.29733 20.48933 8.382 20.53167 8.763 20.70101 9.05933 20.87034 9.60967 21.12433 10.795 21.75934 L 11.34534 22.05567 11.557 21.463 C 11.557 21.42067 11.85333 20.78567 12.86934 20.27767 13.03866 20.15067 13.208 20.10833 13.33499 20.066 13.41966 20.10833 13.50433 20.10833 13.54667 20.15067 L 13.63132 20.32001 L 13.97 20.32001 C 14.30867 20.36234 14.94366 20.53167 15.07066 20.78567 15.15533 20.91267 15.113 21.08201 15.02833 21.29367 L 14.732 21.844 15.19767 22.01334 C 15.28234 22.77534 14.13933 25.99267 13.03866 27.77067 12.61533 28.448 12.44599 28.49034 12.23433 28.49034 12.19201 28.49034 12.14966 28.49034 12.10734 28.53267 L 11.72634 28.575 11.64167 28.956 C 11.47233 29.92967 13.97 34.925 15.40933 36.068 15.66334 36.195 15.875 36.40667 16.12899 36.703 A 16.22 16.22 0 0 1 14.39333 4.74134 Z" />
	</g>
</svg>