<?xml version="1.0" encoding="UTF-8"?>
<svg version="1.0" xmlns="http://www.w3.org/2000/svg"  width="1468.4pt" height="98.4pt" viewBox="0 0 1468.4 98.4"  preserveAspectRatio="xMidYMid meet">
<g stroke="rgb(4.017639%,3.95813%,4.968262%)" fill="none">
	<path stroke-width="2.4" fill="white" d="M 16.2 14.7 L 1.2 29.7 L 1.2 68.7 L 16.2 83.7 L 553.2 83.7 L 553.2 14.7 Z"/>
	<path stroke-width="2.4" d="M 553.2 14.7 L 531.2 41.7 L 531.2 56.7 L 553.2 83.7"/>
	<path stroke-width="1.5" d="M 1.65 49.2 C 1.65 36.7 15.2 20.7 39.2 15.15"/>
	<path stroke-width="1.5" d="M 1.65 49.2 C 1.65 61.7 15.2 77.7 39.2 83.25"/>
	<path d="M 21.2 22.2 L 547.2 22.2"/>
	<path d="M 21.2 76.2 L 547.2 76.2"/>
	<path d="M 525.2 22.2 C 547.2 31.7 547.2 66.7 525.2 76.2"/>
	<path d="M 553.2 23.2 L 540.2 39.2"/>
	<path d="M 553.2 75.2 L 540.2 59.2"/>

	<circle fill="rgb(4.017639%,3.95813%,4.968262%)" cx="541.7" cy="49.2" r="2"/>
</g>

<g stroke="rgb(4.017639%,3.95813%,4.968262%)" fill="none">
	<path stroke-width="2.4" fill="white" d="M 1452.2 14.7 L 1467.2 29.7 L 1467.2 68.7 L 1452.2 83.7 L 1397.2 83.7 L 1397.2 14.7 Z"/>
	<path stroke-width="2.4" d="M 1397.2 14.7 L 1419.2 41.7 L 1419.2 56.7 L 1397.2 83.7"/>
	<path stroke-width="1.5" d="M 1466.75 49.2 C 1466.75 36.7 1453.2 20.7 1429.2 15.15"/>
	<path stroke-width="1.5" d="M 1466.75 49.2 C 1466.75 61.7 1453.2 77.7 1429.2 83.25"/>
	<path d="M 1404.2 22.2 L 1447.2 22.2"/>
	<path d="M 1404.2 76.2 L 1447.2 76.2"/>
	<path d="M 1425.2 22.2 C 1403.2 31.7 1403.2 66.7 1425.2 76.2"/>
	<path d="M 1397.2 23.2 L 1410.2 39.2"/>
	<path d="M 1397.2 75.2 L 1410.2 59.2"/>

	<circle fill="rgb(4.017639%,3.95813%,4.968262%)" cx="1408.7" cy="49.2" r="2"/>
</g>

<g stroke="rgb(4.017639%,3.95813%,4.968262%)" fill="none">
	<path stroke-width="2.4" fill="rgb(87.059021%,86.824036%,86.882019%)" d ="M 553.2 13.7 L 565.7 1.2 L 1384.7 1.2 L 1397.2 13.7 L 1397.2 84.7 L 1384.7 97.2 L 565.7 97.2 L 553.2 84.7 Z" />

	<path stroke-width="1.5" d="M 553.65 36.7 C 553.65 24.2 562.7 1.65 586.2 1.65"/>
	<path stroke-width="1.5" d="M 553.65 61.7 C 553.65 74.2 562.7 96.75 586.2 96.75"/>
	<path stroke-width="1.5" d="M 1396.75 36.7 C 1396.75 24.2 1387.7 1.65 1364.2 1.65"/>
	<path stroke-width="1.5" d="M 1396.75 61.7 C 1396.75 74.2 1387.7 96.75 1364.2 96.75"/>

	<path stroke-width="1.5" d="M 561.2 14.7 L 561.2 83.7"/>
	<path stroke-width="1.5" d="M 1389.2 14.7 L 1389.2 83.7"/>
</g>

<g stroke="rgb(4.017639%,3.95813%,4.968262%)" fill="none">
	<path stroke-width="2.4" fill="white" d ="M 592.2 12.7 L 779.2 12.7 L 790.7 33.7 L 790.7 64.7 L 779.2 85.7 L 592.2 85.7 L 580.7 64.7 L 580.7 33.7 Z"/>
	<path d="M 585.7 25.7 L 585.7 72.7"/>
	<path d="M 785.7 25.7 L 785.7 72.7"/>
	<path d="M 585.7 34.7 L 597.7 13.2"/>
	<path d="M 585.7 63.7 L 597.7 85.2"/>
	<path d="M 785.7 34.7 L 773.7 13.2"/>
	<path d="M 785.7 63.7 L 773.7 85.2"/>
</g>

<g stroke="rgb(4.017639%,3.95813%,4.968262%)" fill="none">
	<path stroke-width="2.4" fill="white" d ="M 996.2 12.7 L 1156.7 12.7 L 1168.2 33.7 L 1168.2 64.7 L 1156.7 85.7 L 996.2 85.7 L 984.7 64.7 L 984.7 33.7 Z"/>
	<path d="M 989.7 25.7 L 989.7 72.7"/>
	<path d="M 1163.2 25.7 L 1163.2 72.7"/>
	<path d="M 989.7 34.7 L 1001.7 13.2"/>
	<path d="M 989.7 63.7 L 1001.7 85.2"/>
	<path d="M 1163.2 34.7 L 1151.2 13.2"/>
	<path d="M 1163.2 63.7 L 1151.2 85.2"/>
</g>

<g stroke="rgb(4.017639%,3.95813%,4.968262%)" fill="none">
	<path stroke-width="2.4" fill="white" d ="M 1198.2 12.7 L 1358.7 12.7 L 1370.2 33.7 L 1370.2 64.7 L 1358.7 85.7 L 1198.2 85.7 L 1186.7 64.7 L 1186.7 33.7 Z"/>
	<path d="M 1191.7 25.7 L 1191.7 72.7"/>
	<path d="M 1365.2 25.7 L 1365.2 72.7"/>
	<path d="M 1191.7 34.7 L 1203.7 13.2"/>
	<path d="M 1191.7 63.7 L 1203.7 85.2"/>
	<path d="M 1365.2 34.7 L 1353.2 13.2"/>
	<path d="M 1365.2 63.7 L 1353.2 85.2"/>
</g>
</svg>
