<?xml version="1.0" encoding="UTF-8"?>
<svg xmlns="http://www.w3.org/2000/svg" version="1.1" width="1470.4px" height="55.9px" xmlns:xlink="http://www.w3.org/1999/xlink">
<g stroke="rgb(69.805908%,69.256592%,69.392395%)" fill="none">
	<g stroke-width="2.4">
		<path fill="white" d="M 1.2 12.7 L 12.2 1.2 L 1458.2 1.2 L 1469.2 12.7 L 1469.2 43.2 L 1458.2 54.7 L 12.2 54.7 L 1.2 43.2 Z"/>
		<path d="M 368.2 1.7 L 353.2 21.2 L 353.2 34.7 L 368.2 54.2"/>
		<path d="M 1102.2 1.7 L 1117.2 21.2 L 1117.2 34.7 L 1102.2 54.2"/>
	</g>
	<g stroke-width="1.5">
		<path d="M 1.65 27.95 C 1.65 18.3 12.0 5.7 30.5 1.6 M 1.65 27.95 C 1.65 37.6 12.0 50.2 30.5 54.2"/>
		<path d="M 1468.75 27.95 C 1468.75 18.3 1458.4 5.7 1439.9 1.6 M 1468.75 27.95 C 1468.75 37.6 1458.4 50.2 1439.9 54.2"/>
		<path d="M 17.2 6.7 L 364.2 6.7 M 17.2 49.2 364.2 49.2"/>
		<path d="M 1453.2 6.7 L 1106.2 6.7 M 1453.2 49.2 1106.2 49.2"/>
	</g>
	<path d="M 347.4 6.7 C 364.7 14.2 364.7 41.7 347.4 49.2"/>
	<path d="M 1123.0 6.7 C 1105.7 14.2 1105.7 41.7 1123.0 49.2"/>
	<path d="M 374.7 1.7 L 359.7 21.2 M 374.7 54.2 L 359.7 34.7"/>
	<path d="M 1095.7 1.7 L 1110.7 21.2 M 1095.7 54.2 L 1110.7 34.7"/>
	<circle fill="rgb(69.805908%,69.256592%,69.392395%)" cx="360.5" cy="27.95" r="1.5"/>
	<circle fill="rgb(69.805908%,69.256592%,69.392395%)" cx="1109.9" cy="27.95" r="1.5"/>
</g>
</svg>
