<?xml version="1.0" encoding="UTF-8" standalone="no"?>
<svg version="1.1" id="svg854" xml:space="preserve" width="734.28" height="159.4" viewBox="0 0 734.28 159.4" xmlns="http://www.w3.org/2000/svg">
	<g stroke="black" fill="none">
		<path stroke-width="1.5" fill="white" d="M 1.3 6.3 C 3.2 6.3 6.8 3.2 6.8 1.3 L 727.3 1.3 C 727.3 3.2 731.6 6.3 733 6.3 L 733 153.1 C 731.6 153.1 727.3 156.2 727.3 158.1 L 6.8 158.1 C 6.8 156.2 3.3 153.1 1.4 153.1 Z"/>
		<path d="M 1.3  15.3 C 1.3  10.9  10.9   1.3 15.3   1.3"/>
		<path d="M 733  15.3 C 733  10.9 723.4   1.3 719    1.3"/>
		<path d="M 1.3 144.1 C 1.3 148.5  10.9 158.1 15.3 158.1"/>
		<path d="M 733 144.1 C 733 148.5 723.4 158.1 719  158.1"/>
		<g stroke-width="0.6">
			<path d="M 5.3 8.2 L 5.3 151.2"/>
			<path d="M 729 8.2 L 729 151.2"/>
		</g>
	</g>
</svg>