<?xml version="1.0" encoding="UTF-8"?>
<svg xmlns="http://www.w3.org/2000/svg" xmlns:xlink="http://www.w3.org/1999/xlink" width="637.18359pt" height="77.16797pt" viewBox="0 0 637.18359 77.16797" version="1.2" stroke-miterlimit="10">
<g id="pane">
<g stroke="rgb(4.017639%,3.95813%,4.968262%)">
<path fill="white" stroke-width="2.4" d="M 4.69922 0.5 L 4.69922 57.59765 C 7.01172 57.59765 12.22656 63.96093 12.22656 66.20703 L 624.96094 66.20703 C 624.96094 63.96093 630.17578 57.59375 632.48828 57.59375 L 632.48828 0.5"/>
<g fill="none">
<g stroke-width="1.5">
<path d="M 25.46875 66.20703 C 15.01172 62.94531 4.99609 52.01171 4.69922 44.92968"/>
<path d="M 611.71875 66.20703 C 622.17187 62.9414 632.1875 52.01171 632.48828 44.92968"/>
</g>
<path d="M 622.44141 60.20703 L 14.74609 60.20703"/>
</g>
</g>
<g fill="none" stroke="rgb(69.805908%,69.256592%,69.392395%)">
<path d="M 75.23359 38.48828 L 75.23359 0.5"/>
<path d="M 144.73359 38.48828 L 144.73359 0.5"/>
<path d="M 214.23359 38.48828 L 214.23359 0.5"/>
<path d="M 283.73359 38.48828 L 283.73359 0.5"/>
<path d="M 353.23359 38.48828 L 353.23359 0.5"/>
<path d="M 422.73359 38.48828 L 422.73359 0.5"/>
<path d="M 492.23359 38.48828 L 492.23359 0.5"/>
<path d="M 561.73359 38.48828 L 561.73359 0.5"/>
</g>
<g stroke-width="2.5" stroke="rgb(4.017639%,3.95813%,4.968262%)" fill="white">
<path d="M 0.50391 0.5 L 0.5 76.66797 C 2.59766 71.63672 4.69531 69.53906 4.69531 69.53906 L 4.69922 0.5"/>
<path d="M 636.67969 0.5 L 636.68359 76.66797 C 634.58594 71.63672 632.48828 69.53906 632.48828 69.53906 L 632.48437 0.5"/>
</g>
</g>
</svg>
