<?xml version="1.0" encoding="UTF-8"?>
<svg xmlns="http://www.w3.org/2000/svg" xmlns:xlink="http://www.w3.org/1999/xlink" width="1190.548pt" height="1584.008pt" viewBox="0 0 1190.548 1584.008" version="1.2">
<g id="surface58">
<path style="fill:none;stroke-width:1.2;stroke-linecap:butt;stroke-linejoin:miter;stroke:rgb(4.017639%,3.95813%,4.968262%);stroke-opacity:1;stroke-miterlimit:10;" d="M -0.000353125 0.000175 C 1.124647 0.000175 4.306287 -2.607247 4.306287 -3.763497 L 263.493787 -3.763497 C 263.493787 -2.607247 266.675428 0.000175 267.800428 0.000175 L 267.798475 738.523613 C 266.675428 738.523613 263.493787 741.131034 263.493787 742.287284 L 4.306287 742.287284 C 4.306287 741.131034 1.122694 738.523613 -0.000353125 738.523613 Z M -0.000353125 0.000175 " transform="matrix(2,0,0,-2,609.1218,1530.5316)"/>
<path style="fill:none;stroke-width:0.75;stroke-linecap:butt;stroke-linejoin:miter;stroke:rgb(4.017639%,3.95813%,4.968262%);stroke-opacity:1;stroke-miterlimit:10;" d="M 0.000728125 0.00016875 C -1.632084 -5.226394 -7.098881 -10.234206 -10.639897 -10.384597 " transform="matrix(2,0,0,-2,1144.7212,1517.2894)"/>
<path style="fill:none;stroke-width:0.75;stroke-linecap:butt;stroke-linejoin:miter;stroke:rgb(4.017639%,3.95813%,4.968262%);stroke-opacity:1;stroke-miterlimit:10;" d="M -0.000353125 0.00016875 C 1.632459 -5.226394 7.097303 -10.234206 10.638319 -10.384597 " transform="matrix(2,0,0,-2,609.1218,1517.2894)"/>
<path style="fill:none;stroke-width:0.75;stroke-linecap:butt;stroke-linejoin:miter;stroke:rgb(4.017639%,3.95813%,4.968262%);stroke-opacity:1;stroke-miterlimit:10;" d="M -0.000525 -0.00008125 C -1.631384 5.226481 -7.098181 10.234294 -10.639197 10.384684 " transform="matrix(2,0,0,-2,1144.7198,66.7264)"/>
<path style="fill:none;stroke-width:0.75;stroke-linecap:butt;stroke-linejoin:miter;stroke:rgb(4.017639%,3.95813%,4.968262%);stroke-opacity:1;stroke-miterlimit:10;" d="M 0.000246875 -0.00008125 C 1.631106 5.226481 7.097903 10.234294 10.638919 10.384684 " transform="matrix(2,0,0,-2,609.1206,66.7264)"/>
<path style="fill:none;stroke-width:1.2;stroke-linecap:butt;stroke-linejoin:miter;stroke:rgb(4.017639%,3.95813%,4.968262%);stroke-opacity:1;stroke-miterlimit:10;" d="M 0.000525 0.000175 C 1.123572 0.000175 4.305212 -2.607247 4.305212 -3.763497 L 263.494666 -3.763497 C 263.494666 -2.607247 266.676306 0.000175 267.799353 0.000175 L 267.799353 738.523613 C 266.674353 738.523613 263.492712 741.131034 263.492712 742.287284 L 4.305212 742.287284 C 4.305212 741.131034 1.123572 738.523613 -0.00142813 738.523613 Z M 0.000525 0.000175 " transform="matrix(2,0,0,-2,47.2802,1530.5316)"/>
<path style="fill:none;stroke-width:0.75;stroke-linecap:butt;stroke-linejoin:miter;stroke:rgb(4.017639%,3.95813%,4.968262%);stroke-opacity:1;stroke-miterlimit:10;" d="M -0.000246875 0.00016875 C -1.631106 -5.226394 -7.097903 -10.234206 -10.638919 -10.384597 " transform="matrix(2,0,0,-2,582.8794,1517.2894)"/>
<path style="fill:none;stroke-width:0.75;stroke-linecap:butt;stroke-linejoin:miter;stroke:rgb(4.017639%,3.95813%,4.968262%);stroke-opacity:1;stroke-miterlimit:10;" d="M 0.000525 0.00016875 C 1.631384 -5.226394 7.098181 -10.234206 10.639197 -10.384597 " transform="matrix(2,0,0,-2,47.2802,1517.2894)"/>
<path style="fill:none;stroke-width:0.75;stroke-linecap:butt;stroke-linejoin:miter;stroke:rgb(4.017639%,3.95813%,4.968262%);stroke-opacity:1;stroke-miterlimit:10;" d="M 0.000353125 -0.00008125 C -1.632459 5.226481 -7.097303 10.234294 -10.638319 10.384684 " transform="matrix(2,0,0,-2,582.8782,66.7264)"/>
<path style="fill:none;stroke-width:0.75;stroke-linecap:butt;stroke-linejoin:miter;stroke:rgb(4.017639%,3.95813%,4.968262%);stroke-opacity:1;stroke-miterlimit:10;" d="M -0.000728125 -0.00008125 C 1.632084 5.226481 7.098881 10.234294 10.639897 10.384684 " transform="matrix(2,0,0,-2,47.2788,66.7264)"/>
<path style="fill:none;stroke-width:0.5;stroke-linecap:butt;stroke-linejoin:miter;stroke:rgb(69.805908%,69.256592%,69.392395%);stroke-opacity:1;stroke-miterlimit:10;" d="M -0.000409375 0.000046875 L 253.153887 0.000046875 " transform="matrix(2,0,0,-2,61.9266,71.504)"/>
<path style="fill:none;stroke-width:0.5;stroke-linecap:butt;stroke-linejoin:miter;stroke:rgb(69.805908%,69.256592%,69.392395%);stroke-opacity:1;stroke-miterlimit:10;" d="M -0.0004875 0.000046875 L 253.153809 0.000046875 " transform="matrix(2,0,0,-2,623.7666,71.504)"/>
<path style="fill:none;stroke-width:0.5;stroke-linecap:butt;stroke-linejoin:miter;stroke:rgb(69.805908%,69.256592%,69.392395%);stroke-opacity:1;stroke-miterlimit:10;" d="M -0.000409375 0.000646875 L 253.153887 0.000646875 " transform="matrix(2,0,0,-2,61.9266,93.5052)"/>
<path style="fill:none;stroke-width:0.5;stroke-linecap:butt;stroke-linejoin:miter;stroke:rgb(69.805908%,69.256592%,69.392395%);stroke-opacity:1;stroke-miterlimit:10;" d="M -0.0004875 0.000646875 L 253.153809 0.000646875 " transform="matrix(2,0,0,-2,623.7666,93.5052)"/>
<path style="fill:none;stroke-width:0.5;stroke-linecap:butt;stroke-linejoin:miter;stroke:rgb(69.805908%,69.256592%,69.392395%);stroke-opacity:1;stroke-miterlimit:10;" d="M -0.000409375 -0.00060625 L 253.153887 -0.00060625 " transform="matrix(2,0,0,-2,61.9266,115.5066)"/>
<path style="fill:none;stroke-width:0.5;stroke-linecap:butt;stroke-linejoin:miter;stroke:rgb(69.805908%,69.256592%,69.392395%);stroke-opacity:1;stroke-miterlimit:10;" d="M -0.0004875 -0.00060625 L 253.153809 -0.00060625 " transform="matrix(2,0,0,-2,623.7666,115.5066)"/>
<path style="fill:none;stroke-width:0.5;stroke-linecap:butt;stroke-linejoin:miter;stroke:rgb(69.805908%,69.256592%,69.392395%);stroke-opacity:1;stroke-miterlimit:10;" d="M -0.000409375 0.00009375 L 253.153887 0.00009375 " transform="matrix(2,0,0,-2,61.9266,137.508)"/>
<path style="fill:none;stroke-width:0.5;stroke-linecap:butt;stroke-linejoin:miter;stroke:rgb(69.805908%,69.256592%,69.392395%);stroke-opacity:1;stroke-miterlimit:10;" d="M -0.0004875 0.00009375 L 253.153809 0.00009375 " transform="matrix(2,0,0,-2,623.7666,137.508)"/>
<path style="fill:none;stroke-width:0.5;stroke-linecap:butt;stroke-linejoin:miter;stroke:rgb(69.805908%,69.256592%,69.392395%);stroke-opacity:1;stroke-miterlimit:10;" d="M -0.000409375 0.00079375 L 253.153887 0.00079375 " transform="matrix(2,0,0,-2,61.9266,159.5094)"/>
<path style="fill:none;stroke-width:0.5;stroke-linecap:butt;stroke-linejoin:miter;stroke:rgb(69.805908%,69.256592%,69.392395%);stroke-opacity:1;stroke-miterlimit:10;" d="M -0.0004875 0.00079375 L 253.153809 0.00079375 " transform="matrix(2,0,0,-2,623.7666,159.5094)"/>
<path style="fill:none;stroke-width:0.5;stroke-linecap:butt;stroke-linejoin:miter;stroke:rgb(69.805908%,69.256592%,69.392395%);stroke-opacity:1;stroke-miterlimit:10;" d="M -0.000409375 -0.000459375 L 253.153887 -0.000459375 " transform="matrix(2,0,0,-2,61.9266,181.5108)"/>
<path style="fill:none;stroke-width:0.5;stroke-linecap:butt;stroke-linejoin:miter;stroke:rgb(69.805908%,69.256592%,69.392395%);stroke-opacity:1;stroke-miterlimit:10;" d="M -0.0004875 -0.000459375 L 253.153809 -0.000459375 " transform="matrix(2,0,0,-2,623.7666,181.5108)"/>
<path style="fill:none;stroke-width:0.5;stroke-linecap:butt;stroke-linejoin:miter;stroke:rgb(69.805908%,69.256592%,69.392395%);stroke-opacity:1;stroke-miterlimit:10;" d="M -0.000409375 0.000240625 L 253.153887 0.000240625 " transform="matrix(2,0,0,-2,61.9266,203.5122)"/>
<path style="fill:none;stroke-width:0.5;stroke-linecap:butt;stroke-linejoin:miter;stroke:rgb(69.805908%,69.256592%,69.392395%);stroke-opacity:1;stroke-miterlimit:10;" d="M -0.0004875 0.000240625 L 253.153809 0.000240625 " transform="matrix(2,0,0,-2,623.7666,203.5122)"/>
<path style="fill:none;stroke-width:0.5;stroke-linecap:butt;stroke-linejoin:miter;stroke:rgb(69.805908%,69.256592%,69.392395%);stroke-opacity:1;stroke-miterlimit:10;" d="M -0.000409375 0.000940625 L 253.153887 0.000940625 " transform="matrix(2,0,0,-2,61.9266,225.5136)"/>
<path style="fill:none;stroke-width:0.5;stroke-linecap:butt;stroke-linejoin:miter;stroke:rgb(69.805908%,69.256592%,69.392395%);stroke-opacity:1;stroke-miterlimit:10;" d="M -0.0004875 0.000940625 L 253.153809 0.000940625 " transform="matrix(2,0,0,-2,623.7666,225.5136)"/>
<path style="fill:none;stroke-width:0.5;stroke-linecap:butt;stroke-linejoin:miter;stroke:rgb(69.805908%,69.256592%,69.392395%);stroke-opacity:1;stroke-miterlimit:10;" d="M -0.000409375 -0.0003125 L 253.153887 -0.0003125 " transform="matrix(2,0,0,-2,61.9266,247.515)"/>
<path style="fill:none;stroke-width:0.5;stroke-linecap:butt;stroke-linejoin:miter;stroke:rgb(69.805908%,69.256592%,69.392395%);stroke-opacity:1;stroke-miterlimit:10;" d="M -0.0004875 -0.0003125 L 253.153809 -0.0003125 " transform="matrix(2,0,0,-2,623.7666,247.515)"/>
<path style="fill:none;stroke-width:0.5;stroke-linecap:butt;stroke-linejoin:miter;stroke:rgb(69.805908%,69.256592%,69.392395%);stroke-opacity:1;stroke-miterlimit:10;" d="M -0.000409375 0.0003875 L 253.153887 0.0003875 " transform="matrix(2,0,0,-2,61.9266,269.5164)"/>
<path style="fill:none;stroke-width:0.5;stroke-linecap:butt;stroke-linejoin:miter;stroke:rgb(69.805908%,69.256592%,69.392395%);stroke-opacity:1;stroke-miterlimit:10;" d="M -0.0004875 0.0003875 L 253.153809 0.0003875 " transform="matrix(2,0,0,-2,623.7666,269.5164)"/>
<path style="fill:none;stroke-width:0.5;stroke-linecap:butt;stroke-linejoin:miter;stroke:rgb(69.805908%,69.256592%,69.392395%);stroke-opacity:1;stroke-miterlimit:10;" d="M -0.000409375 -0.000865625 L 253.153887 -0.000865625 " transform="matrix(2,0,0,-2,61.9266,291.5178)"/>
<path style="fill:none;stroke-width:0.5;stroke-linecap:butt;stroke-linejoin:miter;stroke:rgb(69.805908%,69.256592%,69.392395%);stroke-opacity:1;stroke-miterlimit:10;" d="M -0.0004875 -0.000865625 L 253.153809 -0.000865625 " transform="matrix(2,0,0,-2,623.7666,291.5178)"/>
<path style="fill:none;stroke-width:0.5;stroke-linecap:butt;stroke-linejoin:miter;stroke:rgb(69.805908%,69.256592%,69.392395%);stroke-opacity:1;stroke-miterlimit:10;" d="M -0.000409375 -0.000265625 L 253.153887 -0.000265625 " transform="matrix(2,0,0,-2,61.9266,313.519)"/>
<path style="fill:none;stroke-width:0.5;stroke-linecap:butt;stroke-linejoin:miter;stroke:rgb(69.805908%,69.256592%,69.392395%);stroke-opacity:1;stroke-miterlimit:10;" d="M -0.0004875 -0.000265625 L 253.153809 -0.000265625 " transform="matrix(2,0,0,-2,623.7666,313.519)"/>
<path style="fill:none;stroke-width:0.5;stroke-linecap:butt;stroke-linejoin:miter;stroke:rgb(69.805908%,69.256592%,69.392395%);stroke-opacity:1;stroke-miterlimit:10;" d="M -0.000409375 0.000534375 L 253.153887 0.000534375 " transform="matrix(2,0,0,-2,61.9266,335.5206)"/>
<path style="fill:none;stroke-width:0.5;stroke-linecap:butt;stroke-linejoin:miter;stroke:rgb(69.805908%,69.256592%,69.392395%);stroke-opacity:1;stroke-miterlimit:10;" d="M -0.0004875 0.000534375 L 253.153809 0.000534375 " transform="matrix(2,0,0,-2,623.7666,335.5206)"/>
<path style="fill:none;stroke-width:0.5;stroke-linecap:butt;stroke-linejoin:miter;stroke:rgb(69.805908%,69.256592%,69.392395%);stroke-opacity:1;stroke-miterlimit:10;" d="M -0.000409375 -0.00081875 L 253.153887 -0.00081875 " transform="matrix(2,0,0,-2,61.9266,357.5218)"/>
<path style="fill:none;stroke-width:0.5;stroke-linecap:butt;stroke-linejoin:miter;stroke:rgb(69.805908%,69.256592%,69.392395%);stroke-opacity:1;stroke-miterlimit:10;" d="M -0.0004875 -0.00081875 L 253.153809 -0.00081875 " transform="matrix(2,0,0,-2,623.7666,357.5218)"/>
<path style="fill:none;stroke-width:0.5;stroke-linecap:butt;stroke-linejoin:miter;stroke:rgb(69.805908%,69.256592%,69.392395%);stroke-opacity:1;stroke-miterlimit:10;" d="M -0.000409375 -0.00011875 L 253.153887 -0.00011875 " transform="matrix(2,0,0,-2,61.9266,379.5232)"/>
<path style="fill:none;stroke-width:0.5;stroke-linecap:butt;stroke-linejoin:miter;stroke:rgb(69.805908%,69.256592%,69.392395%);stroke-opacity:1;stroke-miterlimit:10;" d="M -0.0004875 -0.00011875 L 253.153809 -0.00011875 " transform="matrix(2,0,0,-2,623.7666,379.5232)"/>
<path style="fill:none;stroke-width:0.5;stroke-linecap:butt;stroke-linejoin:miter;stroke:rgb(69.805908%,69.256592%,69.392395%);stroke-opacity:1;stroke-miterlimit:10;" d="M -0.000409375 0.00058125 L 253.153887 0.00058125 " transform="matrix(2,0,0,-2,61.9266,401.5246)"/>
<path style="fill:none;stroke-width:0.5;stroke-linecap:butt;stroke-linejoin:miter;stroke:rgb(69.805908%,69.256592%,69.392395%);stroke-opacity:1;stroke-miterlimit:10;" d="M -0.0004875 0.00058125 L 253.153809 0.00058125 " transform="matrix(2,0,0,-2,623.7666,401.5246)"/>
<path style="fill:none;stroke-width:0.5;stroke-linecap:butt;stroke-linejoin:miter;stroke:rgb(69.805908%,69.256592%,69.392395%);stroke-opacity:1;stroke-miterlimit:10;" d="M -0.000409375 -0.000671875 L 253.153887 -0.000671875 " transform="matrix(2,0,0,-2,61.9266,423.526)"/>
<path style="fill:none;stroke-width:0.5;stroke-linecap:butt;stroke-linejoin:miter;stroke:rgb(69.805908%,69.256592%,69.392395%);stroke-opacity:1;stroke-miterlimit:10;" d="M -0.0004875 -0.000671875 L 253.153809 -0.000671875 " transform="matrix(2,0,0,-2,623.7666,423.526)"/>
<path style="fill:none;stroke-width:0.5;stroke-linecap:butt;stroke-linejoin:miter;stroke:rgb(69.805908%,69.256592%,69.392395%);stroke-opacity:1;stroke-miterlimit:10;" d="M -0.000409375 0.000128125 L 253.153887 0.000128125 " transform="matrix(2,0,0,-2,61.9266,445.5276)"/>
<path style="fill:none;stroke-width:0.5;stroke-linecap:butt;stroke-linejoin:miter;stroke:rgb(69.805908%,69.256592%,69.392395%);stroke-opacity:1;stroke-miterlimit:10;" d="M -0.0004875 0.000128125 L 253.153809 0.000128125 " transform="matrix(2,0,0,-2,623.7666,445.5276)"/>
<path style="fill:none;stroke-width:0.5;stroke-linecap:butt;stroke-linejoin:miter;stroke:rgb(69.805908%,69.256592%,69.392395%);stroke-opacity:1;stroke-miterlimit:10;" d="M -0.000409375 0.000728125 L 253.153887 0.000728125 " transform="matrix(2,0,0,-2,61.9266,467.5288)"/>
<path style="fill:none;stroke-width:0.5;stroke-linecap:butt;stroke-linejoin:miter;stroke:rgb(69.805908%,69.256592%,69.392395%);stroke-opacity:1;stroke-miterlimit:10;" d="M -0.0004875 0.000728125 L 253.153809 0.000728125 " transform="matrix(2,0,0,-2,623.7666,467.5288)"/>
<path style="fill:none;stroke-width:0.5;stroke-linecap:butt;stroke-linejoin:miter;stroke:rgb(69.805908%,69.256592%,69.392395%);stroke-opacity:1;stroke-miterlimit:10;" d="M -0.000409375 -0.000525 L 253.153887 -0.000525 " transform="matrix(2,0,0,-2,61.9266,489.5302)"/>
<path style="fill:none;stroke-width:0.5;stroke-linecap:butt;stroke-linejoin:miter;stroke:rgb(69.805908%,69.256592%,69.392395%);stroke-opacity:1;stroke-miterlimit:10;" d="M -0.0004875 -0.000525 L 253.153809 -0.000525 " transform="matrix(2,0,0,-2,623.7666,489.5302)"/>
<path style="fill:none;stroke-width:0.5;stroke-linecap:butt;stroke-linejoin:miter;stroke:rgb(69.805908%,69.256592%,69.392395%);stroke-opacity:1;stroke-miterlimit:10;" d="M -0.000409375 0.000175 L 253.153887 0.000175 " transform="matrix(2,0,0,-2,61.9266,511.5316)"/>
<path style="fill:none;stroke-width:0.5;stroke-linecap:butt;stroke-linejoin:miter;stroke:rgb(69.805908%,69.256592%,69.392395%);stroke-opacity:1;stroke-miterlimit:10;" d="M -0.0004875 0.000175 L 253.153809 0.000175 " transform="matrix(2,0,0,-2,623.7666,511.5316)"/>
<path style="fill:none;stroke-width:0.5;stroke-linecap:butt;stroke-linejoin:miter;stroke:rgb(69.805908%,69.256592%,69.392395%);stroke-opacity:1;stroke-miterlimit:10;" d="M -0.000409375 0.000875 L 253.153887 0.000875 " transform="matrix(2,0,0,-2,61.9266,533.533)"/>
<path style="fill:none;stroke-width:0.5;stroke-linecap:butt;stroke-linejoin:miter;stroke:rgb(69.805908%,69.256592%,69.392395%);stroke-opacity:1;stroke-miterlimit:10;" d="M -0.0004875 0.000875 L 253.153809 0.000875 " transform="matrix(2,0,0,-2,623.7666,533.533)"/>
<path style="fill:none;stroke-width:0.5;stroke-linecap:butt;stroke-linejoin:miter;stroke:rgb(69.805908%,69.256592%,69.392395%);stroke-opacity:1;stroke-miterlimit:10;" d="M -0.000409375 -0.000378125 L 253.153887 -0.000378125 " transform="matrix(2,0,0,-2,61.9266,555.5344)"/>
<path style="fill:none;stroke-width:0.5;stroke-linecap:butt;stroke-linejoin:miter;stroke:rgb(69.805908%,69.256592%,69.392395%);stroke-opacity:1;stroke-miterlimit:10;" d="M -0.0004875 -0.000378125 L 253.153809 -0.000378125 " transform="matrix(2,0,0,-2,623.7666,555.5344)"/>
<path style="fill:none;stroke-width:0.5;stroke-linecap:butt;stroke-linejoin:miter;stroke:rgb(69.805908%,69.256592%,69.392395%);stroke-opacity:1;stroke-miterlimit:10;" d="M -0.000409375 0.000321875 L 253.153887 0.000321875 " transform="matrix(2,0,0,-2,61.9266,577.5358)"/>
<path style="fill:none;stroke-width:0.5;stroke-linecap:butt;stroke-linejoin:miter;stroke:rgb(69.805908%,69.256592%,69.392395%);stroke-opacity:1;stroke-miterlimit:10;" d="M -0.0004875 0.000321875 L 253.153809 0.000321875 " transform="matrix(2,0,0,-2,623.7666,577.5358)"/>
<path style="fill:none;stroke-width:0.5;stroke-linecap:butt;stroke-linejoin:miter;stroke:rgb(69.805908%,69.256592%,69.392395%);stroke-opacity:1;stroke-miterlimit:10;" d="M -0.000409375 -0.00093125 L 253.153887 -0.00093125 " transform="matrix(2,0,0,-2,61.9266,599.5372)"/>
<path style="fill:none;stroke-width:0.5;stroke-linecap:butt;stroke-linejoin:miter;stroke:rgb(69.805908%,69.256592%,69.392395%);stroke-opacity:1;stroke-miterlimit:10;" d="M -0.0004875 -0.00093125 L 253.153809 -0.00093125 " transform="matrix(2,0,0,-2,623.7666,599.5372)"/>
<path style="fill:none;stroke-width:0.5;stroke-linecap:butt;stroke-linejoin:miter;stroke:rgb(69.805908%,69.256592%,69.392395%);stroke-opacity:1;stroke-miterlimit:10;" d="M -0.000409375 -0.00023125 L 253.153887 -0.00023125 " transform="matrix(2,0,0,-2,61.9266,621.5386)"/>
<path style="fill:none;stroke-width:0.5;stroke-linecap:butt;stroke-linejoin:miter;stroke:rgb(69.805908%,69.256592%,69.392395%);stroke-opacity:1;stroke-miterlimit:10;" d="M -0.0004875 -0.00023125 L 253.153809 -0.00023125 " transform="matrix(2,0,0,-2,623.7666,621.5386)"/>
<path style="fill:none;stroke-width:0.5;stroke-linecap:butt;stroke-linejoin:miter;stroke:rgb(69.805908%,69.256592%,69.392395%);stroke-opacity:1;stroke-miterlimit:10;" d="M -0.000409375 0.00036875 L 253.153887 0.00036875 " transform="matrix(2,0,0,-2,61.9266,643.5398)"/>
<path style="fill:none;stroke-width:0.5;stroke-linecap:butt;stroke-linejoin:miter;stroke:rgb(69.805908%,69.256592%,69.392395%);stroke-opacity:1;stroke-miterlimit:10;" d="M -0.0004875 0.00036875 L 253.153809 0.00036875 " transform="matrix(2,0,0,-2,623.7666,643.5398)"/>
<path style="fill:none;stroke-width:0.5;stroke-linecap:butt;stroke-linejoin:miter;stroke:rgb(69.805908%,69.256592%,69.392395%);stroke-opacity:1;stroke-miterlimit:10;" d="M -0.000409375 -0.000884375 L 253.153887 -0.000884375 " transform="matrix(2,0,0,-2,61.9266,665.5412)"/>
<path style="fill:none;stroke-width:0.5;stroke-linecap:butt;stroke-linejoin:miter;stroke:rgb(69.805908%,69.256592%,69.392395%);stroke-opacity:1;stroke-miterlimit:10;" d="M -0.0004875 -0.000884375 L 253.153809 -0.000884375 " transform="matrix(2,0,0,-2,623.7666,665.5412)"/>
<path style="fill:none;stroke-width:0.5;stroke-linecap:butt;stroke-linejoin:miter;stroke:rgb(69.805908%,69.256592%,69.392395%);stroke-opacity:1;stroke-miterlimit:10;" d="M -0.000409375 -0.000084375 L 253.153887 -0.000084375 " transform="matrix(2,0,0,-2,61.9266,687.5428)"/>
<path style="fill:none;stroke-width:0.5;stroke-linecap:butt;stroke-linejoin:miter;stroke:rgb(69.805908%,69.256592%,69.392395%);stroke-opacity:1;stroke-miterlimit:10;" d="M -0.0004875 -0.000084375 L 253.153809 -0.000084375 " transform="matrix(2,0,0,-2,623.7666,687.5428)"/>
<path style="fill:none;stroke-width:0.5;stroke-linecap:butt;stroke-linejoin:miter;stroke:rgb(69.805908%,69.256592%,69.392395%);stroke-opacity:1;stroke-miterlimit:10;" d="M -0.000409375 0.000615625 L 253.153887 0.000615625 " transform="matrix(2,0,0,-2,61.9266,709.5442)"/>
<path style="fill:none;stroke-width:0.5;stroke-linecap:butt;stroke-linejoin:miter;stroke:rgb(69.805908%,69.256592%,69.392395%);stroke-opacity:1;stroke-miterlimit:10;" d="M -0.0004875 0.000615625 L 253.153809 0.000615625 " transform="matrix(2,0,0,-2,623.7666,709.5442)"/>
<path style="fill:none;stroke-width:0.5;stroke-linecap:butt;stroke-linejoin:miter;stroke:rgb(69.805908%,69.256592%,69.392395%);stroke-opacity:1;stroke-miterlimit:10;" d="M -0.000409375 -0.0007375 L 253.153887 -0.0007375 " transform="matrix(2,0,0,-2,61.9266,731.5454)"/>
<path style="fill:none;stroke-width:0.5;stroke-linecap:butt;stroke-linejoin:miter;stroke:rgb(69.805908%,69.256592%,69.392395%);stroke-opacity:1;stroke-miterlimit:10;" d="M -0.0004875 -0.0007375 L 253.153809 -0.0007375 " transform="matrix(2,0,0,-2,623.7666,731.5454)"/>
<path style="fill:none;stroke-width:0.5;stroke-linecap:butt;stroke-linejoin:miter;stroke:rgb(69.805908%,69.256592%,69.392395%);stroke-opacity:1;stroke-miterlimit:10;" d="M -0.000409375 -0.0000375 L 253.153887 -0.0000375 " transform="matrix(2,0,0,-2,61.9266,753.5468)"/>
<path style="fill:none;stroke-width:0.5;stroke-linecap:butt;stroke-linejoin:miter;stroke:rgb(69.805908%,69.256592%,69.392395%);stroke-opacity:1;stroke-miterlimit:10;" d="M -0.0004875 -0.0000375 L 253.153809 -0.0000375 " transform="matrix(2,0,0,-2,623.7666,753.5468)"/>
<path style="fill:none;stroke-width:0.5;stroke-linecap:butt;stroke-linejoin:miter;stroke:rgb(69.805908%,69.256592%,69.392395%);stroke-opacity:1;stroke-miterlimit:10;" d="M -0.000409375 0.0006625 L 253.153887 0.0006625 " transform="matrix(2,0,0,-2,61.9266,775.5482)"/>
<path style="fill:none;stroke-width:0.5;stroke-linecap:butt;stroke-linejoin:miter;stroke:rgb(69.805908%,69.256592%,69.392395%);stroke-opacity:1;stroke-miterlimit:10;" d="M -0.0004875 0.0006625 L 253.153809 0.0006625 " transform="matrix(2,0,0,-2,623.7666,775.5482)"/>
<path style="fill:none;stroke-width:0.5;stroke-linecap:butt;stroke-linejoin:miter;stroke:rgb(69.805908%,69.256592%,69.392395%);stroke-opacity:1;stroke-miterlimit:10;" d="M -0.000409375 -0.000590625 L 253.153887 -0.000590625 " transform="matrix(2,0,0,-2,61.9266,797.5496)"/>
<path style="fill:none;stroke-width:0.5;stroke-linecap:butt;stroke-linejoin:miter;stroke:rgb(69.805908%,69.256592%,69.392395%);stroke-opacity:1;stroke-miterlimit:10;" d="M -0.0004875 -0.000590625 L 253.153809 -0.000590625 " transform="matrix(2,0,0,-2,623.7666,797.5496)"/>
<path style="fill:none;stroke-width:0.5;stroke-linecap:butt;stroke-linejoin:miter;stroke:rgb(69.805908%,69.256592%,69.392395%);stroke-opacity:1;stroke-miterlimit:10;" d="M -0.000409375 0.000509375 L 253.153887 0.000509375 " transform="matrix(2,0,0,-2,61.9266,819.5518)"/>
<path style="fill:none;stroke-width:0.5;stroke-linecap:butt;stroke-linejoin:miter;stroke:rgb(69.805908%,69.256592%,69.392395%);stroke-opacity:1;stroke-miterlimit:10;" d="M -0.0004875 0.000509375 L 253.153809 0.000509375 " transform="matrix(2,0,0,-2,623.7666,819.5518)"/>
<path style="fill:none;stroke-width:0.5;stroke-linecap:butt;stroke-linejoin:miter;stroke:rgb(69.805908%,69.256592%,69.392395%);stroke-opacity:1;stroke-miterlimit:10;" d="M -0.000409375 -0.00074375 L 253.153887 -0.00074375 " transform="matrix(2,0,0,-2,61.9266,841.5532)"/>
<path style="fill:none;stroke-width:0.5;stroke-linecap:butt;stroke-linejoin:miter;stroke:rgb(69.805908%,69.256592%,69.392395%);stroke-opacity:1;stroke-miterlimit:10;" d="M -0.0004875 -0.00074375 L 253.153809 -0.00074375 " transform="matrix(2,0,0,-2,623.7666,841.5532)"/>
<path style="fill:none;stroke-width:0.5;stroke-linecap:butt;stroke-linejoin:miter;stroke:rgb(69.805908%,69.256592%,69.392395%);stroke-opacity:1;stroke-miterlimit:10;" d="M -0.000409375 -0.00004375 L 253.153887 -0.00004375 " transform="matrix(2,0,0,-2,61.9266,863.5546)"/>
<path style="fill:none;stroke-width:0.5;stroke-linecap:butt;stroke-linejoin:miter;stroke:rgb(69.805908%,69.256592%,69.392395%);stroke-opacity:1;stroke-miterlimit:10;" d="M -0.0004875 -0.00004375 L 253.153809 -0.00004375 " transform="matrix(2,0,0,-2,623.7666,863.5546)"/>
<path style="fill:none;stroke-width:0.5;stroke-linecap:butt;stroke-linejoin:miter;stroke:rgb(69.805908%,69.256592%,69.392395%);stroke-opacity:1;stroke-miterlimit:10;" d="M -0.000409375 0.00065625 L 253.153887 0.00065625 " transform="matrix(2,0,0,-2,61.9266,885.556)"/>
<path style="fill:none;stroke-width:0.5;stroke-linecap:butt;stroke-linejoin:miter;stroke:rgb(69.805908%,69.256592%,69.392395%);stroke-opacity:1;stroke-miterlimit:10;" d="M -0.0004875 0.00065625 L 253.153809 0.00065625 " transform="matrix(2,0,0,-2,623.7666,885.556)"/>
<path style="fill:none;stroke-width:0.5;stroke-linecap:butt;stroke-linejoin:miter;stroke:rgb(69.805908%,69.256592%,69.392395%);stroke-opacity:1;stroke-miterlimit:10;" d="M -0.000409375 -0.000596875 L 253.153887 -0.000596875 " transform="matrix(2,0,0,-2,61.9266,907.5574)"/>
<path style="fill:none;stroke-width:0.5;stroke-linecap:butt;stroke-linejoin:miter;stroke:rgb(69.805908%,69.256592%,69.392395%);stroke-opacity:1;stroke-miterlimit:10;" d="M -0.0004875 -0.000596875 L 253.153809 -0.000596875 " transform="matrix(2,0,0,-2,623.7666,907.5574)"/>
<path style="fill:none;stroke-width:0.5;stroke-linecap:butt;stroke-linejoin:miter;stroke:rgb(69.805908%,69.256592%,69.392395%);stroke-opacity:1;stroke-miterlimit:10;" d="M -0.000409375 0.000103125 L 253.153887 0.000103125 " transform="matrix(2,0,0,-2,61.9266,929.5588)"/>
<path style="fill:none;stroke-width:0.5;stroke-linecap:butt;stroke-linejoin:miter;stroke:rgb(69.805908%,69.256592%,69.392395%);stroke-opacity:1;stroke-miterlimit:10;" d="M -0.0004875 0.000103125 L 253.153809 0.000103125 " transform="matrix(2,0,0,-2,623.7666,929.5588)"/>
<path style="fill:none;stroke-width:0.5;stroke-linecap:butt;stroke-linejoin:miter;stroke:rgb(69.805908%,69.256592%,69.392395%);stroke-opacity:1;stroke-miterlimit:10;" d="M -0.000409375 0.000803125 L 253.153887 0.000803125 " transform="matrix(2,0,0,-2,61.9266,951.5602)"/>
<path style="fill:none;stroke-width:0.5;stroke-linecap:butt;stroke-linejoin:miter;stroke:rgb(69.805908%,69.256592%,69.392395%);stroke-opacity:1;stroke-miterlimit:10;" d="M -0.0004875 0.000803125 L 253.153809 0.000803125 " transform="matrix(2,0,0,-2,623.7666,951.5602)"/>
<path style="fill:none;stroke-width:0.5;stroke-linecap:butt;stroke-linejoin:miter;stroke:rgb(69.805908%,69.256592%,69.392395%);stroke-opacity:1;stroke-miterlimit:10;" d="M -0.000409375 -0.00055 L 253.153887 -0.00055 " transform="matrix(2,0,0,-2,61.9266,973.5614)"/>
<path style="fill:none;stroke-width:0.5;stroke-linecap:butt;stroke-linejoin:miter;stroke:rgb(69.805908%,69.256592%,69.392395%);stroke-opacity:1;stroke-miterlimit:10;" d="M -0.0004875 -0.00055 L 253.153809 -0.00055 " transform="matrix(2,0,0,-2,623.7666,973.5614)"/>
<path style="fill:none;stroke-width:0.5;stroke-linecap:butt;stroke-linejoin:miter;stroke:rgb(69.805908%,69.256592%,69.392395%);stroke-opacity:1;stroke-miterlimit:10;" d="M -0.000409375 0.00025 L 253.153887 0.00025 " transform="matrix(2,0,0,-2,61.9266,995.563)"/>
<path style="fill:none;stroke-width:0.5;stroke-linecap:butt;stroke-linejoin:miter;stroke:rgb(69.805908%,69.256592%,69.392395%);stroke-opacity:1;stroke-miterlimit:10;" d="M -0.0004875 0.00025 L 253.153809 0.00025 " transform="matrix(2,0,0,-2,623.7666,995.563)"/>
<path style="fill:none;stroke-width:0.5;stroke-linecap:butt;stroke-linejoin:miter;stroke:rgb(69.805908%,69.256592%,69.392395%);stroke-opacity:1;stroke-miterlimit:10;" d="M -0.000409375 0.00095 L 253.153887 0.00095 " transform="matrix(2,0,0,-2,61.9266,1017.5644)"/>
<path style="fill:none;stroke-width:0.5;stroke-linecap:butt;stroke-linejoin:miter;stroke:rgb(69.805908%,69.256592%,69.392395%);stroke-opacity:1;stroke-miterlimit:10;" d="M -0.0004875 0.00095 L 253.153809 0.00095 " transform="matrix(2,0,0,-2,623.7666,1017.5644)"/>
<path style="fill:none;stroke-width:0.5;stroke-linecap:butt;stroke-linejoin:miter;stroke:rgb(69.805908%,69.256592%,69.392395%);stroke-opacity:1;stroke-miterlimit:10;" d="M -0.000409375 -0.000403125 L 253.153887 -0.000403125 " transform="matrix(2,0,0,-2,61.9266,1039.5656)"/>
<path style="fill:none;stroke-width:0.5;stroke-linecap:butt;stroke-linejoin:miter;stroke:rgb(69.805908%,69.256592%,69.392395%);stroke-opacity:1;stroke-miterlimit:10;" d="M -0.0004875 -0.000403125 L 253.153809 -0.000403125 " transform="matrix(2,0,0,-2,623.7666,1039.5656)"/>
<path style="fill:none;stroke-width:0.5;stroke-linecap:butt;stroke-linejoin:miter;stroke:rgb(69.805908%,69.256592%,69.392395%);stroke-opacity:1;stroke-miterlimit:10;" d="M -0.000409375 0.000296875 L 253.153887 0.000296875 " transform="matrix(2,0,0,-2,61.9266,1061.567)"/>
<path style="fill:none;stroke-width:0.5;stroke-linecap:butt;stroke-linejoin:miter;stroke:rgb(69.805908%,69.256592%,69.392395%);stroke-opacity:1;stroke-miterlimit:10;" d="M -0.0004875 0.000296875 L 253.153809 0.000296875 " transform="matrix(2,0,0,-2,623.7666,1061.567)"/>
<path style="fill:none;stroke-width:0.5;stroke-linecap:butt;stroke-linejoin:miter;stroke:rgb(69.805908%,69.256592%,69.392395%);stroke-opacity:1;stroke-miterlimit:10;" d="M -0.000409375 -0.00095625 L 253.153887 -0.00095625 " transform="matrix(2,0,0,-2,61.9266,1083.5684)"/>
<path style="fill:none;stroke-width:0.5;stroke-linecap:butt;stroke-linejoin:miter;stroke:rgb(69.805908%,69.256592%,69.392395%);stroke-opacity:1;stroke-miterlimit:10;" d="M -0.0004875 -0.00095625 L 253.153809 -0.00095625 " transform="matrix(2,0,0,-2,623.7666,1083.5684)"/>
<path style="fill:none;stroke-width:0.5;stroke-linecap:butt;stroke-linejoin:miter;stroke:rgb(69.805908%,69.256592%,69.392395%);stroke-opacity:1;stroke-miterlimit:10;" d="M -0.000409375 -0.00025625 L 253.153887 -0.00025625 " transform="matrix(2,0,0,-2,61.9266,1105.5698)"/>
<path style="fill:none;stroke-width:0.5;stroke-linecap:butt;stroke-linejoin:miter;stroke:rgb(69.805908%,69.256592%,69.392395%);stroke-opacity:1;stroke-miterlimit:10;" d="M -0.0004875 -0.00025625 L 253.153809 -0.00025625 " transform="matrix(2,0,0,-2,623.7666,1105.5698)"/>
<path style="fill:none;stroke-width:0.5;stroke-linecap:butt;stroke-linejoin:miter;stroke:rgb(69.805908%,69.256592%,69.392395%);stroke-opacity:1;stroke-miterlimit:10;" d="M -0.000409375 0.00044375 L 253.153887 0.00044375 " transform="matrix(2,0,0,-2,61.9266,1127.5712)"/>
<path style="fill:none;stroke-width:0.5;stroke-linecap:butt;stroke-linejoin:miter;stroke:rgb(69.805908%,69.256592%,69.392395%);stroke-opacity:1;stroke-miterlimit:10;" d="M -0.0004875 0.00044375 L 253.153809 0.00044375 " transform="matrix(2,0,0,-2,623.7666,1127.5712)"/>
<path style="fill:none;stroke-width:0.5;stroke-linecap:butt;stroke-linejoin:miter;stroke:rgb(69.805908%,69.256592%,69.392395%);stroke-opacity:1;stroke-miterlimit:10;" d="M -0.000409375 -0.000809375 L 253.153887 -0.000809375 " transform="matrix(2,0,0,-2,61.9266,1149.5726)"/>
<path style="fill:none;stroke-width:0.5;stroke-linecap:butt;stroke-linejoin:miter;stroke:rgb(69.805908%,69.256592%,69.392395%);stroke-opacity:1;stroke-miterlimit:10;" d="M -0.0004875 -0.000809375 L 253.153809 -0.000809375 " transform="matrix(2,0,0,-2,623.7666,1149.5726)"/>
<path style="fill:none;stroke-width:0.5;stroke-linecap:butt;stroke-linejoin:miter;stroke:rgb(69.805908%,69.256592%,69.392395%);stroke-opacity:1;stroke-miterlimit:10;" d="M -0.000409375 -0.000109375 L 253.153887 -0.000109375 " transform="matrix(2,0,0,-2,61.9266,1171.574)"/>
<path style="fill:none;stroke-width:0.5;stroke-linecap:butt;stroke-linejoin:miter;stroke:rgb(69.805908%,69.256592%,69.392395%);stroke-opacity:1;stroke-miterlimit:10;" d="M -0.0004875 -0.000109375 L 253.153809 -0.000109375 " transform="matrix(2,0,0,-2,623.7666,1171.574)"/>
<path style="fill:none;stroke-width:0.5;stroke-linecap:butt;stroke-linejoin:miter;stroke:rgb(69.805908%,69.256592%,69.392395%);stroke-opacity:1;stroke-miterlimit:10;" d="M -0.000409375 0.000590625 L 253.153887 0.000590625 " transform="matrix(2,0,0,-2,61.9266,1193.5754)"/>
<path style="fill:none;stroke-width:0.5;stroke-linecap:butt;stroke-linejoin:miter;stroke:rgb(69.805908%,69.256592%,69.392395%);stroke-opacity:1;stroke-miterlimit:10;" d="M -0.0004875 0.000590625 L 253.153809 0.000590625 " transform="matrix(2,0,0,-2,623.7666,1193.5754)"/>
<path style="fill:none;stroke-width:0.5;stroke-linecap:butt;stroke-linejoin:miter;stroke:rgb(69.805908%,69.256592%,69.392395%);stroke-opacity:1;stroke-miterlimit:10;" d="M -0.000409375 -0.0006625 L 253.153887 -0.0006625 " transform="matrix(2,0,0,-2,61.9266,1215.5768)"/>
<path style="fill:none;stroke-width:0.5;stroke-linecap:butt;stroke-linejoin:miter;stroke:rgb(69.805908%,69.256592%,69.392395%);stroke-opacity:1;stroke-miterlimit:10;" d="M -0.0004875 -0.0006625 L 253.153809 -0.0006625 " transform="matrix(2,0,0,-2,623.7666,1215.5768)"/>
<path style="fill:none;stroke-width:0.5;stroke-linecap:butt;stroke-linejoin:miter;stroke:rgb(69.805908%,69.256592%,69.392395%);stroke-opacity:1;stroke-miterlimit:10;" d="M -0.000409375 0.0000375 L 253.153887 0.0000375 " transform="matrix(2,0,0,-2,61.9266,1237.5782)"/>
<path style="fill:none;stroke-width:0.5;stroke-linecap:butt;stroke-linejoin:miter;stroke:rgb(69.805908%,69.256592%,69.392395%);stroke-opacity:1;stroke-miterlimit:10;" d="M -0.0004875 0.0000375 L 253.153809 0.0000375 " transform="matrix(2,0,0,-2,623.7666,1237.5782)"/>
<path style="fill:none;stroke-width:0.5;stroke-linecap:butt;stroke-linejoin:miter;stroke:rgb(69.805908%,69.256592%,69.392395%);stroke-opacity:1;stroke-miterlimit:10;" d="M -0.000409375 0.0007375 L 253.153887 0.0007375 " transform="matrix(2,0,0,-2,61.9266,1259.5796)"/>
<path style="fill:none;stroke-width:0.5;stroke-linecap:butt;stroke-linejoin:miter;stroke:rgb(69.805908%,69.256592%,69.392395%);stroke-opacity:1;stroke-miterlimit:10;" d="M -0.0004875 0.0007375 L 253.153809 0.0007375 " transform="matrix(2,0,0,-2,623.7666,1259.5796)"/>
<path style="fill:none;stroke-width:0.5;stroke-linecap:butt;stroke-linejoin:miter;stroke:rgb(69.805908%,69.256592%,69.392395%);stroke-opacity:1;stroke-miterlimit:10;" d="M -0.000409375 -0.000515625 L 253.153887 -0.000515625 " transform="matrix(2,0,0,-2,61.9266,1281.581)"/>
<path style="fill:none;stroke-width:0.5;stroke-linecap:butt;stroke-linejoin:miter;stroke:rgb(69.805908%,69.256592%,69.392395%);stroke-opacity:1;stroke-miterlimit:10;" d="M -0.0004875 -0.000515625 L 253.153809 -0.000515625 " transform="matrix(2,0,0,-2,623.7666,1281.581)"/>
<path style="fill:none;stroke-width:0.5;stroke-linecap:butt;stroke-linejoin:miter;stroke:rgb(69.805908%,69.256592%,69.392395%);stroke-opacity:1;stroke-miterlimit:10;" d="M -0.000409375 0.000184375 L 253.153887 0.000184375 " transform="matrix(2,0,0,-2,61.9266,1303.5824)"/>
<path style="fill:none;stroke-width:0.5;stroke-linecap:butt;stroke-linejoin:miter;stroke:rgb(69.805908%,69.256592%,69.392395%);stroke-opacity:1;stroke-miterlimit:10;" d="M -0.0004875 0.000184375 L 253.153809 0.000184375 " transform="matrix(2,0,0,-2,623.7666,1303.5824)"/>
<path style="fill:none;stroke-width:0.5;stroke-linecap:butt;stroke-linejoin:miter;stroke:rgb(69.805908%,69.256592%,69.392395%);stroke-opacity:1;stroke-miterlimit:10;" d="M -0.000409375 0.000784375 L 253.153887 0.000784375 " transform="matrix(2,0,0,-2,61.9266,1325.5836)"/>
<path style="fill:none;stroke-width:0.5;stroke-linecap:butt;stroke-linejoin:miter;stroke:rgb(69.805908%,69.256592%,69.392395%);stroke-opacity:1;stroke-miterlimit:10;" d="M -0.0004875 0.000784375 L 253.153809 0.000784375 " transform="matrix(2,0,0,-2,623.7666,1325.5836)"/>
<path style="fill:none;stroke-width:0.5;stroke-linecap:butt;stroke-linejoin:miter;stroke:rgb(69.805908%,69.256592%,69.392395%);stroke-opacity:1;stroke-miterlimit:10;" d="M -0.000409375 -0.00046875 L 253.153887 -0.00046875 " transform="matrix(2,0,0,-2,61.9266,1347.585)"/>
<path style="fill:none;stroke-width:0.5;stroke-linecap:butt;stroke-linejoin:miter;stroke:rgb(69.805908%,69.256592%,69.392395%);stroke-opacity:1;stroke-miterlimit:10;" d="M -0.0004875 -0.00046875 L 253.153809 -0.00046875 " transform="matrix(2,0,0,-2,623.7666,1347.585)"/>
<path style="fill:none;stroke-width:0.5;stroke-linecap:butt;stroke-linejoin:miter;stroke:rgb(69.805908%,69.256592%,69.392395%);stroke-opacity:1;stroke-miterlimit:10;" d="M -0.000409375 0.00023125 L 253.153887 0.00023125 " transform="matrix(2,0,0,-2,61.9266,1369.5864)"/>
<path style="fill:none;stroke-width:0.5;stroke-linecap:butt;stroke-linejoin:miter;stroke:rgb(69.805908%,69.256592%,69.392395%);stroke-opacity:1;stroke-miterlimit:10;" d="M -0.0004875 0.00023125 L 253.153809 0.00023125 " transform="matrix(2,0,0,-2,623.7666,1369.5864)"/>
<path style="fill:none;stroke-width:0.5;stroke-linecap:butt;stroke-linejoin:miter;stroke:rgb(69.805908%,69.256592%,69.392395%);stroke-opacity:1;stroke-miterlimit:10;" d="M -0.000409375 0.00093125 L 253.153887 0.00093125 " transform="matrix(2,0,0,-2,61.9266,1391.5878)"/>
<path style="fill:none;stroke-width:0.5;stroke-linecap:butt;stroke-linejoin:miter;stroke:rgb(69.805908%,69.256592%,69.392395%);stroke-opacity:1;stroke-miterlimit:10;" d="M -0.0004875 0.00093125 L 253.153809 0.00093125 " transform="matrix(2,0,0,-2,623.7666,1391.5878)"/>
<path style="fill:none;stroke-width:0.5;stroke-linecap:butt;stroke-linejoin:miter;stroke:rgb(69.805908%,69.256592%,69.392395%);stroke-opacity:1;stroke-miterlimit:10;" d="M -0.000409375 -0.000321875 L 253.153887 -0.000321875 " transform="matrix(2,0,0,-2,61.9266,1413.5892)"/>
<path style="fill:none;stroke-width:0.5;stroke-linecap:butt;stroke-linejoin:miter;stroke:rgb(69.805908%,69.256592%,69.392395%);stroke-opacity:1;stroke-miterlimit:10;" d="M -0.0004875 -0.000321875 L 253.153809 -0.000321875 " transform="matrix(2,0,0,-2,623.7666,1413.5892)"/>
<path style="fill:none;stroke-width:0.5;stroke-linecap:butt;stroke-linejoin:miter;stroke:rgb(69.805908%,69.256592%,69.392395%);stroke-opacity:1;stroke-miterlimit:10;" d="M -0.000409375 0.000378125 L 253.153887 0.000378125 " transform="matrix(2,0,0,-2,61.9266,1435.5906)"/>
<path style="fill:none;stroke-width:0.5;stroke-linecap:butt;stroke-linejoin:miter;stroke:rgb(69.805908%,69.256592%,69.392395%);stroke-opacity:1;stroke-miterlimit:10;" d="M -0.0004875 0.000378125 L 253.153809 0.000378125 " transform="matrix(2,0,0,-2,623.7666,1435.5906)"/>
<path style="fill:none;stroke-width:0.5;stroke-linecap:butt;stroke-linejoin:miter;stroke:rgb(69.805908%,69.256592%,69.392395%);stroke-opacity:1;stroke-miterlimit:10;" d="M -0.000409375 -0.000875 L 253.153887 -0.000875 " transform="matrix(2,0,0,-2,61.9266,1457.592)"/>
<path style="fill:none;stroke-width:0.5;stroke-linecap:butt;stroke-linejoin:miter;stroke:rgb(69.805908%,69.256592%,69.392395%);stroke-opacity:1;stroke-miterlimit:10;" d="M -0.0004875 -0.000875 L 253.153809 -0.000875 " transform="matrix(2,0,0,-2,623.7666,1457.592)"/>
<path style="fill:none;stroke-width:0.5;stroke-linecap:butt;stroke-linejoin:miter;stroke:rgb(69.805908%,69.256592%,69.392395%);stroke-opacity:1;stroke-miterlimit:10;" d="M -0.000409375 -0.000175 L 253.153887 -0.000175 " transform="matrix(2,0,0,-2,61.9266,1479.5934)"/>
<path style="fill:none;stroke-width:0.5;stroke-linecap:butt;stroke-linejoin:miter;stroke:rgb(69.805908%,69.256592%,69.392395%);stroke-opacity:1;stroke-miterlimit:10;" d="M -0.0004875 -0.000175 L 253.153809 -0.000175 " transform="matrix(2,0,0,-2,623.7666,1479.5934)"/>
<path style="fill:none;stroke-width:0.5;stroke-linecap:butt;stroke-linejoin:miter;stroke:rgb(69.805908%,69.256592%,69.392395%);stroke-opacity:1;stroke-miterlimit:10;" d="M -0.000409375 0.000525 L 253.153887 0.000525 " transform="matrix(2,0,0,-2,61.9266,1501.5948)"/>
<path style="fill:none;stroke-width:0.5;stroke-linecap:butt;stroke-linejoin:miter;stroke:rgb(69.805908%,69.256592%,69.392395%);stroke-opacity:1;stroke-miterlimit:10;" d="M -0.0004875 0.000525 L 253.153809 0.000525 " transform="matrix(2,0,0,-2,623.7666,1501.5948)"/>
<path style="fill:none;stroke-width:0.5;stroke-linecap:butt;stroke-linejoin:miter;stroke:rgb(4.017639%,3.95813%,4.968262%);stroke-opacity:1;stroke-miterlimit:10;" d="M -0.000928125 -0.000653125 L -0.000928125 -736.004559 " transform="matrix(2,0,0,-2,53.2792,56.0026)"/>
<path style="fill:none;stroke-width:0.5;stroke-linecap:butt;stroke-linejoin:miter;stroke:rgb(4.017639%,3.95813%,4.968262%);stroke-opacity:1;stroke-miterlimit:10;" d="M 0.000353125 -0.000653125 L 0.000353125 -736.004559 " transform="matrix(2,0,0,-2,576.8782,56.0026)"/>
<path style="fill:none;stroke-width:0.5;stroke-linecap:butt;stroke-linejoin:miter;stroke:rgb(4.017639%,3.95813%,4.968262%);stroke-opacity:1;stroke-miterlimit:10;" d="M 0.000146875 -0.000653125 L 0.000146875 -736.004559 " transform="matrix(2,0,0,-2,615.1208,56.0026)"/>
<path style="fill:none;stroke-width:0.5;stroke-linecap:butt;stroke-linejoin:miter;stroke:rgb(4.017639%,3.95813%,4.968262%);stroke-opacity:1;stroke-miterlimit:10;" d="M -0.000525 -0.000653125 L -0.000525 -736.004559 " transform="matrix(2,0,0,-2,1138.7198,56.0026)"/>
</g>
</svg>
