<?xml version="1.0" encoding="UTF-8"?>
<svg xmlns="http://www.w3.org/2000/svg" xmlns:xlink="http://www.w3.org/1999/xlink" width="140pt" height="140pt" viewBox="0 0 140 140" version="1.2">

<rect width="140" height="140" fill="white"/>

<g id="dragon" fill-rule="evenodd" fill="rgb(13.729858%,12.159729%,12.548828%)">
	<path d="M 66.675781 105.484375 C 66.675781 105.484375 65.898438 107.515625 65.980469 109.472656 C 66.066406 111.429688 68.390625 117.644531 68.390625 117.644531 C 68.390625 117.644531 66.628906 117.425781 63.957031 118.585938 C 61.285156 119.746094 58.375 119.765625 56.472656 118.757812 C 54.574219 117.746094 52.253906 115.171875 52.253906 115.171875 C 52.253906 115.171875 51.535156 108.96875 52.140625 106.59375 C 52.75 104.214844 55.679688 97.28125 55.679688 97.28125 C 55.679688 97.28125 55.644531 100.414062 58.023438 101.964844 C 60.40625 103.519531 66.675781 105.484375 66.675781 105.484375"/>
	<path d="M 78.984375 65.164062 C 78.984375 65.164062 81.109375 66.128906 79.429688 67.855469 C 77.753906 69.585938 75.605469 69.757812 74.914062 72.429688 C 74.21875 75.101562 73.847656 77.515625 73.847656 77.515625 C 73.847656 77.515625 72.871094 77.890625 71.457031 78.585938 C 71.457031 78.585938 69.769531 78.414062 69.832031 77.429688 C 69.894531 76.445312 69.433594 74.804688 69.433594 74.804688 L 67.050781 78.214844 L 66.175781 76.605469 C 66.175781 76.605469 65.464844 77.644531 65.171875 79.203125 C 64.882812 80.757812 64.640625 82.359375 64.636719 82.386719 C 63.171875 82.605469 63.175781 80.820312 63.644531 79.253906 C 64.269531 77.15625 62.980469 73.851562 60.496094 72.6875 C 58.015625 71.523438 55.488281 69.796875 56.035156 69.523438 C 56.582031 69.253906 58.433594 69.671875 59.246094 68.46875 C 60.058594 67.265625 57.921875 66.1875 54.425781 65.109375 C 50.929688 64.027344 42.324219 61.65625 42.324219 61.65625 C 42.324219 61.65625 50.273438 62.945312 53.152344 62.027344 C 56.035156 61.113281 59.53125 59.351562 57.144531 57.953125 C 54.757812 56.558594 45.492188 54.464844 44.910156 54.285156 C 44.328125 54.105469 56.847656 51.5 65.730469 55.894531 C 74.609375 60.289062 77.210938 62.921875 77.210938 62.921875 C 77.210938 62.921875 73.308594 62.441406 73.984375 63.75 C 74.65625 65.0625 78.984375 65.164062 78.984375 65.164062"/>
	<path d="M 60.546875 74.730469 C 61.457031 76.132812 62.308594 78.222656 62.03125 80.40625 C 61.753906 82.589844 63.402344 83.253906 62.578125 84.339844 C 61.757812 85.429688 59.421875 86.074219 57.175781 89.210938 C 54.929688 92.351562 55.183594 92.671875 54.070312 90.144531 C 52.953125 87.621094 52.273438 84.835938 50.128906 83.644531 C 47.988281 82.453125 44.84375 82.9375 44.394531 81.609375 C 43.949219 80.28125 49.050781 78.730469 47.511719 77.945312 C 45.96875 77.164062 42.769531 76.964844 36.695312 79.164062 C 30.621094 81.359375 25.488281 83.9375 25.488281 83.9375 C 25.488281 83.9375 33.707031 77.359375 35.199219 74.738281 C 36.691406 72.117188 37.839844 68.042969 32.972656 68.324219 C 28.109375 68.605469 15.441406 70.769531 11.78125 73.339844 C 8.125 75.90625 21.050781 64.289062 35.339844 63.8125 C 49.621094 63.339844 53.894531 66.96875 53.875 68.109375 C 53.851562 69.25 50.304688 70.332031 52.378906 70.730469 C 54.867188 71.207031 59.304688 72.808594 60.546875 74.730469"/>
	<path d="M 47.644531 85.761719 C 49.109375 86.558594 50.855469 87.992188 51.652344 90.042969 C 52.449219 92.09375 54.210938 91.890625 54.007812 93.242188 C 53.804688 94.59375 52.058594 96.269531 51.578125 100.101562 C 51.097656 103.929688 51.472656 104.089844 49.292969 102.398438 C 47.109375 100.710938 45.183594 98.585938 42.734375 98.5625 C 40.28125 98.535156 37.746094 100.457031 36.722656 99.503906 C 35.691406 98.550781 39.441406 94.753906 37.710938 94.800781 C 35.984375 94.84375 33.078125 96.199219 28.785156 101.023438 C 24.492188 105.851562 21.203125 110.558594 21.203125 110.558594 C 21.203125 110.558594 25.296875 100.863281 25.359375 97.847656 C 25.421875 94.828125 24.492188 90.703125 20.347656 93.269531 C 16.203125 95.832031 6.097656 103.773438 4.105469 107.773438 C 2.117188 111.777344 7.945312 95.398438 20.277344 88.171875 C 32.609375 80.949219 38.097656 82.109375 38.621094 83.117188 C 39.144531 84.128906 36.539062 86.773438 38.558594 86.132812 C 40.96875 85.371094 45.636719 84.664062 47.644531 85.761719"/>
	<path d="M 70.765625 99.695312 C 69.71875 102.085938 69.246094 104.84375 69.246094 104.84375 C 69.246094 104.84375 65.546875 102.304688 63.210938 102.203125 C 60.875 102.101562 58.128906 98.757812 57.566406 97.203125 C 57.003906 95.648438 57.085938 93.96875 57.085938 93.96875 C 57.085938 93.96875 58.3125 91.832031 60.195312 89.441406 C 60.449219 90.003906 62.679688 93.507812 63.269531 93.78125 C 63.949219 94.101562 61.304688 93.707031 60.707031 93.199219 C 60.105469 92.6875 62.015625 96.121094 63.910156 96.484375 C 65.804688 96.839844 65.566406 96.8125 65.566406 96.8125 C 65.566406 96.8125 66.226562 97.457031 65.167969 97.640625 C 64.109375 97.816406 66.402344 99.078125 67.636719 99.351562 C 68.875 99.621094 70.765625 99.695312 70.765625 99.695312 M 60.222656 89.40625 C 60.648438 88.871094 61.105469 88.320312 61.589844 87.78125 L 62.886719 90.175781 C 62.886719 90.175781 60.691406 89.921875 60.222656 89.40625 M 62.199219 87.121094 C 62.492188 86.816406 62.792969 86.515625 63.101562 86.226562 C 63.347656 86.910156 63.648438 87.503906 63.648438 87.503906 Z"/>
	<path d="M 72.398438 45.730469 C 70.015625 43.199219 66.609375 39.839844 63.132812 37.296875 C 56.75 32.628906 51.929688 24.746094 50.09375 17.800781 C 48.257812 10.859375 51.519531 3.957031 51.519531 3.957031 C 51.519531 3.957031 48.542969 14.382812 53.453125 21.078125 C 58.355469 27.773438 61.265625 32.261719 70.25 37.628906 C 74.996094 40.464844 80.308594 45.257812 84.261719 49.152344 C 84.222656 49.132812 79.941406 47.21875 77.929688 46.496094 C 75.914062 45.773438 76.707031 48.089844 76.707031 48.089844 Z"/>
	<path d="M 107.871094 100.804688 C 107.46875 100.414062 107.1875 100.203125 107.1875 100.203125 C 107.1875 100.203125 106.046875 97.859375 104.558594 99.609375 C 103.074219 101.359375 103.140625 102.921875 103.140625 102.921875 C 103.140625 102.921875 102.007812 99.699219 102.140625 97.769531 C 102.277344 95.835938 102.058594 94.574219 100.660156 95.96875 C 99.257812 97.363281 98.820312 99.84375 98.820312 99.84375 C 98.820312 99.84375 97.363281 97.691406 97.460938 95.996094 C 97.554688 94.300781 98.242188 91.976562 96.660156 93.269531 C 95.078125 94.558594 95.109375 97.117188 95.109375 97.117188 C 95.109375 97.117188 93.714844 94.265625 94.316406 91.652344 C 94.921875 89.042969 92.730469 89.335938 90.578125 90.734375 C 88.421875 92.132812 86.128906 94.703125 84.71875 99.585938 C 83.308594 104.472656 84.117188 113.71875 85.808594 115.210938 C 87.503906 116.703125 88.433594 117.441406 89.394531 115.671875 C 90.359375 113.910156 90.289062 111.585938 90.289062 111.585938 C 90.289062 111.585938 91.6875 113.046875 91.425781 114.871094 C 91.167969 116.695312 91.71875 118.511719 92.546875 117.921875 C 93.371094 117.332031 94.804688 113.492188 94.804688 113.492188 C 94.804688 113.492188 95.898438 117.648438 94.847656 119.015625 C 93.792969 120.378906 95.492188 120.535156 94.765625 122.335938 C 94.515625 122.96875 94.109375 123.382812 93.6875 123.65625 L 93.691406 123.65625 C 93.691406 123.65625 93.054688 124.253906 92.105469 125.125 C 92.078125 125.933594 91.882812 127.082031 91.085938 127.875 C 89.738281 129.203125 87.082031 130.175781 87.082031 130.175781 C 87.082031 130.175781 87.894531 129.265625 88.605469 128.230469 C 86.96875 129.617188 85.339844 130.890625 84.410156 131.324219 C 82.042969 132.425781 78.703125 133.878906 78.703125 133.878906 C 78.703125 133.878906 84.257812 129.609375 86.113281 127.554688 C 86.113281 127.554688 81.125 128.953125 78.804688 128.414062 C 77.199219 128.039062 79.523438 128.050781 82.027344 126.796875 C 80.988281 126.84375 81.144531 126.621094 81.769531 126.253906 C 81.769531 126.253906 79.488281 126.71875 77.59375 125.78125 C 76.375 125.179688 78.542969 125.128906 80.894531 124.175781 C 80.550781 124.226562 80.1875 124.269531 79.796875 124.308594 C 75.640625 124.703125 74.695312 123.09375 74.695312 123.09375 C 74.695312 123.09375 78.820312 122.757812 81.074219 122.117188 C 81.011719 122.109375 78.078125 121.8125 76.605469 120.3125 C 75.117188 118.796875 77.980469 120.644531 82.105469 120.398438 C 81.4375 119.992188 80.210938 119.640625 79.03125 119.132812 C 76.980469 118.25 76.742188 116.757812 76.742188 116.757812 C 76.742188 116.757812 79.078125 117.3125 80.335938 116.933594 C 80.335938 116.933594 79.078125 116.246094 78.917969 115.167969 C 78.785156 114.273438 79.128906 115.550781 81.039062 116.40625 C 80.988281 116.351562 79.699219 114.933594 79.792969 113.425781 C 79.859375 112.371094 79.773438 113.660156 80.992188 114.773438 C 80.945312 112.488281 81.574219 108.683594 80.890625 103.332031 C 80.585938 100.9375 79.101562 98.03125 76.3125 98.003906 C 72.507812 97.96875 69.421875 98.792969 67.488281 97.6875 C 65.550781 96.582031 68.132812 97.636719 68.867188 95.972656 C 69.605469 94.308594 69.023438 96.21875 67.09375 96.113281 C 65.160156 96.003906 63.839844 95.058594 63.839844 95.058594 C 63.839844 95.058594 65.203125 95.214844 65.785156 94.488281 C 66.367188 93.765625 64.902344 95.011719 63.5625 92.980469 C 62.222656 90.949219 62.910156 92.394531 64.679688 92.289062 C 66.453125 92.183594 64.738281 92.546875 63.890625 89.984375 C 63.039062 87.429688 63.539062 89.640625 65.632812 89.957031 C 67.722656 90.277344 65.625 90.296875 64.648438 87.484375 C 63.671875 84.671875 64.058594 84.191406 64.058594 84.191406 C 64.058594 84.191406 64.839844 85.027344 65.839844 85.472656 C 66.835938 85.917969 65.449219 84.914062 65.527344 82.683594 C 65.601562 80.453125 66.078125 79.992188 66.078125 79.992188 C 66.078125 79.992188 65.957031 81.65625 66.632812 81.902344 C 67.304688 82.148438 66.734375 80.0 67.640625 78.875 C 68.546875 77.75 67.324219 79.535156 69.332031 80.03125 C 71.335938 80.53125 72.890625 78.242188 74.03125 78.269531 C 75.171875 78.296875 78.058594 79.101562 78.925781 80.304688 C 79.035156 80.457031 79.15625 80.601562 79.285156 80.730469 C 80.625 80.605469 81.789062 80.714844 82.960938 82.21875 C 84.457031 84.132812 84.042969 91.265625 84.683594 91.96875 C 85.324219 92.671875 86.269531 88.582031 85.53125 85.210938 C 84.792969 81.835938 85.074219 80.242188 82.0625 79.03125 C 79.054688 77.820312 75.550781 77.636719 76.246094 75.429688 C 76.9375 73.222656 78.675781 70.230469 80.792969 69.066406 C 82.910156 67.910156 82.792969 67.21875 82.351562 65.332031 C 81.910156 63.453125 77.761719 59.4375 67.664062 54.003906 C 57.5625 48.570312 45.40625 45.808594 29.121094 34.171875 C 12.835938 22.535156 11.132812 2.898438 11.132812 2.898438 C 11.132812 2.898438 14.71875 20.953125 36.75 33.960938 C 36.824219 33.90625 37.070312 33.695312 36.9375 33.394531 C 36.78125 33.042969 37.480469 33.101562 38.554688 33.945312 C 39.402344 34.609375 40.621094 35.84375 41.101562 36.335938 L 41.375 36.476562 C 41.488281 36.359375 41.664062 36.109375 41.496094 35.808594 C 41.265625 35.390625 42.128906 35.382812 43.542969 36.304688 C 44.953125 37.222656 47.207031 39.203125 47.207031 39.203125 C 47.207031 39.203125 47.730469 38.800781 47.445312 38.285156 C 47.160156 37.769531 48.230469 37.761719 49.988281 38.902344 C 51.714844 40.027344 54.449219 42.421875 54.539062 42.496094 L 54.539062 42.5 L 54.460938 42.277344 C 54.460938 42.277344 55.148438 41.757812 54.773438 41.082031 C 54.402344 40.410156 55.800781 40.398438 58.089844 41.886719 C 59.960938 43.105469 62.738281 45.464844 63.691406 46.289062 L 64.03125 46.421875 C 64.15625 46.308594 64.886719 45.566406 64.351562 44.722656 C 63.761719 43.804688 65.742188 43.660156 69.109375 45.566406 C 72.464844 47.464844 77.882812 51.648438 77.917969 51.675781 C 78.183594 51.472656 79.082031 50.679688 78.574219 49.582031 C 77.976562 48.304688 80.539062 48.464844 84.53125 51.484375 C 88.511719 54.496094 94.738281 60.792969 94.78125 60.835938 L 94.78125 60.839844 C 94.78125 60.839844 95.96875 60.566406 95.878906 59.480469 C 95.789062 58.394531 97.605469 59.195312 99.691406 62.453125 C 101.777344 65.710938 104.621094 71.972656 104.621094 71.972656 C 104.640625 71.816406 104.722656 71.667969 104.882812 71.539062 C 106.15625 70.496094 105.347656 69.929688 105.347656 69.929688 L 108.769531 74.257812 C 108.820312 74.214844 108.878906 74.171875 108.949219 74.140625 C 110.4375 73.429688 109.785156 72.6875 109.785156 72.6875 L 111.921875 77.359375 C 111.976562 77.320312 112.046875 77.289062 112.125 77.261719 C 113.691406 76.75 113.140625 75.929688 113.140625 75.929688 L 114.832031 81.410156 C 116.035156 81.050781 115.664062 80.300781 115.664062 80.300781 L 116.664062 86.058594 C 118.011719 89.414062 118.71875 92.253906 118.71875 92.253906 C 118.71875 92.253906 120.203125 95.285156 121.746094 96.199219 C 122.621094 96.214844 123.855469 95.917969 124.871094 95.683594 C 126.304688 95.347656 124.617188 97.015625 125.96875 96.617188 C 127.324219 96.214844 128.390625 94.082031 128.390625 94.082031 C 128.390625 94.082031 128.617188 95.960938 128.351562 98.101562 C 128.164062 99.613281 127.0 102.46875 126.335938 104.003906 C 126.203125 104.351562 126.050781 104.695312 125.878906 105.03125 L 125.875 105.042969 L 125.871094 105.046875 C 125.300781 106.160156 124.515625 107.199219 123.632812 107.996094 C 121.832031 109.621094 117.628906 112.460938 117.628906 112.460938 C 117.628906 112.460938 120.199219 107.707031 118.605469 106.242188 C 118.605469 106.242188 114.308594 109.339844 110.214844 110.035156 C 106.117188 110.730469 110.839844 108.265625 109.015625 104.234375 C 108.335938 102.734375 108.011719 101.617188 107.871094 100.804688 M 47.15625 39.203125 L 47.214844 39.230469 L 47.207031 39.203125 Z M 107.382812 88.402344 C 107.382812 88.402344 104.710938 89.070312 103.105469 87.496094 C 102.441406 86.847656 102.160156 86.335938 101.976562 85.792969 C 101.976562 85.792969 102.445312 83.792969 101.589844 82.257812 C 100.761719 80.765625 97.636719 78.316406 97.472656 78.1875 L 97.464844 78.183594 C 97.464844 78.183594 101.339844 78.320312 103.019531 80.800781 C 104.695312 83.277344 104.195312 84.113281 105.339844 85.613281 C 106.484375 87.109375 107.382812 88.402344 107.382812 88.402344 M 121.925781 99.875 C 121.925781 99.875 121.050781 102.042969 119.925781 102.542969 C 118.796875 103.042969 119.96875 100.964844 118.304688 102.035156 C 116.644531 103.101562 117.25 104.101562 117.25 104.101562 C 117.25 104.101562 116.433594 101.25 119.179688 100.5625 Z M 108.410156 74.527344 L 108.558594 74.640625 C 108.5625 74.601562 108.574219 74.5625 108.585938 74.523438 Z M 114.402344 81.34375 L 114.488281 81.492188 L 114.691406 81.449219 Z"/>
</g>
</svg>