<?xml version="1.0" encoding="UTF-8"?>
<svg xmlns="http://www.w3.org/2000/svg" xmlns:xlink="http://www.w3.org/1999/xlink" width="300pt" height="52pt" viewBox="0 0 300 52" version="1.2">

<g id="main_contour" fill="white" stroke-width="2.4" stroke="rgb(4.017639%,3.95813%,4.968262%)" stroke-miterlimit="10">
	<path d="M 33.7188 50.3086 L 293.543 50.3086 C 293.543 49.4922 296.5078 45.8359 298.0117 45.8359 L 298.0117 6.1875 C 296.5078 6.1875 293.543 2.5313 293.543 1.7188 L 6.7773 1.7188 C 6.7773 2.5313 3.8125 6.1875 2.3086 6.1875 L 2.3086 45.8359 C 3.8125 45.8359 6.7773 49.4922 6.7773 50.3086 Z"/>
</g>

<g id="grey_stripe" fill="rgb(87.059021%,86.824036%,86.882019%)">
	<path d="M 61.5586 46.418 L 57.375 46.7266 L 62.2422 26.0352 L 57.375 5.3477 L 61.4883 5.6055 L 66.3516 26.0352 Z"/>
	<path d="M 238.4414 46.418 L 242.625 46.7266 L 237.7578 26.0352 L 242.625 5.3477 L 238.5117 5.6055 L 233.6484 26.0352 Z"/>
</g>

<g id="carets" fill="none" stroke="rgb(4.017639%,3.95813%,4.968262%)" stroke-miterlimit="10">
	<path style="stroke-width:1.5" d="M 61.4922 5.6055 L 66.2969 26.0352 L 61.5586 46.418"/>
	<path d="M 65.5156 5.7109 L 70.2969 26.0352 L 65.5313 46.3086"/>
	<path style="stroke-width:1.5" d="M 238.5078 5.6055 L 233.7031 26.0352 L 238.4414 46.418"/>
	<path d="M 234.4844 5.7109 L 229.7031 26.0352 L 234.4688 46.3086"/>
</g>

<g id="corner_curvelets" fill="none" stroke-width="1.5" stroke="rgb(4.017639%,3.95813%,4.968262%)" stroke-miterlimit="10">
	<path d="M 2.3086 16.668 C 2.3086 10.5156 11.3945 1.7188 17.7813 1.7188"/>
	<path d="M 2.3086 35.3555 C 2.3086 41.5117 11.3945 50.3047 17.7813 50.3047"/>
	<path d="M 298.0117 16.668 C 298.0117 10.5156 288.9258 1.7188 282.5391 1.7188"/>
	<path d="M 298.0117 35.3555 C 298.0117 41.5117 288.9258 50.3047 282.5391 50.3047"/>
</g>

<g id="horizontal_lines" fill="none" stroke="rgb(4.017639%,3.95813%,4.968262%)" stroke-miterlimit="10">
	<path d="M 35.043 1.7188 C 56.6289 1.7188 42.5898 5.4336 66.0508 5.7188 L 233.9492 5.7188 C 257.4102 5.4336 243.3711 1.7188 264.957 1.7188"/>
	<path d="M 35.043 50.3086 C 56.6289 50.3086 42.5898 46.5898 66.0508 46.3086 L 233.9492 46.3086 C 257.4102 46.5898 243.3711 50.3086 264.957 50.3086"/>
</g>

</svg>
