<?xml version="1.0" encoding="UTF-8"?>
<svg xmlns="http://www.w3.org/2000/svg" xmlns:xlink="http://www.w3.org/1999/xlink" width="300pt" height="52pt" viewBox="0 0 300 52" version="1.2">

<g id="grey_stripe" fill="rgb(87.059021%,86.824036%,86.882019%)">
	<path d="M 61.558594 46.417969 L 57.375 46.726562 L 62.242188 26.035156 L 57.375 5.347656 L 61.488281 5.605469 L 66.351562 26.035156 Z"/>
</g>

<g id="carets" fill="none" stroke="rgb(4.017639%,3.95813%,4.968262%)" stroke-miterlimit="10">
	<path style="stroke-width:1.5" d="M 61.492187 5.605469 L 66.296876 26.035156 L 61.558594 46.417968"/>
	<path d="M 65.515625 5.710937 L 70.296876 26.035156 L 65.53125 46.308594"/>
</g>

<g id="corner_curvelets" fill="none" stroke-width="1.5" stroke="rgb(4.017639%,3.95813%,4.968262%)" stroke-miterlimit="10">
	<path d="M 2.308594 16.667969 C 2.308594 10.515626 11.394532 1.71875 17.78125 1.71875"/>
	<path d="M 2.308594 35.355469 C 2.308594 41.511718 11.394532 50.304688 17.78125 50.304688"/>
	<path d="M 298.011719 16.667969 C 298.011719 10.515626 288.925782 1.71875 282.539062 1.71875"/>
	<path d="M 298.011719 35.355469 C 298.011719 41.511718 288.925782 50.304688 282.539062 50.304688"/>
</g>

<g id="horizontal_lines" fill="none" stroke="rgb(4.017639%,3.95813%,4.968262%)" stroke-miterlimit="10">
	<path d="M 35.042969 1.71875 C 56.628906 1.71875 42.589844 5.433594 66.050782 5.71875 L 291.375 5.71875"/>
	<path d="M 35.042969 50.308594 C 56.628906 50.308594 42.589844 46.589844 66.050782 46.308594 L 291.375 46.308594"/>
</g>

<g id="main_contour" fill="none" stroke-width="2.4" stroke="rgb(4.017639%,3.95813%,4.968262%)" stroke-miterlimit="10">
	<path d="M 33.71875 50.308594 L 293.542968 50.308594 C 293.542968 49.492188 296.507812 45.835938 298.011718 45.835938 L 298.011718 6.1875 C 296.507812 6.1875 293.542968 2.53125 293.542968 1.71875 L 6.777344 1.71875 C 6.777344 2.53125 3.8125 6.1875 2.308594 6.1875 L 2.308594 45.835938 C 3.8125 45.835938 6.777344 49.492188 6.777344 50.308594 Z"/>
</g>

</svg>
