<?xml version="1.0" encoding="UTF-8"?>
<svg xmlns="http://www.w3.org/2000/svg" xmlns:xlink="http://www.w3.org/1999/xlink" width="369pt" height="159pt" viewBox="0 0 369 159" version="1.2" fill="none" stroke="rgb(4.017639%,3.95813%,4.968262%)" stroke-miterlimit="10">

<g id="main_contours" stroke-width="2.4">
	<path d="M 195.4375 149.929688 C 197.683594 149.929688 204.046874 155.140624 204.046874 157.453124 L 358.453124 157.453124 C 358.453124 155.140624 364.816406 149.929688 367.0625 149.929688 L 367.0625 10.019532 C 364.816406 10.019532 358.449218 4.804688 358.449218 2.492188 L 204.046874 2.492188 C 204.046874 4.804688 197.683594 10.019532 195.433594 10.019532 Z"/>
	<path d="M 2.386719 149.929688 C 4.632812 149.929688 10.996094 155.140624 10.996094 157.453124 L 165.664062 157.453124 C 165.664062 155.140624 172.03125 149.929688 174.277344 149.929688 L 174.277344 10.019532 C 172.027344 10.019532 165.664062 4.804688 165.664062 2.492188 L 10.996094 2.492188 C 10.996094 4.804688 4.632812 10.019532 2.382813 10.019532 Z"/>
</g>

<g id="corner_curvelets" stroke-width="1.5">
	<path d="M 367.0625 136.6875 C 363.800782 147.140626 352.867188 157.15625 345.785156 157.453126"/>
	<path d="M 195.4375 136.6875 C 198.699218 147.140626 209.632812 157.15625 216.714844 157.453126"/>
	<path d="M 367.0625 23.261719 C 363.800782 12.808594 352.867188 2.792968 345.785156 2.492188"/>
	<path d="M 195.433594 23.261719 C 198.699218 12.808594 209.628906 2.792968 216.710938 2.492188"/>
	<path d="M 174.277344 136.6875 C 171.011718 147.140626 160.082032 157.15625 153.0 157.453126"/>
	<path d="M 2.386719 136.6875 C 5.648438 147.140626 16.582032 157.15625 23.664062 157.453126"/>
	<path d="M 174.277344 23.261719 C 171.011718 12.808594 160.078126 2.792968 152.996094 2.492188"/>
	<path d="M 2.382812 23.261719 C 5.648438 12.808594 16.582032 2.792968 23.664062 2.492188"/>
</g>

<g id="side_lines">
	<path d="M 8.386719 12.539063 L 8.386719 147.40625"/>
	<path d="M 168.277344 12.539063 L 168.277344 147.40625"/>
	<path d="M 201.433594 12.539063 L 201.433594 147.40625"/>
	<path d="M 361.0625 12.539063 L 361.0625 147.40625"/>
</g>

</svg>
