<?xml version="1.0" encoding="UTF-8"?>
<svg xmlns="http://www.w3.org/2000/svg" width="377pt" height="224pt" viewBox="0 0 377 224" version="1.2">

<path id="white_bg" fill="white" d="M 0 43 L 377 43 L 377 224 L 0 224 Z"/>

<g id="attribute_extension">
	<g id="grey_background" fill="#DEDDDE">
		<path d="M 0.25547 161.675 C 2.88438 162.55 6.94297 167.44453 7.66953 170.15156 L 16.38828 170.15156 C 9.54844 166.85469 3.07969 160.61641 0.25547 154.83516 Z"/>
		<path d="M 121.00938 161.675 L 121.00938 154.83906 C 118.18125 160.61641 111.7125 166.85469 104.87266 170.15156 L 113.59531 170.15156 C 114.31797 167.44453 118.37656 162.55391 121.00938 161.675"/>
		<path d="M 0.25547 149.58906 C 0.34922 151.81562 1.53281 154.53047 3.43906 157.28047 C 6.86875 153.47969 9.15391 149.78828 9.18906 149.73359 L 9.33359 149.49531 L 111.92734 149.49531 L 112.07188 149.73359 C 112.10703 149.78828 114.39219 153.48359 117.82578 157.28437 C 119.73203 154.53437 120.91562 151.81562 121.00938 149.58906 L 121.00938 0 L 0.25547 0 Z"/>

		<path d="M 9.88828 150.49531 L 111.36875 150.49531 C 111.65781 150.94062 112.34922 151.99531 113.34141 153.34687 L 7.91562 153.34687 C 8.91172 151.99531 9.60312 150.94062 9.88828 150.49531"/>
		<path d="M 100.00547 154.34687 C 88.44297 157.82344 75.48594 159.70234 62.24766 159.84297 C 62.025 159.15156 61.39219 158.63984 60.62656 158.63984 C 59.85703 158.63984 59.22422 159.15156 58.99766 159.84297 C 45.76328 159.70234 32.80625 157.82344 21.23984 154.34687 Z"/>
		<path d="M 7.16562 154.34687 L 17.91953 154.34687 C 30.32188 158.46016 44.48984 160.68672 58.98594 160.83906 C 59.19688 161.56562 59.83359 162.10469 60.62656 162.10469 C 61.41562 162.10469 62.05234 161.56562 62.26328 160.83906 C 76.75938 160.68672 90.92344 158.46016 103.32578 154.34687 L 114.04453 154.34687 L 114.04453 154.28437 C 114.93906 155.45625 116.01719 156.78047 117.23203 158.1125 C 115.66953 160.20234 113.72422 162.28437 111.47812 164.15156 L 9.78672 164.15156 C 7.54062 162.28437 5.59141 160.20234 4.03281 158.1125 C 5.22422 156.8 6.28281 155.50312 7.16562 154.34687"/>
		<path d="M 20.4 170.15156 L 100.86094 170.15156 C 103.92344 169.18281 106.87266 167.58125 109.53672 165.65156 L 11.72812 165.65156 C 14.39219 167.58125 17.34141 169.18281 20.4 170.15156"/>
	</g>

	<g id="frame" fill="none" stroke="#0A0A0D">
		<path fill="white" stroke-width="2.4" d="M 9.61094 25.65254 C 11.86094 25.65254 18.22422 20.4377 18.22422 18.1252 L 103.02891 18.1252 C 103.02891 20.4377 109.39609 25.65254 111.64219 25.65254 L 111.64219 132.09785 C 109.39609 132.09785 83.02891 137.30879 83.02891 139.62129 L 38.22422 139.62129 C 38.22422 137.30879 11.86094 132.09785 9.61094 132.09785 Z"/>
		<path  fill="#DEDDDE" stroke="none" d="M 109.61484 125.08223 C 109.41562 124.90254 89.61484 107.05098 60.62656 107.05098 C 31.63828 107.05098 11.8375 124.90254 11.64219 125.08223 L 9.9 126.79707 L 9.66172 118.90645 C 15.73984 114.0666 34.50547 101.05098 60.62656 101.05098 C 86.83359 101.05098 105.63828 114.15254 111.65 118.95332 L 111.59141 126.79707 Z"/>

		<path stroke-width="2.4" d="M 111.64219 120.07441 C 111.64219 120.07441 91.22031 101.2541 60.62656 101.2541 C 30.03281 101.2541 9.61094 120.07441 9.61094 120.07441"/>
		<g stroke-width="1.0">
			<path d="M 111.64219 38.89473 C 108.38047 28.4416 97.44688 18.42598 90.36484 18.12519"/>
			<path d="M 9.61094 38.89473 C 12.87656 28.4416 23.80625 18.42598 30.88828 18.12519"/>
		</g>
		<g stroke-width="0.5">
			<path d="M 13.61094 30.66035 L 13.61094 62.23066 C 13.61094 121.15644 10.13828 112.43769 9.66172 132.08613"/>
			<path d="M 107.64219 30.66035 L 107.64219 62.23066 C 107.64219 121.17207 111.11484 112.43379 111.59141 132.10176"/>
		</g>
	</g>
</g>

<g id="reduced_senses_pane">
	<g id="main_contour" fill="none" stroke-width="2.4" stroke="rgb(4.017639%,3.95813%,4.968262%)" stroke-miterlimit="10">
		<path d="M 135.38672 213.84375 C 137.63281 213.84375 143.99609 219.05859 143.99609 221.37109 L 366.45312 221.37109 C 366.45312 219.05859 372.81641 213.84375 375.0625 213.84375 L 375.0625 54.21484 C 372.81641 54.21484 366.44922 49.00391 366.44922 46.6875 L 143.99609 46.6875 C 143.99609 49.00391 137.63281 54.21484 135.38281 54.21484 Z"/>
	</g>

	<g id="corner_curvelets" fill="none" stroke-width="1.5" stroke="rgb(4.017639%,3.95813%,4.968262%)" stroke-miterlimit="10">
		<path d="M 375.0625 200.60156 C 371.80078 211.05859 360.86719 221.07422 353.78516 221.37109"/>
		<path d="M 135.38672 200.60156 C 138.64844 211.05859 149.58203 221.07422 156.66406 221.37109"/>
		<path d="M 375.0625 67.45703 C 371.80078 57.00391 360.86719 46.98828 353.78516 46.69141"/>
		<path d="M 135.38281 67.45703 C 138.64844 57.00391 149.58203 46.98828 156.66406 46.69141"/>
	</g>

	<g id="side_lines" fill="none" stroke="rgb(4.017639%,3.95813%,4.968262%)" stroke-miterlimit="10">
		<path d="M 141.38672 56.73438 L 141.38672 211.32812"/>
		<path d="M 369.0625 56.73438 L 369.0625 211.32812"/>
	</g>

	<g id="passive_perception_inset" stroke-miterlimit="10">
		<g id="pp_main_contour" fill="none" stroke-width="2.4" stroke="rgb(4.017639%,3.95813%,4.968262%)">
			<path d="M 192.90234 111.49219 L 344.58984 111.49219 C 344.58984 110.67578 347.55859 107.02344 349.0625 107.02344 L 349.0625 67.375 C 347.55859 67.375 344.58984 63.71875 344.58984 62.90234 L 165.96094 62.90234 C 165.96094 63.71875 162.99609 67.375 161.49219 67.375 L 161.49219 107.02344 C 162.99609 107.02344 165.96094 110.67578 165.96094 111.49219 Z"/>
		</g>

		<g id="pp_grey_stripe" fill="rgb(87.059021%,86.824036%,86.882019%)">
			<path d="M 216.40234 108.04297 L 217.04297 106.84375 C 222.99609 95.45312 222.99609 78.92578 217.04297 67.53906 L 216.46484 66.35156 L 221.05078 66.60938 C 226.95312 78.73047 226.94531 95.70703 221.02734 107.81641 Z"/>
		</g>

		<g id="pp_curve" fill="none" stroke="rgb(4.017639%,3.95813%,4.968262%)">
			<path style="stroke-width:1.5" d="M 220.8125 66.61328 C 227.03516 78.51172 227.03516 95.87109 220.8125 107.76953"/>
			<path d="M 224.8125 66.61328 C 231.03516 78.51172 231.03516 95.87109 224.8125 107.76953"/>
		</g>

		<g id="pp_corner_curvelets" fill="none" stroke-width="1.5" stroke="rgb(4.017639%,3.95813%,4.968262%)">
			<path d="M 161.48828 77.85547 C 161.48828 71.69922 170.57812 62.90234 176.96484 62.90234"/>
			<path d="M 161.48828 96.53906 C 161.48828 102.69531 170.57812 111.49219 176.96484 111.49219"/>
			<path d="M 349.0625 77.85547 C 349.0625 71.69922 339.97656 62.90234 333.58984 62.90234"/>
			<path d="M 349.0625 96.53906 C 349.0625 102.69531 339.97656 111.49219 333.58984 111.49219"/>
		</g>

		<g id="pp_horizontal_lines" fill="none" stroke="rgb(4.017639%,3.95813%,4.968262%)">
			<path d="M 194.22656 62.90234 C 215.80859 62.90234 201.77344 66.61719 225.23047 66.90234 L 342.42578 66.90234"/>
			<path d="M 194.22656 111.49219 C 215.80859 111.49219 201.77344 107.77734 225.23047 107.49219 L 342.42578 107.49219"/>
		</g>
	</g>

	<g id="white_lines" fill="none" stroke="rgb(69.805908%,69.256592%,69.392395%)" stroke-miterlimit="10">
		<path d="M 145.89062 140.29297 L 364.55859 140.29297"/>
		<path d="M 145.89062 162.29297 L 364.55859 162.29297"/>
		<path d="M 145.89062 184.28906 L 364.55859 184.28906"/>
	</g>
</g>


<g id="save_frame" fill="none" stroke="rgb(4.017639%,3.95813%,4.968262%)">
	<path
		stroke-width="2.4"
		d="M 12.2 184.4 L 21.4 175.2 L 111.8 175.2 L 121.0 184.4 L 121.0 212.2 L 111.8 221.4 L 21.4 221.4 L 12.2 212.2 Z"
	/>
	<g id="corner_curvelets" stroke-width="1.2">
		<path d="M  12.2 204.5 C  12.2 193.1  18.2 175.2 37.7 175.2"/>
		<path d="M  12.2 192.1 C  12.2 203.5  18.2 221.4 37.7 221.4"/>
		<path d="M 121.0 204.5 C 121.0 193.1 115.0 175.2 95.5 175.2"/>
		<path d="M 121.0 192.1 C 121.0 203.5 115.0 221.4 95.5 221.4"/>
	</g>
	<g id="side_lines" stroke-width="1.2">
		<path d="M  18.0 185.0 L  18.0 211.5"/>
		<path d="M 115.2 185.0 L 115.2 211.5"/>
	</g>
</g>

</svg>
