<?xml version="1.0" encoding="UTF-8"?>
<svg xmlns="http://www.w3.org/2000/svg" xmlns:xlink="http://www.w3.org/1999/xlink" width="300pt" height="318pt" viewBox="0 0 300 318" version="1.2">

<g id="main_contour" fill="none" stroke="rgb(4.017639%,3.95813%,4.968262%)" stroke-width="2.4" stroke-miterlimit="10">
	<path d="M 2.179687 308.054687 C 4.425782 308.054687 10.789062 313.265624 10.789062 315.578124 L 289.34375 315.578124 C 289.34375 313.265624 295.707032 308.054687 297.953126 308.054687 L 297.953126 9.859374 C 295.707032 9.859374 289.34375 4.648438 289.34375 2.332032 L 10.789062 2.332032 C 10.789062 4.648438 4.425782 9.859374 2.175781 9.859374 Z"/>
</g>

<g id="corner_curvelets" fill="none" stroke="rgb(4.017639%,3.95813%,4.968262%)" stroke-width="1.5" stroke-miterlimit="10">
	<path d="M 297.953125 294.8125 C 294.691406 305.265624 283.757812 315.28125 276.675782 315.578124"/>
	<path d="M 2.179687 294.8125 C 5.441406 305.265624 16.375 315.28125 23.457032 315.578124"/>
	<path d="M 297.953125 23.101562 C 294.691406 12.648438 283.757812 2.632812 276.675782 2.335938"/>
	<path d="M 2.175781 23.101562 C 5.441406 12.648438 16.371094 2.632812 23.453126 2.335938"/>
</g>

<g id="corner_curvelets" fill="none" stroke="rgb(4.017639%,3.95813%,4.968262%)" stroke-miterlimit="10">
	<path d="M 8.175781 12.378906 L 8.175781 305.535156"/>
	<path d="M 291.953125 12.378906 L 291.953125 305.535156"/>
</g>

</svg>
