<?xml version="1.0" encoding="UTF-8"?>
<svg xmlns="http://www.w3.org/2000/svg" xmlns:xlink="http://www.w3.org/1999/xlink" width="236pt" height="355pt" viewBox="0 0 236 355" version="1.2">

<g id="frame" fill="none" stroke="#0A0A0D" stroke-width="1.5">
	<path style="stroke-width:2.4;" d="M 0.574219 346.726562 C 2.820312 346.726562 9.183594 351.9375 9.183594 354.25 L 226.453126 354.25 C 226.453126 351.9375 232.816406 346.726562 235.0625 346.726562 L 235.0625 7.957032 C 232.816406 7.957032 226.453126 2.742188 226.453126 0.429688 L 9.183594 0.429688 C 9.183594 2.742188 2.820312 7.957032 0.570312 7.957032 Z"/>
	<path d="M 235.0625 333.484375 C 231.800782 343.9375 220.867188 353.953124 213.785156 354.25"/>
	<path d="M 0.574219 333.484375 C 3.835938 343.9375 14.769532 353.953124 21.851562 354.25"/>
	<path d="M 235.0625 21.195313 C 231.800782 10.742188 220.867188 0.726562 213.785156 0.429688"/>
	<path d="M 0.570313 21.195313 C 3.835938 10.742188 14.769532 0.726562 21.851562 0.429688"/>
	<path style="stroke-width:1.0;" d="M 6.574219 10.472656 L 6.574219 344.207032"/>
	<path style="stroke-width:1.0;" d="M 229.0625 10.472656 L 229.0625 344.207032"/>
</g>

<g id="white_lines" fill="none" stroke="#B2B1B1" stroke-width="1.0">
	<path d="M 9.867188 207.453125 L 227.867188 207.453125"/>
	<path d="M 9.867188 229.449219 L 227.867188 229.449219"/>
	<path d="M 9.867188 251.453125 L 227.867188 251.453125"/>
	<path d="M 9.867188 273.449219 L 227.867188 273.449219"/>
	<path d="M 9.867188 295.449219 L 227.867188 295.449219"/>
	<path d="M 9.867188 317.453125 L 227.867188 317.453125"/>
</g>

</svg>
