<?xml version="1.0" encoding="UTF-8"?>
<svg xmlns="http://www.w3.org/2000/svg" xmlns:xlink="http://www.w3.org/1999/xlink" width="369pt" height="179pt" viewBox="0 0 369 179" version="1.2">

<g id="main_contour" fill="none" stroke-width="2.4" stroke="rgb(4.017639%,3.95813%,4.968262%)" stroke-miterlimit="10">
	<path d="M 2.386719 168.84375 C 4.632812 168.84375 10.996094 174.058594 10.996094 176.371094 L 358.453124 176.371094 C 358.453124 174.058594 364.816406 168.84375 367.0625 168.84375 L 367.0625 9.214844 C 364.816406 9.214844 358.449218 4.003906 358.449218 1.6875 L 10.996094 1.6875 C 10.996094 4.003906 4.632812 9.214844 2.382813 9.214844 Z"/>
</g>

<g id="corner_curvelets" fill="none" stroke-width="1.5" stroke="rgb(4.017639%,3.95813%,4.968262%)" stroke-miterlimit="10">
	<path d="M 367.0625 155.601563 C 363.800782 166.058594 352.867188 176.074218 345.785156 176.371094"/>
	<path d="M 2.386719 155.601563 C 5.648438 166.058594 16.582032 176.074218 23.664062 176.371094"/>
	<path d="M 367.0625 22.457031 C 363.800782 12.003906 352.867188 1.988282 345.785156 1.691406"/>
	<path d="M 2.382812 22.457031 C 5.648438 12.003906 16.582032 1.988282 23.664062 1.691406"/>
</g>

<g id="side_lines" fill="none" stroke="rgb(4.017639%,3.95813%,4.968262%)" stroke-miterlimit="10">
	<path d="M 8.386719 11.734375 L 8.386719 166.328124"/>
	<path d="M 361.0625 11.734375 L 361.0625 166.328124"/>
</g>

<g id="passive_perception_inset" stroke-miterlimit="10">
	<g id="pp_main_contour" fill="none" stroke-width="2.4" stroke="rgb(4.017639%,3.95813%,4.968262%)">
		<path d="M 59.902344 66.492188 L 336.589844 66.492188 C 336.589844 65.675782 339.558594 62.023438 341.0625 62.023438 L 341.0625 22.375 C 339.558594 22.375 336.589844 18.71875 336.589844 17.902344 L 32.960938 17.902344 C 32.960938 18.71875 29.996094 22.375 28.492188 22.375 L 28.492188 62.023438 C 29.996094 62.023438 32.960938 65.675782 32.960938 66.492188 Z"/>
	</g>

	<g id="pp_grey_stripe" fill="rgb(87.059021%,86.824036%,86.882019%)">
		<path d="M 83.402344 63.042969 L 84.042969 61.84375 C 89.996094 50.453125 89.996094 33.925781 84.042969 22.539062 L 83.464844 21.351562 L 88.050781 21.609375 C 93.953125 33.730469 93.945312 50.707031 88.027344 62.816406 Z"/>
	</g>

	<g id="pp_curve" fill="none" stroke="rgb(4.017639%,3.95813%,4.968262%)">
		<path style="stroke-width:1.5" d="M 87.8125 21.613281 C 94.035156 33.511718 94.035156 50.871094 87.8125 62.769532"/>
		<path d="M 91.8125 21.613281 C 98.035156 33.511718 98.035156 50.871094 91.8125 62.769532"/>
	</g>

	<g id="pp_corner_curvelets" fill="none" stroke-width="1.5" stroke="rgb(4.017639%,3.95813%,4.968262%)">
		<path d="M 28.488281 32.855469 C 28.488281 26.699218 37.578124 17.902344 43.964844 17.902344"/>
		<path d="M 28.488281 51.539062 C 28.488281 57.695312 37.578124 66.492188 43.964844 66.492188"/>
		<path d="M 341.0625 32.855469 C 341.0625 26.699218 331.976562 17.902344 325.589844 17.902344"/>
		<path d="M 341.0625 51.539062 C 341.0625 57.695312 331.976562 66.492188 325.589844 66.492188"/>
	</g>

	<g id="pp_horizontal_lines" fill="none" stroke="rgb(4.017639%,3.95813%,4.968262%)">
		<path d="M 61.226562 17.902344 C 82.808594 17.902344 68.773438 21.617188 92.230468 21.902344 L 334.425782 21.902344"/>
		<path d="M 61.226562 66.492188 C 82.808594 66.492188 68.773438 62.777344 92.230468 62.492188 L 334.425782 62.492188"/>
	</g>
</g>

<g id="white_lines" fill="none" stroke="rgb(69.805908%,69.256592%,69.392395%)" stroke-miterlimit="10">
	<path d="M 12.890625 95.292969 L 356.558594 95.292969"/>
	<path d="M 12.890625 117.292969 L 356.558594 117.292969"/>
	<path d="M 12.890625 139.289063 L 356.558594 139.289063"/>
</g>

</svg>
