<?xml version="1.0" encoding="UTF-8"?>
<svg xmlns="http://www.w3.org/2000/svg" xmlns:xlink="http://www.w3.org/1999/xlink" width="238pt" height="530pt" viewBox="0 0 238 530" version="1.2">

<g id="main_contour" fill="none" stroke-width="2.4" stroke="rgb(4.017639%,3.95813%,4.968262%)" stroke-miterlimit="10">
	<path d="M 1.574219 520.375 C 3.820312 520.375 10.183594 525.589844 10.183594 527.902344 L 227.453126 527.902344 C 227.453126 525.589844 233.816406 520.375 236.0625 520.375 L 236.0625 9.171876 C 233.816406 9.171876 227.453126 3.960938 227.453126 1.648438 L 10.183594 1.648438 C 10.183594 3.960938 3.820312 9.171876 1.570312 9.171876 Z"/>
</g>

<g id="corner_curvelets" fill="none" stroke-width="1.5" stroke="rgb(4.017639%,3.95813%,4.968262%)" stroke-miterlimit="10">
	<path d="M 236.0625 507.132813 C 232.800782 517.585938 221.867188 527.601562 214.785156 527.902344"/>
	<path d="M 1.574219 507.132813 C 4.835938 517.585938 15.769532 527.601562 22.851562 527.902344"/>
	<path d="M 236.0625 22.414063 C 232.800782 11.960938 221.867188 1.945312 214.785156 1.648438"/>
	<path d="M 1.570313 22.414063 C 4.835938 11.960938 15.769532 1.945312 22.851562 1.648438"/>
</g>

<g id="side_lines" fill="none" stroke="rgb(4.017639%,3.95813%,4.968262%)" stroke-miterlimit="10">
	<path d="M 7.574219 11.691406 L 7.574219 517.855468"/>
	<path d="M 230.0625 11.691406 L 230.0625 517.855468"/>
</g>

</svg>
