<?xml version="1.0" encoding="UTF-8"?>
<svg xmlns="http://www.w3.org/2000/svg" xmlns:xlink="http://www.w3.org/1999/xlink" width="384pt" height="402pt" viewBox="0 0 384 402" version="1.2">

<path style=" stroke:none;fill-rule:nonzero;fill:rgb(87.059021%,86.824036%,86.882019%);fill-opacity:1;" d="M 382.996094 380.796875 C 382.824219 384.933594 378.964844 390.785156 373.464844 395.355469 L 10.136719 395.355469 C 4.636719 390.785156 0.777344 384.933594 0.605469 380.796875 L 0.605469 21.800781 C 0.78125 17.664062 4.640625 11.808594 10.140625 7.238281 L 373.464844 7.238281 C 378.964844 11.808594 382.824219 17.664062 382.996094 21.796875 Z M 382.996094 380.796875"/>
<path style=" stroke:none;fill-rule:nonzero;fill:rgb(87.059021%,86.824036%,86.882019%);fill-opacity:1;" d="M 0.605469 9.714844 C 3.234375 8.839844 7.296875 3.945312 8.019531 1.238281 L 16.742188 1.238281 C 9.902344 4.535156 3.433594 10.769531 0.605469 16.554688 Z M 0.605469 9.714844"/>
<path style=" stroke:none;fill-rule:nonzero;fill:rgb(87.059021%,86.824036%,86.882019%);fill-opacity:1;" d="M 0.605469 392.882812 L 0.605469 386.042969 C 3.433594 391.824219 9.898438 398.058594 16.738281 401.359375 L 8.019531 401.359375 C 7.292969 398.652344 3.234375 393.757812 0.605469 392.882812"/>
<path style=" stroke:none;fill-rule:nonzero;fill:rgb(87.059021%,86.824036%,86.882019%);fill-opacity:1;" d="M 382.996094 392.878906 C 380.367188 393.753906 376.308594 398.648438 375.585938 401.355469 L 366.863281 401.355469 C 373.703125 398.058594 380.167969 391.824219 382.996094 386.042969 Z M 382.996094 392.878906"/>
<path style=" stroke:none;fill-rule:nonzero;fill:rgb(87.059021%,86.824036%,86.882019%);fill-opacity:1;" d="M 382.996094 9.714844 L 382.996094 16.550781 C 380.167969 10.769531 373.703125 4.535156 366.863281 1.238281 L 375.585938 1.238281 C 376.308594 3.941406 380.367188 8.835938 382.996094 9.714844"/>

<path style="fill-rule:nonzero;fill:rgb(100%,100%,100%);fill-opacity:1;stroke-width:2.4;stroke-linecap:butt;stroke-linejoin:miter;stroke:rgb(4.017639%,3.95813%,4.968262%);stroke-opacity:1;stroke-miterlimit:10;" d="M 10.308594 376.582031 C 12.554688 376.582031 18.921874 381.796874 18.921874 384.109374 L 104.023438 384.109374 C 104.023438 381.796874 110.386718 376.582031 112.632812 376.582031 L 112.632812 268.464844 C 110.386718 268.464844 104.023438 263.25 104.023438 260.941406 L 18.921874 260.941406 C 18.921874 263.25 12.554688 268.464844 10.304688 268.464844 Z M 10.308594 376.582031"/>
<path style="fill:none;stroke-width:1.5;stroke-linecap:butt;stroke-linejoin:miter;stroke:rgb(4.017639%,3.95813%,4.968262%);stroke-opacity:1;stroke-miterlimit:10;" d="M 112.636719 363.339844 C 109.371094 373.796874 98.4375 383.8125 91.355468 384.109374"/>
<path style="fill:none;stroke-width:1.5;stroke-linecap:butt;stroke-linejoin:miter;stroke:rgb(4.017639%,3.95813%,4.968262%);stroke-opacity:1;stroke-miterlimit:10;" d="M 10.308594 363.339844 C 13.574218 373.796874 24.503906 383.8125 31.585938 384.109374"/>
<path style="fill:none;stroke-width:1.5;stroke-linecap:butt;stroke-linejoin:miter;stroke:rgb(4.017639%,3.95813%,4.968262%);stroke-opacity:1;stroke-miterlimit:10;" d="M 112.632812 281.707031 C 109.371094 271.253906 98.4375 261.238282 91.355468 260.941406"/>
<path style="fill:none;stroke-width:1.5;stroke-linecap:butt;stroke-linejoin:miter;stroke:rgb(4.017639%,3.95813%,4.968262%);stroke-opacity:1;stroke-miterlimit:10;" d="M 10.308594 281.707031 C 13.570312 271.253906 24.503906 261.238282 31.585938 260.941406"/>
<path style=" stroke:none;fill-rule:nonzero;fill:rgb(4.017639%,3.95813%,4.968262%);fill-opacity:1;" d="M 87.195312 284.332031 C 82.339844 284.332031 78.386719 288.058594 77.925781 292.792969 L 70.738281 292.792969 C 70.28125 288.058594 66.324219 284.332031 61.472656 284.332031 C 56.617188 284.332031 52.664062 288.058594 52.203125 292.792969 L 45.019531 292.792969 C 44.558594 288.058594 40.605469 284.332031 35.75 284.332031 C 30.589844 284.332031 26.390625 288.53125 26.390625 293.691406 C 26.390625 298.851562 30.589844 303.050781 35.75 303.050781 C 39.800781 303.050781 43.222656 300.453125 44.523438 296.84375 L 52.699219 296.84375 C 54.0 300.453125 57.425781 303.050781 61.472656 303.050781 C 65.523438 303.050781 68.945312 300.453125 70.246094 296.84375 L 78.421875 296.84375 C 79.722656 300.453125 83.144531 303.050781 87.195312 303.050781 C 92.355469 303.050781 96.550781 298.851562 96.550781 293.691406 C 96.550781 288.53125 92.355469 284.332031 87.195312 284.332031 M 35.75 301.253906 C 31.578125 301.253906 28.1875 297.863281 28.1875 293.691406 C 28.1875 289.519531 31.578125 286.128906 35.75 286.128906 C 39.921875 286.128906 43.3125 289.519531 43.3125 293.691406 C 43.3125 297.863281 39.921875 301.253906 35.75 301.253906 M 44.800781 295.945312 C 44.910156 295.503906 44.972656 295.050781 45.019531 294.589844 L 52.203125 294.589844 C 52.246094 295.050781 52.308594 295.503906 52.421875 295.945312 Z M 61.472656 301.253906 C 57.300781 301.253906 53.90625 297.863281 53.90625 293.691406 C 53.90625 289.519531 57.300781 286.128906 61.472656 286.128906 C 65.640625 286.128906 69.035156 289.519531 69.035156 293.691406 C 69.035156 297.863281 65.640625 301.253906 61.472656 301.253906 M 70.523438 295.945312 C 70.632812 295.503906 70.695312 295.050781 70.738281 294.589844 L 77.925781 294.589844 C 77.96875 295.050781 78.03125 295.503906 78.140625 295.945312 Z M 87.195312 301.253906 C 83.023438 301.253906 79.628906 297.863281 79.628906 293.691406 C 79.628906 289.519531 83.023438 286.128906 87.195312 286.128906 C 91.363281 286.128906 94.757812 289.519531 94.757812 293.691406 C 94.757812 297.863281 91.363281 301.253906 87.195312 301.253906"/>
<path style=" stroke:none;fill-rule:nonzero;fill:rgb(4.017639%,3.95813%,4.968262%);fill-opacity:1;" d="M 35.75 331.238281 C 40.601562 331.238281 44.558594 327.511719 45.015625 322.777344 L 52.203125 322.777344 C 52.664062 327.511719 56.617188 331.238281 61.472656 331.238281 C 66.324219 331.238281 70.277344 327.511719 70.738281 322.777344 L 77.925781 322.777344 C 78.386719 327.511719 82.339844 331.238281 87.191406 331.238281 C 92.351562 331.238281 96.550781 327.039062 96.550781 321.878906 C 96.550781 316.71875 92.351562 312.519531 87.191406 312.519531 C 83.144531 312.519531 79.71875 315.121094 78.417969 318.730469 L 70.242188 318.730469 C 68.941406 315.121094 65.519531 312.519531 61.472656 312.519531 C 57.421875 312.519531 54.0 315.121094 52.695312 318.730469 L 44.523438 318.730469 C 43.222656 315.121094 39.800781 312.519531 35.75 312.519531 C 30.589844 312.519531 26.390625 316.71875 26.390625 321.878906 C 26.390625 327.039062 30.589844 331.238281 35.75 331.238281 M 87.191406 314.316406 C 91.363281 314.316406 94.753906 317.710938 94.753906 321.878906 C 94.753906 326.050781 91.363281 329.445312 87.191406 329.445312 C 83.023438 329.445312 79.628906 326.050781 79.628906 321.878906 C 79.628906 317.710938 83.023438 314.316406 87.191406 314.316406 M 78.140625 319.625 C 78.03125 320.066406 77.96875 320.519531 77.925781 320.984375 L 70.738281 320.984375 C 70.695312 320.519531 70.632812 320.066406 70.523438 319.625 Z M 61.472656 314.316406 C 65.640625 314.316406 69.035156 317.710938 69.035156 321.878906 C 69.035156 326.050781 65.640625 329.445312 61.472656 329.445312 C 57.300781 329.445312 53.90625 326.050781 53.90625 321.878906 C 53.90625 317.710938 57.300781 314.316406 61.472656 314.316406 M 52.417969 319.625 C 52.308594 320.066406 52.246094 320.519531 52.203125 320.984375 L 45.015625 320.984375 C 44.972656 320.519531 44.910156 320.066406 44.800781 319.625 Z M 35.75 314.316406 C 39.917969 314.316406 43.3125 317.710938 43.3125 321.878906 C 43.3125 326.050781 39.917969 329.445312 35.75 329.445312 C 31.578125 329.445312 28.183594 326.050781 28.183594 321.878906 C 28.183594 317.710938 31.578125 314.316406 35.75 314.316406"/>

<path style=" stroke:none;fill-rule:nonzero;fill:rgb(100%,100%,100%);fill-opacity:1;" d="M 124.214844 73.777344 C 144.59375 55.160156 145.554688 23.703125 145.636719 23.335938 L 146.042969 21.140625 L 147.859375 22.863281 C 150.222656 25.085938 155.640625 26.777344 159.664062 28.058594 C 160.371094 25.160156 160.714844 21.472656 160.734375 21.394531 L 161.136719 19.199219 L 162.976562 20.921875 C 170.195312 27.734375 184.171875 31.242188 195.898438 31.671875 L 195.734375 31.671875 C 207.460938 31.242188 222.054688 27.476562 229.292969 20.667969 L 231.132812 18.945312 L 231.539062 21.140625 C 231.539062 21.214844 231.878906 24.90625 232.605469 27.800781 C 236.628906 26.523438 242.042969 24.828125 244.386719 22.609375 L 246.230469 20.886719 L 246.632812 23.078125 C 246.714844 23.445312 248.996094 55.160156 269.355469 73.777344 L 270.023438 74.386719 L 269.355469 74.992188 C 248.996094 93.613281 246.714844 125.324219 246.632812 125.691406 L 246.230469 127.882812 L 244.386719 126.164062 C 242.042969 123.941406 236.628906 122.246094 232.605469 120.96875 C 231.878906 123.863281 231.539062 127.554688 231.539062 127.632812 L 231.132812 129.824219 L 229.292969 128.105469 C 222.054688 121.296875 207.460938 117.527344 195.734375 117.097656 L 195.898438 117.097656 C 184.171875 117.527344 170.195312 121.550781 162.976562 128.359375 L 161.136719 130.078125 L 160.734375 127.886719 C 160.714844 127.8125 160.371094 124.121094 159.664062 121.226562 C 155.640625 122.503906 150.222656 124.195312 147.859375 126.421875 L 146.042969 128.140625 L 145.636719 125.949219 C 145.554688 125.582031 144.59375 93.613281 124.214844 74.992188 L 123.546875 74.386719 Z M 124.214844 73.777344"/>
<path style=" stroke:none;fill-rule:nonzero;fill:rgb(4.017639%,3.95813%,4.968262%);fill-opacity:1;" d="M 245.550781 123.460938 C 246.605469 118.9375 246.414062 112.164062 250.175781 102.914062 C 253.9375 93.664062 258.351562 87.5625 264.984375 78.730469 C 267.734375 74.386719 267.734375 74.386719 264.984375 70.507812 C 250.351562 53.9375 247.65625 34.324219 245.550781 25.292969 C 240.320312 40.054688 248.199219 54.101562 251.300781 58.46875 L 252.351562 56.585938 L 252.351562 66.828125 C 254.648438 69.875 257.167969 71.210938 259.917969 73.757812 L 260.601562 74.386719 L 259.917969 75.011719 C 257.167969 77.558594 254.648438 78.898438 252.351562 81.945312 L 252.351562 92.1875 L 251.300781 90.289062 C 248.199219 94.652344 240.320312 108.714844 245.550781 123.460938 M 230.53125 27.097656 C 230.222656 25.777344 229.953125 22.648438 229.765625 21.785156 C 225.941406 24.566406 220.550781 28.464844 214.660156 29.769531 C 220.011719 29.269531 225.570312 28.449219 230.53125 27.097656 M 240.445312 26.488281 C 238.917969 27.179688 235.265625 27.792969 233.527344 28.339844 C 235.902344 37.328125 241.09375 50.460938 250.285156 63.9375 L 250.285156 60.304688 C 249.5 59.285156 245.824219 54.304688 243.074219 47.472656 C 243.054688 47.394531 240.507812 38.941406 240.445312 26.488281 M 233.527344 120.429688 C 235.265625 120.980469 238.917969 121.59375 240.445312 122.285156 C 240.507812 109.8125 243.054688 101.359375 243.074219 101.296875 C 245.824219 94.449219 249.5 89.484375 250.285156 88.449219 L 250.285156 84.835938 C 241.09375 98.308594 235.902344 111.449219 233.527344 120.429688 M 230.53125 121.671875 C 225.570312 120.320312 220.011719 119.503906 214.660156 119.0 C 220.550781 120.304688 225.941406 124.207031 229.765625 126.984375 C 229.953125 126.121094 230.222656 122.988281 230.53125 121.671875 M 161.800781 121.671875 C 162.128906 122.988281 162.398438 126.121094 162.585938 126.984375 C 166.40625 124.207031 171.800781 120.304688 177.691406 119.0 C 172.339844 119.503906 166.761719 120.320312 161.800781 121.671875 M 177.667969 29.769531 C 171.78125 28.464844 166.40625 24.566406 162.585938 21.785156 C 162.398438 22.648438 162.128906 25.777344 161.800781 27.097656 C 166.761719 28.449219 172.339844 29.269531 177.667969 29.769531 M 122.980469 73.757812 C 143.8125 54.5625 144.921875 21.871094 145.003906 21.492188 L 145.417969 19.230469 L 147.277344 21.007812 C 149.695312 23.296875 155.230469 25.042969 159.34375 26.363281 C 160.0625 23.378906 160.414062 19.570312 160.4375 19.492188 L 160.851562 17.230469 L 162.730469 19.007812 C 170.109375 26.027344 184.273438 29.910156 196.257812 30.351562 L 196.09375 30.351562 C 208.078125 29.910156 222.222656 26.027344 229.621094 19.007812 L 231.503906 17.230469 L 231.917969 19.492188 C 231.917969 19.570312 232.265625 23.378906 233.011719 26.363281 C 237.121094 25.042969 242.65625 23.296875 245.054688 21.007812 L 246.9375 19.230469 L 247.351562 21.492188 C 247.433594 21.871094 250.539062 54.5625 271.351562 73.757812 L 272.03125 74.386719 L 271.351562 75.011719 C 250.539062 94.207031 247.433594 126.902344 247.351562 127.28125 L 246.9375 129.539062 L 245.054688 127.765625 C 242.65625 125.472656 237.121094 123.726562 233.011719 122.410156 C 232.265625 125.394531 231.917969 129.199219 231.917969 129.28125 L 231.503906 131.539062 L 229.621094 129.765625 C 222.222656 122.746094 208.078125 118.859375 196.09375 118.421875 L 196.257812 118.421875 C 184.273438 118.859375 170.109375 122.746094 162.730469 129.765625 L 160.851562 131.539062 L 160.4375 129.28125 C 160.414062 129.199219 160.0625 125.394531 159.34375 122.410156 C 155.230469 123.726562 149.695312 125.472656 147.277344 127.765625 L 145.417969 129.539062 L 145.003906 127.28125 C 144.921875 126.902344 143.8125 94.207031 122.980469 75.011719 L 122.300781 74.386719 Z M 135.078125 74.386719 C 150.453125 89.007812 158.203125 107.882812 161.304688 119.707031 C 176.679688 115.609375 192.808594 115.699219 196.195312 115.839844 L 196.15625 115.839844 C 199.542969 115.699219 215.671875 115.609375 231.046875 119.707031 C 234.148438 107.882812 241.898438 89.007812 257.25 74.386719 C 241.898438 59.765625 234.148438 40.890625 231.046875 29.0625 C 215.671875 33.164062 199.542969 33.070312 196.15625 32.914062 L 196.195312 32.914062 C 192.808594 33.070312 176.679688 33.164062 161.304688 29.0625 C 158.203125 40.890625 150.453125 59.765625 135.078125 74.386719 M 141.03125 58.46875 C 144.152344 54.101562 152.03125 40.058594 146.800781 25.292969 C 144.695312 34.324219 143.996094 53.9375 129.367188 70.507812 C 126.597656 74.386719 126.597656 74.386719 129.347656 78.25 C 143.976562 94.800781 144.695312 114.433594 146.800781 123.460938 C 152.03125 108.714844 144.152344 94.652344 141.03125 90.289062 L 139.996094 92.1875 L 139.996094 81.945312 C 137.703125 78.898438 135.183594 77.558594 132.4375 75.011719 L 131.753906 74.386719 L 132.4375 73.757812 C 135.183594 71.210938 137.703125 69.875 139.996094 66.828125 L 139.996094 56.585938 Z M 142.066406 88.449219 C 142.851562 89.484375 146.527344 94.449219 149.253906 101.28125 C 149.253906 101.28125 151.84375 109.765625 151.886719 122.285156 C 153.4375 121.59375 157.085938 120.980469 158.824219 120.429688 C 156.449219 111.449219 151.261719 98.308594 142.066406 84.835938 Z M 142.066406 63.9375 C 151.261719 50.460938 156.449219 37.328125 158.824219 28.339844 C 157.085938 27.792969 153.4375 27.179688 151.886719 26.488281 C 151.863281 32.738281 152.011719 38.382812 150.855469 42.449219 C 149.699219 46.515625 142.851562 59.285156 142.066406 60.304688 Z M 142.066406 63.9375"/>

<path style=" stroke:none;fill-rule:nonzero;fill:rgb(100%,100%,100%);fill-opacity:1;" d="M 326.484375 20.996094 C 326.484375 20.996094 345.394531 20.996094 360.011719 31.007812 C 360.011719 31.007812 358.742188 45.46875 373.203125 51.1875 C 373.203125 51.1875 377.730469 112.679688 326.484375 127.773438 C 275.242188 112.679688 279.769531 51.1875 279.769531 51.1875 C 294.230469 45.46875 292.960938 31.007812 292.960938 31.007812 C 307.578125 20.996094 326.484375 20.996094 326.484375 20.996094"/>
<path style="fill:none;stroke-width:3.0;stroke-linecap:butt;stroke-linejoin:miter;stroke:rgb(4.017639%,3.95813%,4.968262%);stroke-opacity:1;stroke-miterlimit:10;" d="M 326.484375 20.996094 C 326.484375 20.996094 345.394532 20.996094 360.011718 31.007812 C 360.011718 31.007812 358.742188 45.46875 373.203124 51.1875 C 373.203124 51.1875 377.730468 112.679688 326.484375 127.773438 C 275.242188 112.679688 279.769532 51.1875 279.769532 51.1875 C 294.230468 45.46875 292.960938 31.007812 292.960938 31.007812 C 307.578124 20.996094 326.484375 20.996094 326.484375 20.996094 Z M 326.484375 20.996094"/>
<path style="fill:none;stroke-width:1.5;stroke-linecap:butt;stroke-linejoin:miter;stroke:rgb(4.017639%,3.95813%,4.968262%);stroke-opacity:1;stroke-miterlimit:10;" d="M 326.414063 27.988281 C 326.414063 27.988281 342.855468 27.988281 355.566406 36.691406 C 355.566406 36.691406 354.460938 49.265624 367.035156 54.238282 C 367.035156 54.238282 370.972656 107.707032 326.414063 120.832032 C 281.859374 107.707032 285.796874 54.238282 285.796874 54.238282 C 298.371094 49.265624 297.261718 36.691406 297.261718 36.691406 C 309.976562 27.988281 326.414063 27.988281 326.414063 27.988281 Z M 326.414063 27.988281"/>

<path style=" stroke:none;fill-rule:nonzero;fill:rgb(100%,100%,100%);fill-opacity:1;" d="M 95.804688 127.78125 L 95.804688 126.449219 C 95.804688 122.054688 97.257812 117.902344 99.28125 114.207031 L 102.558594 114.207031 L 112.28125 104.480469 L 112.28125 44.257812 L 102.558594 34.53125 L 99.375 34.53125 C 97.296875 30.789062 95.804688 26.570312 95.804688 22.113281 L 95.804688 20.78125 L 27.171875 20.78125 L 27.171875 22.113281 C 27.171875 26.570312 25.675781 30.789062 23.597656 34.53125 L 20.417969 34.53125 L 10.695312 44.257812 L 10.695312 104.480469 L 20.417969 114.207031 L 23.691406 114.207031 C 25.71875 117.902344 27.171875 122.054688 27.171875 126.449219 L 27.171875 127.78125 Z M 95.804688 127.78125"/>
<path style=" stroke:none;fill-rule:nonzero;fill:rgb(4.017639%,3.95813%,4.968262%);fill-opacity:1;" d="M 96.855469 129.433594 L 96.855469 128.0625 C 96.855469 123.535156 98.355469 119.25 100.445312 115.441406 L 103.820312 115.441406 L 113.847656 105.417969 L 113.847656 43.328125 L 103.820312 33.296875 L 100.539062 33.296875 C 98.394531 29.441406 96.855469 25.09375 96.855469 20.5 L 96.855469 19.125 L 26.105469 19.125 L 26.105469 20.5 C 26.105469 25.09375 24.5625 29.441406 22.421875 33.296875 L 19.140625 33.296875 L 9.117188 43.328125 L 9.117188 105.417969 L 19.140625 115.441406 L 22.515625 115.441406 C 24.605469 119.25 26.105469 123.535156 26.105469 128.0625 L 26.105469 129.433594 Z M 51.171875 27.523438 C 52.347656 27.523438 53.300781 26.574219 53.300781 25.398438 C 53.300781 25.300781 53.257812 25.21875 53.246094 25.128906 C 56.078125 23.9375 58.957031 22.851562 61.886719 21.875 L 61.074219 21.875 C 64.0 22.847656 66.875 23.933594 69.703125 25.121094 C 69.6875 25.214844 69.644531 25.300781 69.644531 25.398438 C 69.644531 26.574219 70.597656 27.523438 71.773438 27.523438 C 72.433594 27.523438 72.996094 27.207031 73.386719 26.738281 C 75.570312 27.742188 77.707031 28.824219 79.820312 29.957031 L 43.136719 29.957031 C 45.25 28.828125 47.382812 27.75 49.5625 26.746094 C 49.953125 27.210938 50.515625 27.523438 51.171875 27.523438 M 35.050781 33.296875 L 28.640625 33.296875 C 30.347656 30.691406 34.878906 26.0 45.480469 26.0 L 48.339844 26.0 C 43.75 28.148438 39.316406 30.589844 35.050781 33.296875 M 40.949219 31.15625 L 82.007812 31.15625 C 83.238281 31.847656 84.453125 32.5625 85.65625 33.296875 L 37.304688 33.296875 C 38.503906 32.5625 39.722656 31.847656 40.949219 31.15625 M 87.90625 33.296875 C 83.640625 30.589844 79.207031 28.148438 74.617188 26.0 L 77.675781 26.0 C 88.277344 26.0 92.808594 30.691406 94.511719 33.296875 Z M 97.378906 33.296875 L 95.921875 33.296875 C 94.832031 31.386719 92.109375 27.847656 86.21875 26.0 L 94.761719 26.0 C 95.332031 28.566406 96.238281 31.015625 97.378906 33.296875 M 94.144531 21.875 C 94.199219 22.863281 94.320312 23.839844 94.488281 24.796875 L 73.777344 24.796875 C 73.515625 23.925781 72.738281 23.269531 71.773438 23.269531 C 71.128906 23.269531 70.574219 23.574219 70.179688 24.023438 C 68.375 23.261719 66.550781 22.546875 64.703125 21.875 Z M 58.253906 21.875 C 56.40625 22.546875 54.578125 23.265625 52.765625 24.027344 C 52.378906 23.574219 51.820312 23.269531 51.171875 23.269531 C 50.210938 23.269531 49.429688 23.925781 49.167969 24.796875 L 28.472656 24.796875 C 28.640625 23.839844 28.757812 22.863281 28.8125 21.875 Z M 28.199219 26.0 L 36.9375 26.0 C 31.046875 27.847656 28.324219 31.386719 27.234375 33.296875 L 25.578125 33.296875 C 26.722656 31.015625 27.628906 28.566406 28.199219 26.0 M 11.867188 44.464844 L 20.285156 36.046875 L 25.699219 36.046875 C 21.121094 37.972656 17.867188 41.105469 15.554688 44.5625 L 15.464844 44.5625 L 15.464844 44.703125 C 13.839844 47.167969 12.683594 49.769531 11.867188 52.214844 Z M 11.867188 56.757812 C 12.46875 53.925781 13.546875 50.398438 15.464844 47.011719 L 15.464844 101.757812 C 15.128906 101.164062 14.777344 100.601562 14.472656 99.960938 C 13.160156 97.191406 12.359375 94.410156 11.867188 92.082031 Z M 20.285156 112.691406 L 11.867188 104.277344 L 11.867188 96.523438 C 12.683594 98.96875 13.839844 101.574219 15.464844 104.035156 L 15.464844 104.179688 L 15.554688 104.179688 C 17.867188 107.632812 21.121094 110.765625 25.699219 112.691406 Z M 71.785156 121.035156 C 70.609375 121.035156 69.660156 121.988281 69.660156 123.160156 C 69.660156 123.257812 69.699219 123.339844 69.710938 123.429688 C 66.882812 124.621094 64.0 125.707031 61.070312 126.683594 L 61.882812 126.683594 C 58.957031 125.710938 56.082031 124.625 53.253906 123.4375 C 53.269531 123.34375 53.3125 123.257812 53.3125 123.160156 C 53.3125 121.988281 52.359375 121.035156 51.183594 121.035156 C 50.523438 121.035156 49.960938 121.351562 49.570312 121.820312 C 47.386719 120.820312 45.25 119.738281 43.136719 118.601562 L 79.820312 118.601562 C 77.710938 119.734375 75.574219 120.8125 73.394531 121.816406 C 73.003906 121.347656 72.441406 121.035156 71.785156 121.035156 M 87.621094 115.441406 L 94.195312 115.441406 C 92.402344 118.078125 87.847656 122.5625 77.476562 122.5625 L 74.617188 122.5625 C 79.105469 120.457031 83.445312 118.078125 87.621094 115.441406 M 82.007812 117.40625 L 40.949219 117.40625 C 39.820312 116.765625 38.695312 116.117188 37.585938 115.441406 L 85.367188 115.441406 C 84.261719 116.117188 83.136719 116.765625 82.007812 117.40625 M 35.335938 115.441406 C 39.511719 118.078125 43.851562 120.457031 48.339844 122.5625 L 45.285156 122.5625 C 34.917969 122.5625 30.363281 118.078125 28.570312 115.441406 Z M 25.675781 115.441406 L 27.144531 115.441406 C 28.296875 117.386719 31.03125 120.765625 36.742188 122.5625 L 28.199219 122.5625 C 27.640625 120.066406 26.78125 117.671875 25.675781 115.441406 M 28.8125 126.683594 C 28.757812 125.695312 28.640625 124.71875 28.472656 123.761719 L 49.179688 123.761719 C 49.441406 124.636719 50.222656 125.289062 51.183594 125.289062 C 51.832031 125.289062 52.386719 124.988281 52.777344 124.535156 C 54.582031 125.296875 56.410156 126.011719 58.253906 126.683594 Z M 64.703125 126.683594 C 66.554688 126.011719 68.382812 125.292969 70.191406 124.53125 C 70.578125 124.988281 71.136719 125.289062 71.785156 125.289062 C 72.746094 125.289062 73.527344 124.636719 73.789062 123.761719 L 94.488281 123.761719 C 94.320312 124.71875 94.199219 125.695312 94.144531 126.683594 Z M 94.761719 122.5625 L 86.023438 122.5625 C 91.738281 120.765625 94.464844 117.386719 95.617188 115.441406 L 97.285156 115.441406 C 96.179688 117.671875 95.320312 120.066406 94.761719 122.5625 M 29.519531 112.691406 C 24.292969 111.425781 20.109375 108.546875 16.964844 104.132812 L 16.964844 44.65625 C 19.699219 40.824219 23.703125 37.496094 29.570312 36.046875 L 93.441406 36.046875 C 98.667969 37.316406 102.855469 40.191406 105.996094 44.605469 L 105.996094 104.085938 C 103.265625 107.917969 99.257812 111.246094 93.390625 112.691406 Z M 111.097656 104.277344 L 102.679688 112.691406 L 97.265625 112.691406 C 101.839844 110.765625 105.097656 107.632812 107.40625 104.179688 L 107.496094 104.179688 L 107.496094 104.035156 C 109.121094 101.574219 110.28125 98.96875 111.097656 96.523438 Z M 111.097656 91.984375 C 110.488281 94.820312 109.410156 98.34375 107.496094 101.730469 L 107.496094 46.984375 C 107.832031 47.578125 108.1875 48.136719 108.488281 48.777344 C 109.796875 51.546875 110.605469 54.332031 111.097656 56.660156 Z M 111.097656 52.214844 C 110.28125 49.769531 109.121094 47.167969 107.496094 44.703125 L 107.496094 44.5625 L 107.40625 44.5625 C 105.097656 41.105469 101.839844 37.972656 97.265625 36.046875 L 102.679688 36.046875 L 111.097656 44.464844 Z M 111.097656 52.214844"/>

<path style="fill-rule:nonzero;fill:rgb(100%,100%,100%);fill-opacity:1;stroke-width:2.4;stroke-linecap:butt;stroke-linejoin:miter;stroke:rgb(4.017639%,3.95813%,4.968262%);stroke-opacity:1;stroke-miterlimit:10;" d="M 123.972656 376.582031 C 126.222656 376.582031 132.585938 381.796874 132.585938 384.109374 L 251.007812 384.109374 C 251.007812 381.796874 257.371094 376.582031 259.617188 376.582031 L 259.617188 268.464844 C 257.371094 268.464844 251.007812 263.25 251.007812 260.941406 L 132.585938 260.941406 C 132.585938 263.25 126.21875 268.464844 123.972656 268.464844 Z M 123.972656 376.582031"/>
<path style="fill:none;stroke-width:1.5;stroke-linecap:butt;stroke-linejoin:miter;stroke:rgb(4.017639%,3.95813%,4.968262%);stroke-opacity:1;stroke-miterlimit:10;" d="M 259.621094 363.339844 C 256.355468 373.796874 245.421874 383.8125 238.339844 384.109374"/>
<path style="fill:none;stroke-width:1.5;stroke-linecap:butt;stroke-linejoin:miter;stroke:rgb(4.017639%,3.95813%,4.968262%);stroke-opacity:1;stroke-miterlimit:10;" d="M 123.972656 363.339844 C 127.238282 373.796874 138.167968 383.8125 145.25 384.109374"/>
<path style="fill:none;stroke-width:1.5;stroke-linecap:butt;stroke-linejoin:miter;stroke:rgb(4.017639%,3.95813%,4.968262%);stroke-opacity:1;stroke-miterlimit:10;" d="M 259.617187 281.707031 C 256.355468 271.253906 245.421874 261.238282 238.339844 260.941406"/>
<path style="fill:none;stroke-width:1.5;stroke-linecap:butt;stroke-linejoin:miter;stroke:rgb(4.017639%,3.95813%,4.968262%);stroke-opacity:1;stroke-miterlimit:10;" d="M 123.972656 281.707031 C 127.234376 271.253906 138.167968 261.238282 145.25 260.941406"/>

<path style="fill-rule:nonzero;fill:rgb(100%,100%,100%);fill-opacity:1;stroke-width:2.4;stroke-linecap:butt;stroke-linejoin:miter;stroke:rgb(4.017639%,3.95813%,4.968262%);stroke-opacity:1;stroke-miterlimit:10;" d="M 270.96875 376.582031 C 273.21875 376.582031 279.582032 381.796874 279.582032 384.109374 L 364.683594 384.109374 C 364.683594 381.796874 371.046876 376.582031 373.292968 376.582031 L 373.292968 268.464844 C 371.046876 268.464844 364.683594 263.25 364.683594 260.941406 L 279.582032 260.941406 C 279.582032 263.25 273.214844 268.464844 270.96875 268.464844 Z M 270.96875 376.582031"/>
<path style="fill:none;stroke-width:1.5;stroke-linecap:butt;stroke-linejoin:miter;stroke:rgb(4.017639%,3.95813%,4.968262%);stroke-opacity:1;stroke-miterlimit:10;" d="M 373.296875 363.339844 C 370.03125 373.796874 359.097656 383.8125 352.019532 384.109374"/>
<path style="fill:none;stroke-width:1.5;stroke-linecap:butt;stroke-linejoin:miter;stroke:rgb(4.017639%,3.95813%,4.968262%);stroke-opacity:1;stroke-miterlimit:10;" d="M 270.96875 363.339844 C 274.234376 373.796874 285.164062 383.8125 292.246094 384.109374"/>
<path style="fill:none;stroke-width:1.5;stroke-linecap:butt;stroke-linejoin:miter;stroke:rgb(4.017639%,3.95813%,4.968262%);stroke-opacity:1;stroke-miterlimit:10;" d="M 373.292969 281.707031 C 370.03125 271.253906 359.097656 261.238282 352.015624 260.941406"/>
<path style="fill:none;stroke-width:1.5;stroke-linecap:butt;stroke-linejoin:miter;stroke:rgb(4.017639%,3.95813%,4.968262%);stroke-opacity:1;stroke-miterlimit:10;" d="M 270.96875 281.707031 C 274.230468 271.253906 285.164062 261.238282 292.246094 260.941406"/>

<path style="fill-rule:nonzero;fill:rgb(100%,100%,100%);fill-opacity:1;stroke-width:2.4;stroke-linecap:butt;stroke-linejoin:miter;stroke:rgb(4.017639%,3.95813%,4.968262%);stroke-opacity:1;stroke-miterlimit:10;" d="M 270.96875 237.015625 C 273.21875 237.015625 279.582032 242.230468 279.582032 244.542968 L 364.683594 244.542968 C 364.683594 242.230468 371.046876 237.015625 373.292968 237.015625 L 373.292968 152.160156 C 371.046876 152.160156 364.683594 146.945312 364.683594 144.636718 L 279.582032 144.636718 C 279.582032 146.945312 273.214844 152.160156 270.96875 152.160156 Z M 270.96875 237.015625"/>
<path style="fill:none;stroke-width:1.5;stroke-linecap:butt;stroke-linejoin:miter;stroke:rgb(4.017639%,3.95813%,4.968262%);stroke-opacity:1;stroke-miterlimit:10;" d="M 373.296875 223.773437 C 370.03125 234.230468 359.097656 244.246094 352.019532 244.542968"/>
<path style="fill:none;stroke-width:1.5;stroke-linecap:butt;stroke-linejoin:miter;stroke:rgb(4.017639%,3.95813%,4.968262%);stroke-opacity:1;stroke-miterlimit:10;" d="M 270.96875 223.773437 C 274.234376 234.230468 285.164062 244.246094 292.246094 244.542968"/>
<path style="fill:none;stroke-width:1.5;stroke-linecap:butt;stroke-linejoin:miter;stroke:rgb(4.017639%,3.95813%,4.968262%);stroke-opacity:1;stroke-miterlimit:10;" d="M 373.292969 165.402344 C 370.03125 154.949218 359.097656 144.933594 352.015624 144.636718"/>
<path style="fill:none;stroke-width:1.5;stroke-linecap:butt;stroke-linejoin:miter;stroke:rgb(4.017639%,3.95813%,4.968262%);stroke-opacity:1;stroke-miterlimit:10;" d="M 270.96875 165.402344 C 274.230468 154.949218 285.164062 144.933594 292.246094 144.636718"/>

<path style="fill-rule:nonzero;fill:rgb(100%,100%,100%);fill-opacity:1;stroke-width:2.4;stroke-linecap:butt;stroke-linejoin:miter;stroke:rgb(4.017639%,3.95813%,4.968262%);stroke-opacity:1;stroke-miterlimit:10;" d="M 10.3125 237.015625 C 12.5625 237.015625 18.925782 242.230468 18.925782 244.542968 L 251.007812 244.542968 C 251.007812 242.230468 257.371094 237.015625 259.617188 237.015625 L 259.617188 152.160156 C 257.371094 152.160156 251.007812 146.945312 251.007812 144.636718 L 18.925782 144.636718 C 18.925782 146.945312 12.558594 152.160156 10.3125 152.160156 Z M 10.3125 237.015625"/>
<path style="fill:none;stroke-width:1.5;stroke-linecap:butt;stroke-linejoin:miter;stroke:rgb(4.017639%,3.95813%,4.968262%);stroke-opacity:1;stroke-miterlimit:10;" d="M 259.621094 223.773437 C 256.355468 234.230468 245.421874 244.246094 238.339844 244.542968"/>
<path style="fill:none;stroke-width:1.5;stroke-linecap:butt;stroke-linejoin:miter;stroke:rgb(4.017639%,3.95813%,4.968262%);stroke-opacity:1;stroke-miterlimit:10;" d="M 10.3125 223.773437 C 13.578124 234.230468 24.507812 244.246094 31.589844 244.542968"/>
<path style="fill:none;stroke-width:1.5;stroke-linecap:butt;stroke-linejoin:miter;stroke:rgb(4.017639%,3.95813%,4.968262%);stroke-opacity:1;stroke-miterlimit:10;" d="M 259.617187 165.402344 C 256.355468 154.949218 245.421874 144.933594 238.339844 144.636718"/>
<path style="fill:none;stroke-width:1.5;stroke-linecap:butt;stroke-linejoin:miter;stroke:rgb(4.017639%,3.95813%,4.968262%);stroke-opacity:1;stroke-miterlimit:10;" d="M 10.3125 165.402344 C 13.574218 154.949218 24.507812 144.933594 31.589844 144.636718"/>

<path style=" stroke:none;fill-rule:nonzero;fill:rgb(87.059021%,86.824036%,86.882019%);fill-opacity:1;" d="M 20.753906 1.238281 L 362.851562 1.238281 C 365.910156 2.207031 368.863281 3.804688 371.527344 5.738281 L 12.078125 5.738281 C 14.742188 3.804688 17.695312 2.207031 20.753906 1.238281"/>
<path style=" stroke:none;fill-rule:nonzero;fill:rgb(87.059021%,86.824036%,86.882019%);fill-opacity:1;" d="M 362.851562 401.355469 L 20.75 401.359375 C 17.691406 400.386719 14.738281 398.789062 12.074219 396.855469 L 371.523438 396.855469 C 368.859375 398.789062 365.910156 400.386719 362.851562 401.355469"/>

<path style="fill:none;stroke-width:1.0;stroke-linecap:butt;stroke-linejoin:miter;stroke:rgb(4.017639%,3.95813%,4.968262%);stroke-opacity:1;stroke-miterlimit:10;" d="M 16.308594 270.984375 L 16.308594 374.0625"/>
<path style="fill:none;stroke-width:1.0;stroke-linecap:butt;stroke-linejoin:miter;stroke:rgb(4.017639%,3.95813%,4.968262%);stroke-opacity:1;stroke-miterlimit:10;" d="M 16.3125 154.679688 L 16.3125 234.496094"/>
<path style="fill:none;stroke-width:1.0;stroke-linecap:butt;stroke-linejoin:miter;stroke:rgb(4.017639%,3.95813%,4.968262%);stroke-opacity:1;stroke-miterlimit:10;" d="M 106.632812 270.984375 L 106.632812 374.0625"/>
<path style="fill:none;stroke-width:1.0;stroke-linecap:butt;stroke-linejoin:miter;stroke:rgb(4.017639%,3.95813%,4.968262%);stroke-opacity:1;stroke-miterlimit:10;" d="M 129.972656 270.984375 L 129.972656 374.0625"/>
<path style="fill:none;stroke-width:1.0;stroke-linecap:butt;stroke-linejoin:miter;stroke:rgb(4.017639%,3.95813%,4.968262%);stroke-opacity:1;stroke-miterlimit:10;" d="M 253.617187 154.679688 L 253.617187 234.496094"/>
<path style="fill:none;stroke-width:1.0;stroke-linecap:butt;stroke-linejoin:miter;stroke:rgb(4.017639%,3.95813%,4.968262%);stroke-opacity:1;stroke-miterlimit:10;" d="M 253.617187 270.984375 L 253.617187 374.0625"/>
<path style="fill:none;stroke-width:1.0;stroke-linecap:butt;stroke-linejoin:miter;stroke:rgb(4.017639%,3.95813%,4.968262%);stroke-opacity:1;stroke-miterlimit:10;" d="M 276.96875 154.679688 L 276.96875 234.496094"/>
<path style="fill:none;stroke-width:1.0;stroke-linecap:butt;stroke-linejoin:miter;stroke:rgb(4.017639%,3.95813%,4.968262%);stroke-opacity:1;stroke-miterlimit:10;" d="M 276.96875 270.984375 L 276.96875 374.0625"/>
<path style="fill:none;stroke-width:1.0;stroke-linecap:butt;stroke-linejoin:miter;stroke:rgb(4.017639%,3.95813%,4.968262%);stroke-opacity:1;stroke-miterlimit:10;" d="M 367.292969 154.679688 L 367.292969 234.496094"/>
<path style="fill:none;stroke-width:1.0;stroke-linecap:butt;stroke-linejoin:miter;stroke:rgb(4.017639%,3.95813%,4.968262%);stroke-opacity:1;stroke-miterlimit:10;" d="M 367.292969 270.984375 L 367.292969 374.0625"/>


<g id="max_hit_points_partial" fill="none" stroke="rgb(4.017639%,3.95813%,4.968262%)">
	<path
		id="frame"
		stroke-width="2.4"
		d="M 10.5 43.9 L 19.7 34.7 L 103.3 34.7 L 112.5 43.9 L 112.5 104.9 L 103.3 114.1 L 19.7 114.1 L 10.5 104.9 Z"
	/>
	<g id="corner_curvelets" stroke-width="1.2">
		<path d="M  10.5 64   C  10.5  52.6  16.5  34.7 36  34.7"/>
		<path d="M  10.5 84.8 C  10.5  96.2  16.5 114.1 36 114.1"/>
		<path d="M 112.5 64   C 112.5  52.6 106.5  34.7 87  34.7"/>
		<path d="M 112.5 84.8 C 112.5  96.2 106.5 114.1 87 114.1"/>
	</g>
	<g id="side_lines" stroke-width="1.2">
		<path d="M  16.3 44.5 L  16.3 104.2"/>
		<path d="M 106.7 44.5 L 106.7 104.2"/>
	</g>
</g>

</svg>
