<?xml version="1.0" encoding="UTF-8"?>
<svg xmlns="http://www.w3.org/2000/svg" width="120pt" height="150pt" viewBox="0 0 120 150" version="1.2">


<path fill="white" d="M 0 0 L 120 0 L 120 150 L 0 150 Z"/>

<path fill="rgb(4.017639%,3.95813%,4.968262%)" d="M 96.855469 129.433594 L 96.855469 128.0625 C 96.855469 123.535156 98.355469 119.25 100.445312 115.441406 L 103.820312 115.441406 L 113.847656 105.417969 L 113.847656 43.328125 L 103.820312 33.296875 L 100.539062 33.296875 C 98.394531 29.441406 96.855469 25.09375 96.855469 20.5 L 96.855469 19.125 L 26.105469 19.125 L 26.105469 20.5 C 26.105469 25.09375 24.5625 29.441406 22.421875 33.296875 L 19.140625 33.296875 L 9.117188 43.328125 L 9.117188 105.417969 L 19.140625 115.441406 L 22.515625 115.441406 C 24.605469 119.25 26.105469 123.535156 26.105469 128.0625 L 26.105469 129.433594 Z M 51.171875 27.523438 C 52.347656 27.523438 53.300781 26.574219 53.300781 25.398438 C 53.300781 25.300781 53.257812 25.21875 53.246094 25.128906 C 56.078125 23.9375 58.957031 22.851562 61.886719 21.875 L 61.074219 21.875 C 64.0 22.847656 66.875 23.933594 69.703125 25.121094 C 69.6875 25.214844 69.644531 25.300781 69.644531 25.398438 C 69.644531 26.574219 70.597656 27.523438 71.773438 27.523438 C 72.433594 27.523438 72.996094 27.207031 73.386719 26.738281 C 75.570312 27.742188 77.707031 28.824219 79.820312 29.957031 L 43.136719 29.957031 C 45.25 28.828125 47.382812 27.75 49.5625 26.746094 C 49.953125 27.210938 50.515625 27.523438 51.171875 27.523438 M 35.050781 33.296875 L 28.640625 33.296875 C 30.347656 30.691406 34.878906 26.0 45.480469 26.0 L 48.339844 26.0 C 43.75 28.148438 39.316406 30.589844 35.050781 33.296875 M 40.949219 31.15625 L 82.007812 31.15625 C 83.238281 31.847656 84.453125 32.5625 85.65625 33.296875 L 37.304688 33.296875 C 38.503906 32.5625 39.722656 31.847656 40.949219 31.15625 M 87.90625 33.296875 C 83.640625 30.589844 79.207031 28.148438 74.617188 26.0 L 77.675781 26.0 C 88.277344 26.0 92.808594 30.691406 94.511719 33.296875 Z M 97.378906 33.296875 L 95.921875 33.296875 C 94.832031 31.386719 92.109375 27.847656 86.21875 26.0 L 94.761719 26.0 C 95.332031 28.566406 96.238281 31.015625 97.378906 33.296875 M 94.144531 21.875 C 94.199219 22.863281 94.320312 23.839844 94.488281 24.796875 L 73.777344 24.796875 C 73.515625 23.925781 72.738281 23.269531 71.773438 23.269531 C 71.128906 23.269531 70.574219 23.574219 70.179688 24.023438 C 68.375 23.261719 66.550781 22.546875 64.703125 21.875 Z M 58.253906 21.875 C 56.40625 22.546875 54.578125 23.265625 52.765625 24.027344 C 52.378906 23.574219 51.820312 23.269531 51.171875 23.269531 C 50.210938 23.269531 49.429688 23.925781 49.167969 24.796875 L 28.472656 24.796875 C 28.640625 23.839844 28.757812 22.863281 28.8125 21.875 Z M 28.199219 26.0 L 36.9375 26.0 C 31.046875 27.847656 28.324219 31.386719 27.234375 33.296875 L 25.578125 33.296875 C 26.722656 31.015625 27.628906 28.566406 28.199219 26.0 M 11.867188 44.464844 L 20.285156 36.046875 L 25.699219 36.046875 C 21.121094 37.972656 17.867188 41.105469 15.554688 44.5625 L 15.464844 44.5625 L 15.464844 44.703125 C 13.839844 47.167969 12.683594 49.769531 11.867188 52.214844 Z M 11.867188 56.757812 C 12.46875 53.925781 13.546875 50.398438 15.464844 47.011719 L 15.464844 101.757812 C 15.128906 101.164062 14.777344 100.601562 14.472656 99.960938 C 13.160156 97.191406 12.359375 94.410156 11.867188 92.082031 Z M 20.285156 112.691406 L 11.867188 104.277344 L 11.867188 96.523438 C 12.683594 98.96875 13.839844 101.574219 15.464844 104.035156 L 15.464844 104.179688 L 15.554688 104.179688 C 17.867188 107.632812 21.121094 110.765625 25.699219 112.691406 Z M 71.785156 121.035156 C 70.609375 121.035156 69.660156 121.988281 69.660156 123.160156 C 69.660156 123.257812 69.699219 123.339844 69.710938 123.429688 C 66.882812 124.621094 64.0 125.707031 61.070312 126.683594 L 61.882812 126.683594 C 58.957031 125.710938 56.082031 124.625 53.253906 123.4375 C 53.269531 123.34375 53.3125 123.257812 53.3125 123.160156 C 53.3125 121.988281 52.359375 121.035156 51.183594 121.035156 C 50.523438 121.035156 49.960938 121.351562 49.570312 121.820312 C 47.386719 120.820312 45.25 119.738281 43.136719 118.601562 L 79.820312 118.601562 C 77.710938 119.734375 75.574219 120.8125 73.394531 121.816406 C 73.003906 121.347656 72.441406 121.035156 71.785156 121.035156 M 87.621094 115.441406 L 94.195312 115.441406 C 92.402344 118.078125 87.847656 122.5625 77.476562 122.5625 L 74.617188 122.5625 C 79.105469 120.457031 83.445312 118.078125 87.621094 115.441406 M 82.007812 117.40625 L 40.949219 117.40625 C 39.820312 116.765625 38.695312 116.117188 37.585938 115.441406 L 85.367188 115.441406 C 84.261719 116.117188 83.136719 116.765625 82.007812 117.40625 M 35.335938 115.441406 C 39.511719 118.078125 43.851562 120.457031 48.339844 122.5625 L 45.285156 122.5625 C 34.917969 122.5625 30.363281 118.078125 28.570312 115.441406 Z M 25.675781 115.441406 L 27.144531 115.441406 C 28.296875 117.386719 31.03125 120.765625 36.742188 122.5625 L 28.199219 122.5625 C 27.640625 120.066406 26.78125 117.671875 25.675781 115.441406 M 28.8125 126.683594 C 28.757812 125.695312 28.640625 124.71875 28.472656 123.761719 L 49.179688 123.761719 C 49.441406 124.636719 50.222656 125.289062 51.183594 125.289062 C 51.832031 125.289062 52.386719 124.988281 52.777344 124.535156 C 54.582031 125.296875 56.410156 126.011719 58.253906 126.683594 Z M 64.703125 126.683594 C 66.554688 126.011719 68.382812 125.292969 70.191406 124.53125 C 70.578125 124.988281 71.136719 125.289062 71.785156 125.289062 C 72.746094 125.289062 73.527344 124.636719 73.789062 123.761719 L 94.488281 123.761719 C 94.320312 124.71875 94.199219 125.695312 94.144531 126.683594 Z M 94.761719 122.5625 L 86.023438 122.5625 C 91.738281 120.765625 94.464844 117.386719 95.617188 115.441406 L 97.285156 115.441406 C 96.179688 117.671875 95.320312 120.066406 94.761719 122.5625 M 29.519531 112.691406 C 24.292969 111.425781 20.109375 108.546875 16.964844 104.132812 L 16.964844 44.65625 C 19.699219 40.824219 23.703125 37.496094 29.570312 36.046875 L 93.441406 36.046875 C 98.667969 37.316406 102.855469 40.191406 105.996094 44.605469 L 105.996094 104.085938 C 103.265625 107.917969 99.257812 111.246094 93.390625 112.691406 Z M 111.097656 104.277344 L 102.679688 112.691406 L 97.265625 112.691406 C 101.839844 110.765625 105.097656 107.632812 107.40625 104.179688 L 107.496094 104.179688 L 107.496094 104.035156 C 109.121094 101.574219 110.28125 98.96875 111.097656 96.523438 Z M 111.097656 91.984375 C 110.488281 94.820312 109.410156 98.34375 107.496094 101.730469 L 107.496094 46.984375 C 107.832031 47.578125 108.1875 48.136719 108.488281 48.777344 C 109.796875 51.546875 110.605469 54.332031 111.097656 56.660156 Z M 111.097656 52.214844 C 110.28125 49.769531 109.121094 47.167969 107.496094 44.703125 L 107.496094 44.5625 L 107.40625 44.5625 C 105.097656 41.105469 101.839844 37.972656 97.265625 36.046875 L 102.679688 36.046875 L 111.097656 44.464844 Z M 111.097656 52.214844"/>

<path
	fill="none"
	stroke="none"
	stroke-width="2.4"
	stroke-dasharray="0.5 0.5"
	d="M 10.5 43.9 L 19.7 34.7 L 103.3 34.7 L 112.5 43.9 L 112.5 104.9 L 103.3 114.1 L 19.7 114.1 L 10.5 104.9 Z"
/>
<g id="corner_curvelets" fill="none" stroke-width="1.2" stroke="green" stroke-miterlimit="10" stroke-dasharray="0.5 0.5">
	<path d="M  11.1  55.9 C  11.1  47.3  22.7  35.3  31.1  35.3"/>
	<path d="M  11.1 130   C  11.1 138.4  22.7 150    31.1 150"/>
	<path d="M 120.0  55.9 C 120.0  47.3 108.4  35.3 100.0  35.3"/>
	<path d="M 120.0 130   C 120.0 138.4 108.4 150   100.0 150"/>
</g>






</svg>
