<?xml version="1.0" encoding="UTF-8"?>
<svg xmlns="http://www.w3.org/2000/svg" xmlns:xlink="http://www.w3.org/1999/xlink" width="455pt" height="504pt" viewBox="0 0 455 504" version="1.2" stroke-miterlimit="10">

<g id="grey_background" fill="rgb(87.059021%,86.824036%,86.882019%)">
	<path d="M 454.59375 494.617188 C 451.964844 495.492188 447.902344 500.386719 447.179688 503.09375 L 438.457031 503.09375 C 445.296875 499.796875 451.765625 493.558594 454.59375 487.777344 Z"/>
	<path d="M 454.59375 9.640625 L 454.59375 16.480469 C 451.765625 10.699219 445.300781 4.464844 438.460938 1.164062 L 447.183594 1.164062 C 447.90625 3.871094 451.964844 8.765625 454.59375 9.640625"/>
	<path d="M 0.449219 9.644531 C 3.078125 8.765625 7.136719 3.875 7.859375 1.167969 L 16.582031 1.167969 C 9.742188 4.464844 3.277344 10.699219 0.449219 16.480469 Z"/>
	<path d="M 0.449219 494.617188 L 0.449219 487.78125 C 3.277344 493.558594 9.742188 499.796875 16.582031 503.09375 L 7.859375 503.09375 C 7.136719 500.386719 3.078125 495.496094 0.449219 494.617188"/>
	<path d="M 0.449219 21.726562 C 0.621094 17.589844 4.480469 11.738281 9.980469 7.167969 L 445.0625 7.167969 C 450.5625 11.738281 454.421875 17.589844 454.59375 21.726562 L 454.59375 482.535156 C 454.421875 486.667969 450.558594 492.519531 445.058594 497.09375 L 9.980469 497.09375 C 4.480469 492.519531 0.621094 486.667969 0.449219 482.535156 Z"/>
	<path d="M 20.59375 1.167969 L 434.449219 1.164062 C 437.507812 2.136719 440.460938 3.734375 443.125 5.667969 L 11.921875 5.667969 C 14.585938 3.734375 17.535156 2.136719 20.59375 1.167969"/>
	<path d="M 434.449219 503.09375 L 20.59375 503.09375 C 17.535156 502.125 14.582031 500.523438 11.917969 498.59375 L 443.121094 498.59375 C 440.457031 500.523438 437.503906 502.125 434.449219 503.09375"/>
</g>
<g id="white_fields" fill="white" stroke-width="2" stroke="rgb(4.017639%,3.95813%,4.968262%)">
	<path d="M 16.507812 158.171875 L 19.738282 158.171875 C 19.738282 164.410156 39.230468 164.410156 39.230468 158.171875 L 415.8125 158.171875 C 415.8125 164.410156 435.300782 164.410156 435.300782 158.171875 L 438.535156 158.171875 L 438.535156 258.160156 L 435.300782 258.160156 C 435.300782 251.917968 415.8125 251.917968 415.8125 258.160156 L 39.230468 258.160156 C 39.230468 251.917968 19.738282 251.917968 19.738282 258.160156 L 16.507812 258.160156 Z"/>
	<path d="M 16.507812 272.15625 L 19.738282 272.15625 C 19.738282 278.394532 39.230468 278.394532 39.230468 272.15625 L 415.8125 272.15625 C 415.8125 278.394532 435.300782 278.394532 435.300782 272.15625 L 438.535156 272.15625 L 438.535156 372.144532 L 435.300782 372.144532 C 435.300782 365.90625 415.8125 365.90625 415.8125 372.144532 L 39.230468 372.144532 C 39.230468 365.90625 19.738282 365.90625 19.738282 372.144532 L 16.507812 372.144532 Z"/>
	<path d="M 39.230469 144.167969 C 39.230469 137.929688 19.738282 137.929688 19.738282 144.167969 L 16.507812 144.167969 L 16.507812 29.691406 C 18.757812 29.691406 25.121094 24.480468 25.121094 22.164062 L 429.921876 22.164062 C 429.921876 24.480468 436.285156 29.691406 438.53125 29.691406 L 438.535156 144.167969 L 435.304688 144.167969 C 435.304688 137.929688 415.8125 137.929688 415.8125 144.167969 Z"/>
	<path d="M 415.8125 386.148438 C 415.8125 392.386718 435.304688 392.386718 435.304688 386.148438 L 438.535156 386.148438 L 438.53125 478.566406 C 436.285156 478.566406 429.921876 483.78125 429.921876 486.09375 L 25.121094 486.09375 C 25.121094 483.78125 18.757812 478.566406 16.507812 478.566406 L 16.507812 386.148438 L 19.738282 386.148438 C 19.738282 392.386718 39.230468 392.386718 39.230468 386.148438 Z"/>
</g>
<g id="black_details" fill="none" stroke="rgb(4.017639%,3.95813%,4.968262%)">
	<path d="M 438.53125 42.933594 C 435.269532 32.480468 424.335938 22.464844 417.253906 22.167968"/>
	<path d="M 16.507813 42.933594 C 19.773438 32.480468 30.703124 22.464844 37.785156 22.167968"/>
	<path d="M 16.507813 465.324219 C 19.773438 475.777344 30.703124 485.796874 37.785156 486.09375"/>
	<path d="M 438.53125 465.324219 C 435.269532 475.777344 424.335938 485.796874 417.253906 486.09375"/>

	<path d="M 20.507813 34.699219 L 20.507813 69.492188 C 20.507813 132.742188 16.507812 118.054688 16.507812 144.167968"/>
	<path d="M 20.507813 473.5625 L 20.507813 460.828126 C 20.507813 397.578126 16.507812 412.261718 16.507812 386.148438"/>
	<path d="M 16.507812 158.171875 C 16.507812 184.285156 20.511718 186.34375 20.511718 207.621094 C 20.511718 230.414062 16.507812 232.042968 16.507812 258.160156"/>
	<path d="M 16.507812 272.15625 C 16.507812 298.273438 20.511718 300.332032 20.511718 321.605468 C 20.511718 344.402344 16.507812 346.03125 16.507812 372.144532"/>

	<path d="M 437.535156 158.171875 C 437.535156 184.285156 434.535156 185.34375 434.535156 207.621094 C 434.535156 232.574218 437.535156 232.042968 437.535156 258.160156"/>
	<path d="M 437.535156 272.15625 C 437.535156 298.273438 434.535156 299.332032 434.535156 321.605468 C 434.535156 346.558594 437.535156 346.03125 437.535156 372.144532"/>
	<path d="M 434.53125 34.699219 L 434.53125 69.492188 C 434.53125 132.742188 438.535156 118.054688 438.535156 144.167968"/>
	<path d="M 434.53125 473.5625 L 434.53125 460.828126 C 434.53125 397.578126 438.535156 412.261718 438.535156 386.148438"/>
</g>
<g id="white_lines" fill="none" stroke="rgb(69.805908%,69.256592%,69.392395%)">
	<path d="M 28.44531  47.16797 L 426.59766  47.16797"/>
	<path d="M 28.44531  69.16797 L 426.59766  69.16797"/>
	<path d="M 28.44531  91.16797 L 426.59766  91.16797"/>
	<path d="M 28.44531 113.16797 L 426.59766 113.16797"/>

	<path d="M 28.44531 183.15625 L 426.59766 183.15625"/>
	<path d="M 28.44531 205.15625 L 426.59766 205.15625"/>
	<path d="M 28.44531 227.15625 L 426.59766 227.15625"/>

	<path d="M 28.44531 297.14453 L 426.59766 297.14453"/>
	<path d="M 28.44531 319.14453 L 426.59766 319.14453"/>
	<path d="M 28.44531 341.14453 L 426.59766 341.14453"/>

	<path d="M 28.44531 411.08984 L 426.59766 411.08984"/>
	<path d="M 28.44531 433.08984 L 426.59766 433.08984"/>
	<path d="M 28.44531 455.08984 L 426.59766 455.08984"/>
</g>

</svg>
