<?xml version="1.0" encoding="UTF-8"?>
<svg xmlns="http://www.w3.org/2000/svg" xmlns:xlink="http://www.w3.org/1999/xlink" width="455pt" height="208pt" viewBox="0 0 455 208" version="1.2" stroke-miterlimit="10">
<g id="black_bg" fill="none" stroke="rgb(4.017639%,3.95813%,4.968262%)">
	<path style="stroke-width:2.4;" d="M 1.648437 198.199219 C 3.898438 198.199219 10.261718 203.414062 10.261718 205.726562 L 444.78125 205.726562 C 444.78125 203.414062 451.148438 198.199219 453.394532 198.199219 L 453.394532 9.820312 C 451.144532 9.820312 444.78125 4.605468 444.78125 2.296874 L 10.261718 2.296874 C 10.261718 4.605468 3.894532 9.820312 1.648437 9.820312 Z"/>
	<path style="stroke-width:1.5;" d="M 453.394531 184.957031 C 450.128906 195.414062 439.199218 205.429688 432.117188 205.726562"/>
	<path style="stroke-width:1.5;" d="M 1.648437 184.957031 C 4.914062 195.414062 15.84375 205.429688 22.925782 205.726562"/>
	<path style="stroke-width:1.5;" d="M 453.394531 23.0625 C 450.128906 12.609374 439.195312 2.59375 432.113282 2.296874"/>
	<path style="stroke-width:1.5;" d="M 1.648437 23.0625 C 4.914062 12.609374 15.84375 2.59375 22.925782 2.296874"/>
	<path d="M 7.648438 12.339844 L 7.648438 195.679688"/>
	<path d="M 447.394531 12.339844 L 447.394531 195.679688"/>
</g>
<g id="white_lines" fill="none" stroke="rgb(69.805908%,69.256592%,69.392395%)">
	<path d="M 16.292969 64.917969 L 438.746094 64.917969"/>
	<path d="M 16.292969 86.921875 L 438.746094 86.921875"/>
	<path d="M 16.292969 108.921875 L 438.746094 108.921875"/>
	<path d="M 16.292969 130.921875 L 438.746094 130.921875"/>
	<path d="M 16.292969 152.925781 L 438.746094 152.925781"/>
	<path d="M 16.292969 174.925781 L 438.746094 174.925781"/>
</g>

</svg>
