<?xml version="1.0" encoding="UTF-8"?>
<svg xmlns="http://www.w3.org/2000/svg" xmlns:xlink="http://www.w3.org/1999/xlink" width="1101pt" height="470pt" viewBox="0 0 1101 470" version="1.2" stroke-miterlimit="10">
<g id="black_lines_main_contour" fill="none" stroke="#0A0A0D">
	<path stroke-width="2.4" d="M 1.957031 460.738281 C 4.203124 460.738281 10.566406 465.953126 10.566406 468.265626 L 1090.78125 468.265626 C 1090.78125 465.953126 1097.148438 460.738281 1099.394532 460.738281 L 1099.394532 8.957032 C 1097.144532 8.957032 1090.78125 3.742188 1090.78125 1.425782 L 10.566406 1.425782 C 10.566406 3.742188 4.203124 8.957032 1.953125 8.957032 Z"/>

	<g stroke-width="1.5">
		<path d="M 1099.394531 447.496094 C 1096.128906 457.949218 1085.199218 467.96875 1078.117188 468.265624"/>
		<path d="M 1.957031 447.496094 C 5.21875 457.949218 16.152344 467.96875 23.234374 468.265624"/>
		<path d="M 1099.394531 22.195313 C 1096.128906 11.742188 1085.195312 1.726562 1078.113282 1.429688"/>
		<path d="M 1.953125 22.195313 C 5.21875 11.742188 16.148438 1.726562 23.230468 1.429688"/>
	</g>

	<path d="M 1093.394531 11.472656 L 1093.394531 458.21875"/>
	<path d="M 7.953125 11.472656 L 7.953125 458.21875"/>
</g>
<g id="white_lines_equipment" fill="none" stroke="rgb(69.805908%,69.256592%,69.392395%)">
	<path d="M 16.601562 30.230469 L 308.601562 30.230469"/>
	<path d="M 16.601562 52.230469 L 308.601562 52.230469"/>
	<path d="M 16.601562 74.234375 L 308.601562 74.234375"/>
	<path d="M 16.601562 96.234375 L 308.601562 96.234375"/>
	<path d="M 16.601562 118.234375 L 308.601562 118.234375"/>
	<path d="M 16.601562 140.238281 L 308.601562 140.238281"/>
	<path d="M 16.601562 162.238281 L 308.601562 162.238281"/>
	<path d="M 16.601562 184.238281 L 308.601562 184.238281"/>
	<path d="M 16.601562 206.242188 L 308.601562 206.242188"/>
	<path d="M 16.601562 228.242187 L 308.601562 228.242187"/>
	<path d="M 16.601562 250.242188 L 308.601562 250.242188"/>
	<path d="M 16.601562 272.246094 L 308.601562 272.246094"/>
	<path d="M 16.601562 294.246094 L 308.601562 294.246094"/>
	<path d="M 16.601562 316.246094 L 308.601562 316.246094"/>
	<path d="M 16.601562 338.25 L 308.601562 338.25"/>
	<path d="M 16.601562 360.25 L 308.601562 360.25"/>
	<path d="M 16.601562 382.253906 L 308.601562 382.253906"/>
	<path d="M 16.601562 404.253906 L 308.601562 404.253906"/>
	<path d="M 16.601562 426.253906 L 308.601562 426.253906"/>
	<path d="M 250.597656 426.253906 L 250.597656 10.226562"/>
	<path d="M 275.597656 446.257813 L 275.597656 10.226562"/>

	<path d="M 334.601562 30.230469 L 626.601562 30.230469"/>
	<path d="M 334.601562 52.230469 L 626.601562 52.230469"/>
	<path d="M 334.601562 74.234375 L 626.601562 74.234375"/>
	<path d="M 334.601562 96.234375 L 626.601562 96.234375"/>
	<path d="M 334.601562 118.234375 L 626.601562 118.234375"/>
	<path d="M 334.601562 140.238281 L 626.601562 140.238281"/>
	<path d="M 334.601562 162.238281 L 626.601562 162.238281"/>
	<path d="M 334.601562 184.238281 L 626.601562 184.238281"/>
	<path d="M 334.601562 206.242188 L 626.601562 206.242188"/>
	<path d="M 334.601562 228.242187 L 626.601562 228.242187"/>
	<path d="M 334.601562 250.242188 L 626.601562 250.242188"/>
	<path d="M 334.601562 272.246094 L 626.601562 272.246094"/>
	<path d="M 334.601562 294.246094 L 626.601562 294.246094"/>
	<path d="M 334.601562 316.246094 L 626.601562 316.246094"/>
	<path d="M 334.601562 338.25 L 626.601562 338.25"/>
	<path d="M 334.601562 360.25 L 626.601562 360.25"/>
	<path d="M 334.601562 382.253906 L 626.601562 382.253906"/>
	<path d="M 334.601562 404.253906 L 626.601562 404.253906"/>
	<path d="M 334.601562 426.253906 L 626.601562 426.253906"/>
	<path d="M 568.601562 426.253906 L 568.601562 10.226562"/>
	<path d="M 593.601562 446.257813 L 593.601562 10.226562"/>

	<path d="M 652.601562 30.230469 L 944.601562 30.230469"/>
	<path d="M 652.601562 52.230469 L 944.601562 52.230469"/>
	<path d="M 652.601562 74.234375 L 944.601562 74.234375"/>
	<path d="M 652.601562 96.234375 L 944.601562 96.234375"/>
	<path d="M 652.601562 118.234375 L 944.601562 118.234375"/>
	<path d="M 652.601562 140.238281 L 944.601562 140.238281"/>
	<path d="M 652.601562 162.238281 L 944.601562 162.238281"/>
	<path d="M 652.601562 184.238281 L 944.601562 184.238281"/>
	<path d="M 652.601562 206.242188 L 944.601562 206.242188"/>
	<path d="M 652.601562 228.242187 L 944.601562 228.242187"/>
	<path d="M 652.601562 250.242188 L 944.601562 250.242188"/>
	<path d="M 652.601562 272.246094 L 944.601562 272.246094"/>
	<path d="M 652.601562 294.246094 L 944.601562 294.246094"/>
	<path d="M 652.601562 316.246094 L 944.601562 316.246094"/>
	<path d="M 652.601562 338.25 L 944.601562 338.25"/>
	<path d="M 652.601562 360.25 L 944.601562 360.25"/>
	<path d="M 652.601562 382.253906 L 944.601562 382.253906"/>
	<path d="M 652.601562 404.253906 L 944.601562 404.253906"/>
	<path d="M 652.601562 426.253906 L 944.601562 426.253906"/>
	<path d="M 886.601562 426.253906 L 886.601562 10.226562"/>
	<path d="M 911.601562 446.257813 L 911.601562 10.226562"/>
</g>
<g id="money_boxes">
	<g id="white_patches" fill="white">
		<path d="M 1082.42578 42.43376 L 1085.31641 42.43376 C 1085.01172 41.22282 1085.31641 39.89079 1086.26172 38.95329 C 1087.69141 37.51579 1090.00781 37.5197 1091.4375 38.94938 L 1099.59375 32.06266 L 1099.59375 25.25016 L 1091.4375 18.36735 C 1090.00781 19.79704 1087.69141 19.80094 1086.26172 18.36344 C 1085.31641 17.42204 1085.01172 16.09001 1085.31641 14.88297 L 1082.61719 14.88297 Z"/>
		<path d="M 1082.42578 97.03288 L 1085.31641 97.03288 C 1085.01172 95.82585 1085.31641 94.49382 1086.26172 93.55632 C 1087.69141 92.11882 1090.00781 92.11882 1091.4375 93.55241 L 1099.59375 86.66569 L 1099.59375 79.85319 L 1091.4375 72.97038 C 1090.00781 74.40007 1087.69141 74.40397 1086.26172 72.96647 C 1085.31641 72.02507 1085.01172 70.69303 1085.31641 69.486 L 1082.61719 69.486 Z"/>
		<path d="M 1082.42578 152.23438 L 1085.31641 152.23438 C 1085.01172 151.02734 1085.31641 149.69531 1086.26172 148.75391 C 1087.69141 147.32031 1090.00781 147.32031 1091.4375 148.75 L 1099.59375 141.86719 L 1099.59375 135.05469 L 1091.4375 128.17188 C 1090.00781 129.59766 1087.69141 129.60156 1086.26172 128.16797 C 1085.31641 127.22656 1085.01172 125.89453 1085.31641 124.68359 L 1082.61719 124.68359 Z"/>
		<path d="M 1082.42578 206.83822 L 1085.31641 206.83822 C 1085.01172 205.63119 1085.31641 204.29915 1086.26172 203.35775 C 1087.69141 201.92025 1090.00781 201.92415 1091.4375 203.35384 L 1099.59375 196.47103 L 1099.59375 189.65853 L 1091.4375 182.77181 C 1090.00781 184.2015 1087.69141 184.2054 1086.26172 182.7679 C 1085.31641 181.8265 1085.01172 180.49447 1085.31641 179.28744 L 1082.61719 179.28744 Z"/>
		<path d="M 1082.42578 262.0389 L 1085.31641 262.0389 C 1085.01172 260.82796 1085.31641 259.49593 1086.26172 258.55843 C 1087.69141 257.12093 1090.00781 257.12484 1091.4375 258.55453 L 1099.59375 251.66781 L 1099.59375 244.85921 L 1091.4375 237.97249 C 1090.00781 239.40218 1087.69141 239.40609 1086.26172 237.96859 C 1085.31641 237.02718 1085.01172 235.69515 1085.31641 234.48812 L 1082.61719 234.48812 Z"/>
	</g>
	<g id="main_contours" fill="none" stroke-width="2.4" stroke="#0A0A0D">
		<path d="M 979.84766 15.35954 C 979.84766 17.60563 974.63281 23.96891 972.32422 23.96891 L 972.32422 50.58610 C 974.63281 50.58610 979.84766 56.95329 979.84766 59.19938 L 1070.79688 59.19938 C 1070.79688 56.95329 1076.01172 50.58610 1078.32422 50.58610 L 1078.32422 23.96891 C 1076.01172 23.96891 1070.79688 17.60563 1070.79688 15.35563 Z"/>
		<path d="M 979.84766 69.96257 C 979.84766 72.20866 974.63281 78.57194 972.32422 78.57194 L 972.32422 105.18913 C 974.63281 105.18913 979.84766 111.55631 979.84766 113.80241 L 1070.79688 113.80241 C 1070.79688 111.55631 1076.01172 105.18913 1078.32422 105.18913 L 1078.32422 78.57194 C 1076.01172 78.57194 1070.79688 72.20475 1070.79688 69.95866 Z"/>
		<path d="M 979.84766 125.16016 C 979.84766 127.41016 974.63281 133.77344 972.32422 133.77344 L 972.32422 160.39062 C 974.63281 160.39062 979.84766 166.75391 979.84766 169.00391 L 1070.79688 169.0 C 1070.79688 166.75391 1076.01172 160.39062 1078.32422 160.39062 L 1078.32422 133.77344 C 1076.01172 133.77344 1070.79688 127.40625 1070.79688 125.16016 Z"/>
		<path d="M 979.84766 179.764 C 979.84766 182.01009 974.63281 188.37337 972.32422 188.37337 L 972.32422 214.99447 C 974.63281 214.99447 979.84766 221.35775 979.84766 223.60384 L 1070.79688 223.60384 C 1070.79688 221.35775 1076.01172 214.99056 1078.32422 214.99056 L 1078.32422 188.37337 C 1076.01172 188.37337 1070.79688 182.01009 1070.79688 179.76009 Z"/>
		<path d="M 979.84766 234.96468 C 979.84766 237.21078 974.63281 243.57406 972.32422 243.57406 L 972.32422 270.19515 C 974.63281 270.19515 979.84766 276.55843 979.84766 278.80453 L 1070.79688 278.80453 C 1070.79688 276.55843 1076.01172 270.19124 1078.32422 270.19124 L 1078.32422 243.57406 C 1076.01172 243.57406 1070.79688 237.21078 1070.79688 234.96078 Z"/>
	</g>
	<g id="patch_contours" fill="#0A0A0D">
		<path d="M 1084.20703 41.17985 C 1084.23047 39.98844 1084.70312 38.8361 1085.55469 37.99235 C 1087.08984 36.44938 1089.65234 36.21891 1091.42578 37.3986 L 1098.59375 31.34391 L 1098.59375 25.99626 L 1091.42578 19.94157 C 1089.64844 21.12126 1087.08594 20.88688 1085.55859 19.34782 C 1084.69141 18.48844 1084.21875 17.34782 1084.19922 16.16032 L 1071.00781 16.16032 L 1069.48438 14.16032 L 1086.60156 14.16032 L 1086.28516 15.40641 C 1086.05078 16.32829 1086.30859 17.2736 1086.97266 17.93766 C 1087.97266 18.94157 1089.72656 18.94157 1090.73047 17.93766 L 1091.38281 17.28922 L 1100.59375 25.06657 L 1100.59375 32.27751 L 1091.38281 40.05485 L 1090.73047 39.40251 C 1089.72656 38.3986 1087.98047 38.39079 1086.96875 39.40641 C 1086.30859 40.06266 1086.05078 41.00797 1086.28516 41.93376 L 1086.60156 43.17985 L 1075.94141 43.17985 L 1078.32031 41.17985 L 1084.20703 41.17985"/>
		<path d="M 1084.20703 95.78288 C 1084.23047 94.59147 1084.70312 93.43913 1085.55469 92.59538 C 1087.08984 91.05241 1089.65234 90.82194 1091.42578 92.00163 L 1098.59375 85.94694 L 1098.59375 80.59928 L 1091.42578 74.5446 C 1089.64844 75.72428 1087.08594 75.48991 1085.55859 73.95085 C 1084.69141 73.09147 1084.21875 71.95085 1084.19922 70.76335 L 1071.00781 70.76335 L 1069.48438 68.76335 L 1086.60156 68.76335 L 1086.28516 70.00944 C 1086.05078 70.93132 1086.30859 71.87663 1086.97266 72.53678 C 1087.97266 73.5446 1089.72656 73.5446 1090.73047 72.54069 L 1091.38281 71.89225 L 1100.59375 79.6696 L 1100.59375 86.87663 L 1091.38281 94.65788 L 1090.73047 94.00553 C 1089.72656 93.00163 1087.98047 92.99382 1086.96875 94.00944 C 1086.30859 94.66569 1086.05078 95.611 1086.28516 96.53678 L 1086.60156 97.78288 L 1075.94141 97.78288 L 1078.32031 95.78288 L 1084.20703 95.78288"/>
		<path d="M 1084.20703 150.98438 C 1084.23047 149.79297 1084.70312 148.64063 1085.55469 147.79688 C 1087.08984 146.25391 1089.65234 146.01953 1091.42578 147.19922 L 1098.59375 141.14844 L 1098.59375 135.80078 L 1091.42578 129.74609 C 1089.64844 130.92578 1087.08594 130.69141 1085.55859 129.15234 C 1084.69141 128.29297 1084.21875 127.15234 1084.19922 125.96484 L 1071.00781 125.96484 L 1069.48438 123.96484 L 1086.60156 123.96484 L 1086.28516 125.21094 C 1086.05078 126.13281 1086.30859 127.07813 1086.97266 127.73828 C 1087.97266 128.74609 1089.72656 128.74609 1090.73047 127.74219 L 1091.38281 127.08984 L 1100.59375 134.86719 L 1100.59375 142.07813 L 1091.38281 149.85547 L 1090.73047 149.20313 C 1089.72656 148.19922 1087.98047 148.19531 1086.96875 149.21094 C 1086.30859 149.86719 1086.05078 150.8125 1086.28516 151.73828 L 1086.60156 152.98438 L 1075.94141 152.98438 L 1078.32031 150.98438 L 1084.20703 150.98438"/>
		<path d="M 1084.20703 205.58431 C 1084.23047 204.39681 1084.70312 203.24447 1085.55469 202.40072 C 1087.08984 200.85384 1089.65234 200.62337 1091.42578 201.80306 L 1098.59375 195.75228 L 1098.59375 190.40072 L 1091.42578 184.34603 C 1089.64844 185.52572 1087.08594 185.29134 1085.55859 183.75619 C 1084.69141 182.8929 1084.21875 181.75228 1084.19922 180.56478 L 1071.00781 180.56478 L 1069.48438 178.56478 L 1086.60156 178.56478 L 1086.28516 179.81087 C 1086.05078 180.73665 1086.30859 181.67806 1086.97266 182.34212 C 1087.97266 183.34603 1089.72656 183.34603 1090.73047 182.34212 L 1091.38281 181.69369 L 1100.59375 189.47103 L 1100.59375 196.68197 L 1091.38281 204.45931 L 1090.73047 203.80697 C 1089.72656 202.80306 1087.98047 202.79525 1086.96875 203.81478 C 1086.30859 204.47103 1086.05078 205.41634 1086.28516 206.33822 L 1086.60156 207.58431 L 1075.94141 207.58431 L 1078.32031 205.58431 L 1084.20703 205.58431"/>
		<path d="M 1084.20703 260.78499 C 1084.23047 259.59359 1084.70312 258.44515 1085.55469 257.59749 C 1087.08984 256.05453 1089.65234 255.82406 1091.42578 257.00374 L 1098.59375 250.95296 L 1098.59375 245.6014 L 1091.42578 239.54671 C 1089.64844 240.7264 1087.08594 240.49203 1085.55859 238.95687 C 1084.69141 238.09359 1084.21875 236.95296 1084.19922 235.76546 L 1071.00781 235.76546 L 1069.48438 233.76546 L 1086.60156 233.76546 L 1086.28516 235.01156 C 1086.05078 235.93734 1086.30859 236.87874 1086.97266 237.54281 C 1087.97266 238.54671 1089.72656 238.54671 1090.73047 237.54281 L 1091.38281 236.89437 L 1100.59375 244.67171 L 1100.59375 251.88265 L 1091.38281 259.65999 L 1090.73047 259.00765 C 1089.72656 258.00374 1087.98047 257.99593 1086.96875 259.01156 C 1086.30859 259.66781 1086.05078 260.61703 1086.28516 261.5389 L 1086.60156 262.78499 L 1075.94141 262.78499 L 1078.32031 260.78499 L 1084.20703 260.78499"/>
	</g>
	<g id="corners" fill="none" stroke-width="1.5" stroke="#0A0A0D">
		<path d="M 993.08984 15.35954 C 982.63672 18.62126 972.62109 29.55485 972.32422 36.63688"/>
		<path d="M 993.08984 59.19938 C 982.63672 55.93766 972.62109 45.00407 972.32422 37.92204"/>
		<path d="M 1057.55469 15.35563 C 1068.00781 18.62126 1078.02344 29.55094 1078.32031 36.63297"/>
		<path d="M 1057.55469 59.19938 C 1068.00781 55.93376 1078.02344 45.00407 1078.32031 37.92204"/>

		<path d="M 993.08984 69.96257 C 982.63672 73.22428 972.62109 84.15788 972.32422 91.23991"/>
		<path d="M 993.08984 113.80241 C 982.63672 110.53678 972.62109 99.6071 972.32422 92.52506"/>
		<path d="M 1057.55469 69.95866 C 1068.00781 73.22428 1078.02344 84.15397 1078.32031 91.236"/>
		<path d="M 1057.55469 113.80241 C 1068.00781 110.53678 1078.02344 99.6071 1078.32031 92.52506"/>

		<path d="M 993.08984 125.16016 C 982.63672 128.42578 972.62109 139.35547 972.32422 146.4375"/>
		<path d="M 993.08984 169.00391 C 982.63672 165.73828 972.62109 154.80859 972.32422 147.72656"/>
		<path d="M 1057.55469 125.16016 C 1068.00781 128.42578 1078.02344 139.35547 1078.32031 146.4375"/>
		<path d="M 1057.55469 169.0 C 1068.00781 165.73828 1078.02344 154.80469 1078.32031 147.72266"/>

		<path d="M 993.08984 179.764 C 982.63672 183.02572 972.62109 193.95931 972.32422 201.04134"/>
		<path d="M 993.08984 223.60384 C 982.63672 220.34212 972.62109 209.40853 972.32422 202.3265"/>
		<path d="M 1057.55469 179.764 C 1068.00781 183.02572 1078.02344 193.95931 1078.32031 201.04134"/>
		<path d="M 1057.55469 223.60384 C 1068.00781 220.33822 1078.02344 209.40853 1078.32031 202.3265"/>

		<path d="M 993.08984 234.96468 C 982.63672 238.2264 972.62109 249.15999 972.32422 256.24203"/>
		<path d="M 993.08984 278.80452 C 982.63672 275.54281 972.62109 264.60921 972.32422 257.52718"/>
		<path d="M 1057.55469 234.96078 C 1068.00781 238.2264 1078.02344 249.15999 1078.32031 256.24203"/>
		<path d="M 1057.55469 278.80453 C 1068.00781 275.5389 1078.02344 264.60921 1078.32031 257.52718"/>
	</g>
	<g id="lines" stroke="#0A0A0D">
		<path d="M 1065.60156 19.35563 L 985.04297 19.35563"/>
		<path d="M 1065.60156 55.19938 L 985.04297 55.19938"/>

		<path d="M 1065.60156 73.95866 L 985.04297 73.95866"/>
		<path d="M 1065.60156 109.80241 L 985.04297 109.80241"/>

		<path d="M 1065.60156 129.16016 L 985.04297 129.16016"/>
		<path d="M 1065.60156 165 L 985.04297 165"/>

		<path d="M 1065.60156 183.764 L 985.04297 183.764"/>
		<path d="M 1065.60156 219.60384 L 985.04297 219.60384"/>

		<path d="M 1065.60156 238.96078 L 985.04297 238.96078"/>
		<path d="M 1065.60156 274.80453 L 985.04297 274.80453"/>
	</g>
</g>
</svg>
