<?xml version="1.0" encoding="UTF-8"?>
<svg xmlns="http://www.w3.org/2000/svg" xmlns:xlink="http://www.w3.org/1999/xlink" width="623pt" height="1006pt" viewBox="0 0 623 1006" version="1.2" stroke-miterlimit="10" fill="none">
<g id="black_lines" stroke="rgb(4.017639%,3.95813%,4.968262%)">
	<g id="main_contour" stroke-width="2.4">
		<path d="M 1.95313 996.50391 C 4.20313 996.50391 10.56641 1001.7188 10.56641 1004.03125 L 612.63672 1004.03125 C 612.63672 1001.71875 619 996.50391 621.24609 996.50391 L 621.24609 9.89062 C 618.99609 9.89062 612.63281 4.67578 612.63281 2.36719 L 10.56641 2.36719 C 10.56641 4.67578 4.19922 9.89062 1.95313 9.89062 Z"/>
	</g>
	<g id="corner_curvelets" stroke-width="1.5">
		<path d="M 621.24609 983.26172 C 617.98047 993.71484 607.05078 1003.73047 599.9688 1004.02734"/>
		<path d="M 1.95313 983.26172 C 5.2188 993.71484 16.15234 1003.73047 23.23438 1004.02734"/>
		<path d="M 621.24609 23.13281 C 617.98047 12.67969 607.05078 2.66406 599.9688 2.36719"/>
		<path d="M 1.95313 23.13281 C 5.2188 12.67969 16.14844 2.66406 23.23047 2.36719"/>
	</g>
	<g id="side_lines">
		<path d="M 7.95313 12.41016 L 7.95313 993.98438"/>
		<path d="M 615.24609 12.41016 L 615.24609 993.98438"/>
	</g>
</g>

<g id="rule_lines" stroke="rgb(69.805908%,69.256592%,69.392395%)">
	<path d="M 16.60156  27.16797 L 606.60156  27.16797"/>
	<path d="M 16.60156  49.18131 L 606.60156  49.18131"/>
	<path d="M 16.60156  71.19465 L 606.60156  71.19465"/>
	<path d="M 16.60156  93.20799 L 606.60156  93.20799"/>
	<path d="M 16.60156 115.22134 L 606.60156 115.22134"/>
	<path d="M 16.60156 137.23468 L 606.60156 137.23468"/>
	<path d="M 16.60156 159.24802 L 606.60156 159.24802"/>
	<path d="M 16.60156 181.26136 L 606.60156 181.26136"/>
	<path d="M 16.60156 203.27470 L 606.60156 203.27470"/>
	<path d="M 16.60156 225.28804 L 606.60156 225.28804"/>
	<path d="M 16.60156 247.30138 L 606.60156 247.30138"/>
	<path d="M 16.60156 269.31473 L 606.60156 269.31473"/>
	<path d="M 16.60156 291.32807 L 606.60156 291.32807"/>
	<path d="M 16.60156 313.34141 L 606.60156 313.34141"/>
	<path d="M 16.60156 335.35475 L 606.60156 335.35475"/>
	<path d="M 16.60156 357.36809 L 606.60156 357.36809"/>
	<path d="M 16.60156 379.38143 L 606.60156 379.38143"/>
	<path d="M 16.60156 401.39477 L 606.60156 401.39477"/>
	<path d="M 16.60156 423.40812 L 606.60156 423.40812"/>
	<path d="M 16.60156 445.42146 L 606.60156 445.42146"/>
	<path d="M 16.60156 467.43480 L 606.60156 467.43480"/>
	<path d="M 16.60156 489.44814 L 606.60156 489.44814"/>
	<path d="M 16.60156 511.46148 L 606.60156 511.46148"/>
	<path d="M 16.60156 533.47482 L 606.60156 533.47482"/>
	<path d="M 16.60156 555.48816 L 606.60156 555.48816"/>
	<path d="M 16.60156 577.50151 L 606.60156 577.50151"/>
	<path d="M 16.60156 599.51485 L 606.60156 599.51485"/>
	<path d="M 16.60156 621.52819 L 606.60156 621.52819"/>
	<path d="M 16.60156 643.54153 L 606.60156 643.54153"/>
	<path d="M 16.60156 665.55487 L 606.60156 665.55487"/>
	<path d="M 16.60156 687.56821 L 606.60156 687.56821"/>
	<path d="M 16.60156 709.58155 L 606.60156 709.58155"/>
	<path d="M 16.60156 731.59490 L 606.60156 731.59490"/>
	<path d="M 16.60156 753.60824 L 606.60156 753.60824"/>
	<path d="M 16.60156 775.62158 L 606.60156 775.62158"/>
	<path d="M 16.60156 797.63492 L 606.60156 797.63492"/>
	<path d="M 16.60156 819.64826 L 606.60156 819.64826"/>
	<path d="M 16.60156 841.66160 L 606.60156 841.66160"/>
	<path d="M 16.60156 863.67494 L 606.60156 863.67494"/>
	<path d="M 16.60156 885.68829 L 606.60156 885.68829"/>
	<path d="M 16.60156 907.70163 L 606.60156 907.70163"/>
	<path d="M 16.60156 929.71497 L 606.60156 929.71497"/>
	<path d="M 16.60156 951.72831 L 606.60156 951.72831"/>
	<path d="M 16.60156 973.74165 L 606.60156 973.74165"/>
</g>
</svg>
