<?xml version="1.0" encoding="UTF-8"?>
<svg xmlns="http://www.w3.org/2000/svg" xmlns:xlink="http://www.w3.org/1999/xlink" width="455pt" height="258pt" viewBox="0 0 455 258" version="1.2" fill="none" stroke-miterlimit="10">
<g id="black_lines" stroke="rgb(4.017639%,3.95813%,4.968262%)">
	<path stroke-width="2.4" d="M 1.648437 248.503906 C 3.898438 248.503906 10.261718 253.714844 10.261718 256.027344 L 444.78125 256.027344 C 444.78125 253.714844 451.148438 248.503906 453.394532 248.503906 L 453.394532 9.65625 C 451.144532 9.65625 444.78125 4.441406 444.78125 2.128906 L 10.261718 2.128906 C 10.261718 4.441406 3.894532 9.65625 1.648437 9.65625 Z"/>
	<g stroke-width="1.5">
		<path d="M 453.394531 235.261719 C 450.128906 245.714844 439.199218 255.730468 432.117188 256.027344"/>
		<path d="M 1.648437 235.261719 C 4.914062 245.714844 15.84375 255.730468 22.925782 256.027344"/>
		<path d="M 453.394531 22.898437 C 450.128906 12.445312 439.195312 2.425782 432.113282 2.128906"/>
		<path d="M 1.648437 22.898437 C 4.914062 12.445312 15.84375 2.425782 22.925782 2.128906"/>
	</g>
	<path d="M 7.648438 12.171875 L 7.648438 245.980468"/>
	<path d="M 447.394531 12.171875 L 447.394531 245.980468"/>
</g>
<g id="white_lines" stroke="rgb(69.805908%,69.256592%,69.392395%)">
	<path d="M 16.292969 26.929688 L 439.308594 26.929688"/>
	<path d="M 16.292969 48.933594 L 439.308594 48.933594"/>
	<path d="M 16.292969 70.933594 L 439.308594 70.933594"/>
	<path d="M 16.292969 92.933594 L 439.308594 92.933594"/>
	<path d="M 16.292969 115.21875 L 439.308594 115.21875"/>
	<path d="M 16.292969 137.222656 L 439.308594 137.222656"/>
	<path d="M 16.292969 159.222656 L 439.308594 159.222656"/>
	<path d="M 16.292969 181.222656 L 439.308594 181.222656"/>
	<path d="M 16.292969 203.226562 L 439.308594 203.226562"/>
	<path d="M 16.292969 225.226562 L 439.308594 225.226562"/>
</g>
</svg>
