<?xml version="1.0" encoding="UTF-8"?>
<svg xmlns="http://www.w3.org/2000/svg" xmlns:xlink="http://www.w3.org/1999/xlink" width="650.41953pt" height="455.84532pt" viewBox="0 0 650.41953 455.84532" version="1.2" stroke-miterlimit="10">

<g stroke="rgb(4.017639%,3.95813%,4.968262%)">
	<path fill="white" stroke-width="2.4" d="M 1.20391 447.12187 C 3.45 447.12187 9.81328 452.33671 9.81328 454.64531 L 640.60235 454.64531 C 640.60235 452.33671 646.96953 447.12187 649.21953 447.12187 L 649.21563 8.72734 C 646.96953 8.72734 640.60235 3.5125 640.60235 1.2 L 9.81328 1.2 C 9.81328 3.5125 3.45 8.72734 1.2 8.72734 Z"/>

	<g fill="none">
		<path d="M 643.21563 11.24296 L 643.21563 444.60234 M 7.20391 11.24296 L 7.20391 444.60234"/>
		<path d="M 628.11797 94.27812 L 628.11797 16.25078"/>
		<path d="M 367.52422 94.27812 L 367.52422 16.25078"/>
		<g stroke-width="1.5">
			<path d="M 649.21563 433.87968 C 645.95391 444.33281 635.02032 454.34843 627.93829 454.64531 M 1.2 433.87968 C 4.46563 444.33281 15.39922 454.34843 22.48125 454.64531 M 649.21563 21.96953 C 645.95 11.5164 635.02032 1.49687 627.93829 1.19999 M 1.2 21.96953 C 4.46563 11.5164 15.39532 1.49687 22.47735 1.19999"/>
			<path d="M 627.11797 18.84062 L 627.11797 16.25078 M 368.52422 18.84062 L 368.52422 16.25078"/>
			<path d="M 627.11797 91.68828 L 627.11797 94.27812"/>
			<path d="M 368.52422 91.68828 L 368.52422 94.27812"/>
		</g>
		<path stroke-width="2.1" d="M 624.06719 84.66093 C 624.14532 85.99687 622.97735 92.27812 629.91485 92.27812 L 365.73125 92.27812 C 372.66875 92.27812 371.50078 85.99687 371.57891 84.66093 L 371.57891 25.87187 C 371.50078 24.53593 372.66875 18.25078 365.73125 18.25078 L 629.91485 18.25078 C 622.97735 18.25078 624.14532 24.53593 624.06719 25.87187 Z"/>
	</g>
</g>
<path fill="rgb(87.059021%,86.824036%,86.882019%)" d="M 375.73125 24.25078 L 412.98125 24.25078 L 412.98125 40.6375 L 375.73125 40.6375 Z M 412.98125 24.25078 L 619.91094 24.25078 L 619.91094 40.6375 L 412.98125 40.6375 Z M 375.73125 57.0164 L 412.98125 57.0164 L 412.98125 73.40312 L 375.73125 73.40312 Z M 412.98125 57.0164 L 619.91094 57.0164 L 619.91094 73.40312 L 412.98125 73.40312 Z"/>

</svg>
