<?xml version="1.0" encoding="UTF-8"?>
<svg xmlns="http://www.w3.org/2000/svg" width="650.41953pt" height="405.18125pt" viewBox="0 0 650.41953 405.18125" version="1.2" stroke-miterlimit="10">

<g stroke="rgb(4.017639%,3.95813%,4.968262%)" fill="none">
  <path fill="white" stroke-width="2.4" d="M 1.20391 396.45781 C 3.45 396.45781 9.81328 401.67265 9.81328 403.98125 L 640.60235 403.98125 C 640.60235 401.67265 646.96953 396.45781 649.21953 396.45781 L 649.21563 8.72734 C 646.96953 8.72734 640.60235 3.5125 640.60235 1.2 L 9.81328 1.2 C 9.81328 3.5125 3.45 8.72734 1.2 8.72734 Z"/>
  <path d="M 643.21563 11.24297 L 643.21563 393.93828 M 7.20391 11.24297 L 7.20391 393.93828"/>
  <path stroke-width="1.5" d="M 649.21563 383.21562 C 645.95391 393.66875 635.02032 403.68437 627.93829 403.98125 M 1.2 383.21562 C 4.46563 393.66875 15.39922 403.68437 22.48125 403.98125 M 649.21563 21.96953 C 645.95 11.5164 635.02032 1.49687 627.93829 1.2 M 1.2 21.96953 C 4.46563 11.5164 15.39532 1.49687 22.47735 1.2"/>
</g>

</svg>
