<?xml version="1.0" encoding="UTF-8"?>
<svg xmlns="http://www.w3.org/2000/svg" xmlns:xlink="http://www.w3.org/1999/xlink" width="433.61875pt" height="735.775pt" viewBox="0 0 433.61875 735.775" version="1.2" stroke-miterlimit="10">

<g id="main_frame" fill="none" stroke="rgb(4.017639%,3.95813%,4.968262%)">
	<path fill="white" stroke-width="2.4" d="M 1.20001 727.04766 C 3.45 727.04766 9.81329 732.2625 9.81329 734.575 L 423.80547 734.575 C 423.80547 732.2625 430.16875 727.04766 432.41875 727.04766 L 432.41485 8.72734 C 430.16875 8.72734 423.80547 3.5125 423.80547 1.2 L 9.81329 1.2 C 9.81329 3.5125 3.4461 8.72734 1.20001 8.72734 Z"/>
	<path d="M 426.41876 11.24297 L 426.41876 724.52812 M 7.2 11.24297 L 7.2 724.52812"/>
	<path stroke-width="1.5" d="M 432.41875 713.80547 C 429.15313 724.25859 418.22344 734.27422 411.14141 734.575 M 1.2 713.80547 C 4.46563 724.25859 15.39532 734.27422 22.48125 734.575 M 432.41485 21.96953 C 429.15313 11.5164 418.21954 1.49687 411.1375 1.2 M 1.2 21.96953 C 4.46563 11.5164 15.39532 1.49687 22.47735 1.2"/>
</g>

<g id="exhaustion_frame" fill="none">
	<g stroke="rgb(4.017639%,3.95813%,4.968262%)">
		<path stroke-width="1.5" d="M 409.31329 17.05937 L 409.31329 14.46953 M 198.25469 17.05937 L 198.25469 14.46953"/>
		<path d="M 410.31329 157.4539 L 410.31329 14.46953"/>
		<path stroke-width="1.5" d="M 409.31329 154.86406 L 409.31329 157.45391"/>
		<path d="M 197.25469 157.4539 L 197.25469 14.46953"/>
		<path stroke-width="1.5" d="M 198.25469 154.86406 L 198.25469 157.45391"/>
		<path fill="white" stroke-width="2.1" d="M 406.26251 147.83672 C 406.33672 149.17266 405.17266 155.45391 412.10626 155.45391 L 195.46172 155.45391 C 202.39922 155.45391 201.23126 149.17266 201.30938 147.83672 L 201.30938 24.09062 C 201.23126 22.75469 202.39922 16.46953 195.46172 16.46953 L 412.10626 16.46953 C 405.17266 16.46953 406.33672 22.75469 406.26251 24.09062 Z"/>
	</g>
	<path fill="rgb(87.059021%,86.824036%,86.882019%)" d="M 206.87969 54.73515 L 242.86407 54.73515 L 242.86407 71.12187 L 206.87969 71.12187 Z M 242.86407 54.73515 L 403.52422 54.73515 L 403.52422 71.12187 L 242.86407 71.12187 Z M 206.87969 87.50469 L 242.86407 87.50469 L 242.86407 103.8875 L 206.87969 103.8875 Z M 242.86407 87.50469 L 403.52422 87.50469 L 403.52422 103.8875 L 242.86407 103.8875 Z M 206.87969 120.27031 L 242.86407 120.27031 L 242.86407 136.65312 L 206.87969 136.65312 Z M 242.86407 120.27031 L 403.52422 120.27031 L 403.52422 136.65312 L 242.86407 136.65312 Z"/>
	<g stroke="rgb(69.805908%,69.256592%,69.392395%)">
		<path d="M 242.86407 38.35625 L 242.86407 22.46953"/>
		<path d="M 206.87969 38.85625 L 242.86407 38.85625"/>
		<path d="M 242.86407 38.85625 L 403.52422 38.85625"/>
		<path d="M 242.86407 54.73906 L 242.86407 39.35234"/>
		<path d="M 242.86407 71.12187 L 242.86407 54.73906"/>
		<path d="M 242.86407 87.50469 L 242.86407 71.12187"/>
		<path d="M 242.86407 103.8875 L 242.86407 87.50469"/>
		<path d="M 242.86407 120.27031 L 242.86407 103.8875"/>
		<path d="M 242.86407 136.65312 L 242.86407 120.27031"/>
	</g>
</g>

</svg>
