<?xml version="1.0" encoding="UTF-8"?>
<svg xmlns="http://www.w3.org/2000/svg" width="633.41173px" height="377.42345px" viewBox="0 0 633.41173 377.42345" version="1.2" stroke-miterlimit="10">

<g id="main_pane" stroke="rgb(4.017639%,3.95813%,4.968262%)" fill="none">
	<path fill="white" stroke-width="2.4" d="M 1.20391 368.7 C 3.45 368.7 9.81719 373.91094 9.81719 376.22344 L 623.59844 376.22344 C 623.59844 373.91094 629.96172 368.7 632.21172 368.7 L 632.20781 8.72735 C 629.96172 8.72735 623.59844 3.5125 623.59844 1.2 L 9.81719 1.2 C 9.81719 3.5125 3.45 8.72735 1.2 8.72735 Z"/>

	<path d="M 626.20781 11.24688 L 626.20781 366.18047"/>
	<path d="M 7.2 11.24688 L 7.2 366.18047"/>

	<g stroke-width="1.5">
		<path d="M 632.21172 355.45782 C 628.94609 365.91094 618.01641 375.92657 610.93047 376.22344"/>
		<path d="M 1.20391 355.45782 C 4.46953 365.91094 15.39922 375.92657 22.48125 376.22344"/>
		<path d="M 632.20781 21.96954 C 628.94609 11.51641 618.0125 1.49688 610.93047 1.2"/>
		<path d="M 1.20391 21.96954 C 4.46563 11.51641 15.39922 1.49688 22.48125 1.2"/>
	</g>
</g>

<g id="inset_pane" fill="none">
	<path fill="white" style="stroke-width:2.1;stroke:rgb(4.017639%,3.95813%,4.968262%);" d="M 608.82109 100.46172 C 608.89531 101.79766 607.73125 108.08282 614.66484 108.08282 L 306.68828 108.08282 C 313.62578 108.08282 312.45781 101.79766 312.53594 100.46172 L 312.53594 25.87188 C 312.45781 24.53594 313.62578 18.25079 306.68828 18.25079 L 614.66484 18.25079 C 607.73125 18.25079 608.89531 24.53594 608.82109 25.87188 Z"/>
	<g stroke="rgb(4.017639%,3.95813%,4.968262%)">
		<path d="M 612.87187 110.08282 L 612.87187 16.25079"/>
		<path d="M 308.48516 110.08282 L 308.48516 16.25079"/>
		<g stroke-width="1.5">
			<path d="M 611.87187 18.84063 L 611.87187 16.25079"/>
			<path d="M 309.48516 18.84063 L 309.48516 16.25079"/>
			<path d="M 611.87187 107.49297 L 611.87187 110.08282"/>
			<path d="M 309.48516 107.49297 L 309.48516 110.08282"/>
		</g>
	</g>
	<g fill="rgb(87.059021%,86.824036%,86.882019%)">
		<path d="M 315.64141 40.27032 L 604.66484 40.27032 L 604.66484 56.15313 L 315.64141 56.15313 Z"/>
		<path d="M 315.64141 72.53985 L 604.66484 72.53985 L 604.66484 88.92266 L 315.64141 88.92266 Z"/>
	</g>
	<g stroke="rgb(69.805908%,69.256592%,69.392395%)">
		<path d="M 315.64141 40.27032 L 604.66484 40.27032"/>

		<path d="M 358.06719 88.92266 L 358.06719 24.25079"/>
		<path d="M 406.66484 88.92266 L 406.66484 24.25079"/>
		<path d="M 449.86406 88.92266 L 449.86406 24.25079"/>
		<path d="M 497.86406 88.92266 L 497.86406 24.25079"/>
	</g>
</g>
</svg>
