<?xml version="1.0" encoding="UTF-8"?>
<svg xmlns="http://www.w3.org/2000/svg" xmlns:xlink="http://www.w3.org/1999/xlink" width="1132.3px" height="208.3px" viewBox="0 0 1132.3 208.87" version="1.2" stroke-miterlimit="10">
<defs>
	<symbol id="star" overflow="visible">
		<path d="M -1 0 L -0.45 0.18 L -0.7 0.7 L -0.18 0.45 L 0 1  L 0.18 0.45 L 0.7 0.7 L 0.45 0.18 L 1 0 L 0.45 -0.18 L 0.7 -0.7 L 0.18 -0.45 L 0 -1 L -0.18 -0.45 L -0.7 -0.7 L -0.45 -0.18 Z"/>
	</symbol>
</defs>


<g id="banner_ends" stroke="rgb(4.017639%,3.95813%,4.968262%)">
	<path style="stroke-width:2.0;fill:white" d="M 79.45234 150.86297 C 45.06953 151.95281 2.49531 138.93719 2.49531 138.93719 L 36.35469 108.49188 L 16.25312 67.48406 C 16.25312 67.48406 54.15547 78.01922 88.53828 76.92938 Z"/>
	<path style="stroke-width:1.0;fill:none" d="M 79.45234 144.86297 C 52.22187 145.73016 19.85078 137.74187 7.56562 134.3825"/>
	<path style="stroke-width:1.0;fill:none" d="M 19.6125 74.35906 C 29.6125 76.86297 60.26484 83.82781 88.53828 82.93328"/>

	<path style="stroke-width:2.0;fill:white" d="M 968.50312 84.01141 C 1019.67891 69.06609 1079.28047 75.40984 1129.76875 90.90594 L 1104.06562 117.03875 L 1127.62812 164.39812 C 1077.13203 148.90984 1030.72969 146.60516 979.55 161.54656"/>
	<path style="stroke-width:1.0;fill:none" d="M 1124.28828 157.68328 C 1074.77266 142.89031 1029.06953 140.90984 978.74531 155.60125"/>
	<path style="stroke-width:1.0;fill:none" d="M 969.30781 89.95672 C 1018.75703 75.51531 1076.06953 80.95281 1125.43281 95.31609"/>
</g>

<path id="banner_end_left_backflap" style="fill:rgb(69.805908%,69.256592%,69.392395%);stroke-width:2.75;stroke:rgb(4.017639%,3.95813%,4.968262%)" d="M 88.16328 153.51922 L 39.72578 160.68719 L 39.72578 85.68719 C 39.72578 85.68719 78.69844 85.27703 88.16328 78.51922 Z"/>
<g id="banner_front">
	<path style="fill:rgb(100%,100%,100%);stroke-width:2.75;stroke:rgb(4.017639%,3.95813%,4.968262%)" d="M 449.44844 85.68719 C 325.94062 63.18719 163.23359 108.18719 39.72578 85.68719 L 39.72578 160.68719 C 163.23359 183.18719 325.94062 138.18719 449.44844 160.68719 Z"/>
	<path style="fill:none;stroke-width:1.5;stroke:rgb(4.017639%,3.95813%,4.968262%)" d="M 449.44844 91.68719 C 325.94062 69.18719 163.23359 114.18719 39.72578 91.68719 L 39.72578 154.68328 C 163.23359 177.18328 325.94062 132.18328 449.44844 154.68328 Z"/>
</g>
<g id="panel" stroke="rgb(4.017639%,3.95813%,4.968262%)">
	<path style="fill:white;stroke-width:2.5" d="M 445.06562 35.49969 L 445.06172 202.01531 C 447.15937 196.98406 449.25703 194.88641 449.25703 194.88641 L 449.26094 42.62859 C 449.26094 42.62859 447.15937 40.53484 445.06562 35.49969 Z"/>
	<path style="fill:white;stroke-width:2.5" d="M 1081.24141 35.49969 L 1081.24531 202.01531 C 1079.14766 196.98406 1077.05 194.88641 1077.05 194.88641 L 1077.04609 42.62859 C 1077.04609 42.62859 1079.14766 40.53484 1081.24141 35.49969 Z"/>

	<path style="fill:white;stroke-width:2.5" d="M 456.78828 46.12859 C 456.78828 48.37469 451.57344 54.73797 449.26094 54.73797 L 449.26094 182.94109 C 451.57344 182.94109 456.78828 189.30828 456.78828 191.55437 L 1069.52266 191.55437 C 1069.52266 189.30828 1074.7375 182.94109 1077.05 182.94109 L 1077.05 54.73797 C 1074.7375 54.73797 1069.52266 48.37469 1069.52266 46.12469 Z"/>
	<g fill="none">
		<path d="M 1067.00312 185.55438 L 459.30781 185.55438"/>
		<path d="M 1067.00312 52.12469 L 459.30781 52.12469"/>
		<g stroke-width="1.5">
			<path d="M 470.03047 191.55438 C 459.57344 188.29266 449.55781 177.35906 449.26094 170.27703"/>
			<path d="M 470.03047 46.12859 C 459.57344 49.39031 449.55781 60.32391 449.26094 67.40594"/>
			<path d="M 1056.28047 191.55438 C 1066.73359 188.28875 1076.74922 177.35906 1077.05 170.27703"/>
			<path d="M 1056.28047 46.12469 C 1066.73359 49.39031 1076.74922 60.32391 1077.05 67.40594"/>
		</g>
	</g>
</g>

<g id="dragon">
	<path style="stroke-width:1.0;fill:white" d="M 358.19844 84.35906 L 366.07344 77.69109 L 379.69844 77.69109 L 371.69844 87.69109 Z"/>
	<g fill="rgb(4.017639%,3.95813%,4.968262%)">
		<path d="M 382.83906 114.28094 C 391.23359 115.73797 395.02656 121.59344 397.55391 128.74188 C 399.70625 126.58562 401.39766 117.83953 400.79609 112.46844 C 407.96406 121.32781 413.02656 131.30828 416.61641 142.37469 C 417.28828 140.93719 418.01484 139.66375 418.49531 138.30438 C 420.00703 134.04656 421.39766 129.74578 422.89766 125.48406 C 423.68281 123.24969 424.65547 122.37078 426.30391 122.21844 C 430.40156 136.43328 432.56953 150.83172 430.44062 165.74188 C 428.53828 161.99969 426.71797 158.41766 424.89766 154.83562 C 424.75312 154.90594 424.60469 154.97234 424.45625 155.04266 C 418.63984 175.58172 412.175 197.02703 394.36641 204.35906 C 394.36641 204.35906 400.69844 194.69109 398.69844 191.02703 C 387.83125 199.02703 381.08516 199.03094 367.19844 199.94109 C 337.86641 200.58953 314.45234 190.37469 283.63594 157.71453 L 328.33125 155.85125 L 349.24141 156.98406 C 349.24141 156.98406 366.88984 157.94891 375.65938 154.55047 C 382.79609 151.47625 386.99531 131.81219 384.29219 120.30438 C 383.83125 118.35125 383.35078 116.40203 382.83906 114.28094"/>
		<path d="M 375.65547 79.22625 C 370.18281 78.70672 365.62422 80.23406 361.54609 83.65984 C 365.87031 86.04656 369.75312 85.52703 375.65547 79.22625 M 407.41719 44.10906 C 407.31562 45.29656 407.41719 46.54266 407.08125 47.65594 C 406.28438 50.28094 405.35078 52.86688 404.34297 55.41766 C 402.53828 59.99969 398.48359 61.28094 394.18672 62.32391 C 388.89766 63.60906 383.58906 64.89031 378.41719 66.56219 C 373.88594 68.03094 369.49922 69.98406 365.97188 73.41766 C 373.03828 69.58172 380.81953 67.945 388.52266 66.14422 C 394.84297 64.66375 401.11641 63.0075 406.94844 60.17156 C 412.19453 57.62078 416.78438 54.12859 419.46016 48.67156 C 419.52266 48.54656 419.65547 48.45281 419.89375 48.195 C 420.47578 50.71844 419.99922 53.05828 419.44062 55.30047 C 417.88594 61.55828 415.31172 67.35125 411.07734 72.32 C 410.23359 73.31219 409.34297 73.945 408.01484 74.04656 C 403.37422 74.39812 399.06953 75.79656 395.20625 78.42156 C 394.28047 79.05047 393.46406 79.83562 392.71016 80.69109 C 394.46016 79.98797 396.16328 78.945 397.97969 78.65594 C 402.38594 77.96844 406.84297 77.55828 411.28828 77.17547 C 415.04219 76.85125 418.81562 76.80047 422.56562 76.48016 C 427.67109 76.04266 432.44453 74.60516 436.58125 71.30438 C 436.03828 76.01141 433.02266 80.37078 427.59297 84.62859 C 432.50312 86.72625 437.61641 88.91375 442.99922 91.21453 C 439.65156 92.01531 436.73359 92.59344 433.89766 93.445 C 432.37812 93.90203 430.89766 94.67547 429.58516 95.57781 C 427.10078 97.28875 426.81953 99.21844 428.44844 101.81219 C 431.49531 106.66766 434.62422 111.47234 437.56172 116.39031 C 439.14375 119.03484 440.40547 121.86688 441.81172 124.61297 C 441.675 124.70281 441.53438 124.79266 441.39375 124.8825 C 439.31172 123.50359 437.33125 121.90594 435.1125 120.80047 C 432.925 119.70672 430.55 118.75359 428.15156 118.36688 C 424.39375 117.76141 420.60469 120.59734 419.10078 124.78094 C 418.16328 127.39031 417.44844 130.08562 416.69844 132.53484 C 412.8625 123.11297 407.99141 114.02312 400.24922 106.51922 C 403.43672 107.55828 406.62422 108.59734 409.78438 109.62469 C 408.53828 100.92547 396.65938 89.71844 387.3 87.24969 C 393.25703 91.22625 398.35859 95.76531 401.98359 102.22625 C 398.27266 101.33953 394.99141 100.55438 391.36641 99.69109 C 395.75703 105.88641 397.72578 112.36297 396.92891 119.92547 C 394.19453 115.24578 390.3 112.54656 385.42891 111.30438 C 376.22578 108.96062 370.26094 115.68719 370.41328 123.67547 C 370.44844 125.49188 370.91328 127.30438 371.24141 129.53484 C 368.96016 127.945 366.78828 126.43328 364.34688 124.73016 C 364.54219 126.42938 364.59297 128.12078 364.96016 129.74188 C 365.33516 131.38641 366.02266 132.95672 366.59297 134.61297 C 361.33516 132.17156 354.10469 122.95281 354.80391 115.69109 C 355.56562 116.22234 356.21797 116.77312 356.95234 117.17156 C 359.29609 118.45281 361.28828 118.72234 362.51094 115.73797 C 363.45625 113.42547 364.21016 111.03094 365.03047 108.71844 C 365.04219 108.74969 365.08516 108.87078 365.12812 108.99578 C 365.62812 110.46453 366.22188 112.07391 368.03438 111.99188 C 369.70625 111.91766 370.72969 110.47234 371.08906 108.99578 C 371.72188 106.40203 372.03047 103.73016 372.47969 101.09734 C 372.53047 100.79656 372.6125 100.50359 372.75312 99.87859 C 375.96016 101.10125 379.04219 102.27703 382.12812 103.45281 C 382.18281 103.39812 382.2375 103.34734 382.29219 103.29656 C 381.33516 102.42938 380.41719 101.51922 379.41719 100.70672 C 374.52656 96.72234 369.45625 92.99188 363.4875 90.7575 C 359.23359 89.16375 357.14375 90.68328 357.03047 95.27703 C 357.00703 96.40203 357.04219 97.53094 357.04609 98.76141 C 355.31172 97.945 353.65547 97.04656 351.90938 96.3825 C 350.08516 95.68719 348.20234 95.12469 346.30391 94.67547 C 341.64375 93.57 337.93672 96.43328 336.44453 100.73406 C 336.29609 101.17156 336.17891 101.62078 336.04219 102.07391 C 330.89375 97.13641 331.81562 78.23016 337.48359 74.59734 C 337.79219 77.70281 338.36641 80.67547 340.83906 82.95672 C 342.44453 80.03484 344.92109 79.14031 347.97578 79.69109 C 349.925 74.17547 353.75703 70.49969 358.64766 67.58562 C 365.60469 63.43719 373.46016 62.11688 381.06172 59.98016 C 387.49141 58.17156 393.89375 56.28094 399.47969 52.46062 C 402.66328 50.28484 405.31953 47.53875 407.41719 44.10906"/>
		<path d="M 367.10859 60.12078 C 366.85469 58.54266 366.51875 57.03875 366.38203 55.51531 C 365.63203 46.93328 366.18281 38.42547 368.75703 30.19109 C 372.24141 19.04656 379.19062 10.56609 389.52266 5.08953 C 400.62422 -0.79719 411.9875 -0.75812 423.51875 4.01922 C 429.82734 6.62859 435.25703 10.39031 439.7375 15.49188 C 442.80781 18.98797 445.08906 22.96453 446.24922 27.52312 C 446.29219 27.695 446.33906 27.87078 446.44844 28.31219 C 448.17891 25.945 448.53438 23.39812 448.99531 20.89422 C 453.70625 24.78875 455.47969 45.33172 451.8625 54.07781 C 453.51875 53.17938 454.33906 52.53875 457.85078 46.98406 C 460.70234 58.86297 448.73359 80.82 433.21016 84.5075 C 438.84297 78.26531 441.34297 71.08953 441.62812 62.97625 C 434.09297 70.22625 425.19062 73.83562 414.63984 73.6325 C 415.66328 72.00359 416.68281 70.41766 417.66328 68.81219 C 419.88594 65.16375 421.27656 61.17547 422.58125 57.12469 C 423.1125 55.46453 424.21406 53.96062 425.19453 52.47625 C 429.42891 46.05828 430.43672 39.28094 426.94453 32.31609 C 423.26484 24.97234 413.44062 21.51922 406.05391 25.54656 C 398.62031 29.60125 395.15156 36.26531 393.56172 44.14812 C 393.10469 46.41375 393.05391 48.80828 393.16328 51.12469 C 393.20625 52.07391 392.89375 52.31609 392.27656 52.58953 C 386.55391 55.12469 380.49922 56.57781 374.47188 58.1325 C 372.11641 58.73797 369.77656 59.39812 367.10859 60.12078"/>
		<path d="M 78.53047 114.81609 C 80.09297 110.03875 82.06562 105.90984 84.66328 102.09344 C 87.66719 97.68719 91.13984 93.70281 95.40938 90.45281 C 101.08906 86.13641 107.49531 83.71062 114.56953 82.95281 C 116.26094 82.77312 117.97188 82.57 119.60469 82.13641 C 120.30781 81.94891 121.15938 81.24188 121.38594 80.58172 C 121.74922 79.5075 120.96797 78.62469 119.92891 78.34344 C 117.10859 77.58562 114.25312 76.95281 111.60859 76.31219 C 114.15156 75.14422 117.22969 74.74969 120.28047 75.08953 C 124.45625 75.55438 128.58516 76.40984 132.72969 77.14422 C 135.26094 77.58953 137.76484 78.22234 140.30781 78.55438 C 141.08516 78.65203 141.95625 78.02312 142.78438 77.72625 C 142.37812 76.89812 142.17891 75.80828 141.52656 75.30047 C 139.79609 73.95672 137.87031 72.86688 136.13984 71.47234 C 150.01484 73.37469 162.01094 79.06609 171.95625 88.96062 C 154.44062 82.72234 137.07344 81.67156 119.83906 89.82 C 122.76875 89.09734 125.68281 88.32 128.62812 87.67156 C 134.79219 86.32 141.05 86.26141 147.25312 87.04266 C 152.39375 87.68719 157.55391 88.61688 162.53438 90.02703 C 168.00703 91.57781 178.63203 95.80828 178.63203 95.80828 L 148.65938 94.58172 C 141.87422 94.24578 137.80391 93.39422 131.89766 94.15984 C 123.97578 95.18328 117.37031 98.40984 112.99922 105.41766 C 112.8 105.73797 112.13594 105.96844 111.72188 105.92156 C 101.01875 104.72625 91.22578 107.67156 81.82734 112.42547 C 81.28047 112.70672 80.78438 113.10906 80.28047 113.47234 C 79.78828 113.82781 79.31562 114.21453 78.53047 114.81609"/>
	</g>
</g>

<g id="line">
	<linearGradient id="line_gradient" gradientUnits="userSpaceOnUse" x1="0" y1="0" x2="1" y2="0" gradientTransform="matrix(75.961151,0,0,75.961151,482.148878,99.640099)">
		<stop offset="0" stop-color="rgb(87.06%,86.83%,86.89%)"/>
		<stop offset="0.375" stop-color="rgb(86.94%,86.71%,86.77%)"/>
		<stop offset="0.9" stop-color="rgb(71.54%,71.02%,71.15%)"/>
		<stop offset="1" stop-color="rgb(61.19%,60.48%,60.66%)"/>
	</linearGradient>
	<path style="stroke-width:1.0;fill:url(#line_gradient);stroke:rgb(4.017639%,3.95813%,4.968262%)" d="M 548.01875 96.31219 L 482.14766 96.31219 L 482.14766 102.96453 L 548.01875 102.96453 L 547.94844 109.62859 L 558.1125 99.64031 L 547.94844 89.65203 Z"/>
	<use href="#star" fill="rgb(4.017639%,3.95813%,4.968262%)" transform="translate(482.2, 99.6) scale(10)"/>
</g>

<g id="cone">
	<linearGradient id="cone_end_gradient" gradientUnits="userSpaceOnUse" x1="0" y1="0" x2="1" y2="0" gradientTransform="matrix(13.538412,0,0,13.538412,656.786817,99.640465)">
		<stop offset="0" stop-color="rgb(100%,100%,100%)"/>
		<stop offset="0.48" stop-color="rgb(74.67%,74.21%,74.33%)"/>
		<stop offset="1" stop-color="rgb(61.25%,60.54%,60.72%)"/>
	</linearGradient>
	<linearGradient id="cone_body_gradient" gradientUnits="userSpaceOnUse" x1="0" y1="0" x2="1" y2="0" gradientTransform="matrix(62.337891,0,0,62.337891,607.987318,99.640419)">
		<stop offset="0" stop-color="rgb(87.06%,86.82%,86.88%)"/>
		<stop offset="0.375" stop-color="rgb(87.01%,86.77%,86.83%)"/>
		<stop offset="0.75" stop-color="rgb(79.77%,79.40%,79.49%)"/>
		<stop offset="0.875" stop-color="rgb(72.42%,71.92%,72.04%)"/>
		<stop offset="1" stop-color="rgb(61.18%,60.47%,60.65%)"/>
	</linearGradient>
	<path style="stroke-width:1.0;fill:url(#cone_body_gradient);stroke:rgb(4.017639%,3.95813%,4.968262%)" d="M 607.9875 99.64031 C 607.9875 99.64031 663.01094 131.72234 663.55586 131.72234 C 667.29219 131.72234 670.32539 117.35906 670.32539 99.64031 C 670.32539 81.92156 667.29219 67.55828 663.55586 67.55828 C 663.01094 67.55828 607.9875 99.64031 607.9875 99.64031 Z"/>
	<ellipse cx="663.5" cy="99.56" rx="7" ry="32.1" stroke="rgb(4.017639%,3.95813%,4.968262%)" fill="url(#cone_end_gradient)"/>
	<use href="#star" fill="rgb(4.017639%,3.95813%,4.968262%)" transform="translate(608, 99.6) scale(10)"/>
</g>

<g id="cube">
	<linearGradient id="cube_gradient_top" gradientUnits="userSpaceOnUse" x1="0" y1="0" x2="1" y2="0" gradientTransform="matrix(96.247826,0,0,96.247826,718.304151,67.07499)">
		<stop offset="0" stop-color="rgb(61.18%,60.48%,60.66%)"/>
		<stop offset="0.5" stop-color="rgb(100%,100%,100%)"/>
		<stop offset="1" stop-color="rgb(61.18%,60.48%,60.66%)"/>
	</linearGradient>
	<linearGradient id="cube_gradient_sides" gradientUnits="userSpaceOnUse" x1="0" y1="0" x2="1" y2="0" gradientTransform="matrix(96.247826,0,0,96.247826,718.304151,99.640465)">
		<stop offset="0" stop-color="rgb(61.18%,60.48%,60.66%)"/>
		<stop offset="0.5" stop-color="rgb(87.05%,86.82%,86.88%)"/>
		<stop offset="1" stop-color="rgb(61.18%,60.48%,60.66%)"/>
	</linearGradient>
	<linearGradient id="cube_gradient_bottom" gradientUnits="userSpaceOnUse" x1="0" y1="0" x2="1" y2="0" gradientTransform="matrix(96.247826,0,0,96.247826,718.304151,131.723069)">
		<stop offset="0" stop-color="rgb(61.18%,60.48%,60.66%)"/>
		<stop offset="0.5" stop-color="rgb(100%,100%,100%)"/>
		<stop offset="1" stop-color="rgb(61.18%,60.48%,60.66%)"/>
	</linearGradient>

	<g stroke="rgb(4.017639%,3.95813%,4.968262%)" stroke-linejoin="round" stroke-linecap="round" fill="none">
		<path fill="url(#cube_gradient_sides)" d="M 718.30391 124.73406 L 782.46797 124.73406 L 814.55 138.71453 L 814.55 74.54656 L 750.38594 74.54656 L 718.30391 60.56609 Z"/>
		<path fill="url(#cube_gradient_top)" d="M 718.30391 60.56609 L 782.46797 60.56609 L 814.55 74.54656 L 750.38594 74.54656 Z"/>
		<path fill="url(#cube_gradient_bottom)" d="M 718.30391 124.73406 L 782.46797 124.73406 L 814.55 138.71453 L 750.38594 138.71453 Z"/>

		<path d="M 750.38594 74.54656 L 750.38594 138.71453"/>
		<path d="M 782.46797 60.56609 L 782.46797 124.73406"/>
	</g>

	<use href="#star" fill="rgb(4.017639%,3.95813%,4.968262%)" transform="translate(734.35, 99.6) scale(6, 10)"/>
</g>

<g id="sphere">
	<radialGradient id="sphere_gradient" gradientUnits="userSpaceOnUse" cx="0" cy="0" fx="0" fy="0" r="35.166" gradientTransform="matrix(1.11111,0,0,0.88889,900.2246,99.6405)">
		<stop offset="0" stop-color="rgb(87.05%,86.82%,86.87%)"/>
		<stop offset="0.375" stop-color="rgb(86.73%,86.49%,86.55%)"/>
		<stop offset="0.5" stop-color="rgb(86.09%,85.84%,85.90%)"/>
		<stop offset="0.75" stop-color="rgb(80.71%,80.36%,80.45%)"/>
		<stop offset="1" stop-color="rgb(61.18%,60.47%,60.65%)"/>
	</radialGradient>

	<circle cx="900.225781" cy="99.640312" r="39" stroke="rgb(4.017639%,3.95813%,4.968262%)" fill="url(#sphere_gradient)"/>

	<use href="#star" fill="rgb(4.017639%,3.95813%,4.968262%)" transform="translate(900.23, 99.6) scale(10)"/>
</g>

<g id="cylinder">
	<linearGradient id="cylinder_gradient" gradientUnits="userSpaceOnUse" x1="0" y1="0" x2="1" y2="0" gradientTransform="matrix(0,-77.482422,77.482422,0,1017.975599,138.271035)">
		<stop offset="0" stop-color="rgb(87.06%,86.82%,86.88%)"/>
		<stop offset="0.375" stop-color="rgb(82.35%,82.03%,82.11%)"/>
		<stop offset="0.5" stop-color="rgb(79.30%,78.92%,79.02%)"/>
		<stop offset="1" stop-color="rgb(61.18%,60.47%,60.68%)"/>
	</linearGradient>

	<path stroke="rgb(4.017639%,3.95813%,4.968262%)" fill="url(#cylinder_gradient)" d="M 985.8 67.57 L 985.8 131.57 A 32 6.8 0 0 0 1050 131.57 L 1050 67.57 A 32 6.8 0 0 0 985.8 67.57 Z"/>
	<path stroke="rgb(4.017639%,3.95813%,4.968262%)" fill="none" d="M 1050 131.57 A 32 6.8 0 0 0 985.8 131.57"/>
	<path stroke="rgb(4.017639%,3.95813%,4.968262%)" fill="none" d="M 985.8 67.57 A 32 6.8 0 0 0 1050 67.57"/>

	<use href="#star" fill="rgb(4.017639%,3.95813%,4.968262%)" transform="translate(1018, 131.6) scale(10, 4.6)"/>
</g>

<use href="#star" fill="rgb(61.178589%,60.472107%,60.647583%)" transform="translate(482.1, 153.95) scale(10)"/>
</svg>
