<?xml version="1.0" encoding="UTF-8"?>
<svg xmlns="http://www.w3.org/2000/svg" width="433.46718px" height="128.55469px" viewBox="0 0 433.46718 128.55469" version="1.2" stroke-miterlimit="10">

<g fill="none" stroke="rgb(4.017639%,3.95813%,4.968262%)">
	<path fill="white" stroke-width="2.1" d="M 426.56953 118.1875 C 426.64765 119.52344 425.47968 125.80469 432.41718 125.80469 L 1.05 125.80469 C 7.98359 125.80469 6.81953 119.52344 6.89375 118.1875 L 6.89375 10.36719 C 6.81953 9.03125 7.98359 2.75 1.05 2.75 L 432.41718 2.75 C 425.47968 2.75 426.64765 9.03125 426.56953 10.36719 Z"/>
	<path d="M 2.84297 127.80469 L 2.84297 0.75"/>
	<path d="M 430.62031 127.80469 L 430.62031 0.75"/>
	<g stroke-width="1.5">
		<path d="M 429.62031 3.33984 L 429.62031 0.75"/>
		<path d="M 3.84297 3.33984 L 3.84297 0.75"/>
		<path d="M 429.62031 125.21875 L 429.62031 127.80469"/>
		<path d="M 3.84297 125.21875 L 3.84297 127.80469"/>
	</g>
</g>
<g fill="rgb(87.059021%,86.824036%,86.882019%)">
	<path d="M 9.99922 8.75 L 422.41718 8.75 L 422.41718 25.13281 L 9.99922 25.13281 Z"/>
	<path d="M 9.99922 43.51562 L 422.41718 43.51562 L 422.41718 59.90234 L 9.99922 59.90234 Z"/>
	<path d="M 9.99922 76.28125 L 422.41718 76.28125 L 422.41718 106.46875 L 9.99922 106.46875 Z"/>
</g>

</svg>
