<?xml version="1.0" encoding="UTF-8"?>
<svg xmlns="http://www.w3.org/2000/svg" width="450.47813px" height="377.42345px" viewBox="0 0 450.47813 377.42345" version="1.2">

<g stroke="rgb(4.017639%,3.95813%,4.968262%)" stroke-miterlimit="10">
	<path fill="white" stroke-width="2.4" d="M 1.2 368.7 C 3.45 368.7 9.81329 373.91094 9.81329 376.22344 L 440.66485 376.22344 C 440.66485 373.91094 447.03204 368.7 449.27813 368.7 L 449.27813 8.72735 C 447.03204 8.72735 440.66485 3.5125 440.66485 1.2 L 9.81329 1.2 C 9.81329 3.5125 3.4461 8.72735 1.2 8.72735 Z"/>
	<g fill="none">
		<path d="M 443.27813 11.24688 L 443.27813 366.18047"/>
		<path d="M 7.2 11.24688 L 7.2 366.18047"/>
		<g stroke-width="1.5">
			<path d="M 449.27813 355.45782 C 446.01641 365.91094 435.08282 375.92657 428.00079 376.22344"/>
			<path d="M 1.2 355.45782 C 4.46563 365.91094 15.39532 375.92657 22.47735 376.22344"/>
			<path d="M 449.27813 21.96954 C 446.0125 11.51641 435.07891 1.49688 427.99688 1.2"/>
			<path d="M 1.2 21.96954 C 4.46172 11.51641 15.39532 1.49688 22.47735 1.2"/>
		</g>
	</g>
</g>

</svg>
