<?xml version="1.0" encoding="UTF-8"?>
<svg xmlns="http://www.w3.org/2000/svg" xmlns:xlink="http://www.w3.org/1999/xlink" width="121.3pt" height="23pt"
	 viewBox="0 0 121.3 23" version="1.2">

	<g fill="black">
		<path d="M -1 24 L 8.2 24 A 14 20 0 0 0 -1 13.7 Z" />
		<path d="M 122.3 24 L 113.1 24 A 14 20 0 0 1 122.3 13.7 Z" />
		<circle cx="60.63" cy="12.95" r="1.75" />
	</g>
	<g fill="none" stroke="black">
		<g stroke-width="1.5">
			<path d="M -1.0 0.7 C -0.1 11.3 14.0 23.3 23.2 24" />
			<path d="M 122.3 0.7 C 121.4 11.3 107.3 23.3 98.1 24" />
			<path d="M 9.6 17.5 L 111.8 17.5" />
		</g>
		<path d="M 3.5 10.4 C 4.5 9.7 8.8 4 9.6 2.6 L 111.7 2.6 C 112.5 4 116.8 9.7 117.8 10.4" />
		<path d="M 7 6.5 L 114.5 6.5" />
		<path d="M 18.4 6.5 C 43.7 15.05 77.8 15.05 102.9 6.5" />
	</g>

</svg>