<?xml version="1.0" encoding="UTF-8"?>
<svg xmlns="http://www.w3.org/2000/svg" xmlns:xlink="http://www.w3.org/1999/xlink" width="104.43px" height="123.9px" viewBox="0 0 104.43 123.9" version="1.2" stroke-miterlimit="10">

<path fill="white" d="M 1.2 8.73 C 3.45 8.73 9.81 3.51 9.81 1.2 L 94.62 1.2 C 94.62 3.51 100.99 8.73 103.23 8.73 L 103.23 115.17 C 100.99 115.17 74.62 120.38 74.62 122.7 L 29.81 122.7 C 29.81 120.38 3.45 115.17 1.2 115.17 Z"/>
<path fill="#DEDDDE" d="M 101.2 108.16 C 101.0 107.98 81.2 90.13 52.22 90.13 C 23.23 90.13 3.43 107.98 3.23 108.16 L 1.49 109.87 L 1.25 101.98 C 7.33 97.14 26.09 84.13 52.22 84.13 C 78.42 84.13 97.23 97.23 103.24 102.03 L 103.18 109.87 Z"/>
<g fill="none" stroke="black">
	<g stroke-width="0.5">
		<path d="M 5.2 13.74 L 5.2 45.31 C 5.2 104.23 1.73 95.51 1.25 115.16"/>
		<path d="M 99.23 13.74 L 99.23 45.31 C 99.23 104.25 102.7 95.51 103.18 115.18"/>
	</g>
	<path d="M 103.23 21.97 C 99.97 11.52 89.04 1.5 81.95 1.2"/>
	<path d="M 1.2 21.97 C 4.47 11.52 15.4 1.5 22.48 1.2"/>
	<g stroke-width="2.4">
		<path d="M 103.23 103.15 C 103.23 103.15 82.81 84.33 52.22 84.33 C 21.62 84.33 1.2 103.15 1.2 103.15"/>
		<path d="M 1.2 8.73 C 3.45 8.73 9.81 3.51 9.81 1.2 L 94.62 1.2 C 94.62 3.51 100.99 8.73 103.23 8.73 L 103.23 115.17 C 100.99 115.17 74.62 120.38 74.62 122.7 L 29.81 122.7 C 29.81 120.38 3.45 115.17 1.2 115.17 Z"/>
	</g>
</g>
</svg>
