<?xml version="1.0" encoding="UTF-8"?>
<svg xmlns="http://www.w3.org/2000/svg" xmlns:xlink="http://www.w3.org/1999/xlink" width="121.3pt" height="23pt" viewBox="0 0 121.3 23" version="1.2">

<g fill="black">
	<path d="M -1 -1 L 8.2 -1 A 14 20 0 0 1 -1 9.3 Z"/>
	<path d="M 122.3 -1 L 113.1 -1 A 14 20 0 0 0 122.3 9.3 Z"/>
	<circle cx="60.63" cy="10.05" r="1.75"/>
</g>
<g fill="none" stroke="black">
	<g stroke-width="1.5">
		<path d="M -1.0 22.3 C -0.1 11.7 14.0 -0.3 23.2 -1.0" />
		<path d="M 122.3 22.3 C 121.4 11.7 107.3 -0.3 98.1 -1.0" />
		<path d="M 9.6 5.5 L 111.8 5.5" />
	</g>
	<path d="M 3.5 12.6 C 4.5 13.3 8.8 19.0 9.6 20.4 L 111.7 20.4 C 112.5 19.0 116.8 13.3 117.8 12.6" />
	<path d="M 7 16.5 L 114.5 16.5" />
	<path d="M 18.4 16.5 C 43.7 7.95 77.8 7.95 102.9 16.5" />
</g>

</svg>
