<?xml version="1.0" encoding="UTF-8"?>
<svg xmlns="http://www.w3.org/2000/svg" xmlns:xlink="http://www.w3.org/1999/xlink" width="299pt" height="207pt" viewBox="0 0 299 207" version="1.2">

<path style="fill:none;stroke-width:2.4;stroke:rgb(4.017639%,3.95813%,4.968262%);stroke-miterlimit:10;" d="M 1.179687 197.660156 C 3.425782 197.660156 9.789062 202.875 9.789062 205.1875 L 288.34375 205.1875 C 288.34375 202.875 294.707032 197.660156 296.953126 197.660156 L 296.953126 9.109376 C 294.707032 9.109376 288.34375 3.898438 288.34375 1.582032 L 9.789062 1.582032 C 9.789062 3.898438 3.425782 9.109376 1.175781 9.109376 Z"/>

<g fill="none" stroke-width="1.5" stroke="rgb(4.017639%,3.95813%,4.968262%)" stroke-miterlimit="10">
	<path d="M 296.953125 184.417969 C 293.691406 194.871094 282.757812 204.890626 275.675782 205.1875"/>
	<path d="M 1.179687 184.417969 C 4.441406 194.871094 15.375 204.890626 22.457032 205.1875"/>
	<path d="M 296.953125 22.351562 C 293.691406 11.898438 282.757812 1.882812 275.675782 1.585938"/>
	<path d="M 1.175781 22.351562 C 4.441406 11.898438 15.371094 1.882812 22.453126 1.585938"/>

	<path d="M 7.175781 11.628906 L 7.175781 195.140626"/>
	<path d="M 290.953125 11.628906 L 290.953125 195.140626"/>
</g>

</svg>
