<?xml version="1.0" encoding="UTF-8"?>
<svg xmlns="http://www.w3.org/2000/svg" xmlns:xlink="http://www.w3.org/1999/xlink" width="701pt" height="356pt" viewBox="0 0 701 356" version="1.2" fill="none" stroke="rgb(4.017639%,3.95813%,4.968262%)" stroke-miterlimit="10">

<g id="main_contour" stroke-width="2.4">
	<path d="M 1.808594 345.929688 C 4.054688 345.929688 10.417968 351.140624 10.417968 353.453124 L 690.34375 353.453124 C 690.34375 351.140624 696.707032 345.929688 698.957032 345.929688 L 698.953126 9.214844 C 696.707032 9.214844 690.339844 4.003906 690.339844 1.691406 L 10.417968 1.691406 C 10.417968 4.003906 4.054688 9.214844 1.804687 9.214844 Z"/>
</g>

<g id="corner_curvelets" stroke-width="1.5">
	<path d="M 698.953125 332.6875 C 695.691406 343.140626 684.757812 353.15625 677.675782 353.453126"/>
	<path d="M 1.808594 332.6875 C 5.070312 343.140626 16.003906 353.15625 23.085938 353.453126"/>
	<path d="M 698.953125 22.457031 C 695.691406 12.003906 684.757812 1.988282 677.675782 1.691406"/>
	<path d="M 1.804687 22.457031 C 5.070312 12.003906 16.003906 1.988282 23.085938 1.691406"/>
</g>

<g id="side_lines">
	<path d="M 7.804688 11.734375 L 7.804688 343.410156"/>
	<path d="M 692.953125 11.734375 L 692.953125 343.410156"/>
</g>

</svg>
