<?xml version="1.0" encoding="UTF-8"?>
<svg xmlns="http://www.w3.org/2000/svg" xmlns:xlink="http://www.w3.org/1999/xlink" width="384pt" height="259pt" viewBox="0 0 384 259" version="1.2">

<g id="main_countour" fill="none" stroke-width="2.4" stroke="rgb(4.017639%,3.95813%,4.968262%)" stroke-miterlimit="10">
	<path d="M 1.808594 250.054687 C 4.054688 250.054687 10.417968 255.265624 10.417968 257.578124 L 373.1875 257.578124 C 373.1875 255.265624 379.550782 250.054687 381.800782 250.054687 L 381.796876 9.199218 C 379.550782 9.199218 373.1875 3.984374 373.1875 1.671874 L 10.417968 1.671874 C 10.417968 3.984374 4.054688 9.199218 1.804687 9.199218 Z"/>
</g>

<g id="corner_curvelets" fill="none" stroke-width="1.5" stroke="rgb(4.017639%,3.95813%,4.968262%)" stroke-miterlimit="10">
	<path d="M 381.796875 236.8125 C 378.535156 247.265624 367.601562 257.28125 360.519532 257.578124"/>
	<path d="M 1.808594 236.8125 C 5.070312 247.265624 16.003906 257.28125 23.085938 257.578124"/>
	<path d="M 381.796875 22.441406 C 378.535156 11.988282 367.601562 1.972656 360.519532 1.675782"/>
	<path d="M 1.804687 22.441406 C 5.070312 11.988282 16.003906 1.972656 23.085938 1.675782"/>
</g>

<g id="side_lines" fill="none" stroke="rgb(4.017639%,3.95813%,4.968262%)" stroke-miterlimit="10">
	<path d="M 7.804688 11.71875 L 7.804688 247.535156"/>
	<path d="M 375.796875 11.71875 L 375.796875 247.535156"/>
</g>

</svg>
