<?xml version="1.0" encoding="UTF-8"?>
<svg xmlns="http://www.w3.org/2000/svg" xmlns:xlink="http://www.w3.org/1999/xlink" width="362pt" height="280pt" viewBox="0 0 362 280" version="1.2">

<path style="fill:none;stroke-width:2.4;stroke-linecap:butt;stroke-linejoin:miter;stroke:rgb(4.017639%,3.95813%,4.968262%);stroke-opacity:1;stroke-miterlimit:10;" d="M 2.27734 269.99609 C 4.52344 269.99609 10.88672 275.21094 10.88672 277.52344 L 351.26172 277.52344 C 351.26172 275.21094 357.62891 269.99609 359.875 269.99609 L 359.875 9.60937 C 357.625 9.60937 351.26172 4.39453 351.26172 2.08203 L 10.88672 2.08203 C 10.88672 4.39453 4.52344 9.60937 2.27344 9.60937 Z M 2.27734 269.99609"/>

<path style="fill:none;stroke-width:1.5;stroke-linecap:butt;stroke-linejoin:miter;stroke:rgb(4.017639%,3.95813%,4.968262%);stroke-opacity:1;stroke-miterlimit:10;" d="M 359.875 256.75391 C 356.60938 267.21094 345.67969 277.22656 338.59766 277.52344"/>
<path style="fill:none;stroke-width:1.5;stroke-linecap:butt;stroke-linejoin:miter;stroke:rgb(4.017639%,3.95813%,4.968262%);stroke-opacity:1;stroke-miterlimit:10;" d="M 2.27734 256.75391 C 5.53906 267.21094 16.47266 277.22656 23.55469 277.52344"/>
<path style="fill:none;stroke-width:1.5;stroke-linecap:butt;stroke-linejoin:miter;stroke:rgb(4.017639%,3.95813%,4.968262%);stroke-opacity:1;stroke-miterlimit:10;" d="M 359.875 22.85156 C 356.60938 12.39844 345.67969 2.38281 338.59766 2.08594"/>
<path style="fill:none;stroke-width:1.5;stroke-linecap:butt;stroke-linejoin:miter;stroke:rgb(4.017639%,3.95813%,4.968262%);stroke-opacity:1;stroke-miterlimit:10;" d="M 2.27344 22.85156 C 5.53906 12.39844 16.47266 2.38281 23.55469 2.08594"/>

<path style="fill:none;stroke-width:1.0;stroke-linecap:butt;stroke-linejoin:miter;stroke:rgb(69.805908%,69.256592%,69.392395%);stroke-opacity:1;stroke-miterlimit:10;" d="M 16.92187 26.88672 L 345.22656 26.88672"/>
<path style="fill:none;stroke-width:1.0;stroke-linecap:butt;stroke-linejoin:miter;stroke:rgb(69.805908%,69.256592%,69.392395%);stroke-opacity:1;stroke-miterlimit:10;" d="M 16.92187 49.11328 L 345.22656 49.11328"/>
<path style="fill:none;stroke-width:1.0;stroke-linecap:butt;stroke-linejoin:miter;stroke:rgb(69.805908%,69.256592%,69.392395%);stroke-opacity:1;stroke-miterlimit:10;" d="M 16.92187 71.05469 L 345.22656 71.05469"/>
<path style="fill:none;stroke-width:1.0;stroke-linecap:butt;stroke-linejoin:miter;stroke:rgb(69.805908%,69.256592%,69.392395%);stroke-opacity:1;stroke-miterlimit:10;" d="M 16.92187 93.0 L 345.22656 93.0"/>
<path style="fill:none;stroke-width:1.0;stroke-linecap:butt;stroke-linejoin:miter;stroke:rgb(69.805908%,69.256592%,69.392395%);stroke-opacity:1;stroke-miterlimit:10;" d="M 16.92187 114.94141 L 345.22656 114.94141"/>
<path style="fill:none;stroke-width:1.0;stroke-linecap:butt;stroke-linejoin:miter;stroke:rgb(69.805908%,69.256592%,69.392395%);stroke-opacity:1;stroke-miterlimit:10;" d="M 16.92187 136.88672 L 345.22656 136.88672"/>
<path style="fill:none;stroke-width:1.0;stroke-linecap:butt;stroke-linejoin:miter;stroke:rgb(69.805908%,69.256592%,69.392395%);stroke-opacity:1;stroke-miterlimit:10;" d="M 16.92187 158.83203 L 345.22656 158.83203"/>
<path style="fill:none;stroke-width:1.0;stroke-linecap:butt;stroke-linejoin:miter;stroke:rgb(69.805908%,69.256592%,69.392395%);stroke-opacity:1;stroke-miterlimit:10;" d="M 16.92187 180.83203 L 345.22656 180.83203"/>
<path style="fill:none;stroke-width:1.0;stroke-linecap:butt;stroke-linejoin:miter;stroke:rgb(69.805908%,69.256592%,69.392395%);stroke-opacity:1;stroke-miterlimit:10;" d="M 16.92187 202.77734 L 345.22656 202.77734"/>
<path style="fill:none;stroke-width:1.0;stroke-linecap:butt;stroke-linejoin:miter;stroke:rgb(69.805908%,69.256592%,69.392395%);stroke-opacity:1;stroke-miterlimit:10;" d="M 16.92187 224.83594 L 345.22656 224.83594"/>
<path style="fill:none;stroke-width:1.0;stroke-linecap:butt;stroke-linejoin:miter;stroke:rgb(69.805908%,69.256592%,69.392395%);stroke-opacity:1;stroke-miterlimit:10;" d="M 16.92187 246.72266 L 345.22656 246.72266"/>

<path style="fill:none;stroke-width:1.0;stroke-linecap:butt;stroke-linejoin:miter;stroke:rgb(4.017639%,3.95813%,4.968262%);stroke-opacity:1;stroke-miterlimit:10;" d="M 8.27344 12.12891 L 8.27344 267.48047"/>
<path style="fill:none;stroke-width:1.0;stroke-linecap:butt;stroke-linejoin:miter;stroke:rgb(4.017639%,3.95813%,4.968262%);stroke-opacity:1;stroke-miterlimit:10;" d="M 353.875 12.12891 L 353.875 267.48047"/>

</svg>
