<?xml version="1.0" encoding="UTF-8"?>
<svg xmlns="http://www.w3.org/2000/svg" xmlns:xlink="http://www.w3.org/1999/xlink" width="362pt" height="391pt" viewBox="0 0 362 391" version="1.2" fill="none" stroke-miterlimit="10">

<g stroke="rgb(4.017639%,3.95813%,4.968262%)">
	<path stroke-width="2.4" d="M 2.27734 380.93359 C 4.52344 380.93359 10.88672 386.14453 10.88672 388.45703 L 351.26172 388.45703 C 351.26172 386.14453 357.62891 380.93359 359.875 380.93359 L 359.875 9.27734 C 357.625 9.27734 351.26172 4.0625 351.26172 1.75 L 10.88672 1.75 C 10.88672 4.0625 4.52344 9.27734 2.27344 9.27734 Z"/>
	<g stroke-width="1.5">
		<path d="M 359.875 367.69141 C 356.60938 378.14453 345.67969 388.16016 338.59766 388.45703"/>
		<path d="M 2.27734 367.69141 C 5.53906 378.14453 16.47266 388.16016 23.55469 388.45703"/>
		<path d="M 359.875 22.51953 C 356.60938 12.06641 345.67969 2.05078 338.59766 1.75391"/>
		<path d="M 2.27344 22.51953 C 5.53906 12.06641 16.47266 2.05078 23.55469 1.75391"/>
	</g>
	<path d="M 8.27344 11.79688 L 8.27344 378.41406"/>
	<path d="M 353.875 11.79688 L 353.875 378.41406"/>
</g>

<g stroke="rgb(69.805908%,69.256592%,69.392395%)">
	<path d="M 16.92187 26.55469 L 345.22656 26.55469"/>
	<path d="M 16.92187 48.55469 L 345.22656 48.55469"/>
	<path d="M 16.92187 70.55859 L 345.22656 70.55859"/>
	<path d="M 16.92187 92.50391 L 345.22656 92.50391"/>
	<path d="M 16.92187 114.44531 L 345.22656 114.44531"/>
	<path d="M 16.92187 136.39063 L 345.22656 136.39063"/>
	<path d="M 16.92187 158.33203 L 345.22656 158.33203"/>
	<path d="M 16.92187 180.33594 L 345.22656 180.33594"/>
	<path d="M 16.92187 202.27734 L 345.22656 202.27734"/>
	<path d="M 16.92187 224.22266 L 345.22656 224.22266"/>
	<path d="M 16.92187 246.22266 L 345.22656 246.22266"/>
	<path d="M 16.92187 268.16797 L 345.22656 268.16797"/>
	<path d="M 16.92187 290.11328 L 345.22656 290.11328"/>
	<path d="M 16.92187 312.11328 L 345.22656 312.11328"/>
	<path d="M 16.92187 334.05859 L 345.22656 334.05859"/>
	<path d="M 16.92187 356.0 L 345.22656 356.0"/>
</g>
</svg>
