<?xml version="1.0" encoding="UTF-8"?>
<svg xmlns="http://www.w3.org/2000/svg" width="329px" height="80px" viewBox="0 0 329 80" version="1.2" stroke-miterlimit="10">

<path fill="white" d="M -20.0 0.0 L 349.0 0.0 L 349.0 80.0 L -20.0 80.0 Z"/>

<g id="main_contour" fill="none" stroke-width="2.4" stroke="rgb(4.017639%,3.95813%,4.968262%)">
	<path d="M 39.90234 66.49219 L 316.58984 66.49219 C 316.58984 65.67578 319.55859 62.02344 321.0625 62.02344 L 321.0625 22.375 C 319.55859 22.375 316.58984 18.71875 316.58984 17.90234 L 12.96094 17.90234 C 12.96094 18.71875 9.99609 22.375 8.49219 22.375 L 8.49219 62.02344 C 9.99609 62.02344 12.96094 65.67578 12.96094 66.49219 Z"/>
</g>

<g id="grey_stripe" fill="rgb(87.059021%,86.824036%,86.882019%)">
	<path d="M 193.40234 63.04297 L 194.04297 61.84375 C 199.99609 50.45312 199.99609 33.92578 194.04297 22.53906 L 193.46484 21.35156 L 198.05078 21.60938 C 203.95312 33.73047 203.94531 50.70703 198.02734 62.81641 Z"/>
</g>

<g id="curve" fill="none" stroke="rgb(4.017639%,3.95813%,4.968262%)">
	<path style="stroke-width:1.5" d="M 197.8125 21.61328 C 204.03516 33.51172 204.03516 50.87109 197.8125 62.76953"/>
	<path d="M 201.8125 21.61328 C 208.03516 33.51172 208.03516 50.87109 201.8125 62.76953"/>
</g>

<g id="corner_curvelets" fill="none" stroke-width="1.5" stroke="rgb(4.017639%,3.95813%,4.968262%)">
	<path d="M 8.48828 32.85547 C 8.48828 26.69922 17.57812 17.90234 23.96484 17.90234"/>
	<path d="M 8.48828 51.53906 C 8.48828 57.69531 17.57812 66.49219 23.96484 66.49219"/>
	<path d="M 321.0625 32.85547 C 321.0625 26.69922 311.97656 17.90234 305.58984 17.90234"/>
	<path d="M 321.0625 51.53906 C 321.0625 57.69531 311.97656 66.49219 305.58984 66.49219"/>
</g>

<g id="horizontal_lines" fill="none" stroke="rgb(4.017639%,3.95813%,4.968262%)">
	<path d="M 171.22656 17.90234 C 192.80859 17.90234 178.77344 21.61719 202.23047 21.90234 L 314.42578 21.90234"/>
	<path d="M 171.22656 66.49219 C 192.80859 66.49219 178.77344 62.77734 202.23047 62.49219 L 314.42578 62.49219"/>
</g>
</svg>
