<?xml version="1.0" encoding="UTF-8"?>
<svg xmlns="http://www.w3.org/2000/svg" xmlns:xlink="http://www.w3.org/1999/xlink" width="1190.548pt" height="231.977pt" viewBox="0 0 1190.548 231.977" version="1.2" stroke-miterlimit="10">

<g id="figures" fill-rule="evenodd" fill="rgb(4.017639%,3.95813%,4.968262%)">
	<path
		id="archer"
		fill-rule="nonzero"
		d="
			M 68.10547 132.88672 C 68.33984 132.57422 68.40625 132.16016 68.48828 131.76172 C 68.6875 130.81641 68.82031 129.80859 69.25 128.96484 C 70.01172 127.47266 70.62891 126.01172 70.98438 124.32422 C 71.32031 122.73438 71.36719 121.04297 72.11328 119.48438 C 72.52734 118.62109 72.6875 117.60156 73.24219 116.75391 C 73.83594 115.83984 74.38281 114.91016 74.35547 113.75 C 74.34766 113.36328 74.51953 112.98828 74.78125 112.65234 C 75.42188 111.82422 76.10156 111.00391 76.05078 109.84766 C 76.03516 109.51562 76.30469 109.26953 76.55469 109.08203 C 77.15625 108.62891 77.56641 108.08203 77.57812 107.29297 C 77.58203 107.13672 77.66016 106.92969 77.77344 106.83594 C 78.89453 105.94922 79.14844 104.64453 79.50781 103.38281 C 79.625 102.97656 79.75 102.5625 80.09766 102.25781 C 80.43359 101.96875 80.82031 101.88672 81.21875 102.00781 C 81.60156 102.125 81.56641 102.49219 81.5625 102.80469 C 81.5625 103.10156 81.67188 103.35547 81.80078 103.61328 C 82.30078 104.62109 83.27344 105.37109 83.35938 106.59766 C 83.375 106.75781 83.60547 106.90234 83.73828 107.05078 C 84.78906 108.24609 85.43359 109.55859 85.00391 111.21094 C 84.81641 111.93359 84.65234 112.6875 85.07812 113.37891 C 85.44531 113.96875 85.55859 114.59766 85.50391 115.26562 C 85.42578 116.24609 85.78125 117.0625 86.40234 117.77734 C 86.6875 118.11328 87.03125 118.49219 86.96484 118.89844 C 86.74609 120.1875 88.05859 121.35547 87.22266 122.66797 C 87.19531 122.70703 87.19531 122.79688 87.22656 122.83203 C 87.73047 123.47266 87.47266 124.26172 87.64844 124.97266 C 88.11328 126.85938 88.19531 128.78516 88.0 130.72656 C 87.88281 131.89453 87.37109 132.98828 87.37109 134.17578 C 87.37109 134.5625 87.23828 134.74219 86.875 134.39844 C 86.19531 133.76953 85.63672 134.03516 85.14844 134.66016 C 84.90234 134.97656 84.69922 135.32422 84.45312 135.63672 L 96.64844 138.90625 C 96.48438 138.73828 96.17969 138.70703 95.9375 138.62891 C 95.49219 138.48047 95.23047 138.27344 95.04688 137.75 C 94.73047 136.86328 94.41016 135.91016 93.44531 135.41016 C 92.90625 135.13281 92.80859 134.65625 93.30469 134.23828 C 93.89453 133.74609 94.05859 133.11328 94.03125 132.40234 C 94.01172 131.82812 93.98828 131.25391 93.92188 130.68359 C 93.82422 129.875 93.47266 129.21094 92.67578 128.86719 C 92.1875 128.65625 91.98047 128.30469 92.08203 127.77344 C 92.28906 126.69141 92.20312 125.59766 92.21875 124.51172 C 92.23047 123.88281 92.17969 123.26172 92.38672 122.64453 C 92.54688 122.16016 92.50781 121.70703 91.96875 121.38672 C 91.54297 121.14062 91.41406 120.72266 91.79297 120.31641 C 92.11328 119.96875 92.03906 119.60547 91.83984 119.29297 C 91.52344 118.78906 91.57031 118.34375 91.85938 117.85547 C 92.25 117.1875 92.15625 116.44531 92.00391 115.75781 C 91.79297 114.79297 91.62109 113.79688 91.07422 112.92969 C 90.89062 112.63672 90.91797 112.36328 91.13672 112.0625 C 91.49219 111.57422 91.40625 111.01172 90.99219 110.66406 C 90.5625 110.30859 90.42578 109.87891 90.41016 109.40625 C 90.375 108.42578 89.94141 107.51562 89.96875 106.53516 C 89.97656 106.32812 89.96875 106.08984 90.16797 106.0 C 90.46875 105.86719 90.43359 106.19141 90.54297 106.33203 C 90.70312 106.54297 90.88672 106.75 91.17578 106.66797 C 91.44531 106.59375 91.43359 106.30078 91.46484 106.09375 C 91.61328 105.14453 91.39453 104.20703 91.33594 103.26562 C 91.26562 102.17969 90.81641 101.0 91.10938 100.04297 C 91.40625 99.08984 92.4375 98.375 93.12109 97.53125 C 96.21484 93.69922 99.50391 90.01953 102.19531 85.87891 C 103.58203 83.74219 104.88281 81.5625 105.70703 79.13281 C 105.83203 78.75781 106.06641 78.49219 106.35156 78.25391 C 107.05469 77.66406 107.47656 76.97656 107.58594 76.00781 C 107.63281 75.60547 107.98828 75.26562 107.47266 74.90625 C 108.71875 74.34375 110.05859 74.12109 111.1875 74.39844 C 112.09375 74.625 112.57422 74.36328 113.26172 73.99219 C 112.86719 73.79688 112.54297 73.62109 112.20703 73.46875 C 111.96484 73.35938 111.63672 73.0 111.61328 73.66406 C 111.60938 73.82031 111.32812 73.80469 111.16016 73.81641 C 109.98828 73.88281 108.8125 73.94141 107.64062 74.02344 C 107.24219 74.05078 107.26172 73.88672 107.30469 73.5625 C 108.22266 66.69141 107.01953 60.05859 105.05859 53.50781 C 104.40234 51.32031 103.81641 49.11328 103.23438 46.91016 C 103.04688 46.18359 102.75 45.60156 101.92969 45.35938 C 101.97656 45.60938 101.96875 45.84766 102.0625 46.03906 C 102.74609 47.37891 102.38281 48.5 101.62109 49.74609 C 99.43359 53.32812 89.32812 70.65234 87.23047 74.28906 C 87.29297 74.35547 87.35547 74.41797 87.41406 74.48438 C 89.83594 70.41797 100.32422 52.70312 102.81641 48.51562 C 104.26953 54.07031 106.10547 59.375 106.58984 64.98828 C 106.83594 67.82031 106.89844 70.65234 106.36719 73.46875 C 106.28125 73.92188 106.16016 74.08203 105.68359 74.10547 C 100.61719 74.36328 95.55078 74.65625 90.48047 74.91797 C 89.52344 74.96875 88.47266 75.25781 87.76562 74.24219 C 87.63281 74.18359 87.5 74.125 87.36328 74.06641 C 86.71484 73.79297 86.06641 73.51172 85.41406 73.24609 C 85.25 73.18359 85.07422 73.20312 84.92578 73.31641 C 84.62109 73.54688 84.22656 73.80078 83.95703 73.44141 C 83.71875 73.13281 84.19531 72.87109 84.3125 72.56641 C 84.30078 72.48047 84.28906 72.39453 84.27734 72.30859 C 83.96875 72.44922 83.90234 72.29297 84.00391 72.05078 C 84.22656 71.51562 84.48047 70.99609 84.73828 70.42969 C 85.17578 70.97656 84.71094 71.37891 84.62891 71.82031 C 84.69531 71.89062 84.76562 71.96094 84.83594 72.03125 C 85.67188 71.12109 85.76953 70.30078 85.16797 69.26172 C 85.08594 69.12109 85.01953 68.95703 84.99609 68.79688 C 84.67188 66.54297 81.83203 65.23438 79.92188 65.66016 C 79.32812 65.79297 78.76562 66.07812 78.41016 66.56641 C 77.94531 67.20703 77.34375 67.55078 76.625 67.79297 C 76.07031 67.97266 75.64844 68.34766 75.29688 68.82422 C 74.48438 69.91016 74.36328 69.94531 73.0625 69.58594 C 71.82422 69.23828 70.58594 68.89844 69.27734 69.05469 C 68.99609 69.08984 68.70703 69.10156 68.46484 69.27734 C 68.57812 69.33203 68.69531 69.38672 68.81641 69.44141 C 70.44531 69.32031 71.94141 69.92188 73.47266 70.33984 C 73.67188 70.39453 73.85156 70.49609 73.76953 70.76172 C 73.67188 71.07812 73.64453 71.44141 73.18359 71.48047 C 72.35938 71.55078 71.64844 71.88281 71.07031 72.47266 C 70.46875 73.08594 70.14062 73.8125 70.16797 74.69531 C 70.17578 75.01562 70.33203 75.38281 70.01562 75.66016 C 70.10156 75.82422 70.29297 75.99609 69.99219 76.14453 C 69.26562 76.70703 68.8125 77.49609 68.28906 78.22266 C 67.87891 78.78906 67.46094 79.11328 66.73438 78.73438 C 66.74219 79.17578 67.0625 79.12891 67.27734 79.19141 C 67.54688 79.27344 67.98828 78.95312 68.02344 79.5625 C 68.05469 80.10547 67.80078 80.47266 67.31641 80.58594 C 66.72266 80.72656 66.12891 80.48828 65.52734 80.45703 C 65.46875 80.51953 65.40625 80.57812 65.34375 80.64062 C 66.26172 81.73828 67.20312 81.85156 68.77344 81.04688 C 68.69922 81.5625 68.69922 81.5625 67.93359 81.82812 C 68.70703 82.20703 69.26562 82.0625 69.72656 81.49609 C 70.10938 81.02344 70.07812 80.28906 70.75 79.89453 C 70.85938 80.29688 70.98047 80.63281 70.67969 80.95312 C 70.57812 81.06641 70.53125 81.15625 70.58203 81.32422 C 71.1875 83.51172 71.42188 85.79688 72.46484 87.86328 C 73.08594 89.10156 72.85156 90.43359 72.76172 91.75 C 72.73047 92.18359 72.44141 92.74219 73.23438 92.97656 C 73.55469 93.07031 73.28125 93.52734 73.18359 93.81641 C 73.01953 94.31641 72.54688 94.8125 73.35938 95.25 C 73.64844 95.40625 73.4375 95.79688 73.14844 95.92969 C 72.40625 96.26953 72.3125 96.85938 72.43359 97.57422 C 72.62109 98.66797 72.26562 99.67969 71.81641 100.64062 C 70.67188 103.08984 70.23438 105.73047 69.63281 108.33594 C 69.20312 110.19531 68.51172 111.99609 68.46094 113.9375 C 68.46094 114.04297 68.41797 114.17578 68.34766 114.25 C 67.04297 115.58594 66.99219 117.34766 66.75781 119.03125 C 66.64453 119.87109 66.45703 120.64453 65.98047 121.35938 C 65.51953 122.05469 65.16797 122.80859 65.46875 123.6875 C 65.49219 123.76172 65.52344 123.88281 65.48438 123.92188 C 64.54688 124.92969 65.00391 126.12891 65.00391 127.26562 C 65.00391 127.51953 65.02734 127.82812 64.90234 128.01562 C 64.18359 129.08594 64.21484 130.33984 63.97266 131.52344 C 63.82812 132.24219 63.54297 132.44531 62.91016 132.03125 Z
			M 88.96484 98.18359 C 88.77734 96.5625 87.94531 95.23438 87.05078 93.93359 C 86.87891 93.67969 86.58984 93.44531 86.63281 93.10938 C 86.72266 92.4375 86.32031 91.86719 86.30078 91.19922 C 86.28906 90.78125 86.26172 90.10938 85.83984 89.88281 C 84.95703 89.40234 84.57031 88.5 83.89453 87.85156 C 83.25781 87.23828 82.99219 86.47656 83.04688 85.55859 C 83.07422 85.03906 83.35938 84.65234 83.47656 84.18359 C 83.74609 83.06641 84.19141 81.94141 85.0 81.16797 C 85.61328 80.57812 86.64844 81.03906 87.49219 80.96484 C 87.51953 80.96094 87.55078 80.96875 87.57812 80.96484 C 88.14844 80.83594 88.30859 81.17188 88.39062 81.64453 C 89.32422 86.87891 90.24219 92.11328 91.21875 97.33984 C 91.35547 98.07812 91.00781 98.43359 90.60938 98.84375 C 90.15625 98.62109 90.19531 97.77734 89.70703 97.91797 C 89.26953 98.04688 89.39453 98.75781 89.25 99.20703 C 89.19141 99.48047 89.03906 99.58203 88.96484 99.25 C 88.89062 98.91406 88.96094 98.54297 88.96484 98.18359
			M 89.32422 136.01953 C 89.6875 136.17188 90.11719 135.79297 90.30859 136.30469 C 90.34766 136.40625 90.41406 136.72656 90.20312 136.66797 C 89.88281 136.57812 89.35156 136.73047 89.32422 136.01953
			M 91.51172 96.91406 C 90.57422 91.77344 89.63281 86.63672 88.69141 81.49609 C 88.64844 81.26953 88.42969 80.96484 88.89844 80.9375 C 90.66797 80.83594 92.38672 80.10547 94.15625 80.32422 C 96.08594 80.55859 97.90625 80.17969 99.76172 79.84375 C 101.21875 79.58203 102.61328 78.98828 104.13281 79.05078 C 104.71094 79.07422 104.90625 79.22266 104.60156 79.82031 C 103.57422 81.86328 102.39453 83.81641 101.15625 85.73438 C 98.42188 89.98438 95.16016 93.80078 91.57812 97.59766 C 91.54688 97.25 91.54297 97.08203 91.51172 96.91406
			M 105.32812 74.80469 C 104.95312 75.15234 104.28906 75.41797 104.05469 76.05078 C 103.86328 76.55859 103.47656 76.69141 103.02734 76.83594 C 99.99609 77.8125 96.83594 77.53516 93.74219 77.61328 C 92.03906 77.65625 90.28125 77.26562 88.53516 77.29297 C 88.07422 77.30078 87.88281 77.10547 87.78906 76.67969 C 87.58203 75.75 87.86719 75.36328 88.85156 75.32031 C 92.60156 75.14844 96.35156 74.95312 100.10156 74.81641 C 101.85938 74.75391 103.62109 74.80469 105.32812 74.80469
			M 87.51562 77.04297 C 87.09766 76.82031 86.41016 77.09766 86.29297 76.55078 C 86.1875 76.06641 86.85547 76.05078 87.11328 76.0625 C 87.71875 76.09375 87.26562 76.72266 87.51562 77.04297
			M 83.52734 76.23828 C 83.47266 76.65234 83.07031 76.44141 82.89062 76.49219 C 82.10938 76.5625 81.55469 76.22656 81.03125 75.80859 C 80.90234 75.70312 80.58594 75.60547 80.80469 75.37891 C 80.96094 75.21484 81.26172 75.21875 81.38281 75.48438 C 81.52344 75.80078 81.69531 75.82031 81.98047 75.68359 C 82.32812 75.51953 82.66016 75.68359 82.95703 75.83984 C 83.16016 75.95312 83.57422 75.89062 83.52734 76.23828
		"
	/>
	<path
		id="fighter"
		d="
			M 128.4 128.0 L 128.7 126.1 L 128.3 125.0 L 128.3 124.5 L 128.4 124.3 L 128.7 124.0 L 129.2 123.5 L 129.5 123.0 L 129.8 122.0 L 130.5 120.8 L 131.7 118.5 L 128.5 117.0 L 130.7 115.5 L 135.3 111.6 L 134.6 110.6 L 138.0 107.7 L 138.2 107.0 L 139.1 106.8 L 141.7 104.4 L 141.3 99.3 L 141.0 99.3 L 140.7 99.6 L 140.4 100.0 L 140.1 100.2 L 138.5 100.2 L 137.6 101.3 L 131.5 98.2 L 131.3 97.5 L 130.1 96.4 L 129.6 96.4 L 129.5 97.2 A 2.1 0.9 20 0 1 127.3 97.1 L 127.4 95.5 L 126.7 95.1 L 126.5 94.8 L 126.4 94.4 L 126.3 93.5 L 126.3 93.0 L 126.4 92.4 L 126.6 91.5 L 126.7 90.9 L 126.9 90.5 L 127.1 89.5 L 128.5 88.9 L 130.3 75.7 L 130.0 75.4 L 130.0 73.5 L 130.1 73.2 L 129.9 71.8 A 1.1 1.07 0 1 0 128.8 73.6 L 127.9 80.3 A 15 12.8 -20 0 1 126.1 61.9 L 129.4 67.5 L 129.8 67.7 L 130.7 67.7 L 130.8 67.3 L 131.2 67.2 L 131.3 66.6 L 134.1 66.9 L 134.2 68.4 L 134.4 68.6 L 135.5 68.6 L 136.9 66.9 L 137.8 66.9 L 137.9 67.7 L 138.3 67.8 L 138.4 69.1 L 138.8 69.8 L 139.8 70.6 L 140.3 70.6 L 140.3 71.5 L 139.0 72.0 L 138.2 72.5 L 137.5 73.3 L 136.9 74.4 L 136.2 74.4 L 135.6 73.1 L 135.3 72.8 L 135.0 72.7 L 134.7 72.7 L 134.4 72.8 L 134.1 73.1 L 133.8 73.5 L 133.8 75.2 L 132.8 76.2 L 130.9 89.2 L 131.0 89.3 L 131.9 89.4 L 132.5 89.9 L 132.6 90.9 L 132.9 91.4 L 133.2 91.8 L 133.9 92.2 L 138.7 92.4 L 138.9 92.3 L 139.7 91.0 L 139.7 90.0 L 139.6 89.5 L 139.6 88.7 L 139.7 88.3 L 139.7 87.5 L 138.3 87.5 L 138.2 87.4 L 138.2 87.3 L 141.7 84.0 C 141.7 81.7 143.3 79.7 144.3 79.6 L 144.5 79.5 L 144.6 76.3 L 143.5 75.8 L 144.6 75.0 L 144.4 72.3 L 143.3 71.7 L 144.2 70.8 L 144.2 70.1 L 143.5 69.3 L 146.8 65.8 L 147.6 66.7 L 148.2 65.9 L 149.1 66.6 L 149.6 65.3 L 153.4 66.5 L 153.4 67.7 L 155.4 68.5 L 154.3 70.0 L 155.1 72.5 L 156.5 72.9 L 155.5 73.8 L 157.0 76.5 L 157.7 76.4 L 158.6 75.5 L 159.5 76.4 L 161.7 76.7 L 162.7 76.4 L 165.9 78.0 L 165.3 75.6 L 162.0 73.5 L 164.8 66.1 L 175.0 68.4 L 182.3 97.8 L 182.3 105.5 L 181.1 105.0 L 180.1 103.9 L 174.0 100.2 L 172.2 99.1 L 171.0 98.7 L 171.0 97.2 L 169.0 89.2 L 165.5 89.8 L 163.7 90.3 L 162.4 92.7 L 162.4 94.4 L 161.4 96.1 L 161.4 97.7 L 161.6 98.2 L 161.6 98.8 L 161.3 99.5 L 161.3 103.4 L 161.0 104.0 L 161.0 104.6 L 162.3 105.8 L 163.0 108.0 L 163.6 108.9 L 164.7 109.6 L 164.7 111.3 L 165.7 112.2 L 165.7 113.7 L 166.7 116.5 L 169.5 121.2 L 170.2 122.0 L 171.1 122.8 L 167.9 126.8 L 168.2 128.0 L 154.5 128.0 L 152.1 122.6 L 151.3 122.0 L 151.1 121.5 L 149.5 121.5 L 148.5 122.7 L 148.6 124.4 L 146.9 127.4 L 142.0 125.0 L 140.9 126.0 L 139.1 126.0 L 138.6 127.5 Z
		"
	/>

	<path
		id="zombies"
		d="
			M 331.18359 85.88672 C 331.19531 85.82031 331.22266 85.75781 331.21875 85.6875 L 331.35547 85.64062 L 331.54688 86.16406 L 332.11719 86.77344 L 332.23828 87.56641 L 333.16797 88.51562 C 332.80859 87.98438 332.61719 87.56641 332.59766 87.21484 C 332.71875 87.32422 332.83984 87.33203 332.9375 87.25391 C 332.55859 86.83203 332.19922 86.36328 331.85547 85.84375 C 332.00781 85.74219 332.07812 85.61328 332.06641 85.44141 L 332.76953 86.64453 L 332.4375 85.40234 L 332.69141 84.85156 L 333.63281 86.54297 L 333.21875 90.32422 L 331.91406 88.07422 Z M 342.65625 83.91797 C 342.65625 83.91797 342.43359 84.23047 342.13281 84.65234 L 341.66797 84.16016 L 341.64453 84.14062 C 341.86719 83.96875 342.08984 83.73438 342.28906 83.48828 Z M 355.50391 91.9375 C 355.50391 91.9375 355.76562 92.08594 355.98828 91.41797 C 356.07422 91.15234 356.03906 90.66797 355.94141 90.10938 C 356.03125 90.12891 356.12109 90.14062 356.19141 90.13672 C 356.51953 90.11719 357.21875 88.55859 357.21875 88.55859 C 357.21875 88.55859 357.21875 89.39062 357.17578 89.78516 C 357.13281 90.17969 356.91406 90.62109 356.80469 91.21484 C 356.69531 91.80469 357.21875 91.34375 357.21875 91.34375 C 357.21875 91.34375 357.08984 92.57422 356.98047 93.07812 C 356.87109 93.58203 356.32031 93.21094 355.99219 93.89062 C 355.94141 93.99609 355.90625 94.15234 355.875 94.32422 C 355.67969 93.69141 355.50391 91.9375 355.50391 91.9375 M 355.48047 88.16406 C 355.41406 87.93359 355.34766 87.71875 355.28906 87.53125 C 355.03125 86.70312 355.61328 86.04297 355.93359 85.75 C 355.76562 86.19531 355.64062 86.62891 355.64062 87.01953 C 355.64062 87.54688 355.57031 87.79297 355.48047 88.16406 M 393.55469 75.125 L 392.13672 73.79297 C 392.13672 73.79297 392.24609 73.41797 392.13672 73.11719 C 392.02734 72.80859 391.80859 72.89453 391.80859 72.89453 C 391.80859 72.89453 392.13672 72.34766 391.91797 71.89062 C 391.69922 71.43359 391.08984 71.87109 391.08984 71.87109 C 391.08984 71.87109 391.37109 71.21484 391.08984 70.84375 C 390.80469 70.47266 390.52344 70.82422 390.52344 70.82422 C 390.52344 70.82422 390.52344 70.36328 390.12891 70.25391 C 389.73438 70.14453 389.14453 70.97656 389.14453 70.97656 L 386.24219 68.20312 L 386.39453 68.03125 L 386.24219 67.58984 C 386.24219 67.58984 387.11719 66.91406 387.39844 66.56641 C 387.68359 66.21875 388.23047 66.17188 388.40234 66.0 C 388.57812 65.82422 388.57812 65.69531 388.57812 65.69531 C 388.57812 65.69531 386.19922 63.3125 385.76172 63.14062 C 385.32422 62.96484 385.15234 63.22656 385.15234 63.22656 L 384.01562 65.5625 C 384.01562 65.5625 383.86328 65.78125 383.44922 65.95703 C 383.03516 66.12891 382.98828 67.13281 382.98828 67.13281 L 384.99609 68.90234 L 385.45703 68.96875 L 388.42578 72.34766 C 388.42578 72.34766 388.14062 73.00391 387.83594 73.53125 C 387.53125 74.05469 387.53125 75.60156 387.53125 75.60156 C 387.53125 75.60156 387.46484 75.99609 387.16016 76.58594 C 386.85547 77.17188 386.11328 79.18359 385.85156 80.20703 C 385.58984 81.23438 384.34375 83.74609 384.19141 84.35547 C 384.03906 84.96875 383.53516 85.07422 383.53516 85.07422 C 383.53516 85.07422 382.77344 84.53125 381.92188 84.02734 C 381.07031 83.52734 379.49609 83.46094 379.28125 83.54688 C 379.0625 83.63672 378.82031 83.39453 378.49219 82.95703 C 378.16406 82.51953 377.86328 82.82812 376.79297 82.43359 C 375.72266 82.04297 373.91016 80.55859 373.91016 80.55859 C 373.91016 80.55859 373.05859 80.03516 373.125 79.94531 C 373.19141 79.85938 373.67188 80.05469 374.17188 79.94531 C 374.67578 79.83594 373.53906 79.70703 373.58203 79.37891 C 373.625 79.05078 373.86719 79.03125 373.88672 78.57031 C 373.91016 78.11328 371.70703 76.23438 371.22656 75.84375 C 370.74609 75.44922 370.46094 75.27734 370.22266 75.09766 C 369.98047 74.92578 369.80469 73.94531 369.85156 73.63672 C 369.89453 73.33203 370.26562 73.08984 370.44141 72.61328 C 370.61328 72.13281 370.70312 71.95703 370.70312 71.95703 C 370.70312 71.95703 370.94141 71.84766 371.16016 71.73828 C 371.37891 71.62891 371.68359 70.91016 371.85938 70.40625 C 372.03125 69.90625 371.79297 69.6875 371.53125 69.62109 C 371.26953 69.55469 371.39844 68.05078 371.3125 67.02344 C 371.22656 65.99609 370.39453 65.51562 369.63281 65.125 C 368.86719 64.73047 367.66797 64.86328 367.25391 64.94922 C 366.83984 65.03906 366.85938 65.08203 365.89844 65.125 C 364.9375 65.16797 364.76562 66.65234 364.67578 67.11328 C 364.58984 67.57031 364.58984 69.05469 364.49609 69.38281 C 364.40234 69.71094 364.4375 69.48828 364.23828 69.57812 C 364.04297 69.66406 364.19531 70.23438 364.23828 70.69141 C 364.28516 71.14844 364.50391 71.5625 364.74219 71.71875 C 364.98047 71.87109 364.74219 72.61328 364.74219 72.61328 L 364.8125 72.86328 L 364.24219 72.86328 C 363.67578 72.86328 363.38672 73.12891 362.86328 73.25781 C 362.33594 73.39062 361.89453 72.86328 361.56641 72.83984 C 361.23828 72.82031 360.73047 73.54297 360.46875 73.82812 C 360.27344 74.04297 359.83203 74.04688 359.15625 74.10938 C 358.87109 73.92969 358.64453 73.85156 358.64453 73.85156 C 358.64453 73.85156 358.92188 73.10547 359.07812 72.82812 C 359.23438 72.55078 358.63281 72.00781 357.99219 71.46875 C 357.35547 70.92578 356.87891 70.26562 356.55078 69.59766 C 356.22266 68.93359 356.01562 69.11719 355.84766 68.96484 C 355.67969 68.81641 355.64453 67.47266 355.94922 66.72266 C 356.25391 65.97266 356.26562 65.23828 356.26562 65.23828 C 356.90625 65.14453 356.80078 64.76953 356.78516 64.19922 C 356.76562 63.625 356.28125 62.99219 356.24219 62.53125 C 356.20703 62.06641 356.05469 60.51953 356.125 60.48047 C 356.19531 60.44141 356.60547 58.21094 356.60547 58.21094 C 356.60547 58.21094 356.99609 58.49219 357.35547 58.74219 C 357.71094 58.99219 359.04688 60.25391 359.55078 60.79297 C 360.05469 61.32812 360.58594 62.14453 360.70312 62.51562 C 360.82031 62.88672 361.10156 63.10547 361.53906 63.07031 C 361.97656 63.03516 362.19922 62.62109 362.23828 62.22656 C 362.28125 61.83594 361.27734 60.61719 360.73828 59.91016 C 360.19922 59.20703 359.25 58.53516 358.42969 58.03906 C 357.60938 57.54688 357.07422 56.82812 357.07422 56.82812 L 356.95312 56.46875 C 356.95312 56.46875 356.99609 56.35547 357.03906 56.21875 C 357.07812 56.08203 356.67969 55.6875 356.39844 55.41016 C 356.11328 55.13281 355.79688 54.70703 355.69141 54.76172 C 355.58594 54.81641 355.33984 54.79297 355.20312 54.78906 C 355.07031 54.78125 353.0625 58.22266 352.97656 58.43359 C 352.88672 58.64844 353.0 58.91016 353.0 58.91016 C 351.54688 59.17969 351.03516 59.90625 350.625 60.68359 C 350.21484 61.46484 350.16016 63.27344 350.16016 63.27344 C 350.16016 63.27344 350.14062 63.34766 349.88281 63.54688 C 349.625 63.74219 349.63281 64.40234 349.66406 64.98438 C 349.69531 65.57031 350.28125 65.57812 350.28125 65.57812 C 350.28125 65.57812 350.29688 65.88281 350.24219 66.01953 C 350.19141 66.15625 350.18359 66.24219 350.09766 66.46875 C 350.01172 66.69141 350.05469 66.85938 350.05469 66.85938 C 350.05469 66.85938 349.91406 66.71484 349.73047 66.76172 C 349.55078 66.80859 349.26562 66.96875 348.88281 66.98828 C 348.49609 67.00781 348.33594 67.41797 348.14062 67.53906 C 347.94531 67.66016 347.24609 67.27734 346.92969 67.16406 C 346.61328 67.05078 346.49609 67.66406 346.48438 67.79297 C 346.47656 67.92188 343.53125 68.05469 343.42188 68.02734 C 343.30859 67.99609 342.95703 67.26172 342.94141 66.89453 C 342.92188 66.53125 342.55859 65.92578 342.48828 65.63672 C 342.41797 65.34766 342.41406 64.96094 342.43359 64.61328 C 342.45312 64.26172 342.33984 64.16016 342.16016 63.96875 C 341.98828 63.77734 341.85938 64.11328 341.77734 64.30078 C 341.69531 64.48438 341.57812 65.09766 341.59375 65.37109 C 341.60938 65.64453 341.32031 65.71484 341.15234 65.32031 C 340.98438 64.92578 340.84766 64.71484 340.47656 64.64062 C 340.10547 64.57031 339.83203 64.96875 339.82422 65.15234 C 339.8125 65.33594 340.46484 65.85156 340.51172 66.01562 C 340.55469 66.17578 340.33984 66.26172 340.21094 66.23047 C 340.07812 66.20312 339.85938 66.19531 339.57031 66.26562 C 339.28125 66.33594 339.23047 66.79688 339.23047 66.79688 C 339.23047 66.79688 339.08984 66.50781 338.77344 66.47266 C 338.46094 66.43359 338.74609 67.02344 338.75781 67.22266 C 338.76953 67.42578 339.0625 67.77734 339.23828 67.98828 C 339.41406 68.19922 339.18359 68.64844 339.11719 68.81641 C 339.05078 68.98828 339.125 69.34766 339.12109 69.57031 C 339.11328 69.78906 338.89453 70.16797 338.82031 70.5 C 338.74609 70.83594 339.01562 71.09375 339.17969 71.38281 C 339.33984 71.66406 339.73047 71.48047 339.78516 71.76953 C 339.83594 72.0625 340.03516 71.99609 340.48828 72.24609 C 340.94141 72.5 341.27344 72.1875 341.88281 71.95703 C 342.49219 71.72266 344.55078 71.76172 344.55078 71.76172 C 344.19141 71.89453 343.49609 73.86328 343.14062 75.37891 C 342.51172 73.97266 341.77344 73.12109 340.92578 72.88281 L 339.22656 72.73438 L 337.58984 72.16406 L 337.15625 72.26953 L 336.73047 71.87891 C 336.52734 71.37109 336.32812 71.0 336.125 70.78516 L 333.41406 68.24219 C 333.01172 67.92188 332.63672 67.73828 332.29297 67.69922 C 330.59766 67.70703 329.47266 68.66406 328.91016 70.57422 C 328.76562 71.38281 329.11328 72.11719 329.92188 72.76953 L 330.52734 73.35547 L 331.19141 73.83594 C 331.27734 73.89062 331.35938 73.9375 331.44141 73.98047 L 330.57812 74.40234 C 328.48828 75.09375 327.44922 76.68359 327.46875 79.17188 C 327.47266 79.21094 327.46094 79.25781 327.46094 79.29688 L 324.76953 79.66406 C 324.56641 79.23438 324.29688 78.77734 323.96875 78.29297 C 323.79688 77.54688 323.16406 77.00391 322.07422 76.6875 C 322.13672 76.63672 322.20312 76.58984 322.27734 76.55078 L 321.97656 76.66016 C 321.91797 76.64453 321.85938 76.62891 321.79688 76.61719 C 321.75391 76.56641 321.72266 76.50781 321.70703 76.42969 C 321.70703 76.48828 321.71875 76.54688 321.74219 76.60156 C 321.73047 76.60547 321.71875 76.60547 321.70703 76.60547 L 321.47656 76.36328 L 321.66406 76.60156 C 321.66406 76.60547 321.66406 76.61328 321.66406 76.61719 C 321.56641 76.63281 321.47266 76.64844 321.37891 76.66406 C 321.17969 76.62891 320.79297 76.64453 320.22266 76.70312
			C 320.05469 76.79297 319.89453 76.83203 319.72266 76.82422 C 319.58594 76.94531 319.44141 77.00391 319.29297 77.00391 L 318.96094 77.15234 L 318.29297 77.20312 L 319.08203 77.27344 L 318.54297 77.57422 C 318.69922 77.49219 318.84375 77.4375 318.96484 77.41016 C 318.46875 77.67578 318.12891 77.99219 317.94141 78.35156 C 317.84375 78.79688 317.8125 79.20703 317.88281 79.60547 L 317.70312 80.89844 L 317.76953 81.0 L 316.01953 81.37891 L 314.59766 82.25781 L 314.13672 82.66016 L 313.07422 83.42969 L 312.57422 84.33203 L 311.80469 84.75 L 311.80469 85.86328 L 310.97266 86.54297 L 310.14453 87.17188 L 309.27344 88.24609 L 307.42969 89.17578 L 305.75781 89.80859 L 304.92969 91.10547 C 304.52734 91.45703 304.18359 91.96875 303.90625 92.64062 L 303.82422 93.01953 L 301.92578 94.12109 L 301.53516 94.47266 C 301.48438 94.89062 301.69531 94.96094 302.17578 94.65234 L 301.53516 95.27344 L 301.44531 95.52344 C 301.58594 95.73438 301.79297 95.79297 302.05469 95.71484 C 302.60547 95.33203 303.13672 94.86328 303.6875 94.3125 L 302.17578 96.27344 C 302.34375 96.77344 302.57422 96.97656 302.88672 96.875 L 304.54688 94.79297 L 303.63672 97.31641 C 303.63672 97.51562 303.73438 97.64453 303.95703 97.73438 C 304.22656 97.70703 304.44531 97.54688 304.63672 97.24609 L 305.30859 95.59375 L 305.59766 95.05469 L 306.35156 94.62109 L 306.85938 95.67188 L 306.96875 96.24219 L 307.12891 96.44531 C 307.67969 96.77344 307.92969 96.67188 307.89062 96.15234 L 307.64844 95.19531 C 307.64844 95.11328 307.58984 94.99219 307.46875 94.86328 C 307.55859 94.62109 307.60156 94.33984 307.55078 94.04297 C 307.60156 93.79297 307.60156 93.54297 307.60156 93.28125 C 307.78125 92.77344 307.96484 92.29297 308.16016 91.83594 L 309.33203 91.87109 L 309.43359 92.66797 L 309.25391 94.51953 L 308.85156 95.27344 L 308.98047 95.75391 L 308.67188 97.75391 L 308.49219 98.17578 L 308.63281 98.17578 L 308.58203 99.60547 L 308.95312 97.51562 L 309.22266 98.29688 L 309.18359 97.17578 L 309.80078 96.42188 L 309.47266 95.26172 L 310.22266 95.51172 L 310.375 94.83984 L 310.85547 94.39062 L 310.51562 94.08984 C 310.43359 93.79297 310.46484 93.44141 310.58594 93.03906 L 311.57422 92.53906 C 311.85547 92.55078 312.07422 92.71875 312.23438 93.01953 L 312.30469 92.42969 L 312.05469 91.80859 L 312.21484 92.12109 L 312.52734 92.26953 L 312.48438 91.92969 L 314.66797 91.20703 L 315.13672 90.92578 L 315.69922 91.12891 L 316.01172 91.64844 L 316.41016 93.05078 L 316.5 92.64062 C 316.57812 92.4375 316.73047 92.41016 316.92969 92.53125 L 316.96094 93.05078 L 317.24219 93.14062 L 317.40234 93.37109 L 317.89062 93.54297 L 318.05078 94.94531 L 318.18359 95.29297 L 318.65234 94.97266 L 319.24219 95.54297 L 319.67578 96.70312 L 320.41406 97.90625 L 320.74219 98.01562 C 320.73438 98.38672 320.89453 98.77734 321.24219 99.17578 C 320.99219 98.625 320.94531 98.375 321.11719 98.40625 L 321.09375 98.44531 L 321.28516 98.15625 C 321.22656 98.625 321.25781 98.89844 321.38672 98.97656 L 321.38672 98.61719 L 321.75781 98.11719 L 322.125 101.75781 L 321.30469 105.58203 L 320.27344 106.96484 L 320.125 107.60547 L 320.25391 107.60547 L 320.15234 107.86719 L 320.20312 108.16797 L 319.90234 108.32812 L 319.69531 108.49609 L 320.27344 108.60547 C 320.21484 109.02734 319.99219 109.32812 319.625 109.50781 L 319.48438 109.42578 L 319.44141 109.80859 L 319.94531 109.45703 C 318.75391 111.05859 317.88281 112.67188 317.30859 114.30469 L 317.19922 114.98438 L 315.64844 117.95703 L 315.47656 119.03906 L 314.77734 119.42969 L 315.19922 119.84766 L 314.96875 120.32031 L 315.02734 120.72266 L 314.28906 121.71094 L 314.25781 122.10156 L 313.79688 122.69531 L 313.40625 123.69531 L 313.45703 123.95312 L 313.15625 124.89453 L 313.60547 125.68359 L 314.31641 126.03906 C 315.12891 126.35547 315.92188 126.49609 316.69141 126.45703 L 317.26953 126.16406 L 317.44141 125.69531 L 317.35156 125.24609 L 317.74219 124.64453 L 317.64062 123.84375 L 317.74219 123.18359 L 318.14062 122.66406 C 318.18359 122.40234 318.16016 122.10156 318.05078 121.76172 L 318.22266 121.58984 C 318.40234 121.33203 318.69141 121.32031 319.10156 121.5625 L 319.19141 120.85156 L 319.00391 119.96094 L 319.69531 119.10938 L 321.22656 116.68359 L 324.16797 111.53125 L 325.0 110.58984 L 325.96875 109.11719 L 325.98047 108.24609 L 326.07031 108.08594 L 325.89062 107.84766 L 326.07031 106.95703 L 327.21094 103.91016 L 327.33203 102.14062 L 328.69531 99.85547 L 328.83594 101.67969 C 328.88281 102.47266 329.05469 103.16016 329.33594 103.76172 L 329.96484 104.32422 L 329.76562 105.97266 L 330.03516 106.21484 L 330.76562 108.30859 L 330.63672 109.02734 C 330.72656 109.49609 330.9375 109.82031 331.26562 109.98828 L 331.10547 111.14062 L 331.48828 112.49609 L 331.12109 119.70703 C 331.18359 119.96094 331.30078 120.10938 331.48828 120.14062 L 331.92969 120.375 L 331.02344 124.38672 L 331.10547 125.06641 C 332.0625 125.72266 332.8125 125.87891 333.37109 125.54297 C 333.80469 125.34766 334.15234 125.07422 334.40234 124.71094 C 334.53516 124.30078 334.48828 123.89844 334.29297 123.51953 L 334.60156 122.97266 L 335.73047 123.71484 L 337.14062 123.80469 C 337.70312 123.70312 338.09375 123.58203 338.30469 123.44531 L 338.46484 122.91406 L 338.13281 122.46484 L 337.96484 121.78125 L 337.3125 121.11328 L 336.48047 119.98828 L 335.96094 118.87891 L 336.02344 118.55859 L 335.85938 117.95703 L 335.64062 115.57422 L 335.80078 115.20312 L 335.87109 114.13281 L 335.44141 113.80469 L 335.67969 113.33203 L 335.48828 111.00781 L 335.51953 109.92969 L 335.29297 109.41797 L 335.22266 109.05859 L 335.17969 108.28906 L 335.76172 107.85547 L 335.93359 108.21094 L 335.94531 109.15625 L 336.31641 109.20312 C 336.30859 109.35547 336.35547 109.48047 336.44141 109.59766 C 336.37891 110.27344 336.39844 110.94531 336.48828 111.58594 L 336.64844 110.92969 L 336.83203 110.87891 L 336.48438 110.41406 L 336.66016 109.47266 C 336.43359 108.94531 336.27344 108.15234 336.1875 107.11328 C 336.35547 107.07812 336.47656 106.95312 336.55469 106.74609 L 336.35938 106.57812 L 336.69531 105.89844 L 336.29297 105.87891 L 336.16406 105.28906 L 336.60156 103.10547 L 336.66406 97.92578 L 336.82422 98.37109 C 336.78516 97.89453 336.78516 97.78516 336.83984 98.03125 C 336.99609 97.97266 337.125 98.08203 337.23438 98.36719 L 336.99219 97.23828 L 337.10156 96.83594 L 338.49609 95.39844 L 340.44141 102.21094 C 340.32031 104.52734 340.01953 105.73438 339.66406 106.69531 C 339.29688 107.70312 339.76172 107.42188 339.80859 108.02734 C 339.85938 108.62891 338.74219 110.09766 338.5625 110.45703 C 338.37891 110.8125 338.88281 110.65625 339.39062 110.21094 C 339.89844 109.76172 340.29688 108.93359 340.44531 108.94531 C 340.58984 108.95703 340.375 109.35156 340.30078 109.70312 C 340.22656 110.05469 340.71875 109.66406 340.76953 109.53516 C 340.81641 109.40234 340.8125 111.125 340.67969 112.03125 C 340.54297 112.93359 340.75781 113.51172 340.98438 114.37891 C 341.21094 115.24609 341.46094 118.93359 341.4375 119.52344 C 341.41016 120.11328 341.17188 121.11328 341.17969 121.64453 C 341.19141 122.17578 340.55469 122.63281 340.42969 123.40625 C 340.30469 124.18359 339.04297 124.61719 338.87891 125.33984 C 338.71484 126.0625 341.15625 126.44922 341.8125 126.39453 C 342.46875 126.34375 343.32812 125.58203 343.37109 125.30859 C 343.41016 125.03125 343.20703 124.30859 343.20703 124.30859 C 343.20703 124.30859 343.74219 124.39062 343.9375 123.86719 C 344.03125 123.60156 344.01172 123.19531 343.96484 122.84766 L 345.6875 123.03516 L 349.13672 124.60547 C 350.75 124.50391 351.44141 123.95312 351.20312 122.94531 L 350.96875 122.49609 L 348.83203 121.32812 L 347.58203 120.29688 L 346.66406 119.75781 L 347.21875 119.85156 L 346.41406 119.51172 L 346.80469 119.37891 L 346.5 119.08984 L 346.59375 118.71094 C 346.48438 118.78906 346.37109 118.78906 346.24609 118.72266 L 345.67969 115.74219 L 345.64453 111.46484 C 345.67578 111.45312 345.70312 111.42969 345.72266 111.38281 C 345.79688 111.17969 345.72656 110.69531 345.63281 110.19531 L 345.61328 107.38672 L 345.625 106.66797 C 345.63672 106.65625 345.88281 106.32422 346.07812 105.22266 C 346.27734 104.09375 347.23828 100.78125 347.39453 99.94922 C 347.55469 99.11719 348.03516 97.76953 348.16406 97.80078 C 348.29297 97.83203 348.72656 97.69922 348.98047 97.99609 C 349.23438 98.29688 350.74219 101.18359 351.04297 102.72656 C 351.34375 104.26953 352.04688 106.14062 352.08594 106.55859 C 352.125 106.97656 352.64062 107.375 352.94141 107.79688 C 353.23438 108.22266 353.41016 110.87109 353.82422 112.14844 C 353.91016 112.40625 354.03516 112.72266 354.17578 113.05859 C 354.15234 113.73828 354.31641 114.38281 354.30078 114.98438 C 354.28125 115.88281 354.5625 117.20312 354.98047 116.62891 C 355.39844 116.05859 354.58594 114.76172 354.54297 114.25781 C 354.53906 114.19531 354.57031 114.09766 354.58594 114.01562 C 354.80859 114.51562 355.03906 115.01953 355.23828 115.46484 C 355.27344 116.59375 355.74219 118.61328 355.81641 119.10938 C 355.90234 119.67188 355.86328 121.08203 355.82422 121.88672 C 355.54688 122.29297 355.00391 122.67578 354.50781 123.11328 C 353.82422 123.71484 354.01172 124.42188 354.83594 124.43359 C 355.26172 124.4375 355.67969 124.55469 356.08594 124.66016 C 356.01562 125.51953 355.76172 127.83984 355.83594 128.17578 C 355.91016 128.54297 356.50781 128.67969 356.50781 128.67969 C 356.50781 128.67969 356.58594 128.94922 356.78125 129.17578 C 356.98047 129.40234 357.43359 129.18359 357.43359 129.18359 C 357.43359 129.18359 357.54297 129.3125 357.76953 129.55078 C 357.99609 129.78906 358.47266 129.38281 358.53125 129.60156 C 358.59375 129.82031 359.37109 129.66797 359.37109 129.66797 C 359.37109 129.66797 360.38281 129.75391 360.82031 129.00781 C 361.26172 128.26172 360.51172 127.5625 359.89844 126.28906 C 359.36328 125.17188 359.07422 124.39453 359.00781 123.60156 C 359.6875 123.01562 360.30078 122.39453 360.39844 122.19922 C 360.60156 121.80469 360.21484 120.78125 360.19531 120.35938 C 360.17188 119.9375 360.69141 119.03125 360.75391 118.78906
			C 360.8125 118.54688 360.72266 118.24219 360.57031 117.79297 C 360.42188 117.33984 360.60156 117.29688 360.57422 116.41406 C 360.55859 115.94922 360.24219 115.14453 359.90625 114.46875 C 360.38672 113.76562 360.20703 113.17188 360.20703 112.50391 C 360.20703 111.80078 360.51172 111.36328 360.55469 111.05469 C 360.60156 110.74609 360.64453 112.06641 360.86328 112.10938 C 361.08594 112.15234 361.03906 111.14453 361.17188 109.60547 C 361.30469 108.07031 362.09375 103.41797 362.39844 103.01953 C 362.70703 102.625 363.76172 105.48047 364.14062 107.71875 C 364.52344 109.95703 365.03516 114.21484 365.07812 115.22656 C 365.12109 116.23438 365.60547 116.45312 365.86719 117.07031 C 366.13281 117.68359 366.13281 120.18359 366.26562 121.89844 C 366.39453 123.60938 367.01172 125.27734 367.31641 125.76172 C 367.625 126.24219 367.44922 126.50781 367.44922 126.94531 C 367.44922 127.38672 368.45703 127.42969 368.45703 127.42969 C 368.45703 127.42969 368.54688 127.73438 368.72266 128.52734 C 368.89844 129.31641 369.37891 129.71094 369.6875 130.23828 C 369.99609 130.76562 370.08203 131.77734 370.78516 131.99219 C 371.48828 132.21484 374.29688 131.37891 374.33984 130.92578 C 374.38281 130.47266 373.98828 129.23047 373.42188 128.57031 C 372.84766 127.91016 372.49609 127.47266 372.45312 126.90234 C 372.41016 126.33203 372.45312 125.58594 372.49609 124.57422 C 372.54297 123.56641 371.26953 122.46875 371.13672 122.03125 C 371.00391 121.58984 370.91406 120.58203 370.87109 118.87109 C 370.82812 117.15625 370.39062 116.41016 370.17188 115.75 C 369.95312 115.09375 370.17188 114.82812 370.21484 114.25781 C 370.25781 113.6875 369.95312 112.94531 369.73047 112.23828 C 369.51172 111.53906 369.55469 111.01172 369.55469 109.51953 C 369.55469 108.02734 369.67578 100.98828 369.76172 99.61328 C 369.85156 98.23828 369.69922 96.88672 369.32422 95.98828 C 368.95312 95.09375 368.80078 94.02734 368.80078 93.21875 C 368.80078 92.41016 369.47656 91.07812 369.71875 90.70703 C 369.95703 90.33594 370.15625 90.68359 370.19922 90.99219 C 370.24219 91.29688 370.19922 91.625 370.02344 92.32422 C 369.85156 93.01953 370.28516 93.23828 370.46094 93.43359 C 370.63672 93.63281 371.20312 92.01562 371.46484 91.09766 C 371.72656 90.18359 372.14062 88.52734 372.42578 87.36719 C 372.71094 86.21094 372.44922 84.90234 372.44922 84.90234 C 372.44922 84.90234 372.77344 85.01172 373.01562 85.07422 C 373.25781 85.14062 373.93359 85.51172 374.67578 85.92578 C 375.41406 86.33984 376.98828 86.60156 377.33594 86.73438 C 377.6875 86.86719 377.79688 86.40625 377.96875 86.14453 C 378.14453 85.88281 378.12109 86.33984 378.03516 86.625 C 377.94922 86.91016 379.36719 87.32422 380.35156 87.39062 C 381.33203 87.45703 382.79297 88.875 384.19141 88.91797 C 385.58984 88.96094 386.875 86.84375 387.53125 85.16406 C 388.1875 83.48047 388.49219 82.17188 388.71094 80.83984 C 388.92969 79.50781 389.95312 77.32812 390.01953 76.95703 C 390.08594 76.58594 391.32812 75.38672 391.32812 75.38672 C 391.32812 75.38672 392.24609 76.28125 392.50781 76.45312 C 392.76953 76.62891 393.22656 76.01562 393.55469 75.6875 C 393.88281 75.36328 393.55469 75.125 393.55469 75.125
		"
	/>

	<path
		id="witch"
		d="
			M 429.6 115.4 L 429.7 115.0 L 430.2 112.7 L 430.8 109.5 L 431.5 108.0 L 432.1 106.2 L 432.5 105.8 L 432.9 104.1 L 433.3 103.7 L 433.4 103.1 L 433.8 101.8 L 434.5 101.1 L 434.6 100.4 L 435.5 98.5 L 435.4 97.3 L 435.3 97.0 L 435.0 96.8 L 434.7 96.6 L 434.4 96.2 L 434.1 95.8 L 433.7 96.0 L 433.4 96.1 L 432.9 96.2 L 432.5 96.2 L 432.0 96.1 L 432.9 96.1 L 432.1 96.0 L 432.9 96.0 L 432.1 95.9 L 432.9 95.9 L 432.1 95.8 L 432.9 95.8 L 432.1 95.7 L 432.9 95.7 L 432.1 95.6 L 432.9 95.6 L 432.0 95.4 L 432.9 95.3 L 432.2 95.2 L 432.9 95.2 L 432.2 95.1 L 432.9 95.1 L 432.5 94.6 L 432.6 94.4 L 432.7 94.4 L 433.5 95.3 L 433.8 95.4 L 434.1 95.3 L 434.3 95.1 L 434.3 94.8 L 434.6 94.8 L 435.0 94.4 L 435.6 94.0 L 435.9 93.0 L 436.0 91.4 L 435.5 91.8 L 435.0 91.8 L 434.8 91.7 L 435.1 91.7 L 435.5 91.3 L 435.3 91.2 L 435.4 91.1 L 435.7 91.1 L 435.7 90.8 L 435.6 90.7 L 435.1 91.2 L 434.7 91.2 L 434.9 91.1 L 435.3 90.6 L 435.3 90.5 L 434.8 90.8 L 434.2 90.8 L 434.6 90.6 L 435.1 90.1 L 435.0 89.9 L 434.3 90.2 L 434.7 89.9 L 434.6 89.5 L 434.6 89.3 L 434.8 88.7 L 433.9 88.3 L 433.3 89.0 L 433.5 89.4 L 433.6 89.7 L 433.6 89.8 L 433.3 90.3 L 432.8 90.8 L 432.5 90.9 L 432.2 91.0 L 432.2 91.6 L 431.9 92.1 L 431.5 92.3 L 431.3 92.4 L 430.8 92.2 L 430.8 91.5 L 430.9 90.9 L 431.1 90.4 L 431.5 89.9 L 431.5 89.3 L 432.1 89.1 L 432.6 88.6 L 433.3 88.6 L 433.8 88.1 L 433.8 87.6 L 434.1 87.2 L 434.6 86.3 L 434.6 86.1 L 434.4 85.8 L 434.2 85.8 L 434.1 86.3 L 433.7 86.6 L 432.9 87.0 L 432.8 87.0 L 432.7 86.8 L 432.7 86.6 L 433.6 85.9 L 433.6 85.4 L 433.8 85.2 L 433.9 84.6 L 434.1 84.2 L 434.4 83.8 L 434.6 83.8 L 434.8 83.4 L 435.0 82.8 L 435.4 81.6 L 435.5 79.8 L 435.5 79.3 L 435.3 78.3 L 435.1 77.5 L 434.7 76.8 L 434.6 76.7 L 434.3 75.9 L 434.2 75.8 L 434.1 75.8 L 433.4 76.5 L 433.4 76.6 L 433.3 76.8 L 433.2 77.0 L 433.0 77.4 L 431.9 78.5 L 432.9 79.5 L 434.2 80.1 L 433.8 80.8 L 433.7 81.0 L 433.7 81.6 L 433.0 82.4 L 433.0 82.8 L 433.1 83.1 L 433.0 83.7 L 432.9 83.9 L 432.6 84.3 L 431.6 85.1 L 431.6 85.4 L 432.0 85.6 L 432.0 85.8 L 431.4 86.1 L 431.3 86.6 L 431.1 86.6 L 421.6 77.2 L 421.6 76.7 L 422.3 76.7 L 422.4 75.7 L 423.1 75.9 L 423.3 75.9 L 423.6 75.8 L 424.6 74.9 L 424.9 74.7 L 425.2 74.6 L 425.6 74.6 L 426.3 74.8 L 426.7 74.5 L 427.6 74.4 L 427.7 74.0 L 427.9 74.2 L 428.1 73.8 L 428.3 73.8 L 429.8 76.0 L 430.0 76.0 L 431.0 75.0 L 431.8 74.6 L 432.7 73.0 L 432.5 72.0 L 432.4 71.7 L 432.4 71.0 L 433.0 69.9 L 433.5 69.8 L 434.0 69.2 L 434.2 68.8 L 434.4 67.9 L 434.6 67.4 L 434.8 67.1 L 435.1 66.7 L 435.5 66.4 L 436.0 66.1 L 436.5 65.9 L 436.8 65.8 L 436.6 65.7 L 436.3 65.7 L 436.2 65.8 L 435.9 65.9 L 435.5 65.9 L 435.4 65.8 L 435.4 65.7 L 435.5 65.6 L 435.9 65.6 L 436.0 65.5 L 436.5 65.4 L 436.6 65.3 L 436.6 65.2  L 436.5 65.1 L 436.1 64.9 L 436.0 65.0 L 435.9 65.0 L 435.7 64.8 L 435.4 64.8 L 435.3 64.9 L 435.2 64.9 L 435.1 64.8 L 435.1 64.6 L 435.7 64.6 L 436.3 64.7 L 436.4 64.8 L 436.5 64.5 L 436.7 64.6 L 436.7 64.9 L 437.0 64.9 L 437.2 64.7 L 436.2 64.2 L 436.5 64.1 L 436.8 64.1 L 437.1 64.1 L 437.5 64.2 L 437.7 64.3 L 438.0 64.0 L 437.9 63.7 L 437.7 63.5 L 437.3 63.4 L 436.5 63.7 L 436.4 63.7 L 436.1 63.4 L 436.1 63.0 L 435.6 62.2 L 435.6 61.7 L 435.5 61.6 L 435.1 61.6 L 435.4 60.1 L 435.4 59.3 L 435.3 58.6 L 435.3 58.2 L 435.7 57.0 L 436.2 56.1 L 437.0 55.4 L 438.0 54.8 L 439.0 54.4 L 440.0 54.3 L 441.0 54.4 L 442.0 54.8 L 442.9 55.4 L 443.0 55.4 L 443.2 55.3 L 443.4 54.9 L 443.6 54.7 L 443.7 54.2 L 443.9 54.0 L 444.2 53.8 L 444.6 53.7 L 445.3 53.7 L 445.8 53.4 L 446.0 53.4 L 446.2 53.3 L 446.4 53.4 L 446.5 53.4 L 446.8 53.1 L 446.7 53.6 L 447.2 53.8 L 447.7 54.1 L 448.2 53.8 L 448.3 53.5 L 448.3 53.7 L 448.8 53.7 L 448.9 53.6 L 449.1 53.6 L 449.2 53.7 L 449.4 53.7 L 449.4 53.4 L 449.5 53.4 L 449.6 53.5 L 449.8 53.5 L 449.8 53.2 L 450.1 52.9 L 450.4 52.8 L 451.0 52.8 L 451.1 52.6 L 451.5 52.6 L 451.6 52.5 L 451.7 52.6 L 451.8 52.6 L 451.8 52.5 L 451.7 52.4 L 451.7 52.3 L 451.8 52.2 L 451.9 52.4 L 452.0 52.3 L 452.2 52.3 L 452.2 52.7 L 452.3 52.8 L 452.3 53.0 L 452.0 53.0 L 451.9 52.9 L 451.7 52.9 L 451.6 53.1 L 451.7 53.2 L 452.1 53.2 L 452.3 53.1 L 452.5 53.0 L 453.0 53.0 L 453.7 53.2 L 453.8 53.2 L 454.4 52.6 L 454.7 52.4 L 454.8 52.4 L 454.9 52.3 L 455.4 52.3 L 455.2 52.4 L 455.1 52.5 L 455.2 52.6 L 455.2 52.9 L 455.1 52.8 L 455.1 52.7 L 455.0 52.6 L 454.8 52.6 L 454.7 52.7 L 454.9 52.8 L 454.9 53.0 L 455.2 53.0 L 454.9 53.4 L 454.6 53.6 L 454.6 53.4 L 454.7 53.3 L 454.6 53.0 L 454.4 53.0 L 454.4 53.7 L 454.2 53.9 L 452.9 53.9 L 452.8 54.0 L 452.8 54.1 L 453.2 54.2 L 453.8 54.3 L 454.2 54.1 L 454.7 53.9 L 454.9 53.8 L 455.3 53.3 L 455.6 52.6 L 455.7 52.5 L 455.4 53.5 L 456.0 53.0 L 456.5 52.5 L 456.9 52.0 L 457.0 51.7 L 457.0 51.5 L 456.9 51.3 L 457.1 51.5 L 457.1 51.8 L 457.7 51.0 L 457.3 52.1 L 457.9 51.6 L 458.1 51.6 L 457.5 52.1 L 457.0 52.4 L 455.7 53.5 L 455.6 53.8 L 453.9 54.5 L 453.9 54.6 L 454.0 54.6 L 455.8 53.9 L 456.4 53.9 L 456.1 54.2 L 455.6 54.2 L 454.4 54.7 L 454.7 54.7 L 455.8 54.3 L 456.5 54.3 L 456.6 54.1 L 456.9 54.2 L 457.0 54.3 L 457.3 54.3 L 457.4 54.2 L 457.7 54.1 L 457.7 53.1 L 457.8 52.9 L 457.9 53.0 L 457.9 53.8 L 458.1 53.7 L 458.1 53.2 L 458.2 53.1 L 458.2 53.5 L 458.3 53.6 L 458.3 54.3 L 457.8 54.9 L 458.5 55.8 L 458.9 56.0 L 459.8 56.0 L 460.5 55.5 L 461.0 55.3 L 462.0 55.3 L 462.3 55.5 L 462.7 55.5 L 463.0 55.4 L 463.1 55.2 L 463.1 55.5 L 463.0 55.6 L 462.3 55.6 L 462.0 55.9 L 461.7 56.4 L 462.4 56.6 L 462.5 56.9 L 462.7 57.1 L 463.0 57.1 L 463.1 57.0 L 463.6 56.9 L 463.3 57.1 L 463.3 57.5 L 463.0 57.8 L 463.0 57.9 L 463.5 57.9 L 463.7 58.0 L 463.4 58.2 L 463.7 58.3 L 464.7 58.2 L 465.5 57.7 L 466.5 57.7 L 467.0 58.0 L 467.3 58.0 L 467.8 57.7 L 468.1 57.6 L 468.5 57.6 L 468.9 57.3 L 468.9 57.4 L 468.6 57.7 L 468.1 57.7 L 467.7 58.0 L 467.4 58.4 L 467.2 58.6 L 466.9 58.6 L 466.8 58.7 L 466.8 58.8 L 466.9 58.9 L 467.4 58.9 L 467.9 58.5 L 468.8 58.5 L 469.5 57.9 L 469.5 57.8 L 469.6 57.9 L 469.6 58.2 L 469.0 58.7 L 468.7 58.8 L 468.0 58.7 L 467.5 59.3 L 467.3 59.4 L 466.9 59.4 L 466.2 59.0 L 465.7 59.0 L 465.6 59.1 L 465.6 59.4 L 466.0 59.4 L 466.3 59.7 L 466.1 59.7 L 465.9 59.6 L 465.7 59.6 L 465.9 59.8 L 467.5 60.0 L 468.0 59.5 L 468.0 59.7 L 467.5 60.1 L 466.5 60.0 L 466.3 60.1 L 466.1 60.1 L 466.0 60.0 L 465.7 60.0 L 465.6 59.9 L 465.3 59.9 L 465.1 60.0 L 465.5 60.0 L 465.4 60.1 L 465.1 60.1 L 465.0 60.3 L 464.7 60.5 L 463.8 60.6 L 462.8 60.0 L 462.2 60.0 L 462.3 60.5 L 462.0 60.9 L 460.8 60.9 L 460.1 60.2 L 459.7 60.2 L 459.4 60.3 L 459.0 60.6 L 458.2 61.3 L 458.0 61.4 L 457.2 61.4 L 456.2 60.8 L 456.2 61.4 L 455.7 61.4 L 455.4 61.3 L 455.4 60.9 L 455.2 60.6 L 454.9 60.6 L 454.9 60.8 L 454.6 60.9 L 454.2 60.6 L 452.7 60.6 L 451.7 59.2 L 451.2 59.7 L 451.1 59.7 L 451.1 59.4 L 450.7 59.4 L 450.7 58.8 L 451.1 58.8 L 451.0 58.6 L 449.7 58.1 L 449.0 57.5 L 448.8 57.4 L 448.0 57.4 L 447.9 57.5 L 447.9 58.3 L 447.3 58.9 L 447.3 58.2 L 446.8 57.8 L 446.0 57.5 L 445.5 56.8 L 445.3 56.6 L 444.9 56.4 L 444.5 56.3 L 443.8 56.4 L 443.5 56.6 L 443.5 58.6 L 443.4 59.2 L 443.2 59.6 L 443.0 59.8 L 442.4 60.3 L 442.4 60.7 L 442.6 60.8 L 442.3 61.3 L 441.9 61.3 L 441.8 61.4 L 441.8 63.2 L 442.2 64.1 L 443.5 64.5 L 444.4 64.9 L 446.0 64.9 L 447.0 65.3 L 447.6 65.8 L 447.7 65.9 L 448.0 66.5 L 450.0 70.2 L 452.0 73.2 L 452.5 73.6 L 453.3 73.4 L 454.2 73.4 L 455.9 74.1 L 456.2 74.1 L 456.7 74.0 L 457.5 72.5 L 458.0 72.5 L 458.2 72.3 L 458.3 70.7 L 458.4 70.5 L 458.4 69.0 L 458.3 68.6 L 454.7 65.8 L 452.5 63.8 L 452.5 63.6 L 451.8 63.1 L 451.8 62.8 L 452.1 62.8 L 452.0 62.7 L 451.7 62.6 L 450.9 61.9 L 450.9 61.7 L 451.4 61.8 L 451.6 61.8 L 450.9 61.0 L 450.6 60.4 L 451.4 60.9 L 451.7 61.0 L 451.3 60.1 L 452.3 60.9 L 454.6 62.2 L 454.7 62.1 L 454.6 61.9 L 454.2 61.2 L 454.9 61.5 L 456.9 63.5 L 457.0 64.7 L 457.1 65.2 L 457.5 65.9 L 458.0 66.3 L 459.0 66.8 L 459.2 66.2 L 459.2 65.8 L 459.4 65.3 L 459.4 64.3 L 459.6 64.2 L 459.5 63.8 L 459.6 63.1 L 459.8 63.0 L 459.8 62.5 L 460.0 61.6 L 460.6 61.2 L 460.9 61.2 L 461.0 61.3 L 461.8 61.3 L 462.2 61.9 L 462.3 62.3 L 462.3 62.8 L 462.0 63.3 L 462.1 64.0 L 461.3 64.8 L 461.5 65.5 L 461.5 66.1 L 461.1 66.9 L 461.4 67.3 L 462.7 66.8 L 463.1 66.4 L 463.4 65.3 L 463.7 64.7 L 464.2 64.2 L 464.5 64.0 L 465.0 63.8 L 465.5 63.7 L 466.5 64.1 L 466.8 64.4 L 466.8 64.9 L 466.9 65.0 L 467.3 65.0 L 467.5 65.1 L 467.5 65.2 L 467.4 65.3 L 467.4 65.7 L 467.5 65.5 L 467.9 65.3 L 468.0 65.4 L 467.6 65.6 L 467.4 65.8 L 467.3 65.8 L 467.3 65.2 L 466.8 65.2 L 466.4 65.5 L 466.0 65.7 L 465.0 65.9 L 464.6 66.3 L 464.2 67.0 L 464.0 67.9 L 463.0 68.5 L 462.0 68.7 L 460.8 69.2 L 460.4 70.6 L 460.5 70.7 L 460.5 71.3 L 460.0 72.2 L 460.1 72.6 L 460.7 73.0 L 460.8 73.5 L 460.7 73.7 L 460.5 74.1 L 460.6 74.3 L 460.6 74.6 L 460.1 75.0 L 460.2 75.6 L 459.8 75.9 L 459.8 76.4 L 459.3 76.8 L 459.3 77.2 L 459.4 77.3 L 458.9 78.4 L 458.9 78.9 L 459.0 79.2 L 458.6 80.0 L 458.6 81.9 L 458.5 82.0 L 458.5 82.6 L 457.9 83.3 L 457.9 84.8 L 457.5 85.5 L 457.5 86.0 L 457.9 86.5 L 457.9 86.8 L 457.4 87.5 L 457.0 88.4 L 456.9 89.3 L 457.7 89.5 L 458.5 89.5 L 459.0 89.4 L 459.4 89.3 L 459.5 89.2 L 459.9 89.2 L 459.6 89.3 L 459.4 89.5 L 459.2 89.6 L 459.2 89.7 L 459.7 89.7 L 459.9 89.6 L 460.3 89.6 L 460.4 89.7 L 460.5 89.7 L 460.7 89.5 L 461.2 89.6 L 461.2 89.7 L 460.8 89.7 L 460.6 89.9 L 460.2 89.9 L 460.1 89.8 L 459.9 89.8 L 459.8 89.9 L 459.3 89.9 L 459.3 90.0 L 459.4 90.1 L 460.4 90.1 L 460.5 90.2 L 460.0 90.3 L 459.6 90.3 L 458.9 90.2 L 457.9 89.9 L 457.4 89.8 L 456.9 89.7 L 456.8 90.3 L 456.4 90.8 L 456.4 92.5 L 457.4 93.9 L 458.6 94.7 L 459.2 95.0 L 460.0 95.4 L 461.0 95.7 L 462.0 95.9 L 464.2 95.9 L 465.4 96.0 L 468.8 96.0 L 470.3 95.4 L 470.4 95.4 L 469.0 96.0 L 470.4 95.6 L 470.5 95.6 L 470.4 95.7 L 469.0 96.1 L 469.1 96.5 L 468.9 96.5 L 468.9 96.4 L 468.8 96.3 L 468.5 96.3 L 468.4 96.4 L 468.8 96.7 L 469.2 96.7 L 469.5 96.3 L 469.5 96.0 L 469.7 96.0 L 469.7 96.2 L 469.8 96.3 L 469.6 96.4 L 469.4 96.7 L 469.7 96.6 L 470.0 96.3 L 470.3 96.2 L 470.7 96.2 L 470.3 96.4 L 470.3 96.6 L 470.2 96.7 L 469.9 96.7
			L 469.6 96.8 L 469.3 97.0 L 469.3 97.1 L 470.2 97.1 L 470.3 97.0 L 470.5 97.0 L 470.5 97.1 L 470.4 97.1 L 470.3 97.2 L 468.2 97.3 L 468.1 97.4 L 468.5 97.6 L 469.1 97.9 L 469.4 98.0 L 469.8 98.1 L 470.3 98.1 L 470.6 98.0 L 470.3 98.2 L 469.8 98.2 L 469.4 98.1 L 469.1 98.0 L 468.8 97.9 L 468.4 97.7 L 468.0 97.5 L 467.5 97.0 L 466.7 97.1 L 464.8 97.1 L 463.6 97.0 L 462.8 96.8 L 461.8 96.8 L 460.7 96.6 L 460.4 96.6 L 459.7 96.3 L 459.1 96.0 L 458.2 95.3 L 458.1 95.3 L 458.1 95.6 L 458.5 96.1 L 459.5 96.9 L 459.8 97.3 L 459.8 98.3 L 461.1 100.3 L 461.8 100.5 L 463.2 103.8 L 464.1 104.1 L 464.7 106.1 L 465.0 106.7 L 465.5 107.6 L 466.0 108.0 L 467.3 108.0 L 467.8 107.8 L 467.7 108.0 L 467.3 108.2 L 466.1 108.2 L 466.4 108.6 L 466.4 108.8 L 467.0 108.9 L 467.5 109.0 L 468.2 109.0 L 469.3 108.6 L 469.8 108.4 L 469.7 108.5 L 469.3 108.7 L 468.2 109.1 L 467.5 109.1 L 467.0 109.0 L 466.5 109.0 L 466.8 109.4 L 467.5 109.6 L 468.9 109.6 L 469.2 109.5 L 469.8 109.0 L 469.8 109.1 L 469.4 109.5 L 469.4 109.8 L 469.1 110.0 L 469.2 110.2 L 469.4 110.2 L 469.7 109.8 L 469.8 109.8 L 469.8 110.0 L 469.5 110.3 L 469.1 110.4 L 468.7 110.3 L 468.6 110.2 L 467.0 109.9 L 466.9 110.0 L 467.5 111.4 L 468.0 111.8 L 468.6 111.8 L 468.9 111.7 L 468.9 111.6 L 469.2 111.6 L 469.4 111.8 L 469.4 111.9 L 469.0 111.9 L 468.7 112.1 L 468.7 112.2 L 469.8 113.2 L 471.1 114.3 L 471.9 116.0 L 472.4 116.6 L 472.9 116.9 L 473.4 117.4 L 473.6 118.0 L 475.0 120.0 L 475.0 130.0 Z
			M 435.7 94.9 L 435.6 96.1 L 435.5 96.2 L 434.6 95.5 L 434.6 95.3 L 435.0 94.9 Z
			M 436.2 86.8 L 436.2 89.0 L 436.1 90.1 L 436.0 90.1 L 435.6 89.2 L 435.5 88.4 L 435.7 88.3 L 436.0 87.0 Z
			M 435.5 82.2 L 435.7 83.5 L 435.5 84.2 L 435.3 84.4 L 435.2 84.3 L 435.2 84.0 L 435.0 83.8 L 435.1 83.2 Z
			M 434.9 85.1 L 434.7 85.4 L 434.6 85.3 L 434.6 85.2 L 434.8 85.0 Z
			M 436.1 81.7 L 436.3 83.1 L 436.3 83.3 L 435.7 84.5 L 435.6 84.5 L 435.9 83.5 L 435.8 81.6 Z
			M 436.5 83.9 L 436.5 85.5 L 436.4 85.7 L 436.2 85.7 L 436.0 85.6 L 435.9 85.3 L 435.9 85.0 L 436.3 83.9 Z
			M 437.9 64.5 L 437.9 65.0 L 437.8 65.3 L 437.4 65.6 L 437.2 65.7 L 437.0 65.5 L 436.9 65.3 L 436.9 65.2 L 437.1 65.0 L 437.5 64.6 Z
			M 447 71.8 L 450 74.8 L 451 76 L 451.6 76.5 L 452.5 77.1 L 453.6 77.3 L 454.0 77.3 L 454.8 77.2 L 455.8 77.0 L 456.4 76.8 L 456.8 76.7 L 457.1 76.7 L 457.3 76.9 L 457.0 77.9 L 457.1 78.2 L 457.1 78.6 L 457.0 79.1 L 456.9 80.6 L 456.7 80.8 L 456.7 81.4 L 456.1 82.4 L 456.2 84.4 L 456.0 84.6 L 456.0 85.6 L 455.6 86.0 L 455.6 86.6 L 455.4 86.8 L 455.4 87.9 L 455.6 88.2 L 455.6 88.5 L 455.4 88.7 L 455.0 88.5 L 454.0 88.6 L 453.4 88.4 L 453.1 88.0 L 452.8 87.3 L 452.5 86.8 L 452.2 86.4 L 451.6 86.1 L 451.2 86.0 L 450.7 85.9 L 450.3 85.3 L 450.4 85.2 L 451.2 85.6 L 455.0 86.1 L 455.1 86.0 L 455.2 85.6 L 455.2 85.5 L 454.8 85.1 L 454.7 84.8 L 454.5 84.7 L 454.4 85.0 L 454.1 85.3 L 453.8 85.4 L 453.5 85.4 L 452.4 85.2 L 450.8 84.8 L 450.0 84.6 L 449.5 84.4 L 449.4 84.4 L 448.8 84.0 L 448.5 83.8 L 449.1 83.9 L 449.3 84.1 L 449.5 84.0 L 449.6 83.8 L 449.6 83.7 L 449.0 83.7 L 448.5 83.6 L 448.4 83.5 L 448.0 83.2 L 447.5 82.9 L 447.0 82.5 L 446.5 82.0 L 446.0 81.4 L 445.9 81.2 L 446.0 81.2 L 446.5 81.6 L 447.0 82.0 L 447.5 82.4 L 449.3 83.2 L 449.5 83.2 L 449.5 83.0 L 449.6 83.0 L 450.0 83.4 L 450.5 83.8 L 451.0 83.9 L 451.5 83.8 L 451.9 83.5 L 452.0 83.2 L 452.1 83.0 L 452.1 82.7 L 451.8 82.3 L 451.0 81.8 L 450.8 81.8 L 450.7 81.9 L 450.4 81.9 L 450.0 82.0 L 449.5 82.1 L 448.7 82.0 L 447.9 81.7 L 447.4 81.5 L 446.8 81.2 L 446.2 80.7 L 445.8 80.5 L 445.5 80.4 L 445.2 80.2 L 445.0 79.9 L 444.9 79.3 L 445.0 79.3 L 445.5 79.9 L 445.8 80.1 L 446.1 80.3 L 446.6 80.5 L 448.03 80.9 A 0.7 0.7 0 1 0 448.07 80.8 L 446.4 80.3 L 446.0 80.1 L 445.5 79.7 L 444.9 79.0 L 444.8 78.0 L 445.1 78.1 L 445.3 78.3 L 445.3 78.4 L 446.0 79.1 L 446.5 79.4 L 447.0 79.6 L 447.8 79.9 L 447.9 79.9 L 448.1 79.8 L 448.3 79.8 L 448.9 80.0 L 449.6 80.5 L 449.9 80.5 L 450.6 81.0 L 450.9 81.1 L 451.4 81.0 L 451.7 80.7 L 451.7 80.6 L 451.4 80.1 L 451.3 80.0 L 451.0 80.0 L 450.2 79.5 L 449.6 79.5 L 449.2 79.9 L 449.0 79.9 L 448.4 79.7 L 448.0 79.7 L 447.8 79.8 L 446.8 79.4 L 446.4 79.2 L 446.0 78.9 L 445.5 78.4 L 445.4 78.2 L 445.2 78.0 L 444.8 77.8 L 444.5 76.5 L 444.5 75.5 L 444.7 75.0 L 445.1 74.5 L 445.5 74.0 L 445.9 73.5 L 446.3 73.0 L 446.5 72.5 Z
			M 448.7 80.85 A 0.125 0.125 0 1 0 448.7 81.35 A 0.125 0.125 0 1 0 448.7 80.85 Z
			M 449.8 82.3 L 450.1 82.2 L 450.4 82.3 L 450.5 82.4 L 450.6 82.6 L 450.6 82.7 L 450.4 82.9 L 450.0 83.0 L 449.8 82.9 L 449.7 82.7 Z
			M 451.5 86.9 L 451.7 86.9 L 452.1 87.2 L 452.4 87.7 L 452.4 88.1 L 452.3 88.1 L 452.2 87.9 L 452.1 87.9 L 451.8 87.5 L 451.6 87.2 Z
			M 453.4 89.4 L 454.0 89.4 L 454.6 89.0 L 455.0 89.0 L 455.2 89.2 L 455.0 89.4 L 455.0 90.5 L 454.8 90.9 L 453.9 90.0 Z
		"
	/>
</g>

<g id="bannerflaps" stroke="rgb(4.017639%,3.95813%,4.968262%)">
	<g fill="white" stroke-width="2">
		<path d="M 109.73438 187.61328 C 75.35156 188.70312 32.77734 175.6875 32.77734 175.6875 L 66.63672 145.24219 L 46.53516 104.23437 C 46.53516 104.23437 84.4375 114.76953 118.82031 113.67969 Z"/>
		<path d="M 998.78516 192.65625 C 1049.96094 207.59766 1109.5625 201.25391 1160.05078 185.76172 L 1134.34766 159.625 L 1157.91016 112.26953 C 1107.41406 127.75781 1061.01172 130.05859 1009.83203 115.11719 Z"/>
	</g>
	<g fill="none">
		<path d="M 109.73438 181.61328 C 82.50391 182.48047 50.13281 174.49219 37.84766 171.13281"/>
		<path d="M 49.89453 111.10938 C 59.89453 113.61328 90.54688 120.57812 118.82031 119.67969"/>

		<path d="M 1154.57031 118.98047 C 1105.05469 133.77734 1059.35156 135.75391 1009.02734 121.0625"/>
		<path d="M 999.58984 186.70703 C 1049.03906 201.14844 1106.35156 195.71094 1155.71484 181.35156"/>
	</g>
</g>

<path id="backflap" fill="rgb(69.805908%,69.256592%,69.392395%)" stroke-width="2.75" stroke="rgb(4.017639%,3.95813%,4.968262%)" d="M 118.44531 190.26953 L 70.00781 197.4375 L 70.00781 122.4375 C 70.00781 122.4375 108.98047 122.02734 118.44531 115.26953 Z"/>

<g id="banner" fill="none" stroke="rgb(4.017639%,3.95813%,4.968262%)">
	<path fill="white" stroke-width="2.75" d="M 479.73047 122.4375 C 356.22266 99.9375 193.51562 144.9375 70.00781 122.4375 L 70.00781 197.4375 C 193.51562 219.9375 356.22266 174.9375 479.73047 197.4375 Z"/>
	<g stroke-width="1.5">
		<path d="M 479.73047 128.4375 C 356.22266 105.9375 193.51562 150.9375 70.00781 128.4375"/>
		<path d="M 70.00781 191.43359 C 193.51562 213.93359 356.22266 168.93359 479.73047 191.43359"/>
	</g>
</g>

<g id="panel" fill="none" stroke="rgb(4.017639%,3.95813%,4.968262%)">
	<path fill="white" stroke-width="2.4" style="fill-rule:nonzero;fill-opacity:1;" d="M 487.07031 95.41016 C 487.07031 97.66016 481.85547 104.02344 479.54297 104.02344 L 479.54297 211.89062 C 481.85547 211.89062 487.07031 218.25781 487.07031 220.50391 L 1099.80469 220.50391 C 1099.80469 218.25781 1105.01953 211.89062 1107.33203 211.89062 L 1107.33203 104.02344 C 1105.01953 104.02344 1099.80469 97.65625 1099.80469 95.41016 Z"/>
	<g stroke-width="1.5">
		<path d="M 500.3125 220.50391 C 489.85547 217.24219 479.83984 206.30859 479.54297 199.22656"/>
		<path d="M 500.3125 95.41016 C 489.85547 98.67578 479.83984 109.60547 479.54297 116.6875"/>
		<path d="M 1086.5625 220.50391 C 1097.01562 217.23828 1107.03125 206.30859 1107.33203 199.22656"/>
		<path d="M 1086.5625 95.41016 C 1097.01562 98.67187 1107.03125 109.60547 1107.33203 116.6875"/>
	</g>
	<path d="M 1097.28516 101.41016 L 489.58984 101.41016"/>
	<path d="M 1097.28516 214.50391 L 489.58984 214.50391"/>
	<g stroke="rgb(69.805908%,69.256592%,69.392395%)">
		<path d="M 485.16797 141.32422 L 1100.76562 141.32422"/>
		<path d="M 485.16797 193.48438 L 1100.76562 193.48438"/>
	</g>
</g>

<g id="sidebars" stroke-width="2.5" fill="white" stroke="rgb(4.017639%,3.95813%,4.968262%)">
	<path d="M 475.34766 84.78125 L 475.34375 230.96484 C 477.44141 225.93359 479.53906 223.83594 479.53906 223.83594 L 479.54297 91.91016 C 479.54297 91.91016 477.44141 89.82031 475.34766 84.78125 Z"/>
	<path d="M 1111.52344 84.78125 L 1111.52734 230.96484 C 1109.42969 225.93359 1107.33203 223.83594 1107.33203 223.83594 L 1107.32812 91.91016 C 1107.32812 91.91016 1109.42969 89.82031 1111.52344 84.78125 Z"/>
</g>

</svg>
