<?xml version="1.0" encoding="UTF-8"?>
<svg xmlns="http://www.w3.org/2000/svg" xmlns:xlink="http://www.w3.org/1999/xlink" width="718pt" height="765pt" viewBox="0 0 718 765" version="1.2" fill="none" stroke-miterlimit="10">

<g stroke="rgb(4.017639%,3.95813%,4.968262%)">
	<path stroke-width="2.4" d="M 2.27734 754.92969 C 4.52734 754.92969 10.89063 760.14453 10.89063 762.45703 L 707.10156 762.45703 C 707.10156 760.14453 713.46875 754.92969 715.71484 754.92969 L 715.71484 9.61328 C 713.46484 9.61328 707.10156 4.39844 707.10156 2.08203 L 10.89063 2.08203 C 10.89063 4.39844 4.52344 9.61328 2.27734 9.61328 Z"/>
	<g stroke-width="1.5">
		<path d="M 715.71484 741.6875 C 712.44922 752.14453 701.51953 762.16016 694.4375 762.45703"/>
		<path d="M 2.27734 741.6875 C 5.54297 752.14453 16.47266 762.16016 23.55469 762.45703"/>
		<path d="M 715.71484 22.85156 C 712.44922 12.39844 701.51953 2.38281 694.4375 2.08594"/>
		<path d="M 2.27734 22.85156 C 5.53906 12.39844 16.47266 2.38281 23.55469 2.08594"/>
	</g>
	<path d="M 8.27734 12.12891 L 8.27734 752.41406"/>
	<path d="M 709.71484 12.12891 L 709.71484 752.41406"/>
</g>

<g stroke="rgb(69.805908%,69.256592%,69.392395%)">
	<path d="M 16.92578 26.88672 L 700.33594 26.88672"/>
	<path d="M 16.92578 48.74609 L 700.33594 48.74609"/>
	<path d="M 16.92578 70.69141 L 700.33594 70.69141"/>
	<path d="M 16.92578 92.91797 L 700.33594 92.91797"/>
	<path d="M 16.92578 114.86328 L 700.33594 114.86328"/>
	<path d="M 16.92578 136.80469 L 700.33594 136.80469"/>
	<path d="M 16.92578 158.75 L 700.33594 158.75"/>
	<path d="M 16.92578 180.69141 L 700.33594 180.69141"/>
	<path d="M 16.92578 202.63672 L 700.33594 202.63672"/>
	<path d="M 16.92578 224.63672 L 700.33594 224.63672"/>
	<path d="M 16.92578 246.58203 L 700.33594 246.58203"/>
	<path d="M 16.92578 268.52734 L 700.33594 268.52734"/>
	<path d="M 16.92578 290.46875 L 700.33594 290.46875"/>
	<path d="M 16.92578 312.69531 L 700.33594 312.69531"/>
	<path d="M 16.92578 334.64062 L 700.33594 334.64062"/>
	<path d="M 16.92578 356.58203 L 700.33594 356.58203"/>
	<path d="M 16.92578 378.52734 L 700.33594 378.52734"/>
	<path d="M 16.92578 400.75391 L 700.33594 400.75391"/>
	<path d="M 16.92578 422.69531 L 700.33594 422.69531"/>
	<path d="M 16.92578 444.64062 L 700.33594 444.64062"/>
	<path d="M 16.92578 466.58203 L 700.33594 466.58203"/>
	<path d="M 16.92578 488.52734 L 700.33594 488.52734"/>
	<path d="M 16.92578 510.46875 L 700.33594 510.46875"/>
	<path d="M 16.92578 532.47266 L 700.33594 532.47266"/>
	<path d="M 16.92578 554.41797 L 700.33594 554.41797"/>
	<path d="M 16.92578 576.35937 L 700.33594 576.35937"/>
	<path d="M 16.92578 598.30469 L 700.33594 598.30469"/>
	<path d="M 16.92578 620.53125 L 700.33594 620.53125"/>
	<path d="M 16.92578 642.47266 L 700.33594 642.47266"/>
	<path d="M 16.92578 664.41797 L 700.33594 664.41797"/>
	<path d="M 16.92578 686.35937 L 700.33594 686.35937"/>
	<path d="M 16.92578 708.30469 L 700.33594 708.30469"/>
	<path d="M 16.92578 730.24609 L 700.33594 730.24609"/>
</g>
</svg>
