<?xml version="1.0" encoding="UTF-8"?>
<svg xmlns="http://www.w3.org/2000/svg" xmlns:xlink="http://www.w3.org/1999/xlink" width="362pt" height="53pt" viewBox="0 0 362 53" version="1.2" fill="none" stroke-miterlimit="10">

<g id="frame" stroke="rgb(4.017639%,3.95813%,4.968262%)">
	<path stroke-width="2.4" d="M 355.40234 50.93359 C 355.40234 50.11719 358.36719 46.46094 359.87109 46.46094 L 359.87109 6.81641 C 358.36719 6.81641 355.40234 3.16016 355.40234 2.34375 L 242.10937 2.34375 C 242.10937 2.34375 6.74609 2.34375 6.74609 2.34375 C 6.74609 3.16016 3.77734 6.81641 2.27344 6.81641 L 2.27344 46.46094 C 3.77734 46.46094 6.74609 50.11719 6.74609 50.93359 Z"/>
	<g stroke-width="1.5">
		<path d="M 2.27344 17.29297 C 2.27344 11.14062 11.35938 2.34375 17.75 2.34375"/>
		<path d="M 2.27344 35.98047 C 2.27344 42.13672 11.35938 50.92969 17.75 50.92969"/>
		<path d="M 359.875 35.98047 C 359.875 42.13672 350.78906 50.93359 344.39844 50.93359"/>
		<path d="M 359.875 17.29297 C 359.875 11.14062 350.78906 2.34375 344.39844 2.34375"/>
	</g>
</g>

<g id="inset">
	<path stroke-width="4.0" stroke="rgb(87.059021%,86.824036%,86.882019%)" d="M 107.41406 6.05859 L 107.41406 47.21484"/>

	<g stroke="rgb(4.017639%,3.95813%,4.968262%)">
		<path d="M 312.11328 2.34375 C 290.52734 2.34375 304.5625 6.05859 281.10547 6.34375 L 242.10938 6.34375 C 242.10938 6.34375 113.83594 6.34375 113.83594 6.34375 C 90.37891 6.05859 104.41406 2.34375 82.83203 2.34375"/>
		<path d="M 311.14062 50.93359 C 289.55469 50.93359 303.58984 47.21875 280.13281 46.93359 L 113.83594 46.93359 C 90.37891 47.21875 104.41406 50.93359 82.82813 50.93359"/>

		<path d="M 113.41406 6.05859 L 113.41406 47.21484"/>
		<path d="M 280.55078 47.22266 C 274.33203 35.32422 274.33203 17.96484 280.55078 6.06641"/>

		<g stroke-width="1.5">
			<path d="M 109.41406 6.05859 L 109.41406 47.21484"/>
			<path d="M 284.55078 47.22266 C 278.33203 35.32422 278.33203 17.96484 284.55078 6.06641"/>
		</g>
	</g>
</g>
</svg>
