<?xml version="1.0" encoding="UTF-8"?>
<svg xmlns="http://www.w3.org/2000/svg" xmlns:xlink="http://www.w3.org/1999/xlink" width="718pt" height="477pt" viewBox="0 0 718 477" version="1.2" stroke-miterlimit="10">

<g id="frame" fill="none" stroke="rgb(4.017639%,3.95813%,4.968262%)">
	<path stroke-width="2.4" d="M 2.27734 467.38281 C 4.52734 467.38281 10.89063 472.59766 10.89063 474.90625 L 707.10156 474.90625 C 707.10156 472.59766 713.46875 467.38281 715.71484 467.38281 L 715.71484 8.96484 C 713.46484 8.96484 707.10156 3.75 707.10156 1.44141 L 10.89063 1.44141 C 10.89063 3.75 4.52344 8.96484 2.27734 8.96484 Z"/>

	<g stroke-width="1.5">
		<path d="M 715.71484 454.14062 C 712.44922 464.59375 701.51953 474.60937 694.4375 474.90625"/>
		<path d="M 2.27734 454.14062 C 5.54297 464.59375 16.47266 474.60937 23.55469 474.90625"/>
		<path d="M 715.71484 22.20703 C 712.44922 11.75391 701.51953 1.73828 694.4375 1.44141"/>
		<path d="M 2.27734 22.20703 C 5.53906 11.75391 16.47266 1.73828 23.55469 1.44141"/>
	</g>

	<path d="M 8.27734 11.48438 L 8.27734 464.86328"/>
	<path d="M 709.71484 11.48438 L 709.71484 464.86328"/>
</g>

<g id="inset">
	<g fill="rgb(87.059021%,86.824036%,86.882019%)">
		<path d="M 692.58984 11.26172 C 693.46484 13.89062 698.35938 17.94922 701.06641 18.67578 L 701.06641 27.39844 C 697.76953 20.55859 691.53125 14.08984 685.75 11.26172 Z"/>
		<path d="M 377.89062 11.26172 L 384.72656 11.26172 C 378.94922 14.08984 372.71094 20.55469 369.41406 27.39453 L 369.41406 18.67188 C 372.12109 17.94922 377.01562 13.89062 377.89062 11.26172"/>
		<path d="M 377.89062 355.64844 C 377.01562 353.01953 372.12109 348.96094 369.41406 348.23828 L 369.41406 339.51562 C 372.71484 346.35547 378.94922 352.82031 384.72656 355.64844 Z"/>
		<path d="M 389.97656 355.64844 C 385.83984 355.47656 379.98438 351.61328 375.41406 346.11719 L 375.41406 20.79297 C 379.98438 15.29297 385.83984 11.43359 389.97656 11.26172 L 680.50391 11.26172 C 684.64062 11.43359 690.49219 15.29688 695.06641 20.79297 L 695.06641 346.11719 C 690.49219 351.61719 684.64062 355.47656 680.50391 355.64844 Z"/>
		<path d="M 692.58984 355.64844 L 685.75391 355.64844 C 691.53125 352.82031 697.76953 346.35547 701.06641 339.51562 L 701.06641 348.23828 C 698.35938 348.96094 693.46875 353.01953 692.58984 355.64844"/>
		<path d="M 369.41406 335.50391 L 369.41406 31.40625 C 370.38281 28.34375 371.98438 25.39453 373.91406 22.73047 L 373.91406 344.17578 C 371.98438 341.51172 370.38281 338.5625 369.41406 335.50391"/>
		<path d="M 701.06641 31.40625 L 701.06641 335.50391 C 700.09766 338.5625 698.49609 341.51172 696.56641 344.17578 L 696.56641 22.73438 C 698.49609 25.39844 700.09766 28.34766 701.06641 31.40625"/>
	</g>

	<g fill="white" stroke-width="2.4" stroke="rgb(4.017639%,3.95813%,4.968262%)">
		<path d="M 684.78906 38.86328 C 675.26172 31.88672 670.91016 22.91406 670.91016 22.91406 L 399.66406 22.91406 C 399.66406 22.91406 395.3125 31.88672 385.78906 38.86328"/>
		<path d="M 684.78906 317.31641 C 675.26172 324.29687 670.91016 333.26562 670.91016 333.26562 L 399.66406 333.26562 C 399.66406 333.26562 395.3125 324.29687 385.78906 317.31641"/>
		<path d="M 385.74219 317.76563 C 387.99219 317.76563 394.35547 325.28906 394.35547 325.28906 L 676.12891 325.28906 C 676.12891 325.28906 682.49609 317.76563 684.74219 317.76563 L 684.74219 38.41797 C 682.49609 38.41797 676.12891 30.89062 676.12891 30.89062 L 394.35547 30.89062 C 394.35547 30.89062 387.98828 38.41797 385.74219 38.41797 Z"/>
	</g>

	<g fill="none" stroke-width="1.2" stroke="rgb(4.017639%,3.95813%,4.968262%)">
		<path d="M 397.44141 26.62891 L 673.22656 26.62891 M 598.44531 26.63281 C 579.97656 32.76953 558.37109 36.29687 535.28125 36.29687 C 512.19141 36.29687 490.58203 32.76953 472.11719 26.63281"/>
		<path d="M 673.22656 329.55469 L 397.44141 329.55469 M 472.11719 329.54687 C 490.58203 323.41016 512.19141 319.88281 535.28125 319.88281 C 558.37109 319.88281 579.97656 323.41016 598.44531 329.54687"/>
	</g>

	<g fill="rgb(4.017639%,3.95813%,4.968262%)">
		<path d="M 537.84766 36.29688 C 537.84766 37.71484 536.69922 38.86719 535.28125 38.86719 C 533.86328 38.86719 532.71094 37.71484 532.71094 36.29688 C 532.71094 34.87891 533.86328 33.73047 535.28125 33.73047 C 536.69922 33.73047 537.84766 34.87891 537.84766 36.29688"/>
		<path d="M 537.84766 319.88281 C 537.84766 318.46484 536.69922 317.31641 535.28125 317.31641 C 533.86328 317.31641 532.71094 318.46484 532.71094 319.88281 C 532.71094 321.30078 533.86328 322.45312 535.28125 322.45312 C 536.69922 322.45312 537.84766 321.30078 537.84766 319.88281"/>
	</g>
</g>

<g fill="none" stroke="rgb(69.805908%,69.256592%,69.392395%)">
	<path d="M 16.92578 26.24219 L 353.41797 26.24219"/>
	<path d="M 16.92578 48.1875 L 353.41797 48.1875"/>
	<path d="M 16.92578 70.12891 L 353.41797 70.12891"/>
	<path d="M 16.92578 92.07422 L 353.41797 92.07422"/>
	<path d="M 16.92578 114.30078 L 353.41797 114.30078"/>
	<path d="M 16.92578 136.24219 L 353.41797 136.24219"/>
	<path d="M 16.92578 158.1875 L 353.41797 158.1875"/>
	<path d="M 16.92578 180.12891 L 353.41797 180.12891"/>
	<path d="M 16.92578 202.07422 L 353.41797 202.07422"/>
	<path d="M 16.92578 224.01953 L 353.41797 224.01953"/>
	<path d="M 16.92578 246.01953 L 353.41797 246.01953"/>
	<path d="M 16.92578 267.96484 L 353.41797 267.96484"/>
	<path d="M 16.92578 289.90625 L 353.41797 289.90625"/>
	<path d="M 16.92578 311.85156 L 353.41797 311.85156"/>
	<path d="M 16.92578 334.07812 L 353.41797 334.07812"/>
	<path d="M 16.92578 356.01953 L 353.41797 356.01953"/>
	<path d="M 16.92578 377.96484 L 353.41797 377.96484"/>
	<path d="M 365.41406 377.96484 L 701.06641 377.96484"/>
	<path d="M 16.92578 399.90625 L 353.41797 399.90625"/>
	<path d="M 365.41406 399.90625 L 701.06641 399.90625"/>
	<path d="M 16.92578 421.85156 L 353.41797 421.85156"/>
	<path d="M 365.41406 421.85156 L 701.06641 421.85156"/>
	<path d="M 16.92578 443.79688 L 353.41797 443.79688"/>
	<path d="M 365.41406 443.79688 L 701.06641 443.79688"/>
</g>

</svg>
