<?xml version="1.0" encoding="UTF-8"?>
<svg xmlns="http://www.w3.org/2000/svg" xmlns:xlink="http://www.w3.org/1999/xlink" width="362pt" height="516pt" viewBox="0 0 362 516" version="1.2" stroke-miterlimit="10">

<g stroke="rgb(4.017639%,3.95813%,4.968262%)" fill="none">
	<path stroke-width="2.4" d="M 2.26953 487.11719 C 4.51563 487.11719 10.87891 492.33203 10.87891 494.64453 L 351.26563 494.64453 C 351.26563 492.33203 357.62891 487.11719 359.875 487.11719 L 359.875 28.96484 C 357.62891 28.96484 351.26172 23.75391 351.26172 21.4375 L 10.87891 21.4375 C 10.87891 23.75391 4.51563 28.96484 2.26562 28.96484 Z"/>

	<g stroke-width="1.5">
		<path d="M 359.875 473.875 C 356.61328 484.32812 345.67969 494.34375 338.59766 494.64453"/>
		<path d="M 2.26953 473.875 C 5.53125 484.32812 16.46484 494.34375 23.54688 494.64453"/>
		<path d="M 359.875 42.20703 C 356.60938 31.75391 345.67969 21.73828 338.59766 21.44141"/>
		<path d="M 2.26953 42.20703 C 5.53125 31.75391 16.46484 21.73828 23.54687 21.44141"/>
	</g>

	<path d="M 8.26953 31.48438 L 8.26953 484.59766"/>
	<path d="M 353.875 31.48438 L 353.875 484.59766"/>
</g>

<g fill="rgb(4.017639%,3.95813%,4.968262%)">
	<path d="M 129.16406 501.61719 C 128.50781 501.61719 127.94141 501.92969 127.55078 502.39844 C 125.375 501.39453 123.23828 500.31641 121.12891 499.18359 L 241.07031 499.18359 C 238.95703 500.31641 236.82031 501.39844 234.63672 502.40234 C 234.24609 501.93359 233.68359 501.61719 233.02344 501.61719 C 231.84766 501.61719 230.89453 502.57031 230.89453 503.74219 C 230.89453 503.83984 230.9375 503.92578 230.95312 504.01953 C 228.125 505.20703 225.25 506.29297 222.32422 507.26562 L 139.87891 507.26562 C 136.94922 506.28906 134.06641 505.20312 131.23438 504.01172 C 131.25 503.92188 131.28906 503.83984 131.28906 503.74219 C 131.28906 502.57031 130.33984 501.61719 129.16406 501.61719 M 113.04297 495.84375 C 117.30469 498.55469 121.73828 500.99219 126.33203 503.14453 L 53.46484 503.14453 C 42.86328 503.14453 38.33203 498.44922 36.625 495.84375 L 113.04297 495.84375 M 118.94141 497.98438 C 117.71094 497.29297 116.49609 496.57812 115.29297 495.84375 L 246.90625 495.84375 C 245.70312 496.57812 244.48828 497.29297 243.25781 497.98438 L 118.94141 497.98438 M 325.76562 495.84375 C 324.0625 498.44922 319.53125 503.14453 308.92969 503.14453 L 235.86719 503.14453 C 240.45703 500.99219 244.89062 498.55469 249.15625 495.84375 Z M 328.63281 495.84375 C 327.48828 498.125 326.58594 500.57812 326.01562 503.14453 L 317.47266 503.14453 C 323.36328 501.29297 326.08594 497.75391 327.17578 495.84375 L 328.63281 495.84375 M 225.95312 507.26562 C 227.80078 506.59375 229.625 505.87891 231.42969 505.11719 C 231.82031 505.57031 232.37891 505.87109 233.02344 505.87109 C 233.98438 505.87109 234.76562 505.21875 235.02734 504.34375 L 325.73828 504.34375 C 325.57031 505.30078 325.45312 506.27734 325.39844 507.26562 Z M 181.09766 513.82812 C 170.1875 513.82812 159.53906 512.53516 149.36328 510.01562 L 212.83203 510.01562 C 202.65625 512.53516 192.01172 513.82812 181.09766 513.82812 M 36.79688 507.26562 C 36.74219 506.27734 36.625 505.30078 36.45703 504.34375 L 127.15625 504.34375 C 127.42188 505.21875 128.19922 505.87109 129.16406 505.87109 C 129.80859 505.87109 130.36719 505.56641 130.75781 505.11328 C 132.56641 505.875 134.39453 506.59375 136.24219 507.26562 Z M 36.18359 503.14453 C 35.61328 500.57812 34.70703 498.125 33.5625 495.84375 L 35.21875 495.84375 C 36.30469 497.75391 39.03125 501.29297 44.92188 503.14453 L 36.18359 503.14453 M 331.79297 494.64453 L 30.40234 494.64453 L 30.40234 495.84375 C 32.54688 499.69922 34.08984 504.04688 34.08984 508.64062 L 34.08984 510.01562 L 144.70703 510.01562 C 156.28516 513.32422 168.51562 515.02734 181.09766 515.02734 C 193.67969 515.02734 205.91406 513.32422 217.48828 510.01562 L 328.10938 510.01562 L 328.10938 508.64062 C 328.10938 504.04688 329.64844 499.69922 331.79297 495.84375 Z"/>
	<path d="M 129.16406 14.46484 C 130.33984 14.46484 131.28906 13.51562 131.28906 12.33984 C 131.28906 12.24609 131.25 12.16406 131.23438 12.07031 C 134.06641 10.87891 136.94922 9.79297 139.87891 8.81641 L 222.32422 8.81641 C 225.25 9.78906 228.125 10.875 230.95312 12.06641 C 230.9375 12.16016 230.89453 12.24219 230.89453 12.33984 C 230.89453 13.51562 231.84766 14.46484 233.02344 14.46484 C 233.68359 14.46484 234.24609 14.15234 234.63672 13.67969 C 236.82031 14.68359 238.95703 15.76562 241.07031 16.89844 L 121.12891 16.89844 C 123.23828 15.76953 125.375 14.69141 127.55078 13.6875 C 127.94141 14.15234 128.50781 14.46484 129.16406 14.46484 M 113.04297 20.24219 L 36.625 20.24219 C 38.33203 17.63281 42.86328 12.94141 53.46484 12.94141 L 126.33203 12.94141 C 121.73828 15.08984 117.30469 17.53125 113.04297 20.24219 M 118.94141 18.09766 L 243.25781 18.09766 C 244.48828 18.78906 245.70312 19.50391 246.90625 20.24219 L 115.29297 20.24219 C 116.49609 19.50391 117.71094 18.78906 118.94141 18.09766 M 249.15625 20.24219 C 244.89062 17.53125 240.45703 15.08984 235.86719 12.94141 L 308.92969 12.94141 C 319.53125 12.94141 324.0625 17.63281 325.76562 20.24219 Z M 328.63281 20.24219 L 327.17578 20.24219 C 326.08594 18.33203 323.36328 14.78906 317.47266 12.94141 L 326.01562 12.94141 C 326.58594 15.50781 327.48828 17.95703 328.63281 20.24219 M 325.39844 8.81641 C 325.45312 9.80469 325.57031 10.78125 325.73828 11.74219 L 235.02734 11.74219 C 234.76562 10.86719 233.98438 10.21094 233.02344 10.21094 C 232.37891 10.21094 231.82031 10.51562 231.42969 10.96484 C 229.625 10.20312 227.80078 9.49219 225.95312 8.81641 Z M 181.09766 2.25391 C 192.01172 2.25391 202.65625 3.54688 212.83203 6.06641 L 149.36328 6.06641 C 159.53906 3.54688 170.1875 2.25391 181.09766 2.25391 M 136.24219 8.81641 C 134.39453 9.49219 132.56641 10.20703 130.75781 10.96875 C 130.36719 10.51562 129.80859 10.21094 129.16406 10.21094 C 128.19922 10.21094 127.42188 10.86719 127.15625 11.74219 L 36.45703 11.74219 C 36.625 10.78125 36.74219 9.80469 36.79688 8.81641 Z M 36.18359 12.94141 L 44.92188 12.94141 C 39.03125 14.78906 36.30469 18.33203 35.21875 20.24219 L 33.5625 20.24219 C 34.70703 17.95703 35.61328 15.50781 36.18359 12.94141 M 331.79297 20.24219 C 329.64844 16.38281 328.10938 12.03516 328.10938 7.44141 L 328.10938 6.06641 L 217.48828 6.06641 C 205.91406 2.76172 193.67969 1.05469 181.09766 1.05469 C 168.51562 1.05469 156.28516 2.76172 144.70703 6.06641 L 34.08984 6.06641 L 34.08984 7.44141 C 34.08984 12.03516 32.54688 16.38281 30.40234 20.24219 L 30.40234 21.44141 L 331.79297 21.44141 Z"/>
</g>

</svg>
