<?xml version="1.0" standalone="no"?>
<!DOCTYPE svg PUBLIC "-//W3C//DTD SVG 20010904//EN"
 "http://www.w3.org/TR/2001/REC-SVG-20010904/DTD/svg10.dtd">
<svg version="1.0" xmlns="http://www.w3.org/2000/svg"
 width="1582.000000pt" height="726.000000pt" viewBox="0 0 1582.000000 726.000000"
 preserveAspectRatio="xMidYMid meet">

<g transform="translate(0.000000,726.000000) scale(0.100000,-0.100000)"
fill="#000000" stroke="none">
<path d="M9760 6635 l0 -135 805 0 805 0 0 135 0 135 -805 0 -805 0 0 -135z
m1580 0 l0 -105 -775 0 -775 0 0 105 0 105 775 0 775 0 0 -105z"/>
<path d="M4230 6440 c0 -5 5 -10 11 -10 5 0 7 5 4 10 -3 6 -8 10 -11 10 -2 0
-4 -4 -4 -10z"/>
<path d="M2345 6375 c-27 -8 -79 -21 -114 -30 -36 -9 -69 -19 -75 -24 -6 -5
-45 -11 -86 -13 -68 -5 -89 -12 -225 -78 -131 -63 -157 -72 -203 -71 -64 1
-106 -14 -99 -33 3 -8 -5 -21 -19 -30 -13 -9 -23 -22 -21 -28 2 -12 -27 -23
-127 -49 -42 -11 -46 -14 -32 -24 27 -20 -42 -65 -124 -81 -66 -12 -157 -50
-147 -60 3 -3 22 -1 44 5 85 24 62 -2 -48 -54 l-80 -38 -77 13 c-42 6 -133 25
-201 41 -68 16 -126 28 -127 26 -2 -2 30 -57 72 -122 41 -65 73 -124 70 -131
-3 -8 0 -13 7 -11 8 1 11 -12 10 -43 -3 -40 -1 -42 9 -22 14 28 34 23 31 -7
-2 -12 1 -20 6 -16 8 4 32 -22 54 -61 4 -7 -84 -66 -223 -150 -139 -83 -225
-141 -218 -145 20 -10 230 -65 343 -88 55 -12 110 -23 122 -26 21 -5 22 -12
25 -97 l3 -92 115 -18 c361 -55 674 -72 1180 -65 429 6 615 17 1405 77 700 54
902 67 1220 81 322 14 880 6 1110 -15 178 -17 371 -43 386 -51 5 -4 9 -97 10
-213 l0 -207 24 53 c13 29 33 66 45 81 15 22 20 45 20 92 l0 62 24 -22 c14
-13 30 -36 36 -52 l12 -29 4103 0 4103 0 6 23 c3 12 19 36 36 52 l30 29 0 -72
c0 -40 5 -74 11 -78 6 -3 26 -38 45 -77 l34 -71 2 244 3 245 50 7 c143 23 577
129 597 147 4 3 -72 55 -168 115 -96 60 -174 111 -174 112 0 1 72 116 160 255
87 140 158 254 157 255 -1 2 -65 -15 -141 -37 -142 -40 -417 -99 -461 -99
l-25 0 0 271 0 271 -45 -90 c-39 -78 -45 -98 -45 -152 0 -61 -1 -62 -19 -46
-10 9 -27 32 -37 51 l-19 35 -4107 0 c-3166 0 -4108 -3 -4108 -12 0 -15 -42
-78 -52 -78 -5 0 -8 29 -8 64 0 37 -5 68 -11 72 -6 4 -27 39 -45 78 l-33 71
-1 -281 c0 -154 -2 -283 -5 -286 -5 -5 -225 25 -272 37 -14 3 -21 10 -17 17 4
6 3 8 -4 5 -15 -10 -43 3 -35 16 3 6 1 7 -5 3 -6 -4 -25 0 -41 9 -27 13 -31
13 -46 -1 -12 -13 -13 -19 -4 -30 18 -22 5 -27 -37 -15 -20 6 -42 7 -47 4 -6
-3 -7 -1 -3 5 6 11 -24 24 -64 27 -8 1 -23 2 -32 3 -10 1 -18 6 -18 12 0 5 8
7 18 4 9 -3 0 4 -21 16 -21 12 -46 19 -55 17 -12 -3 -10 -5 6 -6 23 -1 32 -21
10 -22 -7 0 9 -9 37 -20 27 -11 51 -22 52 -23 1 -1 -37 -1 -85 1 -86 4 -121
-4 -108 -26 5 -7 43 -11 99 -11 51 0 115 -3 144 -6 46 -6 50 -8 37 -22 -13
-12 -13 -17 -2 -24 8 -6 -21 -7 -77 -4 -498 31 -937 14 -2160 -79 -675 -51
-881 -64 -1175 -74 l-215 -8 235 -1 c257 -2 440 8 1220 68 676 52 923 67 1285
81 300 11 677 6 870 -12 55 -5 114 -9 130 -9 17 0 82 -6 145 -14 63 -8 116
-11 118 -6 2 5 14 4 27 -2 14 -6 22 -15 19 -19 -3 -5 3 -6 12 -2 13 5 15 3 9
-7 -5 -9 -4 -11 3 -6 6 4 21 2 32 -4 19 -10 20 -20 20 -275 0 -146 -4 -265 -8
-265 -5 0 -53 7 -107 15 -276 41 -437 50 -950 49 -549 0 -616 -3 -1610 -79
-841 -64 -1037 -75 -1455 -82 -481 -7 -804 10 -1147 62 -57 8 -105 15 -108 15
-6 0 -7 545 0 552 3 2 53 -3 113 -13 198 -32 420 -49 616 -47 l191 1 -170 7
c-220 9 -413 27 -600 53 l-150 22 -3 29 c-3 25 -1 28 20 23 41 -10 229 -36
393 -54 133 -15 252 -18 710 -18 595 0 602 1 1570 75 899 69 1287 90 1682 90
144 0 214 4 219 11 4 8 -1 9 -16 4 -15 -5 -20 -4 -16 4 5 7 -10 11 -46 12 -71
1 -100 10 -89 27 4 8 12 13 17 12 5 -1 10 4 13 11 2 7 -1 9 -9 4 -7 -4 -16 -2
-21 6 -4 8 -4 16 2 20 7 4 4 9 -5 12 -9 4 -16 2 -16 -4 0 -7 -10 -9 -26 -5
-23 6 -24 5 -14 -13 9 -17 7 -19 -10 -16 -13 2 -20 -2 -20 -11 0 -8 4 -13 9
-10 5 3 14 0 20 -8 9 -11 -7 -14 -87 -19 -164 -11 -212 -9 -206 8 4 8 1 15 -6
15 -7 0 -10 8 -7 20 4 17 0 20 -29 20 -20 0 -34 -5 -34 -12 0 -10 -3 -9 -9 1
-6 9 -11 10 -15 2 -4 -6 -2 -11 3 -11 6 0 11 -7 11 -15 0 -8 -5 -15 -11 -15
-5 0 -8 -4 -5 -9 3 -5 -46 -12 -112 -15 -342 -19 -663 -40 -1067 -72 -1045
-80 -1585 -105 -1945 -88 l-195 9 -3 96 c-2 83 0 97 14 103 10 4 22 2 28 -4 5
-5 23 -10 38 -10 36 0 36 -13 1 -30 l-28 -13 45 -20 c54 -24 160 -33 212 -19
42 11 108 -3 108 -23 0 -14 202 -40 300 -38 82 1 318 55 386 88 63 31 114 86
174 185 40 66 45 82 48 146 6 104 -16 161 -87 232 -80 81 -126 109 -216 132
-109 28 -199 33 -260 15z m170 -44 l40 -9 -43 -1 c-24 0 -48 -6 -55 -11 -7 -6
-24 -19 -39 -31 -16 -11 -28 -26 -28 -33 0 -8 -10 -11 -30 -8 -17 2 -56 1 -88
-3 l-57 -8 50 -12 c28 -6 64 -19 82 -28 18 -9 47 -17 65 -17 25 0 29 -3 18
-10 -22 -14 -55 -12 -111 6 -59 20 -138 15 -192 -11 -46 -22 -44 -28 5 -13 44
13 91 -2 115 -39 14 -21 14 -25 -1 -48 -23 -35 -7 -31 45 10 52 41 94 55 168
55 47 0 52 -2 41 -16 -17 -20 5 -43 51 -54 30 -6 31 -8 14 -15 -11 -4 -27 -14
-36 -22 -14 -12 -18 -10 -29 18 -16 37 -69 64 -113 55 -29 -6 -121 -66 -113
-74 3 -2 28 1 57 7 31 7 56 8 61 3 13 -13 -63 -25 -162 -26 -77 -1 -344 35
-357 48 -3 2 21 18 53 34 68 35 63 40 -46 44 l-75 3 34 18 c20 11 68 22 115
26 93 9 188 47 151 62 -11 4 -46 11 -77 14 -92 10 -76 28 37 40 33 4 101 15
150 25 134 29 230 35 300 21z m282 -133 c41 -44 53 -70 53 -113 0 -20 5 -55
11 -79 14 -55 -2 -115 -39 -156 l-27 -29 -47 21 c-39 17 -48 25 -48 46 0 13
-9 40 -21 58 -23 37 -38 184 -18 184 5 0 19 19 29 43 11 23 22 46 26 50 16 16
52 5 81 -25z m-907 -7 c-34 -11 -108 -49 -145 -75 l-30 -21 79 -5 80 -5 -42
-28 c-24 -15 -40 -32 -37 -37 4 -6 34 -10 68 -11 34 0 71 -4 82 -8 18 -7 17
-10 -15 -30 -39 -23 -64 -25 -129 -10 -28 6 -48 6 -54 0 -5 -5 -2 -11 9 -14
11 -3 46 -13 78 -23 56 -15 58 -18 40 -31 -13 -10 -33 -12 -66 -8 -26 4 -54 3
-63 -3 -15 -8 -12 -12 15 -29 l33 -21 -54 -20 c-30 -11 -74 -25 -99 -32 -25
-7 -61 -20 -80 -29 -23 -11 -47 -15 -70 -11 -30 5 -32 7 -14 13 37 13 76 55
70 75 -5 16 6 21 76 38 46 11 83 25 86 33 4 11 -3 13 -34 7 -22 -4 -65 -11
-98 -16 -42 -6 -70 -18 -98 -41 -63 -50 -188 -79 -188 -44 0 9 -11 20 -24 26
-26 12 -56 0 -133 -52 -23 -16 -50 -29 -60 -29 -27 0 51 61 111 85 28 12 105
59 171 106 83 58 149 95 214 121 52 20 121 54 154 74 64 39 126 63 167 62 l25
0 -25 -7z m4480 -888 c0 -471 -3 -724 -10 -728 -7 -4 -10 244 -10 737 0 483 4
738 10 728 6 -9 10 -288 10 -737z m8450 6 c0 -658 -2 -740 -15 -729 -13 11
-15 104 -15 729 0 691 2 741 27 741 2 0 3 -334 3 -741z m-12669 662 c35 -15
75 -33 89 -39 21 -9 15 -10 -30 -5 -30 3 -52 3 -49 0 13 -15 203 -77 233 -77
19 0 51 6 72 14 22 7 59 16 84 20 l45 6 -40 -15 c-22 -8 -50 -27 -63 -41 -20
-23 -28 -25 -67 -20 -24 4 -90 20 -147 37 -73 20 -124 29 -173 28 l-70 -1 63
-13 c70 -15 135 -49 191 -101 41 -37 74 -52 141 -65 39 -7 36 -8 -28 -5 -53 2
-85 10 -120 28 l-47 24 0 -35 0 -36 -55 -7 c-30 -3 -75 -12 -100 -18 -35 -9
-55 -9 -89 0 -23 6 -41 13 -39 16 3 2 29 8 58 14 82 16 78 25 -10 25 -61 0
-83 4 -96 17 -15 15 -12 16 49 15 65 -2 67 -1 109 39 24 23 52 47 63 53 17 10
12 11 -30 6 -27 -3 -75 -8 -106 -11 -56 -7 -129 9 -129 27 0 17 62 40 125 46
36 3 65 9 65 12 0 17 -28 31 -62 31 -57 0 -46 15 30 38 37 11 68 20 68 21 1 1
30 -12 65 -28z m4438 -5 c-2 -2 -29 -22 -59 -45 -30 -23 -69 -60 -87 -82 -33
-41 -33 -41 -33 -14 0 18 15 43 45 77 25 28 45 54 45 59 0 5 21 9 47 9 25 0
44 -2 42 -4z m7967 -15 c23 -10 45 -24 48 -30 5 -8 -1086 -11 -4025 -11 -2218
0 -4030 2 -4028 4 2 2 24 16 49 30 l45 26 3935 0 c3825 0 3936 -1 3976 -19z
m132 -21 c12 -22 34 -47 47 -56 19 -12 25 -25 25 -52 l0 -35 -29 39 c-34 47
-72 83 -125 118 l-39 26 49 0 c47 0 50 -2 72 -40z m-5 -78 c81 -88 77 -57 77
-550 l0 -439 -31 -44 c-17 -24 -43 -56 -57 -71 l-26 -28 -4062 0 -4061 0 -41
44 c-76 82 -72 54 -72 549 l0 445 44 60 c25 33 53 65 63 71 13 7 1244 10 4069
11 l4051 0 46 -48z m-13448 -59 c-28 -20 -41 -16 -20 7 10 11 22 17 28 13 6
-4 3 -12 -8 -20z m-414 -23 c178 -36 405 -65 579 -76 117 -7 123 -8 93 -20
-70 -30 -169 -38 -295 -25 -66 7 -122 10 -125 7 -3 -2 32 -8 77 -12 45 -3 78
-10 73 -15 -4 -4 -81 -11 -170 -15 l-163 -7 0 -96 0 -96 -100 153 c-55 84
-100 155 -100 158 0 3 -11 20 -25 38 -29 38 -32 51 -10 42 8 -3 83 -19 166
-36z m679 26 c-6 -8 -35 -20 -64 -26 -30 -6 -62 -17 -72 -25 -21 -16 -74 -21
-58 -6 11 11 172 70 193 70 11 1 11 -2 1 -13z m472 -10 c25 0 35 -3 28 -10 -8
-8 -130 -12 -166 -5 -28 5 -46 -2 -41 -16 9 -23 -7 -26 -90 -19 l-78 8 45 13
c102 32 166 42 215 36 28 -4 67 -7 87 -7z m-717 -28 c-1 -15 -8 -23 -18 -22
-9 0 -38 1 -64 2 -58 2 -48 14 25 28 31 6 57 12 58 13 0 0 0 -9 -1 -21z m1486
-12 c-41 -44 -142 -83 -279 -110 -139 -27 -317 -37 -239 -13 22 7 36 15 32 19
-8 8 20 14 155 33 137 19 233 43 295 71 63 28 63 28 36 0z m12657 -28 c-14
-17 -40 -38 -59 -45 l-34 -13 33 6 32 6 -106 -169 c-59 -92 -115 -182 -125
-198 l-18 -30 120 -74 c66 -41 122 -78 124 -82 3 -4 -19 -13 -48 -20 -28 -7
-47 -14 -42 -16 6 -2 33 3 59 11 43 13 52 13 78 0 15 -8 28 -18 28 -22 0 -15
-355 -102 -552 -136 -37 -7 -38 -6 -38 24 0 21 5 30 18 31 16 1 16 2 0 6 -17
4 -18 26 -18 283 l0 278 78 16 c70 14 33 14 -45 0 -31 -6 -33 -5 -33 23 l0 29
148 28 c81 16 201 43 267 61 161 43 164 43 133 3z m-13522 0 c4 -7 2 -14 -6
-16 -9 -3 -5 -9 11 -18 l24 -12 -28 -11 c-41 -16 -112 -13 -155 5 l-37 16 30
13 c25 11 99 29 142 34 6 0 15 -4 19 -11z m3070 -17 c-4 -6 -13 -11 -19 -11
-8 0 -7 3 2 9 8 5 10 14 6 22 -6 11 -5 11 5 2 7 -6 9 -16 6 -22z m44 -1 c0 -5
-5 -10 -11 -10 -5 0 -7 5 -4 10 3 6 8 10 11 10 2 0 4 -4 4 -10z m1065 -81 c50
-22 101 -46 115 -54 24 -14 24 -14 3 -15 -12 0 -25 5 -29 11 -3 6 -17 9 -30 6
-13 -2 -21 -1 -19 3 5 8 -85 50 -107 50 -7 0 10 -11 37 -25 l50 -25 -90 6
c-115 7 -128 11 -122 35 3 10 1 17 -4 13 -5 -3 -9 0 -9 6 0 8 9 10 28 5 15 -4
32 -8 37 -10 6 -1 18 -5 28 -10 23 -10 35 2 17 18 -10 9 -11 9 -6 0 11 -19 -1
-16 -23 6 -11 11 -17 22 -13 25 8 8 33 0 137 -45z m-4515 -25 l0 -57 -82 7
c-135 10 -313 29 -303 32 6 2 64 10 130 19 92 11 219 39 253 54 1 0 2 -24 2
-55z m4773 -11 c4 -2 7 -13 7 -25 0 -17 -4 -19 -27 -14 -16 4 -35 8 -43 9 -8
1 -26 13 -39 26 l-24 24 59 -8 c33 -4 62 -9 67 -12z m-5423 -317 l0 -145 -37
5 c-41 4 -36 0 10 -10 22 -5 27 -12 27 -36 0 -17 -3 -30 -6 -30 -30 0 -399 86
-417 97 -5 3 5 14 22 25 30 20 33 20 102 3 38 -10 72 -15 75 -13 2 3 -23 11
-56 18 -33 7 -62 16 -65 19 -3 6 321 208 338 210 4 1 7 -64 7 -143z m5010
-276 c122 -11 333 -37 388 -46 25 -5 32 -11 32 -30 0 -13 -2 -24 -5 -24 -2 0
-51 7 -107 15 -236 34 -423 47 -798 52 -520 7 -733 -3 -1835 -87 -764 -58
-981 -70 -1380 -77 -393 -6 -665 4 -960 38 -254 29 -299 38 -303 67 -4 26 -7
26 111 7 314 -50 667 -69 1147 -62 421 7 623 18 1455 82 506 39 908 66 1165
79 153 7 979 -3 1090 -14z m8831 -256 c-17 -14 -39 -39 -48 -55 -15 -25 -23
-29 -61 -29 l-44 0 59 44 c32 24 72 62 88 84 l30 41 3 -30 c3 -22 -4 -35 -27
-55z m-8184 -53 l46 -31 -45 0 c-42 0 -48 3 -68 35 -12 19 -32 43 -46 54 -15
12 -24 29 -24 47 0 28 1 28 45 -23 25 -28 66 -65 92 -82z m8073 24 c0 -2 -20
-16 -43 -30 l-44 -25 -3947 0 c-3918 0 -3947 0 -3986 20 -21 11 -41 24 -45 30
-4 7 1304 10 4029 10 2220 0 4036 -2 4036 -5z"/>
<path d="M2398 6303 c6 -2 18 -2 25 0 6 3 1 5 -13 5 -14 0 -19 -2 -12 -5z"/>
<path d="M2325 6289 c-16 -5 -54 -10 -82 -12 -50 -3 -72 -11 -62 -22 6 -5 189
31 197 39 8 8 -18 6 -53 -5z"/>
<path d="M1605 6039 l-90 -29 80 5 c109 8 150 18 150 35 0 25 -45 21 -140 -11z"/>
<path d="M1405 5960 c-11 -4 -40 -29 -65 -55 -34 -35 -39 -44 -20 -35 14 7 36
23 50 36 14 12 42 30 63 39 20 8 37 17 37 20 0 8 -43 5 -65 -5z"/>
<path d="M1495 5950 c-43 -21 -35 -24 34 -11 31 6 58 5 90 -5 30 -9 49 -10 55
-4 18 18 -7 29 -74 34 -52 5 -73 2 -105 -14z"/>
<path d="M1431 5909 c-18 -6 -32 -12 -30 -14 2 -2 50 -1 107 2 61 4 98 9 90
14 -17 11 -124 10 -167 -2z"/>
<path d="M6510 5760 c0 -5 5 -10 10 -10 6 0 10 -20 10 -45 0 -25 5 -45 10 -45
6 0 10 25 10 55 0 48 -2 55 -20 55 -11 0 -20 -4 -20 -10z"/>
<path d="M6593 5753 c-4 -11 3 -24 22 -38 30 -25 26 -50 -8 -41 -14 3 -17 2
-10 -5 17 -17 48 -6 51 17 2 14 -6 27 -23 38 -28 18 -24 41 6 33 11 -3 17 -1
13 4 -9 15 -44 10 -51 -8z"/>
<path d="M6677 5763 c19 -4 23 -12 26 -56 l3 -52 2 52 c2 45 5 52 25 56 12 2
0 4 -28 4 -27 0 -40 -2 -28 -4z"/>
<path d="M6800 5715 l0 -55 38 1 c30 2 32 3 10 6 -26 4 -28 8 -28 54 0 27 -4
49 -10 49 -5 0 -10 -25 -10 -55z"/>
<path d="M6880 5715 l0 -55 38 1 c30 2 32 3 10 6 -35 5 -39 40 -5 46 l22 4
-22 2 c-16 1 -23 7 -23 20 0 12 8 21 23 24 16 3 13 5 -10 6 l-33 1 0 -55z"/>
<path d="M6966 5750 c4 -14 13 -41 21 -60 l15 -35 19 50 c24 64 24 85 -1 25
l-18 -45 -21 45 c-12 25 -18 34 -15 20z"/>
<path d="M7060 5715 l0 -55 38 1 c30 2 32 3 10 6 -35 5 -39 40 -5 46 l22 4
-22 2 c-16 1 -23 7 -23 20 0 12 8 21 23 24 16 3 13 5 -10 6 l-33 1 0 -55z"/>
<path d="M7152 5718 l-2 -58 33 1 c29 2 30 2 5 6 -25 4 -27 9 -31 56 l-3 52
-2 -57z"/>
<path d="M7410 5760 c-16 -10 -8 -14 23 -11 22 3 21 -7 -3 -44 -26 -40 -25
-45 10 -45 17 0 30 5 30 10 0 6 -7 10 -16 10 -13 0 -13 3 2 29 28 47 -2 80
-46 51z"/>
<path d="M7490 5715 c0 -30 5 -55 10 -55 6 0 10 19 10 43 l0 42 28 -42 c15
-24 30 -43 35 -43 4 0 6 26 5 58 l-1 57 -6 -45 -6 -45 -28 43 c-15 23 -32 42
-37 42 -6 0 -10 -25 -10 -55z"/>
<path d="M7610 5715 c0 -54 0 -55 29 -55 36 0 61 23 61 55 0 32 -25 55 -61 55
-29 0 -29 -1 -29 -55z m68 33 c27 -27 7 -78 -30 -78 -15 0 -18 8 -18 45 0 37
3 45 18 45 10 0 23 -5 30 -12z"/>
<path d="M7772 5718 l-2 -58 33 1 c29 2 30 2 5 6 -25 4 -27 9 -31 56 l-3 52
-2 -57z"/>
<path d="M7850 5715 l0 -55 33 1 c30 2 30 2 5 6 -35 5 -39 40 -5 46 l22 4 -22
2 c-35 2 -31 39 5 44 25 4 25 4 -5 6 l-33 1 0 -55z"/>
<path d="M7935 5730 c15 -43 34 -80 35 -68 0 4 9 30 20 58 24 60 17 67 -9 8
l-17 -42 -17 42 c-21 54 -31 55 -12 2z"/>
<path d="M8030 5715 l0 -55 33 1 c30 2 30 2 5 6 -35 5 -39 40 -5 46 l22 4 -22
2 c-35 2 -31 39 5 44 25 4 25 4 -5 6 l-33 1 0 -55z"/>
<path d="M8110 5715 l0 -55 38 1 c30 2 32 3 10 6 -26 4 -28 8 -28 54 0 27 -4
49 -10 49 -5 0 -10 -25 -10 -55z"/>
<path d="M8355 5761 c-3 -6 1 -11 9 -11 19 0 21 -16 5 -26 -8 -5 -6 -10 5 -16
22 -12 20 -28 -4 -28 -11 0 -20 -4 -20 -10 0 -15 36 -12 50 5 7 8 9 22 5 32
-4 10 -8 27 -9 38 -1 21 -30 33 -41 16z"/>
<path d="M8441 5713 c1 -32 4 -46 6 -30 2 15 7 27 11 27 3 0 17 -12 30 -27
l24 -28 -15 26 c-14 24 -14 28 0 42 13 13 14 19 3 31 -7 9 -23 16 -36 16 -23
0 -24 -3 -23 -57z m47 24 c2 -12 -3 -17 -17 -17 -12 0 -21 6 -21 13 0 31 32
34 38 4z"/>
<path d="M8530 5715 c0 -54 0 -55 29 -55 36 0 61 23 61 55 0 32 -25 55 -61 55
-29 0 -29 -1 -29 -55z m68 33 c27 -27 7 -78 -30 -78 -15 0 -18 8 -18 45 0 37
3 45 18 45 10 0 23 -5 30 -12z"/>
<path d="M8692 5718 l-2 -58 33 1 c29 2 30 2 5 6 -25 4 -27 9 -31 56 l-3 52
-2 -57z"/>
<path d="M8770 5715 l0 -55 33 1 c30 2 30 2 5 6 -35 5 -39 40 -5 46 l22 4 -22
2 c-35 2 -31 39 5 44 25 4 25 4 -5 6 l-33 1 0 -55z"/>
<path d="M8855 5730 c15 -43 34 -80 35 -68 0 4 9 30 20 58 24 60 17 67 -9 8
l-17 -42 -17 42 c-21 54 -31 55 -12 2z"/>
<path d="M8950 5715 l0 -55 33 1 c30 2 30 2 5 6 -35 5 -39 40 -5 46 l22 4 -22
2 c-35 2 -31 39 5 44 25 4 25 4 -5 6 l-33 1 0 -55z"/>
<path d="M9030 5715 l0 -55 38 1 c30 2 32 3 10 6 -26 4 -28 8 -28 54 0 27 -4
49 -10 49 -5 0 -10 -25 -10 -55z"/>
<path d="M9372 5763 c13 -3 18 -18 21 -56 l3 -52 2 52 c2 45 5 52 25 56 12 2
2 4 -23 4 -25 1 -37 -1 -28 -4z"/>
<path d="M9463 5715 c0 -33 2 -48 4 -32 4 22 9 27 34 27 24 0 29 -4 29 -25 0
-14 5 -25 10 -25 6 0 10 25 10 55 0 30 -4 55 -10 55 -5 0 -10 -11 -10 -25 0
-21 -5 -25 -29 -25 -25 0 -30 5 -34 28 -2 15 -4 0 -4 -33z"/>
<path d="M9622 5718 l-2 -58 33 1 c29 2 30 2 5 6 -25 4 -27 9 -31 56 l-3 52
-2 -57z"/>
<path d="M9700 5715 l0 -55 33 1 c30 2 30 2 5 6 -35 5 -39 40 -5 46 l22 4 -22
2 c-35 2 -31 39 5 44 25 4 25 4 -5 6 l-33 1 0 -55z"/>
<path d="M9789 5728 c10 -24 20 -50 23 -58 3 -10 10 -3 20 21 25 58 30 88 6
39 l-21 -45 -16 43 c-8 23 -19 42 -23 42 -4 0 1 -19 11 -42z"/>
<path d="M9880 5715 l0 -55 33 1 c30 2 30 2 5 6 -35 5 -39 40 -5 46 l22 4 -22
2 c-35 2 -31 39 5 44 25 4 25 4 -5 6 l-33 1 0 -55z"/>
<path d="M9972 5718 l-2 -58 33 1 c29 2 30 2 5 6 -25 4 -27 9 -31 56 l-3 52
-2 -57z"/>
<path d="M10220 5745 c0 -14 7 -28 15 -31 23 -9 18 -34 -7 -34 -16 0 -19 -3
-11 -11 6 -6 20 -8 32 -4 25 8 29 52 6 61 -8 4 -15 10 -15 15 0 5 7 9 15 9 8
0 15 5 15 10 0 6 -11 10 -25 10 -20 0 -25 -5 -25 -25z"/>
<path d="M10302 5763 c13 -3 18 -18 21 -56 l3 -52 2 52 c2 45 5 52 25 56 12 2
2 4 -23 4 -25 1 -37 -1 -28 -4z"/>
<path d="M10393 5715 c0 -33 2 -48 4 -32 4 22 9 27 34 27 24 0 29 -4 29 -25 0
-14 5 -25 10 -25 6 0 10 25 10 55 0 30 -4 55 -10 55 -5 0 -10 -11 -10 -25 0
-21 -5 -25 -29 -25 -25 0 -30 5 -34 28 -2 15 -4 0 -4 -33z"/>
<path d="M10550 5715 l0 -55 38 1 c30 2 32 3 10 6 -26 4 -28 8 -28 54 0 27 -4
49 -10 49 -5 0 -10 -25 -10 -55z"/>
<path d="M10630 5715 l0 -55 33 1 c30 2 30 2 5 6 -35 5 -39 40 -5 46 l22 4
-22 2 c-35 2 -31 39 5 44 25 4 25 4 -5 6 l-33 1 0 -55z"/>
<path d="M10719 5728 c10 -24 20 -50 23 -58 3 -10 10 -3 20 21 25 58 30 88 6
39 l-21 -45 -16 43 c-8 23 -19 42 -23 42 -4 0 1 -19 11 -42z"/>
<path d="M10810 5715 l0 -55 33 1 c30 2 30 2 5 6 -35 5 -39 40 -5 46 l22 4
-22 2 c-35 2 -31 39 5 44 25 4 25 4 -5 6 l-33 1 0 -55z"/>
<path d="M10902 5718 l-2 -58 33 1 c29 2 30 2 5 6 -25 4 -27 9 -31 56 l-3 52
-2 -57z"/>
<path d="M11172 5763 c-21 -8 -33 -50 -22 -79 14 -36 54 -30 58 9 3 25 -5 32
-30 28 -5 0 -8 6 -8 14 0 8 9 15 20 15 11 0 20 5 20 10 0 11 -16 12 -38 3z
m18 -68 c0 -8 -4 -15 -10 -15 -5 0 -10 7 -10 15 0 8 5 15 10 15 6 0 10 -7 10
-15z"/>
<path d="M11233 5763 c13 -3 17 -15 17 -54 0 -27 5 -49 10 -49 6 0 10 22 10
49 0 39 4 51 18 54 9 3 -3 5 -28 5 -25 0 -37 -2 -27 -5z"/>
<path d="M11323 5715 c0 -33 2 -48 4 -32 4 23 9 27 38 27 29 0 34 -4 38 -27 2
-16 4 -1 4 32 0 33 -2 48 -4 33 -4 -24 -9 -28 -38 -28 -29 0 -34 4 -38 28 -2
15 -4 0 -4 -33z"/>
<path d="M11480 5715 l0 -55 38 1 c30 2 32 3 10 6 -26 4 -28 8 -28 54 0 27 -4
49 -10 49 -5 0 -10 -25 -10 -55z"/>
<path d="M11560 5715 l0 -55 38 1 c30 2 32 3 10 6 -35 5 -39 40 -5 46 l22 4
-22 2 c-16 1 -23 7 -23 20 0 12 8 21 23 24 16 3 13 5 -10 6 l-33 1 0 -55z"/>
<path d="M11646 5750 c4 -14 13 -41 21 -60 l15 -35 19 50 c24 64 24 85 -1 25
l-18 -45 -21 45 c-12 25 -18 34 -15 20z"/>
<path d="M11740 5715 l0 -55 38 1 c30 2 32 3 10 6 -35 5 -39 40 -5 46 l22 4
-22 2 c-16 1 -23 7 -23 20 0 12 8 21 23 24 16 3 13 5 -10 6 l-33 1 0 -55z"/>
<path d="M11832 5718 l-2 -58 33 1 c29 2 30 2 5 6 -25 4 -27 9 -31 56 l-3 52
-2 -57z"/>
<path d="M12080 5761 c0 -5 9 -11 20 -13 19 -3 19 -3 0 -45 -15 -34 -16 -43
-5 -43 11 0 45 76 45 102 0 4 -13 8 -30 8 -16 0 -30 -4 -30 -9z"/>
<path d="M12167 5763 c19 -4 23 -12 26 -56 l3 -52 2 52 c2 45 5 52 25 56 12 2
0 4 -28 4 -27 0 -40 -2 -28 -4z"/>
<path d="M12250 5715 c0 -30 5 -55 10 -55 6 0 10 11 10 25 0 21 5 25 29 25 25
0 30 -5 34 -27 2 -16 4 -1 4 32 0 33 -2 48 -4 33 -4 -23 -9 -28 -34 -28 -24 0
-29 4 -29 25 0 14 -4 25 -10 25 -5 0 -10 -25 -10 -55z"/>
<path d="M12422 5718 l-2 -58 33 1 c29 2 30 2 5 6 -25 4 -27 9 -31 56 l-3 52
-2 -57z"/>
<path d="M12500 5715 l0 -55 33 1 c30 2 30 2 5 6 -35 5 -39 40 -5 46 l22 4
-22 2 c-35 2 -31 39 5 44 25 4 25 4 -5 6 l-33 1 0 -55z"/>
<path d="M12585 5730 c15 -43 34 -80 35 -68 0 4 9 30 20 58 24 60 17 67 -9 8
l-17 -42 -17 42 c-21 54 -31 55 -12 2z"/>
<path d="M12680 5715 l0 -55 33 1 c30 2 30 2 5 6 -35 5 -39 40 -5 46 l22 4
-22 2 c-35 2 -31 39 5 44 25 4 25 4 -5 6 l-33 1 0 -55z"/>
<path d="M12760 5715 l0 -55 38 1 c30 2 32 3 10 6 -26 4 -28 8 -28 54 0 27 -4
49 -10 49 -5 0 -10 -25 -10 -55z"/>
<path d="M13017 5763 c-2 -4 -4 -28 -3 -53 1 -41 3 -45 26 -45 23 0 25 3 25
50 0 44 -3 50 -22 53 -11 2 -23 0 -26 -5z m33 -23 c0 -5 -4 -10 -10 -10 -5 0
-10 5 -10 10 0 6 5 10 10 10 6 0 10 -4 10 -10z m0 -51 c0 -5 -7 -9 -15 -9 -9
0 -12 6 -9 15 6 15 24 11 24 -6z"/>
<path d="M13097 5763 c19 -4 23 -12 26 -56 l3 -52 2 52 c2 45 5 52 25 56 12 2
0 4 -28 4 -27 0 -40 -2 -28 -4z"/>
<path d="M13180 5715 c0 -30 5 -55 10 -55 6 0 10 11 10 25 0 21 5 25 29 25 25
0 30 -5 34 -27 2 -16 4 -1 4 32 0 33 -2 48 -4 33 -4 -23 -9 -28 -34 -28 -24 0
-29 4 -29 25 0 14 -4 25 -10 25 -5 0 -10 -25 -10 -55z"/>
<path d="M13352 5718 l-2 -58 33 1 c29 2 30 2 5 6 -25 4 -27 9 -31 56 l-3 52
-2 -57z"/>
<path d="M13430 5715 l0 -55 33 1 c30 2 30 2 5 6 -35 5 -39 40 -5 46 l22 4
-22 2 c-35 2 -31 39 5 44 25 4 25 4 -5 6 l-33 1 0 -55z"/>
<path d="M13515 5730 c15 -43 34 -80 35 -68 0 4 9 30 20 58 24 60 17 67 -9 8
l-17 -42 -17 42 c-21 54 -31 55 -12 2z"/>
<path d="M13610 5715 l0 -55 33 1 c30 2 30 2 5 6 -35 5 -39 40 -5 46 l22 4
-22 2 c-35 2 -31 39 5 44 25 4 25 4 -5 6 l-33 1 0 -55z"/>
<path d="M13690 5715 l0 -55 38 1 c30 2 32 3 10 6 -26 4 -28 8 -28 54 0 27 -4
49 -10 49 -5 0 -10 -25 -10 -55z"/>
<path d="M13950 5755 c-18 -21 -8 -48 20 -56 l25 -6 -30 -13 c-26 -11 -27 -14
-10 -18 12 -3 26 4 37 18 21 25 22 43 8 71 -13 23 -33 25 -50 4z m38 -23 c2
-7 -3 -12 -12 -12 -9 0 -16 7 -16 16 0 17 22 14 28 -4z"/>
<path d="M14032 5763 c13 -3 18 -18 21 -56 l3 -52 2 52 c2 45 5 52 25 56 12 2
2 4 -23 4 -25 1 -37 -1 -28 -4z"/>
<path d="M14123 5715 c0 -33 2 -48 4 -32 4 22 9 27 34 27 24 0 29 -4 29 -25 0
-14 5 -25 10 -25 6 0 10 25 10 55 0 30 -4 55 -10 55 -5 0 -10 -11 -10 -25 0
-21 -5 -25 -29 -25 -25 0 -30 5 -34 28 -2 15 -4 0 -4 -33z"/>
<path d="M14282 5718 l-2 -58 33 1 c29 2 30 2 5 6 -25 4 -27 9 -31 56 l-3 52
-2 -57z"/>
<path d="M14360 5715 l0 -55 33 1 c30 2 30 2 5 6 -35 5 -39 40 -5 46 l22 4
-22 2 c-35 2 -31 39 5 44 25 4 25 4 -5 6 l-33 1 0 -55z"/>
<path d="M14449 5728 c10 -24 20 -50 23 -58 3 -10 10 -3 20 21 25 58 30 88 6
39 l-21 -45 -16 43 c-8 23 -19 42 -23 42 -4 0 1 -19 11 -42z"/>
<path d="M14540 5715 l0 -55 33 1 c30 2 30 2 5 6 -35 5 -39 40 -5 46 l22 4
-22 2 c-35 2 -31 39 5 44 25 4 25 4 -5 6 l-33 1 0 -55z"/>
<path d="M14632 5718 l-2 -58 33 1 c29 2 30 2 5 6 -25 4 -27 9 -31 56 l-3 52
-2 -57z"/>
<path d="M9301 5731 c-25 -34 -26 -41 -6 -41 7 0 18 -8 24 -17 16 -29 24 -8
22 55 -1 40 -13 41 -40 3z m19 -21 c0 -5 -5 -10 -11 -10 -5 0 -7 5 -4 10 3 6
8 10 11 10 2 0 4 -4 4 -10z"/>
<path d="M10107 4914 c-15 -15 -6 -44 18 -60 27 -18 23 -39 -6 -31 -26 7 -34
-10 -9 -18 54 -17 81 30 35 61 -32 21 -32 38 0 31 16 -3 24 0 22 7 -4 13 -49
20 -60 10z"/>
<path d="M10190 4860 c0 -33 4 -60 10 -60 6 0 10 9 10 20 0 13 7 20 18 20 24
0 42 19 42 46 0 23 -17 34 -56 34 -23 0 -24 -3 -24 -60z m58 23 c-5 -26 -38
-29 -38 -4 0 15 6 21 21 21 14 0 19 -5 17 -17z"/>
<path d="M10290 4860 l0 -60 35 0 c19 0 35 5 35 10 0 6 -11 10 -25 10 -16 0
-25 6 -25 15 0 8 9 15 20 15 11 0 20 5 20 10 0 6 -9 10 -20 10 -11 0 -20 7
-20 15 0 9 9 15 25 15 14 0 25 5 25 10 0 6 -16 10 -35 10 l-35 0 0 -60z"/>
<path d="M10380 4860 l0 -60 35 0 c19 0 35 5 35 10 0 6 -11 10 -25 10 -23 0
-25 3 -25 50 0 28 -4 50 -10 50 -6 0 -10 -27 -10 -60z"/>
<path d="M10470 4860 l0 -60 35 0 c19 0 35 5 35 10 0 6 -11 10 -25 10 -23 0
-25 3 -25 50 0 28 -4 50 -10 50 -6 0 -10 -27 -10 -60z"/>
<path d="M10599 4904 c-12 -15 -10 -20 20 -44 33 -29 29 -47 -9 -35 -11 4 -20
2 -20 -4 0 -17 48 -25 65 -11 22 18 18 35 -10 54 -29 19 -33 39 -7 34 11 -2
20 2 21 7 3 17 -45 17 -60 -1z"/>
<path d="M10690 4860 l0 -60 35 0 c19 0 35 5 35 10 0 6 -11 10 -25 10 -23 0
-25 3 -25 50 0 28 -4 50 -10 50 -6 0 -10 -27 -10 -60z"/>
<path d="M10792 4904 c-33 -23 -27 -73 11 -94 24 -13 30 -13 55 0 37 21 43 71
10 94 -12 9 -29 16 -38 16 -9 0 -26 -7 -38 -16z m68 -19 c26 -32 -13 -81 -47
-59 -35 22 -23 74 17 74 10 0 23 -7 30 -15z"/>
<path d="M10900 4910 c0 -5 7 -10 15 -10 11 0 15 -12 15 -50 0 -27 5 -50 10
-50 6 0 10 23 10 50 0 43 3 50 20 50 11 0 20 5 20 10 0 6 -20 10 -45 10 -25 0
-45 -4 -45 -10z"/>
<path d="M11012 4908 c-18 -18 -14 -34 13 -52 33 -22 33 -40 -1 -32 -19 5 -25
3 -22 -6 8 -22 55 -22 67 1 9 16 7 24 -11 41 -12 11 -26 20 -30 20 -5 0 -6 5
-2 11 3 6 15 9 25 6 12 -3 19 0 19 9 0 17 -41 19 -58 2z"/>
<path d="M720 5720 c14 -4 34 -8 45 -8 16 0 15 2 -5 8 -14 4 -34 8 -45 8 -16
0 -15 -2 5 -8z"/>
<path d="M798 5703 c6 -2 18 -2 25 0 6 3 1 5 -13 5 -14 0 -19 -2 -12 -5z"/>
<path d="M848 5693 c6 -2 18 -2 25 0 6 3 1 5 -13 5 -14 0 -19 -2 -12 -5z"/>
<path d="M950 5674 c36 -7 76 -13 90 -12 14 0 -6 6 -45 14 -38 7 -79 13 -90
12 -11 0 9 -6 45 -14z"/>
<path d="M15210 5639 c-36 -10 -49 -16 -29 -14 41 6 131 33 109 33 -8 0 -44
-8 -80 -19z"/>
<path d="M15080 5610 c-20 -6 -21 -8 -5 -8 11 0 31 4 45 8 20 6 21 8 5 8 -11
0 -31 -4 -45 -8z"/>
<path d="M15018 5593 c6 -2 18 -2 25 0 6 3 1 5 -13 5 -14 0 -19 -2 -12 -5z"/>
<path d="M15238 5073 c7 -3 16 -2 19 1 4 3 -2 6 -13 5 -11 0 -14 -3 -6 -6z"/>
<path d="M15140 5055 c-25 -7 -38 -13 -30 -14 8 0 38 6 65 13 28 8 41 14 30
14 -11 0 -40 -6 -65 -13z"/>
<path d="M15058 5033 c6 -2 18 -2 25 0 6 3 1 5 -13 5 -14 0 -19 -2 -12 -5z"/>
<path d="M15008 5023 c6 -2 18 -2 25 0 6 3 1 5 -13 5 -14 0 -19 -2 -12 -5z"/>
<path d="M14958 5013 c6 -2 18 -2 25 0 6 3 1 5 -13 5 -14 0 -19 -2 -12 -5z"/>
<path d="M14903 5003 c9 -2 23 -2 30 0 6 3 -1 5 -18 5 -16 0 -22 -2 -12 -5z"/>
<path d="M700 5150 c14 -4 34 -8 45 -8 16 0 15 2 -5 8 -14 4 -34 8 -45 8 -16
0 -15 -2 5 -8z"/>
<path d="M778 5133 c6 -2 18 -2 25 0 6 3 1 5 -13 5 -14 0 -19 -2 -12 -5z"/>
<path d="M4590 6370 c0 -5 5 -10 10 -10 6 0 10 5 10 10 0 6 -4 10 -10 10 -5 0
-10 -4 -10 -10z"/>
<path d="M3765 6310 c-3 -5 -1 -10 4 -10 6 0 11 5 11 10 0 6 -2 10 -4 10 -3 0
-8 -4 -11 -10z"/>
<path d="M4305 6290 c-3 -5 -1 -10 4 -10 6 0 11 5 11 10 0 6 -2 10 -4 10 -3 0
-8 -4 -11 -10z"/>
<path d="M5230 6280 c0 -5 5 -10 10 -10 6 0 10 5 10 10 0 6 -4 10 -10 10 -5 0
-10 -4 -10 -10z"/>
<path d="M4018 6263 c7 -3 16 -2 19 1 4 3 -2 6 -13 5 -11 0 -14 -3 -6 -6z"/>
<path d="M4157 6249 c8 -8 16 -8 30 0 16 9 14 10 -11 11 -22 0 -27 -3 -19 -11z"/>
<path d="M3790 6220 c-12 -8 -10 -10 10 -10 14 0 45 -14 70 -30 25 -16 54 -31
65 -31 11 -1 5 -5 -15 -10 -34 -8 24 -5 150 6 34 3 38 3 15 -3 -25 -6 -16 -10
55 -20 116 -16 258 -30 425 -41 116 -8 159 -15 253 -45 63 -20 121 -36 130
-35 9 0 13 2 7 4 -5 2 -62 19 -125 38 -204 62 -193 57 -135 52 l50 -4 -55 21
c-54 19 -201 47 -370 69 -80 11 -144 9 -300 -7 -60 -6 -72 -4 -132 25 -74 34
-77 35 -98 21z m630 -86 c91 -15 170 -31 175 -37 6 -6 -1 -7 -20 -4 -16 3 -68
11 -115 17 -47 6 -143 20 -215 29 -125 18 -128 19 -60 20 39 1 144 -11 235
-25z"/>
<path d="M3460 6180 c0 -5 5 -10 10 -10 6 0 10 5 10 10 0 6 -4 10 -10 10 -5 0
-10 -4 -10 -10z"/>
<path d="M3717 6176 c-24 -18 -140 -40 -171 -32 -30 7 -120 -4 -109 -14 4 -4
55 -4 114 0 82 5 117 13 160 33 29 14 47 26 39 26 -8 0 -23 -6 -33 -13z"/>
<path d="M4667 6173 c-3 -5 7 -9 21 -9 48 -2 143 -35 135 -46 -4 -8 0 -9 11
-5 10 4 27 0 39 -8 12 -8 26 -15 32 -15 5 0 3 5 -5 10 -13 9 -13 11 0 20 13 8
12 10 -5 11 -56 5 -76 9 -140 28 -78 23 -82 24 -88 14z"/>
<path d="M5095 6140 c3 -5 10 -10 16 -10 5 0 9 5 9 10 0 6 -7 10 -16 10 -8 0
-12 -4 -9 -10z"/>
<path d="M3390 6130 c0 -5 5 -10 11 -10 5 0 7 5 4 10 -3 6 -8 10 -11 10 -2 0
-4 -4 -4 -10z"/>
<path d="M3803 6123 c15 -2 39 -2 55 0 15 2 2 4 -28 4 -30 0 -43 -2 -27 -4z"/>
<path d="M4920 6117 c7 -7 184 -57 188 -52 2 2 -27 13 -65 24 -87 26 -129 35
-123 28z"/>
<path d="M3317 6094 c3 -7 9 -14 14 -14 14 0 10 17 -5 23 -10 4 -13 1 -9 -9z"/>
<path d="M3610 6090 c0 -5 5 -10 10 -10 6 0 10 5 10 10 0 6 -4 10 -10 10 -5 0
-10 -4 -10 -10z"/>
<path d="M4758 6083 c6 -2 18 -2 25 0 6 3 1 5 -13 5 -14 0 -19 -2 -12 -5z"/>
<path d="M4845 6064 c28 -7 55 -13 60 -13 17 2 -69 27 -90 27 -11 0 3 -6 30
-14z"/>
<path d="M4970 6065 c14 -8 30 -14 35 -14 6 0 -1 6 -15 14 -14 8 -29 14 -35
14 -5 0 1 -6 15 -14z"/>
<path d="M3225 6062 c-6 -4 -10 -25 -10 -47 0 -22 -4 -43 -8 -46 -5 -3 -2 -9
7 -12 9 -4 16 -2 16 3 0 6 7 10 15 10 8 0 15 -7 15 -15 0 -9 6 -12 15 -9 11 4
12 10 6 18 -12 15 3 41 18 32 6 -4 11 0 11 9 0 9 -4 14 -9 11 -4 -3 -17 4 -27
15 -10 11 -24 17 -32 14 -10 -3 -12 0 -8 10 6 17 5 18 -9 7z m25 -38 c0 -8
-19 -13 -24 -6 -3 5 1 9 9 9 8 0 15 -2 15 -3z"/>
<path d="M5380 6060 c0 -5 5 -10 10 -10 6 0 10 5 10 10 0 6 -4 10 -10 10 -5 0
-10 -4 -10 -10z"/>
<path d="M3270 6050 c0 -5 5 -10 11 -10 5 0 7 5 4 10 -3 6 -8 10 -11 10 -2 0
-4 -4 -4 -10z"/>
<path d="M3894 6052 c2 -4 -30 -8 -72 -10 -164 -4 -241 -10 -332 -27 -89 -17
-93 -19 -61 -27 22 -6 42 -6 55 0 36 18 57 22 51 12 -4 -6 17 -10 54 -10 34 0
61 4 61 10 0 6 9 6 24 0 13 -5 27 -6 30 -3 3 4 6 1 6 -5 0 -7 -5 -12 -12 -12
-6 0 -8 -3 -5 -6 4 -4 13 -1 21 6 9 7 35 11 65 8 27 -1 47 0 44 5 -2 4 24 7
59 7 44 0 58 3 48 10 -8 5 -32 7 -52 3 -25 -4 -38 -2 -38 6 0 18 139 15 146
-4 4 -8 10 -15 16 -15 5 0 6 5 3 10 -3 6 -1 10 4 10 6 0 11 5 11 10 0 6 -9 10
-20 10 -11 0 -20 5 -20 10 0 6 -8 10 -17 10 -15 0 -16 -2 -3 -10 12 -8 9 -10
-12 -10 -15 0 -30 5 -33 10 -3 6 -11 10 -16 10 -6 0 -8 -3 -5 -8z m-74 -40 c0
-5 -23 -9 -51 -11 -34 -1 -49 2 -44 8 7 13 95 15 95 3z m-202 -9 c-10 -2 -28
-2 -40 0 -13 2 -5 4 17 4 22 1 32 -1 23 -4z"/>
<path d="M4125 6039 c-11 -4 -14 -8 -7 -8 21 -1 13 -19 -10 -24 -13 -2 2 -5
33 -6 31 0 92 -3 135 -6 64 -4 73 -3 49 6 -16 6 -50 11 -75 11 -25 0 -35 3
-22 5 12 2 22 8 22 12 0 4 -10 7 -22 6 -13 -1 -37 1 -53 5 -17 4 -39 3 -50 -1z"/>
<path d="M4920 6046 c0 -2 40 -13 88 -25 88 -21 172 -56 152 -63 -5 -1 16 -3
48 -3 64 -1 150 -32 119 -44 -12 -4 22 -19 103 -44 67 -21 118 -42 115 -46 -3
-5 4 -7 15 -4 16 4 18 8 9 20 -10 11 -10 13 1 11 8 -2 16 5 18 15 3 13 -11 24
-58 45 -33 16 -57 32 -53 37 4 4 0 5 -9 2 -10 -4 -39 3 -64 13 -65 28 -89 24
-26 -5 90 -41 62 -39 -68 5 -14 4 -77 24 -140 43 -63 20 -124 39 -135 43 l-20
7 20 -16 c18 -15 15 -15 -40 -2 -65 16 -75 17 -75 11z m614 -185 c4 -5 -3 -7
-14 -4 -23 6 -26 13 -6 13 8 0 17 -4 20 -9z"/>
<path d="M4468 6018 c5 -5 16 -8 23 -6 8 3 3 7 -10 11 -17 4 -21 3 -13 -5z"/>
<path d="M5715 6021 c-3 -5 -1 -12 5 -16 5 -3 10 1 10 9 0 18 -6 21 -15 7z"/>
<path d="M4389 6009 c-10 -6 -4 -9 19 -9 17 0 32 2 32 4 0 9 -39 13 -51 5z"/>
<path d="M4567 5989 c7 -7 15 -10 18 -7 3 3 -2 9 -12 12 -14 6 -15 5 -6 -5z"/>
<path d="M4606 5991 c6 -7 29 -14 50 -17 21 -2 52 -7 68 -10 17 -4 26 -2 23 4
-4 5 -31 12 -61 16 -30 3 -63 9 -73 12 -14 5 -15 4 -7 -5z"/>
<path d="M3585 5974 l-70 -13 65 5 c35 3 71 10 80 14 18 11 14 11 -75 -6z"/>
<path d="M4058 5983 c12 -2 30 -2 40 0 9 3 -1 5 -23 4 -22 0 -30 -2 -17 -4z"/>
<path d="M4368 5983 c6 -2 18 -2 25 0 6 3 1 5 -13 5 -14 0 -19 -2 -12 -5z"/>
<path d="M4496 5982 c-3 -5 1 -9 9 -9 8 0 15 4 15 9 0 4 -4 8 -9 8 -6 0 -12
-4 -15 -8z"/>
<path d="M5028 5983 c7 -3 16 -2 19 1 4 3 -2 6 -13 5 -11 0 -14 -3 -6 -6z"/>
<path d="M3398 5973 c7 -3 16 -2 19 1 4 3 -2 6 -13 5 -11 0 -14 -3 -6 -6z"/>
<path d="M5078 5973 c7 -3 16 -2 19 1 4 3 -2 6 -13 5 -11 0 -14 -3 -6 -6z"/>
<path d="M1204 5956 c-10 -8 -16 -17 -13 -21 8 -7 59 15 59 27 0 13 -24 10
-46 -6z"/>
<path d="M3488 5963 c7 -3 16 -2 19 1 4 3 -2 6 -13 5 -11 0 -14 -3 -6 -6z"/>
<path d="M3805 5960 c3 -5 12 -7 20 -3 21 7 19 13 -6 13 -11 0 -18 -4 -14 -10z"/>
<path d="M4573 5963 c9 -2 25 -2 35 0 9 3 1 5 -18 5 -19 0 -27 -2 -17 -5z"/>
<path d="M4763 5964 c4 -4 15 -10 25 -12 27 -6 56 -10 70 -11 7 -1 11 -5 8 -9
-3 -5 9 -7 27 -4 25 3 29 1 17 -8 -12 -8 -8 -10 18 -6 17 2 32 0 32 -6 0 -6
13 -7 31 -3 22 5 34 3 40 -6 4 -7 11 -10 16 -6 11 12 -19 28 -45 24 -12 -3
-25 0 -28 4 -3 5 -14 9 -24 9 -11 0 -39 6 -62 14 -54 18 -136 31 -125 20z"/>
<path d="M4168 5953 c7 -3 16 -2 19 1 4 3 -2 6 -13 5 -11 0 -14 -3 -6 -6z"/>
<path d="M3610 5940 c-12 -8 -9 -10 13 -10 16 0 26 4 22 10 -8 12 -16 12 -35
0z"/>
<path d="M3885 5940 c3 -5 16 -10 28 -10 18 0 19 2 7 10 -20 13 -43 13 -35 0z"/>
<path d="M4723 5943 c9 -2 23 -2 30 0 6 3 -1 5 -18 5 -16 0 -22 -2 -12 -5z"/>
<path d="M3515 5920 c-16 -7 -17 -9 -3 -9 9 -1 20 4 23 9 7 11 7 11 -20 0z"/>
<path d="M3675 5916 c11 -8 24 -12 29 -8 5 3 1 9 -10 13 -31 12 -39 10 -19 -5z"/>
<path d="M3580 5910 c-17 -4 -21 -8 -12 -14 16 -10 16 -29 0 -20 -7 4 -4 -3 7
-17 14 -17 15 -20 3 -10 -15 11 -18 10 -23 -12 -7 -26 22 -67 46 -67 6 0 8 -8
4 -19 -4 -15 -2 -19 12 -16 10 2 22 4 27 4 5 1 2 9 -7 19 -15 16 -15 19 5 31
16 10 22 10 28 1 5 -8 9 -4 13 10 4 17 2 20 -15 14 -15 -4 -18 -3 -13 7 6 9 3
11 -9 6 -23 -9 -47 15 -35 34 7 11 9 11 9 -3 0 -12 7 -18 23 -17 16 1 18 2 5
6 -10 2 -18 11 -18 19 0 8 -7 14 -16 14 -9 0 -14 6 -11 13 2 6 11 11 20 9 8
-1 18 2 21 6 6 11 -27 12 -64 2z m0 -90 c0 -5 -5 -10 -11 -10 -5 0 -7 5 -4 10
3 6 8 10 11 10 2 0 4 -4 4 -10z m17 -32 c-3 -8 -6 -5 -6 6 -1 11 2 17 5 13 3
-3 4 -12 1 -19z m38 12 c3 -5 2 -10 -4 -10 -5 0 -13 5 -16 10 -3 6 -2 10 4 10
5 0 13 -4 16 -10z"/>
<path d="M3329 5903 c-1 -4 0 -16 1 -27 1 -11 -3 -16 -10 -11 -7 5 -9 -2 -4
-21 5 -19 4 -25 -5 -20 -6 4 -11 14 -11 22 0 8 -4 12 -10 9 -5 -3 -10 3 -10
14 0 20 -1 20 -18 4 -17 -17 -17 -18 3 -26 19 -8 19 -9 2 -18 -9 -6 -14 -15
-11 -21 5 -7 0 -9 -12 -6 -16 4 -20 0 -20 -18 0 -13 4 -24 8 -24 4 0 8 4 8 9
0 5 8 12 17 15 10 4 14 4 11 0 -4 -3 0 -13 9 -22 13 -14 13 -17 0 -26 -12 -10
-12 -13 -1 -24 11 -10 14 -10 14 0 0 9 3 9 10 -2 14 -21 13 5 0 31 -7 13 -7
19 0 19 5 0 10 -4 10 -10 0 -5 7 -10 15 -10 8 0 15 5 15 10 0 6 10 15 23 20
l22 9 -22 0 c-13 1 -23 6 -23 12 0 6 9 8 23 4 17 -6 19 -5 10 5 -6 7 -9 19 -6
26 3 8 -2 17 -11 20 -16 6 -15 8 1 26 16 18 16 19 -2 12 -12 -5 -16 -4 -11 4
3 6 2 13 -4 17 -5 3 -11 3 -11 -2z m21 -77 c0 -3 -4 -8 -10 -11 -5 -3 -10 -1
-10 4 0 6 5 11 10 11 6 0 10 -2 10 -4z m-50 -16 c0 -5 -4 -10 -9 -10 -6 0 -13
5 -16 10 -3 6 1 10 9 10 9 0 16 -4 16 -10z m0 -30 c0 -5 -5 -10 -11 -10 -5 0
-7 5 -4 10 3 6 8 10 11 10 2 0 4 -4 4 -10z m30 -15 c0 -8 -2 -15 -4 -15 -2 0
-6 7 -10 15 -3 8 -1 15 4 15 6 0 10 -7 10 -15z"/>
<path d="M3513 5893 c9 -2 23 -2 30 0 6 3 -1 5 -18 5 -16 0 -22 -2 -12 -5z"/>
<path d="M3647 5880 c-4 -15 0 -20 14 -20 17 0 18 3 9 20 -6 11 -12 20 -14 20
-2 0 -6 -9 -9 -20z"/>
<path d="M5060 5890 c0 -6 7 -10 15 -10 8 0 15 2 15 4 0 2 -7 6 -15 10 -8 3
-15 1 -15 -4z"/>
<path d="M3524 5850 c0 -20 7 -25 19 -14 7 7 -2 34 -12 34 -4 0 -7 -9 -7 -20z"/>
<path d="M5210 5860 c0 -9 39 -25 45 -18 2 2 -7 8 -21 15 -13 6 -24 7 -24 3z"/>
<path d="M5600 5861 c0 -5 7 -12 17 -15 14 -6 14 -8 -3 -20 -10 -8 -17 -16
-14 -18 9 -6 225 -98 232 -98 3 0 4 10 0 22 -3 14 -2 19 6 14 7 -4 12 -2 12 4
0 6 -12 15 -26 20 -33 13 -34 13 -34 -4 0 -9 -7 -12 -20 -9 -13 3 -20 14 -20
28 0 17 -10 27 -37 38 -21 9 -55 23 -75 31 -21 9 -38 12 -38 7z"/>
<path d="M5270 5849 c0 -5 5 -7 10 -4 6 3 10 8 10 11 0 2 -4 4 -10 4 -5 0 -10
-5 -10 -11z"/>
<path d="M3388 5831 c-15 -18 -14 -19 8 -30 15 -6 24 -7 24 -1 0 6 -4 10 -10
10 -5 0 -10 5 -10 11 0 5 4 7 10 4 6 -3 7 1 4 9 -8 20 -6 20 -26 -3z"/>
<path d="M3837 5835 c2 -8 -1 -22 -7 -32 -10 -16 -11 -16 -6 0 3 9 2 17 -2 17
-10 -1 -42 -26 -42 -33 0 -4 8 -4 18 -1 15 5 15 4 -1 -6 -10 -6 -24 -10 -30
-7 -7 3 -13 -3 -13 -14 0 -14 3 -16 15 -6 11 9 15 9 18 0 3 -7 12 -13 21 -13
13 0 13 -2 -2 -13 -17 -12 -17 -15 -3 -20 11 -4 17 2 22 24 7 33 43 53 72 42
13 -5 15 -2 10 11 -4 10 -7 20 -7 23 0 3 -6 0 -14 -6 -10 -9 -16 -7 -27 5 -11
13 -10 17 2 25 8 5 12 9 9 10 -3 0 -13 2 -22 4 -10 2 -15 -2 -11 -10z m23 -39
c0 -3 -4 -8 -10 -11 -5 -3 -10 -1 -10 4 0 6 5 11 10 11 6 0 10 -2 10 -4z"/>
<path d="M4230 5835 c0 -8 5 -15 10 -15 6 0 10 7 10 15 0 8 -4 15 -10 15 -5 0
-10 -7 -10 -15z"/>
<path d="M4284 5828 c-6 -13 -9 -17 -7 -10 3 16 -7 15 -28 -4 -13 -12 -15 -22
-9 -45 5 -16 9 -33 9 -36 0 -4 4 -9 10 -11 6 -2 9 2 6 10 -4 9 2 14 15 14 11
0 20 -6 20 -14 0 -7 4 -11 10 -7 5 3 7 22 4 42 -4 35 -3 36 14 20 17 -15 18
-15 19 4 1 14 -3 19 -12 15 -7 -2 -19 2 -25 10 -10 11 -10 14 -1 14 7 0 9 5 6
10 -10 16 -20 12 -31 -12z m26 -22 c0 -3 -4 -8 -10 -11 -5 -3 -10 -1 -10 4 0
6 5 11 10 11 6 0 10 -2 10 -4z m-10 -36 c-8 -5 -19 -10 -25 -10 -5 0 -3 5 5
10 8 5 20 10 25 10 6 0 3 -5 -5 -10z"/>
<path d="M3780 5825 c-10 -12 -10 -15 4 -15 9 0 16 7 16 15 0 8 -2 15 -4 15
-2 0 -9 -7 -16 -15z"/>
<path d="M5388 5823 c7 -3 16 -2 19 1 4 3 -2 6 -13 5 -11 0 -14 -3 -6 -6z"/>
<path d="M5450 5815 c0 -8 4 -15 8 -15 5 0 9 7 9 15 0 8 -4 15 -9 15 -4 0 -8
-7 -8 -15z"/>
<path d="M4635 5810 c-3 -5 -1 -10 5 -10 6 0 8 -5 5 -11 -4 -6 -13 -8 -21 -5
-8 3 -14 -1 -14 -9 0 -14 12 -20 33 -16 4 1 3 -8 -3 -18 -7 -13 -7 -22 0 -26
5 -3 10 -1 10 4 0 6 7 11 16 11 8 0 12 -4 9 -10 -3 -6 1 -7 10 -3 12 4 13 8 5
13 -9 5 -9 9 -1 14 6 4 16 4 21 1 6 -3 10 1 10 9 0 15 -12 21 -33 17 -4 -1 -3
8 3 18 7 13 7 22 0 26 -5 3 -10 1 -10 -4 0 -6 -7 -11 -16 -11 -8 0 -12 5 -9
10 3 6 2 10 -4 10 -5 0 -13 -4 -16 -10z"/>
<path d="M5425 5810 c3 -5 8 -10 11 -10 2 0 4 5 4 10 0 6 -5 10 -11 10 -5 0
-7 -4 -4 -10z"/>
<path d="M5497 5784 c2 -7 11 -10 19 -7 19 7 18 10 -5 16 -13 3 -18 1 -14 -9z"/>
<path d="M5545 5790 c3 -5 -3 -13 -12 -19 -10 -6 -13 -11 -6 -11 6 0 15 5 18
10 10 15 28 12 22 -4 -4 -10 5 -18 25 -25 17 -6 33 -9 36 -7 2 3 -7 8 -21 12
-15 3 -26 9 -25 13 2 19 -4 29 -22 34 -11 3 -18 1 -15 -3z"/>
<path d="M3544 5782 c-9 -5 -8 -10 1 -19 10 -9 14 -8 18 8 5 20 0 24 -19 11z"/>
<path d="M4210 5774 c0 -8 5 -12 10 -9 6 3 10 10 10 16 0 5 -4 9 -10 9 -5 0
-10 -7 -10 -16z"/>
<path d="M3858 5763 c-10 -2 -18 -11 -18 -19 0 -11 4 -10 20 3 17 15 26 26 18
22 -2 -1 -11 -3 -20 -6z"/>
<path d="M3358 5733 c4 -20 7 -23 10 -10 2 9 11 17 20 18 14 0 13 2 -3 9 -31
13 -33 12 -27 -17z"/>
<path d="M3860 5718 c0 -17 2 -18 15 -8 8 7 15 14 15 15 0 2 -7 5 -15 9 -10 4
-15 -1 -15 -16z"/>
<path d="M675 5508 c-27 -15 -65 -50 -65 -59 0 -14 70 32 81 52 11 22 11 22
-16 7z"/>
<path d="M672 5467 c-47 -34 -42 -48 8 -22 28 15 48 40 39 50 -2 2 -23 -11
-47 -28z"/>
<path d="M677 5406 c-3 -8 -24 -25 -46 -38 -50 -28 -63 -51 -23 -42 43 10 69
30 80 63 11 30 0 45 -11 17z"/>
<path d="M6235 5380 c3 -5 8 -10 11 -10 2 0 4 5 4 10 0 6 -5 10 -11 10 -5 0
-7 -4 -4 -10z"/>
<path d="M549 5355 c-15 -8 -34 -32 -43 -55 -20 -50 -20 -50 0 -50 8 0 21 15
29 33 7 17 23 44 35 60 24 30 18 33 -21 12z"/>
<path d="M4255 5329 c-10 -15 3 -25 16 -12 7 7 7 13 1 17 -6 3 -14 1 -17 -5z"/>
<path d="M2310 5320 c0 -5 25 -10 55 -10 l56 0 -61 -90 c-33 -49 -60 -92 -60
-95 0 -3 34 -5 75 -5 43 0 75 4 75 10 0 6 -27 10 -60 10 l-61 0 61 90 c33 49
60 92 60 95 0 3 -31 5 -70 5 -40 0 -70 -4 -70 -10z"/>
<path d="M3390 5326 c0 -3 -18 -50 -39 -105 -28 -71 -36 -101 -26 -101 7 0 18
14 24 30 9 27 14 30 54 30 40 0 46 -3 57 -30 11 -27 30 -41 30 -23 0 24 -77
203 -87 203 -7 0 -13 -2 -13 -4z m44 -104 c7 -20 4 -22 -28 -22 -41 0 -42 4
-20 61 l17 41 12 -29 c7 -16 16 -39 19 -51z"/>
<path d="M2500 5250 c-42 -42 -15 -130 40 -130 34 0 60 9 60 21 0 5 -10 5 -22
0 -27 -10 -49 -4 -65 17 -22 27 -15 32 43 32 l56 0 -7 27 c-4 16 -11 34 -17
40 -16 20 -66 15 -88 -7z m81 -21 c9 -17 6 -19 -36 -19 -42 0 -45 2 -35 19 18
34 52 34 71 0z"/>
<path d="M2657 5252 c-22 -24 -22 -95 -1 -116 18 -19 65 -21 82 -4 9 9 12 7
12 -9 0 -34 -28 -55 -67 -51 -20 3 -32 0 -30 -6 7 -19 89 -11 104 9 16 22 19
195 3 195 -5 0 -10 -5 -10 -12 0 -9 -3 -9 -12 0 -18 18 -63 14 -81 -6z m88
-57 c0 -50 -30 -73 -63 -49 -51 35 -9 134 43 100 14 -10 20 -24 20 -51z"/>
<path d="M2820 5195 c0 -43 4 -75 10 -75 6 0 10 18 10 39 0 56 15 91 40 91 11
0 20 5 20 10 0 14 -23 12 -39 -2 -11 -10 -14 -10 -18 0 -12 33 -23 4 -23 -63z"/>
<path d="M2937 5263 c-15 -14 -6 -22 16 -14 27 10 57 -3 57 -24 0 -10 -10 -15
-28 -15 -42 0 -64 -21 -60 -55 2 -24 8 -31 31 -33 16 -2 35 2 43 9 10 8 14 8
14 0 0 -6 5 -11 10 -11 14 0 13 123 -2 138 -13 13 -70 17 -81 5z m73 -82 c0
-24 -36 -52 -57 -44 -23 9 -11 46 17 54 38 11 40 10 40 -10z"/>
<path d="M3080 5195 c0 -43 4 -75 10 -75 6 0 10 24 10 54 0 45 4 58 22 70 15
11 26 12 40 5 14 -8 18 -22 18 -69 0 -33 4 -60 10 -60 14 0 13 123 -2 138 -7
7 -24 12 -38 12 -14 0 -31 -5 -38 -12 -9 -9 -12 -9 -12 0 0 7 -4 12 -10 12 -6
0 -10 -32 -10 -75z"/>
<path d="M3510 5263 c0 -24 54 -143 63 -140 13 4 70 138 62 145 -9 9 -21 -11
-41 -66 -10 -28 -21 -49 -25 -45 -3 5 -14 32 -24 61 -9 28 -21 52 -26 52 -5 0
-9 -3 -9 -7z"/>
<path d="M3680 5250 c-42 -42 -15 -130 40 -130 34 0 60 9 60 21 0 5 -10 5 -22
0 -27 -10 -49 -4 -65 17 -22 27 -15 32 43 32 l56 0 -7 27 c-4 16 -11 34 -17
40 -16 20 -66 15 -88 -7z m81 -21 c9 -17 6 -19 -36 -19 -42 0 -45 2 -35 19 18
34 52 34 71 0z"/>
<path d="M3830 5195 c0 -88 18 -102 22 -17 3 48 7 59 26 67 12 5 22 13 22 17
0 12 -25 9 -38 -4 -9 -9 -12 -9 -12 0 0 7 -4 12 -10 12 -6 0 -10 -32 -10 -75z"/>
<path d="M3930 5195 c0 -43 4 -75 10 -75 6 0 10 24 10 54 0 45 4 58 22 70 15
11 26 12 40 5 14 -8 18 -22 18 -69 0 -33 4 -60 10 -60 14 0 13 123 -2 138 -7
7 -24 12 -38 12 -14 0 -31 -5 -38 -12 -9 -9 -12 -9 -12 0 0 7 -4 12 -10 12 -6
0 -10 -32 -10 -75z"/>
<path d="M4113 5263 c-24 -9 -14 -23 10 -14 26 10 57 -3 57 -23 0 -6 -19 -16
-42 -22 -34 -7 -44 -14 -46 -32 -6 -43 45 -71 76 -40 9 9 12 9 12 0 0 -7 5
-12 10 -12 14 0 13 123 -2 138 -12 12 -52 15 -75 5z m65 -90 c-3 -24 -8 -28
-33 -28 -39 0 -43 36 -5 46 40 11 41 10 38 -18z"/>
<path d="M4250 5195 c0 -43 4 -75 10 -75 6 0 10 32 10 75 0 43 -4 75 -10 75
-6 0 -10 -32 -10 -75z"/>
<path d="M2086 4638 c-9 -29 -20 -59 -23 -65 -2 -7 0 -13 5 -13 5 0 12 9 15
20 7 28 51 27 65 -2 17 -36 12 1 -7 56 -9 28 -22 51 -27 53 -6 2 -18 -20 -28
-49z m41 -24 c-3 -3 -12 -4 -20 -2 -11 2 -12 9 -5 28 l10 25 11 -23 c5 -12 8
-25 4 -28z"/>
<path d="M2306 4638 c-9 -29 -20 -59 -23 -65 -2 -7 0 -13 5 -13 5 0 12 9 15
20 7 28 51 27 65 -2 19 -40 13 -1 -9 57 -11 30 -24 55 -28 55 -4 0 -15 -24
-25 -52z m41 -24 c-3 -3 -12 -4 -20 -2 -11 2 -12 9 -5 28 l10 25 11 -23 c5
-12 8 -25 4 -28z"/>
<path d="M3045 4678 c-23 -64 -35 -102 -34 -112 0 -6 4 -1 9 12 13 30 70 32
70 2 0 -11 4 -20 9 -20 5 0 0 29 -12 65 -21 63 -33 78 -42 53z m28 -48 c4 -15
0 -20 -14 -20 -20 0 -23 8 -13 34 7 20 20 13 27 -14z"/>
<path d="M1858 4673 c6 -2 18 -2 25 0 6 3 1 5 -13 5 -14 0 -19 -2 -12 -5z"/>
<path d="M1930 4620 c0 -33 4 -60 10 -60 6 0 10 14 10 30 0 28 3 30 34 30 32
0 35 -3 39 -32 2 -18 4 -4 4 32 0 36 -2 53 -4 38 -4 -24 -9 -28 -39 -28 -30 0
-34 3 -34 25 0 14 -4 25 -10 25 -6 0 -10 -27 -10 -60z"/>
<path d="M2191 4618 c1 -35 4 -51 6 -35 5 34 18 34 39 2 9 -14 20 -25 25 -25
5 0 2 11 -6 24 -13 20 -14 28 -4 44 18 29 5 52 -31 52 l-30 0 1 -62z m54 27
c0 -13 -8 -21 -22 -23 -19 -3 -23 1 -23 23 0 22 4 26 23 23 14 -2 22 -10 22
-23z"/>
<path d="M2448 4673 c6 -2 18 -2 25 0 6 3 1 5 -13 5 -14 0 -19 -2 -12 -5z"/>
<path d="M2524 4673 c28 -5 29 -5 23 -59 -3 -30 -2 -54 4 -54 5 0 9 24 9 54 0
49 2 55 23 59 12 2 -3 4 -33 4 -30 0 -42 -2 -26 -4z"/>
<path d="M2620 4620 l0 -60 38 2 c36 1 36 1 5 5 -27 4 -33 9 -33 28 0 18 6 25
28 28 l27 4 -27 2 c-21 1 -28 6 -28 20 0 15 8 21 33 24 31 4 31 4 -5 5 l-38 2
0 -60z"/>
<path d="M2721 4618 c1 -35 4 -51 6 -35 2 15 9 27 16 27 6 0 22 -12 35 -27
l23 -28 -16 27 c-16 25 -16 29 -1 43 23 24 4 55 -34 55 l-30 0 1 -62z m57 30
c-2 -15 -11 -24 -25 -26 -19 -3 -23 1 -23 22 0 21 5 26 26 26 21 0 25 -4 22
-22z"/>
<path d="M2882 4618 l1 -63 6 55 6 55 34 -53 c18 -28 37 -52 42 -52 5 0 8 28
7 63 -1 56 -2 57 -5 15 -2 -27 -8 -48 -13 -48 -4 0 -21 20 -37 45 -15 25 -31
45 -35 45 -5 0 -7 -28 -6 -62z"/>
<path d="M3132 4618 c1 -50 2 -54 5 -20 5 53 19 54 34 2 13 -42 23 -50 33 -24
9 23 7 31 -4 14 -7 -12 -10 -11 -16 5 -37 105 -55 113 -52 23z"/>
<path d="M3237 4628 c7 -78 11 -82 12 -10 1 34 -3 62 -8 62 -4 0 -6 -24 -4
-52z"/>
<path d="M3300 4620 l0 -60 38 2 c36 1 36 1 5 5 -27 4 -33 9 -33 28 0 18 6 25
28 28 l27 4 -27 2 c-21 1 -28 6 -28 20 0 15 8 21 33 24 31 4 31 4 -5 5 l-38 2
0 -60z"/>
<path d="M1822 4658 c-33 -33 3 -99 53 -97 13 0 9 4 -12 10 -37 11 -51 44 -33
78 12 24 10 27 -8 9z"/>
<path d="M2412 4658 c-33 -33 3 -99 53 -97 13 0 9 4 -12 10 -37 11 -51 44 -33
78 12 24 10 27 -8 9z"/>
<path d="M3216 4635 c-9 -26 -7 -32 5 -12 6 10 9 21 6 23 -2 3 -7 -2 -11 -11z"/>
<path d="M6170 3965 l-64 -65 -2681 0 -2680 0 -83 -83 -82 -82 0 -200 0 -200
83 -83 82 -82 2680 0 2681 0 64 -65 64 -65 4105 0 4104 0 68 65 67 65 269 0
268 0 83 83 82 82 0 200 0 200 -83 83 -82 82 -269 0 -268 0 -67 65 -68 65
-4104 0 -4105 0 -64 -65z m120 17 c-51 -34 -91 -78 -120 -132 l-30 -55 0 45
c0 41 5 49 57 102 45 46 64 58 88 57 l30 0 -25 -17z m8062 -1 c24 -10 61 -34
81 -53 l37 -35 0 -355 0 -354 -37 -36 c-21 -20 -58 -46 -83 -57 -45 -21 -45
-21 -4010 -21 -3965 0 -3965 0 -4010 21 -25 11 -62 37 -82 57 l-38 36 0 351 0
351 38 36 c20 20 57 46 82 57 45 21 45 21 4012 21 3859 0 3968 -1 4010 -19z
m130 -38 c54 -53 58 -61 58 -103 l0 -45 -19 40 c-23 51 -64 100 -115 136 l-39
29 29 0 c21 0 43 -14 86 -57z m-13661 -115 c-61 -29 -148 -105 -184 -158 l-16
-25 0 40 c-1 36 5 46 66 107 l67 68 66 0 65 -1 -64 -31z m5233 7 l-16 -25
-2602 0 c-1948 1 -2596 3 -2581 12 64 37 23 37 2658 37 l2557 1 -16 -25z
m8926 -2 l45 -21 -184 -1 c-158 -1 -187 1 -203 16 -10 9 -18 20 -18 25 0 6 64
8 158 6 135 -3 163 -6 202 -25z m192 -40 c64 -63 68 -70 68 -112 l0 -44 -32
47 c-37 57 -113 120 -183 152 l-50 23 65 0 64 1 68 -67z m-8983 -260 l-1 -308
-21 45 c-20 41 -22 64 -25 251 -3 189 -1 210 18 262 12 31 23 57 26 57 2 0 4
-138 3 -307z m8335 250 c13 -36 16 -90 16 -248 0 -158 -3 -212 -16 -248 -9
-26 -20 -49 -25 -53 -5 -3 -9 121 -9 301 0 180 4 304 9 301 5 -4 16 -27 25
-53z m176 -107 c0 -27 -13 -18 -67 49 -35 42 -53 73 -53 91 0 24 7 18 60 -49
33 -41 60 -82 60 -91z m-8604 111 c-3 -12 -28 -46 -54 -76 -71 -80 -74 -43 -3
45 54 69 70 77 57 31z m-214 -16 c69 -44 73 -59 32 -110 -32 -42 -34 -48 -34
-125 0 -77 2 -83 35 -124 31 -40 33 -46 20 -65 -8 -12 -32 -33 -55 -47 -22
-14 -40 -28 -40 -32 0 -4 46 -9 101 -10 93 -3 103 -5 117 -25 l14 -23 -2560 0
-2561 0 -70 26 c-39 15 -71 30 -71 35 0 5 -6 9 -14 9 -24 0 -116 91 -147 144
-37 65 -40 145 -8 208 24 47 117 144 151 157 14 6 1023 10 2534 10 l2510 1 46
-29z m128 13 c0 -3 -10 -18 -23 -33 l-23 -28 -39 34 -38 33 61 0 c34 0 62 -3
62 -6z m8789 4 c-2 -2 -20 -18 -40 -36 l-36 -33 -27 36 -27 35 67 0 c37 0 65
-1 63 -2z m319 -35 c25 -20 62 -63 83 -96 34 -52 39 -68 39 -119 0 -75 -24
-124 -100 -200 l-58 -58 -125 0 c-122 0 -125 0 -166 30 -23 17 -44 37 -47 45
-3 8 8 31 25 52 30 36 31 42 31 128 0 86 -2 93 -30 125 -36 43 -37 50 -2 82
46 43 62 47 186 48 l119 0 45 -37z m-482 -55 c45 -57 49 -66 43 -98 -4 -19
-12 -36 -18 -38 -15 -5 -13 -33 4 -56 26 -34 18 -75 -22 -124 -21 -25 -43 -53
-50 -61 -10 -13 -12 31 -13 212 0 125 1 227 3 227 2 0 26 -28 53 -62z m-8538
-269 l-3 -112 -46 59 c-39 49 -46 64 -42 91 3 18 11 38 19 44 18 14 18 28 0
48 -7 9 -16 30 -19 47 -5 25 2 40 41 89 l47 59 3 -106 c1 -59 1 -157 0 -219z
m8672 106 c-1 -62 -4 -74 -29 -105 l-29 -34 -11 39 c-14 51 -14 61 1 85 10 15
10 22 0 32 -15 15 -15 32 -1 83 l11 40 29 -35 c26 -31 29 -41 29 -105z m-8787
108 c14 -52 16 -72 7 -78 -13 -8 -13 -52 1 -57 10 -3 -2 -83 -16 -96 -4 -4
-18 6 -31 21 -21 24 -24 38 -24 101 0 59 4 78 21 100 24 30 36 33 42 9z m9190
-365 l-67 -68 -65 0 -64 0 64 32 c67 33 170 128 186 170 7 19 8 16 11 -21 3
-43 1 -47 -65 -113z m-14468 46 c28 -28 79 -65 114 -82 l64 -32 -64 0 -63 0
-68 67 c-62 62 -68 71 -67 108 l0 40 16 -25 c9 -14 40 -48 68 -76z m5395 -58
c0 -26 -5 -23 -59 45 -75 94 -71 129 6 43 37 -42 53 -67 53 -88z m8600 128 c0
-8 -26 -47 -57 -86 -49 -60 -59 -68 -61 -50 -2 15 14 44 50 87 55 67 68 76 68
49z m-8707 -79 l28 -35 -67 0 -66 0 34 34 c18 18 35 34 38 35 3 0 18 -15 33
-34z m8806 -32 c2 -2 -26 -3 -63 -3 l-67 0 27 35 27 36 36 -33 c20 -18 38 -34
40 -35z m-8566 -148 c17 -16 43 -38 57 -47 l25 -17 -30 0 c-23 -1 -42 12 -87
56 -54 53 -58 61 -58 103 l0 45 30 -55 c17 -30 45 -68 63 -85z m8250 -7 c-45
-46 -64 -58 -88 -57 -27 0 -28 1 -11 12 47 29 104 90 127 135 l24 48 3 -40 c3
-36 -1 -44 -55 -98z m497 109 c-39 -19 -66 -22 -202 -25 -87 -2 -158 0 -158 4
0 4 7 16 17 26 15 16 34 18 202 17 l186 -1 -45 -21z"/>
<path d="M6433 3805 l-63 -114 0 -155 0 -155 63 -115 62 -116 950 0 950 0 63
117 62 117 0 152 0 153 -62 115 -63 116 -950 0 -950 0 -62 -115z m70 -5 c-25
-45 -43 -83 -40 -86 3 -3 26 33 52 80 l47 86 882 0 882 0 57 -100 57 -99 0
-145 0 -144 -57 -101 -58 -101 -881 0 -880 0 -48 85 c-27 47 -51 84 -53 81 -5
-5 16 -45 69 -133 19 -32 19 -33 1 -33 -12 0 -28 20 -50 63 l-32 62 0 220 -1
220 33 62 c20 39 38 63 49 63 13 0 7 -17 -29 -80z m1905 12 c42 -78 40 -119
-2 -47 -16 28 -38 65 -49 84 -19 32 -19 33 -1 29 11 -2 32 -28 52 -66z m-1968
-274 c-1 -172 -2 -191 -15 -174 -28 37 -17 366 12 366 1 0 3 -87 3 -192z
m2039 -3 c0 -112 -3 -156 -14 -175 -13 -22 -14 -3 -14 175 0 178 1 197 14 175
11 -19 14 -63 14 -175z m-69 -275 c-27 -54 -53 -81 -65 -68 -2 2 17 39 43 83
53 92 70 81 22 -15z"/>
<path d="M8330 3600 l0 -169 -82 -4 -83 -3 88 -2 87 -2 0 175 c0 96 -2 175 -5
175 -3 0 -5 -76 -5 -170z"/>
<path d="M7080 3595 c0 -57 4 -95 10 -95 6 0 10 22 10 49 0 95 62 97 68 2 2
-28 7 -51 13 -51 12 0 12 86 -1 111 -12 21 -50 25 -68 7 -9 -9 -12 -3 -12 30
0 23 -4 42 -10 42 -6 0 -10 -38 -10 -95z"/>
<path d="M7455 3680 c-3 -5 1 -10 9 -10 9 0 16 5 16 10 0 6 -4 10 -9 10 -6 0
-13 -4 -16 -10z"/>
<path d="M6935 3655 c-56 -55 -18 -155 59 -155 19 0 37 4 40 9 3 5 -10 9 -29
8 -47 -1 -75 26 -75 74 0 48 39 84 82 75 16 -3 28 -1 28 4 0 6 -18 10 -40 10
-30 0 -47 -7 -65 -25z"/>
<path d="M7236 3621 c-3 -5 9 -8 26 -7 48 2 51 -29 4 -38 -42 -8 -50 -18 -42
-52 7 -26 43 -33 64 -12 9 9 12 9 12 0 0 -7 5 -12 10 -12 11 0 14 88 4 114 -7
17 -69 23 -78 7z m64 -70 c0 -24 -25 -45 -45 -37 -22 8 -18 35 8 46 33 13 37
12 37 -9z"/>
<path d="M7360 3565 c0 -78 16 -87 22 -12 5 56 1 77 -13 77 -5 0 -9 -29 -9
-65z"/>
<path d="M7395 3620 c-8 -13 5 -13 25 0 13 8 13 10 -2 10 -9 0 -20 -4 -23 -10z"/>
<path d="M7460 3565 c0 -37 4 -65 10 -65 6 0 10 28 10 65 0 37 -4 65 -10 65
-6 0 -10 -28 -10 -65z"/>
<path d="M7520 3615 c-16 -20 -6 -43 24 -55 13 -5 27 -14 31 -21 10 -16 -15
-30 -42 -24 -13 3 -23 1 -23 -5 0 -18 68 -12 79 8 12 22 2 40 -30 56 -33 16
-31 41 4 41 15 -1 27 3 27 7 0 14 -57 8 -70 -7z"/>
<path d="M7630 3563 c0 -35 4 -63 10 -63 6 0 10 18 10 41 0 46 14 79 35 79 21
0 35 -33 35 -79 0 -23 5 -41 10 -41 6 0 10 22 10 49 0 56 19 82 45 61 10 -8
15 -30 15 -61 0 -27 5 -49 10 -49 14 0 12 104 -2 118 -15 15 -55 16 -63 2 -5
-8 -11 -8 -19 -1 -7 6 -31 9 -54 8 l-42 -1 0 -63z"/>
<path d="M7866 3621 c-3 -5 9 -8 26 -7 48 2 51 -29 4 -38 -42 -8 -50 -18 -42
-52 7 -26 43 -33 64 -12 9 9 12 9 12 0 0 -7 5 -12 10 -12 11 0 14 88 4 114 -7
17 -69 23 -78 7z m64 -70 c0 -24 -25 -45 -45 -37 -22 8 -18 35 8 46 33 13 37
12 37 -9z"/>
<path d="M8230 3606 c0 -2 6 -9 14 -15 10 -9 16 -8 26 4 11 13 8 15 -14 15
-14 0 -26 -2 -26 -4z"/>
<path d="M6569 3344 c-11 -14 -10 -19 9 -34 12 -10 28 -20 34 -22 22 -8 -4
-30 -29 -25 -16 3 -21 1 -14 -6 5 -5 21 -7 35 -3 34 8 34 38 1 56 -31 17 -32
37 -2 43 21 4 21 4 1 6 -12 0 -28 -6 -35 -15z"/>
<path d="M6660 3305 c0 -30 5 -55 10 -55 6 0 10 9 10 20 0 11 6 20 14 20 8 0
22 7 30 16 24 23 4 54 -34 54 -30 0 -30 -1 -30 -55z m55 20 c0 -11 -8 -21 -17
-23 -14 -3 -18 3 -18 23 0 20 4 26 18 23 9 -2 17 -12 17 -23z"/>
<path d="M6760 3305 l0 -55 38 2 c36 1 36 1 5 5 -43 6 -47 40 -5 46 l27 4 -27
2 c-21 1 -28 6 -28 20 0 14 8 21 28 24 25 4 25 4 -5 6 l-33 1 0 -55z"/>
<path d="M6850 3305 l0 -55 38 1 c30 2 32 3 10 6 -26 4 -28 8 -28 54 0 27 -4
49 -10 49 -5 0 -10 -25 -10 -55z"/>
<path d="M6942 3308 l-2 -58 38 2 c36 1 36 1 5 5 -31 4 -32 6 -36 56 l-3 52
-2 -57z"/>
<path d="M7038 3349 c-26 -15 -24 -75 3 -89 11 -6 30 -9 42 -7 20 4 19 4 -3 6
-32 1 -50 18 -50 47 0 26 16 40 50 47 l25 4 -25 1 c-14 1 -33 -3 -42 -9z"/>
<path d="M7137 3313 c-19 -53 -22 -78 -6 -50 13 22 55 22 63 1 4 -9 9 -15 11
-12 7 6 -31 102 -42 105 -5 2 -17 -18 -26 -44z m43 -15 c0 -5 -9 -8 -20 -8
-18 0 -19 3 -9 21 9 17 13 19 20 8 5 -8 9 -17 9 -21z"/>
<path d="M7237 3353 c-15 -14 -6 -40 18 -51 34 -16 34 -46 0 -40 -13 3 -22 1
-19 -3 9 -15 41 -10 55 7 11 14 8 20 -21 44 -26 21 -31 30 -20 34 8 2 22 7 30
9 8 3 3 6 -11 6 -14 1 -29 -2 -32 -6z"/>
<path d="M7327 3353 c19 -4 23 -12 26 -56 l3 -52 2 52 c2 45 5 52 25 56 12 2
0 4 -28 4 -27 0 -40 -2 -28 -4z"/>
<path d="M7423 3305 c0 -33 2 -45 4 -27 2 18 2 45 0 60 -2 15 -4 0 -4 -33z"/>
<path d="M7470 3305 c0 -64 17 -75 22 -13 l3 42 28 -42 c15 -23 32 -42 37 -42
6 0 10 25 10 55 0 64 -17 75 -22 13 l-3 -42 -28 42 c-15 23 -32 42 -37 42 -6
0 -10 -25 -10 -55z"/>
<path d="M7616 3344 c-9 -8 -16 -26 -16 -38 0 -53 83 -78 87 -26 1 22 1 22 -4
3 -9 -44 -73 -23 -73 23 0 26 16 40 50 47 l25 4 -27 2 c-15 0 -34 -6 -42 -15z"/>
<path d="M7786 3327 c-7 -19 -17 -45 -20 -58 -6 -22 -6 -22 7 -6 8 9 24 17 35
17 12 0 26 -8 31 -17 6 -10 11 -13 11 -6 0 15 -38 103 -45 103 -2 0 -11 -15
-19 -33z m34 -23 c0 -8 -7 -14 -15 -14 -15 0 -21 21 -9 33 10 9 24 -2 24 -19z"/>
<path d="M7880 3306 c0 -52 2 -56 24 -56 30 0 51 24 41 47 -4 10 -8 27 -9 38
-1 14 -9 21 -28 23 -28 3 -28 2 -28 -52z m50 29 c0 -8 -9 -15 -20 -15 -11 0
-20 7 -20 15 0 8 9 15 20 15 11 0 20 -7 20 -15z m0 -50 c0 -18 -5 -25 -20 -25
-15 0 -20 7 -20 25 0 18 5 25 20 25 15 0 20 -7 20 -25z"/>
<path d="M7983 3305 c0 -33 2 -45 4 -27 2 18 2 45 0 60 -2 15 -4 0 -4 -33z"/>
<path d="M8032 3308 l-2 -58 38 2 c36 1 36 1 5 5 -31 4 -32 6 -36 56 l-3 52
-2 -57z"/>
<path d="M8123 3305 c0 -33 2 -45 4 -27 2 18 2 45 0 60 -2 15 -4 0 -4 -33z"/>
<path d="M8167 3353 c19 -4 23 -12 26 -56 l3 -52 2 52 c2 45 5 52 25 56 12 2
0 4 -28 4 -27 0 -40 -2 -28 -4z"/>
<path d="M8264 3338 c9 -15 16 -41 16 -58 0 -16 5 -30 10 -30 6 0 10 15 10 34
0 18 7 39 15 46 8 7 15 18 15 24 0 6 -9 0 -19 -14 l-19 -24 -22 24 -22 25 16
-27z"/>
<path d="M10473 3804 l-63 -115 0 -154 0 -153 63 -116 62 -115 816 -1 816 0
61 114 62 113 0 158 0 158 -62 113 -61 114 -816 0 -816 0 -62 -116z m99 44
c-53 -89 -74 -129 -69 -134 2 -3 26 34 53 81 l48 85 747 0 748 0 55 -98 56
-98 0 -148 0 -148 -56 -99 -56 -99 -747 0 -746 0 -58 102 -58 102 1 180 1 181
32 62 c22 43 38 63 50 63 18 0 18 -1 -1 -32z m1606 -28 c19 -33 32 -70 30 -81
-2 -16 -14 -2 -45 54 -47 82 -49 87 -30 87 7 0 27 -27 45 -60z m-1698 -287
c-1 -168 -2 -186 -15 -169 -28 37 -18 356 10 356 3 0 5 -84 5 -187z m1770 2
c0 -88 -5 -167 -10 -175 -6 -10 -10 49 -10 175 0 126 4 185 10 175 5 -8 10
-87 10 -175z m-1691 -288 c27 -49 29 -58 14 -55 -22 4 -82 113 -83 148 0 25 0
25 18 -5 10 -16 33 -56 51 -88z m1620 6 c-19 -35 -40 -63 -46 -63 -19 0 -17 5
29 89 31 56 44 71 46 56 3 -11 -11 -48 -29 -82z"/>
<path d="M11417 3618 l-45 -63 42 -5 c33 -4 42 -9 44 -27 4 -31 22 -29 22 1 0
13 6 27 13 29 10 4 10 6 0 6 -9 1 -13 20 -13 61 0 33 -4 60 -9 60 -5 0 -29
-28 -54 -62z m43 -13 c0 -44 -1 -45 -31 -45 -17 0 -29 3 -27 8 5 11 53 82 56
82 1 0 2 -20 2 -45z"/>
<path d="M11270 3606 c0 -19 -6 -26 -27 -29 l-28 -4 28 -2 c22 -1 27 -6 27
-26 0 -14 5 -25 10 -25 6 0 10 11 10 24 0 19 6 26 28 29 l27 4 -27 2 c-23 1
-28 6 -28 26 0 14 -4 25 -10 25 -5 0 -10 -11 -10 -24z"/>
<path d="M10657 3313 c-19 -53 -22 -78 -6 -50 13 22 55 22 63 1 4 -9 9 -15 11
-12 7 6 -31 102 -42 105 -5 2 -17 -18 -26 -44z m43 -15 c0 -5 -9 -8 -20 -8
-18 0 -19 3 -9 21 9 17 13 19 20 8 5 -8 9 -17 9 -21z"/>
<path d="M10753 3353 c13 -3 17 -15 17 -54 0 -27 5 -49 10 -49 6 0 10 23 10
50 l0 50 39 0 40 0 4 -52 3 -53 2 52 c2 45 5 52 25 56 12 2 -21 4 -73 4 -52 1
-87 -1 -77 -4z"/>
<path d="M10956 3327 c-7 -19 -17 -45 -20 -58 -6 -22 -6 -22 7 -6 8 9 24 17
35 17 12 0 26 -8 31 -17 6 -10 11 -13 11 -6 0 15 -38 103 -45 103 -2 0 -11
-15 -19 -33z m34 -23 c0 -8 -7 -14 -15 -14 -15 0 -21 21 -9 33 10 9 24 -2 24
-19z"/>
<path d="M11058 3349 c-26 -15 -24 -75 3 -89 11 -6 30 -9 42 -7 20 4 19 4 -3
6 -32 1 -50 18 -50 47 0 26 16 40 50 47 l25 4 -25 1 c-14 1 -33 -3 -42 -9z"/>
<path d="M11153 3305 c0 -33 2 -48 4 -32 2 15 6 27 9 27 3 0 16 -12 30 -27 26
-28 23 -12 -3 18 -11 14 -10 20 9 45 l22 29 -31 -29 -31 -28 -5 28 c-2 16 -4
2 -4 -31z"/>
<path d="M11290 3305 c0 -61 19 -77 21 -17 l1 37 15 -37 c9 -21 19 -38 22 -38
4 0 14 19 23 43 l17 42 0 -42 c1 -24 6 -43 11 -43 6 0 10 25 10 55 0 66 -15
72 -37 15 -9 -22 -19 -40 -23 -40 -4 0 -14 18 -23 40 -22 57 -37 51 -37 -15z"/>
<path d="M11458 3349 c-12 -6 -18 -22 -18 -45 0 -27 5 -37 26 -46 58 -27 114
50 62 86 -26 18 -46 20 -70 5z m66 -15 c9 -8 16 -22 16 -29 0 -7 -7 -21 -16
-29 -30 -30 -74 -13 -74 29 0 42 44 59 74 29z"/>
<path d="M11580 3305 c0 -54 1 -55 28 -55 33 0 62 27 62 57 0 27 -31 53 -63
53 -26 0 -27 -2 -27 -55z m71 24 c16 -31 -3 -69 -36 -69 -23 0 -25 4 -25 45 0
41 2 45 25 45 15 0 29 -8 36 -21z"/>
<path d="M11703 3305 c0 -33 2 -45 4 -27 2 18 2 45 0 60 -2 15 -4 0 -4 -33z"/>
<path d="M11750 3305 c0 -30 5 -55 10 -55 6 0 10 11 10 24 0 18 7 26 23 29
l22 4 -22 2 c-35 2 -31 39 5 44 22 3 20 4 -10 6 l-38 1 0 -55z"/>
<path d="M11840 3305 c0 -30 5 -55 10 -55 6 0 10 25 10 55 0 30 -4 55 -10 55
-5 0 -10 -25 -10 -55z"/>
<path d="M11900 3305 l0 -55 33 1 c30 2 30 2 5 6 -35 5 -39 40 -5 46 l22 4
-22 2 c-35 2 -31 39 5 44 25 4 25 4 -5 6 l-33 1 0 -55z"/>
<path d="M11991 3303 c1 -32 4 -46 6 -30 5 34 16 34 38 1 9 -14 19 -23 22 -20
3 3 0 13 -7 21 -11 13 -11 20 0 39 16 31 6 46 -31 46 -29 0 -29 0 -28 -57z
m52 41 c11 -11 -5 -34 -24 -34 -12 0 -19 7 -19 20 0 19 28 28 43 14z"/>
<path d="M12493 3804 l-63 -115 0 -153 0 -152 63 -117 62 -117 816 0 816 0 61
114 62 113 0 158 0 158 -61 113 -60 114 -817 0 -817 0 -62 -116z m99 44 c-11
-18 -32 -55 -48 -82 -40 -71 -43 -36 -3 45 23 49 38 69 52 69 18 0 18 -1 -1
-32z m1582 -66 l56 -98 0 -149 0 -149 -56 -98 -55 -98 -747 0 -747 0 -57 101
-58 101 0 144 0 145 57 99 57 100 748 0 747 0 55 -98z m25 38 c18 -33 31 -70
29 -81 -2 -16 -14 -2 -45 54 -47 83 -49 87 -29 87 7 0 28 -27 45 -60z m-1699
-287 c-1 -177 -2 -195 -15 -173 -27 48 -17 370 12 370 1 0 3 -89 3 -197z
m1770 2 c0 -88 -5 -167 -10 -175 -6 -10 -10 49 -10 175 0 126 4 185 10 175 5
-8 10 -87 10 -175z m-1691 -288 c28 -50 31 -58 15 -55 -21 4 -84 111 -83 143
0 18 1 18 17 -4 9 -13 32 -51 51 -84z m1619 3 c-18 -33 -38 -60 -45 -60 -19 0
-17 5 30 87 31 56 43 70 45 54 2 -11 -11 -48 -30 -81z"/>
<path d="M13060 3589 l0 -92 47 6 c127 14 125 177 -2 177 l-45 0 0 -91z m102
54 c24 -22 23 -78 -2 -103 -12 -12 -33 -20 -55 -20 l-35 0 0 68 c0 38 3 72 7
76 11 11 64 -2 85 -21z"/>
<path d="M13255 3655 c-56 -55 -18 -155 59 -155 19 0 38 5 42 11 4 8 -3 9 -23
5 -45 -10 -83 24 -83 74 0 52 31 83 78 78 17 -2 32 0 32 4 0 4 -18 8 -40 8
-30 0 -47 -7 -65 -25z"/>
<path d="M13503 3668 c-13 -6 -23 -15 -23 -20 0 -5 9 -4 20 2 19 10 20 8 20
-70 0 -47 4 -80 10 -80 6 0 10 37 10 90 0 50 -3 90 -7 89 -5 0 -18 -5 -30 -11z"/>
<path d="M13615 3670 c-4 -7 2 -9 19 -4 29 7 56 -9 56 -33 0 -8 -20 -34 -45
-59 -62 -59 -60 -74 10 -74 30 0 55 5 55 10 0 6 -20 10 -45 10 -25 0 -45 4
-45 9 0 5 17 23 39 40 43 34 52 55 40 89 -6 17 -16 22 -43 22 -19 0 -38 -5
-41 -10z"/>
<path d="M12633 3353 c-21 -8 -15 -31 12 -49 33 -22 34 -48 0 -42 -13 3 -22 1
-19 -3 9 -15 41 -10 55 7 11 14 8 20 -21 44 -26 21 -31 30 -20 34 43 14 45 14
25 14 -11 0 -26 -2 -32 -5z"/>
<path d="M12727 3313 c-19 -53 -22 -78 -6 -50 13 22 55 22 63 1 4 -9 9 -15 11
-12 7 6 -31 102 -42 105 -5 2 -17 -18 -26 -44z m43 -15 c0 -5 -9 -8 -20 -8
-18 0 -19 3 -9 21 9 17 13 19 20 8 5 -8 9 -17 9 -21z"/>
<path d="M12815 3340 c4 -14 15 -40 25 -59 l16 -33 22 53 c12 28 20 54 18 57
-3 2 -13 -15 -23 -39 l-17 -43 -16 37 c-20 45 -35 62 -25 27z"/>
<path d="M12920 3305 c0 -30 5 -55 10 -55 6 0 10 25 10 55 0 30 -4 55 -10 55
-5 0 -10 -25 -10 -55z"/>
<path d="M12982 3303 l1 -58 6 45 6 45 29 -42 c16 -24 33 -43 37 -43 5 0 8 26
7 58 l-1 57 -6 -45 -6 -45 -30 42 c-17 23 -33 42 -37 43 -5 0 -7 -26 -6 -57z"/>
<path d="M13116 3344 c-9 -8 -16 -26 -16 -38 0 -53 83 -78 87 -26 1 22 1 22
-4 3 -9 -44 -73 -23 -73 23 0 26 16 40 50 47 l25 4 -27 2 c-15 0 -34 -6 -42
-15z"/>
<path d="M13273 3353 c13 -3 17 -15 17 -54 0 -27 5 -49 10 -49 6 0 10 22 10
49 0 43 3 50 23 54 12 2 0 4 -28 4 -27 1 -42 -1 -32 -4z"/>
<path d="M13373 3305 c0 -33 2 -45 4 -27 4 29 7 32 38 32 31 0 34 -3 38 -32 2
-18 4 -6 4 27 0 33 -2 50 -4 38 -4 -19 -11 -23 -38 -23 -27 0 -34 4 -38 23 -2
12 -4 -5 -4 -38z"/>
<path d="M13501 3303 c1 -32 4 -46 6 -30 5 34 16 34 38 1 9 -14 19 -23 22 -20
3 3 0 13 -7 21 -11 13 -11 20 0 39 16 31 6 46 -31 46 -29 0 -29 0 -28 -57z
m52 41 c11 -11 -5 -34 -24 -34 -12 0 -19 7 -19 20 0 19 28 28 43 14z"/>
<path d="M13610 3340 c-11 -11 -20 -27 -20 -35 0 -22 37 -55 60 -55 23 0 60
33 60 55 0 22 -37 55 -60 55 -11 0 -29 -9 -40 -20z m70 -4 c28 -35 -11 -93
-47 -70 -36 22 -23 84 17 84 10 0 23 -7 30 -14z"/>
<path d="M13741 3308 c26 -65 25 -65 39 -37 l13 22 12 -24 c13 -24 14 -24 34
24 12 27 21 54 20 60 0 7 -9 -8 -20 -33 -16 -35 -22 -41 -30 -30 -5 8 -7 29
-4 45 3 17 2 24 -1 17 -5 -10 -9 -10 -20 -1 -12 10 -13 8 -6 -12 9 -26 5 -59
-7 -59 -4 0 -14 18 -21 40 -7 22 -17 40 -21 40 -5 0 1 -24 12 -52z"/>
<path d="M13930 3305 c0 -54 1 -55 28 -55 39 0 65 21 65 55 0 34 -26 55 -65
55 -27 0 -28 -1 -28 -55z m68 33 c29 -29 7 -78 -35 -78 -21 0 -23 5 -23 45 0
40 2 45 23 45 13 0 28 -5 35 -12z"/>
<path d="M14060 3340 c-11 -11 -20 -27 -20 -35 0 -23 37 -55 63 -54 20 1 20 2
2 6 -30 8 -45 23 -45 48 0 25 15 40 45 48 18 4 18 5 -2 6 -13 0 -32 -8 -43
-19z"/>
<path d="M2350 3545 l0 -75 40 0 c22 0 40 5 40 10 0 6 -13 10 -30 10 -23 0
-30 4 -30 20 0 15 7 20 25 20 14 0 25 5 25 10 0 6 -11 10 -25 10 -20 0 -25 5
-25 25 0 21 5 25 30 25 17 0 30 5 30 10 0 6 -18 10 -40 10 l-40 0 0 -75z"/>
<path d="M2460 3545 l0 -75 40 0 c22 0 40 5 40 10 0 6 -13 10 -30 10 l-30 0 0
65 c0 37 -4 65 -10 65 -6 0 -10 -32 -10 -75z"/>
<path d="M2570 3545 c0 -43 4 -75 10 -75 6 0 10 14 10 30 0 25 4 30 25 30 14
0 25 5 25 10 0 6 -11 10 -25 10 -20 0 -25 5 -25 25 0 21 5 25 30 25 17 0 30 5
30 10 0 6 -18 10 -40 10 l-40 0 0 -75z"/>
<path d="M2720 3610 c0 -5 9 -10 20 -10 18 0 20 -7 20 -65 0 -37 4 -65 10 -65
6 0 10 28 10 65 0 58 2 65 20 65 11 0 20 5 20 10 0 6 -22 10 -50 10 -27 0 -50
-4 -50 -10z"/>
<path d="M2850 3545 c0 -43 4 -75 10 -75 6 0 10 32 10 75 0 43 -4 75 -10 75
-6 0 -10 -32 -10 -75z"/>
<path d="M2920 3545 l0 -75 40 0 c22 0 40 5 40 10 0 6 -13 10 -30 10 -23 0
-30 4 -30 20 0 15 7 20 25 20 14 0 25 5 25 10 0 6 -11 10 -25 10 -20 0 -25 5
-25 25 0 21 5 25 30 25 17 0 30 5 30 10 0 6 -18 10 -40 10 l-40 0 0 -75z"/>
<path d="M3030 3545 c0 -43 4 -75 10 -75 6 0 10 14 10 30 0 25 4 30 25 30 14
0 25 5 25 10 0 6 -11 10 -25 10 -20 0 -25 5 -25 25 0 21 5 25 30 25 17 0 30 5
30 10 0 6 -18 10 -40 10 l-40 0 0 -75z"/>
<path d="M3140 3545 l0 -75 40 0 c22 0 40 5 40 10 0 6 -11 10 -25 10 -24 0
-25 2 -25 65 0 51 -3 65 -15 65 -12 0 -15 -15 -15 -75z"/>
<path d="M3240 3545 c0 -60 3 -75 15 -75 12 0 15 15 15 75 0 60 -3 75 -15 75
-12 0 -15 -15 -15 -75z"/>
<path d="M3310 3545 c0 -85 17 -103 22 -22 l3 52 35 -52 c49 -73 60 -69 60 22
0 85 -17 103 -22 23 l-3 -53 -34 53 c-47 74 -61 69 -61 -23z"/>
<path d="M3486 3599 c-56 -44 -15 -134 58 -127 27 3 31 7 34 36 4 36 -15 45
-20 10 -4 -30 -32 -34 -57 -9 -27 27 -26 46 0 72 16 16 29 20 50 15 30 -6 40
8 13 18 -28 11 -51 6 -78 -15z"/>
<path d="M3682 3608 c-20 -20 -13 -46 18 -68 39 -28 38 -42 -2 -38 -39 4 -49
-17 -13 -26 74 -19 100 45 34 80 -40 20 -36 42 5 35 5 -1 16 1 25 4 13 5 14 7
1 15 -21 13 -54 12 -68 -2z"/>
<path d="M3790 3545 c0 -60 3 -75 15 -75 9 0 15 9 15 25 0 14 6 25 13 25 25 0
50 27 50 54 0 34 -16 46 -60 46 l-33 0 0 -75z m65 25 c0 -16 -6 -26 -17 -28
-14 -3 -18 3 -18 28 0 25 4 31 18 28 11 -2 17 -12 17 -28z"/>
<path d="M3910 3545 l0 -75 40 0 c22 0 40 5 40 10 0 6 -13 10 -30 10 -23 0
-30 4 -30 20 0 15 7 20 25 20 14 0 25 5 25 10 0 6 -11 10 -25 10 -20 0 -25 5
-25 25 0 21 5 25 30 25 17 0 30 5 30 10 0 6 -18 10 -40 10 l-40 0 0 -75z"/>
<path d="M4030 3545 l0 -75 40 0 c22 0 40 5 40 10 0 6 -13 10 -30 10 l-30 0 0
65 c0 37 -4 65 -10 65 -6 0 -10 -32 -10 -75z"/>
<path d="M4130 3545 l0 -75 40 0 c22 0 40 5 40 10 0 6 -11 10 -25 10 -24 0
-25 2 -25 65 0 51 -3 65 -15 65 -12 0 -15 -15 -15 -75z"/>
<path d="M4242 3608 c-20 -20 -13 -46 18 -68 39 -28 38 -42 -2 -38 -39 4 -49
-17 -13 -26 74 -19 100 45 34 80 -40 20 -36 42 5 35 5 -1 16 1 25 4 13 5 14 7
1 15 -21 13 -54 12 -68 -2z"/>
<path d="M2660 3520 c0 -5 9 -10 20 -10 11 0 20 5 20 10 0 6 -9 10 -20 10 -11
0 -20 -4 -20 -10z"/>
<path d="M7141 2704 c-27 -34 -27 -49 4 -79 25 -26 59 -33 70 -15 3 6 -4 10
-17 10 -30 0 -48 17 -48 46 0 28 24 48 51 41 13 -3 19 -1 16 6 -8 25 -54 19
-76 -9z"/>
<path d="M7275 2720 c-3 -5 -14 -34 -25 -65 -16 -46 -17 -55 -4 -55 7 0 14 7
14 15 0 21 40 19 56 -2 23 -32 23 -9 1 55 -22 61 -30 72 -42 52z m25 -62 c0
-5 -6 -8 -14 -8 -9 0 -12 7 -9 21 4 16 8 17 14 7 5 -7 9 -16 9 -20z"/>
<path d="M7360 2665 c0 -72 17 -90 22 -22 l3 42 29 -42 c16 -24 33 -43 37 -43
5 0 9 29 9 65 0 72 -17 90 -22 23 l-3 -43 -24 43 c-36 62 -51 55 -51 -23z"/>
<path d="M7490 2720 c0 -5 7 -10 15 -10 12 0 15 -13 15 -55 0 -30 5 -55 10
-55 6 0 10 25 10 55 0 48 2 55 20 55 11 0 20 5 20 10 0 6 -20 10 -45 10 -25 0
-45 -4 -45 -10z"/>
<path d="M7600 2665 c0 -37 4 -65 10 -65 6 0 10 11 10 25 0 14 5 25 10 25 6 0
16 -11 22 -25 6 -14 17 -25 25 -25 10 0 9 6 -4 27 -13 19 -14 28 -5 31 6 2 12
16 12 32 0 29 -15 40 -56 40 -23 0 -24 -3 -24 -65z m60 25 c0 -13 -7 -20 -20
-20 -13 0 -20 7 -20 20 0 13 7 20 20 20 13 0 20 -7 20 -20z"/>
<path d="M7710 2665 c0 -37 4 -65 10 -65 6 0 10 28 10 65 0 37 -4 65 -10 65
-6 0 -10 -28 -10 -65z"/>
<path d="M7770 2665 c0 -37 4 -65 10 -65 6 0 10 9 10 20 0 13 7 20 18 20 26 0
42 20 42 51 0 28 -15 39 -56 39 -23 0 -24 -3 -24 -65z m55 20 c0 -11 -8 -21
-17 -23 -14 -3 -18 3 -18 23 0 20 4 26 18 23 9 -2 17 -12 17 -23z"/>
<path d="M7877 2718 c-22 -17 -15 -41 19 -58 36 -20 32 -44 -6 -36 -33 6 -42
-9 -10 -19 55 -17 87 43 35 67 -34 15 -34 42 0 35 16 -3 24 0 22 7 -5 16 -40
19 -60 4z"/>
<path d="M8026 2708 c-12 -47 -4 -148 13 -148 3 0 6 38 6 85 0 84 -7 107 -19
63z"/>
<path d="M8081 2716 c-18 -22 -10 -97 12 -110 15 -9 22 -7 38 13 23 28 24 59
3 89 -17 25 -36 28 -53 8z m44 -27 c9 -28 -3 -71 -18 -66 -13 4 -22 51 -13 73
8 20 24 17 31 -7z"/>
<path d="M8220 2665 l0 -65 35 0 c19 0 35 5 35 10 0 6 -11 10 -25 10 -24 0
-25 3 -25 55 0 30 -4 55 -10 55 -6 0 -10 -28 -10 -65z"/>
<path d="M8310 2665 l0 -65 40 0 c22 0 40 5 40 10 0 6 -13 10 -30 10 -20 0
-30 5 -30 15 0 8 9 15 20 15 11 0 20 5 20 10 0 6 -9 10 -20 10 -13 0 -20 7
-20 20 0 15 7 20 25 20 14 0 25 5 25 10 0 6 -16 10 -35 10 l-35 0 0 -65z"/>
<path d="M8413 2669 c13 -33 27 -61 32 -61 5 0 19 28 32 61 18 49 20 61 8 61
-8 0 -17 -14 -21 -35 -9 -50 -21 -52 -35 -5 -7 22 -18 40 -25 40 -10 0 -8 -15
9 -61z"/>
<path d="M8520 2665 l0 -65 40 0 c22 0 40 5 40 10 0 6 -13 10 -30 10 -20 0
-30 5 -30 15 0 8 9 15 20 15 11 0 20 5 20 10 0 6 -9 10 -20 10 -13 0 -20 7
-20 20 0 15 7 20 25 20 14 0 25 5 25 10 0 6 -16 10 -35 10 l-35 0 0 -65z"/>
<path d="M8620 2665 l0 -65 35 0 c19 0 35 5 35 10 0 6 -11 10 -25 10 -24 0
-25 3 -25 55 0 30 -4 55 -10 55 -6 0 -10 -28 -10 -65z"/>
<path d="M8710 2704 c6 -14 10 -40 10 -59 0 -19 -4 -45 -10 -59 -6 -17 -6 -26
0 -26 14 0 30 45 30 85 0 40 -16 85 -30 85 -6 0 -6 -9 0 -26z"/>
<path d="M640 2255 c0 -30 5 -55 10 -55 6 0 10 10 11 23 l0 22 16 -22 c23 -33
37 -28 17 5 -15 27 -15 31 1 55 21 32 3 36 -19 5 l-16 -22 0 22 c0 12 -4 22
-10 22 -5 0 -10 -25 -10 -55z"/>
<path d="M730 2255 c0 -62 17 -75 22 -17 l3 37 23 -37 c13 -21 28 -38 33 -38
5 0 9 25 9 55 0 59 -17 76 -22 23 l-3 -33 -20 33 c-30 49 -45 41 -45 -23z"/>
<path d="M917 2303 c-14 -13 -6 -43 13 -53 26 -14 26 -34 -1 -27 -13 3 -19 1
-16 -6 2 -7 15 -12 28 -12 32 0 39 39 10 57 -27 16 -27 28 -1 28 11 0 20 5 20
10 0 11 -43 14 -53 3z"/>
<path d="M1000 2255 c0 -30 5 -55 10 -55 6 0 10 6 10 14 0 8 9 17 19 21 45 14
32 75 -15 75 -22 0 -24 -4 -24 -55z m48 18 c-5 -25 -28 -28 -28 -4 0 12 6 21
16 21 9 0 14 -7 12 -17z"/>
<path d="M1080 2255 c0 -54 0 -55 30 -55 17 0 30 5 30 10 0 6 -9 10 -20 10
-27 0 -25 16 3 25 l22 8 -22 4 c-28 5 -30 33 -3 33 11 0 20 5 20 10 0 6 -13
10 -30 10 -30 0 -30 -1 -30 -55z"/>
<path d="M1160 2255 l0 -55 36 0 c21 0 33 4 29 10 -3 6 -15 10 -26 10 -16 0
-19 7 -19 45 0 25 -4 45 -10 45 -5 0 -10 -25 -10 -55z"/>
<path d="M1240 2255 c0 -54 0 -55 30 -55 17 0 30 5 30 10 0 6 -9 10 -20 10
-17 0 -20 7 -20 45 0 25 -4 45 -10 45 -5 0 -10 -25 -10 -55z"/>
<path d="M2870 2255 c0 -54 1 -55 28 -55 39 0 65 21 65 53 0 38 -20 57 -59 57
l-34 0 0 -55z m65 0 c0 -23 -5 -31 -22 -33 -20 -3 -23 1 -23 33 0 32 3 36 23
33 17 -2 22 -10 22 -33z"/>
<path d="M2980 2255 l0 -55 36 0 c21 0 33 4 29 10 -3 6 -15 10 -26 10 -10 0
-19 5 -19 10 0 6 9 10 20 10 11 0 20 5 20 10 0 6 -9 10 -20 10 -11 0 -20 7
-20 15 0 8 9 15 19 15 11 0 23 5 26 10 4 6 -8 10 -29 10 l-36 0 0 -55z"/>
<path d="M3073 2303 c-20 -8 -15 -30 12 -51 32 -25 32 -36 0 -29 -16 3 -24 0
-22 -7 6 -18 43 -18 58 0 12 14 10 19 -14 40 -34 29 -34 34 -1 34 14 0 23 4
19 10 -6 10 -31 12 -52 3z"/>
<path d="M3156 2294 c-35 -34 -9 -94 40 -94 33 0 30 18 -3 22 -24 3 -28 8 -28
33 0 25 4 30 28 33 15 2 25 8 22 13 -9 14 -42 11 -59 -7z"/>
<path d="M3240 2256 c0 -31 5 -56 10 -56 6 0 10 10 10 23 l1 22 20 -24 c11
-13 22 -21 26 -18 3 4 0 14 -7 23 -11 12 -11 17 -1 23 7 5 11 19 9 32 -2 19
-10 25 -35 27 l-33 3 0 -55z m50 19 c0 -8 -7 -15 -15 -15 -8 0 -15 7 -15 15 0
8 7 15 15 15 8 0 15 -7 15 -15z"/>
<path d="M3330 2255 c0 -30 5 -55 10 -55 6 0 10 25 10 55 0 30 -4 55 -10 55
-5 0 -10 -25 -10 -55z"/>
<path d="M3380 2255 c0 -30 5 -55 10 -55 6 0 10 6 10 14 0 8 9 17 19 21 45 14
32 75 -15 75 -22 0 -24 -4 -24 -55z m48 18 c-5 -25 -28 -28 -28 -4 0 12 6 21
16 21 9 0 14 -7 12 -17z"/>
<path d="M3450 2300 c0 -5 7 -10 15 -10 11 0 15 -12 15 -45 0 -25 5 -45 10
-45 6 0 10 20 10 45 0 33 4 45 15 45 8 0 15 5 15 10 0 6 -18 10 -40 10 -22 0
-40 -4 -40 -10z"/>
<path d="M3540 2255 c0 -30 5 -55 10 -55 6 0 10 25 10 55 0 30 -4 55 -10 55
-5 0 -10 -25 -10 -55z"/>
<path d="M3593 2284 c-15 -24 -15 -29 -2 -53 18 -32 54 -39 80 -15 24 22 24
56 1 77 -27 25 -59 21 -79 -9z m72 -13 c9 -28 -5 -51 -30 -51 -25 0 -39 23
-30 51 4 12 16 19 30 19 14 0 26 -7 30 -19z"/>
<path d="M3710 2255 c0 -30 5 -55 10 -55 6 0 10 17 10 38 l0 37 22 -37 c32
-55 48 -49 48 17 0 62 -17 75 -22 18 l-3 -38 -22 38 c-12 20 -27 37 -33 37 -6
0 -10 -24 -10 -55z"/>
<path d="M10537 2303 c-14 -13 -6 -43 13 -53 26 -14 26 -34 -1 -27 -13 3 -19
1 -16 -6 6 -19 42 -20 58 -1 12 14 10 19 -14 40 -34 29 -34 34 -1 34 14 0 23
4 19 10 -7 11 -48 14 -58 3z"/>
<path d="M10635 2298 c-26 -73 -33 -98 -25 -98 5 0 12 5 15 10 9 14 42 12 48
-2 2 -7 7 -11 10 -7 9 7 -25 109 -35 109 -5 0 -11 -6 -13 -12z m25 -49 c0 -5
-4 -9 -10 -9 -5 0 -10 7 -10 16 0 8 5 12 10 9 6 -3 10 -10 10 -16z"/>
<path d="M10709 2258 c10 -29 21 -53 25 -53 5 0 17 23 27 50 22 58 22 55 10
55 -5 0 -15 -17 -22 -37 l-12 -38 -12 34 c-6 19 -17 37 -23 39 -7 2 -5 -16 7
-50z"/>
<path d="M10800 2255 l0 -55 36 0 c21 0 33 4 29 10 -3 6 -15 10 -26 10 -26 0
-24 16 4 25 l22 8 -22 4 c-28 5 -30 33 -3 33 11 0 20 5 20 10 0 6 -13 10 -30
10 -30 0 -30 -1 -30 -55z"/>
<path d="M10987 2303 c-14 -13 -6 -43 13 -53 26 -14 26 -34 -1 -27 -13 3 -19
1 -16 -6 2 -7 15 -12 28 -12 32 0 39 39 10 57 -27 16 -27 28 -1 28 11 0 20 5
20 10 0 11 -43 14 -53 3z"/>
<path d="M11070 2295 c-29 -35 -7 -95 36 -95 33 0 39 18 7 22 -24 3 -28 8 -28
33 0 25 4 30 28 33 15 2 25 8 22 13 -9 14 -51 11 -65 -6z"/>
<path d="M11160 2255 c0 -30 5 -55 10 -55 6 0 10 9 10 20 0 15 7 20 25 20 18
0 25 -5 25 -20 0 -11 5 -20 10 -20 6 0 10 25 10 55 0 30 -4 55 -10 55 -5 0
-10 -11 -10 -25 0 -20 -5 -25 -25 -25 -20 0 -25 5 -25 25 0 14 -4 25 -10 25
-5 0 -10 -25 -10 -55z"/>
<path d="M11288 2299 c-25 -14 -24 -75 1 -89 41 -21 81 1 81 45 0 44 -43 67
-82 44z m57 -44 c0 -25 -4 -30 -25 -30 -16 0 -26 6 -28 18 -6 30 6 49 30 45
18 -2 23 -9 23 -33z"/>
<path d="M11393 2284 c-15 -24 -15 -29 -2 -53 18 -32 54 -39 80 -15 24 22 24
56 1 77 -27 25 -59 21 -79 -9z m72 -13 c9 -28 -5 -51 -30 -51 -25 0 -39 23
-30 51 4 12 16 19 30 19 14 0 26 -7 30 -19z"/>
<path d="M11510 2255 c0 -54 0 -55 30 -55 17 0 30 5 30 10 0 6 -9 10 -20 10
-17 0 -20 7 -20 45 0 25 -4 45 -10 45 -5 0 -10 -25 -10 -55z"/>
<path d="M11590 2300 c0 -5 7 -10 15 -10 11 0 15 -12 15 -45 0 -25 5 -45 10
-45 6 0 10 20 10 45 0 33 4 45 15 45 8 0 15 5 15 10 0 6 -18 10 -40 10 -22 0
-40 -4 -40 -10z"/>
<path d="M11690 2255 c0 -30 5 -55 10 -55 6 0 10 25 10 55 0 30 -4 55 -10 55
-5 0 -10 -25 -10 -55z"/>
<path d="M11741 2253 c1 -47 3 -52 9 -28 l7 30 11 -27 c15 -37 27 -35 40 5
l10 32 1 -32 c2 -57 21 -36 21 23 0 62 -18 71 -34 16 -12 -41 -22 -40 -36 3
-17 52 -30 42 -29 -22z"/>
<path d="M11870 2255 c0 -54 0 -55 30 -55 17 0 30 5 30 10 0 6 -9 10 -20 10
-11 0 -20 5 -20 10 0 6 7 10 15 10 8 0 15 5 15 10 0 6 -7 10 -15 10 -8 0 -15
7 -15 15 0 8 9 15 20 15 11 0 20 5 20 10 0 6 -13 10 -30 10 -30 0 -30 -1 -30
-55z"/>
<path d="M12200 2256 c0 -31 5 -56 10 -56 6 0 10 9 10 20 0 11 4 20 9 20 5 0
13 -9 16 -20 11 -36 21 -21 20 33 0 51 0 52 -32 55 l-33 3 0 -55z m50 19 c0
-8 -7 -15 -15 -15 -8 0 -15 7 -15 15 0 8 7 15 15 15 8 0 15 -7 15 -15z"/>
<path d="M12315 2298 c-26 -73 -33 -98 -25 -98 5 0 12 5 15 10 9 14 42 12 48
-2 2 -7 7 -11 10 -7 9 7 -25 109 -35 109 -5 0 -11 -6 -13 -12z m19 -43 c3 -8
1 -15 -4 -15 -6 0 -10 7 -10 15 0 8 2 15 4 15 2 0 6 -7 10 -15z"/>
<path d="M12391 2253 c2 -54 2 -55 8 -18 l6 40 23 -37 c13 -21 28 -38 33 -38
5 0 9 25 9 55 0 59 -17 76 -22 23 l-3 -33 -18 33 c-26 47 -37 39 -36 -25z"/>
<path d="M12506 2288 c-9 -12 -16 -28 -16 -35 0 -22 39 -53 65 -53 20 0 25 5
25 25 0 14 -4 25 -10 25 -5 0 -10 -7 -10 -15 0 -19 -24 -19 -40 0 -20 24 -3
55 31 55 18 0 28 4 24 10 -11 18 -53 11 -69 -12z"/>
<path d="M12610 2255 c0 -54 0 -55 30 -55 17 0 30 5 30 10 0 6 -9 10 -20 10
-11 0 -20 5 -20 10 0 6 7 10 15 10 8 0 15 5 15 10 0 6 -7 10 -15 10 -8 0 -15
7 -15 15 0 8 9 15 20 15 11 0 20 5 20 10 0 6 -13 10 -30 10 -30 0 -30 -1 -30
-55z"/>
<path d="M13110 2295 c-29 -35 -7 -95 36 -95 33 0 39 18 7 22 -24 3 -28 8 -28
33 0 25 4 30 28 33 15 2 25 8 22 13 -9 14 -51 11 -65 -6z"/>
<path d="M13206 2294 c-21 -21 -20 -57 2 -77 36 -32 85 -10 85 38 0 48 -55 72
-87 39z m63 -23 c13 -24 -8 -55 -35 -49 -20 3 -30 29 -20 54 8 20 43 17 55 -5z"/>
<path d="M13321 2253 c1 -49 3 -53 8 -23 l6 35 12 -32 c7 -18 16 -33 21 -33 5
0 14 15 20 33 l10 32 1 -32 c2 -56 21 -36 21 22 0 64 -13 70 -36 18 l-17 -38
-15 38 c-21 53 -32 46 -31 -20z"/>
<path d="M13450 2255 c0 -30 5 -55 10 -55 6 0 10 6 10 14 0 8 9 17 19 21 45
14 32 75 -15 75 -22 0 -24 -4 -24 -55z m48 18 c-5 -25 -28 -28 -28 -4 0 12 6
21 16 21 9 0 14 -7 12 -17z"/>
<path d="M13630 2254 l0 -55 37 3 c28 2 41 10 52 29 13 24 13 29 -2 53 -13 20
-26 26 -52 26 l-35 0 0 -56z m75 16 c8 -25 -10 -50 -36 -50 -15 0 -19 7 -19
35 0 30 3 35 24 35 16 0 27 -7 31 -20z"/>
<path d="M13740 2267 c0 -48 13 -67 47 -67 27 0 43 27 43 74 0 51 -18 45 -22
-6 -2 -35 -7 -43 -23 -43 -16 0 -21 8 -23 43 -4 55 -22 55 -22 -1z"/>
<path d="M13850 2256 c0 -31 5 -56 10 -56 6 0 10 10 10 23 l1 22 20 -24 c11
-13 22 -21 26 -18 3 4 0 14 -7 23 -11 12 -11 17 -1 23 7 5 11 19 9 32 -2 19
-10 25 -35 27 l-33 3 0 -55z m50 19 c0 -8 -7 -15 -15 -15 -8 0 -15 7 -15 15 0
8 7 15 15 15 8 0 15 -7 15 -15z"/>
<path d="M13965 2298 c-26 -73 -33 -98 -25 -98 5 0 12 5 15 10 9 14 42 12 48
-2 2 -7 7 -11 10 -7 9 7 -25 109 -35 109 -5 0 -11 -6 -13 -12z m19 -43 c3 -8
1 -15 -4 -15 -6 0 -10 7 -10 15 0 8 2 15 4 15 2 0 6 -7 10 -15z"/>
<path d="M14020 2300 c0 -5 7 -10 15 -10 11 0 15 -12 15 -45 0 -25 5 -45 10
-45 6 0 10 20 10 45 0 33 4 45 15 45 8 0 15 5 15 10 0 6 -18 10 -40 10 -22 0
-40 -4 -40 -10z"/>
<path d="M14120 2255 c0 -30 5 -55 10 -55 6 0 10 25 10 55 0 30 -4 55 -10 55
-5 0 -10 -25 -10 -55z"/>
<path d="M14178 2299 c-12 -6 -18 -22 -18 -45 0 -43 34 -64 75 -46 20 9 25 19
25 46 0 48 -40 70 -82 45z m57 -44 c0 -25 -4 -30 -25 -30 -16 0 -26 6 -28 18
-6 30 6 49 30 45 18 -2 23 -9 23 -33z"/>
<path d="M14291 2253 c2 -54 2 -55 8 -18 l6 40 23 -37 c13 -21 28 -38 33 -38
5 0 9 25 9 55 0 59 -17 76 -22 23 l-3 -33 -18 33 c-26 47 -37 39 -36 -25z"/>
<path d="M14810 2255 l0 -56 33 3 c31 3 32 4 32 53 0 49 -1 50 -32 53 l-33 3
0 -56z m48 23 c-6 -18 -28 -21 -28 -4 0 9 7 16 16 16 9 0 14 -5 12 -12z m0
-49 c-2 -6 -8 -10 -13 -10 -5 0 -11 4 -13 10 -2 6 4 11 13 11 9 0 15 -5 13
-11z"/>
<path d="M15060 2256 c0 -31 5 -56 10 -56 6 0 10 6 10 13 0 7 10 17 23 22 16
7 22 18 22 40 0 27 -4 30 -32 33 l-33 3 0 -55z m50 14 c0 -11 -7 -20 -15 -20
-8 0 -15 9 -15 20 0 11 7 20 15 20 8 0 15 -9 15 -20z"/>
<path d="M15156 2294 c-9 -8 -16 -26 -16 -38 0 -51 81 -77 88 -28 2 12 -1 22
-7 22 -6 0 -11 -7 -11 -16 0 -10 -7 -14 -22 -12 -18 2 -23 10 -23 33 0 27 4
30 33 33 18 2 30 8 27 13 -10 14 -52 11 -69 -7z"/>
<path d="M15250 2210 c0 -5 5 -10 10 -10 6 0 10 5 10 10 0 6 -4 10 -10 10 -5
0 -10 -4 -10 -10z"/>
<path d="M643 2005 c-6 -19 -7 -35 -3 -35 5 0 10 6 13 13 3 9 7 9 20 -2 20
-16 20 -14 6 28 -14 40 -23 39 -36 -4z"/>
<path d="M708 2000 c2 -16 5 -30 7 -30 2 0 5 14 7 30 3 19 0 30 -7 30 -7 0
-10 -11 -7 -30z"/>
<path d="M923 2018 c10 -8 17 -32 20 -63 l3 -50 2 52 c2 38 7 55 20 62 14 8 9
10 -22 11 -34 0 -37 -2 -23 -12z"/>
<path d="M1003 1970 c0 -48 1 -56 6 -30 4 26 11 35 26 35 15 0 22 -9 27 -35
l6 -35 -1 40 c-2 36 -5 40 -29 43 -18 2 -28 10 -31 25 -2 12 -4 -7 -4 -43z"/>
<path d="M2882 1968 c1 -55 2 -57 6 -18 l4 45 23 -45 22 -44 21 44 20 45 1
-42 c1 -24 6 -43 11 -43 13 0 13 107 0 115 -6 4 -20 -15 -32 -41 l-21 -48 -24
47 c-13 26 -26 47 -28 47 -3 0 -4 -28 -3 -62z"/>
<path d="M3730 2011 c0 -14 -8 -21 -27 -23 -25 -3 -28 -7 -28 -38 0 -34 2 -35
38 -37 l37 -1 0 59 c0 33 -4 59 -10 59 -5 0 -10 -9 -10 -19z m-2 -58 c-3 -31
-34 -44 -44 -19 -9 24 3 46 26 46 17 0 21 -5 18 -27z"/>
<path d="M4701 1973 l-1 -63 30 0 c33 0 55 29 45 60 -4 14 -15 20 -35 20 -22
0 -30 5 -33 23 -2 12 -5 -6 -6 -40z m57 -20 c-3 -31 -32 -43 -41 -18 -9 23 3
45 25 45 15 0 19 -6 16 -27z"/>
<path d="M5293 2005 c-6 -14 -7 -25 -2 -25 5 0 10 -17 11 -37 l1 -38 4 35 c3
19 10 38 16 42 9 6 9 8 0 8 -7 0 -13 6 -13 14 0 8 6 17 13 19 8 4 7 6 -3 6 -8
1 -20 -10 -27 -24z"/>
<path d="M5340 1970 c0 -33 4 -60 10 -60 6 0 10 27 10 60 0 33 -4 60 -10 60
-6 0 -10 -27 -10 -60z"/>
<path d="M5822 2010 c-10 -26 -3 -100 9 -100 5 0 9 15 9 34 0 19 6 37 13 39
10 4 10 6 0 6 -7 1 -13 7 -13 15 0 8 6 17 13 19 7 3 5 6 -6 6 -10 1 -21 -8
-25 -19z"/>
<path d="M5873 1970 c0 -36 2 -50 4 -32 2 17 2 47 0 65 -2 17 -4 3 -4 -33z"/>
<path d="M6032 1970 c0 -37 3 -57 7 -47 6 17 8 17 20 3 7 -9 18 -16 24 -16 5
0 2 9 -8 20 -17 19 -17 21 0 40 10 11 13 20 8 20 -6 0 -17 -7 -24 -17 -13 -15
-15 -12 -20 23 -5 32 -6 27 -7 -26z"/>
<path d="M7190 1970 c0 -33 4 -60 10 -60 6 0 10 16 10 35 0 28 4 35 19 35 15
0 21 -8 24 -37 l4 -38 1 43 c2 39 0 42 -23 42 -18 0 -25 5 -25 20 0 11 -4 20
-10 20 -6 0 -10 -27 -10 -60z"/>
<path d="M7930 2010 c0 -16 -7 -20 -30 -20 -23 0 -31 -5 -36 -25 -8 -33 11
-55 47 -55 29 0 29 1 29 60 0 33 -2 60 -5 60 -3 0 -5 -9 -5 -20z m-6 -45 c8
-23 -4 -45 -25 -45 -14 0 -19 7 -19 30 0 23 5 30 19 30 10 0 21 -7 25 -15z"/>
<path d="M9150 2011 c0 -14 -8 -21 -27 -23 -25 -3 -28 -7 -28 -38 0 -33 2 -35
33 -36 l32 -1 0 59 c0 32 -2 58 -5 58 -3 0 -5 -9 -5 -19z m-5 -61 c0 -29 -32
-41 -41 -16 -9 24 4 48 23 44 12 -2 18 -12 18 -28z"/>
<path d="M10993 2023 c13 -4 17 -15 17 -59 0 -30 5 -54 10 -54 6 0 10 22 10
50 0 36 5 52 18 59 13 8 7 10 -28 10 -25 -1 -37 -3 -27 -6z"/>
<path d="M11624 2015 c-17 -13 -17 -14 -2 -15 13 0 18 -11 21 -47 3 -43 4 -42
5 15 1 34 1 62 -1 62 -2 0 -12 -7 -23 -15z"/>
<path d="M12210 2022 c0 -5 8 -9 17 -8 10 0 19 -7 21 -16 2 -13 -3 -18 -20
-19 l-23 0 23 -11 c32 -16 29 -46 -5 -51 l-28 -4 26 -2 c32 -1 54 22 44 46 -4
10 -8 29 -9 43 -1 18 -7 26 -23 28 -13 2 -23 -1 -23 -6z"/>
<path d="M12302 2018 c-13 -13 -16 -66 -6 -92 3 -9 16 -16 29 -16 26 0 35 17
35 64 0 32 -15 56 -35 56 -6 0 -16 -5 -23 -12z m48 -55 c0 -36 -25 -57 -41
-32 -13 20 -11 63 3 77 18 18 38 -5 38 -45z"/>
<path d="M12432 2010 c-10 -26 -3 -100 9 -100 5 0 9 16 9 35 0 28 4 35 20 35
16 0 20 -7 20 -35 0 -27 4 -35 18 -34 10 0 12 3 5 6 -7 2 -13 17 -13 33 0 16
6 31 13 33 10 4 10 6 0 6 -7 1 -13 9 -13 19 -1 16 -1 16 -11 0 -5 -10 -17 -18
-24 -18 -18 0 -20 26 -2 33 7 3 5 6 -6 6 -10 1 -21 -8 -25 -19z"/>
<path d="M13112 1970 c12 -33 25 -60 29 -60 10 0 51 111 45 118 -3 2 -10 -8
-16 -24 -26 -72 -26 -72 -44 -30 -9 21 -16 42 -16 47 0 5 -4 9 -10 9 -5 0 1
-27 12 -60z"/>
<path d="M13654 2015 c-17 -13 -17 -14 -2 -15 13 0 18 -11 21 -47 3 -43 4 -42
5 15 1 34 1 62 -1 62 -2 0 -12 -7 -23 -15z"/>
<path d="M14110 2011 c-15 -29 -12 -94 6 -117 15 -18 15 -18 5 3 -14 28 -14
89 -1 114 6 10 8 19 6 19 -3 0 -10 -9 -16 -19z"/>
<path d="M14150 1971 c0 -60 0 -61 28 -61 41 0 65 22 65 59 0 40 -10 50 -56
58 l-37 6 0 -62z m72 25 c14 -21 8 -55 -11 -66 -39 -20 -51 -13 -51 33 0 24 3
47 7 50 9 9 46 -2 55 -17z"/>
<path d="M14266 2015 c5 -11 8 -38 8 -60 0 -22 -3 -49 -8 -60 -8 -20 -7 -20 8
-1 9 11 16 38 16 61 0 23 -7 50 -16 61 -15 19 -16 19 -8 -1z"/>
<path d="M14811 1968 c1 -35 4 -51 6 -35 3 18 10 27 23 27 11 0 24 9 30 21 14
26 -3 49 -36 49 -23 0 -24 -3 -23 -62z m47 30 c-5 -34 -38 -37 -38 -4 0 20 5
26 21 26 15 0 20 -5 17 -22z"/>
<path d="M15030 2020 c-12 -8 -10 -10 10 -8 36 4 40 -33 6 -56 -39 -25 -34
-46 12 -45 30 2 32 3 10 6 -32 5 -35 15 -12 33 27 23 37 50 23 66 -13 16 -28
18 -49 4z"/>
<path d="M15123 2018 c-5 -7 -9 -33 -8 -58 0 -43 1 -45 30 -45 29 0 30 2 30
45 1 47 -9 70 -30 70 -7 0 -17 -6 -22 -12z m37 -24 c0 -8 -7 -14 -15 -14 -15
0 -21 21 -9 33 10 9 24 -2 24 -19z m8 -47 c4 -21 -25 -34 -40 -19 -8 8 -8 16
2 27 16 19 34 15 38 -8z"/>
<path d="M15210 2020 c-12 -8 -10 -10 10 -8 36 4 40 -33 6 -56 -39 -25 -34
-46 12 -45 30 2 32 3 10 6 -32 5 -35 15 -12 33 27 23 37 50 23 66 -13 16 -28
18 -49 4z"/>
<path d="M1510 2008 c0 -9 -6 -19 -12 -21 -10 -4 -10 -6 0 -6 7 -1 12 -15 12
-36 0 -27 4 -35 18 -34 10 0 12 3 5 6 -15 5 -18 60 -4 65 5 2 3 12 -5 22 -11
16 -14 17 -14 4z"/>
<path d="M9432 2000 c-7 -12 -8 -20 -2 -20 5 0 10 -16 10 -35 0 -27 4 -35 18
-34 10 0 12 3 5 6 -7 2 -13 18 -13 34 0 16 5 29 13 29 8 0 9 3 1 8 -6 4 -13
13 -15 20 -3 8 -8 5 -17 -8z"/>
<path d="M6338 1998 c-2 -7 -2 -29 2 -48 3 -25 11 -35 25 -37 11 -2 14 0 8 3
-16 7 -17 64 -2 64 6 0 4 7 -5 15 -18 18 -23 19 -28 3z"/>
<path d="M7138 1998 c-2 -7 -2 -29 2 -48 3 -25 11 -35 25 -37 11 -2 14 0 8 3
-16 7 -17 64 -2 64 6 0 4 7 -5 15 -18 18 -23 19 -28 3z"/>
<path d="M1118 1983 c12 -2 22 -8 22 -13 0 -5 -10 -10 -22 -12 -15 -2 -24 -11
-26 -26 -3 -19 1 -22 27 -20 29 2 31 5 31 40 0 35 -2 38 -27 37 -24 -2 -25 -2
-5 -6z m22 -43 c0 -12 -28 -25 -36 -17 -9 9 6 27 22 27 8 0 14 -5 14 -10z"/>
<path d="M1183 1955 c2 -37 4 -40 35 -43 32 -3 32 -3 31 40 l-1 43 -10 -38
c-13 -49 -40 -47 -50 3 l-6 35 1 -40z"/>
<path d="M1270 1949 c0 -21 5 -39 10 -39 6 0 10 16 10 36 0 49 32 44 41 -6 l6
-35 4 35 c6 51 36 54 42 3 l4 -38 1 42 2 41 -60 1 -60 0 0 -40z"/>
<path d="M1438 1983 c12 -2 22 -8 22 -13 0 -5 -10 -10 -22 -12 -15 -2 -23 -10
-23 -23 0 -15 8 -21 33 -23 33 -3 33 -3 30 35 -3 34 -6 38 -33 40 -20 1 -23 0
-7 -4z m22 -48 c0 -8 -7 -15 -15 -15 -8 0 -15 7 -15 15 0 8 7 15 15 15 8 0 15
-7 15 -15z"/>
<path d="M1563 1955 c2 -37 4 -40 35 -43 32 -3 32 -3 31 40 l-1 43 -10 -38
c-13 -49 -40 -47 -50 3 l-6 35 1 -40z"/>
<path d="M1650 1950 c0 -22 5 -40 10 -40 6 0 10 15 10 34 0 24 5 36 18 39 10
3 6 5 -10 6 -26 1 -28 -2 -28 -39z"/>
<path d="M1714 1976 c-3 -8 -4 -25 -2 -38 2 -18 9 -23 31 -23 15 1 27 -2 27
-6 0 -14 -30 -31 -45 -25 -9 3 -13 2 -10 -4 8 -14 38 -13 53 2 7 7 12 34 12
60 0 47 -1 48 -30 48 -17 0 -33 -6 -36 -14z m51 -26 c0 -29 -32 -41 -41 -16
-9 24 4 48 23 44 12 -2 18 -12 18 -28z"/>
<path d="M1815 1954 c19 -46 19 -49 -2 -70 -13 -13 -14 -16 -3 -13 16 5 59 85
59 109 0 8 -8 -1 -16 -20 l-16 -35 -10 33 c-5 17 -14 32 -19 32 -4 0 -1 -16 7
-36z"/>
<path d="M3020 1950 c0 -22 5 -40 10 -40 6 0 10 18 10 40 0 22 -4 40 -10 40
-5 0 -10 -18 -10 -40z"/>
<path d="M3060 1950 c0 -22 5 -40 10 -40 6 0 10 16 10 35 0 28 4 35 19 35 15
0 21 -8 24 -37 l4 -38 1 43 c2 42 2 42 -33 42 -34 0 -35 -1 -35 -40z"/>
<path d="M3164 1976 c-12 -32 0 -61 28 -64 35 -4 60 37 38 63 -16 19 -59 20
-66 1z m54 -23 c-3 -31 -34 -44 -44 -19 -9 24 3 46 26 46 17 0 21 -5 18 -27z"/>
<path d="M3261 1948 c2 -34 3 -37 6 -13 2 17 12 36 21 43 14 11 13 12 -6 12
-19 0 -22 -5 -21 -42z"/>
<path d="M3354 1974 c3 -9 9 -27 12 -40 8 -32 20 -30 32 4 l10 27 11 -29 c14
-34 26 -26 35 24 l6 35 -14 -30 -14 -30 -7 28 c-9 34 -23 35 -31 2 -7 -28 -24
-24 -24 6 0 10 -5 19 -11 19 -6 0 -8 -7 -5 -16z"/>
<path d="M3484 1976 c-12 -32 0 -61 28 -64 35 -4 60 37 38 63 -16 19 -59 20
-66 1z m54 -23 c-3 -31 -34 -44 -44 -19 -9 24 3 46 26 46 17 0 21 -5 18 -27z"/>
<path d="M3581 1948 l2 -43 6 35 c4 26 11 35 26 35 15 0 22 -9 27 -35 l6 -35
-1 40 c-2 37 -4 40 -34 43 -33 3 -33 3 -32 -40z"/>
<path d="M3774 1976 c-3 -8 -4 -25 -2 -38 2 -18 10 -23 33 -25 27 -2 28 -1 6
5 -38 11 -38 32 -1 32 25 0 31 4 28 18 -4 22 -56 29 -64 8z m51 -6 c4 -6 -5
-10 -20 -10 -15 0 -24 4 -20 10 3 6 12 10 20 10 8 0 17 -4 20 -10z"/>
<path d="M3861 1948 l1 -43 8 34 c4 18 14 37 22 42 9 6 7 9 -9 9 -20 0 -23 -5
-22 -42z"/>
<path d="M4001 1948 l2 -43 6 35 c9 50 41 55 41 6 0 -20 5 -36 10 -36 6 0 10
16 10 36 0 28 3 35 18 32 10 -2 19 -16 24 -38 l6 -35 -1 40 -2 40 -57 3 -58 2
1 -42z"/>
<path d="M4149 1944 c15 -43 15 -46 -3 -60 -17 -12 -17 -14 -4 -14 20 0 21 2
47 68 11 29 17 52 12 52 -5 0 -12 -11 -15 -25 -4 -14 -10 -25 -15 -25 -5 0
-12 11 -15 25 -4 14 -10 25 -15 25 -5 0 -1 -21 8 -46z"/>
<path d="M4272 1958 c17 -52 26 -55 43 -15 21 50 18 60 -4 18 l-19 -35 -7 32
c-3 18 -10 32 -15 32 -5 0 -4 -15 2 -32z"/>
<path d="M4354 1976 c-12 -32 0 -61 28 -64 35 -4 60 37 38 63 -16 19 -59 20
-66 1z m54 -23 c-3 -31 -34 -44 -44 -19 -9 24 3 46 26 46 17 0 21 -5 18 -27z"/>
<path d="M4453 1950 c0 -25 2 -35 4 -22 2 12 2 32 0 45 -2 12 -4 2 -4 -23z"/>
<path d="M4494 1976 c-3 -8 -4 -25 -2 -38 2 -18 10 -23 33 -25 28 -2 28 -1 5
5 -18 6 -25 15 -25 32 0 17 7 26 25 31 l25 7 -28 1 c-15 1 -30 -5 -33 -13z"/>
<path d="M4564 1966 c-4 -16 -1 -32 6 -41 13 -16 60 -21 60 -6 0 4 -11 6 -25
3 -18 -3 -25 0 -25 12 0 11 9 16 26 16 36 0 29 34 -8 38 -22 3 -29 -2 -34 -22z
m56 4 c0 -5 -9 -10 -20 -10 -11 0 -20 5 -20 10 0 6 9 10 20 10 11 0 20 -4 20
-10z"/>
<path d="M4794 1965 c-8 -33 12 -57 45 -53 22 3 26 8 26 38 0 32 -3 35 -32 38
-28 3 -33 -1 -39 -23z m61 -15 c0 -38 -39 -35 -43 3 -3 25 0 28 20 25 17 -2
23 -9 23 -28z"/>
<path d="M4894 1965 c-8 -33 12 -57 45 -53 22 3 26 8 26 38 0 32 -3 35 -32 38
-28 3 -33 -1 -39 -23z m61 -15 c0 -38 -39 -35 -43 3 -3 25 0 28 20 25 17 -2
23 -9 23 -28z"/>
<path d="M4990 1949 c0 -21 5 -39 10 -39 6 0 10 16 10 36 0 49 32 44 41 -6 l6
-35 4 35 c6 51 36 54 42 3 l4 -38 1 42 2 41 -60 1 -60 0 0 -40z"/>
<path d="M5134 1978 c-4 -7 2 -18 14 -26 28 -18 28 -29 0 -35 -20 -4 -20 -4 4
-6 36 -1 46 18 20 40 -27 21 -27 26 -4 32 13 4 12 5 -5 6 -12 0 -25 -4 -29
-11z"/>
<path d="M5408 1983 c12 -2 22 -8 22 -13 0 -5 -10 -10 -22 -12 -15 -2 -24 -11
-26 -26 -3 -19 1 -22 27 -20 29 2 31 5 31 40 0 35 -2 38 -27 37 -24 -2 -25 -2
-5 -6z m22 -43 c0 -12 -28 -25 -36 -17 -9 9 6 27 22 27 8 0 14 -5 14 -10z"/>
<path d="M5471 1948 l2 -43 6 35 c9 50 41 55 41 6 0 -20 5 -36 10 -36 6 0 10
16 10 36 0 28 3 35 18 32 10 -2 19 -16 24 -38 l6 -35 -1 40 -2 40 -57 3 -58 2
1 -42z"/>
<path d="M5614 1976 c-3 -8 -4 -25 -2 -38 2 -18 10 -23 33 -25 27 -2 28 -1 6
5 -38 11 -38 32 -1 32 25 0 31 4 28 18 -4 22 -56 29 -64 8z m51 -6 c4 -6 -5
-10 -20 -10 -15 0 -24 4 -20 10 3 6 12 10 20 10 8 0 17 -4 20 -10z"/>
<path d="M5700 1972 c0 -11 10 -24 23 -29 l22 -11 -25 -11 -25 -11 25 3 c31 3
39 33 11 42 -28 8 -27 23 2 28 19 4 18 4 -5 6 -21 1 -28 -4 -28 -17z"/>
<path d="M5913 1950 c0 -25 2 -35 4 -22 2 12 2 32 0 45 -2 12 -4 2 -4 -23z"/>
<path d="M5954 1976 c-3 -8 -4 -25 -2 -38 2 -18 10 -23 33 -25 28 -2 28 -1 5
5 -18 6 -25 15 -25 32 0 17 7 26 25 31 l25 7 -28 1 c-15 1 -30 -5 -33 -13z"/>
<path d="M6114 1976 c-3 -8 -4 -25 -2 -38 2 -18 10 -23 33 -25 27 -2 28 -1 6
5 -38 12 -38 32 -1 32 25 0 31 3 26 16 -3 9 -6 18 -6 20 0 11 -51 2 -56 -10z
m46 -6 c0 -5 -9 -10 -21 -10 -11 0 -17 5 -14 10 3 6 13 10 21 10 8 0 14 -4 14
-10z"/>
<path d="M6201 1948 c2 -34 3 -37 6 -13 2 17 12 36 21 43 14 11 13 12 -6 12
-19 0 -22 -5 -21 -42z"/>
<path d="M6390 1950 c0 -22 5 -40 10 -40 6 0 10 15 10 34 0 24 5 36 18 39 10
3 6 5 -10 6 -26 1 -28 -2 -28 -39z"/>
<path d="M6454 1976 c-3 -8 -4 -25 -2 -38 2 -18 10 -23 33 -25 27 -2 28 -1 6
5 -38 11 -38 32 -1 32 25 0 31 4 28 18 -4 22 -56 29 -64 8z m51 -6 c4 -6 -5
-10 -20 -10 -15 0 -24 4 -20 10 3 6 12 10 20 10 8 0 17 -4 20 -10z"/>
<path d="M6541 1948 l2 -43 6 35 c9 50 41 55 41 6 0 -20 5 -36 10 -36 6 0 10
16 10 36 0 28 3 35 18 32 10 -2 19 -16 24 -38 l6 -35 -1 40 -2 40 -57 3 -58 2
1 -42z"/>
<path d="M6684 1976 c-9 -23 -1 -48 19 -60 25 -16 52 4 52 40 0 25 -4 29 -33
32 -22 2 -34 -2 -38 -12z m60 -11 c8 -23 -4 -45 -25 -45 -11 0 -22 7 -25 15
-9 23 3 45 25 45 10 0 21 -7 25 -15z"/>
<path d="M6781 1948 l1 -43 8 34 c4 18 14 37 22 42 9 6 7 9 -9 9 -20 0 -23 -5
-22 -42z"/>
<path d="M6840 1972 c0 -11 10 -24 23 -29 l22 -11 -25 -11 -25 -11 25 3 c31 3
39 33 11 42 -28 8 -27 23 2 28 19 4 18 4 -5 6 -21 1 -28 -4 -28 -17z"/>
<path d="M6963 1950 c0 -25 2 -35 4 -22 2 12 2 32 0 45 -2 12 -4 2 -4 -23z"/>
<path d="M7001 1948 l2 -43 6 35 c9 50 41 55 41 6 0 -20 5 -36 10 -36 11 0 13
39 4 64 -4 10 -18 16 -35 16 -28 0 -29 -2 -28 -42z"/>
<path d="M7294 1976 c-3 -8 -4 -25 -2 -38 2 -18 10 -23 33 -25 27 -2 28 -1 6
5 -38 12 -38 32 -1 32 25 0 31 3 26 16 -3 9 -6 18 -6 20 0 11 -51 2 -56 -10z
m46 -6 c0 -5 -9 -10 -21 -10 -11 0 -17 5 -14 10 3 6 13 10 21 10 8 0 14 -4 14
-10z"/>
<path d="M7424 1976 c-3 -8 -4 -25 -2 -38 2 -18 9 -23 31 -23 20 1 27 -4 25
-15 -2 -9 -14 -15 -31 -15 -16 1 -23 -3 -18 -8 5 -5 21 -7 34 -3 26 6 37 30
37 84 0 30 -2 32 -35 32 -22 0 -38 -6 -41 -14z m54 -23 c-3 -31 -34 -44 -44
-19 -9 24 3 46 26 46 17 0 21 -5 18 -27z"/>
<path d="M7521 1948 l1 -43 8 34 c4 18 14 37 22 42 9 6 7 9 -9 9 -20 0 -23 -5
-22 -42z"/>
<path d="M7584 1976 c-12 -32 0 -61 28 -64 35 -4 60 37 38 63 -16 19 -59 20
-66 1z m54 -23 c-3 -31 -34 -44 -44 -19 -9 24 3 46 26 46 17 0 21 -5 18 -27z"/>
<path d="M7684 1950 c1 -32 4 -35 34 -37 31 -1 32 0 32 38 0 47 -17 52 -22 7
-4 -47 -35 -51 -41 -6 l-4 33 1 -35z"/>
<path d="M7771 1948 l2 -43 6 35 c4 26 11 35 26 35 15 0 22 -9 27 -35 l6 -35
-1 40 c-2 37 -4 40 -34 43 -33 3 -33 3 -32 -40z"/>
<path d="M8044 1965 c-8 -33 12 -57 45 -53 22 3 26 8 26 38 0 32 -3 35 -32 38
-28 3 -33 -1 -39 -23z m61 -15 c0 -38 -39 -35 -43 3 -3 25 0 28 20 25 17 -2
23 -9 23 -28z"/>
<path d="M8140 1949 c0 -21 5 -39 10 -39 6 0 10 16 10 36 0 49 32 44 41 -6 l6
-35 4 35 c6 51 36 54 42 3 l4 -38 1 42 2 41 -60 1 -60 0 0 -40z"/>
<path d="M8293 1950 c0 -25 2 -35 4 -22 2 12 2 32 0 45 -2 12 -4 2 -4 -23z"/>
<path d="M8331 1948 l2 -43 6 35 c4 26 11 35 26 35 15 0 22 -9 27 -35 l6 -35
-1 40 c-2 37 -4 40 -34 43 -33 3 -33 3 -32 -40z"/>
<path d="M8424 1976 c-9 -23 -1 -48 19 -60 25 -16 52 4 52 40 0 25 -4 29 -33
32 -22 2 -34 -2 -38 -12z m60 -11 c8 -23 -4 -45 -25 -45 -11 0 -22 7 -25 15
-9 23 3 45 25 45 10 0 21 -7 25 -15z"/>
<path d="M8523 1955 c2 -37 4 -40 35 -43 32 -3 32 -3 31 40 l-1 43 -10 -38
c-13 -49 -40 -47 -50 3 l-6 35 1 -40z"/>
<path d="M8614 1978 c-4 -7 2 -18 14 -26 28 -18 28 -29 0 -35 -20 -4 -20 -4 4
-6 36 -1 46 18 20 40 -27 21 -27 26 -4 32 13 4 12 5 -5 6 -12 0 -25 -4 -29
-11z"/>
<path d="M8734 1978 c-4 -7 2 -18 14 -26 28 -18 28 -29 0 -35 -20 -4 -19 -4 5
-6 21 -1 27 4 27 19 0 10 -10 25 -22 32 l-23 12 25 7 c23 6 23 7 3 8 -12 1
-25 -4 -29 -11z"/>
<path d="M8804 1976 c-9 -23 -1 -48 19 -60 25 -16 52 4 52 40 0 25 -4 29 -33
32 -22 2 -34 -2 -38 -12z m60 -11 c8 -23 -4 -45 -25 -45 -11 0 -22 7 -25 15
-9 23 3 45 25 45 10 0 21 -7 25 -15z"/>
<path d="M8903 1955 c2 -37 4 -40 35 -43 32 -3 32 -3 31 40 l-1 43 -10 -38
c-13 -49 -40 -47 -50 3 l-6 35 1 -40z"/>
<path d="M9001 1948 l2 -43 6 35 c9 50 41 55 41 6 0 -20 5 -36 10 -36 11 0 13
39 4 64 -4 10 -18 16 -35 16 -28 0 -29 -2 -28 -42z"/>
<path d="M9190 1972 c0 -11 10 -24 23 -29 l22 -11 -25 -11 -25 -11 25 3 c31 3
39 33 11 42 -28 8 -27 23 2 28 19 4 18 4 -5 6 -21 1 -28 -4 -28 -17z"/>
<path d="M9344 1976 c-3 -8 -4 -25 -2 -38 2 -18 10 -23 33 -25 27 -2 28 -1 6
5 -38 11 -38 32 -1 32 25 0 31 4 28 18 -4 22 -56 29 -64 8z m51 -6 c4 -6 -5
-10 -20 -10 -15 0 -24 4 -20 10 3 6 12 10 20 10 8 0 17 -4 20 -10z"/>
<path d="M9492 1978 c-26 -26 -6 -69 33 -67 19 0 19 1 -2 9 -15 6 -23 18 -23
34 0 18 6 26 23 29 20 4 20 4 2 6 -12 0 -26 -4 -33 -11z"/>
<path d="M11081 1948 c2 -34 3 -37 6 -13 2 17 12 36 21 43 14 11 13 12 -6 12
-19 0 -22 -5 -21 -42z"/>
<path d="M11158 1983 c12 -2 22 -8 22 -13 0 -5 -10 -10 -22 -12 -15 -2 -24
-11 -26 -26 -3 -19 1 -22 27 -20 29 2 31 5 31 40 0 35 -2 38 -27 37 -24 -2
-25 -2 -5 -6z m22 -43 c0 -12 -28 -25 -36 -17 -9 9 6 27 22 27 8 0 14 -5 14
-10z"/>
<path d="M11221 1948 l2 -43 6 35 c4 26 11 35 26 35 15 0 22 -9 27 -35 l6 -35
-1 40 c-2 37 -4 40 -34 43 -33 3 -33 3 -32 -40z"/>
<path d="M11314 1978 c-4 -7 2 -18 14 -26 28 -18 28 -29 0 -35 -20 -4 -19 -4
5 -6 21 -1 27 4 27 19 0 10 -10 25 -22 32 l-23 12 25 7 c23 6 23 7 3 8 -12 1
-25 -4 -29 -11z"/>
<path d="M11755 1983 c30 -8 42 -23 18 -23 -25 0 -45 -21 -34 -38 4 -7 20 -11
35 -10 24 2 27 6 24 38 -3 31 -6 35 -33 37 -18 1 -22 -1 -10 -4z m33 -45 c-7
-19 -38 -22 -38 -4 0 10 9 16 21 16 12 0 19 -5 17 -12z"/>
<path d="M13771 1948 l2 -43 6 35 c9 50 41 55 41 6 0 -20 5 -36 10 -36 6 0 10
16 10 36 0 28 3 35 18 32 10 -2 19 -16 24 -38 l6 -35 -1 40 -2 40 -57 3 -58 2
1 -42z"/>
<path d="M13910 1950 c0 -22 5 -40 10 -40 6 0 10 18 10 40 0 22 -4 40 -10 40
-5 0 -10 -18 -10 -40z"/>
<path d="M13961 1948 c2 -43 2 -43 8 -8 9 50 41 55 41 6 0 -20 5 -36 11 -36 6
0 9 16 7 38 -3 34 -6 37 -35 40 -33 3 -33 3 -32 -40z"/>
<path d="M642 1930 c10 -32 28 -50 28 -29 0 8 3 9 13 0 11 -8 16 -3 24 24 6
19 7 33 2 29 -5 -3 -9 -12 -9 -20 0 -8 -5 -14 -11 -14 -6 0 -8 8 -5 18 4 12 1
19 -7 19 -9 0 -12 -7 -9 -20 3 -14 1 -18 -6 -13 -7 4 -12 14 -12 22 0 8 -4 14
-9 14 -6 0 -6 -12 1 -30z"/>
<path d="M10563 1953 c26 -2 67 -2 90 0 23 2 2 3 -48 3 -49 0 -68 -1 -42 -3z"/>
<path d="M732 1920 c0 -19 2 -27 5 -17 2 9 2 25 0 35 -3 9 -5 1 -5 -18z"/>
<path d="M751 1923 c-1 -25 3 -33 17 -33 11 0 13 3 6 8 -7 4 -14 18 -17 32 -4
21 -4 20 -6 -7z"/>
<path d="M791 1923 c-1 -25 3 -33 17 -33 11 0 13 3 6 8 -7 4 -14 18 -17 32 -4
21 -4 20 -6 -7z"/>
<path d="M3917 1923 c-4 -3 -7 -13 -7 -22 1 -13 3 -13 11 2 11 19 8 33 -4 20z"/>
<path d="M5207 1923 c-4 -3 -7 -13 -7 -22 1 -13 3 -13 11 2 11 19 8 33 -4 20z"/>
<path d="M6257 1923 c-4 -3 -7 -13 -7 -22 1 -13 3 -13 11 2 11 19 8 33 -4 20z"/>
<path d="M7957 1910 c-3 -11 -1 -20 4 -20 5 0 9 9 9 20 0 11 -2 20 -4 20 -2 0
-6 -9 -9 -20z"/>
<path d="M9256 1914 c-4 -9 -4 -19 -1 -22 2 -3 7 3 11 12 4 9 4 19 1 22 -2 3
-7 -3 -11 -12z"/>
<path d="M9560 1920 c0 -5 5 -10 11 -10 5 0 7 5 4 10 -3 6 -8 10 -11 10 -2 0
-4 -4 -4 -10z"/>
<path d="M817 1783 c-4 -3 -7 -46 -7 -95 l0 -88 -79 0 c-44 0 -83 -4 -86 -10
-4 -6 28 -10 89 -10 l96 0 0 105 c0 105 -1 111 -13 98z"/>
<path d="M817 1503 c-4 -3 -7 -46 -7 -95 l0 -88 -79 0 c-44 0 -83 -4 -86 -10
-4 -6 28 -10 89 -10 l96 0 0 105 c0 105 -1 111 -13 98z"/>
<path d="M817 1223 c-4 -3 -7 -46 -7 -95 l0 -88 -79 0 c-44 0 -83 -4 -86 -10
-4 -6 28 -10 89 -10 l96 0 0 105 c0 105 -1 111 -13 98z"/>
<path d="M817 943 c-4 -3 -7 -46 -7 -95 l0 -88 -79 0 c-44 0 -83 -4 -86 -10
-4 -6 28 -10 89 -10 l96 0 0 105 c0 105 -1 111 -13 98z"/>
<path d="M817 663 c-4 -3 -7 -46 -7 -95 l0 -88 -79 0 c-44 0 -83 -4 -86 -10
-4 -6 28 -10 89 -10 l96 0 0 105 c0 105 -1 111 -13 98z"/>
<path d="M817 383 c-4 -3 -7 -46 -7 -95 l0 -88 -79 0 c-44 0 -83 -4 -86 -10
-4 -6 28 -10 89 -10 l96 0 0 105 c0 105 -1 111 -13 98z"/>
<path d="M817 103 c-11 -10 -8 -103 3 -103 6 0 10 25 10 55 0 56 -1 60 -13 48z"/>
</g>
</svg>
